{
  "accessors": [
    {
      "bufferView": 3,
      "componentType": 5126,
      "count": 9643,
      "max": [
        77.4519271850586,
        79.14004516601563,
        101.16168975830078
      ],
      "min": [
        -77.5621566772461,
        -67.80892944335938,
        -343.7930908203125
      ],
      "type": "VEC3"
    },
    {
      "bufferView": 3,
      "byteOffset": 115716,
      "componentType": 5126,
      "count": 9643,
      "max": [
        0.9999887943267822,
        0.9999995231628418,
        0.9997290968894958
      ],
      "min": [
        -0.9999828934669495,
        -0.9999872446060181,
        -0.9999986886978149
      ],
      "type": "VEC3"
    },
    {
      "bufferView": 4,
      "componentType": 5126,
      "count": 9643,
      "max": [
        0.9999593496322632,
        0.9999712705612183,
        0.9995540976524353,
        1.0
      ],
      "min": [
        -1.0,
        -0.9999659657478333,
        -0.9997624754905701,
        -1.0
      ],
      "type": "VEC4"
    },
    {
      "bufferView": 2,
      "componentType": 5126,
      "count": 9643,
      "max": [
        0.9965819716453552,
        0.995235025882721
      ],
      "min": [
        0.003975000232458115,
        0.006347999908030033
      ],
      "type": "VEC2"
    },
    {
      "bufferView": 1,
      "componentType": 5125,
      "count": 50145,
      "type": "SCALAR"
    },
    {
      "bufferView": 5,
      "componentType": 5126,
      "count": 149,
      "max": [
        100.0,
        0.8714104294776917,
        0.9999923706054688,
        0.0,
        0.9999990463256836,
        100.00001525878906,
        0.7497490644454956,
        0.0,
        0.9941180348396301,
        0.9970393180847168,
        100.00000762939453,
        0.0,
        167.57260131835938,
        98.87916564941406,
        64.9415054321289,
        1.0
      ],
      "min": [
        -0.772902250289917,
        -0.8061885237693787,
        -0.9999925494194031,
        0.0,
        -0.9970396161079407,
        -0.9941180348396301,
        -0.9887611269950867,
        0.0,
        -0.9333080649375916,
        -0.9999964833259583,
        -0.803802490234375,
        0.0,
        -186.4624786376953,
        -215.44378662109375,
        -70.05514526367188,
        1.0
      ],
      "type": "MAT4"
    },
    {
      "bufferView": 0,
      "componentType": 5123,
      "count": 9643,
      "type": "VEC4"
    },
    {
      "bufferView": 4,
      "byteOffset": 154288,
      "componentType": 5126,
      "count": 9643,
      "max": [
        1.0,
        0.49803900718688965,
        0.3278687000274658,
        0.0
      ],
      "min": [
        0.34426265954971313,
        0.0,
        0.0,
        0.0
      ],
      "type": "VEC4"
    }
  ],
  "asset": {
    "extras": {
      "author": "charliegodofsharks (https://sketchfab.com/charliegodofsharks)",
      "license": "CC-BY-4.0 (http://creativecommons.org/licenses/by/4.0/)",
      "source": "https://sketchfab.com/3d-models/pelagic-thresher-shark-b193a4cd16024e8d9efb19314129bf33",
      "title": "Pelagic Thresher Shark"
    },
    "generator": "Sketchfab-16.12.0",
    "version": "2.0"
  },
  "bufferViews": [
    {
      "buffer": 0,
      "byteLength": 77144,
      "byteStride": 8,
      "name": "shortBufferViews",
      "target": 34962
    },
    {
      "buffer": 0,
      "byteLength": 200580,
      "byteOffset": 77144,
      "name": "floatBufferViews",
      "target": 34963
    },
    {
      "buffer": 0,
      "byteLength": 77144,
      "byteOffset": 277724,
      "byteStride": 8,
      "name": "floatBufferViews",
      "target": 34962
    },
    {
      "buffer": 0,
      "byteLength": 231432,
      "byteOffset": 354868,
      "byteStride": 12,
      "name": "floatBufferViews",
      "target": 34962
    },
    {
      "buffer": 0,
      "byteLength": 308576,
      "byteOffset": 586300,
      "byteStride": 16,
      "name": "floatBufferViews",
      "target": 34962
    },
    {
      "buffer": 0,
      "byteLength": 9536,
      "byteOffset": 894876,
      "name": "floatBufferViews"
    }
  ],
  "buffers": [
    {
      "byteLength": 904412,
      "uri": "scene.bin"
    }
  ],
  "images": [
    {
      "uri": "textures/body_baseColor.jpeg"
    },
    {
      "uri": "textures/body_normal.png"
    }
  ],
  "materials": [
    {
      "doubleSided": true,
      "name": "body",
      "normalTexture": {
        "index": 1
      },
      "pbrMetallicRoughness": {
        "baseColorTexture": {
          "index": 0
        },
        "metallicFactor": 0.0,
        "roughnessFactor": 0.44076020041203934
      }
    }
  ],
  "meshes": [
    {
      "name": "Megalodon_body_0",
      "primitives": [
        {
          "attributes": {
            "JOINTS_0": 6,
            "NORMAL": 1,
            "POSITION": 0,
            "TANGENT": 2,
            "TEXCOORD_0": 3,
            "WEIGHTS_0": 7
          },
          "indices": 4,
          "material": 0,
          "mode": 4
        }
      ]
    }
  ],
  "nodes": [
    {
      "children": [
        1
      ],
      "matrix": [
        1.0,
        0.0,
        0.0,
        0.0,
        0.0,
        2.220446049250313e-16,
        -1.0,
        0.0,
        0.0,
        1.0,
        2.220446049250313e-16,
        0.0,
        0.0,
        0.0,
        0.0,
        1.0
      ],
      "name": "Sketchfab_model"
    },
    {
      "children": [
        2
      ],
      "matrix": [
        0.009999999776482582,
        0.0,
        0.0,
        0.0,
        0.0,
        0.0,
        0.009999999776482582,
        0.0,
        0.0,
        -0.009999999776482582,
        0.0,
        0.0,
        0.0,
        0.0,
        0.0,
        1.0
      ],
      "name": "c0a44f2ec3374b32bd3114b5a69252aa.fbx"
    },
    {
      "children": [
        3,
        6,
        8,
        11,
        13
      ],
      "name": "RootNode"
    },
    {
      "children": [
        4
      ],
      "matrix": [
        -29.086477364379697,
        -5.518905590722295,
        -95.51711910171437,
        0.0,
        56.63932069164076,
        79.46722539115298,
        -21.839126361216156,
        0.0,
        77.11007920637729,
        -60.452475336912016,
        -19.988344364310564,
        0.0,
        407.6245422363281,
        590.38623046875,
        -100.54539489746094,
        1.0
      ],
      "name": "Light"
    },
    {
      "children": [
        5
      ],
      "matrix": [
        1.0,
        0.0,
        0.0,
        0.0,
        0.0,
        2.220446049250313e-16,
        1.0,
        0.0,
        0.0,
        -1.0,
        2.220446049250313e-16,
        0.0,
        0.0,
        0.0,
        0.0,
        1.0
      ],
      "name": "Object_4"
    },
    {
      "name": "Object_5"
    },
    {
      "children": [
        7
      ],
      "matrix": [
        -65.1558127516791,
        -44.52713915455176,
        -61.417049289096546,
        0.0,
        -32.401349332924404,
        89.53957282709818,
        -30.5420854760369,
        0.0,
        68.59207001076241,
        8.666908837178815e-06,
        -72.76761921184274,
        0.0,
        735.88916015625,
        495.8309326171875,
        692.5791015625,
        1.0
      ],
      "name": "Camera"
    },
    {
      "name": "Object_7"
    },
    {
      "children": [
        9
      ],
      "matrix": [
        -29.0864877302377,
        -5.518899924104898,
        -95.5171082850944,
        0.0,
        56.639310962635406,
        79.46722251134999,
        -21.839127137562794,
        0.0,
        77.1100784313753,
        -60.45247163152757,
        -19.988358560584828,
        0.0,
        407.6245422363281,
        590.38623046875,
        -100.54539489746094,
        1.0
      ],
      "name": "Light.001"
    },
    {
      "children": [
        10
      ],
      "matrix": [
        1.0,
        0.0,
        0.0,
        0.0,
        0.0,
        2.220446049250313e-16,
        1.0,
        0.0,
        0.0,
        -1.0,
        2.220446049250313e-16,
        0.0,
        0.0,
        0.0,
        0.0,
        1.0
      ],
      "name": "Object_9"
    },
    {
      "name": "Object_10"
    },
    {
      "children": [
        12
      ],
      "matrix": [
        -65.15581043470908,
        -44.52713187381178,
        -61.41704460334756,
        0.0,
        -32.401345612329955,
        89.53956792704162,
        -30.5420788085724,
        0.0,
        68.59206807949239,
        9.91547660490875e-06,
        -72.76762103229248,
        0.0,
        735.88916015625,
        495.8309326171875,
        692.5791015625,
        1.0
      ],
      "name": "Camera.001"
    },
    {
      "name": "Object_12"
    },
    {
      "children": [
        14
      ],
      "matrix": [
        100.0,
        0.0,
        0.0,
        0.0,
        0.0,
        -7.6893690838635065,
        -99.70392972742911,
        0.0,
        0.0,
        99.70392972742911,
        -7.6893690838635065,
        0.0,
        0.0,
        0.0,
        0.0,
        1.0
      ],
      "name": "Megalodon_skeleton"
    },
    {
      "children": [
        15,
        165,
        164
      ],
      "name": "Object_14"
    },
    {
      "children": [
        16
      ],
      "name": "_rootJoint"
    },
    {
      "children": [
        17,
        70,
        114,
        124,
        134,
        137,
        140,
        143,
        146,
        149,
        152,
        155,
        158,
        161
      ],
      "name": "Root_02",
      "rotation": [
        0.7041403651237488,
        -0.06471244990825653,
        0.7041386365890503,
        -0.06471104174852371
      ],
      "scale": [
        1.0000001192092896,
        1.0000001192092896,
        1.0000076293945313
      ]
    },
    {
      "children": [
        18
      ],
      "name": "Spine01_03",
      "rotation": [
        0.9956334233283997,
        -0.09335034340620041,
        -1.228051928592322e-06,
        2.001514474159194e-07
      ],
      "scale": [
        0.9999974966049194,
        0.9999999403953552,
        1.0000001192092896
      ],
      "translation": [
        -2.0173697471618652,
        -11.472835540771484,
        2.1460905372805428e-06
      ]
    },
    {
      "children": [
        19,
        61
      ],
      "name": "Spine02_04",
      "rotation": [
        1.6686772141838446e-07,
        6.359082931339799e-07,
        -0.4160233438014984,
        0.9093539118766785
      ],
      "scale": [
        1.000000238418579,
        1.000000238418579,
        0.9999998807907104
      ],
      "translation": [
        -2.1085965329348255e-07,
        29.201396942138672,
        -3.50184083119931e-11
      ]
    },
    {
      "children": [
        20
      ],
      "name": "Spine03_05",
      "rotation": [
        -1.1934437793570396e-07,
        -7.39354106826795e-07,
        0.41434845328330994,
        0.9101183414459229
      ],
      "scale": [
        0.9999997615814209,
        0.9999999403953552,
        0.9999999403953552
      ],
      "translation": [
        -20.4733829498291,
        17.82448387145996,
        -1.7528984244563617e-05
      ]
    },
    {
      "children": [
        21,
        45,
        53
      ],
      "name": "Spine04_06",
      "rotation": [
        -1.925492796317485e-07,
        -2.931842004727514e-07,
        0.4239085018634796,
        0.9057050347328186
      ],
      "scale": [
        1.0,
        1.000000238418579,
        1.0000001192092896
      ],
      "translation": [
        -1.465065997763304e-05,
        25.166419982910156,
        1.1363906343708763e-11
      ]
    },
    {
      "children": [
        22
      ],
      "name": "Spine05_07",
      "rotation": [
        7.567856563639452e-09,
        3.7974947986185725e-07,
        -0.4239083528518677,
        0.9057050943374634
      ],
      "scale": [
        1.0,
        0.9999998807907104,
        0.9999998807907104
      ],
      "translation": [
        21.906465530395508,
        18.27565574645996,
        -5.322862307366449e-06
      ]
    },
    {
      "children": [
        23,
        37,
        41
      ],
      "name": "Spine06_08",
      "rotation": [
        -1.3425521139254215e-08,
        5.935318014849145e-08,
        -0.039754368364810944,
        0.9992095828056335
      ],
      "scale": [
        1.0000001192092896,
        1.0,
        1.0000001192092896
      ],
      "translation": [
        -3.2535172067582607e-06,
        28.21240997314453,
        -1.02400865564789e-11
      ]
    },
    {
      "children": [
        24
      ],
      "name": "Spine07_09",
      "rotation": [
        1.34257458483944e-08,
        -5.934843727573025e-08,
        0.03975435346364975,
        0.9992095828056335
      ],
      "scale": [
        1.0000001192092896,
        1.0,
        0.9999998807907104
      ],
      "translation": [
        -1.9679969549179077,
        24.693092346191406,
        5.477331228576077e-07
      ]
    },
    {
      "children": [
        25,
        31
      ],
      "name": "Spine08_010",
      "rotation": [
        -5.91400706184686e-09,
        2.3697122486510125e-08,
        -0.015839792788028717,
        0.9998746514320374
      ],
      "scale": [
        0.9999998807907104,
        0.9999999403953552,
        1.0000001192092896
      ],
      "translation": [
        -2.435765964037273e-06,
        20.468521118164063,
        -4.450359525343117e-11
      ]
    },
    {
      "children": [
        26
      ],
      "name": "RearFin_top_01_011",
      "rotation": [
        2.432280155062472e-07,
        8.063253176260332e-07,
        -0.44262459874153137,
        0.8967069983482361
      ],
      "translation": [
        4.317172050476074,
        14.626299858093262,
        -1.5097037930900115e-06
      ]
    },
    {
      "children": [
        27
      ],
      "name": "RearFin_top_02_012",
      "rotation": [
        -6.939558261365164e-08,
        -7.764765541651286e-08,
        0.05061839520931244,
        0.9987180829048157
      ],
      "scale": [
        1.0,
        0.9999999403953552,
        1.000000238418579
      ],
      "translation": [
        -4.768423877976602e-06,
        19.09034538269043,
        -5.275069270282984e-11
      ]
    },
    {
      "children": [
        28
      ],
      "name": "RearFin_top_03_013",
      "rotation": [
        -4.563745648056283e-08,
        -1.6059826180025993e-07,
        0.04029703512787819,
        0.9991877675056458
      ],
      "scale": [
        0.9999997615814209,
        0.9999999403953552,
        0.9999998807907104
      ],
      "translation": [
        2.09807840292342e-05,
        14.353658676147461,
        -1.8189894035458565e-12
      ]
    },
    {
      "children": [
        29
      ],
      "name": "RearFin_top_04_014",
      "rotation": [
        -3.149164840010599e-08,
        -5.273960823615198e-08,
        0.034268226474523544,
        0.9994126558303833
      ],
      "scale": [
        1.0000001192092896,
        0.9999998807907104,
        1.0
      ],
      "translation": [
        -1.1444180017861072e-05,
        19.16624641418457,
        1.4551915228366852e-11
      ]
    },
    {
      "children": [
        30
      ],
      "name": "RearFin_top_04_end_015",
      "rotation": [
        3.552713678800501e-14,
        -4.334310688136611e-13,
        2.4608093340816595e-13,
        1.0
      ],
      "translation": [
        7.629313131474191e-06,
        0.9787635803222656,
        7.275957614183426e-12
      ]
    },
    {
      "name": "RearFin_top_04_end_end_0111",
      "rotation": [
        -1.0587911840678754e-22,
        1.0587911840678754e-22,
        -5.551115123125783e-17,
        1.0
      ],
      "translation": [
        -1.4210854715202004e-14,
        0.9787592887878418,
        0.0
      ]
    },
    {
      "children": [
        32
      ],
      "name": "RearFin_bottom_01_016",
      "rotation": [
        6.438983746193117e-07,
        -6.920254804754222e-07,
        0.5472822785377502,
        0.8369480967521667
      ],
      "scale": [
        0.9999999403953552,
        0.9999999403953552,
        0.9999999403953552
      ],
      "translation": [
        -4.317167282104492,
        13.091169357299805,
        1.509682761025033e-06
      ]
    },
    {
      "children": [
        33
      ],
      "name": "RearFin_bottom_02_017",
      "rotation": [
        -1.7100755655974353e-07,
        6.932402385473324e-08,
        -0.0884307399392128,
        0.9960823059082031
      ],
      "scale": [
        1.0,
        1.000000238418579,
        1.000000238418579
      ],
      "translation": [
        -3.767007729038596e-05,
        11.220195770263672,
        3.456079866737127e-11
      ]
    },
    {
      "children": [
        34
      ],
      "name": "RearFin_bottom_03_018",
      "rotation": [
        -1.3658574005148694e-07,
        6.488918558034129e-08,
        -0.07591886818408966,
        0.9971140027046204
      ],
      "scale": [
        0.9999998807907104,
        1.0000001192092896,
        0.9999998807907104
      ],
      "translation": [
        2.6702939067035913e-05,
        10.913314819335938,
        -3.456079866737127e-11
      ]
    },
    {
      "children": [
        35
      ],
      "name": "RearFin_bottom_04_019",
      "rotation": [
        -9.460085692580833e-08,
        2.3114472114116325e-08,
        -0.055292610079050064,
        0.9984701871871948
      ],
      "scale": [
        0.9999999403953552,
        0.9999998807907104,
        0.9999999403953552
      ],
      "translation": [
        -8.01085916464217e-05,
        11.945581436157227,
        1.0550138540565968e-10
      ]
    },
    {
      "children": [
        36
      ],
      "name": "RearFin_bottom_04_end_020",
      "rotation": [
        -2.0552448631860898e-12,
        9.450070947991662e-09,
        -1.4901166878189542e-06,
        1.0
      ],
      "scale": [
        0.9999999403953552,
        0.9999998807907104,
        1.0
      ],
      "translation": [
        -9.536714969726745e-06,
        0.9787731170654297,
        1.5006662579253316e-11
      ]
    },
    {
      "name": "RearFin_bottom_04_end_end_0112",
      "rotation": [
        -6.352747104407253e-22,
        2.117582368135751e-22,
        -5.551115123125783e-17,
        1.0
      ],
      "translation": [
        2.842170943040401e-14,
        0.9787549376487732,
        5.421010862427522e-20
      ]
    },
    {
      "children": [
        38
      ],
      "name": "SmallFin_Top_01_021",
      "rotation": [
        4.953247980665765e-07,
        8.872582952790253e-07,
        -0.5978350043296814,
        0.8016191720962524
      ],
      "scale": [
        1.0,
        1.0000001192092896,
        0.9999998807907104
      ],
      "translation": [
        13.686107635498047,
        3.046912908554077,
        -3.8088787732704077e-06
      ]
    },
    {
      "children": [
        39
      ],
      "name": "SmallFin_Top_02_022",
      "rotation": [
        -1.3732303294489157e-08,
        -8.846641641468977e-09,
        0.007127527147531509,
        0.9999746084213257
      ],
      "scale": [
        0.9999997615814209,
        0.9999998807907104,
        1.0000001192092896
      ],
      "translation": [
        1.6450843759230338e-05,
        3.3542556762695313,
        -2.2737367544323206e-11
      ]
    },
    {
      "children": [
        40
      ],
      "name": "SmallFin_Top_02_end_023",
      "rotation": [
        2.966160650430538e-11,
        -1.1604655014707532e-09,
        -1.4759600162506104e-05,
        1.0
      ],
      "scale": [
        1.0,
        1.0,
        0.9999999403953552
      ],
      "translation": [
        -2.3841897927923128e-05,
        0.9787693023681641,
        1.9099388737231493e-11
      ]
    },
    {
      "name": "SmallFin_Top_02_end_end_0113",
      "rotation": [
        5.877471754111438e-39,
        -2.117582368135751e-22,
        2.7755575615628914e-17,
        1.0
      ],
      "translation": [
        0.0,
        0.9787589311599731,
        8.131516293641283e-20
      ]
    },
    {
      "children": [
        42
      ],
      "name": "SmallFin_bottom_01_024",
      "rotation": [
        5.63052594770852e-07,
        -7.081001172082324e-07,
        0.5109215378761292,
        0.859627366065979
      ],
      "scale": [
        0.9999998211860657,
        0.9999998807907104,
        0.9999998807907104
      ],
      "translation": [
        -11.71812629699707,
        6.672903060913086,
        3.2611956157779787e-06
      ]
    },
    {
      "children": [
        43
      ],
      "name": "SmallFin_bottom_02_025",
      "rotation": [
        6.2877529849458824e-09,
        -1.363606205728729e-08,
        0.003241295926272869,
        0.9999947547912598
      ],
      "scale": [
        0.9999998211860657,
        1.0,
        1.000000238418579
      ],
      "translation": [
        -8.106195309665054e-06,
        3.9500789642333984,
        -4.547473508864641e-12
      ]
    },
    {
      "children": [
        44
      ],
      "name": "SmallFin_bottom_02_end_026",
      "rotation": [
        -3.1192828268272743e-12,
        1.2534691506971285e-08,
        -5.438926677925338e-07,
        1.0
      ],
      "scale": [
        1.0,
        0.9999999403953552,
        1.0
      ],
      "translation": [
        2.1934543838142417e-05,
        0.9787616729736328,
        1.3642420526593924e-11
      ]
    },
    {
      "name": "SmallFin_bottom_02_end_end_0114",
      "rotation": [
        5.293955920339377e-23,
        -1.4693679385278594e-39,
        -2.7755575615628914e-17,
        1.0
      ],
      "translation": [
        -1.4210854715202004e-14,
        0.9787577986717224,
        0.0
      ]
    },
    {
      "children": [
        46,
        50
      ],
      "name": "L_SmallFin_01_027",
      "rotation": [
        -0.23679514229297638,
        0.11083239316940308,
        0.04974912479519844,
        0.9639342427253723
      ],
      "scale": [
        1.0,
        0.9999997019767761,
        0.9999997615814209
      ],
      "translation": [
        -10.953216552734375,
        22.733600616455078,
        -9.156784057617188
      ]
    },
    {
      "children": [
        47
      ],
      "name": "L_SmallFin_02_028",
      "rotation": [
        -0.1124604120850563,
        0.07259148359298706,
        -0.04139640927314758,
        0.9901360869407654
      ],
      "scale": [
        1.0,
        0.9999999403953552,
        1.0
      ],
      "translation": [
        -0.7436227798461914,
        4.900569915771484,
        -1.2770085334777832
      ]
    },
    {
      "children": [
        48
      ],
      "name": "L_SmallFin_03_029",
      "rotation": [
        0.022038940340280533,
        0.008089074864983559,
        -0.03983781859278679,
        0.9989303350448608
      ],
      "scale": [
        0.9999997615814209,
        1.0,
        0.9999999403953552
      ],
      "translation": [
        1.430511474609375e-06,
        4.340618133544922,
        -3.814697265625e-06
      ]
    },
    {
      "children": [
        49
      ],
      "name": "L_SmallFin_03_end_030",
      "rotation": [
        -9.365379810333252e-06,
        3.125518105662195e-06,
        1.914799213409424e-06,
        1.0
      ],
      "scale": [
        1.0000001192092896,
        0.9999999403953552,
        1.0000001192092896
      ],
      "translation": [
        -4.76837158203125e-06,
        0.9787492752075195,
        -4.76837158203125e-06
      ]
    },
    {
      "name": "L_SmallFin_03_end_end_0115",
      "rotation": [
        2.7755575615628914e-17,
        -5.551115123125783e-17,
        5.551115123125783e-17,
        1.0
      ],
      "translation": [
        7.105427357601002e-15,
        0.9787576198577881,
        -7.105427357601002e-15
      ]
    },
    {
      "children": [
        51
      ],
      "name": "L_SmallFin_back_031",
      "rotation": [
        0.3605438470840454,
        -0.0703001469373703,
        -0.3965538740158081,
        0.8413150906562805
      ],
      "scale": [
        0.9999999403953552,
        1.0000001192092896,
        1.0
      ],
      "translation": [
        0.7436172962188721,
        2.8391213417053223,
        1.277015209197998
      ]
    },
    {
      "children": [
        52
      ],
      "name": "L_SmallFin_back_end_032",
      "rotation": [
        -5.488691385835409e-07,
        -7.415656000375748e-07,
        8.731149137020111e-09,
        1.0
      ],
      "scale": [
        1.0,
        0.9999999403953552,
        1.0
      ],
      "translation": [
        -4.023313522338867e-07,
        0.9787495136260986,
        -1.6093254089355469e-06
      ]
    },
    {
      "name": "L_SmallFin_back_end_end_0116",
      "rotation": [
        -4.163336342344337e-17,
        3.469446951953614e-18,
        -1.3877787807814457e-17,
        1.0
      ],
      "translation": [
        0.0,
        0.9787569642066956,
        7.105427357601002e-15
      ]
    },
    {
      "children": [
        54,
        58
      ],
      "name": "R_SmallFin_01_033",
      "rotation": [
        0.23676443099975586,
        -0.11081738024950027,
        0.049685653299093246,
        0.9639468193054199
      ],
      "scale": [
        0.9999999403953552,
        0.9999998211860657,
        1.0
      ],
      "translation": [
        -10.953397750854492,
        22.733234405517578,
        9.156790733337402
      ]
    },
    {
      "children": [
        55
      ],
      "name": "R_SmallFin_02_034",
      "rotation": [
        0.11256226897239685,
        -0.07259947061538696,
        -0.04128390923142433,
        0.9901286363601685
      ],
      "scale": [
        1.0000001192092896,
        1.0,
        0.9999998807907104
      ],
      "translation": [
        -0.7433357238769531,
        4.901187896728516,
        1.2768545150756836
      ]
    },
    {
      "children": [
        56
      ],
      "name": "R_SmallFin_03_035",
      "rotation": [
        -0.6986575722694397,
        0.04375271871685982,
        0.7139878273010254,
        0.013589315116405487
      ],
      "scale": [
        1.0000135898590088,
        0.9999997615814209,
        1.0000040531158447
      ],
      "translation": [
        -2.86102294921875e-06,
        4.340183258056641,
        -9.5367431640625e-06
      ]
    },
    {
      "children": [
        57
      ],
      "name": "R_SmallFin_03_end_036",
      "rotation": [
        3.6023550364916446e-06,
        2.101063500958844e-06,
        4.719941898656543e-06,
        1.0
      ],
      "scale": [
        1.0000001192092896,
        1.000000238418579,
        1.0000001192092896
      ],
      "translation": [
        -1.9073486328125e-06,
        0.9787578582763672,
        1.1920928955078125e-06
      ]
    },
    {
      "name": "R_SmallFin_03_end_end_0117",
      "rotation": [
        -2.7755575615628914e-17,
        2.7755575615628914e-17,
        -4.163336342344337e-17,
        1.0
      ],
      "translation": [
        -7.105427357601002e-15,
        0.9787585735321045,
        7.105427357601002e-15
      ]
    },
    {
      "children": [
        59
      ],
      "name": "R_SmallFin_back_037",
      "rotation": [
        0.7186514139175415,
        -0.5178093910217285,
        -0.44056567549705505,
        0.14599810540676117
      ],
      "scale": [
        1.0,
        1.000000238418579,
        1.0000001192092896
      ],
      "translation": [
        0.743311882019043,
        2.8394203186035156,
        -1.2768468856811523
      ]
    },
    {
      "children": [
        60
      ],
      "name": "R_SmallFin_back_end_038",
      "rotation": [
        -2.2351743567128324e-08,
        -1.7494895701020141e-06,
        1.862645371275562e-09,
        1.0
      ],
      "scale": [
        0.9999999403953552,
        0.9999999403953552,
        1.0
      ],
      "translation": [
        -2.384185791015625e-06,
        0.978757381439209,
        1.9073486328125e-06
      ]
    },
    {
      "name": "R_SmallFin_back_end_end_0118",
      "rotation": [
        3.1296361596292583e-34,
        -2.2551405187698492e-17,
        1.3877787807814457e-17,
        1.0
      ],
      "translation": [
        0.0,
        0.9787581562995911,
        0.0
      ]
    },
    {
      "children": [
        62
      ],
      "name": "DorsalFin_01_039",
      "rotation": [
        4.459235469767009e-07,
        4.2257934751432913e-07,
        -0.2892149090766907,
        0.9572641849517822
      ],
      "scale": [
        0.9999997615814209,
        0.9999997019767761,
        0.9999998211860657
      ],
      "translation": [
        20.473413467407227,
        32.03911590576172,
        1.752901152940467e-05
      ]
    },
    {
      "children": [
        63,
        67
      ],
      "name": "DorsalFin_02_040",
      "rotation": [
        -4.687022396865359e-07,
        -4.447603885182616e-07,
        0.3092518746852875,
        0.9509801864624023
      ],
      "scale": [
        1.000000238418579,
        1.0,
        1.0
      ],
      "translation": [
        -2.0980833141948096e-05,
        9.10637378692627,
        -1.8189894035458565e-11
      ]
    },
    {
      "children": [
        64
      ],
      "name": "DorsalFin_03_041",
      "rotation": [
        2.116244672834e-07,
        2.7250337097939337e-07,
        -0.15984103083610535,
        0.9871428608894348
      ],
      "scale": [
        0.9999996423721313,
        0.9999997019767761,
        0.9999995827674866
      ],
      "translation": [
        4.996167182922363,
        9.621807098388672,
        4.235579126543598e-06
      ]
    },
    {
      "children": [
        65
      ],
      "name": "DorsalFin_04_042",
      "rotation": [
        -1.5624185323304118e-07,
        -6.613294090129784e-08,
        0.10188132524490356,
        0.9947965741157532
      ],
      "scale": [
        1.0,
        1.0,
        1.0000001192092896
      ],
      "translation": [
        -1.2079226507921703e-13,
        11.888748168945313,
        7.275957614183426e-12
      ]
    },
    {
      "children": [
        66
      ],
      "name": "DorsalFin_04_end_043",
      "rotation": [
        -1.2398971606375486e-11,
        -8.92642404437538e-09,
        1.0162591934204102e-05,
        1.0
      ],
      "scale": [
        1.0,
        1.0,
        0.9999998807907104
      ],
      "translation": [
        -4.768362487084232e-06,
        0.9787559509277344,
        -3.183231456205249e-12
      ]
    },
    {
      "name": "DorsalFin_04_end_end_0119",
      "rotation": [
        -1.5881867761018131e-22,
        -1.0587911840678754e-22,
        2.7755575615628914e-17,
        1.0
      ],
      "translation": [
        0.0,
        0.9787573218345642,
        0.0
      ]
    },
    {
      "children": [
        68
      ],
      "name": "DorsalFin_back_044",
      "rotation": [
        -9.911466491985266e-08,
        -7.35125752271415e-07,
        0.4090155065059662,
        0.9125274419784546
      ],
      "scale": [
        0.9999998807907104,
        0.9999998211860657,
        0.9999997019767761
      ],
      "translation": [
        -4.996167182922363,
        1.4973411560058594,
        -4.235585493006511e-06
      ]
    },
    {
      "children": [
        69
      ],
      "name": "DorsalFin_back_end_045",
      "rotation": [
        1.8407497748285095e-13,
        -8.046008304063434e-12,
        2.8870857704532682e-08,
        1.0
      ],
      "translation": [
        -3.576269023142231e-07,
        0.9787559509277344,
        2.710505431213761e-20
      ]
    },
    {
      "name": "DorsalFin_back_end_end_0120",
      "rotation": [
        2.117582368135751e-22,
        -4.408103815583578e-39,
        -2.0816681711721685e-17,
        1.0
      ],
      "translation": [
        0.0,
        0.9787587523460388,
        0.0
      ]
    },
    {
      "children": [
        71
      ],
      "name": "Neck_01_046",
      "rotation": [
        0.0915166586637497,
        0.9958036541938782,
        2.71230391035715e-07,
        -1.2480060149755445e-06
      ],
      "scale": [
        0.9999997615814209,
        0.9999998211860657,
        1.0000001192092896
      ],
      "translation": [
        2.2752463817596436,
        11.68405818939209,
        -2.1854264105058974e-06
      ]
    },
    {
      "children": [
        72
      ],
      "name": "Neck_02_047",
      "rotation": [
        -0.1325126737356186,
        0.9911813139915466,
        -1.9477893431485427e-07,
        2.224798407723938e-07
      ],
      "scale": [
        1.0000003576278687,
        1.0000001192092896,
        0.9999999403953552
      ],
      "translation": [
        1.3634876268042717e-06,
        21.635709762573242,
        8.93507490218326e-13
      ]
    },
    {
      "children": [
        73,
        78,
        81,
        84,
        87,
        90,
        93,
        96,
        99,
        102,
        105,
        108,
        111
      ],
      "name": "Head_048",
      "rotation": [
        1.414579583070008e-05,
        -0.00010760479926830158,
        0.4117506742477417,
        0.911296546459198
      ],
      "scale": [
        1.0000001192092896,
        1.0,
        1.0
      ],
      "translation": [
        1.687006090378418e-11,
        24.652315139770508,
        4.547473508864641e-13
      ]
    },
    {
      "children": [
        74
      ],
      "name": "jaw_hinge_049",
      "rotation": [
        7.630237087141722e-05,
        7.619065581820905e-05,
        0.4700677990913391,
        0.8826302886009216
      ],
      "scale": [
        1.0,
        1.0000001192092896,
        0.9999996423721313
      ],
      "translation": [
        -7.414216041564941,
        4.701685905456543,
        0.0018263820093125105
      ]
    },
    {
      "children": [
        75
      ],
      "name": "jaw_lower_050",
      "rotation": [
        -4.787997340827133e-07,
        1.8917683064501034e-07,
        -0.2863624393939972,
        0.9581213593482971
      ],
      "scale": [
        1.0,
        1.0,
        1.0000001192092896
      ],
      "translation": [
        -1.9595029243646422e-06,
        6.939045429229736,
        -2.814886101987213e-10
      ]
    },
    {
      "children": [
        76
      ],
      "name": "jaw_lower_counterweight_051",
      "rotation": [
        9.9636406503123e-07,
        1.600543555468903e-07,
        0.8536667227745056,
        0.5208196640014648
      ],
      "scale": [
        1.0,
        1.0,
        1.0000001192092896
      ],
      "translation": [
        2.861019856936764e-05,
        19.755393981933594,
        -3.092281986027956e-11
      ]
    },
    {
      "children": [
        77
      ],
      "name": "jaw_lower_counterweight_end_052",
      "rotation": [
        5.995204332975845e-14,
        2.3452351172181807e-12,
        -1.4901369027597866e-08,
        1.0
      ],
      "translation": [
        2.7768010113504715e-11,
        0.9787569046020508,
        0.0
      ]
    },
    {
      "name": "jaw_lower_counterweight_end_end_0121",
      "rotation": [
        -1.0587911840678754e-22,
        5.293955920339377e-23,
        2.7755575615628914e-17,
        1.0
      ],
      "translation": [
        0.0,
        0.978759765625,
        0.0
      ]
    },
    {
      "children": [
        79
      ],
      "name": "Jaw_Upper_053",
      "rotation": [
        -2.753507487796014e-06,
        0.00010789636871777475,
        -0.3122640550136566,
        0.9499953389167786
      ],
      "scale": [
        1.0000001192092896,
        1.0000001192092896,
        0.9999998807907104
      ],
      "translation": [
        -3.681901693344116,
        14.654272079467773,
        0.0016708027105778456
      ]
    },
    {
      "children": [
        80
      ],
      "name": "Jaw_Upper_end_054",
      "rotation": [
        -1.8063774434584623e-11,
        6.22992379906151e-10,
        4.479656467992754e-07,
        1.0
      ],
      "scale": [
        0.9999999403953552,
        0.9999999403953552,
        0.9999998807907104
      ],
      "translation": [
        -9.536542506793921e-07,
        0.978759765625,
        -1.3552527156068805e-20
      ]
    },
    {
      "name": "Jaw_Upper_end_end_0122",
      "rotation": [
        1.0587911840678754e-22,
        1.3234889800848443e-23,
        1.3877787807814457e-17,
        1.0
      ],
      "translation": [
        0.0,
        0.9787581562995911,
        0.0
      ]
    },
    {
      "children": [
        82
      ],
      "name": "L_eye_055",
      "rotation": [
        0.23315899074077606,
        0.7769944071769714,
        0.4480196237564087,
        0.3757596015930176
      ],
      "scale": [
        0.9999999403953552,
        0.9999996423721313,
        1.0
      ],
      "translation": [
        12.466649055480957,
        25.744909286499023,
        17.9212646484375
      ]
    },
    {
      "children": [
        83
      ],
      "name": "L_eye_end_056",
      "rotation": [
        -7.82310962677002e-08,
        -3.7439164657371293e-07,
        2.9802320611338473e-08,
        1.0
      ],
      "scale": [
        1.0,
        1.0,
        1.0000001192092896
      ],
      "translation": [
        4.76837158203125e-07,
        0.9787490963935852,
        2.086162567138672e-06
      ]
    },
    {
      "name": "L_eye_end_end_0123",
      "translation": [
        0.0,
        0.9787589311599731,
        0.0
      ]
    },
    {
      "children": [
        85
      ],
      "name": "R_eye_057",
      "rotation": [
        0.14852771162986755,
        0.4947432279586792,
        0.8502411842346191,
        0.10128578543663025
      ],
      "scale": [
        1.0,
        0.9999998807907104,
        1.0000001192092896
      ],
      "translation": [
        12.459239959716797,
        25.747167587280273,
        -17.923259735107422
      ]
    },
    {
      "children": [
        86
      ],
      "name": "R_eye_end_058",
      "rotation": [
        8.326024385496567e-07,
        -4.26545796017308e-07,
        -7.469207616850326e-07,
        1.0
      ],
      "scale": [
        0.9999999403953552,
        1.0,
        0.9999998807907104
      ],
      "translation": [
        1.430511474609375e-06,
        0.9787499308586121,
        -4.708766937255859e-06
      ]
    },
    {
      "name": "R_eye_end_end_0124",
      "rotation": [
        5.551115123125783e-17,
        -1.3877787807814457e-17,
        -6.938893903907228e-18,
        1.0
      ],
      "translation": [
        3.552713678800501e-15,
        0.9787586331367493,
        0.0
      ]
    },
    {
      "children": [
        88
      ],
      "name": "L_CornerLip_059",
      "rotation": [
        0.2840784788131714,
        0.9469378590583801,
        -0.1439884454011917,
        -0.043306831270456314
      ],
      "scale": [
        0.9999998211860657,
        0.9999993443489075,
        0.9999997615814209
      ],
      "translation": [
        -6.256809711456299,
        18.48946762084961,
        18.828710556030273
      ]
    },
    {
      "children": [
        89
      ],
      "name": "L_CornerLip_end_060",
      "rotation": [
        -9.536744300930877e-07,
        2.1356282786655356e-07,
        1.1883618356023362e-07,
        1.0
      ],
      "translation": [
        -7.358721632044762e-08,
        0.9787556529045105,
        1.4822853700025007e-07
      ]
    },
    {
      "name": "L_CornerLip_end_end_0125",
      "rotation": [
        2.407412430484045e-35,
        1.734723475976807e-18,
        -1.3877787807814457e-17,
        1.0
      ],
      "translation": [
        0.0,
        0.9787541627883911,
        0.0
      ]
    },
    {
      "children": [
        91
      ],
      "name": "L_UpperLip_03_061",
      "rotation": [
        0.2564001679420471,
        0.8544642925262451,
        0.43279892206192017,
        0.12974905967712402
      ],
      "scale": [
        0.9999998807907104,
        0.9999999403953552,
        1.0
      ],
      "translation": [
        -1.7443441152572632,
        25.74420928955078,
        17.043399810791016
      ]
    },
    {
      "children": [
        92
      ],
      "name": "L_UpperLip_03_end_062",
      "rotation": [
        -4.0978167703542567e-07,
        -2.6279889198121964e-07,
        1.2367274848656962e-07,
        1.0
      ],
      "scale": [
        1.0,
        0.9999998807907104,
        0.9999999403953552
      ],
      "translation": [
        2.0157858671154827e-07,
        0.978744387626648,
        5.883102858206257e-07
      ]
    },
    {
      "name": "L_UpperLip_03_end_end_0126",
      "rotation": [
        8.326672684688674e-17,
        0.0,
        0.0,
        1.0
      ],
      "translation": [
        1.7763568394002505e-15,
        0.9787577986717224,
        0.0
      ]
    },
    {
      "children": [
        94
      ],
      "name": "L_UpperLip_02_063",
      "rotation": [
        0.2722817659378052,
        0.907447874546051,
        0.3065335750579834,
        0.09186092019081116
      ],
      "scale": [
        0.9999999403953552,
        1.0000001192092896,
        0.9999998211860657
      ],
      "translation": [
        -0.3473068177700043,
        31.555198669433594,
        12.768356323242188
      ]
    },
    {
      "children": [
        95
      ],
      "name": "L_UpperLip_02_end_064",
      "rotation": [
        -2.90572359062935e-07,
        -3.5778799656327465e-07,
        7.424289805157969e-08,
        1.0
      ],
      "scale": [
        1.0,
        0.9999997615814209,
        0.9999998807907104
      ],
      "translation": [
        9.4804681793903e-07,
        0.9787598848342896,
        -2.4313703761436045e-07
      ]
    },
    {
      "name": "L_UpperLip_02_end_end_0127",
      "rotation": [
        2.7755575615628914e-17,
        0.0,
        0.0,
        1.0
      ],
      "translation": [
        0.0,
        0.9787588715553284,
        0.0
      ]
    },
    {
      "children": [
        97
      ],
      "name": "Mid_UpperLip_065",
      "rotation": [
        0.28736042976379395,
        0.9578226208686829,
        -4.868328318252679e-08,
        -0.0001081235459423624
      ],
      "scale": [
        0.9999998807907104,
        1.0,
        0.9999997615814209
      ],
      "translation": [
        1.5454955101013184,
        37.548057556152344,
        -0.01849333941936493
      ]
    },
    {
      "children": [
        98
      ],
      "name": "Mid_UpperLip_end_066",
      "rotation": [
        1.4532351988449932e-09,
        4.799978370328972e-08,
        9.203242257171951e-08,
        1.0
      ],
      "translation": [
        1.1455387038949993e-06,
        0.9787492752075195,
        -2.2719177650287747e-09
      ]
    },
    {
      "name": "Mid_UpperLip_end_end_0128",
      "rotation": [
        -2.117582368135751e-22,
        -1.9852334701272664e-23,
        -4.203895392974451e-45,
        1.0
      ],
      "translation": [
        0.0,
        0.978759765625,
        0.0
      ]
    },
    {
      "children": [
        100
      ],
      "name": "L_UpperLip_01_067",
      "rotation": [
        0.2814234495162964,
        0.9379598498344421,
        0.19404958188533783,
        0.058111563324928284
      ],
      "scale": [
        1.0,
        0.9999998807907104,
        0.9999995827674866
      ],
      "translation": [
        0.7809421420097351,
        35.72771453857422,
        6.573366641998291
      ]
    },
    {
      "children": [
        101
      ],
      "name": "L_UpperLip_01_end_068",
      "rotation": [
        -6.929037112968217e-07,
        -2.573201811628678e-07,
        1.6131096458593674e-08,
        1.0
      ],
      "translation": [
        8.391189112444408e-07,
        0.9787630438804626,
        1.9550514025468146e-06
      ]
    },
    {
      "name": "L_UpperLip_01_end_end_0129",
      "rotation": [
        2.7755575615628914e-17,
        -6.938893903907228e-18,
        -1.3877787807814457e-17,
        1.0
      ],
      "translation": [
        -1.7763568394002505e-15,
        0.9787539839744568,
        -7.105427357601002e-15
      ]
    },
    {
      "children": [
        103
      ],
      "name": "R_UpperLip_01_069",
      "rotation": [
        0.2813793122768402,
        0.9379594922065735,
        -0.19405165314674377,
        -0.05832526832818985
      ],
      "scale": [
        0.9999998807907104,
        1.0000003576278687,
        0.9999997615814209
      ],
      "translation": [
        0.7782390713691711,
        35.72858810424805,
        -6.56926965713501
      ]
    },
    {
      "children": [
        104
      ],
      "name": "R_UpperLip_01_end_070",
      "rotation": [
        3.427265085065301e-07,
        3.054182968753594e-07,
        -2.5223799937634794e-08,
        1.0
      ],
      "scale": [
        1.0,
        1.0000001192092896,
        1.0000001192092896
      ],
      "translation": [
        -1.171653593701194e-06,
        0.9787551760673523,
        5.508676167664817e-06
      ]
    },
    {
      "name": "R_UpperLip_01_end_end_0130",
      "rotation": [
        2.7755575615628914e-17,
        0.0,
        0.0,
        1.0
      ],
      "translation": [
        0.0,
        0.9787549376487732,
        0.0
      ]
    },
    {
      "children": [
        106
      ],
      "name": "R_UpperLip_02_071",
      "rotation": [
        0.2722119688987732,
        0.907447874546051,
        -0.30653348565101624,
        -0.09206633269786835
      ],
      "scale": [
        1.0,
        0.9999997615814209,
        0.9999998807907104
      ],
      "translation": [
        -0.3525814116001129,
        31.55681800842285,
        -12.76431655883789
      ]
    },
    {
      "children": [
        107
      ],
      "name": "R_UpperLip_02_end_072",
      "rotation": [
        -8.419157211392303e-07,
        4.709855829787557e-07,
        2.3051939024298918e-08,
        1.0
      ],
      "translation": [
        -8.204260666389018e-07,
        0.9787589907646179,
        -7.592025212943554e-07
      ]
    },
    {
      "name": "R_UpperLip_02_end_end_0131",
      "rotation": [
        -2.407412430484045e-35,
        3.469446951953614e-18,
        6.938893903907228e-18,
        1.0
      ],
      "translation": [
        1.7763568394002505e-15,
        0.9787565469741821,
        -7.105427357601002e-15
      ]
    },
    {
      "children": [
        109
      ],
      "name": "R_UpperLip_03_073",
      "rotation": [
        0.25630277395248413,
        0.8544653654098511,
        -0.4327966570854187,
        -0.1299419403076172
      ],
      "scale": [
        0.9999998211860657,
        0.9999998807907104,
        1.0
      ],
      "translation": [
        -1.7513810396194458,
        25.74635124206543,
        -17.039527893066406
      ]
    },
    {
      "children": [
        110
      ],
      "name": "R_UpperLip_03_end_074",
      "rotation": [
        2.0712614059448242e-06,
        4.520209131442243e-07,
        -5.77880463481506e-08,
        1.0
      ],
      "translation": [
        6.690279406029731e-07,
        0.9787629246711731,
        4.848313437832985e-06
      ]
    },
    {
      "name": "R_UpperLip_03_end_end_0132",
      "rotation": [
        -2.7755575615628914e-17,
        3.469446951953614e-18,
        6.938893903907228e-18,
        1.0
      ],
      "translation": [
        0.0,
        0.9787546992301941,
        0.0
      ]
    },
    {
      "children": [
        112
      ],
      "name": "R_CornerLip_075",
      "rotation": [
        0.2841108441352844,
        0.9469383358955383,
        0.14398610591888428,
        0.04309106990695
      ],
      "scale": [
        1.0,
        1.0000003576278687,
        0.9999997019767761
      ],
      "translation": [
        -6.264560222625732,
        18.491886138916016,
        -18.823822021484375
      ]
    },
    {
      "children": [
        113
      ],
      "name": "R_CornerLip_end_076",
      "rotation": [
        -7.450574912581942e-07,
        -1.784638641311176e-07,
        1.294358753511915e-07,
        1.0
      ],
      "scale": [
        1.0,
        1.0000001192092896,
        1.0000001192092896
      ],
      "translation": [
        -1.2934124242747203e-06,
        0.978751540184021,
        -4.3507634472916834e-07
      ]
    },
    {
      "name": "R_CornerLip_end_end_0133",
      "rotation": [
        2.7755575615628914e-17,
        0.0,
        0.0,
        1.0
      ],
      "translation": [
        1.7763568394002505e-15,
        0.9787541627883911,
        7.105427357601002e-15
      ]
    },
    {
      "children": [
        115
      ],
      "name": "L_Ventral_01_077",
      "rotation": [
        0.03954962641000748,
        0.43033885955810547,
        0.8373398184776306,
        0.33482280373573303
      ],
      "scale": [
        0.9999998211860657,
        0.9999998211860657,
        0.9999998807907104
      ],
      "translation": [
        -19.4092960357666,
        -0.03780527040362358,
        29.282276153564453
      ]
    },
    {
      "children": [
        116,
        121
      ],
      "name": "L_Ventral_02_078",
      "rotation": [
        -0.17230597138404846,
        -0.016091886907815933,
        0.07019436359405518,
        0.9824074506759644
      ],
      "scale": [
        1.0,
        1.0,
        1.0000001192092896
      ],
      "translation": [
        -4.76837158203125e-07,
        13.035122871398926,
        3.552713678800501e-15
      ]
    },
    {
      "children": [
        117
      ],
      "name": "L_Ventral_03_079",
      "rotation": [
        0.05571475997567177,
        -0.012803723104298115,
        -0.0851685032248497,
        0.994725227355957
      ],
      "scale": [
        0.9999997019767761,
        0.9999999403953552,
        0.9999997615814209
      ],
      "translation": [
        2.9064207077026367,
        16.310176849365234,
        4.161540985107422
      ]
    },
    {
      "children": [
        118
      ],
      "name": "L_Ventral_04_080",
      "rotation": [
        -0.05293435975909233,
        -0.020975368097424507,
        -0.012792517431080341,
        0.9982957243919373
      ],
      "scale": [
        0.9999999403953552,
        1.0000001192092896,
        1.0
      ],
      "translation": [
        3.814697265625e-06,
        16.090669631958008,
        -2.384185791015625e-06
      ]
    },
    {
      "children": [
        119
      ],
      "name": "L_Ventral_05_081",
      "rotation": [
        -0.12380915880203247,
        -0.025899436324834824,
        0.049994755536317825,
        0.9907073378562927
      ],
      "scale": [
        0.9999997019767761,
        0.9999998807907104,
        1.0000001192092896
      ],
      "translation": [
        -7.62939453125e-06,
        16.19493865966797,
        3.814697265625e-06
      ]
    },
    {
      "children": [
        120
      ],
      "name": "L_Ventral_05_end_082",
      "rotation": [
        -6.267801495596359e-07,
        6.798655363127182e-07,
        6.978400961088482e-06,
        1.0
      ],
      "scale": [
        0.9999999403953552,
        0.9999999403953552,
        0.9999998807907104
      ],
      "translation": [
        -4.76837158203125e-07,
        0.9787616729736328,
        -3.0994415283203125e-06
      ]
    },
    {
      "name": "L_Ventral_05_end_end_0134",
      "rotation": [
        1.3877787807814457e-17,
        -1.3877787807814457e-17,
        1.925929944387236e-34,
        1.0
      ],
      "translation": [
        1.0658141036401503e-14,
        0.9787588715553284,
        -7.105427357601002e-15
      ]
    },
    {
      "children": [
        122
      ],
      "name": "L_Ventral_back_083",
      "rotation": [
        -0.3596052825450897,
        0.0041716014966368675,
        0.2774824798107147,
        0.8908816576004028
      ],
      "scale": [
        0.9999998211860657,
        0.9999998211860657,
        1.0
      ],
      "translation": [
        -2.906411647796631,
        5.959860801696777,
        -4.161523818969727
      ]
    },
    {
      "children": [
        123
      ],
      "name": "L_Ventral_back_end_084",
      "rotation": [
        -1.941225491464138e-07,
        4.237517714500427e-08,
        -1.759617731522667e-07,
        1.0
      ],
      "scale": [
        0.9999999403953552,
        1.0,
        1.0
      ],
      "translation": [
        -7.748603820800781e-07,
        0.9787583351135254,
        -8.344650268554688e-07
      ]
    },
    {
      "name": "L_Ventral_back_end_end_0135",
      "rotation": [
        -3.611118645726067e-35,
        1.734723475976807e-18,
        2.0816681711721685e-17,
        1.0
      ],
      "translation": [
        3.552713678800501e-15,
        0.9787580966949463,
        7.105427357601002e-15
      ]
    },
    {
      "children": [
        125
      ],
      "name": "R_Ventral_01_085",
      "rotation": [
        -0.03954744711518288,
        -0.4303379952907562,
        0.8373398184776306,
        0.3348245620727539
      ],
      "scale": [
        0.9999998211860657,
        0.9999999403953552,
        0.9999998807907104
      ],
      "translation": [
        -19.409433364868164,
        -0.03773455694317818,
        -29.282188415527344
      ]
    },
    {
      "children": [
        126,
        131
      ],
      "name": "R_Ventral_02_086",
      "rotation": [
        0.1723051518201828,
        0.01609049364924431,
        0.07019593566656113,
        0.9824076294898987
      ],
      "scale": [
        1.0,
        0.9999998211860657,
        0.9999998211860657
      ],
      "translation": [
        1.5735626220703125e-05,
        13.035149574279785,
        -6.198883056640625e-06
      ]
    },
    {
      "children": [
        127
      ],
      "name": "R_Ventral_03_087",
      "rotation": [
        -0.055714450776576996,
        0.012804082594811916,
        -0.08517012000083923,
        0.9947251081466675
      ],
      "scale": [
        0.9999998807907104,
        0.9999999403953552,
        0.9999998211860657
      ],
      "translation": [
        2.9063892364501953,
        16.31008529663086,
        -4.1615190505981445
      ]
    },
    {
      "children": [
        128
      ],
      "name": "R_Ventral_04_088",
      "rotation": [
        0.05293639749288559,
        0.020976725965738297,
        -0.012794914655387402,
        0.9982955455780029
      ],
      "scale": [
        0.9999999403953552,
        1.0,
        1.000000238418579
      ],
      "translation": [
        -3.552713678800501e-15,
        16.090662002563477,
        -3.814697265625e-06
      ]
    },
    {
      "children": [
        129
      ],
      "name": "R_Ventral_05_089",
      "rotation": [
        0.8549343347549438,
        0.1035822331905365,
        -0.5012582540512085,
        -0.08425199240446091
      ],
      "scale": [
        0.9999998807907104,
        0.9999998211860657,
        0.9999998211860657
      ],
      "translation": [
        1.9073486328125e-06,
        16.195043563842773,
        -5.7220458984375e-06
      ]
    },
    {
      "children": [
        130
      ],
      "name": "R_Ventral_05_end_090",
      "rotation": [
        -7.618218205607263e-06,
        -1.559406337037217e-05,
        -6.012618086970178e-06,
        1.0
      ],
      "scale": [
        1.0000001192092896,
        1.0,
        1.0000001192092896
      ],
      "translation": [
        1.9073486328125e-06,
        0.9787483215332031,
        -8.58306884765625e-06
      ]
    },
    {
      "name": "R_Ventral_05_end_end_0136",
      "rotation": [
        2.311115933264683e-33,
        2.7755575615628914e-17,
        -8.326672684688674e-17,
        1.0
      ],
      "translation": [
        0.0,
        0.9787588715553284,
        -1.7763568394002505e-15
      ]
    },
    {
      "children": [
        132
      ],
      "name": "R_Ventral_back_091",
      "rotation": [
        0.6622103452682495,
        -0.03218039870262146,
        0.5959567427635193,
        -0.4530755579471588
      ],
      "scale": [
        1.0,
        0.9999998211860657,
        0.9999997615814209
      ],
      "translation": [
        -2.906399726867676,
        5.959807395935059,
        4.161513328552246
      ]
    },
    {
      "children": [
        133
      ],
      "name": "R_Ventral_back_end_092",
      "rotation": [
        1.8253921041377907e-07,
        -1.2656672652155976e-06,
        1.015141535276598e-07,
        1.0
      ],
      "scale": [
        1.0000001192092896,
        1.0,
        1.0000001192092896
      ],
      "translation": [
        4.76837158203125e-07,
        0.978759765625,
        1.6689300537109375e-06
      ]
    },
    {
      "name": "R_Ventral_back_end_end_0137",
      "rotation": [
        6.938893903907228e-18,
        -1.3877787807814457e-17,
        1.3877787807814457e-17,
        1.0
      ],
      "translation": [
        -7.105427357601002e-15,
        0.9787575006484985,
        3.552713678800501e-15
      ]
    },
    {
      "children": [
        135
      ],
      "name": "L_Gill_01_093",
      "rotation": [
        0.03063085488975048,
        0.3333037793636322,
        0.9383674263954163,
        0.08623764663934708
      ],
      "scale": [
        0.9999999403953552,
        1.000000238418579,
        1.000000238418579
      ],
      "translation": [
        6.20667839050293,
        54.716773986816406,
        16.269161224365234
      ]
    },
    {
      "children": [
        136
      ],
      "name": "L_Gill_01_end_094",
      "rotation": [
        1.6987330582196591e-06,
        -1.1345496204739902e-06,
        3.7053798251918124e-08,
        1.0
      ],
      "translation": [
        2.738088369369507e-07,
        0.9787524938583374,
        3.3285932659055106e-06
      ]
    },
    {
      "name": "L_Gill_01_end_end_0138",
      "rotation": [
        -2.7755575615628914e-17,
        -9.62964972193618e-35,
        3.469446951953614e-18,
        1.0
      ],
      "translation": [
        -4.440892098500626e-16,
        0.9787566065788269,
        7.105427357601002e-15
      ]
    },
    {
      "children": [
        138
      ],
      "name": "L_Gill_02_095",
      "rotation": [
        0.03145246207714081,
        0.342237651348114,
        0.9351462721824646,
        0.08594077080488205
      ],
      "scale": [
        0.9999998211860657,
        0.9999996423721313,
        0.999999463558197
      ],
      "translation": [
        5.505519866943359,
        50.93434143066406,
        14.60843276977539
      ]
    },
    {
      "children": [
        139
      ],
      "name": "L_Gill_02_end_096",
      "rotation": [
        -7.450588412893921e-08,
        -1.0604283033899264e-06,
        -2.3302624185816967e-07,
        1.0
      ],
      "translation": [
        1.281914592254907e-07,
        0.9787562489509583,
        3.6014525903738104e-06
      ]
    },
    {
      "name": "L_Gill_02_end_end_0139",
      "rotation": [
        1.2037062152420224e-35,
        -3.469446951953614e-18,
        3.469446951953614e-18,
        1.0
      ],
      "translation": [
        0.0,
        0.9787595272064209,
        0.0
      ]
    },
    {
      "children": [
        141
      ],
      "name": "L_Gill_03_00",
      "rotation": [
        0.03630853444337845,
        0.3950798809528351,
        0.9140769839286804,
        0.08400518447160721
      ],
      "scale": [
        0.9999998211860657,
        0.9999997615814209,
        0.9999997615814209
      ],
      "translation": [
        3.876150131225586,
        42.14457321166992,
        12.562302589416504
      ]
    },
    {
      "children": [
        142
      ],
      "name": "L_Gill_03_end_01",
      "rotation": [
        1.0877852218982298e-06,
        -8.006118150660768e-07,
        -3.063951581339097e-08,
        1.0
      ],
      "translation": [
        -1.425032678525895e-07,
        0.9787587523460388,
        1.7648926586844027e-07
      ]
    },
    {
      "name": "L_Gill_03_end_end_0140",
      "rotation": [
        0.0,
        0.0,
        3.469446951953614e-18,
        1.0
      ],
      "translation": [
        0.0,
        0.9787570238113403,
        0.0
      ]
    },
    {
      "children": [
        144
      ],
      "name": "L_Gill_04_097",
      "rotation": [
        0.040492188185453415,
        0.44059646129608154,
        0.8930283188819885,
        0.0820704847574234
      ],
      "scale": [
        0.9999998211860657,
        1.000000238418579,
        1.000000238418579
      ],
      "translation": [
        2.3816604614257813,
        34.08243942260742,
        11.662506103515625
      ]
    },
    {
      "children": [
        145
      ],
      "name": "L_Gill_04_end_098",
      "rotation": [
        -2.235172757991677e-07,
        -6.045337386240135e-07,
        -2.4345503391032253e-08,
        1.0
      ],
      "translation": [
        1.4577381080016494e-08,
        0.9787555932998657,
        -6.875338840472978e-07
      ]
    },
    {
      "name": "L_Gill_04_end_end_0141",
      "rotation": [
        5.551115123125783e-17,
        3.469446951953614e-18,
        3.469446951953614e-18,
        1.0
      ],
      "translation": [
        0.0,
        0.9787585735321045,
        0.0
      ]
    },
    {
      "children": [
        147
      ],
      "name": "L_Gill_05_099",
      "rotation": [
        0.04263082891702652,
        0.4638664424419403,
        0.8811655640602112,
        0.0809803381562233
      ],
      "scale": [
        0.9999998807907104,
        1.0,
        1.0
      ],
      "translation": [
        1.3105847835540771,
        28.3044490814209,
        10.201207160949707
      ]
    },
    {
      "children": [
        148
      ],
      "name": "L_Gill_05_end_0100",
      "rotation": [
        -1.3113021850585938e-06,
        -5.013235977457953e-07,
        9.647113330402135e-08,
        1.0
      ],
      "translation": [
        2.864881025743671e-07,
        0.9787537455558777,
        -1.4499000826617703e-06
      ]
    },
    {
      "name": "L_Gill_05_end_end_0142",
      "rotation": [
        -5.551115123125783e-17,
        6.938893903907228e-18,
        3.851859888774472e-34,
        1.0
      ],
      "translation": [
        0.0,
        0.9787584543228149,
        0.0
      ]
    },
    {
      "children": [
        150
      ],
      "name": "R_Gill_01_0101",
      "rotation": [
        0.08623874932527542,
        0.9383674263954163,
        0.3333035409450531,
        0.030630486086010933
      ],
      "scale": [
        0.9999998211860657,
        1.0000001192092896,
        1.000000238418579
      ],
      "translation": [
        6.206599235534668,
        54.71680450439453,
        -16.269195556640625
      ]
    },
    {
      "children": [
        151
      ],
      "name": "R_Gill_01_end_0102",
      "rotation": [
        -4.39584198375087e-07,
        -9.644752196891204e-08,
        2.012744317880788e-07,
        1.0
      ],
      "scale": [
        1.0,
        1.0000001192092896,
        1.0000001192092896
      ],
      "translation": [
        1.5299337974283844e-07,
        0.978751540184021,
        -2.441050128254574e-06
      ]
    },
    {
      "name": "R_Gill_01_end_end_0143",
      "rotation": [
        -2.407412430484045e-35,
        -6.938893903907228e-18,
        -3.469446951953614e-18,
        1.0
      ],
      "translation": [
        4.440892098500626e-16,
        0.9787595868110657,
        7.105427357601002e-15
      ]
    },
    {
      "children": [
        153
      ],
      "name": "R_Gill_02_0103",
      "rotation": [
        0.08594248443841934,
        0.9351459741592407,
        0.342238187789917,
        0.031450893729925156
      ],
      "scale": [
        0.9999998211860657,
        0.9999998807907104,
        0.9999998211860657
      ],
      "translation": [
        5.50544548034668,
        50.93435287475586,
        -14.608414649963379
      ]
    },
    {
      "children": [
        154
      ],
      "name": "R_Gill_02_end_0104",
      "rotation": [
        -8.19564220932989e-08,
        -1.4447391549765598e-07,
        2.9709642745956444e-08,
        1.0
      ],
      "translation": [
        2.3430038709193468e-07,
        0.9787588715553284,
        -5.28996451976127e-07
      ]
    },
    {
      "name": "R_Gill_02_end_end_0144",
      "rotation": [
        2.7755575615628914e-17,
        0.0,
        0.0,
        1.0
      ],
      "translation": [
        8.881784197001252e-16,
        0.9787607192993164,
        0.0
      ]
    },
    {
      "children": [
        156
      ],
      "name": "R_Gill_03_0105",
      "rotation": [
        0.0840064287185669,
        0.9140775203704834,
        0.39507848024368286,
        0.03630736470222473
      ],
      "scale": [
        1.0000001192092896,
        0.9999997615814209,
        1.0000001192092896
      ],
      "translation": [
        3.8760838508605957,
        42.144588470458984,
        -12.562341690063477
      ]
    },
    {
      "children": [
        157
      ],
      "name": "R_Gill_03_end_0106",
      "rotation": [
        -5.364418598219345e-07,
        -1.5502079975249217e-07,
        2.2959508072517565e-08,
        1.0
      ],
      "translation": [
        1.4297233974502888e-07,
        0.9787581562995911,
        2.9645327686012024e-06
      ]
    },
    {
      "name": "R_Gill_03_end_end_0145",
      "rotation": [
        -2.7755575615628914e-17,
        6.938893903907228e-18,
        1.925929944387236e-34,
        1.0
      ],
      "translation": [
        0.0,
        0.9787582159042358,
        0.0
      ]
    },
    {
      "children": [
        159
      ],
      "name": "R_Gill_04_0107",
      "rotation": [
        0.08207167685031891,
        0.8930269479751587,
        0.4405992031097412,
        0.04049048200249672
      ],
      "scale": [
        0.9999998211860657,
        1.000000238418579,
        1.0
      ],
      "translation": [
        2.381594657897949,
        34.08242416381836,
        -11.662552833557129
      ]
    },
    {
      "children": [
        160
      ],
      "name": "R_Gill_04_end_0108",
      "rotation": [
        2.756715389296005e-07,
        -1.1122789800310784e-07,
        -4.182957979992352e-08,
        1.0
      ],
      "scale": [
        1.0,
        0.9999999403953552,
        0.9999999403953552
      ],
      "translation": [
        4.2780538933584467e-07,
        0.9787541627883911,
        -1.2360192158666905e-06
      ]
    },
    {
      "name": "R_Gill_04_end_end_0146",
      "rotation": [
        8.326672684688674e-17,
        -1.0408340855860843e-17,
        3.469446951953614e-18,
        1.0
      ],
      "translation": [
        0.0,
        0.9787592887878418,
        0.0
      ]
    },
    {
      "children": [
        162
      ],
      "name": "R_Gill_05_0109",
      "rotation": [
        0.08098207414150238,
        0.8811660408973694,
        0.46386536955833435,
        0.04262932389974594
      ],
      "scale": [
        0.9999997615814209,
        1.000000238418579,
        1.0
      ],
      "translation": [
        1.3105323314666748,
        28.304458618164063,
        -10.201167106628418
      ]
    },
    {
      "children": [
        163
      ],
      "name": "R_Gill_05_end_0110",
      "rotation": [
        -4.917383193969727e-07,
        -5.648632495081074e-08,
        4.1729492750164354e-08,
        1.0
      ],
      "scale": [
        1.0,
        1.0000001192092896,
        1.0000001192092896
      ],
      "translation": [
        2.0778770704055205e-08,
        0.9787514209747314,
        4.333257948019309e-07
      ]
    },
    {
      "name": "R_Gill_05_end_end_0147",
      "rotation": [
        2.7755575615628914e-17,
        2.8888949165808538e-34,
        1.0408340855860843e-17,
        1.0
      ],
      "translation": [
        0.0,
        0.978759229183197,
        -3.552713678800501e-15
      ]
    },
    {
      "matrix": [
        99.99999999462717,
        -8.073518633147647e-12,
        1.0392329358177577e-11,
        0.0,
        9.740758564335759e-12,
        -7.6893856479461,
        -99.7039469185082,
        0.0,
        8.848722360442192e-12,
        99.70393954230767,
        -7.689385079077442,
        0.0,
        5.0857021322089206e-05,
        -5.856944414692861e-06,
        -0.00010704019713434709,
        1.0
      ],
      "name": "Object_164"
    },
    {
      "mesh": 0,
      "name": "Object_165",
      "skin": 0
    }
  ],
  "samplers": [
    {
      "magFilter": 9729,
      "minFilter": 9987,
      "wrapS": 10497,
      "wrapT": 10497
    }
  ],
  "scene": 0,
  "scenes": [
    {
      "name": "Sketchfab_Scene",
      "nodes": [
        0
      ]
    }
  ],
  "skins": [
    {
      "inverseBindMatrices": 5,
      "joints": [
        15,
        16,
        17,
        18,
        19,
        20,
        21,
        22,
        23,
        24,
        25,
        26,
        27,
        28,
        29,
        30,
        31,
        32,
        33,
        34,
        35,
        36,
        37,
        38,
        39,
        40,
        41,
        42,
        43,
        44,
        45,
        46,
        47,
        48,
        49,
        50,
        51,
        52,
        53,
        54,
        55,
        56,
        57,
        58,
        59,
        60,
        61,
        62,
        63,
        64,
        65,
        66,
        67,
        68,
        69,
        70,
        71,
        72,
        73,
        74,
        75,
        76,
        77,
        78,
        79,
        80,
        81,
        82,
        83,
        84,
        85,
        86,
        87,
        88,
        89,
        90,
        91,
        92,
        93,
        94,
        95,
        96,
        97,
        98,
        99,
        100,
        101,
        102,
        103,
        104,
        105,
        106,
        107,
        108,
        109,
        110,
        111,
        112,
        113,
        114,
        115,
        116,
        117,
        118,
        119,
        120,
        121,
        122,
        123,
        124,
        125,
        126,
        127,
        128,
        129,
        130,
        131,
        132,
        133,
        134,
        135,
        136,
        137,
        138,
        139,
        140,
        141,
        142,
        143,
        144,
        145,
        146,
        147,
        148,
        149,
        150,
        151,
        152,
        153,
        154,
        155,
        156,
        157,
        158,
        159,
        160,
        161,
        162,
        163
      ],
      "skeleton": 15
    }
  ],
  "textures": [
    {
      "sampler": 0,
      "source": 0
    },
    {
      "sampler": 0,
      "source": 1
    }
  ]
}
