%TF.GenerationSoftware,KiCad,Pcbnew,10.0.3*%
%TF.CreationDate,2026-06-09T11:55:03-05:00*%
%TF.ProjectId,co2 timer v3,636f3220-7469-46d6-9572-2076332e6b69,3.0*%
%TF.SameCoordinates,Original*%
%TF.FileFunction,Copper,L1,Top*%
%TF.FilePolarity,Positive*%
%FSLAX46Y46*%
G04 Gerber Fmt 4.6, Leading zero omitted, Abs format (unit mm)*
G04 Created by KiCad (PCBNEW 10.0.3) date 2026-06-09 11:55:03*
%MOMM*%
%LPD*%
G01*
G04 APERTURE LIST*
%TA.AperFunction,SMDPad,CuDef*%
%ADD10R,1.400000X1.650000*%
%TD*%
%TA.AperFunction,SMDPad,CuDef*%
%ADD11R,0.900000X1.300000*%
%TD*%
%TA.AperFunction,ComponentPad*%
%ADD12R,1.800000X1.800000*%
%TD*%
%TA.AperFunction,ComponentPad*%
%ADD13C,1.800000*%
%TD*%
%TA.AperFunction,ComponentPad*%
%ADD14R,1.600000X1.600000*%
%TD*%
%TA.AperFunction,ComponentPad*%
%ADD15C,1.600000*%
%TD*%
%TA.AperFunction,ComponentPad*%
%ADD16R,2.000000X2.000000*%
%TD*%
%TA.AperFunction,ComponentPad*%
%ADD17C,2.000000*%
%TD*%
%TA.AperFunction,SMDPad,CuDef*%
%ADD18R,1.550000X0.600000*%
%TD*%
%TA.AperFunction,SMDPad,CuDef*%
%ADD19R,2.000000X3.400000*%
%TD*%
%TA.AperFunction,SMDPad,CuDef*%
%ADD20R,1.500000X0.450000*%
%TD*%
%TA.AperFunction,ViaPad*%
%ADD21C,0.600000*%
%TD*%
%TA.AperFunction,ViaPad*%
%ADD22C,0.500000*%
%TD*%
%TA.AperFunction,ViaPad*%
%ADD23C,1.400000*%
%TD*%
%TA.AperFunction,Conductor*%
%ADD24C,0.200000*%
%TD*%
%TA.AperFunction,Conductor*%
%ADD25C,0.500000*%
%TD*%
%TA.AperFunction,Conductor*%
%ADD26C,0.250000*%
%TD*%
G04 APERTURE END LIST*
D10*
%TO.P,R7,1*%
%TO.N,SCL*%
X48875000Y-14000000D03*
%TO.P,R7,2*%
%TO.N,VCC*%
X51125000Y-14000000D03*
%TD*%
D11*
%TO.P,U3,1*%
%TO.N,VIN*%
X37050000Y-6700000D03*
%TO.P,U3,2*%
%TO.N,GND*%
X38950000Y-6700000D03*
%TO.P,U3,3*%
%TO.N,VCC*%
X38000000Y-9300000D03*
%TD*%
D12*
%TO.P,C1,+*%
%TO.N,VIN*%
X6750000Y-26000000D03*
D13*
%TO.P,C1,-*%
%TO.N,GND*%
X9250000Y-26000000D03*
%TD*%
D12*
%TO.P,J2,1*%
%TO.N,AOUT1*%
X62460000Y-40000000D03*
D13*
%TO.P,J2,2*%
%TO.N,AOUT2*%
X67540000Y-40000000D03*
%TD*%
D14*
%TO.P,J3,1*%
%TO.N,MISO*%
X5460000Y-9460000D03*
D15*
%TO.P,J3,2*%
%TO.N,VCC*%
X8000000Y-9460000D03*
%TO.P,J3,3*%
%TO.N,SCK*%
X5460000Y-12000000D03*
%TO.P,J3,4*%
%TO.N,MOSI*%
X8000000Y-12000000D03*
%TO.P,J3,5*%
%TO.N,/RESET*%
X5460000Y-14540000D03*
%TO.P,J3,6*%
%TO.N,GND*%
X8000000Y-14540000D03*
%TD*%
D10*
%TO.P,C4,1*%
%TO.N,VCP*%
X59875000Y-14000000D03*
%TO.P,C4,2*%
%TO.N,GND*%
X62125000Y-14000000D03*
%TD*%
D14*
%TO.P,J4,1*%
%TO.N,VCC*%
X31190000Y-5000000D03*
D15*
%TO.P,J4,2*%
%TO.N,GND*%
X33730000Y-5000000D03*
%TO.P,J4,3*%
%TO.N,SCL*%
X36270000Y-5000000D03*
%TO.P,J4,4*%
%TO.N,SDA*%
X38810000Y-5000000D03*
%TD*%
D16*
%TO.P,J5,1*%
%TO.N,BARREL*%
X63000000Y-8000000D03*
D17*
%TO.P,J5,2*%
%TO.N,GND*%
X63000000Y-11400000D03*
%TO.P,J5,3*%
%TO.N,N/C*%
X59700000Y-9700000D03*
%TD*%
D10*
%TO.P,R5,1*%
%TO.N,SDA*%
X36875000Y-14000000D03*
%TO.P,R5,2*%
%TO.N,VCC*%
X39125000Y-14000000D03*
%TD*%
D14*
%TO.P,U1,1*%
%TO.N,VCC*%
X16190000Y-19380000D03*
D15*
%TO.P,U1,2*%
%TO.N,MOSI*%
X16190000Y-21920000D03*
%TO.P,U1,3*%
%TO.N,MISO*%
X16190000Y-24460000D03*
%TO.P,U1,4*%
%TO.N,/RESET*%
X16190000Y-27000000D03*
%TO.P,U1,5*%
%TO.N,SCK*%
X16190000Y-29540000D03*
%TO.P,U1,6*%
%TO.N,BTN_SET*%
X16190000Y-32080000D03*
%TO.P,U1,7*%
%TO.N,BTN_UP*%
X16190000Y-34620000D03*
%TO.P,U1,8*%
%TO.N,N/C*%
X23810000Y-34620000D03*
%TO.P,U1,9*%
%TO.N,SCL*%
X23810000Y-32080000D03*
%TO.P,U1,10*%
%TO.N,SDA*%
X23810000Y-29540000D03*
%TO.P,U1,11*%
%TO.N,INT*%
X23810000Y-27000000D03*
%TO.P,U1,12*%
%TO.N,IN2*%
X23810000Y-24460000D03*
%TO.P,U1,13*%
%TO.N,IN1*%
X23810000Y-21920000D03*
%TO.P,U1,14*%
%TO.N,GND*%
X23810000Y-19380000D03*
%TD*%
%TO.P,D1,A*%
%TO.N,BAT1_FUSED*%
X8000000Y-42000000D03*
%TO.P,D1,K*%
%TO.N,VIN*%
X18160000Y-42000000D03*
%TD*%
%TO.P,D4,A*%
%TO.N,BARREL*%
X20000000Y-42000000D03*
%TO.P,D4,K*%
%TO.N,VIN*%
X30160000Y-42000000D03*
%TD*%
D10*
%TO.P,R2,1*%
%TO.N,BTN_UP*%
X18875000Y-36000000D03*
%TO.P,R2,2*%
%TO.N,VCC*%
X21125000Y-36000000D03*
%TD*%
D18*
%TO.P,U2,1*%
%TO.N,32KHZ*%
X47100000Y-9110000D03*
%TO.P,U2,2*%
%TO.N,VCC*%
X47100000Y-10380000D03*
%TO.P,U2,3*%
X47100000Y-11650000D03*
%TO.P,U2,4*%
%TO.N,GND*%
X47100000Y-12920000D03*
%TO.P,U2,5*%
%TO.N,SDA*%
X47100000Y-14190000D03*
%TO.P,U2,6*%
%TO.N,SCL*%
X47100000Y-15460000D03*
%TO.P,U2,7*%
%TO.N,INT*%
X47100000Y-16730000D03*
%TO.P,U2,8*%
%TO.N,VCC*%
X47100000Y-18000000D03*
%TO.P,U2,9*%
%TO.N,GND*%
X56900000Y-18000000D03*
%TO.P,U2,10*%
X56900000Y-16730000D03*
%TO.P,U2,11*%
X56900000Y-15460000D03*
%TO.P,U2,12*%
X56900000Y-14190000D03*
%TO.P,U2,13*%
X56900000Y-12920000D03*
%TO.P,U2,14*%
X56900000Y-11650000D03*
%TO.P,U2,15*%
%TO.N,VCC*%
X56900000Y-10380000D03*
%TO.P,U2,16*%
%TO.N,GND*%
X56900000Y-9110000D03*
%TD*%
D12*
%TO.P,J1,1*%
%TO.N,BAT1*%
X2460000Y-40000000D03*
D13*
%TO.P,J1,2*%
%TO.N,GND*%
X7540000Y-40000000D03*
%TD*%
D15*
%TO.P,D2,A*%
%TO.N,AOUT1*%
X52000000Y-44000000D03*
%TO.P,D2,K*%
%TO.N,VIN*%
X62160000Y-44000000D03*
%TD*%
D10*
%TO.P,R1,1*%
%TO.N,/RESET*%
X30875000Y-14000000D03*
%TO.P,R1,2*%
%TO.N,VCC*%
X33125000Y-14000000D03*
%TD*%
%TO.P,C3,1*%
%TO.N,VCC*%
X59875000Y-5000000D03*
%TO.P,C3,2*%
%TO.N,GND*%
X62125000Y-5000000D03*
%TD*%
%TO.P,C2,1*%
%TO.N,VCC*%
X30875000Y-8000000D03*
%TO.P,C2,2*%
%TO.N,GND*%
X33125000Y-8000000D03*
%TD*%
%TO.P,R6,1*%
%TO.N,INT*%
X42875000Y-14000000D03*
%TO.P,R6,2*%
%TO.N,VCC*%
X45125000Y-14000000D03*
%TD*%
D19*
%TO.P,F1,1*%
%TO.N,BAT1*%
X5460000Y-36000000D03*
%TO.P,F1,2*%
%TO.N,BAT1_FUSED*%
X10540000Y-36000000D03*
%TD*%
D12*
%TO.P,J6,1*%
%TO.N,BAT2*%
X11460000Y-40000000D03*
D13*
%TO.P,J6,2*%
%TO.N,GND*%
X16540000Y-40000000D03*
%TD*%
D10*
%TO.P,R3,1*%
%TO.N,BTN_SET*%
X31875000Y-36000000D03*
%TO.P,R3,2*%
%TO.N,VCC*%
X34125000Y-36000000D03*
%TD*%
D15*
%TO.P,D5,A*%
%TO.N,BAT2*%
X14000000Y-38500000D03*
%TO.P,D5,K*%
%TO.N,VIN*%
X24160000Y-38500000D03*
%TD*%
%TO.P,D3,A*%
%TO.N,AOUT2*%
X52000000Y-47000000D03*
%TO.P,D3,K*%
%TO.N,VIN*%
X62160000Y-47000000D03*
%TD*%
%TO.P,SW1,1*%
%TO.N,BTN_UP*%
X23830000Y-42830000D03*
%TO.P,SW1,2*%
%TO.N,GND*%
X30170000Y-49170000D03*
%TD*%
%TO.P,SW2,1*%
%TO.N,BTN_SET*%
X36830000Y-42830000D03*
%TO.P,SW2,2*%
%TO.N,GND*%
X43170000Y-49170000D03*
%TD*%
D20*
%TO.P,U4,1*%
%TO.N,AOUT2*%
X49100000Y-32425000D03*
%TO.P,U4,2*%
%TO.N,VCC*%
X49100000Y-33075000D03*
%TO.P,U4,3*%
%TO.N,IN2*%
X49100000Y-33725000D03*
%TO.P,U4,4*%
%TO.N,IN1*%
X49100000Y-34375000D03*
%TO.P,U4,5*%
%TO.N,VCC*%
X49100000Y-35025000D03*
%TO.P,U4,6*%
%TO.N,N/C*%
X49100000Y-35675000D03*
%TO.P,U4,7*%
%TO.N,VCP*%
X49100000Y-36325000D03*
%TO.P,U4,8*%
%TO.N,VIN*%
X49100000Y-36975000D03*
%TO.P,U4,9*%
%TO.N,GND*%
X54900000Y-36975000D03*
%TO.P,U4,10*%
X54900000Y-36325000D03*
%TO.P,U4,11*%
%TO.N,AOUT1*%
X54900000Y-35675000D03*
%TO.P,U4,12*%
%TO.N,N/C*%
X54900000Y-35025000D03*
%TO.P,U4,13*%
X54900000Y-34375000D03*
%TO.P,U4,14*%
%TO.N,GND*%
X54900000Y-33725000D03*
%TO.P,U4,15*%
X54900000Y-33075000D03*
%TO.P,U4,16*%
X54900000Y-32425000D03*
%TD*%
D21*
%TO.N,SCL*%
X35164100Y-15930600D03*
D22*
%TO.N,VCC*%
X47800000Y-33075000D03*
X47800000Y-35025000D03*
%TO.N,VIN*%
X47800000Y-36975000D03*
D23*
X10258000Y-30710000D03*
D21*
X37435000Y-7876800D03*
D22*
%TO.N,GND*%
X56200000Y-36325000D03*
D21*
X39908500Y-6493200D03*
D22*
X56200000Y-33075000D03*
D21*
X45770800Y-12667500D03*
X34330500Y-8203800D03*
D22*
X56200000Y-32424999D03*
D21*
X58208500Y-18063800D03*
X61522300Y-12671100D03*
X58357300Y-14961900D03*
X61699400Y-6341000D03*
X58182600Y-16935900D03*
X55605000Y-11868300D03*
X55622400Y-9310900D03*
X55603800Y-13139500D03*
D22*
X56200000Y-33725000D03*
X56200000Y-36975000D03*
%TO.N,AOUT1*%
X56200000Y-35675000D03*
%TO.N,AOUT2*%
X47800000Y-32424999D03*
%TO.N,VCP*%
X47800000Y-36325000D03*
%TO.N,SDA*%
X46500000Y-14190000D03*
D21*
X37397500Y-15408300D03*
D22*
%TO.N,IN2*%
X47800000Y-33725000D03*
%TO.N,IN1*%
X47800000Y-34375000D03*
%TD*%
%TO.N,SCL*%
D24*
X48510000Y-15126700D02*
X48875000Y-15126700D01*
X47100000Y-15460000D02*
X48176700Y-15460000D01*
X45071500Y-16411800D02*
X35645300Y-16411800D01*
X48875000Y-14000000D02*
X48875000Y-15126700D01*
X48176700Y-15460000D02*
X48510000Y-15126700D01*
X35645300Y-16411800D02*
X35164100Y-15930600D01*
X46023300Y-15460000D02*
X45071500Y-16411800D01*
X47100000Y-15460000D02*
X46023300Y-15460000D01*
%TO.N,VCC*%
X23803800Y-17875100D02*
X22543500Y-17875100D01*
X30875000Y-6416700D02*
X30875000Y-8000000D01*
X51125000Y-14000000D02*
X51125000Y-12873300D01*
X21125000Y-36000000D02*
X29923300Y-36000000D01*
X30007500Y-16862900D02*
X29645900Y-17224500D01*
X45885000Y-11650000D02*
X47100000Y-11650000D01*
X40126700Y-14000000D02*
X41253400Y-12873300D01*
X31190000Y-6101700D02*
X30875000Y-6416700D01*
X39831700Y-10380000D02*
X47100000Y-10380000D01*
X33125000Y-14000000D02*
X32123300Y-14000000D01*
X22543500Y-17875100D02*
X22542000Y-17876600D01*
X29923300Y-36000000D02*
X31050000Y-34873300D01*
X32123300Y-14749200D02*
X30009600Y-16862900D01*
X33123300Y-35248700D02*
X33123300Y-36000000D01*
X28663300Y-17073200D02*
X28261600Y-17474900D01*
X30009600Y-16862900D02*
X30007500Y-16862900D01*
X47800000Y-33075000D02*
X47662500Y-33075000D01*
X29446200Y-17190900D02*
X29328500Y-17073200D01*
X45125000Y-12873300D02*
X45125000Y-12410000D01*
X29645900Y-17224500D02*
X29612200Y-17190900D01*
X32747900Y-34873300D02*
X33123300Y-35248700D01*
X32123300Y-14000000D02*
X32123300Y-14749200D01*
X38751700Y-9300000D02*
X39831700Y-10380000D01*
X31876700Y-8000000D02*
X31876700Y-9053400D01*
X38000000Y-9300000D02*
X38751700Y-9300000D01*
X24508500Y-17710300D02*
X24508500Y-17876600D01*
X28261600Y-17474900D02*
X24743900Y-17474900D01*
X29328500Y-17073200D02*
X28663300Y-17073200D01*
X46825000Y-36000000D02*
X47800000Y-35025000D01*
X45125000Y-12410000D02*
X45885000Y-11650000D01*
D25*
X49100000Y-33075000D02*
X47800000Y-33075000D01*
D24*
X49901700Y-11650000D02*
X51125000Y-12873300D01*
X23805300Y-17876600D02*
X23803800Y-17875100D01*
X34125000Y-36000000D02*
X46825000Y-36000000D01*
X56900000Y-10380000D02*
X57976700Y-10380000D01*
X18795100Y-17876600D02*
X17291700Y-19380000D01*
X30875000Y-8000000D02*
X31876700Y-8000000D01*
X59875000Y-5000000D02*
X58873300Y-5000000D01*
X32123300Y-9300000D02*
X38000000Y-9300000D01*
X51125000Y-14000000D02*
X51125000Y-15126700D01*
X31876700Y-9053400D02*
X32123300Y-9300000D01*
X24743900Y-17474900D02*
X24508500Y-17710300D01*
X48176700Y-11650000D02*
X48176700Y-10380000D01*
X41253400Y-12873300D02*
X45125000Y-12873300D01*
X45125000Y-14000000D02*
X45125000Y-12873300D01*
D25*
X49100000Y-35025000D02*
X47800000Y-35025000D01*
D24*
X31050000Y-34873300D02*
X32747900Y-34873300D01*
X24508500Y-17876600D02*
X23805300Y-17876600D01*
X47100000Y-10380000D02*
X48176700Y-10380000D01*
X47244400Y-18000000D02*
X47100000Y-18000000D01*
X22542000Y-17876600D02*
X18795100Y-17876600D01*
X39125000Y-14000000D02*
X40126700Y-14000000D01*
X16190000Y-19380000D02*
X17291700Y-19380000D01*
X31190000Y-5000000D02*
X31190000Y-6101700D01*
X57976700Y-10380000D02*
X57976700Y-5896600D01*
X32123300Y-9300000D02*
X32123300Y-14000000D01*
X47662500Y-33075000D02*
X47244400Y-32656900D01*
X48251700Y-18000000D02*
X47244400Y-18000000D01*
X47100000Y-11650000D02*
X48176700Y-11650000D01*
X57976700Y-5896600D02*
X58873300Y-5000000D01*
X29612200Y-17190900D02*
X29446200Y-17190900D01*
X34125000Y-36000000D02*
X33123300Y-36000000D01*
X51125000Y-15126700D02*
X48251700Y-18000000D01*
X47244400Y-32656900D02*
X47244400Y-18000000D01*
X48176700Y-11650000D02*
X49901700Y-11650000D01*
X56900000Y-10380000D02*
X48176700Y-10380000D01*
%TO.N,VIN*%
X49100000Y-36975000D02*
X50151700Y-36975000D01*
X43177300Y-43949400D02*
X30160000Y-43949400D01*
D25*
X49100000Y-36975000D02*
X47800000Y-36975000D01*
D24*
X37050000Y-7651700D02*
X37209900Y-7651700D01*
X37050000Y-6700000D02*
X37050000Y-7651700D01*
X50151700Y-36975000D02*
X57176700Y-44000000D01*
X57176700Y-44000000D02*
X62160000Y-44000000D01*
D25*
X30160000Y-42000000D02*
X30160000Y-38500000D01*
D24*
X37209900Y-7651700D02*
X37435000Y-7876800D01*
X50151700Y-36975000D02*
X43177300Y-43949400D01*
X30160000Y-43949400D02*
X20109400Y-43949400D01*
D25*
X30160000Y-38500000D02*
X24160000Y-38500000D01*
D24*
X30160000Y-43949400D02*
X30160000Y-42000000D01*
X20109400Y-43949400D02*
X18160000Y-42000000D01*
%TO.N,GND*%
X56900000Y-18000000D02*
X57976700Y-18000000D01*
X61699400Y-6341000D02*
X61913700Y-6126700D01*
X56900000Y-12920000D02*
X55823300Y-12920000D01*
D25*
X54900000Y-33725000D02*
X56200000Y-33725000D01*
D24*
X61724500Y-12873300D02*
X62125000Y-12873300D01*
X57976700Y-14190000D02*
X57976700Y-14581300D01*
X55823300Y-9110000D02*
X55622400Y-9310900D01*
X56900000Y-14190000D02*
X57976700Y-14190000D01*
D25*
X54900000Y-36325000D02*
X56200000Y-36325000D01*
D24*
X58040500Y-18063800D02*
X57976700Y-18000000D01*
X39908500Y-6493200D02*
X39701700Y-6700000D01*
X62125000Y-14000000D02*
X62125000Y-12873300D01*
X46023300Y-12920000D02*
X45770800Y-12667500D01*
X56900000Y-9110000D02*
X55823300Y-9110000D01*
X55605000Y-11868300D02*
X55823300Y-11650000D01*
X33125000Y-8000000D02*
X34126700Y-8000000D01*
X62125000Y-5000000D02*
X62125000Y-6126700D01*
X58182600Y-16935900D02*
X57976700Y-16730000D01*
X61913700Y-6126700D02*
X62125000Y-6126700D01*
X58357300Y-14961900D02*
X57976700Y-15342500D01*
X56900000Y-11650000D02*
X55823300Y-11650000D01*
D25*
X54900000Y-32424999D02*
X56200000Y-32424999D01*
X54900000Y-36975000D02*
X56200000Y-36975000D01*
D24*
X47100000Y-12920000D02*
X46023300Y-12920000D01*
X34330500Y-8203800D02*
X34126700Y-8000000D01*
X38950000Y-6700000D02*
X39701700Y-6700000D01*
X55603800Y-13139500D02*
X55823300Y-12920000D01*
X56900000Y-15460000D02*
X57976700Y-15460000D01*
X61522300Y-12671100D02*
X61724500Y-12873300D01*
X56900000Y-16730000D02*
X57976700Y-16730000D01*
X57976700Y-15342500D02*
X57976700Y-15460000D01*
D25*
X54900000Y-33075000D02*
X56200000Y-33075000D01*
D24*
X57976700Y-14581300D02*
X58357300Y-14961900D01*
X58208500Y-18063800D02*
X58040500Y-18063800D01*
%TO.N,AOUT1*%
D25*
X54900000Y-35675000D02*
X56200000Y-35675000D01*
%TO.N,AOUT2*%
D24*
X67540000Y-40242500D02*
X67540000Y-40000000D01*
X53750200Y-45249800D02*
X62532700Y-45249800D01*
X52000000Y-47000000D02*
X53750200Y-45249800D01*
D25*
X49100000Y-32424999D02*
X47800000Y-32424999D01*
D24*
X62532700Y-45249800D02*
X67540000Y-40242500D01*
%TO.N,/RESET*%
X5460000Y-14540000D02*
X6563700Y-13436300D01*
X29309600Y-13436300D02*
X29873300Y-14000000D01*
X30875000Y-14000000D02*
X29873300Y-14000000D01*
X6563700Y-13436300D02*
X29309600Y-13436300D01*
%TO.N,VCP*%
X58959000Y-14712700D02*
X58873300Y-14627000D01*
X58959000Y-15211100D02*
X58959000Y-14712700D01*
X58041800Y-16128300D02*
X58959000Y-15211100D01*
X55913700Y-16128300D02*
X58041800Y-16128300D01*
X49100000Y-36325000D02*
X50151700Y-36325000D01*
X58873300Y-14627000D02*
X58873300Y-14000000D01*
X59875000Y-14000000D02*
X58873300Y-14000000D01*
X50151700Y-21890300D02*
X55913700Y-16128300D01*
D26*
X49100000Y-36325000D02*
X47800000Y-36325000D01*
D24*
X50151700Y-36325000D02*
X50151700Y-21890300D01*
%TO.N,SDA*%
X36875000Y-14000000D02*
X36875000Y-15126700D01*
X37397500Y-15408300D02*
X37115900Y-15126700D01*
X37115900Y-15126700D02*
X36875000Y-15126700D01*
D26*
X46500000Y-14190000D02*
X47100000Y-14190000D01*
%TO.N,BTN_SET*%
D24*
X20320500Y-37201600D02*
X20122100Y-37003200D01*
X31875000Y-37875000D02*
X31875000Y-37201600D01*
X20122100Y-37003200D02*
X20122100Y-35233200D01*
X31875000Y-37201600D02*
X31875000Y-36000000D01*
X16968900Y-32080000D02*
X16190000Y-32080000D01*
X31875000Y-37201600D02*
X20320500Y-37201600D01*
X36830000Y-42830000D02*
X31875000Y-37875000D01*
X20122100Y-35233200D02*
X16968900Y-32080000D01*
%TO.N,BTN_UP*%
X16190000Y-34620000D02*
X16493300Y-34620000D01*
X16493300Y-34620000D02*
X17873300Y-36000000D01*
X18875000Y-36000000D02*
X17873300Y-36000000D01*
%TO.N,INT*%
X34562200Y-15681700D02*
X34562200Y-16179900D01*
X43225100Y-14834900D02*
X43142500Y-14834900D01*
X43710400Y-14349600D02*
X43475000Y-14585000D01*
X43475000Y-14666600D02*
X43416600Y-14725000D01*
X43335000Y-14725000D02*
X43225100Y-14834900D01*
X35195800Y-16813500D02*
X45939800Y-16813500D01*
X43142500Y-14834900D02*
X43107400Y-14799800D01*
X32463800Y-18278300D02*
X34562200Y-16179900D01*
X43107400Y-14799800D02*
X42774800Y-14799800D01*
X22248300Y-19342000D02*
X23312000Y-18278300D01*
X45939800Y-16813500D02*
X46023300Y-16730000D01*
X41564500Y-16010100D02*
X36094500Y-16010100D01*
X43876700Y-14291200D02*
X43818300Y-14349600D01*
X43818300Y-14349600D02*
X43710400Y-14349600D01*
X34562200Y-16179900D02*
X35195800Y-16813500D01*
X23312000Y-18278300D02*
X32463800Y-18278300D01*
X43416600Y-14725000D02*
X43335000Y-14725000D01*
X34915000Y-15328900D02*
X34562200Y-15681700D01*
X43475000Y-14585000D02*
X43475000Y-14666600D01*
X35413300Y-15328900D02*
X34915000Y-15328900D01*
X42875000Y-14000000D02*
X43876700Y-14000000D01*
X22248300Y-25438300D02*
X22248300Y-19342000D01*
X23810000Y-27000000D02*
X22248300Y-25438300D01*
X47100000Y-16730000D02*
X46023300Y-16730000D01*
X36094500Y-16010100D02*
X35413300Y-15328900D01*
X42774800Y-14799800D02*
X41564500Y-16010100D01*
X43876700Y-14000000D02*
X43876700Y-14291200D01*
%TO.N,IN2*%
X22661300Y-21452200D02*
X22661300Y-23311300D01*
X25383300Y-20811800D02*
X23301700Y-20811800D01*
X38296500Y-33725000D02*
X25383300Y-20811800D01*
X22661300Y-23311300D02*
X23810000Y-24460000D01*
X47800000Y-33725000D02*
X38296500Y-33725000D01*
X23301700Y-20811800D02*
X22661300Y-21452200D01*
D26*
X49100000Y-33725000D02*
X47800000Y-33725000D01*
%TO.N,IN1*%
D24*
X47800000Y-34375000D02*
X36265000Y-34375000D01*
X36265000Y-34375000D02*
X23810000Y-21920000D01*
D26*
X49100000Y-34375000D02*
X47800000Y-34375000D01*
%TO.N,BAT1_FUSED*%
D24*
X9238300Y-36000000D02*
X9238300Y-40761700D01*
X9238300Y-40761700D02*
X8000000Y-42000000D01*
X10540000Y-36000000D02*
X9238300Y-36000000D01*
%TO.N,BAT1*%
X2460000Y-40000000D02*
X2460000Y-38798300D01*
X4158300Y-37100000D02*
X2460000Y-38798300D01*
X5460000Y-36000000D02*
X4158300Y-36000000D01*
X4158300Y-36000000D02*
X4158300Y-37100000D01*
%TD*%
M02*
