M48
; DRILL file KiCad 10.0.3 date 2026-06-09T11:55:11
; FORMAT={-:-/ absolute / metric / decimal}
; #@! TF.CreationDate,2026-06-09T11:55:11-05:00
; #@! TF.GenerationSoftware,Kicad,Pcbnew,10.0.3
; #@! TF.FileFunction,Plated,1,2,PTH
FMAT,2
METRIC
; #@! TA.AperFunction,Plated,PTH,ViaDrill
T1C0.300
; #@! TA.AperFunction,Plated,PTH,ViaDrill
T2C0.800
; #@! TA.AperFunction,Plated,PTH,ComponentDrill
T3C0.800
; #@! TA.AperFunction,Plated,PTH,ComponentDrill
T4C1.000
; #@! TA.AperFunction,Plated,PTH,ComponentDrill
T5C1.300
%
G90
G05
T1
X34.331Y-8.204
X35.164Y-15.931
X37.398Y-15.408
X37.435Y-7.877
X39.908Y-6.493
X45.771Y-12.667
X46.5Y-14.19
X47.8Y-32.425
X47.8Y-33.075
X47.8Y-33.725
X47.8Y-34.375
X47.8Y-35.025
X47.8Y-36.325
X47.8Y-36.975
X55.604Y-13.139
X55.605Y-11.868
X55.622Y-9.311
X56.2Y-32.425
X56.2Y-33.075
X56.2Y-33.725
X56.2Y-35.675
X56.2Y-36.325
X56.2Y-36.975
X58.183Y-16.936
X58.209Y-18.064
X58.357Y-14.962
X61.522Y-12.671
X61.699Y-6.341
T2
X10.258Y-30.71
T3
X5.46Y-9.46
X5.46Y-12.0
X5.46Y-14.54
X6.75Y-26.0
X8.0Y-9.46
X8.0Y-12.0
X8.0Y-14.54
X8.0Y-42.0
X9.25Y-26.0
X14.0Y-38.5
X16.19Y-19.38
X16.19Y-21.92
X16.19Y-24.46
X16.19Y-27.0
X16.19Y-29.54
X16.19Y-32.08
X16.19Y-34.62
X18.16Y-42.0
X20.0Y-42.0
X23.81Y-19.38
X23.81Y-21.92
X23.81Y-24.46
X23.81Y-27.0
X23.81Y-29.54
X23.81Y-32.08
X23.81Y-34.62
X23.83Y-42.83
X24.16Y-38.5
X30.16Y-42.0
X30.17Y-49.17
X31.19Y-5.0
X33.73Y-5.0
X36.27Y-5.0
X36.83Y-42.83
X38.81Y-5.0
X43.17Y-49.17
X52.0Y-44.0
X52.0Y-47.0
X62.16Y-44.0
X62.16Y-47.0
T4
X2.46Y-40.0
X7.54Y-40.0
X11.46Y-40.0
X16.54Y-40.0
X62.46Y-40.0
X67.54Y-40.0
T5
X59.7Y-9.7
X63.0Y-8.0
X63.0Y-11.4
M30
