M48
; DRILL file KiCad 10.0.3 date 2026-08-11T20:59:00
; FORMAT={-:-/ absolute / metric / decimal}
; #@! TF.CreationDate,2026-08-11T20:59:00-05:00
; #@! TF.GenerationSoftware,Kicad,Pcbnew,10.0.3
; #@! TF.FileFunction,Plated,1,2,PTH
FMAT,2
METRIC
; #@! TA.AperFunction,Plated,PTH,ViaDrill
T1C0.300
; #@! TA.AperFunction,Plated,PTH,ViaDrill
T2C0.320
; #@! TA.AperFunction,Plated,PTH,ViaDrill
T3C0.350
; #@! TA.AperFunction,Plated,PTH,ComponentDrill
T4C0.800
; #@! TA.AperFunction,Plated,PTH,ComponentDrill
T5C1.000
%
G90
G05
T1
X14.25Y-24.0
X14.25Y-27.0
X16.5Y-20.25
X16.863Y-21.5
X19.137Y-21.5
X20.0Y-21.5
X25.75Y-19.75
X25.75Y-21.75
X27.0Y-17.0
X38.75Y-37.5
X40.1Y-26.5
X40.1Y-28.5
X40.1Y-31.5
X40.1Y-34.5
X40.337Y-32.5
X40.75Y-35.5
X41.5Y-34.75
X42.25Y-33.9
X42.5Y-35.1
X43.7Y-34.2
X51.25Y-39.5
T2
X43.4Y-39.25
X43.4Y-40.75
X44.6Y-39.25
X44.6Y-40.75
T3
X3.75Y-25.75
X3.75Y-44.25
X4.25Y-39.25
X6.25Y-33.75
X6.25Y-35.0
X6.25Y-39.25
X9.75Y-25.75
X9.75Y-44.25
X10.25Y-13.75
X11.0Y-22.0
X11.0Y-24.0
X12.0Y-14.25
X12.0Y-20.75
X12.25Y-33.0
X12.25Y-37.0
X13.0Y-7.75
X13.75Y-10.25
X14.0Y-12.75
X14.0Y-15.75
X15.25Y-7.75
X15.5Y-21.5
X16.0Y-16.75
X16.5Y-18.0
X17.75Y-22.5
X18.0Y-18.0
X18.0Y-27.75
X19.25Y-23.75
X21.0Y-33.0
X21.0Y-36.0
X21.25Y-25.5
X22.75Y-19.25
X22.75Y-24.25
X23.5Y-24.75
X23.75Y-12.25
X24.0Y-9.5
X24.5Y-22.5
X25.5Y-29.0
X25.5Y-30.5
X25.75Y-13.25
X27.5Y-18.5
X27.75Y-14.5
X28.0Y-26.5
X28.0Y-32.5
X29.0Y-17.75
X29.0Y-19.0
X29.25Y-31.75
X29.25Y-35.0
X30.25Y-19.75
X30.25Y-29.0
X30.25Y-30.5
X31.0Y-14.5
X31.75Y-11.25
X31.75Y-17.0
X32.25Y-25.25
X32.75Y-32.75
X33.25Y-17.25
X33.25Y-24.25
X33.25Y-27.75
X33.5Y-30.0
X34.5Y-17.25
X34.5Y-26.75
X34.5Y-28.75
X37.25Y-34.5
X37.25Y-35.5
X38.0Y-42.75
X38.5Y-33.75
X38.75Y-40.0
X39.0Y-24.25
X39.0Y-29.75
X41.5Y-40.5
X41.75Y-33.25
X42.75Y-38.0
X43.0Y-31.0
X44.75Y-32.25
X44.75Y-36.0
X46.0Y-40.75
X46.0Y-43.0
X46.5Y-34.25
X47.25Y-21.0
X47.25Y-29.5
X47.25Y-37.75
X47.5Y-16.75
X47.75Y-39.25
X49.0Y-17.75
X49.25Y-42.75
X49.5Y-24.75
X49.5Y-26.0
X49.5Y-27.25
X49.5Y-28.5
X50.25Y-19.0
X50.5Y-36.5
X51.0Y-20.25
X51.25Y-7.0
X51.5Y-15.75
X52.25Y-19.5
X52.75Y-15.75
X52.75Y-41.0
X53.0Y-5.75
X53.5Y-17.75
X53.5Y-38.75
X53.75Y-32.25
X55.25Y-5.75
X55.5Y-14.5
X56.25Y-18.75
X57.75Y-29.5
X59.25Y-23.25
X59.25Y-24.75
X59.25Y-26.0
X59.25Y-27.25
X59.25Y-28.5
X60.5Y-37.75
X61.75Y-21.75
X62.25Y-46.5
X62.5Y-12.25
T4
X52.75Y-34.5
X54.5Y-42.0
X59.5Y-42.0
X60.25Y-34.5
X61.5Y-31.5
X66.5Y-31.5
T5
X3.5Y-28.0
X3.5Y-30.54
X3.5Y-33.08
X3.5Y-35.62
X6.5Y-10.0
X8.0Y-13.5
X10.0Y-10.0
X11.46Y-3.0
X16.54Y-3.0
X35.46Y-47.0
X40.54Y-47.0
X51.46Y-3.0
X56.54Y-3.0
X61.0Y-15.0
X61.0Y-17.54
X61.0Y-20.08
X63.54Y-15.0
X63.54Y-17.54
X63.54Y-20.08
M30
