M48
; DRILL file KiCad 10.0.3 date 2026-07-10T14:46:15
; FORMAT={-:-/ absolute / metric / decimal}
; #@! TF.CreationDate,2026-07-10T14:46:15-05:00
; #@! TF.GenerationSoftware,Kicad,Pcbnew,10.0.3
; #@! TF.FileFunction,Plated,1,2,PTH
FMAT,2
METRIC
; #@! TA.AperFunction,Plated,PTH,ViaDrill
T1C0.320
; #@! TA.AperFunction,Plated,PTH,ViaDrill
T2C0.350
; #@! TA.AperFunction,Plated,PTH,ComponentDrill
T3C0.600
; #@! TA.AperFunction,Plated,PTH,ComponentDrill
T4C0.800
; #@! TA.AperFunction,Plated,PTH,ComponentDrill
T5C1.000
; #@! TA.AperFunction,Plated,PTH,ComponentDrill
T6C1.300
%
G90
G05
T1
X43.4Y-39.25
X43.4Y-40.75
X44.6Y-39.25
X44.6Y-40.75
T2
X3.75Y-25.75
X3.75Y-44.25
X4.0Y-21.0
X4.5Y-39.25
X6.0Y-6.0
X6.0Y-18.0
X6.0Y-21.0
X6.0Y-30.0
X6.5Y-39.25
X9.75Y-25.75
X9.75Y-44.25
X12.0Y-12.0
X12.0Y-18.0
X12.5Y-38.5
X13.75Y-10.25
X14.75Y-40.75
X15.25Y-9.5
X18.0Y-6.0
X18.0Y-18.0
X18.0Y-24.0
X18.5Y-41.25
X18.5Y-43.5
X20.25Y-17.5
X21.25Y-48.75
X22.0Y-37.5
X22.75Y-17.5
X22.75Y-24.25
X22.75Y-43.0
X23.75Y-12.25
X24.0Y-24.0
X24.5Y-22.5
X27.0Y-18.25
X28.0Y-26.5
X28.0Y-32.5
X29.25Y-28.0
X29.25Y-31.25
X30.0Y-43.25
X30.9Y-27.73
X31.75Y-11.25
X31.75Y-17.0
X32.0Y-21.0
X32.75Y-32.75
X33.0Y-14.5
X33.0Y-26.25
X33.5Y-37.75
X34.75Y-36.75
X35.5Y-33.0
X36.0Y-12.0
X36.25Y-24.0
X36.5Y-31.25
X37.6Y-30.27
X37.75Y-26.75
X38.0Y-42.75
X38.2Y-35.6
X39.75Y-24.0
X39.75Y-37.25
X40.0Y-32.0
X41.25Y-21.0
X41.5Y-33.75
X41.5Y-37.0
X41.5Y-39.25
X42.0Y-12.0
X42.0Y-24.0
X42.25Y-33.75
X42.25Y-35.0
X42.75Y-38.0
X43.5Y-16.5
X44.5Y-32.0
X44.75Y-36.0
X46.0Y-40.75
X47.75Y-39.25
X48.0Y-12.0
X48.5Y-43.25
X49.25Y-39.0
X49.5Y-24.75
X49.5Y-26.0
X49.5Y-27.25
X49.5Y-28.5
X49.75Y-22.25
X50.0Y-19.75
X50.75Y-46.0
X51.25Y-7.0
X51.5Y-17.75
X51.75Y-21.0
X52.0Y-37.5
X53.5Y-38.75
X54.0Y-12.0
X54.0Y-42.0
X54.25Y-41.0
X54.5Y-14.25
X56.0Y-15.5
X59.25Y-23.25
X59.25Y-24.75
X59.25Y-26.0
X59.25Y-27.25
X59.25Y-28.5
X60.0Y-6.0
X60.0Y-24.0
X60.0Y-30.0
X60.0Y-36.0
X62.25Y-46.5
X62.5Y-12.25
X66.0Y-6.0
X66.0Y-24.0
X66.0Y-30.0
X66.0Y-36.0
X66.0Y-42.0
T3
X55.5Y-34.5
X57.5Y-34.5
T4
X55.25Y-43.0
X58.75Y-43.0
T5
X3.5Y-28.0
X3.5Y-30.54
X3.5Y-33.08
X3.5Y-35.62
X11.46Y-3.0
X16.54Y-3.0
X35.46Y-47.0
X40.54Y-47.0
X51.46Y-3.0
X56.54Y-3.0
X61.0Y-15.0
X61.0Y-17.54
X61.0Y-20.08
X63.54Y-15.0
X63.54Y-17.54
X63.54Y-20.08
T6
X6.5Y-10.0
X8.2Y-13.3
X9.9Y-10.0
M30
