%TF.GenerationSoftware,KiCad,Pcbnew,10.0.3*%
%TF.CreationDate,2026-07-10T14:46:15-05:00*%
%TF.ProjectId,co2_timer_v5,636f325f-7469-46d6-9572-5f76352e6b69,5.0*%
%TF.SameCoordinates,Original*%
%TF.FileFunction,Legend,Top*%
%TF.FilePolarity,Positive*%
%FSLAX46Y46*%
G04 Gerber Fmt 4.6, Leading zero omitted, Abs format (unit mm)*
G04 Created by KiCad (PCBNEW 10.0.3) date 2026-07-10 14:46:15*
%MOMM*%
%LPD*%
G01*
G04 APERTURE LIST*
G04 Aperture macros list*
%AMRoundRect*
0 Rectangle with rounded corners*
0 $1 Rounding radius*
0 $2 $3 $4 $5 $6 $7 $8 $9 X,Y pos of 4 corners*
0 Add a 4 corners polygon primitive as box body*
4,1,4,$2,$3,$4,$5,$6,$7,$8,$9,$2,$3,0*
0 Add four circle primitives for the rounded corners*
1,1,$1+$1,$2,$3*
1,1,$1+$1,$4,$5*
1,1,$1+$1,$6,$7*
1,1,$1+$1,$8,$9*
0 Add four rect primitives between the rounded corners*
20,1,$1+$1,$2,$3,$4,$5,0*
20,1,$1+$1,$4,$5,$6,$7,0*
20,1,$1+$1,$6,$7,$8,$9,0*
20,1,$1+$1,$8,$9,$2,$3,0*%
G04 Aperture macros list end*
%ADD10C,0.150000*%
%ADD11C,0.120000*%
%ADD12C,0.250000*%
%ADD13C,0.300000*%
%ADD14C,0.200000*%
%ADD15C,3.400000*%
%ADD16RoundRect,0.100000X-0.900000X-0.900000X0.900000X-0.900000X0.900000X0.900000X-0.900000X0.900000X0*%
%ADD17C,2.000000*%
%ADD18RoundRect,0.100000X-1.000000X-1.000000X1.000000X-1.000000X1.000000X1.000000X-1.000000X1.000000X0*%
%ADD19C,2.200000*%
%ADD20RoundRect,0.100000X-0.850000X-0.850000X0.850000X-0.850000X0.850000X0.850000X-0.850000X0.850000X0*%
%ADD21C,1.900000*%
%ADD22RoundRect,0.100000X-1.200000X-0.800000X1.200000X-0.800000X1.200000X0.800000X-1.200000X0.800000X0*%
%ADD23RoundRect,0.100000X-0.800000X-1.200000X0.800000X-1.200000X0.800000X1.200000X-0.800000X1.200000X0*%
%ADD24RoundRect,0.100000X-0.900000X-1.300000X0.900000X-1.300000X0.900000X1.300000X-0.900000X1.300000X0*%
%ADD25RoundRect,0.100000X-0.450000X-0.650000X0.450000X-0.650000X0.450000X0.650000X-0.450000X0.650000X0*%
%ADD26RoundRect,0.100000X-0.575000X-0.725000X0.575000X-0.725000X0.575000X0.725000X-0.575000X0.725000X0*%
%ADD27RoundRect,0.100000X-0.975000X-0.300000X0.975000X-0.300000X0.975000X0.300000X-0.975000X0.300000X0*%
%ADD28RoundRect,0.100000X-0.400000X-0.475000X0.400000X-0.475000X0.400000X0.475000X-0.400000X0.475000X0*%
%ADD29RoundRect,0.100000X-1.000000X-0.300000X1.000000X-0.300000X1.000000X0.300000X-1.000000X0.300000X0*%
%ADD30RoundRect,0.100000X-0.650000X-0.450000X0.650000X-0.450000X0.650000X0.450000X-0.650000X0.450000X0*%
%ADD31RoundRect,0.100000X-0.650000X-0.650000X0.650000X-0.650000X0.650000X0.650000X-0.650000X0.650000X0*%
%ADD32C,1.500000*%
%ADD33RoundRect,0.100000X-0.800000X-0.800000X0.800000X-0.800000X0.800000X0.800000X-0.800000X0.800000X0*%
%ADD34C,1.800000*%
%ADD35RoundRect,0.100000X-1.205000X-1.550000X1.205000X-1.550000X1.205000X1.550000X-1.205000X1.550000X0*%
%ADD36RoundRect,0.100000X-0.575000X-0.900000X0.575000X-0.900000X0.575000X0.900000X-0.575000X0.900000X0*%
%ADD37RoundRect,0.100000X-0.475000X-0.400000X0.475000X-0.400000X0.475000X0.400000X-0.475000X0.400000X0*%
%ADD38RoundRect,0.100000X-0.500000X-0.140000X0.500000X-0.140000X0.500000X0.140000X-0.500000X0.140000X0*%
%ADD39RoundRect,0.100000X-0.800000X-0.550000X0.800000X-0.550000X0.800000X0.550000X-0.800000X0.550000X0*%
%ADD40C,1.700000*%
G04 APERTURE END LIST*
D10*
X4871429Y-45862295D02*
X4871429Y-46509914D01*
X4871429Y-46509914D02*
X4909524Y-46586104D01*
X4909524Y-46586104D02*
X4947619Y-46624200D01*
X4947619Y-46624200D02*
X5023810Y-46662295D01*
X5023810Y-46662295D02*
X5176191Y-46662295D01*
X5176191Y-46662295D02*
X5252381Y-46624200D01*
X5252381Y-46624200D02*
X5290476Y-46586104D01*
X5290476Y-46586104D02*
X5328572Y-46509914D01*
X5328572Y-46509914D02*
X5328572Y-45862295D01*
X5709524Y-46662295D02*
X5709524Y-45862295D01*
X5709524Y-45862295D02*
X6014286Y-45862295D01*
X6014286Y-45862295D02*
X6090476Y-45900390D01*
X6090476Y-45900390D02*
X6128571Y-45938485D01*
X6128571Y-45938485D02*
X6166667Y-46014676D01*
X6166667Y-46014676D02*
X6166667Y-46128961D01*
X6166667Y-46128961D02*
X6128571Y-46205152D01*
X6128571Y-46205152D02*
X6090476Y-46243247D01*
X6090476Y-46243247D02*
X6014286Y-46281342D01*
X6014286Y-46281342D02*
X5709524Y-46281342D01*
X5304761Y-28224200D02*
X5419047Y-28262295D01*
X5419047Y-28262295D02*
X5609523Y-28262295D01*
X5609523Y-28262295D02*
X5685714Y-28224200D01*
X5685714Y-28224200D02*
X5723809Y-28186104D01*
X5723809Y-28186104D02*
X5761904Y-28109914D01*
X5761904Y-28109914D02*
X5761904Y-28033723D01*
X5761904Y-28033723D02*
X5723809Y-27957533D01*
X5723809Y-27957533D02*
X5685714Y-27919438D01*
X5685714Y-27919438D02*
X5609523Y-27881342D01*
X5609523Y-27881342D02*
X5457142Y-27843247D01*
X5457142Y-27843247D02*
X5380952Y-27805152D01*
X5380952Y-27805152D02*
X5342857Y-27767057D01*
X5342857Y-27767057D02*
X5304761Y-27690866D01*
X5304761Y-27690866D02*
X5304761Y-27614676D01*
X5304761Y-27614676D02*
X5342857Y-27538485D01*
X5342857Y-27538485D02*
X5380952Y-27500390D01*
X5380952Y-27500390D02*
X5457142Y-27462295D01*
X5457142Y-27462295D02*
X5647619Y-27462295D01*
X5647619Y-27462295D02*
X5761904Y-27500390D01*
X6104762Y-27843247D02*
X6371428Y-27843247D01*
X6485714Y-28262295D02*
X6104762Y-28262295D01*
X6104762Y-28262295D02*
X6104762Y-27462295D01*
X6104762Y-27462295D02*
X6485714Y-27462295D01*
X6714286Y-27462295D02*
X7171429Y-27462295D01*
X6942857Y-28262295D02*
X6942857Y-27462295D01*
X5142857Y-4862295D02*
X5295238Y-4862295D01*
X5295238Y-4862295D02*
X5371428Y-4824200D01*
X5371428Y-4824200D02*
X5409524Y-4786104D01*
X5409524Y-4786104D02*
X5485714Y-4671819D01*
X5485714Y-4671819D02*
X5523809Y-4519438D01*
X5523809Y-4519438D02*
X5523809Y-4214676D01*
X5523809Y-4214676D02*
X5485714Y-4138485D01*
X5485714Y-4138485D02*
X5447619Y-4100390D01*
X5447619Y-4100390D02*
X5371428Y-4062295D01*
X5371428Y-4062295D02*
X5219047Y-4062295D01*
X5219047Y-4062295D02*
X5142857Y-4100390D01*
X5142857Y-4100390D02*
X5104762Y-4138485D01*
X5104762Y-4138485D02*
X5066666Y-4214676D01*
X5066666Y-4214676D02*
X5066666Y-4405152D01*
X5066666Y-4405152D02*
X5104762Y-4481342D01*
X5104762Y-4481342D02*
X5142857Y-4519438D01*
X5142857Y-4519438D02*
X5219047Y-4557533D01*
X5219047Y-4557533D02*
X5371428Y-4557533D01*
X5371428Y-4557533D02*
X5447619Y-4519438D01*
X5447619Y-4519438D02*
X5485714Y-4481342D01*
X5485714Y-4481342D02*
X5523809Y-4405152D01*
X5866667Y-4557533D02*
X6476191Y-4557533D01*
X7276190Y-4862295D02*
X6819047Y-4862295D01*
X7047619Y-4862295D02*
X7047619Y-4062295D01*
X7047619Y-4062295D02*
X6971428Y-4176580D01*
X6971428Y-4176580D02*
X6895238Y-4252771D01*
X6895238Y-4252771D02*
X6819047Y-4290866D01*
X7580952Y-4138485D02*
X7619048Y-4100390D01*
X7619048Y-4100390D02*
X7695238Y-4062295D01*
X7695238Y-4062295D02*
X7885714Y-4062295D01*
X7885714Y-4062295D02*
X7961905Y-4100390D01*
X7961905Y-4100390D02*
X8000000Y-4138485D01*
X8000000Y-4138485D02*
X8038095Y-4214676D01*
X8038095Y-4214676D02*
X8038095Y-4290866D01*
X8038095Y-4290866D02*
X8000000Y-4405152D01*
X8000000Y-4405152D02*
X7542857Y-4862295D01*
X7542857Y-4862295D02*
X8038095Y-4862295D01*
X8266667Y-4062295D02*
X8533334Y-4862295D01*
X8533334Y-4862295D02*
X8800000Y-4062295D01*
X9676191Y-4862295D02*
X9676191Y-4062295D01*
X9676191Y-4062295D02*
X9866667Y-4062295D01*
X9866667Y-4062295D02*
X9980953Y-4100390D01*
X9980953Y-4100390D02*
X10057143Y-4176580D01*
X10057143Y-4176580D02*
X10095238Y-4252771D01*
X10095238Y-4252771D02*
X10133334Y-4405152D01*
X10133334Y-4405152D02*
X10133334Y-4519438D01*
X10133334Y-4519438D02*
X10095238Y-4671819D01*
X10095238Y-4671819D02*
X10057143Y-4748009D01*
X10057143Y-4748009D02*
X9980953Y-4824200D01*
X9980953Y-4824200D02*
X9866667Y-4862295D01*
X9866667Y-4862295D02*
X9676191Y-4862295D01*
X10933334Y-4786104D02*
X10895238Y-4824200D01*
X10895238Y-4824200D02*
X10780953Y-4862295D01*
X10780953Y-4862295D02*
X10704762Y-4862295D01*
X10704762Y-4862295D02*
X10590476Y-4824200D01*
X10590476Y-4824200D02*
X10514286Y-4748009D01*
X10514286Y-4748009D02*
X10476191Y-4671819D01*
X10476191Y-4671819D02*
X10438095Y-4519438D01*
X10438095Y-4519438D02*
X10438095Y-4405152D01*
X10438095Y-4405152D02*
X10476191Y-4252771D01*
X10476191Y-4252771D02*
X10514286Y-4176580D01*
X10514286Y-4176580D02*
X10590476Y-4100390D01*
X10590476Y-4100390D02*
X10704762Y-4062295D01*
X10704762Y-4062295D02*
X10780953Y-4062295D01*
X10780953Y-4062295D02*
X10895238Y-4100390D01*
X10895238Y-4100390D02*
X10933334Y-4138485D01*
X11155238Y-5557533D02*
X11764762Y-5557533D01*
X11460000Y-5862295D02*
X11460000Y-5252771D01*
X16235238Y-5557533D02*
X16844762Y-5557533D01*
X35155238Y-45957533D02*
X35764762Y-45957533D01*
X35460000Y-46262295D02*
X35460000Y-45652771D01*
X35238095Y-45224200D02*
X35352381Y-45262295D01*
X35352381Y-45262295D02*
X35542857Y-45262295D01*
X35542857Y-45262295D02*
X35619048Y-45224200D01*
X35619048Y-45224200D02*
X35657143Y-45186104D01*
X35657143Y-45186104D02*
X35695238Y-45109914D01*
X35695238Y-45109914D02*
X35695238Y-45033723D01*
X35695238Y-45033723D02*
X35657143Y-44957533D01*
X35657143Y-44957533D02*
X35619048Y-44919438D01*
X35619048Y-44919438D02*
X35542857Y-44881342D01*
X35542857Y-44881342D02*
X35390476Y-44843247D01*
X35390476Y-44843247D02*
X35314286Y-44805152D01*
X35314286Y-44805152D02*
X35276191Y-44767057D01*
X35276191Y-44767057D02*
X35238095Y-44690866D01*
X35238095Y-44690866D02*
X35238095Y-44614676D01*
X35238095Y-44614676D02*
X35276191Y-44538485D01*
X35276191Y-44538485D02*
X35314286Y-44500390D01*
X35314286Y-44500390D02*
X35390476Y-44462295D01*
X35390476Y-44462295D02*
X35580953Y-44462295D01*
X35580953Y-44462295D02*
X35695238Y-44500390D01*
X36190477Y-44462295D02*
X36342858Y-44462295D01*
X36342858Y-44462295D02*
X36419048Y-44500390D01*
X36419048Y-44500390D02*
X36495239Y-44576580D01*
X36495239Y-44576580D02*
X36533334Y-44728961D01*
X36533334Y-44728961D02*
X36533334Y-44995628D01*
X36533334Y-44995628D02*
X36495239Y-45148009D01*
X36495239Y-45148009D02*
X36419048Y-45224200D01*
X36419048Y-45224200D02*
X36342858Y-45262295D01*
X36342858Y-45262295D02*
X36190477Y-45262295D01*
X36190477Y-45262295D02*
X36114286Y-45224200D01*
X36114286Y-45224200D02*
X36038096Y-45148009D01*
X36038096Y-45148009D02*
X36000000Y-44995628D01*
X36000000Y-44995628D02*
X36000000Y-44728961D01*
X36000000Y-44728961D02*
X36038096Y-44576580D01*
X36038096Y-44576580D02*
X36114286Y-44500390D01*
X36114286Y-44500390D02*
X36190477Y-44462295D01*
X37257143Y-45262295D02*
X36876191Y-45262295D01*
X36876191Y-45262295D02*
X36876191Y-44462295D01*
X37523810Y-44843247D02*
X37790476Y-44843247D01*
X37904762Y-45262295D02*
X37523810Y-45262295D01*
X37523810Y-45262295D02*
X37523810Y-44462295D01*
X37523810Y-44462295D02*
X37904762Y-44462295D01*
X38247620Y-45262295D02*
X38247620Y-44462295D01*
X38247620Y-44462295D02*
X38704763Y-45262295D01*
X38704763Y-45262295D02*
X38704763Y-44462295D01*
X39238096Y-44462295D02*
X39390477Y-44462295D01*
X39390477Y-44462295D02*
X39466667Y-44500390D01*
X39466667Y-44500390D02*
X39542858Y-44576580D01*
X39542858Y-44576580D02*
X39580953Y-44728961D01*
X39580953Y-44728961D02*
X39580953Y-44995628D01*
X39580953Y-44995628D02*
X39542858Y-45148009D01*
X39542858Y-45148009D02*
X39466667Y-45224200D01*
X39466667Y-45224200D02*
X39390477Y-45262295D01*
X39390477Y-45262295D02*
X39238096Y-45262295D01*
X39238096Y-45262295D02*
X39161905Y-45224200D01*
X39161905Y-45224200D02*
X39085715Y-45148009D01*
X39085715Y-45148009D02*
X39047619Y-44995628D01*
X39047619Y-44995628D02*
X39047619Y-44728961D01*
X39047619Y-44728961D02*
X39085715Y-44576580D01*
X39085715Y-44576580D02*
X39161905Y-44500390D01*
X39161905Y-44500390D02*
X39238096Y-44462295D01*
X39923810Y-45262295D02*
X39923810Y-44462295D01*
X40304762Y-45262295D02*
X40304762Y-44462295D01*
X40304762Y-44462295D02*
X40495238Y-44462295D01*
X40495238Y-44462295D02*
X40609524Y-44500390D01*
X40609524Y-44500390D02*
X40685714Y-44576580D01*
X40685714Y-44576580D02*
X40723809Y-44652771D01*
X40723809Y-44652771D02*
X40761905Y-44805152D01*
X40761905Y-44805152D02*
X40761905Y-44919438D01*
X40761905Y-44919438D02*
X40723809Y-45071819D01*
X40723809Y-45071819D02*
X40685714Y-45148009D01*
X40685714Y-45148009D02*
X40609524Y-45224200D01*
X40609524Y-45224200D02*
X40495238Y-45262295D01*
X40495238Y-45262295D02*
X40304762Y-45262295D01*
X40235238Y-45957533D02*
X40844762Y-45957533D01*
X51155238Y-5557533D02*
X51764762Y-5557533D01*
X51460000Y-5862295D02*
X51460000Y-5252771D01*
X56235238Y-5557533D02*
X56844762Y-5557533D01*
X58019048Y-17862295D02*
X58019048Y-17062295D01*
X58361904Y-17824200D02*
X58476190Y-17862295D01*
X58476190Y-17862295D02*
X58666666Y-17862295D01*
X58666666Y-17862295D02*
X58742857Y-17824200D01*
X58742857Y-17824200D02*
X58780952Y-17786104D01*
X58780952Y-17786104D02*
X58819047Y-17709914D01*
X58819047Y-17709914D02*
X58819047Y-17633723D01*
X58819047Y-17633723D02*
X58780952Y-17557533D01*
X58780952Y-17557533D02*
X58742857Y-17519438D01*
X58742857Y-17519438D02*
X58666666Y-17481342D01*
X58666666Y-17481342D02*
X58514285Y-17443247D01*
X58514285Y-17443247D02*
X58438095Y-17405152D01*
X58438095Y-17405152D02*
X58400000Y-17367057D01*
X58400000Y-17367057D02*
X58361904Y-17290866D01*
X58361904Y-17290866D02*
X58361904Y-17214676D01*
X58361904Y-17214676D02*
X58400000Y-17138485D01*
X58400000Y-17138485D02*
X58438095Y-17100390D01*
X58438095Y-17100390D02*
X58514285Y-17062295D01*
X58514285Y-17062295D02*
X58704762Y-17062295D01*
X58704762Y-17062295D02*
X58819047Y-17100390D01*
X59161905Y-17862295D02*
X59161905Y-17062295D01*
X59161905Y-17062295D02*
X59466667Y-17062295D01*
X59466667Y-17062295D02*
X59542857Y-17100390D01*
X59542857Y-17100390D02*
X59580952Y-17138485D01*
X59580952Y-17138485D02*
X59619048Y-17214676D01*
X59619048Y-17214676D02*
X59619048Y-17328961D01*
X59619048Y-17328961D02*
X59580952Y-17405152D01*
X59580952Y-17405152D02*
X59542857Y-17443247D01*
X59542857Y-17443247D02*
X59466667Y-17481342D01*
X59466667Y-17481342D02*
X59161905Y-17481342D01*
X1862295Y-32690475D02*
X1062295Y-32690475D01*
X1062295Y-32690475D02*
X1062295Y-32499999D01*
X1062295Y-32499999D02*
X1100390Y-32385713D01*
X1100390Y-32385713D02*
X1176580Y-32309523D01*
X1176580Y-32309523D02*
X1252771Y-32271428D01*
X1252771Y-32271428D02*
X1405152Y-32233332D01*
X1405152Y-32233332D02*
X1519438Y-32233332D01*
X1519438Y-32233332D02*
X1671819Y-32271428D01*
X1671819Y-32271428D02*
X1748009Y-32309523D01*
X1748009Y-32309523D02*
X1824200Y-32385713D01*
X1824200Y-32385713D02*
X1862295Y-32499999D01*
X1862295Y-32499999D02*
X1862295Y-32690475D01*
X1862295Y-31890475D02*
X1062295Y-31890475D01*
X1824200Y-31547619D02*
X1862295Y-31433333D01*
X1862295Y-31433333D02*
X1862295Y-31242857D01*
X1862295Y-31242857D02*
X1824200Y-31166666D01*
X1824200Y-31166666D02*
X1786104Y-31128571D01*
X1786104Y-31128571D02*
X1709914Y-31090476D01*
X1709914Y-31090476D02*
X1633723Y-31090476D01*
X1633723Y-31090476D02*
X1557533Y-31128571D01*
X1557533Y-31128571D02*
X1519438Y-31166666D01*
X1519438Y-31166666D02*
X1481342Y-31242857D01*
X1481342Y-31242857D02*
X1443247Y-31395238D01*
X1443247Y-31395238D02*
X1405152Y-31471428D01*
X1405152Y-31471428D02*
X1367057Y-31509523D01*
X1367057Y-31509523D02*
X1290866Y-31547619D01*
X1290866Y-31547619D02*
X1214676Y-31547619D01*
X1214676Y-31547619D02*
X1138485Y-31509523D01*
X1138485Y-31509523D02*
X1100390Y-31471428D01*
X1100390Y-31471428D02*
X1062295Y-31395238D01*
X1062295Y-31395238D02*
X1062295Y-31204761D01*
X1062295Y-31204761D02*
X1100390Y-31090476D01*
X1862295Y-30747618D02*
X1062295Y-30747618D01*
X1062295Y-30747618D02*
X1062295Y-30442856D01*
X1062295Y-30442856D02*
X1100390Y-30366666D01*
X1100390Y-30366666D02*
X1138485Y-30328571D01*
X1138485Y-30328571D02*
X1214676Y-30290475D01*
X1214676Y-30290475D02*
X1328961Y-30290475D01*
X1328961Y-30290475D02*
X1405152Y-30328571D01*
X1405152Y-30328571D02*
X1443247Y-30366666D01*
X1443247Y-30366666D02*
X1481342Y-30442856D01*
X1481342Y-30442856D02*
X1481342Y-30747618D01*
X1862295Y-29566666D02*
X1862295Y-29947618D01*
X1862295Y-29947618D02*
X1062295Y-29947618D01*
X1633723Y-29338095D02*
X1633723Y-28957142D01*
X1862295Y-29414285D02*
X1062295Y-29147618D01*
X1062295Y-29147618D02*
X1862295Y-28880952D01*
X1481342Y-28461904D02*
X1862295Y-28461904D01*
X1062295Y-28728571D02*
X1481342Y-28461904D01*
X1481342Y-28461904D02*
X1062295Y-28195238D01*
X12907142Y-5537128D02*
X13035714Y-5579985D01*
X13035714Y-5579985D02*
X13078571Y-5622842D01*
X13078571Y-5622842D02*
X13121428Y-5708557D01*
X13121428Y-5708557D02*
X13121428Y-5837128D01*
X13121428Y-5837128D02*
X13078571Y-5922842D01*
X13078571Y-5922842D02*
X13035714Y-5965700D01*
X13035714Y-5965700D02*
X12949999Y-6008557D01*
X12949999Y-6008557D02*
X12607142Y-6008557D01*
X12607142Y-6008557D02*
X12607142Y-5108557D01*
X12607142Y-5108557D02*
X12907142Y-5108557D01*
X12907142Y-5108557D02*
X12992857Y-5151414D01*
X12992857Y-5151414D02*
X13035714Y-5194271D01*
X13035714Y-5194271D02*
X13078571Y-5279985D01*
X13078571Y-5279985D02*
X13078571Y-5365700D01*
X13078571Y-5365700D02*
X13035714Y-5451414D01*
X13035714Y-5451414D02*
X12992857Y-5494271D01*
X12992857Y-5494271D02*
X12907142Y-5537128D01*
X12907142Y-5537128D02*
X12607142Y-5537128D01*
X13464285Y-5751414D02*
X13892857Y-5751414D01*
X13378571Y-6008557D02*
X13678571Y-5108557D01*
X13678571Y-5108557D02*
X13978571Y-6008557D01*
X14150000Y-5108557D02*
X14664286Y-5108557D01*
X14407143Y-6008557D02*
X14407143Y-5108557D01*
X15435714Y-6008557D02*
X14921428Y-6008557D01*
X15178571Y-6008557D02*
X15178571Y-5108557D01*
X15178571Y-5108557D02*
X15092857Y-5237128D01*
X15092857Y-5237128D02*
X15007142Y-5322842D01*
X15007142Y-5322842D02*
X14921428Y-5365700D01*
X26857142Y-1051414D02*
X26771428Y-1008557D01*
X26771428Y-1008557D02*
X26642856Y-1008557D01*
X26642856Y-1008557D02*
X26514285Y-1051414D01*
X26514285Y-1051414D02*
X26428570Y-1137128D01*
X26428570Y-1137128D02*
X26385713Y-1222842D01*
X26385713Y-1222842D02*
X26342856Y-1394271D01*
X26342856Y-1394271D02*
X26342856Y-1522842D01*
X26342856Y-1522842D02*
X26385713Y-1694271D01*
X26385713Y-1694271D02*
X26428570Y-1779985D01*
X26428570Y-1779985D02*
X26514285Y-1865700D01*
X26514285Y-1865700D02*
X26642856Y-1908557D01*
X26642856Y-1908557D02*
X26728570Y-1908557D01*
X26728570Y-1908557D02*
X26857142Y-1865700D01*
X26857142Y-1865700D02*
X26899999Y-1822842D01*
X26899999Y-1822842D02*
X26899999Y-1522842D01*
X26899999Y-1522842D02*
X26728570Y-1522842D01*
X27285713Y-1908557D02*
X27285713Y-1308557D01*
X27285713Y-1479985D02*
X27328570Y-1394271D01*
X27328570Y-1394271D02*
X27371428Y-1351414D01*
X27371428Y-1351414D02*
X27457142Y-1308557D01*
X27457142Y-1308557D02*
X27542856Y-1308557D01*
X28185713Y-1865700D02*
X28099999Y-1908557D01*
X28099999Y-1908557D02*
X27928571Y-1908557D01*
X27928571Y-1908557D02*
X27842856Y-1865700D01*
X27842856Y-1865700D02*
X27799999Y-1779985D01*
X27799999Y-1779985D02*
X27799999Y-1437128D01*
X27799999Y-1437128D02*
X27842856Y-1351414D01*
X27842856Y-1351414D02*
X27928571Y-1308557D01*
X27928571Y-1308557D02*
X28099999Y-1308557D01*
X28099999Y-1308557D02*
X28185713Y-1351414D01*
X28185713Y-1351414D02*
X28228571Y-1437128D01*
X28228571Y-1437128D02*
X28228571Y-1522842D01*
X28228571Y-1522842D02*
X27799999Y-1608557D01*
X28957142Y-1865700D02*
X28871428Y-1908557D01*
X28871428Y-1908557D02*
X28700000Y-1908557D01*
X28700000Y-1908557D02*
X28614285Y-1865700D01*
X28614285Y-1865700D02*
X28571428Y-1779985D01*
X28571428Y-1779985D02*
X28571428Y-1437128D01*
X28571428Y-1437128D02*
X28614285Y-1351414D01*
X28614285Y-1351414D02*
X28700000Y-1308557D01*
X28700000Y-1308557D02*
X28871428Y-1308557D01*
X28871428Y-1308557D02*
X28957142Y-1351414D01*
X28957142Y-1351414D02*
X29000000Y-1437128D01*
X29000000Y-1437128D02*
X29000000Y-1522842D01*
X29000000Y-1522842D02*
X28571428Y-1608557D01*
X29385714Y-1308557D02*
X29385714Y-1908557D01*
X29385714Y-1394271D02*
X29428571Y-1351414D01*
X29428571Y-1351414D02*
X29514286Y-1308557D01*
X29514286Y-1308557D02*
X29642857Y-1308557D01*
X29642857Y-1308557D02*
X29728571Y-1351414D01*
X29728571Y-1351414D02*
X29771429Y-1437128D01*
X29771429Y-1437128D02*
X29771429Y-1908557D01*
X30671429Y-1051414D02*
X30585715Y-1008557D01*
X30585715Y-1008557D02*
X30457143Y-1008557D01*
X30457143Y-1008557D02*
X30328572Y-1051414D01*
X30328572Y-1051414D02*
X30242857Y-1137128D01*
X30242857Y-1137128D02*
X30200000Y-1222842D01*
X30200000Y-1222842D02*
X30157143Y-1394271D01*
X30157143Y-1394271D02*
X30157143Y-1522842D01*
X30157143Y-1522842D02*
X30200000Y-1694271D01*
X30200000Y-1694271D02*
X30242857Y-1779985D01*
X30242857Y-1779985D02*
X30328572Y-1865700D01*
X30328572Y-1865700D02*
X30457143Y-1908557D01*
X30457143Y-1908557D02*
X30542857Y-1908557D01*
X30542857Y-1908557D02*
X30671429Y-1865700D01*
X30671429Y-1865700D02*
X30714286Y-1822842D01*
X30714286Y-1822842D02*
X30714286Y-1522842D01*
X30714286Y-1522842D02*
X30542857Y-1522842D01*
X31485715Y-1308557D02*
X31485715Y-1908557D01*
X31100000Y-1308557D02*
X31100000Y-1779985D01*
X31100000Y-1779985D02*
X31142857Y-1865700D01*
X31142857Y-1865700D02*
X31228572Y-1908557D01*
X31228572Y-1908557D02*
X31357143Y-1908557D01*
X31357143Y-1908557D02*
X31442857Y-1865700D01*
X31442857Y-1865700D02*
X31485715Y-1822842D01*
X32300001Y-1908557D02*
X32300001Y-1437128D01*
X32300001Y-1437128D02*
X32257143Y-1351414D01*
X32257143Y-1351414D02*
X32171429Y-1308557D01*
X32171429Y-1308557D02*
X32000001Y-1308557D01*
X32000001Y-1308557D02*
X31914286Y-1351414D01*
X32300001Y-1865700D02*
X32214286Y-1908557D01*
X32214286Y-1908557D02*
X32000001Y-1908557D01*
X32000001Y-1908557D02*
X31914286Y-1865700D01*
X31914286Y-1865700D02*
X31871429Y-1779985D01*
X31871429Y-1779985D02*
X31871429Y-1694271D01*
X31871429Y-1694271D02*
X31914286Y-1608557D01*
X31914286Y-1608557D02*
X32000001Y-1565700D01*
X32000001Y-1565700D02*
X32214286Y-1565700D01*
X32214286Y-1565700D02*
X32300001Y-1522842D01*
X32728572Y-1908557D02*
X32728572Y-1308557D01*
X32728572Y-1479985D02*
X32771429Y-1394271D01*
X32771429Y-1394271D02*
X32814287Y-1351414D01*
X32814287Y-1351414D02*
X32900001Y-1308557D01*
X32900001Y-1308557D02*
X32985715Y-1308557D01*
X33671430Y-1908557D02*
X33671430Y-1008557D01*
X33671430Y-1865700D02*
X33585715Y-1908557D01*
X33585715Y-1908557D02*
X33414287Y-1908557D01*
X33414287Y-1908557D02*
X33328572Y-1865700D01*
X33328572Y-1865700D02*
X33285715Y-1822842D01*
X33285715Y-1822842D02*
X33242858Y-1737128D01*
X33242858Y-1737128D02*
X33242858Y-1479985D01*
X33242858Y-1479985D02*
X33285715Y-1394271D01*
X33285715Y-1394271D02*
X33328572Y-1351414D01*
X33328572Y-1351414D02*
X33414287Y-1308557D01*
X33414287Y-1308557D02*
X33585715Y-1308557D01*
X33585715Y-1308557D02*
X33671430Y-1351414D01*
X35300001Y-1822842D02*
X35257144Y-1865700D01*
X35257144Y-1865700D02*
X35128572Y-1908557D01*
X35128572Y-1908557D02*
X35042858Y-1908557D01*
X35042858Y-1908557D02*
X34914287Y-1865700D01*
X34914287Y-1865700D02*
X34828572Y-1779985D01*
X34828572Y-1779985D02*
X34785715Y-1694271D01*
X34785715Y-1694271D02*
X34742858Y-1522842D01*
X34742858Y-1522842D02*
X34742858Y-1394271D01*
X34742858Y-1394271D02*
X34785715Y-1222842D01*
X34785715Y-1222842D02*
X34828572Y-1137128D01*
X34828572Y-1137128D02*
X34914287Y-1051414D01*
X34914287Y-1051414D02*
X35042858Y-1008557D01*
X35042858Y-1008557D02*
X35128572Y-1008557D01*
X35128572Y-1008557D02*
X35257144Y-1051414D01*
X35257144Y-1051414D02*
X35300001Y-1094271D01*
X35857144Y-1008557D02*
X36028572Y-1008557D01*
X36028572Y-1008557D02*
X36114287Y-1051414D01*
X36114287Y-1051414D02*
X36200001Y-1137128D01*
X36200001Y-1137128D02*
X36242858Y-1308557D01*
X36242858Y-1308557D02*
X36242858Y-1608557D01*
X36242858Y-1608557D02*
X36200001Y-1779985D01*
X36200001Y-1779985D02*
X36114287Y-1865700D01*
X36114287Y-1865700D02*
X36028572Y-1908557D01*
X36028572Y-1908557D02*
X35857144Y-1908557D01*
X35857144Y-1908557D02*
X35771430Y-1865700D01*
X35771430Y-1865700D02*
X35685715Y-1779985D01*
X35685715Y-1779985D02*
X35642858Y-1608557D01*
X35642858Y-1608557D02*
X35642858Y-1308557D01*
X35642858Y-1308557D02*
X35685715Y-1137128D01*
X35685715Y-1137128D02*
X35771430Y-1051414D01*
X35771430Y-1051414D02*
X35857144Y-1008557D01*
X36585715Y-1094271D02*
X36628572Y-1051414D01*
X36628572Y-1051414D02*
X36714287Y-1008557D01*
X36714287Y-1008557D02*
X36928572Y-1008557D01*
X36928572Y-1008557D02*
X37014287Y-1051414D01*
X37014287Y-1051414D02*
X37057144Y-1094271D01*
X37057144Y-1094271D02*
X37100001Y-1179985D01*
X37100001Y-1179985D02*
X37100001Y-1265700D01*
X37100001Y-1265700D02*
X37057144Y-1394271D01*
X37057144Y-1394271D02*
X36542858Y-1908557D01*
X36542858Y-1908557D02*
X37100001Y-1908557D01*
X38042858Y-1008557D02*
X38557144Y-1008557D01*
X38300001Y-1908557D02*
X38300001Y-1008557D01*
X38857143Y-1908557D02*
X38857143Y-1308557D01*
X38857143Y-1008557D02*
X38814286Y-1051414D01*
X38814286Y-1051414D02*
X38857143Y-1094271D01*
X38857143Y-1094271D02*
X38900000Y-1051414D01*
X38900000Y-1051414D02*
X38857143Y-1008557D01*
X38857143Y-1008557D02*
X38857143Y-1094271D01*
X39285714Y-1908557D02*
X39285714Y-1308557D01*
X39285714Y-1394271D02*
X39328571Y-1351414D01*
X39328571Y-1351414D02*
X39414286Y-1308557D01*
X39414286Y-1308557D02*
X39542857Y-1308557D01*
X39542857Y-1308557D02*
X39628571Y-1351414D01*
X39628571Y-1351414D02*
X39671429Y-1437128D01*
X39671429Y-1437128D02*
X39671429Y-1908557D01*
X39671429Y-1437128D02*
X39714286Y-1351414D01*
X39714286Y-1351414D02*
X39800000Y-1308557D01*
X39800000Y-1308557D02*
X39928571Y-1308557D01*
X39928571Y-1308557D02*
X40014286Y-1351414D01*
X40014286Y-1351414D02*
X40057143Y-1437128D01*
X40057143Y-1437128D02*
X40057143Y-1908557D01*
X40828571Y-1865700D02*
X40742857Y-1908557D01*
X40742857Y-1908557D02*
X40571429Y-1908557D01*
X40571429Y-1908557D02*
X40485714Y-1865700D01*
X40485714Y-1865700D02*
X40442857Y-1779985D01*
X40442857Y-1779985D02*
X40442857Y-1437128D01*
X40442857Y-1437128D02*
X40485714Y-1351414D01*
X40485714Y-1351414D02*
X40571429Y-1308557D01*
X40571429Y-1308557D02*
X40742857Y-1308557D01*
X40742857Y-1308557D02*
X40828571Y-1351414D01*
X40828571Y-1351414D02*
X40871429Y-1437128D01*
X40871429Y-1437128D02*
X40871429Y-1522842D01*
X40871429Y-1522842D02*
X40442857Y-1608557D01*
X41257143Y-1908557D02*
X41257143Y-1308557D01*
X41257143Y-1479985D02*
X41300000Y-1394271D01*
X41300000Y-1394271D02*
X41342858Y-1351414D01*
X41342858Y-1351414D02*
X41428572Y-1308557D01*
X41428572Y-1308557D02*
X41514286Y-1308557D01*
X42414286Y-1308557D02*
X42628572Y-1908557D01*
X42628572Y-1908557D02*
X42842857Y-1308557D01*
X43614286Y-1008557D02*
X43185714Y-1008557D01*
X43185714Y-1008557D02*
X43142857Y-1437128D01*
X43142857Y-1437128D02*
X43185714Y-1394271D01*
X43185714Y-1394271D02*
X43271429Y-1351414D01*
X43271429Y-1351414D02*
X43485714Y-1351414D01*
X43485714Y-1351414D02*
X43571429Y-1394271D01*
X43571429Y-1394271D02*
X43614286Y-1437128D01*
X43614286Y-1437128D02*
X43657143Y-1522842D01*
X43657143Y-1522842D02*
X43657143Y-1737128D01*
X43657143Y-1737128D02*
X43614286Y-1822842D01*
X43614286Y-1822842D02*
X43571429Y-1865700D01*
X43571429Y-1865700D02*
X43485714Y-1908557D01*
X43485714Y-1908557D02*
X43271429Y-1908557D01*
X43271429Y-1908557D02*
X43185714Y-1865700D01*
X43185714Y-1865700D02*
X43142857Y-1822842D01*
X52907142Y-5537128D02*
X53035714Y-5579985D01*
X53035714Y-5579985D02*
X53078571Y-5622842D01*
X53078571Y-5622842D02*
X53121428Y-5708557D01*
X53121428Y-5708557D02*
X53121428Y-5837128D01*
X53121428Y-5837128D02*
X53078571Y-5922842D01*
X53078571Y-5922842D02*
X53035714Y-5965700D01*
X53035714Y-5965700D02*
X52949999Y-6008557D01*
X52949999Y-6008557D02*
X52607142Y-6008557D01*
X52607142Y-6008557D02*
X52607142Y-5108557D01*
X52607142Y-5108557D02*
X52907142Y-5108557D01*
X52907142Y-5108557D02*
X52992857Y-5151414D01*
X52992857Y-5151414D02*
X53035714Y-5194271D01*
X53035714Y-5194271D02*
X53078571Y-5279985D01*
X53078571Y-5279985D02*
X53078571Y-5365700D01*
X53078571Y-5365700D02*
X53035714Y-5451414D01*
X53035714Y-5451414D02*
X52992857Y-5494271D01*
X52992857Y-5494271D02*
X52907142Y-5537128D01*
X52907142Y-5537128D02*
X52607142Y-5537128D01*
X53464285Y-5751414D02*
X53892857Y-5751414D01*
X53378571Y-6008557D02*
X53678571Y-5108557D01*
X53678571Y-5108557D02*
X53978571Y-6008557D01*
X54150000Y-5108557D02*
X54664286Y-5108557D01*
X54407143Y-6008557D02*
X54407143Y-5108557D01*
X54921428Y-5194271D02*
X54964285Y-5151414D01*
X54964285Y-5151414D02*
X55050000Y-5108557D01*
X55050000Y-5108557D02*
X55264285Y-5108557D01*
X55264285Y-5108557D02*
X55350000Y-5151414D01*
X55350000Y-5151414D02*
X55392857Y-5194271D01*
X55392857Y-5194271D02*
X55435714Y-5279985D01*
X55435714Y-5279985D02*
X55435714Y-5365700D01*
X55435714Y-5365700D02*
X55392857Y-5494271D01*
X55392857Y-5494271D02*
X54878571Y-6008557D01*
X54878571Y-6008557D02*
X55435714Y-6008557D01*
X13733333Y-5862295D02*
X13733333Y-6433723D01*
X13733333Y-6433723D02*
X13695238Y-6548009D01*
X13695238Y-6548009D02*
X13619047Y-6624200D01*
X13619047Y-6624200D02*
X13504762Y-6662295D01*
X13504762Y-6662295D02*
X13428571Y-6662295D01*
X14533333Y-6662295D02*
X14076190Y-6662295D01*
X14304762Y-6662295D02*
X14304762Y-5862295D01*
X14304762Y-5862295D02*
X14228571Y-5976580D01*
X14228571Y-5976580D02*
X14152381Y-6052771D01*
X14152381Y-6052771D02*
X14076190Y-6090866D01*
X53733333Y-5862295D02*
X53733333Y-6433723D01*
X53733333Y-6433723D02*
X53695238Y-6548009D01*
X53695238Y-6548009D02*
X53619047Y-6624200D01*
X53619047Y-6624200D02*
X53504762Y-6662295D01*
X53504762Y-6662295D02*
X53428571Y-6662295D01*
X54457143Y-5862295D02*
X54304762Y-5862295D01*
X54304762Y-5862295D02*
X54228571Y-5900390D01*
X54228571Y-5900390D02*
X54190476Y-5938485D01*
X54190476Y-5938485D02*
X54114286Y-6052771D01*
X54114286Y-6052771D02*
X54076190Y-6205152D01*
X54076190Y-6205152D02*
X54076190Y-6509914D01*
X54076190Y-6509914D02*
X54114286Y-6586104D01*
X54114286Y-6586104D02*
X54152381Y-6624200D01*
X54152381Y-6624200D02*
X54228571Y-6662295D01*
X54228571Y-6662295D02*
X54380952Y-6662295D01*
X54380952Y-6662295D02*
X54457143Y-6624200D01*
X54457143Y-6624200D02*
X54495238Y-6586104D01*
X54495238Y-6586104D02*
X54533333Y-6509914D01*
X54533333Y-6509914D02*
X54533333Y-6319438D01*
X54533333Y-6319438D02*
X54495238Y-6243247D01*
X54495238Y-6243247D02*
X54457143Y-6205152D01*
X54457143Y-6205152D02*
X54380952Y-6167057D01*
X54380952Y-6167057D02*
X54228571Y-6167057D01*
X54228571Y-6167057D02*
X54152381Y-6205152D01*
X54152381Y-6205152D02*
X54114286Y-6243247D01*
X54114286Y-6243247D02*
X54076190Y-6319438D01*
X37733333Y-43362295D02*
X37733333Y-43933723D01*
X37733333Y-43933723D02*
X37695238Y-44048009D01*
X37695238Y-44048009D02*
X37619047Y-44124200D01*
X37619047Y-44124200D02*
X37504762Y-44162295D01*
X37504762Y-44162295D02*
X37428571Y-44162295D01*
X38076190Y-43438485D02*
X38114286Y-43400390D01*
X38114286Y-43400390D02*
X38190476Y-43362295D01*
X38190476Y-43362295D02*
X38380952Y-43362295D01*
X38380952Y-43362295D02*
X38457143Y-43400390D01*
X38457143Y-43400390D02*
X38495238Y-43438485D01*
X38495238Y-43438485D02*
X38533333Y-43514676D01*
X38533333Y-43514676D02*
X38533333Y-43590866D01*
X38533333Y-43590866D02*
X38495238Y-43705152D01*
X38495238Y-43705152D02*
X38038095Y-44162295D01*
X38038095Y-44162295D02*
X38533333Y-44162295D01*
X9233333Y-6362295D02*
X9233333Y-6933723D01*
X9233333Y-6933723D02*
X9195238Y-7048009D01*
X9195238Y-7048009D02*
X9119047Y-7124200D01*
X9119047Y-7124200D02*
X9004762Y-7162295D01*
X9004762Y-7162295D02*
X8928571Y-7162295D01*
X9995238Y-6362295D02*
X9614286Y-6362295D01*
X9614286Y-6362295D02*
X9576190Y-6743247D01*
X9576190Y-6743247D02*
X9614286Y-6705152D01*
X9614286Y-6705152D02*
X9690476Y-6667057D01*
X9690476Y-6667057D02*
X9880952Y-6667057D01*
X9880952Y-6667057D02*
X9957143Y-6705152D01*
X9957143Y-6705152D02*
X9995238Y-6743247D01*
X9995238Y-6743247D02*
X10033333Y-6819438D01*
X10033333Y-6819438D02*
X10033333Y-7009914D01*
X10033333Y-7009914D02*
X9995238Y-7086104D01*
X9995238Y-7086104D02*
X9957143Y-7124200D01*
X9957143Y-7124200D02*
X9880952Y-7162295D01*
X9880952Y-7162295D02*
X9690476Y-7162295D01*
X9690476Y-7162295D02*
X9614286Y-7124200D01*
X9614286Y-7124200D02*
X9576190Y-7086104D01*
X5433333Y-25762295D02*
X5433333Y-26333723D01*
X5433333Y-26333723D02*
X5395238Y-26448009D01*
X5395238Y-26448009D02*
X5319047Y-26524200D01*
X5319047Y-26524200D02*
X5204762Y-26562295D01*
X5204762Y-26562295D02*
X5128571Y-26562295D01*
X6157143Y-26028961D02*
X6157143Y-26562295D01*
X5966667Y-25724200D02*
X5776190Y-26295628D01*
X5776190Y-26295628D02*
X6271429Y-26295628D01*
X58133333Y-17062295D02*
X58133333Y-17633723D01*
X58133333Y-17633723D02*
X58095238Y-17748009D01*
X58095238Y-17748009D02*
X58019047Y-17824200D01*
X58019047Y-17824200D02*
X57904762Y-17862295D01*
X57904762Y-17862295D02*
X57828571Y-17862295D01*
X58438095Y-17062295D02*
X58933333Y-17062295D01*
X58933333Y-17062295D02*
X58666667Y-17367057D01*
X58666667Y-17367057D02*
X58780952Y-17367057D01*
X58780952Y-17367057D02*
X58857143Y-17405152D01*
X58857143Y-17405152D02*
X58895238Y-17443247D01*
X58895238Y-17443247D02*
X58933333Y-17519438D01*
X58933333Y-17519438D02*
X58933333Y-17709914D01*
X58933333Y-17709914D02*
X58895238Y-17786104D01*
X58895238Y-17786104D02*
X58857143Y-17824200D01*
X58857143Y-17824200D02*
X58780952Y-17862295D01*
X58780952Y-17862295D02*
X58552381Y-17862295D01*
X58552381Y-17862295D02*
X58476190Y-17824200D01*
X58476190Y-17824200D02*
X58438095Y-17786104D01*
X13409524Y-6462295D02*
X13409524Y-5662295D01*
X13409524Y-5662295D02*
X13600000Y-5662295D01*
X13600000Y-5662295D02*
X13714286Y-5700390D01*
X13714286Y-5700390D02*
X13790476Y-5776580D01*
X13790476Y-5776580D02*
X13828571Y-5852771D01*
X13828571Y-5852771D02*
X13866667Y-6005152D01*
X13866667Y-6005152D02*
X13866667Y-6119438D01*
X13866667Y-6119438D02*
X13828571Y-6271819D01*
X13828571Y-6271819D02*
X13790476Y-6348009D01*
X13790476Y-6348009D02*
X13714286Y-6424200D01*
X13714286Y-6424200D02*
X13600000Y-6462295D01*
X13600000Y-6462295D02*
X13409524Y-6462295D01*
X14628571Y-6462295D02*
X14171428Y-6462295D01*
X14400000Y-6462295D02*
X14400000Y-5662295D01*
X14400000Y-5662295D02*
X14323809Y-5776580D01*
X14323809Y-5776580D02*
X14247619Y-5852771D01*
X14247619Y-5852771D02*
X14171428Y-5890866D01*
X53409524Y-6462295D02*
X53409524Y-5662295D01*
X53409524Y-5662295D02*
X53600000Y-5662295D01*
X53600000Y-5662295D02*
X53714286Y-5700390D01*
X53714286Y-5700390D02*
X53790476Y-5776580D01*
X53790476Y-5776580D02*
X53828571Y-5852771D01*
X53828571Y-5852771D02*
X53866667Y-6005152D01*
X53866667Y-6005152D02*
X53866667Y-6119438D01*
X53866667Y-6119438D02*
X53828571Y-6271819D01*
X53828571Y-6271819D02*
X53790476Y-6348009D01*
X53790476Y-6348009D02*
X53714286Y-6424200D01*
X53714286Y-6424200D02*
X53600000Y-6462295D01*
X53600000Y-6462295D02*
X53409524Y-6462295D01*
X54590476Y-5662295D02*
X54209524Y-5662295D01*
X54209524Y-5662295D02*
X54171428Y-6043247D01*
X54171428Y-6043247D02*
X54209524Y-6005152D01*
X54209524Y-6005152D02*
X54285714Y-5967057D01*
X54285714Y-5967057D02*
X54476190Y-5967057D01*
X54476190Y-5967057D02*
X54552381Y-6005152D01*
X54552381Y-6005152D02*
X54590476Y-6043247D01*
X54590476Y-6043247D02*
X54628571Y-6119438D01*
X54628571Y-6119438D02*
X54628571Y-6309914D01*
X54628571Y-6309914D02*
X54590476Y-6386104D01*
X54590476Y-6386104D02*
X54552381Y-6424200D01*
X54552381Y-6424200D02*
X54476190Y-6462295D01*
X54476190Y-6462295D02*
X54285714Y-6462295D01*
X54285714Y-6462295D02*
X54209524Y-6424200D01*
X54209524Y-6424200D02*
X54171428Y-6386104D01*
X16409524Y-11462295D02*
X16409524Y-10662295D01*
X16409524Y-10662295D02*
X16600000Y-10662295D01*
X16600000Y-10662295D02*
X16714286Y-10700390D01*
X16714286Y-10700390D02*
X16790476Y-10776580D01*
X16790476Y-10776580D02*
X16828571Y-10852771D01*
X16828571Y-10852771D02*
X16866667Y-11005152D01*
X16866667Y-11005152D02*
X16866667Y-11119438D01*
X16866667Y-11119438D02*
X16828571Y-11271819D01*
X16828571Y-11271819D02*
X16790476Y-11348009D01*
X16790476Y-11348009D02*
X16714286Y-11424200D01*
X16714286Y-11424200D02*
X16600000Y-11462295D01*
X16600000Y-11462295D02*
X16409524Y-11462295D01*
X17552381Y-10928961D02*
X17552381Y-11462295D01*
X17361905Y-10624200D02*
X17171428Y-11195628D01*
X17171428Y-11195628D02*
X17666667Y-11195628D01*
X13166666Y-12762295D02*
X13623809Y-12762295D01*
X13395237Y-13562295D02*
X13395237Y-12762295D01*
X13776190Y-12762295D02*
X14042857Y-13562295D01*
X14042857Y-13562295D02*
X14309523Y-12762295D01*
X14538094Y-13524200D02*
X14652380Y-13562295D01*
X14652380Y-13562295D02*
X14842856Y-13562295D01*
X14842856Y-13562295D02*
X14919047Y-13524200D01*
X14919047Y-13524200D02*
X14957142Y-13486104D01*
X14957142Y-13486104D02*
X14995237Y-13409914D01*
X14995237Y-13409914D02*
X14995237Y-13333723D01*
X14995237Y-13333723D02*
X14957142Y-13257533D01*
X14957142Y-13257533D02*
X14919047Y-13219438D01*
X14919047Y-13219438D02*
X14842856Y-13181342D01*
X14842856Y-13181342D02*
X14690475Y-13143247D01*
X14690475Y-13143247D02*
X14614285Y-13105152D01*
X14614285Y-13105152D02*
X14576190Y-13067057D01*
X14576190Y-13067057D02*
X14538094Y-12990866D01*
X14538094Y-12990866D02*
X14538094Y-12914676D01*
X14538094Y-12914676D02*
X14576190Y-12838485D01*
X14576190Y-12838485D02*
X14614285Y-12800390D01*
X14614285Y-12800390D02*
X14690475Y-12762295D01*
X14690475Y-12762295D02*
X14880952Y-12762295D01*
X14880952Y-12762295D02*
X14995237Y-12800390D01*
X15757142Y-13562295D02*
X15299999Y-13562295D01*
X15528571Y-13562295D02*
X15528571Y-12762295D01*
X15528571Y-12762295D02*
X15452380Y-12876580D01*
X15452380Y-12876580D02*
X15376190Y-12952771D01*
X15376190Y-12952771D02*
X15299999Y-12990866D01*
X64966666Y-44062295D02*
X65423809Y-44062295D01*
X65195237Y-44862295D02*
X65195237Y-44062295D01*
X65576190Y-44062295D02*
X65842857Y-44862295D01*
X65842857Y-44862295D02*
X66109523Y-44062295D01*
X66338094Y-44824200D02*
X66452380Y-44862295D01*
X66452380Y-44862295D02*
X66642856Y-44862295D01*
X66642856Y-44862295D02*
X66719047Y-44824200D01*
X66719047Y-44824200D02*
X66757142Y-44786104D01*
X66757142Y-44786104D02*
X66795237Y-44709914D01*
X66795237Y-44709914D02*
X66795237Y-44633723D01*
X66795237Y-44633723D02*
X66757142Y-44557533D01*
X66757142Y-44557533D02*
X66719047Y-44519438D01*
X66719047Y-44519438D02*
X66642856Y-44481342D01*
X66642856Y-44481342D02*
X66490475Y-44443247D01*
X66490475Y-44443247D02*
X66414285Y-44405152D01*
X66414285Y-44405152D02*
X66376190Y-44367057D01*
X66376190Y-44367057D02*
X66338094Y-44290866D01*
X66338094Y-44290866D02*
X66338094Y-44214676D01*
X66338094Y-44214676D02*
X66376190Y-44138485D01*
X66376190Y-44138485D02*
X66414285Y-44100390D01*
X66414285Y-44100390D02*
X66490475Y-44062295D01*
X66490475Y-44062295D02*
X66680952Y-44062295D01*
X66680952Y-44062295D02*
X66795237Y-44100390D01*
X67099999Y-44138485D02*
X67138095Y-44100390D01*
X67138095Y-44100390D02*
X67214285Y-44062295D01*
X67214285Y-44062295D02*
X67404761Y-44062295D01*
X67404761Y-44062295D02*
X67480952Y-44100390D01*
X67480952Y-44100390D02*
X67519047Y-44138485D01*
X67519047Y-44138485D02*
X67557142Y-44214676D01*
X67557142Y-44214676D02*
X67557142Y-44290866D01*
X67557142Y-44290866D02*
X67519047Y-44405152D01*
X67519047Y-44405152D02*
X67061904Y-44862295D01*
X67061904Y-44862295D02*
X67557142Y-44862295D01*
X23733333Y-5543247D02*
X23466667Y-5543247D01*
X23466667Y-5962295D02*
X23466667Y-5162295D01*
X23466667Y-5162295D02*
X23847619Y-5162295D01*
X24571428Y-5962295D02*
X24114285Y-5962295D01*
X24342857Y-5962295D02*
X24342857Y-5162295D01*
X24342857Y-5162295D02*
X24266666Y-5276580D01*
X24266666Y-5276580D02*
X24190476Y-5352771D01*
X24190476Y-5352771D02*
X24114285Y-5390866D01*
X21990476Y-13062295D02*
X21990476Y-13709914D01*
X21990476Y-13709914D02*
X22028571Y-13786104D01*
X22028571Y-13786104D02*
X22066666Y-13824200D01*
X22066666Y-13824200D02*
X22142857Y-13862295D01*
X22142857Y-13862295D02*
X22295238Y-13862295D01*
X22295238Y-13862295D02*
X22371428Y-13824200D01*
X22371428Y-13824200D02*
X22409523Y-13786104D01*
X22409523Y-13786104D02*
X22447619Y-13709914D01*
X22447619Y-13709914D02*
X22447619Y-13062295D01*
X22752380Y-13062295D02*
X23247618Y-13062295D01*
X23247618Y-13062295D02*
X22980952Y-13367057D01*
X22980952Y-13367057D02*
X23095237Y-13367057D01*
X23095237Y-13367057D02*
X23171428Y-13405152D01*
X23171428Y-13405152D02*
X23209523Y-13443247D01*
X23209523Y-13443247D02*
X23247618Y-13519438D01*
X23247618Y-13519438D02*
X23247618Y-13709914D01*
X23247618Y-13709914D02*
X23209523Y-13786104D01*
X23209523Y-13786104D02*
X23171428Y-13824200D01*
X23171428Y-13824200D02*
X23095237Y-13862295D01*
X23095237Y-13862295D02*
X22866666Y-13862295D01*
X22866666Y-13862295D02*
X22790475Y-13824200D01*
X22790475Y-13824200D02*
X22752380Y-13786104D01*
X29366667Y-9886104D02*
X29328571Y-9924200D01*
X29328571Y-9924200D02*
X29214286Y-9962295D01*
X29214286Y-9962295D02*
X29138095Y-9962295D01*
X29138095Y-9962295D02*
X29023809Y-9924200D01*
X29023809Y-9924200D02*
X28947619Y-9848009D01*
X28947619Y-9848009D02*
X28909524Y-9771819D01*
X28909524Y-9771819D02*
X28871428Y-9619438D01*
X28871428Y-9619438D02*
X28871428Y-9505152D01*
X28871428Y-9505152D02*
X28909524Y-9352771D01*
X28909524Y-9352771D02*
X28947619Y-9276580D01*
X28947619Y-9276580D02*
X29023809Y-9200390D01*
X29023809Y-9200390D02*
X29138095Y-9162295D01*
X29138095Y-9162295D02*
X29214286Y-9162295D01*
X29214286Y-9162295D02*
X29328571Y-9200390D01*
X29328571Y-9200390D02*
X29366667Y-9238485D01*
X29671428Y-9238485D02*
X29709524Y-9200390D01*
X29709524Y-9200390D02*
X29785714Y-9162295D01*
X29785714Y-9162295D02*
X29976190Y-9162295D01*
X29976190Y-9162295D02*
X30052381Y-9200390D01*
X30052381Y-9200390D02*
X30090476Y-9238485D01*
X30090476Y-9238485D02*
X30128571Y-9314676D01*
X30128571Y-9314676D02*
X30128571Y-9390866D01*
X30128571Y-9390866D02*
X30090476Y-9505152D01*
X30090476Y-9505152D02*
X29633333Y-9962295D01*
X29633333Y-9962295D02*
X30128571Y-9962295D01*
X25766667Y-18986104D02*
X25728571Y-19024200D01*
X25728571Y-19024200D02*
X25614286Y-19062295D01*
X25614286Y-19062295D02*
X25538095Y-19062295D01*
X25538095Y-19062295D02*
X25423809Y-19024200D01*
X25423809Y-19024200D02*
X25347619Y-18948009D01*
X25347619Y-18948009D02*
X25309524Y-18871819D01*
X25309524Y-18871819D02*
X25271428Y-18719438D01*
X25271428Y-18719438D02*
X25271428Y-18605152D01*
X25271428Y-18605152D02*
X25309524Y-18452771D01*
X25309524Y-18452771D02*
X25347619Y-18376580D01*
X25347619Y-18376580D02*
X25423809Y-18300390D01*
X25423809Y-18300390D02*
X25538095Y-18262295D01*
X25538095Y-18262295D02*
X25614286Y-18262295D01*
X25614286Y-18262295D02*
X25728571Y-18300390D01*
X25728571Y-18300390D02*
X25766667Y-18338485D01*
X26033333Y-18262295D02*
X26528571Y-18262295D01*
X26528571Y-18262295D02*
X26261905Y-18567057D01*
X26261905Y-18567057D02*
X26376190Y-18567057D01*
X26376190Y-18567057D02*
X26452381Y-18605152D01*
X26452381Y-18605152D02*
X26490476Y-18643247D01*
X26490476Y-18643247D02*
X26528571Y-18719438D01*
X26528571Y-18719438D02*
X26528571Y-18909914D01*
X26528571Y-18909914D02*
X26490476Y-18986104D01*
X26490476Y-18986104D02*
X26452381Y-19024200D01*
X26452381Y-19024200D02*
X26376190Y-19062295D01*
X26376190Y-19062295D02*
X26147619Y-19062295D01*
X26147619Y-19062295D02*
X26071428Y-19024200D01*
X26071428Y-19024200D02*
X26033333Y-18986104D01*
X29385714Y-18986104D02*
X29347618Y-19024200D01*
X29347618Y-19024200D02*
X29233333Y-19062295D01*
X29233333Y-19062295D02*
X29157142Y-19062295D01*
X29157142Y-19062295D02*
X29042856Y-19024200D01*
X29042856Y-19024200D02*
X28966666Y-18948009D01*
X28966666Y-18948009D02*
X28928571Y-18871819D01*
X28928571Y-18871819D02*
X28890475Y-18719438D01*
X28890475Y-18719438D02*
X28890475Y-18605152D01*
X28890475Y-18605152D02*
X28928571Y-18452771D01*
X28928571Y-18452771D02*
X28966666Y-18376580D01*
X28966666Y-18376580D02*
X29042856Y-18300390D01*
X29042856Y-18300390D02*
X29157142Y-18262295D01*
X29157142Y-18262295D02*
X29233333Y-18262295D01*
X29233333Y-18262295D02*
X29347618Y-18300390D01*
X29347618Y-18300390D02*
X29385714Y-18338485D01*
X30147618Y-19062295D02*
X29690475Y-19062295D01*
X29919047Y-19062295D02*
X29919047Y-18262295D01*
X29919047Y-18262295D02*
X29842856Y-18376580D01*
X29842856Y-18376580D02*
X29766666Y-18452771D01*
X29766666Y-18452771D02*
X29690475Y-18490866D01*
X30452380Y-18338485D02*
X30490476Y-18300390D01*
X30490476Y-18300390D02*
X30566666Y-18262295D01*
X30566666Y-18262295D02*
X30757142Y-18262295D01*
X30757142Y-18262295D02*
X30833333Y-18300390D01*
X30833333Y-18300390D02*
X30871428Y-18338485D01*
X30871428Y-18338485D02*
X30909523Y-18414676D01*
X30909523Y-18414676D02*
X30909523Y-18490866D01*
X30909523Y-18490866D02*
X30871428Y-18605152D01*
X30871428Y-18605152D02*
X30414285Y-19062295D01*
X30414285Y-19062295D02*
X30909523Y-19062295D01*
X33390476Y-23262295D02*
X33390476Y-23909914D01*
X33390476Y-23909914D02*
X33428571Y-23986104D01*
X33428571Y-23986104D02*
X33466666Y-24024200D01*
X33466666Y-24024200D02*
X33542857Y-24062295D01*
X33542857Y-24062295D02*
X33695238Y-24062295D01*
X33695238Y-24062295D02*
X33771428Y-24024200D01*
X33771428Y-24024200D02*
X33809523Y-23986104D01*
X33809523Y-23986104D02*
X33847619Y-23909914D01*
X33847619Y-23909914D02*
X33847619Y-23262295D01*
X34647618Y-24062295D02*
X34190475Y-24062295D01*
X34419047Y-24062295D02*
X34419047Y-23262295D01*
X34419047Y-23262295D02*
X34342856Y-23376580D01*
X34342856Y-23376580D02*
X34266666Y-23452771D01*
X34266666Y-23452771D02*
X34190475Y-23490866D01*
X39366667Y-35586104D02*
X39328571Y-35624200D01*
X39328571Y-35624200D02*
X39214286Y-35662295D01*
X39214286Y-35662295D02*
X39138095Y-35662295D01*
X39138095Y-35662295D02*
X39023809Y-35624200D01*
X39023809Y-35624200D02*
X38947619Y-35548009D01*
X38947619Y-35548009D02*
X38909524Y-35471819D01*
X38909524Y-35471819D02*
X38871428Y-35319438D01*
X38871428Y-35319438D02*
X38871428Y-35205152D01*
X38871428Y-35205152D02*
X38909524Y-35052771D01*
X38909524Y-35052771D02*
X38947619Y-34976580D01*
X38947619Y-34976580D02*
X39023809Y-34900390D01*
X39023809Y-34900390D02*
X39138095Y-34862295D01*
X39138095Y-34862295D02*
X39214286Y-34862295D01*
X39214286Y-34862295D02*
X39328571Y-34900390D01*
X39328571Y-34900390D02*
X39366667Y-34938485D01*
X40052381Y-34862295D02*
X39900000Y-34862295D01*
X39900000Y-34862295D02*
X39823809Y-34900390D01*
X39823809Y-34900390D02*
X39785714Y-34938485D01*
X39785714Y-34938485D02*
X39709524Y-35052771D01*
X39709524Y-35052771D02*
X39671428Y-35205152D01*
X39671428Y-35205152D02*
X39671428Y-35509914D01*
X39671428Y-35509914D02*
X39709524Y-35586104D01*
X39709524Y-35586104D02*
X39747619Y-35624200D01*
X39747619Y-35624200D02*
X39823809Y-35662295D01*
X39823809Y-35662295D02*
X39976190Y-35662295D01*
X39976190Y-35662295D02*
X40052381Y-35624200D01*
X40052381Y-35624200D02*
X40090476Y-35586104D01*
X40090476Y-35586104D02*
X40128571Y-35509914D01*
X40128571Y-35509914D02*
X40128571Y-35319438D01*
X40128571Y-35319438D02*
X40090476Y-35243247D01*
X40090476Y-35243247D02*
X40052381Y-35205152D01*
X40052381Y-35205152D02*
X39976190Y-35167057D01*
X39976190Y-35167057D02*
X39823809Y-35167057D01*
X39823809Y-35167057D02*
X39747619Y-35205152D01*
X39747619Y-35205152D02*
X39709524Y-35243247D01*
X39709524Y-35243247D02*
X39671428Y-35319438D01*
X52390476Y-17362295D02*
X52390476Y-18009914D01*
X52390476Y-18009914D02*
X52428571Y-18086104D01*
X52428571Y-18086104D02*
X52466666Y-18124200D01*
X52466666Y-18124200D02*
X52542857Y-18162295D01*
X52542857Y-18162295D02*
X52695238Y-18162295D01*
X52695238Y-18162295D02*
X52771428Y-18124200D01*
X52771428Y-18124200D02*
X52809523Y-18086104D01*
X52809523Y-18086104D02*
X52847619Y-18009914D01*
X52847619Y-18009914D02*
X52847619Y-17362295D01*
X53190475Y-17438485D02*
X53228571Y-17400390D01*
X53228571Y-17400390D02*
X53304761Y-17362295D01*
X53304761Y-17362295D02*
X53495237Y-17362295D01*
X53495237Y-17362295D02*
X53571428Y-17400390D01*
X53571428Y-17400390D02*
X53609523Y-17438485D01*
X53609523Y-17438485D02*
X53647618Y-17514676D01*
X53647618Y-17514676D02*
X53647618Y-17590866D01*
X53647618Y-17590866D02*
X53609523Y-17705152D01*
X53609523Y-17705152D02*
X53152380Y-18162295D01*
X53152380Y-18162295D02*
X53647618Y-18162295D01*
X49266667Y-16686104D02*
X49228571Y-16724200D01*
X49228571Y-16724200D02*
X49114286Y-16762295D01*
X49114286Y-16762295D02*
X49038095Y-16762295D01*
X49038095Y-16762295D02*
X48923809Y-16724200D01*
X48923809Y-16724200D02*
X48847619Y-16648009D01*
X48847619Y-16648009D02*
X48809524Y-16571819D01*
X48809524Y-16571819D02*
X48771428Y-16419438D01*
X48771428Y-16419438D02*
X48771428Y-16305152D01*
X48771428Y-16305152D02*
X48809524Y-16152771D01*
X48809524Y-16152771D02*
X48847619Y-16076580D01*
X48847619Y-16076580D02*
X48923809Y-16000390D01*
X48923809Y-16000390D02*
X49038095Y-15962295D01*
X49038095Y-15962295D02*
X49114286Y-15962295D01*
X49114286Y-15962295D02*
X49228571Y-16000390D01*
X49228571Y-16000390D02*
X49266667Y-16038485D01*
X49533333Y-15962295D02*
X50066667Y-15962295D01*
X50066667Y-15962295D02*
X49723809Y-16762295D01*
X60366667Y-10462295D02*
X60100000Y-10081342D01*
X59909524Y-10462295D02*
X59909524Y-9662295D01*
X59909524Y-9662295D02*
X60214286Y-9662295D01*
X60214286Y-9662295D02*
X60290476Y-9700390D01*
X60290476Y-9700390D02*
X60328571Y-9738485D01*
X60328571Y-9738485D02*
X60366667Y-9814676D01*
X60366667Y-9814676D02*
X60366667Y-9928961D01*
X60366667Y-9928961D02*
X60328571Y-10005152D01*
X60328571Y-10005152D02*
X60290476Y-10043247D01*
X60290476Y-10043247D02*
X60214286Y-10081342D01*
X60214286Y-10081342D02*
X59909524Y-10081342D01*
X60671428Y-9738485D02*
X60709524Y-9700390D01*
X60709524Y-9700390D02*
X60785714Y-9662295D01*
X60785714Y-9662295D02*
X60976190Y-9662295D01*
X60976190Y-9662295D02*
X61052381Y-9700390D01*
X61052381Y-9700390D02*
X61090476Y-9738485D01*
X61090476Y-9738485D02*
X61128571Y-9814676D01*
X61128571Y-9814676D02*
X61128571Y-9890866D01*
X61128571Y-9890866D02*
X61090476Y-10005152D01*
X61090476Y-10005152D02*
X60633333Y-10462295D01*
X60633333Y-10462295D02*
X61128571Y-10462295D01*
X53766667Y-14162295D02*
X53500000Y-13781342D01*
X53309524Y-14162295D02*
X53309524Y-13362295D01*
X53309524Y-13362295D02*
X53614286Y-13362295D01*
X53614286Y-13362295D02*
X53690476Y-13400390D01*
X53690476Y-13400390D02*
X53728571Y-13438485D01*
X53728571Y-13438485D02*
X53766667Y-13514676D01*
X53766667Y-13514676D02*
X53766667Y-13628961D01*
X53766667Y-13628961D02*
X53728571Y-13705152D01*
X53728571Y-13705152D02*
X53690476Y-13743247D01*
X53690476Y-13743247D02*
X53614286Y-13781342D01*
X53614286Y-13781342D02*
X53309524Y-13781342D01*
X54033333Y-13362295D02*
X54528571Y-13362295D01*
X54528571Y-13362295D02*
X54261905Y-13667057D01*
X54261905Y-13667057D02*
X54376190Y-13667057D01*
X54376190Y-13667057D02*
X54452381Y-13705152D01*
X54452381Y-13705152D02*
X54490476Y-13743247D01*
X54490476Y-13743247D02*
X54528571Y-13819438D01*
X54528571Y-13819438D02*
X54528571Y-14009914D01*
X54528571Y-14009914D02*
X54490476Y-14086104D01*
X54490476Y-14086104D02*
X54452381Y-14124200D01*
X54452381Y-14124200D02*
X54376190Y-14162295D01*
X54376190Y-14162295D02*
X54147619Y-14162295D01*
X54147619Y-14162295D02*
X54071428Y-14124200D01*
X54071428Y-14124200D02*
X54033333Y-14086104D01*
X43866667Y-18462295D02*
X43600000Y-18081342D01*
X43409524Y-18462295D02*
X43409524Y-17662295D01*
X43409524Y-17662295D02*
X43714286Y-17662295D01*
X43714286Y-17662295D02*
X43790476Y-17700390D01*
X43790476Y-17700390D02*
X43828571Y-17738485D01*
X43828571Y-17738485D02*
X43866667Y-17814676D01*
X43866667Y-17814676D02*
X43866667Y-17928961D01*
X43866667Y-17928961D02*
X43828571Y-18005152D01*
X43828571Y-18005152D02*
X43790476Y-18043247D01*
X43790476Y-18043247D02*
X43714286Y-18081342D01*
X43714286Y-18081342D02*
X43409524Y-18081342D01*
X44552381Y-17928961D02*
X44552381Y-18462295D01*
X44361905Y-17624200D02*
X44171428Y-18195628D01*
X44171428Y-18195628D02*
X44666667Y-18195628D01*
X43866667Y-16462295D02*
X43600000Y-16081342D01*
X43409524Y-16462295D02*
X43409524Y-15662295D01*
X43409524Y-15662295D02*
X43714286Y-15662295D01*
X43714286Y-15662295D02*
X43790476Y-15700390D01*
X43790476Y-15700390D02*
X43828571Y-15738485D01*
X43828571Y-15738485D02*
X43866667Y-15814676D01*
X43866667Y-15814676D02*
X43866667Y-15928961D01*
X43866667Y-15928961D02*
X43828571Y-16005152D01*
X43828571Y-16005152D02*
X43790476Y-16043247D01*
X43790476Y-16043247D02*
X43714286Y-16081342D01*
X43714286Y-16081342D02*
X43409524Y-16081342D01*
X44628571Y-16462295D02*
X44171428Y-16462295D01*
X44400000Y-16462295D02*
X44400000Y-15662295D01*
X44400000Y-15662295D02*
X44323809Y-15776580D01*
X44323809Y-15776580D02*
X44247619Y-15852771D01*
X44247619Y-15852771D02*
X44171428Y-15890866D01*
X47866667Y-29962295D02*
X47600000Y-29581342D01*
X47409524Y-29962295D02*
X47409524Y-29162295D01*
X47409524Y-29162295D02*
X47714286Y-29162295D01*
X47714286Y-29162295D02*
X47790476Y-29200390D01*
X47790476Y-29200390D02*
X47828571Y-29238485D01*
X47828571Y-29238485D02*
X47866667Y-29314676D01*
X47866667Y-29314676D02*
X47866667Y-29428961D01*
X47866667Y-29428961D02*
X47828571Y-29505152D01*
X47828571Y-29505152D02*
X47790476Y-29543247D01*
X47790476Y-29543247D02*
X47714286Y-29581342D01*
X47714286Y-29581342D02*
X47409524Y-29581342D01*
X48590476Y-29162295D02*
X48209524Y-29162295D01*
X48209524Y-29162295D02*
X48171428Y-29543247D01*
X48171428Y-29543247D02*
X48209524Y-29505152D01*
X48209524Y-29505152D02*
X48285714Y-29467057D01*
X48285714Y-29467057D02*
X48476190Y-29467057D01*
X48476190Y-29467057D02*
X48552381Y-29505152D01*
X48552381Y-29505152D02*
X48590476Y-29543247D01*
X48590476Y-29543247D02*
X48628571Y-29619438D01*
X48628571Y-29619438D02*
X48628571Y-29809914D01*
X48628571Y-29809914D02*
X48590476Y-29886104D01*
X48590476Y-29886104D02*
X48552381Y-29924200D01*
X48552381Y-29924200D02*
X48476190Y-29962295D01*
X48476190Y-29962295D02*
X48285714Y-29962295D01*
X48285714Y-29962295D02*
X48209524Y-29924200D01*
X48209524Y-29924200D02*
X48171428Y-29886104D01*
X50909524Y-29262295D02*
X50909524Y-28462295D01*
X50909524Y-28462295D02*
X51100000Y-28462295D01*
X51100000Y-28462295D02*
X51214286Y-28500390D01*
X51214286Y-28500390D02*
X51290476Y-28576580D01*
X51290476Y-28576580D02*
X51328571Y-28652771D01*
X51328571Y-28652771D02*
X51366667Y-28805152D01*
X51366667Y-28805152D02*
X51366667Y-28919438D01*
X51366667Y-28919438D02*
X51328571Y-29071819D01*
X51328571Y-29071819D02*
X51290476Y-29148009D01*
X51290476Y-29148009D02*
X51214286Y-29224200D01*
X51214286Y-29224200D02*
X51100000Y-29262295D01*
X51100000Y-29262295D02*
X50909524Y-29262295D01*
X51671428Y-28538485D02*
X51709524Y-28500390D01*
X51709524Y-28500390D02*
X51785714Y-28462295D01*
X51785714Y-28462295D02*
X51976190Y-28462295D01*
X51976190Y-28462295D02*
X52052381Y-28500390D01*
X52052381Y-28500390D02*
X52090476Y-28538485D01*
X52090476Y-28538485D02*
X52128571Y-28614676D01*
X52128571Y-28614676D02*
X52128571Y-28690866D01*
X52128571Y-28690866D02*
X52090476Y-28805152D01*
X52090476Y-28805152D02*
X51633333Y-29262295D01*
X51633333Y-29262295D02*
X52128571Y-29262295D01*
X55490475Y-38224200D02*
X55604761Y-38262295D01*
X55604761Y-38262295D02*
X55795237Y-38262295D01*
X55795237Y-38262295D02*
X55871428Y-38224200D01*
X55871428Y-38224200D02*
X55909523Y-38186104D01*
X55909523Y-38186104D02*
X55947618Y-38109914D01*
X55947618Y-38109914D02*
X55947618Y-38033723D01*
X55947618Y-38033723D02*
X55909523Y-37957533D01*
X55909523Y-37957533D02*
X55871428Y-37919438D01*
X55871428Y-37919438D02*
X55795237Y-37881342D01*
X55795237Y-37881342D02*
X55642856Y-37843247D01*
X55642856Y-37843247D02*
X55566666Y-37805152D01*
X55566666Y-37805152D02*
X55528571Y-37767057D01*
X55528571Y-37767057D02*
X55490475Y-37690866D01*
X55490475Y-37690866D02*
X55490475Y-37614676D01*
X55490475Y-37614676D02*
X55528571Y-37538485D01*
X55528571Y-37538485D02*
X55566666Y-37500390D01*
X55566666Y-37500390D02*
X55642856Y-37462295D01*
X55642856Y-37462295D02*
X55833333Y-37462295D01*
X55833333Y-37462295D02*
X55947618Y-37500390D01*
X56747619Y-38186104D02*
X56709523Y-38224200D01*
X56709523Y-38224200D02*
X56595238Y-38262295D01*
X56595238Y-38262295D02*
X56519047Y-38262295D01*
X56519047Y-38262295D02*
X56404761Y-38224200D01*
X56404761Y-38224200D02*
X56328571Y-38148009D01*
X56328571Y-38148009D02*
X56290476Y-38071819D01*
X56290476Y-38071819D02*
X56252380Y-37919438D01*
X56252380Y-37919438D02*
X56252380Y-37805152D01*
X56252380Y-37805152D02*
X56290476Y-37652771D01*
X56290476Y-37652771D02*
X56328571Y-37576580D01*
X56328571Y-37576580D02*
X56404761Y-37500390D01*
X56404761Y-37500390D02*
X56519047Y-37462295D01*
X56519047Y-37462295D02*
X56595238Y-37462295D01*
X56595238Y-37462295D02*
X56709523Y-37500390D01*
X56709523Y-37500390D02*
X56747619Y-37538485D01*
X57509523Y-38262295D02*
X57052380Y-38262295D01*
X57280952Y-38262295D02*
X57280952Y-37462295D01*
X57280952Y-37462295D02*
X57204761Y-37576580D01*
X57204761Y-37576580D02*
X57128571Y-37652771D01*
X57128571Y-37652771D02*
X57052380Y-37690866D01*
X53757142Y-32565700D02*
X54442857Y-32565700D01*
X54099999Y-32908557D02*
X54099999Y-32222842D01*
X56866667Y-38386104D02*
X56828571Y-38424200D01*
X56828571Y-38424200D02*
X56714286Y-38462295D01*
X56714286Y-38462295D02*
X56638095Y-38462295D01*
X56638095Y-38462295D02*
X56523809Y-38424200D01*
X56523809Y-38424200D02*
X56447619Y-38348009D01*
X56447619Y-38348009D02*
X56409524Y-38271819D01*
X56409524Y-38271819D02*
X56371428Y-38119438D01*
X56371428Y-38119438D02*
X56371428Y-38005152D01*
X56371428Y-38005152D02*
X56409524Y-37852771D01*
X56409524Y-37852771D02*
X56447619Y-37776580D01*
X56447619Y-37776580D02*
X56523809Y-37700390D01*
X56523809Y-37700390D02*
X56638095Y-37662295D01*
X56638095Y-37662295D02*
X56714286Y-37662295D01*
X56714286Y-37662295D02*
X56828571Y-37700390D01*
X56828571Y-37700390D02*
X56866667Y-37738485D01*
X57628571Y-38462295D02*
X57171428Y-38462295D01*
X57400000Y-38462295D02*
X57400000Y-37662295D01*
X57400000Y-37662295D02*
X57323809Y-37776580D01*
X57323809Y-37776580D02*
X57247619Y-37852771D01*
X57247619Y-37852771D02*
X57171428Y-37890866D01*
X59957142Y-45665700D02*
X60642857Y-45665700D01*
X60299999Y-46008557D02*
X60299999Y-45322842D01*
X43390476Y-35562295D02*
X43390476Y-36209914D01*
X43390476Y-36209914D02*
X43428571Y-36286104D01*
X43428571Y-36286104D02*
X43466666Y-36324200D01*
X43466666Y-36324200D02*
X43542857Y-36362295D01*
X43542857Y-36362295D02*
X43695238Y-36362295D01*
X43695238Y-36362295D02*
X43771428Y-36324200D01*
X43771428Y-36324200D02*
X43809523Y-36286104D01*
X43809523Y-36286104D02*
X43847619Y-36209914D01*
X43847619Y-36209914D02*
X43847619Y-35562295D01*
X44571428Y-35828961D02*
X44571428Y-36362295D01*
X44380952Y-35524200D02*
X44190475Y-36095628D01*
X44190475Y-36095628D02*
X44685714Y-36095628D01*
X51366667Y-43086104D02*
X51328571Y-43124200D01*
X51328571Y-43124200D02*
X51214286Y-43162295D01*
X51214286Y-43162295D02*
X51138095Y-43162295D01*
X51138095Y-43162295D02*
X51023809Y-43124200D01*
X51023809Y-43124200D02*
X50947619Y-43048009D01*
X50947619Y-43048009D02*
X50909524Y-42971819D01*
X50909524Y-42971819D02*
X50871428Y-42819438D01*
X50871428Y-42819438D02*
X50871428Y-42705152D01*
X50871428Y-42705152D02*
X50909524Y-42552771D01*
X50909524Y-42552771D02*
X50947619Y-42476580D01*
X50947619Y-42476580D02*
X51023809Y-42400390D01*
X51023809Y-42400390D02*
X51138095Y-42362295D01*
X51138095Y-42362295D02*
X51214286Y-42362295D01*
X51214286Y-42362295D02*
X51328571Y-42400390D01*
X51328571Y-42400390D02*
X51366667Y-42438485D01*
X52052381Y-42628961D02*
X52052381Y-43162295D01*
X51861905Y-42324200D02*
X51671428Y-42895628D01*
X51671428Y-42895628D02*
X52166667Y-42895628D01*
X51366667Y-37486104D02*
X51328571Y-37524200D01*
X51328571Y-37524200D02*
X51214286Y-37562295D01*
X51214286Y-37562295D02*
X51138095Y-37562295D01*
X51138095Y-37562295D02*
X51023809Y-37524200D01*
X51023809Y-37524200D02*
X50947619Y-37448009D01*
X50947619Y-37448009D02*
X50909524Y-37371819D01*
X50909524Y-37371819D02*
X50871428Y-37219438D01*
X50871428Y-37219438D02*
X50871428Y-37105152D01*
X50871428Y-37105152D02*
X50909524Y-36952771D01*
X50909524Y-36952771D02*
X50947619Y-36876580D01*
X50947619Y-36876580D02*
X51023809Y-36800390D01*
X51023809Y-36800390D02*
X51138095Y-36762295D01*
X51138095Y-36762295D02*
X51214286Y-36762295D01*
X51214286Y-36762295D02*
X51328571Y-36800390D01*
X51328571Y-36800390D02*
X51366667Y-36838485D01*
X52090476Y-36762295D02*
X51709524Y-36762295D01*
X51709524Y-36762295D02*
X51671428Y-37143247D01*
X51671428Y-37143247D02*
X51709524Y-37105152D01*
X51709524Y-37105152D02*
X51785714Y-37067057D01*
X51785714Y-37067057D02*
X51976190Y-37067057D01*
X51976190Y-37067057D02*
X52052381Y-37105152D01*
X52052381Y-37105152D02*
X52090476Y-37143247D01*
X52090476Y-37143247D02*
X52128571Y-37219438D01*
X52128571Y-37219438D02*
X52128571Y-37409914D01*
X52128571Y-37409914D02*
X52090476Y-37486104D01*
X52090476Y-37486104D02*
X52052381Y-37524200D01*
X52052381Y-37524200D02*
X51976190Y-37562295D01*
X51976190Y-37562295D02*
X51785714Y-37562295D01*
X51785714Y-37562295D02*
X51709524Y-37524200D01*
X51709524Y-37524200D02*
X51671428Y-37486104D01*
X37166667Y-42262295D02*
X36900000Y-41881342D01*
X36709524Y-42262295D02*
X36709524Y-41462295D01*
X36709524Y-41462295D02*
X37014286Y-41462295D01*
X37014286Y-41462295D02*
X37090476Y-41500390D01*
X37090476Y-41500390D02*
X37128571Y-41538485D01*
X37128571Y-41538485D02*
X37166667Y-41614676D01*
X37166667Y-41614676D02*
X37166667Y-41728961D01*
X37166667Y-41728961D02*
X37128571Y-41805152D01*
X37128571Y-41805152D02*
X37090476Y-41843247D01*
X37090476Y-41843247D02*
X37014286Y-41881342D01*
X37014286Y-41881342D02*
X36709524Y-41881342D01*
X37852381Y-41462295D02*
X37700000Y-41462295D01*
X37700000Y-41462295D02*
X37623809Y-41500390D01*
X37623809Y-41500390D02*
X37585714Y-41538485D01*
X37585714Y-41538485D02*
X37509524Y-41652771D01*
X37509524Y-41652771D02*
X37471428Y-41805152D01*
X37471428Y-41805152D02*
X37471428Y-42109914D01*
X37471428Y-42109914D02*
X37509524Y-42186104D01*
X37509524Y-42186104D02*
X37547619Y-42224200D01*
X37547619Y-42224200D02*
X37623809Y-42262295D01*
X37623809Y-42262295D02*
X37776190Y-42262295D01*
X37776190Y-42262295D02*
X37852381Y-42224200D01*
X37852381Y-42224200D02*
X37890476Y-42186104D01*
X37890476Y-42186104D02*
X37928571Y-42109914D01*
X37928571Y-42109914D02*
X37928571Y-41919438D01*
X37928571Y-41919438D02*
X37890476Y-41843247D01*
X37890476Y-41843247D02*
X37852381Y-41805152D01*
X37852381Y-41805152D02*
X37776190Y-41767057D01*
X37776190Y-41767057D02*
X37623809Y-41767057D01*
X37623809Y-41767057D02*
X37547619Y-41805152D01*
X37547619Y-41805152D02*
X37509524Y-41843247D01*
X37509524Y-41843247D02*
X37471428Y-41919438D01*
X42385714Y-33362295D02*
X42119047Y-32981342D01*
X41928571Y-33362295D02*
X41928571Y-32562295D01*
X41928571Y-32562295D02*
X42233333Y-32562295D01*
X42233333Y-32562295D02*
X42309523Y-32600390D01*
X42309523Y-32600390D02*
X42347618Y-32638485D01*
X42347618Y-32638485D02*
X42385714Y-32714676D01*
X42385714Y-32714676D02*
X42385714Y-32828961D01*
X42385714Y-32828961D02*
X42347618Y-32905152D01*
X42347618Y-32905152D02*
X42309523Y-32943247D01*
X42309523Y-32943247D02*
X42233333Y-32981342D01*
X42233333Y-32981342D02*
X41928571Y-32981342D01*
X43147618Y-33362295D02*
X42690475Y-33362295D01*
X42919047Y-33362295D02*
X42919047Y-32562295D01*
X42919047Y-32562295D02*
X42842856Y-32676580D01*
X42842856Y-32676580D02*
X42766666Y-32752771D01*
X42766666Y-32752771D02*
X42690475Y-32790866D01*
X43833333Y-32828961D02*
X43833333Y-33362295D01*
X43642857Y-32524200D02*
X43452380Y-33095628D01*
X43452380Y-33095628D02*
X43947619Y-33095628D01*
X38085714Y-34962295D02*
X37819047Y-34581342D01*
X37628571Y-34962295D02*
X37628571Y-34162295D01*
X37628571Y-34162295D02*
X37933333Y-34162295D01*
X37933333Y-34162295D02*
X38009523Y-34200390D01*
X38009523Y-34200390D02*
X38047618Y-34238485D01*
X38047618Y-34238485D02*
X38085714Y-34314676D01*
X38085714Y-34314676D02*
X38085714Y-34428961D01*
X38085714Y-34428961D02*
X38047618Y-34505152D01*
X38047618Y-34505152D02*
X38009523Y-34543247D01*
X38009523Y-34543247D02*
X37933333Y-34581342D01*
X37933333Y-34581342D02*
X37628571Y-34581342D01*
X38847618Y-34962295D02*
X38390475Y-34962295D01*
X38619047Y-34962295D02*
X38619047Y-34162295D01*
X38619047Y-34162295D02*
X38542856Y-34276580D01*
X38542856Y-34276580D02*
X38466666Y-34352771D01*
X38466666Y-34352771D02*
X38390475Y-34390866D01*
X39533333Y-34162295D02*
X39380952Y-34162295D01*
X39380952Y-34162295D02*
X39304761Y-34200390D01*
X39304761Y-34200390D02*
X39266666Y-34238485D01*
X39266666Y-34238485D02*
X39190476Y-34352771D01*
X39190476Y-34352771D02*
X39152380Y-34505152D01*
X39152380Y-34505152D02*
X39152380Y-34809914D01*
X39152380Y-34809914D02*
X39190476Y-34886104D01*
X39190476Y-34886104D02*
X39228571Y-34924200D01*
X39228571Y-34924200D02*
X39304761Y-34962295D01*
X39304761Y-34962295D02*
X39457142Y-34962295D01*
X39457142Y-34962295D02*
X39533333Y-34924200D01*
X39533333Y-34924200D02*
X39571428Y-34886104D01*
X39571428Y-34886104D02*
X39609523Y-34809914D01*
X39609523Y-34809914D02*
X39609523Y-34619438D01*
X39609523Y-34619438D02*
X39571428Y-34543247D01*
X39571428Y-34543247D02*
X39533333Y-34505152D01*
X39533333Y-34505152D02*
X39457142Y-34467057D01*
X39457142Y-34467057D02*
X39304761Y-34467057D01*
X39304761Y-34467057D02*
X39228571Y-34505152D01*
X39228571Y-34505152D02*
X39190476Y-34543247D01*
X39190476Y-34543247D02*
X39152380Y-34619438D01*
X43385714Y-34962295D02*
X43119047Y-34581342D01*
X42928571Y-34962295D02*
X42928571Y-34162295D01*
X42928571Y-34162295D02*
X43233333Y-34162295D01*
X43233333Y-34162295D02*
X43309523Y-34200390D01*
X43309523Y-34200390D02*
X43347618Y-34238485D01*
X43347618Y-34238485D02*
X43385714Y-34314676D01*
X43385714Y-34314676D02*
X43385714Y-34428961D01*
X43385714Y-34428961D02*
X43347618Y-34505152D01*
X43347618Y-34505152D02*
X43309523Y-34543247D01*
X43309523Y-34543247D02*
X43233333Y-34581342D01*
X43233333Y-34581342D02*
X42928571Y-34581342D01*
X44147618Y-34962295D02*
X43690475Y-34962295D01*
X43919047Y-34962295D02*
X43919047Y-34162295D01*
X43919047Y-34162295D02*
X43842856Y-34276580D01*
X43842856Y-34276580D02*
X43766666Y-34352771D01*
X43766666Y-34352771D02*
X43690475Y-34390866D01*
X44871428Y-34162295D02*
X44490476Y-34162295D01*
X44490476Y-34162295D02*
X44452380Y-34543247D01*
X44452380Y-34543247D02*
X44490476Y-34505152D01*
X44490476Y-34505152D02*
X44566666Y-34467057D01*
X44566666Y-34467057D02*
X44757142Y-34467057D01*
X44757142Y-34467057D02*
X44833333Y-34505152D01*
X44833333Y-34505152D02*
X44871428Y-34543247D01*
X44871428Y-34543247D02*
X44909523Y-34619438D01*
X44909523Y-34619438D02*
X44909523Y-34809914D01*
X44909523Y-34809914D02*
X44871428Y-34886104D01*
X44871428Y-34886104D02*
X44833333Y-34924200D01*
X44833333Y-34924200D02*
X44757142Y-34962295D01*
X44757142Y-34962295D02*
X44566666Y-34962295D01*
X44566666Y-34962295D02*
X44490476Y-34924200D01*
X44490476Y-34924200D02*
X44452380Y-34886104D01*
X32409524Y-35662295D02*
X32409524Y-34862295D01*
X32409524Y-34862295D02*
X32600000Y-34862295D01*
X32600000Y-34862295D02*
X32714286Y-34900390D01*
X32714286Y-34900390D02*
X32790476Y-34976580D01*
X32790476Y-34976580D02*
X32828571Y-35052771D01*
X32828571Y-35052771D02*
X32866667Y-35205152D01*
X32866667Y-35205152D02*
X32866667Y-35319438D01*
X32866667Y-35319438D02*
X32828571Y-35471819D01*
X32828571Y-35471819D02*
X32790476Y-35548009D01*
X32790476Y-35548009D02*
X32714286Y-35624200D01*
X32714286Y-35624200D02*
X32600000Y-35662295D01*
X32600000Y-35662295D02*
X32409524Y-35662295D01*
X33552381Y-34862295D02*
X33400000Y-34862295D01*
X33400000Y-34862295D02*
X33323809Y-34900390D01*
X33323809Y-34900390D02*
X33285714Y-34938485D01*
X33285714Y-34938485D02*
X33209524Y-35052771D01*
X33209524Y-35052771D02*
X33171428Y-35205152D01*
X33171428Y-35205152D02*
X33171428Y-35509914D01*
X33171428Y-35509914D02*
X33209524Y-35586104D01*
X33209524Y-35586104D02*
X33247619Y-35624200D01*
X33247619Y-35624200D02*
X33323809Y-35662295D01*
X33323809Y-35662295D02*
X33476190Y-35662295D01*
X33476190Y-35662295D02*
X33552381Y-35624200D01*
X33552381Y-35624200D02*
X33590476Y-35586104D01*
X33590476Y-35586104D02*
X33628571Y-35509914D01*
X33628571Y-35509914D02*
X33628571Y-35319438D01*
X33628571Y-35319438D02*
X33590476Y-35243247D01*
X33590476Y-35243247D02*
X33552381Y-35205152D01*
X33552381Y-35205152D02*
X33476190Y-35167057D01*
X33476190Y-35167057D02*
X33323809Y-35167057D01*
X33323809Y-35167057D02*
X33247619Y-35205152D01*
X33247619Y-35205152D02*
X33209524Y-35243247D01*
X33209524Y-35243247D02*
X33171428Y-35319438D01*
X23390476Y-37662295D02*
X23390476Y-38309914D01*
X23390476Y-38309914D02*
X23428571Y-38386104D01*
X23428571Y-38386104D02*
X23466666Y-38424200D01*
X23466666Y-38424200D02*
X23542857Y-38462295D01*
X23542857Y-38462295D02*
X23695238Y-38462295D01*
X23695238Y-38462295D02*
X23771428Y-38424200D01*
X23771428Y-38424200D02*
X23809523Y-38386104D01*
X23809523Y-38386104D02*
X23847619Y-38309914D01*
X23847619Y-38309914D02*
X23847619Y-37662295D01*
X24571428Y-37662295D02*
X24419047Y-37662295D01*
X24419047Y-37662295D02*
X24342856Y-37700390D01*
X24342856Y-37700390D02*
X24304761Y-37738485D01*
X24304761Y-37738485D02*
X24228571Y-37852771D01*
X24228571Y-37852771D02*
X24190475Y-38005152D01*
X24190475Y-38005152D02*
X24190475Y-38309914D01*
X24190475Y-38309914D02*
X24228571Y-38386104D01*
X24228571Y-38386104D02*
X24266666Y-38424200D01*
X24266666Y-38424200D02*
X24342856Y-38462295D01*
X24342856Y-38462295D02*
X24495237Y-38462295D01*
X24495237Y-38462295D02*
X24571428Y-38424200D01*
X24571428Y-38424200D02*
X24609523Y-38386104D01*
X24609523Y-38386104D02*
X24647618Y-38309914D01*
X24647618Y-38309914D02*
X24647618Y-38119438D01*
X24647618Y-38119438D02*
X24609523Y-38043247D01*
X24609523Y-38043247D02*
X24571428Y-38005152D01*
X24571428Y-38005152D02*
X24495237Y-37967057D01*
X24495237Y-37967057D02*
X24342856Y-37967057D01*
X24342856Y-37967057D02*
X24266666Y-38005152D01*
X24266666Y-38005152D02*
X24228571Y-38043247D01*
X24228571Y-38043247D02*
X24190475Y-38119438D01*
X29266667Y-43086104D02*
X29228571Y-43124200D01*
X29228571Y-43124200D02*
X29114286Y-43162295D01*
X29114286Y-43162295D02*
X29038095Y-43162295D01*
X29038095Y-43162295D02*
X28923809Y-43124200D01*
X28923809Y-43124200D02*
X28847619Y-43048009D01*
X28847619Y-43048009D02*
X28809524Y-42971819D01*
X28809524Y-42971819D02*
X28771428Y-42819438D01*
X28771428Y-42819438D02*
X28771428Y-42705152D01*
X28771428Y-42705152D02*
X28809524Y-42552771D01*
X28809524Y-42552771D02*
X28847619Y-42476580D01*
X28847619Y-42476580D02*
X28923809Y-42400390D01*
X28923809Y-42400390D02*
X29038095Y-42362295D01*
X29038095Y-42362295D02*
X29114286Y-42362295D01*
X29114286Y-42362295D02*
X29228571Y-42400390D01*
X29228571Y-42400390D02*
X29266667Y-42438485D01*
X29647619Y-43162295D02*
X29800000Y-43162295D01*
X29800000Y-43162295D02*
X29876190Y-43124200D01*
X29876190Y-43124200D02*
X29914286Y-43086104D01*
X29914286Y-43086104D02*
X29990476Y-42971819D01*
X29990476Y-42971819D02*
X30028571Y-42819438D01*
X30028571Y-42819438D02*
X30028571Y-42514676D01*
X30028571Y-42514676D02*
X29990476Y-42438485D01*
X29990476Y-42438485D02*
X29952381Y-42400390D01*
X29952381Y-42400390D02*
X29876190Y-42362295D01*
X29876190Y-42362295D02*
X29723809Y-42362295D01*
X29723809Y-42362295D02*
X29647619Y-42400390D01*
X29647619Y-42400390D02*
X29609524Y-42438485D01*
X29609524Y-42438485D02*
X29571428Y-42514676D01*
X29571428Y-42514676D02*
X29571428Y-42705152D01*
X29571428Y-42705152D02*
X29609524Y-42781342D01*
X29609524Y-42781342D02*
X29647619Y-42819438D01*
X29647619Y-42819438D02*
X29723809Y-42857533D01*
X29723809Y-42857533D02*
X29876190Y-42857533D01*
X29876190Y-42857533D02*
X29952381Y-42819438D01*
X29952381Y-42819438D02*
X29990476Y-42781342D01*
X29990476Y-42781342D02*
X30028571Y-42705152D01*
X31285714Y-43162295D02*
X31019047Y-42781342D01*
X30828571Y-43162295D02*
X30828571Y-42362295D01*
X30828571Y-42362295D02*
X31133333Y-42362295D01*
X31133333Y-42362295D02*
X31209523Y-42400390D01*
X31209523Y-42400390D02*
X31247618Y-42438485D01*
X31247618Y-42438485D02*
X31285714Y-42514676D01*
X31285714Y-42514676D02*
X31285714Y-42628961D01*
X31285714Y-42628961D02*
X31247618Y-42705152D01*
X31247618Y-42705152D02*
X31209523Y-42743247D01*
X31209523Y-42743247D02*
X31133333Y-42781342D01*
X31133333Y-42781342D02*
X30828571Y-42781342D01*
X32047618Y-43162295D02*
X31590475Y-43162295D01*
X31819047Y-43162295D02*
X31819047Y-42362295D01*
X31819047Y-42362295D02*
X31742856Y-42476580D01*
X31742856Y-42476580D02*
X31666666Y-42552771D01*
X31666666Y-42552771D02*
X31590475Y-42590866D01*
X32314285Y-42362295D02*
X32809523Y-42362295D01*
X32809523Y-42362295D02*
X32542857Y-42667057D01*
X32542857Y-42667057D02*
X32657142Y-42667057D01*
X32657142Y-42667057D02*
X32733333Y-42705152D01*
X32733333Y-42705152D02*
X32771428Y-42743247D01*
X32771428Y-42743247D02*
X32809523Y-42819438D01*
X32809523Y-42819438D02*
X32809523Y-43009914D01*
X32809523Y-43009914D02*
X32771428Y-43086104D01*
X32771428Y-43086104D02*
X32733333Y-43124200D01*
X32733333Y-43124200D02*
X32657142Y-43162295D01*
X32657142Y-43162295D02*
X32428571Y-43162295D01*
X32428571Y-43162295D02*
X32352380Y-43124200D01*
X32352380Y-43124200D02*
X32314285Y-43086104D01*
X23866667Y-36486104D02*
X23828571Y-36524200D01*
X23828571Y-36524200D02*
X23714286Y-36562295D01*
X23714286Y-36562295D02*
X23638095Y-36562295D01*
X23638095Y-36562295D02*
X23523809Y-36524200D01*
X23523809Y-36524200D02*
X23447619Y-36448009D01*
X23447619Y-36448009D02*
X23409524Y-36371819D01*
X23409524Y-36371819D02*
X23371428Y-36219438D01*
X23371428Y-36219438D02*
X23371428Y-36105152D01*
X23371428Y-36105152D02*
X23409524Y-35952771D01*
X23409524Y-35952771D02*
X23447619Y-35876580D01*
X23447619Y-35876580D02*
X23523809Y-35800390D01*
X23523809Y-35800390D02*
X23638095Y-35762295D01*
X23638095Y-35762295D02*
X23714286Y-35762295D01*
X23714286Y-35762295D02*
X23828571Y-35800390D01*
X23828571Y-35800390D02*
X23866667Y-35838485D01*
X24323809Y-36105152D02*
X24247619Y-36067057D01*
X24247619Y-36067057D02*
X24209524Y-36028961D01*
X24209524Y-36028961D02*
X24171428Y-35952771D01*
X24171428Y-35952771D02*
X24171428Y-35914676D01*
X24171428Y-35914676D02*
X24209524Y-35838485D01*
X24209524Y-35838485D02*
X24247619Y-35800390D01*
X24247619Y-35800390D02*
X24323809Y-35762295D01*
X24323809Y-35762295D02*
X24476190Y-35762295D01*
X24476190Y-35762295D02*
X24552381Y-35800390D01*
X24552381Y-35800390D02*
X24590476Y-35838485D01*
X24590476Y-35838485D02*
X24628571Y-35914676D01*
X24628571Y-35914676D02*
X24628571Y-35952771D01*
X24628571Y-35952771D02*
X24590476Y-36028961D01*
X24590476Y-36028961D02*
X24552381Y-36067057D01*
X24552381Y-36067057D02*
X24476190Y-36105152D01*
X24476190Y-36105152D02*
X24323809Y-36105152D01*
X24323809Y-36105152D02*
X24247619Y-36143247D01*
X24247619Y-36143247D02*
X24209524Y-36181342D01*
X24209524Y-36181342D02*
X24171428Y-36257533D01*
X24171428Y-36257533D02*
X24171428Y-36409914D01*
X24171428Y-36409914D02*
X24209524Y-36486104D01*
X24209524Y-36486104D02*
X24247619Y-36524200D01*
X24247619Y-36524200D02*
X24323809Y-36562295D01*
X24323809Y-36562295D02*
X24476190Y-36562295D01*
X24476190Y-36562295D02*
X24552381Y-36524200D01*
X24552381Y-36524200D02*
X24590476Y-36486104D01*
X24590476Y-36486104D02*
X24628571Y-36409914D01*
X24628571Y-36409914D02*
X24628571Y-36257533D01*
X24628571Y-36257533D02*
X24590476Y-36181342D01*
X24590476Y-36181342D02*
X24552381Y-36143247D01*
X24552381Y-36143247D02*
X24476190Y-36105152D01*
X16390476Y-44862295D02*
X16390476Y-45509914D01*
X16390476Y-45509914D02*
X16428571Y-45586104D01*
X16428571Y-45586104D02*
X16466666Y-45624200D01*
X16466666Y-45624200D02*
X16542857Y-45662295D01*
X16542857Y-45662295D02*
X16695238Y-45662295D01*
X16695238Y-45662295D02*
X16771428Y-45624200D01*
X16771428Y-45624200D02*
X16809523Y-45586104D01*
X16809523Y-45586104D02*
X16847619Y-45509914D01*
X16847619Y-45509914D02*
X16847619Y-44862295D01*
X17609523Y-44862295D02*
X17228571Y-44862295D01*
X17228571Y-44862295D02*
X17190475Y-45243247D01*
X17190475Y-45243247D02*
X17228571Y-45205152D01*
X17228571Y-45205152D02*
X17304761Y-45167057D01*
X17304761Y-45167057D02*
X17495237Y-45167057D01*
X17495237Y-45167057D02*
X17571428Y-45205152D01*
X17571428Y-45205152D02*
X17609523Y-45243247D01*
X17609523Y-45243247D02*
X17647618Y-45319438D01*
X17647618Y-45319438D02*
X17647618Y-45509914D01*
X17647618Y-45509914D02*
X17609523Y-45586104D01*
X17609523Y-45586104D02*
X17571428Y-45624200D01*
X17571428Y-45624200D02*
X17495237Y-45662295D01*
X17495237Y-45662295D02*
X17304761Y-45662295D01*
X17304761Y-45662295D02*
X17228571Y-45624200D01*
X17228571Y-45624200D02*
X17190475Y-45586104D01*
X13985714Y-37486104D02*
X13947618Y-37524200D01*
X13947618Y-37524200D02*
X13833333Y-37562295D01*
X13833333Y-37562295D02*
X13757142Y-37562295D01*
X13757142Y-37562295D02*
X13642856Y-37524200D01*
X13642856Y-37524200D02*
X13566666Y-37448009D01*
X13566666Y-37448009D02*
X13528571Y-37371819D01*
X13528571Y-37371819D02*
X13490475Y-37219438D01*
X13490475Y-37219438D02*
X13490475Y-37105152D01*
X13490475Y-37105152D02*
X13528571Y-36952771D01*
X13528571Y-36952771D02*
X13566666Y-36876580D01*
X13566666Y-36876580D02*
X13642856Y-36800390D01*
X13642856Y-36800390D02*
X13757142Y-36762295D01*
X13757142Y-36762295D02*
X13833333Y-36762295D01*
X13833333Y-36762295D02*
X13947618Y-36800390D01*
X13947618Y-36800390D02*
X13985714Y-36838485D01*
X14747618Y-37562295D02*
X14290475Y-37562295D01*
X14519047Y-37562295D02*
X14519047Y-36762295D01*
X14519047Y-36762295D02*
X14442856Y-36876580D01*
X14442856Y-36876580D02*
X14366666Y-36952771D01*
X14366666Y-36952771D02*
X14290475Y-36990866D01*
X15014285Y-36762295D02*
X15509523Y-36762295D01*
X15509523Y-36762295D02*
X15242857Y-37067057D01*
X15242857Y-37067057D02*
X15357142Y-37067057D01*
X15357142Y-37067057D02*
X15433333Y-37105152D01*
X15433333Y-37105152D02*
X15471428Y-37143247D01*
X15471428Y-37143247D02*
X15509523Y-37219438D01*
X15509523Y-37219438D02*
X15509523Y-37409914D01*
X15509523Y-37409914D02*
X15471428Y-37486104D01*
X15471428Y-37486104D02*
X15433333Y-37524200D01*
X15433333Y-37524200D02*
X15357142Y-37562295D01*
X15357142Y-37562295D02*
X15128571Y-37562295D01*
X15128571Y-37562295D02*
X15052380Y-37524200D01*
X15052380Y-37524200D02*
X15014285Y-37486104D01*
X19809524Y-48462295D02*
X19809524Y-47662295D01*
X19809524Y-47662295D02*
X20000000Y-47662295D01*
X20000000Y-47662295D02*
X20114286Y-47700390D01*
X20114286Y-47700390D02*
X20190476Y-47776580D01*
X20190476Y-47776580D02*
X20228571Y-47852771D01*
X20228571Y-47852771D02*
X20266667Y-48005152D01*
X20266667Y-48005152D02*
X20266667Y-48119438D01*
X20266667Y-48119438D02*
X20228571Y-48271819D01*
X20228571Y-48271819D02*
X20190476Y-48348009D01*
X20190476Y-48348009D02*
X20114286Y-48424200D01*
X20114286Y-48424200D02*
X20000000Y-48462295D01*
X20000000Y-48462295D02*
X19809524Y-48462295D01*
X20533333Y-47662295D02*
X21028571Y-47662295D01*
X21028571Y-47662295D02*
X20761905Y-47967057D01*
X20761905Y-47967057D02*
X20876190Y-47967057D01*
X20876190Y-47967057D02*
X20952381Y-48005152D01*
X20952381Y-48005152D02*
X20990476Y-48043247D01*
X20990476Y-48043247D02*
X21028571Y-48119438D01*
X21028571Y-48119438D02*
X21028571Y-48309914D01*
X21028571Y-48309914D02*
X20990476Y-48386104D01*
X20990476Y-48386104D02*
X20952381Y-48424200D01*
X20952381Y-48424200D02*
X20876190Y-48462295D01*
X20876190Y-48462295D02*
X20647619Y-48462295D01*
X20647619Y-48462295D02*
X20571428Y-48424200D01*
X20571428Y-48424200D02*
X20533333Y-48386104D01*
X23266667Y-20362295D02*
X23000000Y-19981342D01*
X22809524Y-20362295D02*
X22809524Y-19562295D01*
X22809524Y-19562295D02*
X23114286Y-19562295D01*
X23114286Y-19562295D02*
X23190476Y-19600390D01*
X23190476Y-19600390D02*
X23228571Y-19638485D01*
X23228571Y-19638485D02*
X23266667Y-19714676D01*
X23266667Y-19714676D02*
X23266667Y-19828961D01*
X23266667Y-19828961D02*
X23228571Y-19905152D01*
X23228571Y-19905152D02*
X23190476Y-19943247D01*
X23190476Y-19943247D02*
X23114286Y-19981342D01*
X23114286Y-19981342D02*
X22809524Y-19981342D01*
X23533333Y-19562295D02*
X24066667Y-19562295D01*
X24066667Y-19562295D02*
X23723809Y-20362295D01*
X23266667Y-23862295D02*
X23000000Y-23481342D01*
X22809524Y-23862295D02*
X22809524Y-23062295D01*
X22809524Y-23062295D02*
X23114286Y-23062295D01*
X23114286Y-23062295D02*
X23190476Y-23100390D01*
X23190476Y-23100390D02*
X23228571Y-23138485D01*
X23228571Y-23138485D02*
X23266667Y-23214676D01*
X23266667Y-23214676D02*
X23266667Y-23328961D01*
X23266667Y-23328961D02*
X23228571Y-23405152D01*
X23228571Y-23405152D02*
X23190476Y-23443247D01*
X23190476Y-23443247D02*
X23114286Y-23481342D01*
X23114286Y-23481342D02*
X22809524Y-23481342D01*
X23723809Y-23405152D02*
X23647619Y-23367057D01*
X23647619Y-23367057D02*
X23609524Y-23328961D01*
X23609524Y-23328961D02*
X23571428Y-23252771D01*
X23571428Y-23252771D02*
X23571428Y-23214676D01*
X23571428Y-23214676D02*
X23609524Y-23138485D01*
X23609524Y-23138485D02*
X23647619Y-23100390D01*
X23647619Y-23100390D02*
X23723809Y-23062295D01*
X23723809Y-23062295D02*
X23876190Y-23062295D01*
X23876190Y-23062295D02*
X23952381Y-23100390D01*
X23952381Y-23100390D02*
X23990476Y-23138485D01*
X23990476Y-23138485D02*
X24028571Y-23214676D01*
X24028571Y-23214676D02*
X24028571Y-23252771D01*
X24028571Y-23252771D02*
X23990476Y-23328961D01*
X23990476Y-23328961D02*
X23952381Y-23367057D01*
X23952381Y-23367057D02*
X23876190Y-23405152D01*
X23876190Y-23405152D02*
X23723809Y-23405152D01*
X23723809Y-23405152D02*
X23647619Y-23443247D01*
X23647619Y-23443247D02*
X23609524Y-23481342D01*
X23609524Y-23481342D02*
X23571428Y-23557533D01*
X23571428Y-23557533D02*
X23571428Y-23709914D01*
X23571428Y-23709914D02*
X23609524Y-23786104D01*
X23609524Y-23786104D02*
X23647619Y-23824200D01*
X23647619Y-23824200D02*
X23723809Y-23862295D01*
X23723809Y-23862295D02*
X23876190Y-23862295D01*
X23876190Y-23862295D02*
X23952381Y-23824200D01*
X23952381Y-23824200D02*
X23990476Y-23786104D01*
X23990476Y-23786104D02*
X24028571Y-23709914D01*
X24028571Y-23709914D02*
X24028571Y-23557533D01*
X24028571Y-23557533D02*
X23990476Y-23481342D01*
X23990476Y-23481342D02*
X23952381Y-23443247D01*
X23952381Y-23443247D02*
X23876190Y-23405152D01*
X24485714Y-22086104D02*
X24447618Y-22124200D01*
X24447618Y-22124200D02*
X24333333Y-22162295D01*
X24333333Y-22162295D02*
X24257142Y-22162295D01*
X24257142Y-22162295D02*
X24142856Y-22124200D01*
X24142856Y-22124200D02*
X24066666Y-22048009D01*
X24066666Y-22048009D02*
X24028571Y-21971819D01*
X24028571Y-21971819D02*
X23990475Y-21819438D01*
X23990475Y-21819438D02*
X23990475Y-21705152D01*
X23990475Y-21705152D02*
X24028571Y-21552771D01*
X24028571Y-21552771D02*
X24066666Y-21476580D01*
X24066666Y-21476580D02*
X24142856Y-21400390D01*
X24142856Y-21400390D02*
X24257142Y-21362295D01*
X24257142Y-21362295D02*
X24333333Y-21362295D01*
X24333333Y-21362295D02*
X24447618Y-21400390D01*
X24447618Y-21400390D02*
X24485714Y-21438485D01*
X25247618Y-22162295D02*
X24790475Y-22162295D01*
X25019047Y-22162295D02*
X25019047Y-21362295D01*
X25019047Y-21362295D02*
X24942856Y-21476580D01*
X24942856Y-21476580D02*
X24866666Y-21552771D01*
X24866666Y-21552771D02*
X24790475Y-21590866D01*
X25933333Y-21628961D02*
X25933333Y-22162295D01*
X25742857Y-21324200D02*
X25552380Y-21895628D01*
X25552380Y-21895628D02*
X26047619Y-21895628D01*
X10033332Y-42324200D02*
X10147618Y-42362295D01*
X10147618Y-42362295D02*
X10338094Y-42362295D01*
X10338094Y-42362295D02*
X10414285Y-42324200D01*
X10414285Y-42324200D02*
X10452380Y-42286104D01*
X10452380Y-42286104D02*
X10490475Y-42209914D01*
X10490475Y-42209914D02*
X10490475Y-42133723D01*
X10490475Y-42133723D02*
X10452380Y-42057533D01*
X10452380Y-42057533D02*
X10414285Y-42019438D01*
X10414285Y-42019438D02*
X10338094Y-41981342D01*
X10338094Y-41981342D02*
X10185713Y-41943247D01*
X10185713Y-41943247D02*
X10109523Y-41905152D01*
X10109523Y-41905152D02*
X10071428Y-41867057D01*
X10071428Y-41867057D02*
X10033332Y-41790866D01*
X10033332Y-41790866D02*
X10033332Y-41714676D01*
X10033332Y-41714676D02*
X10071428Y-41638485D01*
X10071428Y-41638485D02*
X10109523Y-41600390D01*
X10109523Y-41600390D02*
X10185713Y-41562295D01*
X10185713Y-41562295D02*
X10376190Y-41562295D01*
X10376190Y-41562295D02*
X10490475Y-41600390D01*
X10757142Y-41562295D02*
X10947618Y-42362295D01*
X10947618Y-42362295D02*
X11099999Y-41790866D01*
X11099999Y-41790866D02*
X11252380Y-42362295D01*
X11252380Y-42362295D02*
X11442857Y-41562295D01*
X12166666Y-42362295D02*
X11709523Y-42362295D01*
X11938095Y-42362295D02*
X11938095Y-41562295D01*
X11938095Y-41562295D02*
X11861904Y-41676580D01*
X11861904Y-41676580D02*
X11785714Y-41752771D01*
X11785714Y-41752771D02*
X11709523Y-41790866D01*
X10033332Y-23824200D02*
X10147618Y-23862295D01*
X10147618Y-23862295D02*
X10338094Y-23862295D01*
X10338094Y-23862295D02*
X10414285Y-23824200D01*
X10414285Y-23824200D02*
X10452380Y-23786104D01*
X10452380Y-23786104D02*
X10490475Y-23709914D01*
X10490475Y-23709914D02*
X10490475Y-23633723D01*
X10490475Y-23633723D02*
X10452380Y-23557533D01*
X10452380Y-23557533D02*
X10414285Y-23519438D01*
X10414285Y-23519438D02*
X10338094Y-23481342D01*
X10338094Y-23481342D02*
X10185713Y-23443247D01*
X10185713Y-23443247D02*
X10109523Y-23405152D01*
X10109523Y-23405152D02*
X10071428Y-23367057D01*
X10071428Y-23367057D02*
X10033332Y-23290866D01*
X10033332Y-23290866D02*
X10033332Y-23214676D01*
X10033332Y-23214676D02*
X10071428Y-23138485D01*
X10071428Y-23138485D02*
X10109523Y-23100390D01*
X10109523Y-23100390D02*
X10185713Y-23062295D01*
X10185713Y-23062295D02*
X10376190Y-23062295D01*
X10376190Y-23062295D02*
X10490475Y-23100390D01*
X10757142Y-23062295D02*
X10947618Y-23862295D01*
X10947618Y-23862295D02*
X11099999Y-23290866D01*
X11099999Y-23290866D02*
X11252380Y-23862295D01*
X11252380Y-23862295D02*
X11442857Y-23062295D01*
X11709523Y-23138485D02*
X11747619Y-23100390D01*
X11747619Y-23100390D02*
X11823809Y-23062295D01*
X11823809Y-23062295D02*
X12014285Y-23062295D01*
X12014285Y-23062295D02*
X12090476Y-23100390D01*
X12090476Y-23100390D02*
X12128571Y-23138485D01*
X12128571Y-23138485D02*
X12166666Y-23214676D01*
X12166666Y-23214676D02*
X12166666Y-23290866D01*
X12166666Y-23290866D02*
X12128571Y-23405152D01*
X12128571Y-23405152D02*
X11671428Y-23862295D01*
X11671428Y-23862295D02*
X12166666Y-23862295D01*
X10985714Y-38762295D02*
X10719047Y-38381342D01*
X10528571Y-38762295D02*
X10528571Y-37962295D01*
X10528571Y-37962295D02*
X10833333Y-37962295D01*
X10833333Y-37962295D02*
X10909523Y-38000390D01*
X10909523Y-38000390D02*
X10947618Y-38038485D01*
X10947618Y-38038485D02*
X10985714Y-38114676D01*
X10985714Y-38114676D02*
X10985714Y-38228961D01*
X10985714Y-38228961D02*
X10947618Y-38305152D01*
X10947618Y-38305152D02*
X10909523Y-38343247D01*
X10909523Y-38343247D02*
X10833333Y-38381342D01*
X10833333Y-38381342D02*
X10528571Y-38381342D01*
X11747618Y-38762295D02*
X11290475Y-38762295D01*
X11519047Y-38762295D02*
X11519047Y-37962295D01*
X11519047Y-37962295D02*
X11442856Y-38076580D01*
X11442856Y-38076580D02*
X11366666Y-38152771D01*
X11366666Y-38152771D02*
X11290475Y-38190866D01*
X12509523Y-38762295D02*
X12052380Y-38762295D01*
X12280952Y-38762295D02*
X12280952Y-37962295D01*
X12280952Y-37962295D02*
X12204761Y-38076580D01*
X12204761Y-38076580D02*
X12128571Y-38152771D01*
X12128571Y-38152771D02*
X12052380Y-38190866D01*
X10985714Y-20262295D02*
X10719047Y-19881342D01*
X10528571Y-20262295D02*
X10528571Y-19462295D01*
X10528571Y-19462295D02*
X10833333Y-19462295D01*
X10833333Y-19462295D02*
X10909523Y-19500390D01*
X10909523Y-19500390D02*
X10947618Y-19538485D01*
X10947618Y-19538485D02*
X10985714Y-19614676D01*
X10985714Y-19614676D02*
X10985714Y-19728961D01*
X10985714Y-19728961D02*
X10947618Y-19805152D01*
X10947618Y-19805152D02*
X10909523Y-19843247D01*
X10909523Y-19843247D02*
X10833333Y-19881342D01*
X10833333Y-19881342D02*
X10528571Y-19881342D01*
X11747618Y-20262295D02*
X11290475Y-20262295D01*
X11519047Y-20262295D02*
X11519047Y-19462295D01*
X11519047Y-19462295D02*
X11442856Y-19576580D01*
X11442856Y-19576580D02*
X11366666Y-19652771D01*
X11366666Y-19652771D02*
X11290475Y-19690866D01*
X12052380Y-19538485D02*
X12090476Y-19500390D01*
X12090476Y-19500390D02*
X12166666Y-19462295D01*
X12166666Y-19462295D02*
X12357142Y-19462295D01*
X12357142Y-19462295D02*
X12433333Y-19500390D01*
X12433333Y-19500390D02*
X12471428Y-19538485D01*
X12471428Y-19538485D02*
X12509523Y-19614676D01*
X12509523Y-19614676D02*
X12509523Y-19690866D01*
X12509523Y-19690866D02*
X12471428Y-19805152D01*
X12471428Y-19805152D02*
X12014285Y-20262295D01*
X12014285Y-20262295D02*
X12509523Y-20262295D01*
X21866667Y-29232295D02*
X21600000Y-28851342D01*
X21409524Y-29232295D02*
X21409524Y-28432295D01*
X21409524Y-28432295D02*
X21714286Y-28432295D01*
X21714286Y-28432295D02*
X21790476Y-28470390D01*
X21790476Y-28470390D02*
X21828571Y-28508485D01*
X21828571Y-28508485D02*
X21866667Y-28584676D01*
X21866667Y-28584676D02*
X21866667Y-28698961D01*
X21866667Y-28698961D02*
X21828571Y-28775152D01*
X21828571Y-28775152D02*
X21790476Y-28813247D01*
X21790476Y-28813247D02*
X21714286Y-28851342D01*
X21714286Y-28851342D02*
X21409524Y-28851342D01*
X22247619Y-29232295D02*
X22400000Y-29232295D01*
X22400000Y-29232295D02*
X22476190Y-29194200D01*
X22476190Y-29194200D02*
X22514286Y-29156104D01*
X22514286Y-29156104D02*
X22590476Y-29041819D01*
X22590476Y-29041819D02*
X22628571Y-28889438D01*
X22628571Y-28889438D02*
X22628571Y-28584676D01*
X22628571Y-28584676D02*
X22590476Y-28508485D01*
X22590476Y-28508485D02*
X22552381Y-28470390D01*
X22552381Y-28470390D02*
X22476190Y-28432295D01*
X22476190Y-28432295D02*
X22323809Y-28432295D01*
X22323809Y-28432295D02*
X22247619Y-28470390D01*
X22247619Y-28470390D02*
X22209524Y-28508485D01*
X22209524Y-28508485D02*
X22171428Y-28584676D01*
X22171428Y-28584676D02*
X22171428Y-28775152D01*
X22171428Y-28775152D02*
X22209524Y-28851342D01*
X22209524Y-28851342D02*
X22247619Y-28889438D01*
X22247619Y-28889438D02*
X22323809Y-28927533D01*
X22323809Y-28927533D02*
X22476190Y-28927533D01*
X22476190Y-28927533D02*
X22552381Y-28889438D01*
X22552381Y-28889438D02*
X22590476Y-28851342D01*
X22590476Y-28851342D02*
X22628571Y-28775152D01*
X21485714Y-30262295D02*
X21219047Y-29881342D01*
X21028571Y-30262295D02*
X21028571Y-29462295D01*
X21028571Y-29462295D02*
X21333333Y-29462295D01*
X21333333Y-29462295D02*
X21409523Y-29500390D01*
X21409523Y-29500390D02*
X21447618Y-29538485D01*
X21447618Y-29538485D02*
X21485714Y-29614676D01*
X21485714Y-29614676D02*
X21485714Y-29728961D01*
X21485714Y-29728961D02*
X21447618Y-29805152D01*
X21447618Y-29805152D02*
X21409523Y-29843247D01*
X21409523Y-29843247D02*
X21333333Y-29881342D01*
X21333333Y-29881342D02*
X21028571Y-29881342D01*
X22247618Y-30262295D02*
X21790475Y-30262295D01*
X22019047Y-30262295D02*
X22019047Y-29462295D01*
X22019047Y-29462295D02*
X21942856Y-29576580D01*
X21942856Y-29576580D02*
X21866666Y-29652771D01*
X21866666Y-29652771D02*
X21790475Y-29690866D01*
X22742857Y-29462295D02*
X22819047Y-29462295D01*
X22819047Y-29462295D02*
X22895238Y-29500390D01*
X22895238Y-29500390D02*
X22933333Y-29538485D01*
X22933333Y-29538485D02*
X22971428Y-29614676D01*
X22971428Y-29614676D02*
X23009523Y-29767057D01*
X23009523Y-29767057D02*
X23009523Y-29957533D01*
X23009523Y-29957533D02*
X22971428Y-30109914D01*
X22971428Y-30109914D02*
X22933333Y-30186104D01*
X22933333Y-30186104D02*
X22895238Y-30224200D01*
X22895238Y-30224200D02*
X22819047Y-30262295D01*
X22819047Y-30262295D02*
X22742857Y-30262295D01*
X22742857Y-30262295D02*
X22666666Y-30224200D01*
X22666666Y-30224200D02*
X22628571Y-30186104D01*
X22628571Y-30186104D02*
X22590476Y-30109914D01*
X22590476Y-30109914D02*
X22552380Y-29957533D01*
X22552380Y-29957533D02*
X22552380Y-29767057D01*
X22552380Y-29767057D02*
X22590476Y-29614676D01*
X22590476Y-29614676D02*
X22628571Y-29538485D01*
X22628571Y-29538485D02*
X22666666Y-29500390D01*
X22666666Y-29500390D02*
X22742857Y-29462295D01*
X25485714Y-34286104D02*
X25447618Y-34324200D01*
X25447618Y-34324200D02*
X25333333Y-34362295D01*
X25333333Y-34362295D02*
X25257142Y-34362295D01*
X25257142Y-34362295D02*
X25142856Y-34324200D01*
X25142856Y-34324200D02*
X25066666Y-34248009D01*
X25066666Y-34248009D02*
X25028571Y-34171819D01*
X25028571Y-34171819D02*
X24990475Y-34019438D01*
X24990475Y-34019438D02*
X24990475Y-33905152D01*
X24990475Y-33905152D02*
X25028571Y-33752771D01*
X25028571Y-33752771D02*
X25066666Y-33676580D01*
X25066666Y-33676580D02*
X25142856Y-33600390D01*
X25142856Y-33600390D02*
X25257142Y-33562295D01*
X25257142Y-33562295D02*
X25333333Y-33562295D01*
X25333333Y-33562295D02*
X25447618Y-33600390D01*
X25447618Y-33600390D02*
X25485714Y-33638485D01*
X26247618Y-34362295D02*
X25790475Y-34362295D01*
X26019047Y-34362295D02*
X26019047Y-33562295D01*
X26019047Y-33562295D02*
X25942856Y-33676580D01*
X25942856Y-33676580D02*
X25866666Y-33752771D01*
X25866666Y-33752771D02*
X25790475Y-33790866D01*
X26742857Y-33562295D02*
X26819047Y-33562295D01*
X26819047Y-33562295D02*
X26895238Y-33600390D01*
X26895238Y-33600390D02*
X26933333Y-33638485D01*
X26933333Y-33638485D02*
X26971428Y-33714676D01*
X26971428Y-33714676D02*
X27009523Y-33867057D01*
X27009523Y-33867057D02*
X27009523Y-34057533D01*
X27009523Y-34057533D02*
X26971428Y-34209914D01*
X26971428Y-34209914D02*
X26933333Y-34286104D01*
X26933333Y-34286104D02*
X26895238Y-34324200D01*
X26895238Y-34324200D02*
X26819047Y-34362295D01*
X26819047Y-34362295D02*
X26742857Y-34362295D01*
X26742857Y-34362295D02*
X26666666Y-34324200D01*
X26666666Y-34324200D02*
X26628571Y-34286104D01*
X26628571Y-34286104D02*
X26590476Y-34209914D01*
X26590476Y-34209914D02*
X26552380Y-34057533D01*
X26552380Y-34057533D02*
X26552380Y-33867057D01*
X26552380Y-33867057D02*
X26590476Y-33714676D01*
X26590476Y-33714676D02*
X26628571Y-33638485D01*
X26628571Y-33638485D02*
X26666666Y-33600390D01*
X26666666Y-33600390D02*
X26742857Y-33562295D01*
X25485714Y-25286104D02*
X25447618Y-25324200D01*
X25447618Y-25324200D02*
X25333333Y-25362295D01*
X25333333Y-25362295D02*
X25257142Y-25362295D01*
X25257142Y-25362295D02*
X25142856Y-25324200D01*
X25142856Y-25324200D02*
X25066666Y-25248009D01*
X25066666Y-25248009D02*
X25028571Y-25171819D01*
X25028571Y-25171819D02*
X24990475Y-25019438D01*
X24990475Y-25019438D02*
X24990475Y-24905152D01*
X24990475Y-24905152D02*
X25028571Y-24752771D01*
X25028571Y-24752771D02*
X25066666Y-24676580D01*
X25066666Y-24676580D02*
X25142856Y-24600390D01*
X25142856Y-24600390D02*
X25257142Y-24562295D01*
X25257142Y-24562295D02*
X25333333Y-24562295D01*
X25333333Y-24562295D02*
X25447618Y-24600390D01*
X25447618Y-24600390D02*
X25485714Y-24638485D01*
X26247618Y-25362295D02*
X25790475Y-25362295D01*
X26019047Y-25362295D02*
X26019047Y-24562295D01*
X26019047Y-24562295D02*
X25942856Y-24676580D01*
X25942856Y-24676580D02*
X25866666Y-24752771D01*
X25866666Y-24752771D02*
X25790475Y-24790866D01*
X27009523Y-25362295D02*
X26552380Y-25362295D01*
X26780952Y-25362295D02*
X26780952Y-24562295D01*
X26780952Y-24562295D02*
X26704761Y-24676580D01*
X26704761Y-24676580D02*
X26628571Y-24752771D01*
X26628571Y-24752771D02*
X26552380Y-24790866D01*
X64890476Y-11062295D02*
X65347619Y-11062295D01*
X65119047Y-11862295D02*
X65119047Y-11062295D01*
X65614286Y-11862295D02*
X65614286Y-11062295D01*
X65614286Y-11062295D02*
X65919048Y-11062295D01*
X65919048Y-11062295D02*
X65995238Y-11100390D01*
X65995238Y-11100390D02*
X66033333Y-11138485D01*
X66033333Y-11138485D02*
X66071429Y-11214676D01*
X66071429Y-11214676D02*
X66071429Y-11328961D01*
X66071429Y-11328961D02*
X66033333Y-11405152D01*
X66033333Y-11405152D02*
X65995238Y-11443247D01*
X65995238Y-11443247D02*
X65919048Y-11481342D01*
X65919048Y-11481342D02*
X65614286Y-11481342D01*
X66833333Y-11862295D02*
X66376190Y-11862295D01*
X66604762Y-11862295D02*
X66604762Y-11062295D01*
X66604762Y-11062295D02*
X66528571Y-11176580D01*
X66528571Y-11176580D02*
X66452381Y-11252771D01*
X66452381Y-11252771D02*
X66376190Y-11290866D01*
X11990476Y-48062295D02*
X12447619Y-48062295D01*
X12219047Y-48862295D02*
X12219047Y-48062295D01*
X12714286Y-48862295D02*
X12714286Y-48062295D01*
X12714286Y-48062295D02*
X13019048Y-48062295D01*
X13019048Y-48062295D02*
X13095238Y-48100390D01*
X13095238Y-48100390D02*
X13133333Y-48138485D01*
X13133333Y-48138485D02*
X13171429Y-48214676D01*
X13171429Y-48214676D02*
X13171429Y-48328961D01*
X13171429Y-48328961D02*
X13133333Y-48405152D01*
X13133333Y-48405152D02*
X13095238Y-48443247D01*
X13095238Y-48443247D02*
X13019048Y-48481342D01*
X13019048Y-48481342D02*
X12714286Y-48481342D01*
X13476190Y-48138485D02*
X13514286Y-48100390D01*
X13514286Y-48100390D02*
X13590476Y-48062295D01*
X13590476Y-48062295D02*
X13780952Y-48062295D01*
X13780952Y-48062295D02*
X13857143Y-48100390D01*
X13857143Y-48100390D02*
X13895238Y-48138485D01*
X13895238Y-48138485D02*
X13933333Y-48214676D01*
X13933333Y-48214676D02*
X13933333Y-48290866D01*
X13933333Y-48290866D02*
X13895238Y-48405152D01*
X13895238Y-48405152D02*
X13438095Y-48862295D01*
X13438095Y-48862295D02*
X13933333Y-48862295D01*
X62690476Y-37562295D02*
X63147619Y-37562295D01*
X62919047Y-38362295D02*
X62919047Y-37562295D01*
X63414286Y-38362295D02*
X63414286Y-37562295D01*
X63414286Y-37562295D02*
X63719048Y-37562295D01*
X63719048Y-37562295D02*
X63795238Y-37600390D01*
X63795238Y-37600390D02*
X63833333Y-37638485D01*
X63833333Y-37638485D02*
X63871429Y-37714676D01*
X63871429Y-37714676D02*
X63871429Y-37828961D01*
X63871429Y-37828961D02*
X63833333Y-37905152D01*
X63833333Y-37905152D02*
X63795238Y-37943247D01*
X63795238Y-37943247D02*
X63719048Y-37981342D01*
X63719048Y-37981342D02*
X63414286Y-37981342D01*
X64138095Y-37562295D02*
X64633333Y-37562295D01*
X64633333Y-37562295D02*
X64366667Y-37867057D01*
X64366667Y-37867057D02*
X64480952Y-37867057D01*
X64480952Y-37867057D02*
X64557143Y-37905152D01*
X64557143Y-37905152D02*
X64595238Y-37943247D01*
X64595238Y-37943247D02*
X64633333Y-38019438D01*
X64633333Y-38019438D02*
X64633333Y-38209914D01*
X64633333Y-38209914D02*
X64595238Y-38286104D01*
X64595238Y-38286104D02*
X64557143Y-38324200D01*
X64557143Y-38324200D02*
X64480952Y-38362295D01*
X64480952Y-38362295D02*
X64252381Y-38362295D01*
X64252381Y-38362295D02*
X64176190Y-38324200D01*
X64176190Y-38324200D02*
X64138095Y-38286104D01*
%TO.C,J1*%
D11*
X9000000Y-1000000D02*
X9000000Y-5000000D01*
X9000000Y-1000000D02*
X19000000Y-1000000D01*
X9000000Y-5000000D02*
X19000000Y-5000000D01*
X19000000Y-1000000D02*
X19000000Y-5000000D01*
%TO.C,J6*%
X49000000Y-1000000D02*
X49000000Y-5000000D01*
X49000000Y-1000000D02*
X59000000Y-1000000D01*
X49000000Y-5000000D02*
X59000000Y-5000000D01*
X59000000Y-1000000D02*
X59000000Y-5000000D01*
%TO.C,J2*%
X33000000Y-45000000D02*
X33000000Y-49000000D01*
X33000000Y-45000000D02*
X43000000Y-45000000D01*
X33000000Y-49000000D02*
X43000000Y-49000000D01*
X43000000Y-45000000D02*
X43000000Y-49000000D01*
%TO.C,J5*%
X4900000Y-16000000D02*
X4900000Y-7000000D01*
X11500000Y-16000000D02*
X11500000Y-7000000D01*
%TO.C,J4*%
X2230000Y-26730000D02*
X4770000Y-26730000D01*
%TO.C,J3*%
X59730000Y-13730000D02*
X59730000Y-16270000D01*
X59730000Y-13730000D02*
X62270000Y-13730000D01*
%TO.C,D1*%
D12*
X14600000Y-9000000D02*
X14600000Y-7000000D01*
D11*
X16300000Y-6850000D02*
X11700000Y-6850000D01*
X16300000Y-9150000D02*
X11700000Y-9150000D01*
%TO.C,D5*%
D12*
X54600000Y-9000000D02*
X54600000Y-7000000D01*
D11*
X56300000Y-6850000D02*
X51700000Y-6850000D01*
X56300000Y-9150000D02*
X51700000Y-9150000D01*
%TO.C,D4*%
D12*
X17600000Y-14000000D02*
X17600000Y-12000000D01*
D11*
X19300000Y-11850000D02*
X14700000Y-11850000D01*
X19300000Y-14150000D02*
X14700000Y-14150000D01*
%TO.C,TVS1*%
D12*
X15100000Y-11200000D02*
X15100000Y-9200000D01*
D11*
X16800000Y-9050000D02*
X12200000Y-9050000D01*
X16800000Y-11350000D02*
X12200000Y-11350000D01*
%TO.C,TVS2*%
X62350000Y-42200000D02*
X62350000Y-46800000D01*
D12*
X64500000Y-43900000D02*
X62500000Y-43900000D01*
D11*
X64650000Y-42200000D02*
X64650000Y-46800000D01*
%TO.C,F1*%
X21700000Y-6400000D02*
X26300000Y-6400000D01*
X21700000Y-9600000D02*
X26300000Y-9600000D01*
%TO.C,U3*%
D13*
X24350000Y-12200000D02*
G75*
G02*
X24050000Y-12200000I-150000J0D01*
G01*
X24050000Y-12200000D02*
G75*
G02*
X24350000Y-12200000I150000J0D01*
G01*
%TO.C,U1*%
D11*
X35300000Y-24490000D02*
X32700000Y-24490000D01*
X35300000Y-33510000D02*
X32700000Y-33510000D01*
D13*
X38100000Y-32810000D02*
G75*
G02*
X37800000Y-32810000I-150000J0D01*
G01*
X37800000Y-32810000D02*
G75*
G02*
X38100000Y-32810000I150000J0D01*
G01*
%TO.C,U2*%
D11*
X49300000Y-18855000D02*
X56700000Y-18855000D01*
X49300000Y-29145000D02*
X56700000Y-29145000D01*
D13*
X46750000Y-19555000D02*
G75*
G02*
X46450000Y-19555000I-150000J0D01*
G01*
X46450000Y-19555000D02*
G75*
G02*
X46750000Y-19555000I150000J0D01*
G01*
%TO.C,D2*%
D14*
X52800000Y-32300000D02*
X52800000Y-30700000D01*
%TO.C,SC1*%
D10*
X59000000Y-34500000D02*
G75*
G02*
X54000000Y-34500000I-2500000J0D01*
G01*
X54000000Y-34500000D02*
G75*
G02*
X59000000Y-34500000I2500000J0D01*
G01*
%TO.C,C1*%
X61000000Y-43000000D02*
G75*
G02*
X53000000Y-43000000I-4000000J0D01*
G01*
X53000000Y-43000000D02*
G75*
G02*
X61000000Y-43000000I4000000J0D01*
G01*
%TO.C,U4*%
D11*
X42700000Y-37395000D02*
X45300000Y-37395000D01*
X42700000Y-42605000D02*
X45300000Y-42605000D01*
D13*
X40200000Y-38095000D02*
G75*
G02*
X39900000Y-38095000I-150000J0D01*
G01*
X39900000Y-38095000D02*
G75*
G02*
X40200000Y-38095000I150000J0D01*
G01*
%TO.C,D6*%
D14*
X34300000Y-38800000D02*
X34300000Y-37200000D01*
%TO.C,U6*%
D11*
X23450000Y-39550000D02*
X24550000Y-39550000D01*
X23450000Y-42450000D02*
X24550000Y-42450000D01*
D13*
X21900000Y-40250000D02*
G75*
G02*
X21600000Y-40250000I-150000J0D01*
G01*
X21600000Y-40250000D02*
G75*
G02*
X21900000Y-40250000I150000J0D01*
G01*
%TO.C,U5*%
X15350000Y-40700000D02*
G75*
G02*
X15050000Y-40700000I-150000J0D01*
G01*
X15050000Y-40700000D02*
G75*
G02*
X15350000Y-40700000I150000J0D01*
G01*
%TO.C,D3*%
D14*
X19100000Y-44500000D02*
X19100000Y-46100000D01*
%TO.C,SW1*%
D11*
X2400000Y-38900000D02*
X8600000Y-38900000D01*
X2400000Y-45100000D02*
X8600000Y-45100000D01*
D10*
X7100000Y-42000000D02*
G75*
G02*
X3900000Y-42000000I-1600000J0D01*
G01*
X3900000Y-42000000D02*
G75*
G02*
X7100000Y-42000000I1600000J0D01*
G01*
%TO.C,SW2*%
D11*
X2400000Y-20400000D02*
X8600000Y-20400000D01*
X2400000Y-26600000D02*
X8600000Y-26600000D01*
D10*
X7100000Y-23500000D02*
G75*
G02*
X3900000Y-23500000I-1600000J0D01*
G01*
X3900000Y-23500000D02*
G75*
G02*
X7100000Y-23500000I1600000J0D01*
G01*
%TO.C,TP1*%
X64550000Y-11500000D02*
G75*
G02*
X62450000Y-11500000I-1050000J0D01*
G01*
X62450000Y-11500000D02*
G75*
G02*
X64550000Y-11500000I1050000J0D01*
G01*
%TO.C,TP2*%
X14050000Y-46500000D02*
G75*
G02*
X11950000Y-46500000I-1050000J0D01*
G01*
X11950000Y-46500000D02*
G75*
G02*
X14050000Y-46500000I1050000J0D01*
G01*
%TO.C,TP3*%
X62550000Y-38000000D02*
G75*
G02*
X60450000Y-38000000I-1050000J0D01*
G01*
X60450000Y-38000000D02*
G75*
G02*
X62550000Y-38000000I1050000J0D01*
G01*
%TD*%
%LPC*%
D15*
%TO.C,H1*%
X3000000Y-3000000D03*
%TD*%
%TO.C,H2*%
X67000000Y-3000000D03*
%TD*%
%TO.C,H3*%
X3000000Y-47000000D03*
%TD*%
%TO.C,H4*%
X67000000Y-47000000D03*
%TD*%
D16*
%TO.C,J1*%
X11460000Y-3000000D03*
D17*
X16540000Y-3000000D03*
%TD*%
D16*
%TO.C,J6*%
X51460000Y-3000000D03*
D17*
X56540000Y-3000000D03*
%TD*%
D16*
%TO.C,J2*%
X35460000Y-47000000D03*
D17*
X40540000Y-47000000D03*
%TD*%
D18*
%TO.C,J5*%
X6500000Y-10000000D03*
D19*
X9900000Y-10000000D03*
X8200000Y-13300000D03*
%TD*%
D20*
%TO.C,J4*%
X3500000Y-28000000D03*
D21*
X3500000Y-30540000D03*
X3500000Y-33080000D03*
X3500000Y-35620000D03*
%TD*%
D20*
%TO.C,J3*%
X61000000Y-15000000D03*
D21*
X63540000Y-15000000D03*
X61000000Y-17540000D03*
X63540000Y-17540000D03*
X61000000Y-20080000D03*
X63540000Y-20080000D03*
%TD*%
D22*
%TO.C,D1*%
X12000000Y-8000000D03*
X16000000Y-8000000D03*
%TD*%
%TO.C,D5*%
X52000000Y-8000000D03*
X56000000Y-8000000D03*
%TD*%
%TO.C,D4*%
X15000000Y-13000000D03*
X19000000Y-13000000D03*
%TD*%
%TO.C,TVS1*%
X12500000Y-10200000D03*
X16500000Y-10200000D03*
%TD*%
D23*
%TO.C,TVS2*%
X63500000Y-46500000D03*
X63500000Y-42500000D03*
%TD*%
D24*
%TO.C,F1*%
X22000000Y-8000000D03*
X26000000Y-8000000D03*
%TD*%
D25*
%TO.C,U3*%
X25050000Y-12200000D03*
X26950000Y-12200000D03*
X26000000Y-14800000D03*
%TD*%
D26*
%TO.C,C2*%
X28500000Y-11200000D03*
X30500000Y-11200000D03*
%TD*%
%TO.C,C3*%
X25000000Y-17000000D03*
X27000000Y-17000000D03*
%TD*%
%TO.C,C12*%
X28500000Y-17000000D03*
X30500000Y-17000000D03*
%TD*%
D27*
%TO.C,U1*%
X36475000Y-32810000D03*
X36475000Y-31540000D03*
X36475000Y-30270000D03*
X36475000Y-29000000D03*
X36475000Y-27730000D03*
X36475000Y-26460000D03*
X36475000Y-25190000D03*
X31525000Y-25190000D03*
X31525000Y-26460000D03*
X31525000Y-27730000D03*
X31525000Y-29000000D03*
X31525000Y-30270000D03*
X31525000Y-31540000D03*
X31525000Y-32810000D03*
%TD*%
D28*
%TO.C,C6*%
X38700000Y-33800000D03*
X40300000Y-33800000D03*
%TD*%
D29*
%TO.C,U2*%
X48100000Y-19555000D03*
X48100000Y-20825000D03*
X48100000Y-22095000D03*
X48100000Y-23365000D03*
X48100000Y-24635000D03*
X48100000Y-25905000D03*
X48100000Y-27175000D03*
X48100000Y-28445000D03*
X57900000Y-28445000D03*
X57900000Y-27175000D03*
X57900000Y-25905000D03*
X57900000Y-24635000D03*
X57900000Y-23365000D03*
X57900000Y-22095000D03*
X57900000Y-20825000D03*
X57900000Y-19555000D03*
%TD*%
D28*
%TO.C,C7*%
X48600000Y-17800000D03*
X50200000Y-17800000D03*
%TD*%
%TO.C,R2*%
X59700000Y-11500000D03*
X61300000Y-11500000D03*
%TD*%
%TO.C,R3*%
X55700000Y-13800000D03*
X57300000Y-13800000D03*
%TD*%
%TO.C,R4*%
X43200000Y-19500000D03*
X44800000Y-19500000D03*
%TD*%
%TO.C,R1*%
X43200000Y-17500000D03*
X44800000Y-17500000D03*
%TD*%
%TO.C,R5*%
X47200000Y-31000000D03*
X48800000Y-31000000D03*
%TD*%
D30*
%TO.C,D2*%
X50200000Y-32450000D03*
X52800000Y-31500000D03*
%TD*%
D31*
%TO.C,SC1*%
X55500000Y-34500000D03*
D32*
X57500000Y-34500000D03*
%TD*%
D33*
%TO.C,C1*%
X58750000Y-43000000D03*
D34*
X55250000Y-43000000D03*
%TD*%
D27*
%TO.C,U4*%
X41525000Y-38095000D03*
X41525000Y-39365000D03*
X41525000Y-40635000D03*
X41525000Y-41905000D03*
X46475000Y-41905000D03*
X46475000Y-40635000D03*
X46475000Y-39365000D03*
X46475000Y-38095000D03*
D35*
X44000000Y-40000000D03*
%TD*%
D36*
%TO.C,C4*%
X50050000Y-41000000D03*
X52950000Y-41000000D03*
%TD*%
D28*
%TO.C,C5*%
X50700000Y-38700000D03*
X52300000Y-38700000D03*
%TD*%
D37*
%TO.C,R6*%
X39200000Y-41100000D03*
X39200000Y-42700000D03*
%TD*%
%TO.C,R14*%
X41000000Y-32200000D03*
X41000000Y-33800000D03*
%TD*%
D28*
%TO.C,R16*%
X38200000Y-36000000D03*
X39800000Y-36000000D03*
%TD*%
%TO.C,R15*%
X41900000Y-36000000D03*
X43500000Y-36000000D03*
%TD*%
D30*
%TO.C,D6*%
X31700000Y-38950000D03*
X34300000Y-38000000D03*
%TD*%
D38*
%TO.C,U6*%
X22750000Y-40250000D03*
X22750000Y-40750000D03*
X22750000Y-41250000D03*
X22750000Y-41750000D03*
X25250000Y-41750000D03*
X25250000Y-41250000D03*
X25250000Y-40750000D03*
X25250000Y-40250000D03*
%TD*%
D37*
%TO.C,C9*%
X27500000Y-42000000D03*
X27500000Y-43600000D03*
%TD*%
%TO.C,R13*%
X29900000Y-42000000D03*
X29900000Y-43600000D03*
%TD*%
D28*
%TO.C,C8*%
X24800000Y-37600000D03*
X23200000Y-37600000D03*
%TD*%
D25*
%TO.C,U5*%
X16050000Y-40700000D03*
X17950000Y-40700000D03*
X17000000Y-43300000D03*
%TD*%
D28*
%TO.C,C13*%
X15300000Y-38600000D03*
X13700000Y-38600000D03*
%TD*%
D30*
%TO.C,D3*%
X21700000Y-44350000D03*
X19100000Y-45300000D03*
%TD*%
D37*
%TO.C,R7*%
X21500000Y-19200000D03*
X21500000Y-20800000D03*
%TD*%
%TO.C,R8*%
X21500000Y-22700000D03*
X21500000Y-24300000D03*
%TD*%
%TO.C,C14*%
X23300000Y-21000000D03*
X23300000Y-22600000D03*
%TD*%
D39*
%TO.C,SW1*%
X2500000Y-39800000D03*
X8500000Y-39800000D03*
X2500000Y-44200000D03*
X8500000Y-44200000D03*
%TD*%
%TO.C,SW2*%
X2500000Y-21300000D03*
X8500000Y-21300000D03*
X2500000Y-25700000D03*
X8500000Y-25700000D03*
%TD*%
D28*
%TO.C,R11*%
X10700000Y-39800000D03*
X12300000Y-39800000D03*
%TD*%
%TO.C,R12*%
X10700000Y-21300000D03*
X12300000Y-21300000D03*
%TD*%
%TO.C,R9*%
X21200000Y-30270000D03*
X22800000Y-30270000D03*
%TD*%
%TO.C,R10*%
X21200000Y-28400000D03*
X22800000Y-28400000D03*
%TD*%
%TO.C,C10*%
X25200000Y-32500000D03*
X26800000Y-32500000D03*
%TD*%
%TO.C,C11*%
X25200000Y-26500000D03*
X26800000Y-26500000D03*
%TD*%
D40*
%TO.C,TP1*%
X63500000Y-11500000D03*
%TD*%
%TO.C,TP2*%
X13000000Y-46500000D03*
%TD*%
%TO.C,TP3*%
X61500000Y-38000000D03*
%TD*%
%LPD*%
M02*
