%TF.GenerationSoftware,KiCad,Pcbnew,10.0.3*%
%TF.CreationDate,2026-08-11T20:58:58-05:00*%
%TF.ProjectId,co2_timer_v5,636f325f-7469-46d6-9572-5f76352e6b69,5.0*%
%TF.SameCoordinates,Original*%
%TF.FileFunction,Copper,L1,Top*%
%TF.FilePolarity,Positive*%
%FSLAX46Y46*%
G04 Gerber Fmt 4.6, Leading zero omitted, Abs format (unit mm)*
G04 Created by KiCad (PCBNEW 10.0.3) date 2026-08-11 20:58:58*
%MOMM*%
%LPD*%
G01*
G04 APERTURE LIST*
G04 Aperture macros list*
%AMRoundRect*
0 Rectangle with rounded corners*
0 $1 Rounding radius*
0 $2 $3 $4 $5 $6 $7 $8 $9 X,Y pos of 4 corners*
0 Add a 4 corners polygon primitive as box body*
4,1,4,$2,$3,$4,$5,$6,$7,$8,$9,$2,$3,0*
0 Add four circle primitives for the rounded corners*
1,1,$1+$1,$2,$3*
1,1,$1+$1,$4,$5*
1,1,$1+$1,$6,$7*
1,1,$1+$1,$8,$9*
0 Add four rect primitives between the rounded corners*
20,1,$1+$1,$2,$3,$4,$5,0*
20,1,$1+$1,$4,$5,$6,$7,0*
20,1,$1+$1,$6,$7,$8,$9,0*
20,1,$1+$1,$8,$9,$2,$3,0*%
G04 Aperture macros list end*
%TA.AperFunction,ComponentPad*%
%ADD10R,1.800000X1.800000*%
%TD*%
%TA.AperFunction,ComponentPad*%
%ADD11C,1.800000*%
%TD*%
%TA.AperFunction,ComponentPad*%
%ADD12R,3.500000X2.000000*%
%TD*%
%TA.AperFunction,ComponentPad*%
%ADD13C,2.000000*%
%TD*%
%TA.AperFunction,ComponentPad*%
%ADD14R,1.700000X1.700000*%
%TD*%
%TA.AperFunction,ComponentPad*%
%ADD15C,1.700000*%
%TD*%
%TA.AperFunction,SMDPad,CuDef*%
%ADD16R,2.400000X1.600000*%
%TD*%
%TA.AperFunction,SMDPad,CuDef*%
%ADD17R,1.600000X2.400000*%
%TD*%
%TA.AperFunction,SMDPad,CuDef*%
%ADD18R,1.800000X2.600000*%
%TD*%
%TA.AperFunction,SMDPad,CuDef*%
%ADD19R,0.900000X1.300000*%
%TD*%
%TA.AperFunction,SMDPad,CuDef*%
%ADD20R,1.150000X1.450000*%
%TD*%
%TA.AperFunction,SMDPad,CuDef*%
%ADD21R,1.950000X0.600000*%
%TD*%
%TA.AperFunction,SMDPad,CuDef*%
%ADD22R,0.800000X0.950000*%
%TD*%
%TA.AperFunction,SMDPad,CuDef*%
%ADD23R,2.000000X0.600000*%
%TD*%
%TA.AperFunction,SMDPad,CuDef*%
%ADD24R,0.800000X0.600000*%
%TD*%
%TA.AperFunction,SMDPad,CuDef*%
%ADD25R,2.410000X3.100000*%
%TD*%
%TA.AperFunction,SMDPad,CuDef*%
%ADD26R,1.150000X1.800000*%
%TD*%
%TA.AperFunction,SMDPad,CuDef*%
%ADD27R,0.950000X0.800000*%
%TD*%
%TA.AperFunction,SMDPad,CuDef*%
%ADD28RoundRect,0.120000X-0.542500X-0.180000X0.542500X-0.180000X0.542500X0.180000X-0.542500X0.180000X0*%
%TD*%
%TA.AperFunction,SMDPad,CuDef*%
%ADD29RoundRect,0.070000X-0.442500X-0.105000X0.442500X-0.105000X0.442500X0.105000X-0.442500X0.105000X0*%
%TD*%
%TA.AperFunction,SMDPad,CuDef*%
%ADD30RoundRect,0.280000X-0.620000X-0.420000X0.620000X-0.420000X0.620000X0.420000X-0.620000X0.420000X0*%
%TD*%
%TA.AperFunction,SMDPad,CuDef*%
%ADD31C,1.500000*%
%TD*%
%TA.AperFunction,ViaPad*%
%ADD32C,0.700000*%
%TD*%
%TA.AperFunction,ViaPad*%
%ADD33C,0.500000*%
%TD*%
%TA.AperFunction,ViaPad*%
%ADD34C,0.650000*%
%TD*%
%TA.AperFunction,Conductor*%
%ADD35C,0.600000*%
%TD*%
%TA.AperFunction,Conductor*%
%ADD36C,0.250000*%
%TD*%
%TA.AperFunction,Conductor*%
%ADD37C,0.400000*%
%TD*%
%TA.AperFunction,Conductor*%
%ADD38C,0.350000*%
%TD*%
%TA.AperFunction,Conductor*%
%ADD39C,1.000000*%
%TD*%
%TA.AperFunction,Conductor*%
%ADD40C,0.700000*%
%TD*%
%TA.AperFunction,Conductor*%
%ADD41C,0.500000*%
%TD*%
%TA.AperFunction,Conductor*%
%ADD42C,0.800000*%
%TD*%
%TA.AperFunction,Conductor*%
%ADD43C,0.900000*%
%TD*%
G04 APERTURE END LIST*
D10*
%TO.P,J1,1*%
%TO.N,VBAT1_IN*%
X11460000Y-3000000D03*
D11*
%TO.P,J1,2*%
%TO.N,GND*%
X16540000Y-3000000D03*
%TD*%
D10*
%TO.P,J6,1*%
%TO.N,VBAT2_IN*%
X51460000Y-3000000D03*
D11*
%TO.P,J6,2*%
%TO.N,GND*%
X56540000Y-3000000D03*
%TD*%
D10*
%TO.P,J2,1*%
%TO.N,SOL_OUT1*%
X35460000Y-47000000D03*
D11*
%TO.P,J2,2*%
%TO.N,SOL_OUT2*%
X40540000Y-47000000D03*
%TD*%
D12*
%TO.P,J5,1*%
%TO.N,VIN_DC*%
X6500000Y-10000000D03*
D13*
%TO.P,J5,2*%
%TO.N,GND*%
X10000000Y-10000000D03*
%TO.P,J5,3*%
X8000000Y-13500000D03*
%TD*%
D14*
%TO.P,J4,1*%
%TO.N,+3V3*%
X3500000Y-28000000D03*
D15*
%TO.P,J4,2*%
%TO.N,GND*%
X3500000Y-30540000D03*
%TO.P,J4,3*%
%TO.N,TM_DIO*%
X3500000Y-33080000D03*
%TO.P,J4,4*%
%TO.N,TM_CLK*%
X3500000Y-35620000D03*
%TD*%
D14*
%TO.P,J3,1*%
%TO.N,MISO*%
X61000000Y-15000000D03*
D15*
%TO.P,J3,2*%
%TO.N,+3V3*%
X63540000Y-15000000D03*
%TO.P,J3,3*%
%TO.N,SCL*%
X61000000Y-17540000D03*
%TO.P,J3,4*%
%TO.N,SDA*%
X63540000Y-17540000D03*
%TO.P,J3,5*%
%TO.N,/RESET*%
X61000000Y-20080000D03*
%TO.P,J3,6*%
%TO.N,GND*%
X63540000Y-20080000D03*
%TD*%
D16*
%TO.P,D1,A*%
%TO.N,VBAT1_IN*%
X8000000Y-8000000D03*
%TO.P,D1,K*%
%TO.N,VIN_OR*%
X12000000Y-8000000D03*
%TD*%
%TO.P,D5,A*%
%TO.N,VBAT2_IN*%
X52000000Y-8000000D03*
%TO.P,D5,K*%
%TO.N,VIN_OR*%
X56000000Y-8000000D03*
%TD*%
%TO.P,D4,A*%
%TO.N,VIN_DC*%
X15000000Y-13000000D03*
%TO.P,D4,K*%
%TO.N,VIN_OR*%
X19000000Y-13000000D03*
%TD*%
%TO.P,TVS1,A*%
%TO.N,GND*%
X12500000Y-10200000D03*
%TO.P,TVS1,K*%
%TO.N,VIN_DC*%
X16500000Y-10200000D03*
%TD*%
D17*
%TO.P,TVS2,A*%
%TO.N,GND*%
X63500000Y-46500000D03*
%TO.P,TVS2,K*%
%TO.N,VM*%
X63500000Y-42500000D03*
%TD*%
D18*
%TO.P,F1,1*%
%TO.N,VIN_OR*%
X22000000Y-8000000D03*
%TO.P,F1,2*%
%TO.N,VM*%
X26000000Y-8000000D03*
%TD*%
D19*
%TO.P,U3,1*%
%TO.N,GND*%
X25050000Y-12200000D03*
%TO.P,U3,2*%
%TO.N,+3V3*%
X26950000Y-12200000D03*
%TO.P,U3,3*%
%TO.N,VM*%
X26000000Y-14800000D03*
%TD*%
D20*
%TO.P,C2,1*%
%TO.N,VM*%
X28500000Y-11200000D03*
%TO.P,C2,2*%
%TO.N,GND*%
X30500000Y-11200000D03*
%TD*%
%TO.P,C3,1*%
%TO.N,+3V3*%
X25000000Y-17000000D03*
%TO.P,C3,2*%
%TO.N,GND*%
X27000000Y-17000000D03*
%TD*%
%TO.P,C12,1*%
%TO.N,+3V3*%
X28500000Y-17000000D03*
%TO.P,C12,2*%
%TO.N,GND*%
X30500000Y-17000000D03*
%TD*%
D21*
%TO.P,U1,1*%
%TO.N,+3V3*%
X36475000Y-32810000D03*
%TO.P,U1,2*%
%TO.N,DRV_IN1_MCU*%
X36475000Y-31540000D03*
%TO.P,U1,3*%
%TO.N,DRV_IN2_MCU*%
X36475000Y-30270000D03*
%TO.P,U1,4*%
%TO.N,/RESET*%
X36475000Y-29000000D03*
%TO.P,U1,5*%
%TO.N,/ALERT*%
X36475000Y-27730000D03*
%TO.P,U1,6*%
%TO.N,TM_DIO*%
X36475000Y-26460000D03*
%TO.P,U1,7*%
%TO.N,SDA*%
X36475000Y-25190000D03*
%TO.P,U1,14*%
%TO.N,GND*%
X31525000Y-32810000D03*
%TO.P,U1,13*%
%TO.N,VM_SENSE*%
X31525000Y-31540000D03*
%TO.P,U1,12*%
%TO.N,BTN_UP*%
X31525000Y-30270000D03*
%TO.P,U1,11*%
%TO.N,BTN_SET*%
X31525000Y-29000000D03*
%TO.P,U1,10*%
%TO.N,TM_CLK*%
X31525000Y-27730000D03*
%TO.P,U1,9*%
%TO.N,SCL*%
X31525000Y-26460000D03*
%TO.P,U1,8*%
%TO.N,MISO*%
X31525000Y-25190000D03*
%TD*%
D22*
%TO.P,C6,1*%
%TO.N,+3V3*%
X35700000Y-33800000D03*
%TO.P,C6,2*%
%TO.N,GND*%
X37300000Y-33800000D03*
%TD*%
D23*
%TO.P,U2,1*%
%TO.N,N/C*%
X48100000Y-19555000D03*
%TO.P,U2,2*%
%TO.N,+3V3*%
X48100000Y-20825000D03*
%TO.P,U2,3*%
%TO.N,/ALERT*%
X48100000Y-22095000D03*
%TO.P,U2,4*%
%TO.N,N/C*%
X48100000Y-23365000D03*
%TO.P,U2,5*%
%TO.N,GND*%
X48100000Y-24635000D03*
%TO.P,U2,6*%
X48100000Y-25905000D03*
%TO.P,U2,7*%
X48100000Y-27175000D03*
%TO.P,U2,8*%
X48100000Y-28445000D03*
%TO.P,U2,16*%
%TO.N,SCL*%
X57900000Y-19555000D03*
%TO.P,U2,15*%
%TO.N,SDA*%
X57900000Y-20825000D03*
%TO.P,U2,14*%
%TO.N,VBAT_RTC*%
X57900000Y-22095000D03*
%TO.P,U2,13*%
%TO.N,GND*%
X57900000Y-23365000D03*
%TO.P,U2,12*%
X57900000Y-24635000D03*
%TO.P,U2,11*%
X57900000Y-25905000D03*
%TO.P,U2,10*%
X57900000Y-27175000D03*
%TO.P,U2,9*%
X57900000Y-28445000D03*
%TD*%
D22*
%TO.P,C7,1*%
%TO.N,+3V3*%
X48600000Y-17800000D03*
%TO.P,C7,2*%
%TO.N,GND*%
X50200000Y-17800000D03*
%TD*%
%TO.P,R2,1*%
%TO.N,SDA*%
X59700000Y-11500000D03*
%TO.P,R2,2*%
%TO.N,+3V3*%
X61300000Y-11500000D03*
%TD*%
%TO.P,R3,1*%
%TO.N,SCL*%
X55700000Y-13800000D03*
%TO.P,R3,2*%
%TO.N,+3V3*%
X57300000Y-13800000D03*
%TD*%
%TO.P,R4,1*%
%TO.N,/ALERT*%
X43200000Y-19500000D03*
%TO.P,R4,2*%
%TO.N,+3V3*%
X44800000Y-19500000D03*
%TD*%
%TO.P,R1,1*%
%TO.N,/RESET*%
X52200000Y-18000000D03*
%TO.P,R1,2*%
%TO.N,+3V3*%
X53800000Y-18000000D03*
%TD*%
%TO.P,R5,1*%
%TO.N,+3V3*%
X47200000Y-31000000D03*
%TO.P,R5,2*%
%TO.N,VBAT_CHG*%
X48800000Y-31000000D03*
%TD*%
D24*
%TO.P,D2,A*%
%TO.N,VBAT_CHG*%
X50400000Y-31500000D03*
%TO.P,D2,K*%
%TO.N,VBAT_RTC*%
X52600000Y-31500000D03*
%TD*%
D10*
%TO.P,SC1,+*%
%TO.N,VBAT_RTC*%
X52750000Y-34500000D03*
D11*
%TO.P,SC1,-*%
%TO.N,GND*%
X60250000Y-34500000D03*
%TD*%
D10*
%TO.P,C1,+*%
%TO.N,VM*%
X54500000Y-42000000D03*
D11*
%TO.P,C1,-*%
%TO.N,GND*%
X59500000Y-42000000D03*
%TD*%
D10*
%TO.P,C19,+*%
%TO.N,VM*%
X61500000Y-31500000D03*
D11*
%TO.P,C19,-*%
%TO.N,GND*%
X66500000Y-31500000D03*
%TD*%
D21*
%TO.P,U4,1*%
%TO.N,GND*%
X41525000Y-38095000D03*
%TO.P,U4,2*%
%TO.N,DRV_IN2*%
X41525000Y-39365000D03*
%TO.P,U4,3*%
%TO.N,DRV_IN1*%
X41525000Y-40635000D03*
%TO.P,U4,4*%
%TO.N,ILIM*%
X41525000Y-41905000D03*
%TO.P,U4,8*%
%TO.N,SOL_OUT2*%
X46475000Y-38095000D03*
%TO.P,U4,7*%
%TO.N,GND*%
X46475000Y-39365000D03*
%TO.P,U4,6*%
%TO.N,SOL_OUT1*%
X46475000Y-40635000D03*
%TO.P,U4,5*%
%TO.N,VM*%
X46475000Y-41905000D03*
D25*
%TO.P,U4,PAD*%
%TO.N,GND*%
X44000000Y-40000000D03*
%TD*%
D26*
%TO.P,C4,1*%
%TO.N,VM*%
X48550000Y-41000000D03*
%TO.P,C4,2*%
%TO.N,GND*%
X51450000Y-41000000D03*
%TD*%
D22*
%TO.P,C5,1*%
%TO.N,VM*%
X50700000Y-38700000D03*
%TO.P,C5,2*%
%TO.N,GND*%
X52300000Y-38700000D03*
%TD*%
D27*
%TO.P,R6,1*%
%TO.N,ILIM*%
X39200000Y-41100000D03*
%TO.P,R6,2*%
%TO.N,GND*%
X39200000Y-42700000D03*
%TD*%
%TO.P,R14,1*%
%TO.N,DRV_IN1*%
X43500000Y-30700000D03*
%TO.P,R14,2*%
%TO.N,GND*%
X43500000Y-32300000D03*
%TD*%
D22*
%TO.P,R15,1*%
%TO.N,DRV_IN2*%
X41900000Y-36000000D03*
%TO.P,R15,2*%
%TO.N,GND*%
X43500000Y-36000000D03*
%TD*%
%TO.P,R13,1*%
%TO.N,VM*%
X22000000Y-18000000D03*
%TO.P,R13,2*%
%TO.N,VM_DIV*%
X23600000Y-18000000D03*
%TD*%
%TO.P,R16,1*%
%TO.N,VM_DIV*%
X22000000Y-26000000D03*
%TO.P,R16,2*%
%TO.N,GND*%
X23600000Y-26000000D03*
%TD*%
%TO.P,R17,1*%
%TO.N,/VM_OK*%
X26200000Y-19000000D03*
%TO.P,R17,2*%
%TO.N,GND*%
X27800000Y-19000000D03*
%TD*%
%TO.P,R18,1*%
%TO.N,/VM_OK*%
X26200000Y-22000000D03*
%TO.P,R18,2*%
%TO.N,+3V3*%
X27800000Y-22000000D03*
%TD*%
D28*
%TO.P,U5,1*%
%TO.N,/VM_OK*%
X16863000Y-20550000D03*
%TO.P,U5,2*%
%TO.N,GND*%
X16863000Y-21500000D03*
%TO.P,U5,3*%
%TO.N,VM_DIV*%
X16863000Y-22450000D03*
%TO.P,U5,4*%
%TO.N,GND*%
X19137000Y-22450000D03*
%TO.P,U5,5*%
%TO.N,VM*%
X19137000Y-21500000D03*
%TO.P,U5,6*%
%TO.N,N/C*%
X19137000Y-20550000D03*
%TD*%
D29*
%TO.P,U6,1*%
%TO.N,DRV_IN1_MCU*%
X38662000Y-31850000D03*
%TO.P,U6,2*%
%TO.N,GND*%
X38662000Y-32500000D03*
%TO.P,U6,3*%
X38662000Y-33150000D03*
%TO.P,U6,4*%
%TO.N,DRV_IN1*%
X40338000Y-33150000D03*
%TO.P,U6,5*%
%TO.N,+3V3*%
X40338000Y-32500000D03*
%TO.P,U6,6*%
%TO.N,/VM_OK*%
X40338000Y-31850000D03*
%TD*%
%TO.P,U7,1*%
%TO.N,DRV_IN2_MCU*%
X38662000Y-34850000D03*
%TO.P,U7,2*%
%TO.N,GND*%
X38662000Y-35500000D03*
%TO.P,U7,3*%
%TO.N,+3V3*%
X38662000Y-36150000D03*
%TO.P,U7,4*%
%TO.N,DRV_IN2*%
X40338000Y-36150000D03*
%TO.P,U7,5*%
%TO.N,+3V3*%
X40338000Y-35500000D03*
%TO.P,U7,6*%
%TO.N,/VM_OK*%
X40338000Y-34850000D03*
%TD*%
D22*
%TO.P,C9,1*%
%TO.N,VM*%
X13700000Y-18000000D03*
%TO.P,C9,2*%
%TO.N,GND*%
X15300000Y-18000000D03*
%TD*%
%TO.P,C18,1*%
%TO.N,+3V3*%
X43700000Y-34200000D03*
%TO.P,C18,2*%
%TO.N,GND*%
X45300000Y-34200000D03*
%TD*%
D24*
%TO.P,D3,A*%
%TO.N,/ALERT*%
X16900000Y-27500000D03*
%TO.P,D3,K*%
%TO.N,/VM_OK*%
X19100000Y-27500000D03*
%TD*%
D27*
%TO.P,R7,1*%
%TO.N,VM*%
X21500000Y-19200000D03*
%TO.P,R7,2*%
%TO.N,VM_SENSE*%
X21500000Y-20800000D03*
%TD*%
%TO.P,R8,1*%
%TO.N,VM_SENSE*%
X21500000Y-22700000D03*
%TO.P,R8,2*%
%TO.N,GND*%
X21500000Y-24300000D03*
%TD*%
%TO.P,C14,1*%
%TO.N,VM_SENSE*%
X23300000Y-21000000D03*
%TO.P,C14,2*%
%TO.N,GND*%
X23300000Y-22600000D03*
%TD*%
D30*
%TO.P,SW1,1*%
%TO.N,BTN_UP_SW*%
X2500000Y-39750000D03*
%TO.P,SW1,2*%
X8500000Y-39750000D03*
%TO.P,SW1,3*%
%TO.N,GND*%
X2500000Y-44250000D03*
%TO.P,SW1,4*%
X8500000Y-44250000D03*
%TD*%
%TO.P,SW2,1*%
%TO.N,BTN_SET_SW*%
X2500000Y-21250000D03*
%TO.P,SW2,2*%
X8500000Y-21250000D03*
%TO.P,SW2,3*%
%TO.N,GND*%
X2500000Y-25750000D03*
%TO.P,SW2,4*%
X8500000Y-25750000D03*
%TD*%
D22*
%TO.P,R11,1*%
%TO.N,BTN_UP_SW*%
X10700000Y-39800000D03*
%TO.P,R11,2*%
%TO.N,+3V3*%
X12300000Y-39800000D03*
%TD*%
%TO.P,R12,1*%
%TO.N,BTN_SET_SW*%
X10700000Y-21300000D03*
%TO.P,R12,2*%
%TO.N,+3V3*%
X12300000Y-21300000D03*
%TD*%
%TO.P,R9,1*%
%TO.N,BTN_UP_SW*%
X21200000Y-30270000D03*
%TO.P,R9,2*%
%TO.N,BTN_UP*%
X22800000Y-30270000D03*
%TD*%
%TO.P,R10,1*%
%TO.N,BTN_SET_SW*%
X21200000Y-28400000D03*
%TO.P,R10,2*%
%TO.N,BTN_SET*%
X22800000Y-28400000D03*
%TD*%
%TO.P,C10,1*%
%TO.N,BTN_UP*%
X25200000Y-32500000D03*
%TO.P,C10,2*%
%TO.N,GND*%
X26800000Y-32500000D03*
%TD*%
%TO.P,C11,1*%
%TO.N,BTN_SET*%
X25200000Y-26500000D03*
%TO.P,C11,2*%
%TO.N,GND*%
X26800000Y-26500000D03*
%TD*%
D31*
%TO.P,TP1,1*%
%TO.N,MISO*%
X63500000Y-11500000D03*
%TD*%
%TO.P,TP2,1*%
%TO.N,/VM_OK*%
X13000000Y-24500000D03*
%TD*%
%TO.P,TP3,1*%
%TO.N,VM*%
X61500000Y-38000000D03*
%TD*%
D32*
%TO.N,GND*%
X13750000Y-10250000D03*
X62250000Y-46500000D03*
X23750000Y-12250000D03*
X31750000Y-11250000D03*
D33*
X27000000Y-17000000D03*
D32*
X31750000Y-17000000D03*
X32750000Y-32750000D03*
X38500000Y-33750000D03*
X49500000Y-24750000D03*
X49500000Y-26000000D03*
X49500000Y-27250000D03*
X49500000Y-28500000D03*
X59250000Y-23250000D03*
X59250000Y-24750000D03*
X59250000Y-26000000D03*
X59250000Y-27250000D03*
X59250000Y-28500000D03*
X50250000Y-19000000D03*
X42750000Y-38000000D03*
X47750000Y-39250000D03*
X52750000Y-41000000D03*
X53500000Y-38750000D03*
X38000000Y-42750000D03*
X44750000Y-32250000D03*
X44750000Y-36000000D03*
X23500000Y-24750000D03*
X29000000Y-19000000D03*
D33*
X16863000Y-21500000D03*
D32*
X19250000Y-23750000D03*
X37250000Y-34500000D03*
X37250000Y-35500000D03*
X16500000Y-18000000D03*
X46500000Y-34250000D03*
X22750000Y-24250000D03*
X24500000Y-22500000D03*
X3750000Y-44250000D03*
X9750000Y-44250000D03*
X3750000Y-25750000D03*
X9750000Y-25750000D03*
X28000000Y-32500000D03*
X28000000Y-26500000D03*
D34*
X43400000Y-39250000D03*
X44600000Y-39250000D03*
X43400000Y-40750000D03*
X44600000Y-40750000D03*
D32*
X15500000Y-21500000D03*
X41750000Y-33250000D03*
X27500000Y-18500000D03*
X25750000Y-13250000D03*
%TO.N,/ALERT*%
X33250000Y-27750000D03*
X18000000Y-27750000D03*
%TO.N,TM_DIO*%
X34500000Y-26750000D03*
X34500000Y-28750000D03*
X6250000Y-33750000D03*
%TO.N,TM_CLK*%
X29250000Y-31750000D03*
X29250000Y-35000000D03*
X6250000Y-35000000D03*
%TO.N,BTN_UP_SW*%
X6250000Y-39250000D03*
X4250000Y-39250000D03*
X21000000Y-33000000D03*
X21000000Y-36000000D03*
%TO.N,BTN_UP*%
X30250000Y-30500000D03*
X25500000Y-30500000D03*
%TO.N,BTN_SET_SW*%
X11000000Y-24000000D03*
X11000000Y-22000000D03*
%TO.N,BTN_SET*%
X30250000Y-29000000D03*
X25500000Y-29000000D03*
%TO.N,DRV_IN1*%
X41500000Y-40500000D03*
X43000000Y-31000000D03*
D33*
%TO.N,/VM_OK*%
X16500000Y-20250000D03*
X14250000Y-24000000D03*
X14250000Y-27000000D03*
X25750000Y-21750000D03*
X25750000Y-19750000D03*
X40100000Y-28500000D03*
X40100000Y-26500000D03*
X40100000Y-34500000D03*
X40100000Y-31500000D03*
D32*
%TO.N,VM_DIV*%
X21250000Y-25500000D03*
X17750000Y-22500000D03*
X16000000Y-16750000D03*
%TO.N,VM_SENSE*%
X33500000Y-30000000D03*
X22750000Y-19250000D03*
%TO.N,SOL_OUT1*%
X46000000Y-40750000D03*
X46000000Y-43000000D03*
%TO.N,SOL_OUT2*%
X47250000Y-37750000D03*
X49250000Y-42750000D03*
%TO.N,+3V3*%
X12000000Y-20750000D03*
X30250000Y-19750000D03*
X29000000Y-17750000D03*
X14000000Y-15750000D03*
X53500000Y-17750000D03*
X49000000Y-17750000D03*
X47250000Y-29500000D03*
X47250000Y-21000000D03*
X38750000Y-40000000D03*
X50500000Y-36500000D03*
X12250000Y-37000000D03*
X12250000Y-33000000D03*
%TO.N,VM*%
X18000000Y-18000000D03*
X12000000Y-14250000D03*
X27750000Y-14500000D03*
X31000000Y-14500000D03*
X24000000Y-9500000D03*
X52750000Y-15750000D03*
X60500000Y-37750000D03*
%TO.N,VIN_OR*%
X15250000Y-7750000D03*
X13000000Y-7750000D03*
X55250000Y-5750000D03*
X53000000Y-5750000D03*
%TO.N,VIN_DC*%
X14000000Y-12750000D03*
X10250000Y-13750000D03*
%TO.N,VBAT2_IN*%
X51250000Y-7000000D03*
%TO.N,SDA*%
X51000000Y-20250000D03*
X39000000Y-24250000D03*
X61750000Y-21750000D03*
%TO.N,SCL*%
X56250000Y-18750000D03*
X51500000Y-15750000D03*
X33250000Y-17250000D03*
X33250000Y-24250000D03*
X55500000Y-14500000D03*
%TO.N,MISO*%
X47500000Y-16750000D03*
X34500000Y-17250000D03*
X32250000Y-25250000D03*
X62500000Y-12250000D03*
%TO.N,/RESET*%
X52250000Y-19500000D03*
X39000000Y-29750000D03*
X57750000Y-29500000D03*
X53750000Y-32250000D03*
D33*
%TO.N,+3V3*%
X40337000Y-32500000D03*
X43700000Y-34200000D03*
X42250000Y-33900000D03*
X42500000Y-35100000D03*
X40750000Y-35500000D03*
X38750000Y-37500000D03*
%TO.N,VM*%
X19137000Y-21500000D03*
X20000000Y-21500000D03*
X51250000Y-39500000D03*
%TO.N,DRV_IN1*%
X41500000Y-34750000D03*
%TD*%
%TO.N,GND*%
D35*
X12500000Y-10200000D02*
X13750000Y-10250000D01*
X63500000Y-46500000D02*
X62250000Y-46500000D01*
X25050000Y-12200000D02*
X23750000Y-12250000D01*
X30500000Y-11200000D02*
X31750000Y-11250000D01*
X30500000Y-17000000D02*
X31750000Y-17000000D01*
X31525000Y-32810000D02*
X32750000Y-32750000D01*
X37300000Y-33800000D02*
X38500000Y-33750000D01*
X48100000Y-24635000D02*
X49500000Y-24750000D01*
X48100000Y-25905000D02*
X49500000Y-26000000D01*
X48100000Y-27175000D02*
X49500000Y-27250000D01*
X48100000Y-28445000D02*
X49500000Y-28500000D01*
X57900000Y-23365000D02*
X59250000Y-23250000D01*
X57900000Y-24635000D02*
X59250000Y-24750000D01*
X57900000Y-25905000D02*
X59250000Y-26000000D01*
X57900000Y-27175000D02*
X59250000Y-27250000D01*
X57900000Y-28445000D02*
X59250000Y-28500000D01*
X50200000Y-17800000D02*
X50250000Y-19000000D01*
X41525000Y-38095000D02*
X42750000Y-38000000D01*
X46475000Y-39365000D02*
X47750000Y-39250000D01*
X51450000Y-41000000D02*
X52750000Y-41000000D01*
X52300000Y-38700000D02*
X53500000Y-38750000D01*
X39200000Y-42700000D02*
X38000000Y-42750000D01*
X43500000Y-32300000D02*
X44750000Y-32250000D01*
X43500000Y-36000000D02*
X44750000Y-36000000D01*
X23600000Y-26000000D02*
X23500000Y-24750000D01*
X27800000Y-19000000D02*
X29000000Y-19000000D01*
X19137000Y-22450000D02*
X19250000Y-23750000D01*
D36*
X38663000Y-32500000D02*
X38750000Y-33750000D01*
X38663000Y-33150000D02*
X37250000Y-34500000D01*
X38663000Y-35500000D02*
X37250000Y-35500000D01*
D35*
X15300000Y-18000000D02*
X16500000Y-18000000D01*
X45300000Y-34200000D02*
X46500000Y-34250000D01*
X21500000Y-24300000D02*
X22750000Y-24250000D01*
X23300000Y-22600000D02*
X24500000Y-22500000D01*
X2500000Y-44250000D02*
X3750000Y-44250000D01*
X8500000Y-44250000D02*
X9750000Y-44250000D01*
X2500000Y-25750000D02*
X3750000Y-25750000D01*
X8500000Y-25750000D02*
X9750000Y-25750000D01*
X26800000Y-32500000D02*
X28000000Y-32500000D01*
X26800000Y-26500000D02*
X28000000Y-26500000D01*
D37*
X2750000Y-29750000D02*
X1750000Y-29750000D01*
X1750000Y-29750000D02*
X1750000Y-26250000D01*
X2750000Y-29750000D02*
X3500000Y-30540000D01*
X1750000Y-26250000D02*
X2500000Y-25750000D01*
X7750000Y-25250000D02*
X3250000Y-25250000D01*
X7750000Y-25250000D02*
X8500000Y-25750000D01*
X3250000Y-25250000D02*
X2500000Y-25750000D01*
X3250000Y-25250000D02*
X3750000Y-25750000D01*
X15500000Y-21500000D02*
X15500000Y-23000000D01*
X15500000Y-23000000D02*
X9250000Y-23000000D01*
X9250000Y-23000000D02*
X9250000Y-25250000D01*
X9250000Y-25250000D02*
X8500000Y-25750000D01*
X9250000Y-25250000D02*
X9750000Y-25750000D01*
X18750000Y-22500000D02*
X18750000Y-23500000D01*
X18750000Y-23500000D02*
X15500000Y-23500000D01*
X15500000Y-23500000D02*
X15500000Y-23000000D01*
X18750000Y-22500000D02*
X19137000Y-22450000D01*
X18750000Y-22500000D02*
X19137000Y-22450000D01*
X21250000Y-24000000D02*
X18750000Y-24000000D01*
X18750000Y-24000000D02*
X18750000Y-23500000D01*
X21250000Y-24000000D02*
X21500000Y-24300000D01*
X21250000Y-24000000D02*
X21500000Y-24300000D01*
X18750000Y-23500000D02*
X19250000Y-23750000D01*
X23000000Y-22750000D02*
X23000000Y-24000000D01*
X23000000Y-24000000D02*
X21750000Y-24000000D01*
X23000000Y-22750000D02*
X23300000Y-22600000D01*
X21750000Y-24000000D02*
X21500000Y-24300000D01*
X23000000Y-22750000D02*
X23300000Y-22600000D01*
X21750000Y-24000000D02*
X21500000Y-24300000D01*
X23500000Y-25750000D02*
X23500000Y-24000000D01*
X23500000Y-24000000D02*
X23000000Y-24000000D01*
X23500000Y-25750000D02*
X23600000Y-26000000D01*
X23500000Y-25750000D02*
X23600000Y-26000000D01*
X23000000Y-24000000D02*
X22750000Y-24250000D01*
X26500000Y-26250000D02*
X26500000Y-25250000D01*
X26500000Y-25250000D02*
X23500000Y-25250000D01*
X26500000Y-26250000D02*
X26800000Y-26500000D01*
X26500000Y-26250000D02*
X26800000Y-26500000D01*
X23500000Y-25250000D02*
X23500000Y-24750000D01*
X15500000Y-18250000D02*
X15500000Y-21500000D01*
X15500000Y-18250000D02*
X15300000Y-18000000D01*
X15500000Y-18250000D02*
X15300000Y-18000000D01*
X26500000Y-32250000D02*
X26500000Y-26750000D01*
X26500000Y-32250000D02*
X26800000Y-32500000D01*
X26500000Y-26750000D02*
X26800000Y-26500000D01*
X26500000Y-32250000D02*
X26800000Y-32500000D01*
X26500000Y-26750000D02*
X26800000Y-26500000D01*
X30750000Y-32750000D02*
X27000000Y-32750000D01*
X30750000Y-32750000D02*
X31525000Y-32810000D01*
X27000000Y-32750000D02*
X26800000Y-32500000D01*
X30750000Y-32750000D02*
X31525000Y-32810000D01*
X27000000Y-32750000D02*
X26800000Y-32500000D01*
X38250000Y-33250000D02*
X38250000Y-33750000D01*
X38250000Y-33750000D02*
X37500000Y-33750000D01*
D38*
X38250000Y-33250000D02*
X38663000Y-33150000D01*
D37*
X37500000Y-33750000D02*
X37300000Y-33800000D01*
D38*
X38250000Y-33250000D02*
X38663000Y-33150000D01*
D37*
X37500000Y-33750000D02*
X37300000Y-33800000D01*
X38250000Y-32500000D02*
X38250000Y-33000000D01*
D38*
X38250000Y-32500000D02*
X38663000Y-32500000D01*
X38250000Y-33000000D02*
X38663000Y-33150000D01*
X38250000Y-32500000D02*
X38663000Y-32500000D01*
X38250000Y-33000000D02*
X38663000Y-33150000D01*
D37*
X43250000Y-32500000D02*
X41750000Y-32500000D01*
X41750000Y-32500000D02*
X41750000Y-33250000D01*
X43250000Y-32500000D02*
X43500000Y-32300000D01*
X43250000Y-32500000D02*
X43500000Y-32300000D01*
X45000000Y-34000000D02*
X45000000Y-32500000D01*
X45000000Y-32500000D02*
X43750000Y-32500000D01*
X45000000Y-34000000D02*
X45300000Y-34200000D01*
X43750000Y-32500000D02*
X43500000Y-32300000D01*
X45000000Y-34000000D02*
X45300000Y-34200000D01*
X43750000Y-32500000D02*
X43500000Y-32300000D01*
X43750000Y-35750000D02*
X45000000Y-35750000D01*
X45000000Y-35750000D02*
X45000000Y-34500000D01*
X43750000Y-35750000D02*
X43500000Y-36000000D01*
X45000000Y-34500000D02*
X45300000Y-34200000D01*
X43750000Y-35750000D02*
X43500000Y-36000000D01*
X45000000Y-34500000D02*
X45300000Y-34200000D01*
X42250000Y-38000000D02*
X43250000Y-38000000D01*
X43250000Y-38000000D02*
X43250000Y-36250000D01*
X42250000Y-38000000D02*
X41525000Y-38095000D01*
X43250000Y-36250000D02*
X43500000Y-36000000D01*
X42250000Y-38000000D02*
X42750000Y-38000000D01*
X43250000Y-36250000D02*
X43500000Y-36000000D01*
X43000000Y-38500000D02*
X43000000Y-38000000D01*
X43000000Y-38500000D02*
X44000000Y-40000000D01*
X43000000Y-38500000D02*
X42750000Y-38000000D01*
X43000000Y-38000000D02*
X42750000Y-38000000D01*
X45750000Y-39250000D02*
X45000000Y-39250000D01*
X45750000Y-39250000D02*
X46475000Y-39365000D01*
X45000000Y-39250000D02*
X44000000Y-40000000D01*
X45750000Y-39250000D02*
X46475000Y-39365000D01*
X45000000Y-39250000D02*
X44600000Y-39250000D01*
X39500000Y-43000000D02*
X43250000Y-43000000D01*
X43250000Y-43000000D02*
X43250000Y-41500000D01*
X39500000Y-43000000D02*
X39200000Y-42700000D01*
X43250000Y-41500000D02*
X44000000Y-40000000D01*
X39500000Y-43000000D02*
X39200000Y-42700000D01*
X43250000Y-41500000D02*
X43400000Y-40750000D01*
X52000000Y-38500000D02*
X52000000Y-37500000D01*
X52000000Y-37500000D02*
X48250000Y-37500000D01*
X48250000Y-37500000D02*
X48250000Y-39250000D01*
X48250000Y-39250000D02*
X47250000Y-39250000D01*
X52000000Y-38500000D02*
X52300000Y-38700000D01*
X47250000Y-39250000D02*
X46475000Y-39365000D01*
X52000000Y-38500000D02*
X52300000Y-38700000D01*
X47250000Y-39250000D02*
X47750000Y-39250000D01*
X51750000Y-40250000D02*
X52000000Y-40250000D01*
X52000000Y-40250000D02*
X52000000Y-39000000D01*
X51750000Y-40250000D02*
X51450000Y-41000000D01*
X52000000Y-39000000D02*
X52300000Y-38700000D01*
X51750000Y-40250000D02*
X51450000Y-41000000D01*
X52000000Y-39000000D02*
X52300000Y-38700000D01*
X47250000Y-28500000D02*
X45000000Y-28500000D01*
X45000000Y-28500000D02*
X45000000Y-32500000D01*
X47250000Y-28500000D02*
X48100000Y-28445000D01*
X47250000Y-28500000D02*
X48100000Y-28445000D01*
X45000000Y-32500000D02*
X44750000Y-32250000D01*
X47250000Y-27250000D02*
X47250000Y-28250000D01*
X47250000Y-27250000D02*
X48100000Y-27175000D01*
X47250000Y-28250000D02*
X48100000Y-28445000D01*
X47250000Y-27250000D02*
X48100000Y-27175000D01*
X47250000Y-28250000D02*
X48100000Y-28445000D01*
X47250000Y-26000000D02*
X47250000Y-27000000D01*
X47250000Y-26000000D02*
X48100000Y-25905000D01*
X47250000Y-27000000D02*
X48100000Y-27175000D01*
X47250000Y-26000000D02*
X48100000Y-25905000D01*
X47250000Y-27000000D02*
X48100000Y-27175000D01*
X47250000Y-24750000D02*
X47250000Y-25750000D01*
X47250000Y-24750000D02*
X48100000Y-24635000D01*
X47250000Y-25750000D02*
X48100000Y-25905000D01*
X47250000Y-24750000D02*
X48100000Y-24635000D01*
X47250000Y-25750000D02*
X48100000Y-25905000D01*
X27500000Y-19250000D02*
X27500000Y-20750000D01*
X27500000Y-20750000D02*
X24500000Y-20750000D01*
X24500000Y-20750000D02*
X24500000Y-22500000D01*
X24500000Y-22500000D02*
X23500000Y-22500000D01*
X27500000Y-19250000D02*
X27800000Y-19000000D01*
X23500000Y-22500000D02*
X23300000Y-22600000D01*
X27500000Y-19250000D02*
X27800000Y-19000000D01*
X23500000Y-22500000D02*
X23300000Y-22600000D01*
X27500000Y-18500000D02*
X27500000Y-18750000D01*
X27500000Y-18750000D02*
X27800000Y-19000000D01*
X27500000Y-18750000D02*
X27500000Y-18500000D01*
X30000000Y-17500000D02*
X30000000Y-18750000D01*
X30000000Y-18750000D02*
X28000000Y-18750000D01*
X30000000Y-17500000D02*
X30500000Y-17000000D01*
X28000000Y-18750000D02*
X27800000Y-19000000D01*
X30000000Y-17500000D02*
X30500000Y-17000000D01*
X28000000Y-18750000D02*
X27800000Y-19000000D01*
X30000000Y-11750000D02*
X30000000Y-16500000D01*
X30000000Y-11750000D02*
X30500000Y-11200000D01*
X30000000Y-16500000D02*
X30500000Y-17000000D01*
X30000000Y-11750000D02*
X30500000Y-11200000D01*
X30000000Y-16500000D02*
X30500000Y-17000000D01*
X25250000Y-12750000D02*
X25250000Y-13250000D01*
X25250000Y-13250000D02*
X25750000Y-13250000D01*
X25250000Y-12750000D02*
X25050000Y-12200000D01*
X25250000Y-12750000D02*
X25050000Y-12200000D01*
X50000000Y-18000000D02*
X50000000Y-24500000D01*
X50000000Y-24500000D02*
X49000000Y-24500000D01*
X50000000Y-18000000D02*
X50200000Y-17800000D01*
X49000000Y-24500000D02*
X48100000Y-24635000D01*
X50000000Y-18000000D02*
X50200000Y-17800000D01*
X49000000Y-24500000D02*
X49500000Y-24750000D01*
X58750000Y-41250000D02*
X58750000Y-40250000D01*
X58750000Y-40250000D02*
X52000000Y-40250000D01*
X58750000Y-41250000D02*
X59500000Y-42000000D01*
X52000000Y-40250000D02*
X51450000Y-41000000D01*
X59500000Y-35250000D02*
X59500000Y-40250000D01*
X59500000Y-40250000D02*
X58750000Y-40250000D01*
X59500000Y-35250000D02*
X60250000Y-34500000D01*
X58750000Y-28500000D02*
X58750000Y-33750000D01*
X58750000Y-33750000D02*
X59500000Y-33750000D01*
X58750000Y-28500000D02*
X57900000Y-28445000D01*
X59500000Y-33750000D02*
X60250000Y-34500000D01*
X58750000Y-28500000D02*
X59250000Y-28500000D01*
X57000000Y-27250000D02*
X57000000Y-28250000D01*
X57000000Y-27250000D02*
X57900000Y-27175000D01*
X57000000Y-28250000D02*
X57900000Y-28445000D01*
X57000000Y-26000000D02*
X57000000Y-27000000D01*
X57000000Y-26000000D02*
X57900000Y-25905000D01*
X57000000Y-27000000D02*
X57900000Y-27175000D01*
X57000000Y-24750000D02*
X57000000Y-25750000D01*
X57000000Y-24750000D02*
X57900000Y-24635000D01*
X57000000Y-25750000D02*
X57900000Y-25905000D01*
X57000000Y-23500000D02*
X57000000Y-24500000D01*
X57000000Y-23500000D02*
X57900000Y-23365000D01*
X57000000Y-24500000D02*
X57900000Y-24635000D01*
X62750000Y-45500000D02*
X60250000Y-45500000D01*
X60250000Y-45500000D02*
X60250000Y-42750000D01*
X62750000Y-45500000D02*
X63500000Y-46500000D01*
X60250000Y-42750000D02*
X59500000Y-42000000D01*
X65750000Y-32250000D02*
X65750000Y-33750000D01*
X65750000Y-33750000D02*
X61000000Y-33750000D01*
X65750000Y-32250000D02*
X66500000Y-31500000D01*
X61000000Y-33750000D02*
X60250000Y-34500000D01*
X62750000Y-20750000D02*
X62750000Y-23250000D01*
X62750000Y-23250000D02*
X58750000Y-23250000D01*
X62750000Y-20750000D02*
X63540000Y-20080000D01*
X58750000Y-23250000D02*
X57900000Y-23365000D01*
X58750000Y-23250000D02*
X59250000Y-23250000D01*
X13000000Y-10750000D02*
X13000000Y-16750000D01*
X13000000Y-16750000D02*
X15000000Y-16750000D01*
X15000000Y-16750000D02*
X15000000Y-17750000D01*
X13000000Y-10750000D02*
X12500000Y-10200000D01*
X15000000Y-17750000D02*
X15300000Y-18000000D01*
X13000000Y-10750000D02*
X12500000Y-10200000D01*
X15000000Y-17750000D02*
X15300000Y-18000000D01*
X10750000Y-9500000D02*
X11500000Y-9500000D01*
X10750000Y-9500000D02*
X10000000Y-10000000D01*
X11500000Y-9500000D02*
X12500000Y-10200000D01*
X8750000Y-12750000D02*
X9250000Y-12750000D01*
X9250000Y-12750000D02*
X9250000Y-10750000D01*
X8750000Y-12750000D02*
X8000000Y-13500000D01*
X9250000Y-10750000D02*
X10000000Y-10000000D01*
X15750000Y-3750000D02*
X14000000Y-3750000D01*
X14000000Y-3750000D02*
X14000000Y-9500000D01*
X14000000Y-9500000D02*
X13500000Y-9500000D01*
X15750000Y-3750000D02*
X16540000Y-3000000D01*
X13500000Y-9500000D02*
X12500000Y-10200000D01*
X13500000Y-9500000D02*
X13750000Y-10250000D01*
X3250000Y-43750000D02*
X5250000Y-43750000D01*
X5250000Y-43750000D02*
X5250000Y-31250000D01*
X5250000Y-31250000D02*
X4250000Y-31250000D01*
X3250000Y-43750000D02*
X2500000Y-44250000D01*
X4250000Y-31250000D02*
X3500000Y-30540000D01*
X3250000Y-43750000D02*
X3750000Y-44250000D01*
X7750000Y-43750000D02*
X5250000Y-43750000D01*
X7750000Y-43750000D02*
X8500000Y-44250000D01*
X55750000Y-3750000D02*
X54000000Y-3750000D01*
X54000000Y-3750000D02*
X54000000Y-16750000D01*
X54000000Y-16750000D02*
X50500000Y-16750000D01*
X50500000Y-16750000D02*
X50500000Y-17500000D01*
X55750000Y-3750000D02*
X56540000Y-3000000D01*
X50500000Y-17500000D02*
X50200000Y-17800000D01*
X50500000Y-17500000D02*
X50200000Y-17800000D01*
%TO.N,/ALERT*%
D36*
X35500000Y-27750000D02*
X33250000Y-27750000D01*
X18000000Y-27750000D02*
X17250000Y-27750000D01*
X35500000Y-27750000D02*
X36475000Y-27730000D01*
X17250000Y-27750000D02*
X16900000Y-27500000D01*
X17250000Y-27750000D02*
X16900000Y-27500000D01*
X43000000Y-20000000D02*
X43000000Y-27500000D01*
X43000000Y-27500000D02*
X37250000Y-27500000D01*
X43000000Y-20000000D02*
X43200000Y-19500000D01*
X37250000Y-27500000D02*
X36475000Y-27730000D01*
X43000000Y-20000000D02*
X43200000Y-19500000D01*
X37250000Y-27500000D02*
X36475000Y-27730000D01*
X47250000Y-22000000D02*
X43000000Y-22000000D01*
X47250000Y-22000000D02*
X48100000Y-22095000D01*
X47250000Y-22000000D02*
X48100000Y-22095000D01*
%TO.N,TM_DIO*%
X35500000Y-26750000D02*
X34500000Y-26750000D01*
X34500000Y-28750000D02*
X34500000Y-34000000D01*
X34500000Y-34000000D02*
X6250000Y-34000000D01*
X6250000Y-34000000D02*
X6250000Y-33750000D01*
X35500000Y-26750000D02*
X36475000Y-26460000D01*
%TO.N,TM_CLK*%
X30750000Y-28000000D02*
X29250000Y-28000000D01*
X29250000Y-28000000D02*
X29250000Y-31750000D01*
X29250000Y-35000000D02*
X6250000Y-35000000D01*
X30750000Y-28000000D02*
X31525000Y-27730000D01*
X30750000Y-28000000D02*
X31525000Y-27730000D01*
%TO.N,BTN_UP_SW*%
X7750000Y-39250000D02*
X6250000Y-39250000D01*
X4250000Y-39250000D02*
X3250000Y-39250000D01*
X7750000Y-39250000D02*
X8500000Y-39750000D01*
X3250000Y-39250000D02*
X2500000Y-39750000D01*
X10500000Y-39500000D02*
X9250000Y-39500000D01*
X10500000Y-39500000D02*
X10700000Y-39800000D01*
X9250000Y-39500000D02*
X8500000Y-39750000D01*
X10500000Y-39500000D02*
X10700000Y-39800000D01*
X9250000Y-39500000D02*
X8500000Y-39750000D01*
X21000000Y-30750000D02*
X21000000Y-33000000D01*
X21000000Y-36000000D02*
X11000000Y-36000000D01*
X11000000Y-36000000D02*
X11000000Y-39500000D01*
X21000000Y-30750000D02*
X21200000Y-30270000D01*
X11000000Y-39500000D02*
X10700000Y-39800000D01*
X21000000Y-30750000D02*
X21200000Y-30270000D01*
X11000000Y-39500000D02*
X10700000Y-39800000D01*
%TO.N,BTN_UP*%
X25000000Y-32000000D02*
X25000000Y-30750000D01*
X25000000Y-30750000D02*
X23000000Y-30750000D01*
X25000000Y-32000000D02*
X25200000Y-32500000D01*
X23000000Y-30750000D02*
X22800000Y-30270000D01*
X25000000Y-32000000D02*
X25200000Y-32500000D01*
X23000000Y-30750000D02*
X22800000Y-30270000D01*
X30750000Y-30500000D02*
X30250000Y-30500000D01*
X25500000Y-30500000D02*
X25500000Y-30750000D01*
X25500000Y-30750000D02*
X25000000Y-30750000D01*
X30750000Y-30500000D02*
X31525000Y-30270000D01*
X30750000Y-30500000D02*
X30250000Y-30500000D01*
X25000000Y-30750000D02*
X25500000Y-30500000D01*
%TO.N,BTN_SET_SW*%
X7750000Y-20750000D02*
X3250000Y-20750000D01*
X7750000Y-20750000D02*
X8500000Y-21250000D01*
X3250000Y-20750000D02*
X2500000Y-21250000D01*
X10500000Y-21000000D02*
X9250000Y-21000000D01*
X10500000Y-21000000D02*
X10700000Y-21300000D01*
X9250000Y-21000000D02*
X8500000Y-21250000D01*
X10500000Y-21000000D02*
X10700000Y-21300000D01*
X9250000Y-21000000D02*
X8500000Y-21250000D01*
X21000000Y-28000000D02*
X20250000Y-28000000D01*
X20250000Y-28000000D02*
X20250000Y-26000000D01*
X20250000Y-26000000D02*
X11000000Y-26000000D01*
X11000000Y-26000000D02*
X11000000Y-24000000D01*
X11000000Y-22000000D02*
X11000000Y-21750000D01*
X21000000Y-28000000D02*
X21200000Y-28400000D01*
X11000000Y-21750000D02*
X10700000Y-21300000D01*
X21000000Y-28000000D02*
X21200000Y-28400000D01*
X11000000Y-21750000D02*
X11000000Y-22000000D01*
%TO.N,BTN_SET*%
X25000000Y-27000000D02*
X25000000Y-28000000D01*
X25000000Y-28000000D02*
X23000000Y-28000000D01*
X25000000Y-27000000D02*
X25200000Y-26500000D01*
X23000000Y-28000000D02*
X22800000Y-28400000D01*
X25000000Y-27000000D02*
X25200000Y-26500000D01*
X23000000Y-28000000D02*
X22800000Y-28400000D01*
X30750000Y-29000000D02*
X30250000Y-29000000D01*
X25500000Y-29000000D02*
X25500000Y-28000000D01*
X25500000Y-28000000D02*
X25000000Y-28000000D01*
X30750000Y-29000000D02*
X31525000Y-29000000D01*
X30750000Y-29000000D02*
X30250000Y-29000000D01*
%TO.N,DRV_IN1_MCU*%
X38250000Y-31750000D02*
X37250000Y-31750000D01*
X38250000Y-31750000D02*
X38663000Y-31850000D01*
X37250000Y-31750000D02*
X36475000Y-31540000D01*
X38250000Y-31750000D02*
X38663000Y-31850000D01*
X37250000Y-31750000D02*
X36475000Y-31540000D01*
%TO.N,DRV_IN1*%
X41500000Y-40500000D02*
X41525000Y-40635000D01*
X43000000Y-31000000D02*
X43500000Y-30700000D01*
X41500000Y-40500000D02*
X41525000Y-40635000D01*
X43000000Y-31000000D02*
X43500000Y-30700000D01*
%TO.N,DRV_IN2*%
X41500000Y-36250000D02*
X40750000Y-36250000D01*
X41500000Y-36250000D02*
X41900000Y-36000000D01*
X40750000Y-36250000D02*
X40337000Y-36150000D01*
X41500000Y-36250000D02*
X41900000Y-36000000D01*
X40750000Y-36250000D02*
X40337000Y-36150000D01*
X40750000Y-39250000D02*
X39750000Y-39250000D01*
X39750000Y-39250000D02*
X39750000Y-36250000D01*
X39750000Y-36250000D02*
X40000000Y-36250000D01*
X40750000Y-39250000D02*
X41525000Y-39365000D01*
X40000000Y-36250000D02*
X40337000Y-36150000D01*
X40750000Y-39250000D02*
X41525000Y-39365000D01*
X40000000Y-36250000D02*
X40337000Y-36150000D01*
%TO.N,/VM_OK*%
X14250000Y-24000000D02*
X13750000Y-24000000D01*
X16500000Y-20250000D02*
X16863000Y-20550000D01*
X13750000Y-24000000D02*
X13000000Y-24500000D01*
X16500000Y-20250000D02*
X16863000Y-20550000D01*
X13750000Y-24000000D02*
X14250000Y-24000000D01*
X19250000Y-27750000D02*
X19250000Y-29000000D01*
X19250000Y-29000000D02*
X14250000Y-29000000D01*
X14250000Y-29000000D02*
X14250000Y-27000000D01*
X19250000Y-27750000D02*
X19100000Y-27500000D01*
X19250000Y-27750000D02*
X19100000Y-27500000D01*
X26000000Y-21750000D02*
X25750000Y-21750000D01*
X26000000Y-21750000D02*
X26200000Y-22000000D01*
X26000000Y-21750000D02*
X25750000Y-21750000D01*
X26000000Y-19500000D02*
X26000000Y-19750000D01*
X26000000Y-19750000D02*
X25750000Y-19750000D01*
X26000000Y-19500000D02*
X26200000Y-19000000D01*
X26000000Y-19500000D02*
X25750000Y-19750000D01*
X40000000Y-31750000D02*
X40000000Y-28500000D01*
X40000000Y-26500000D02*
X40000000Y-23250000D01*
X40000000Y-23250000D02*
X26500000Y-23250000D01*
X26500000Y-23250000D02*
X26500000Y-22500000D01*
X40000000Y-31750000D02*
X40337000Y-31850000D01*
X26500000Y-22500000D02*
X26200000Y-22000000D01*
X40000000Y-31750000D02*
X40337000Y-31850000D01*
X26500000Y-22500000D02*
X26200000Y-22000000D01*
X40000000Y-34750000D02*
X40000000Y-34500000D01*
X40000000Y-34750000D02*
X40337000Y-34850000D01*
X40000000Y-31500000D02*
X40337000Y-31850000D01*
X40000000Y-34750000D02*
X40000000Y-34500000D01*
X40000000Y-31500000D02*
X40337000Y-31850000D01*
%TO.N,VM_DIV*%
X21750000Y-25500000D02*
X21250000Y-25500000D01*
X17750000Y-22500000D02*
X17500000Y-22500000D01*
X21750000Y-25500000D02*
X22000000Y-26000000D01*
X17500000Y-22500000D02*
X16863000Y-22450000D01*
X21750000Y-25500000D02*
X21250000Y-25500000D01*
X17500000Y-22500000D02*
X17750000Y-22500000D01*
X23250000Y-17500000D02*
X23250000Y-16750000D01*
X23250000Y-16750000D02*
X16000000Y-16750000D01*
X23250000Y-17500000D02*
X23600000Y-18000000D01*
X23250000Y-17500000D02*
X23600000Y-18000000D01*
%TO.N,VM_SENSE*%
X23000000Y-20750000D02*
X22000000Y-20750000D01*
X23000000Y-20750000D02*
X23300000Y-21000000D01*
X22000000Y-20750000D02*
X21500000Y-20800000D01*
X23000000Y-20750000D02*
X23300000Y-21000000D01*
X22000000Y-20750000D02*
X21500000Y-20800000D01*
X21000000Y-22500000D02*
X21000000Y-21000000D01*
X21000000Y-22500000D02*
X21500000Y-22700000D01*
X21000000Y-21000000D02*
X21500000Y-20800000D01*
X21000000Y-22500000D02*
X21500000Y-22700000D01*
X21000000Y-21000000D02*
X21500000Y-20800000D01*
X32500000Y-31250000D02*
X33500000Y-31250000D01*
X33500000Y-31250000D02*
X33500000Y-30000000D01*
X22750000Y-19250000D02*
X22750000Y-20750000D01*
X32500000Y-31250000D02*
X31525000Y-31540000D01*
X22750000Y-20750000D02*
X23300000Y-21000000D01*
X22750000Y-20750000D02*
X23300000Y-21000000D01*
%TO.N,SOL_OUT1*%
D39*
X46000000Y-43000000D02*
X46000000Y-45000000D01*
X46000000Y-45000000D02*
X36000000Y-45000000D01*
X36000000Y-45000000D02*
X36000000Y-46500000D01*
D35*
X46000000Y-40750000D02*
X46475000Y-40635000D01*
D39*
X36000000Y-46500000D02*
X35460000Y-47000000D01*
D35*
X46000000Y-40750000D02*
X46475000Y-40635000D01*
D39*
X36000000Y-46500000D02*
X35460000Y-47000000D01*
%TO.N,SOL_OUT2*%
X47250000Y-38000000D02*
X47250000Y-37750000D01*
X49250000Y-42750000D02*
X49250000Y-46500000D01*
X49250000Y-46500000D02*
X41000000Y-46500000D01*
D35*
X47250000Y-38000000D02*
X46475000Y-38095000D01*
D39*
X41000000Y-46500000D02*
X40540000Y-47000000D01*
D40*
X47250000Y-38000000D02*
X47250000Y-37750000D01*
D39*
X41000000Y-46500000D02*
X40540000Y-47000000D01*
%TO.N,+3V3*%
D41*
X12250000Y-21000000D02*
X12250000Y-20750000D01*
X12250000Y-20750000D02*
X12000000Y-20750000D01*
X12250000Y-21000000D02*
X12300000Y-21300000D01*
X12250000Y-21000000D02*
X12300000Y-21300000D01*
X28000000Y-21750000D02*
X30250000Y-21750000D01*
X30250000Y-21750000D02*
X30250000Y-19750000D01*
X29000000Y-17750000D02*
X29000000Y-12750000D01*
X29000000Y-12750000D02*
X27000000Y-12750000D01*
X27000000Y-12750000D02*
X27000000Y-10750000D01*
X27000000Y-10750000D02*
X21000000Y-10750000D01*
X21000000Y-10750000D02*
X21000000Y-15500000D01*
X21000000Y-15500000D02*
X14000000Y-15500000D01*
X14000000Y-15500000D02*
X14000000Y-15750000D01*
X28000000Y-21750000D02*
X27800000Y-22000000D01*
X28000000Y-21750000D02*
X27800000Y-22000000D01*
X27000000Y-11750000D02*
X26950000Y-12200000D01*
X27000000Y-11750000D02*
X26950000Y-12200000D01*
X27000000Y-11750000D02*
X26950000Y-12200000D01*
X27000000Y-11750000D02*
X26950000Y-12200000D01*
X28750000Y-16500000D02*
X29000000Y-16500000D01*
X28750000Y-16500000D02*
X28500000Y-17000000D01*
X29000000Y-16500000D02*
X28500000Y-17000000D01*
X28750000Y-16500000D02*
X28500000Y-17000000D01*
X29000000Y-16500000D02*
X28500000Y-17000000D01*
X24750000Y-16500000D02*
X24750000Y-15500000D01*
X24750000Y-15500000D02*
X21000000Y-15500000D01*
X24750000Y-16500000D02*
X25000000Y-17000000D01*
X24750000Y-16500000D02*
X25000000Y-17000000D01*
X44500000Y-19250000D02*
X44500000Y-18250000D01*
X44500000Y-18250000D02*
X32000000Y-18250000D01*
X32000000Y-18250000D02*
X32000000Y-19750000D01*
X32000000Y-19750000D02*
X30250000Y-19750000D01*
X44500000Y-19250000D02*
X44800000Y-19500000D01*
X44500000Y-19250000D02*
X44800000Y-19500000D01*
X47250000Y-20750000D02*
X45000000Y-20750000D01*
X45000000Y-20750000D02*
X45000000Y-19750000D01*
X47250000Y-20750000D02*
X48100000Y-20825000D01*
X45000000Y-19750000D02*
X44800000Y-19500000D01*
X47250000Y-20750000D02*
X48100000Y-20825000D01*
X45000000Y-19750000D02*
X44800000Y-19500000D01*
X48500000Y-18000000D02*
X48500000Y-18250000D01*
X48500000Y-18250000D02*
X44500000Y-18250000D01*
X48500000Y-18000000D02*
X48600000Y-17800000D01*
X48500000Y-18000000D02*
X48600000Y-17800000D01*
X49000000Y-17750000D02*
X48750000Y-17750000D01*
X53500000Y-17750000D02*
X53800000Y-18000000D01*
X48750000Y-17750000D02*
X48600000Y-17800000D01*
X53500000Y-17750000D02*
X53800000Y-18000000D01*
X48750000Y-17750000D02*
X48600000Y-17800000D01*
X57000000Y-14000000D02*
X57000000Y-17750000D01*
X57000000Y-17750000D02*
X54000000Y-17750000D01*
X57000000Y-14000000D02*
X57300000Y-13800000D01*
X54000000Y-17750000D02*
X53800000Y-18000000D01*
X57000000Y-14000000D02*
X57300000Y-13800000D01*
X54000000Y-17750000D02*
X53800000Y-18000000D01*
X61000000Y-11750000D02*
X61000000Y-13250000D01*
X61000000Y-13250000D02*
X57500000Y-13250000D01*
X57500000Y-13250000D02*
X57500000Y-13500000D01*
X61000000Y-11750000D02*
X61300000Y-11500000D01*
X57500000Y-13500000D02*
X57300000Y-13800000D01*
X61000000Y-11750000D02*
X61300000Y-11500000D01*
X57500000Y-13500000D02*
X57300000Y-13800000D01*
X63000000Y-14250000D02*
X63000000Y-13250000D01*
X63000000Y-13250000D02*
X61000000Y-13250000D01*
X63000000Y-14250000D02*
X63540000Y-15000000D01*
X47250000Y-30750000D02*
X47250000Y-29500000D01*
X47250000Y-30750000D02*
X47200000Y-31000000D01*
X47250000Y-21000000D02*
X48100000Y-20825000D01*
X47250000Y-30750000D02*
X47200000Y-31000000D01*
X47250000Y-21000000D02*
X48100000Y-20825000D01*
X38750000Y-36250000D02*
X38750000Y-40000000D01*
X50500000Y-36500000D02*
X50500000Y-32500000D01*
X50500000Y-32500000D02*
X47500000Y-32500000D01*
X47500000Y-32500000D02*
X47500000Y-31250000D01*
D38*
X38750000Y-36250000D02*
X38663000Y-36150000D01*
D41*
X47500000Y-31250000D02*
X47200000Y-31000000D01*
D38*
X38750000Y-36250000D02*
X38663000Y-36150000D01*
D41*
X47500000Y-31250000D02*
X47200000Y-31000000D01*
X36000000Y-33000000D02*
X36000000Y-36750000D01*
X36000000Y-36750000D02*
X38750000Y-36750000D01*
X36000000Y-33000000D02*
X36475000Y-32810000D01*
X36000000Y-33000000D02*
X36475000Y-32810000D01*
D38*
X38750000Y-36750000D02*
X38663000Y-36150000D01*
D41*
X36000000Y-33500000D02*
X35700000Y-33800000D01*
X36000000Y-33500000D02*
X35700000Y-33800000D01*
X36000000Y-33500000D02*
X35700000Y-33800000D01*
X36000000Y-33500000D02*
X35700000Y-33800000D01*
X12250000Y-39500000D02*
X12250000Y-37000000D01*
X12250000Y-33000000D02*
X12250000Y-28750000D01*
X12250000Y-28750000D02*
X4250000Y-28750000D01*
X12250000Y-39500000D02*
X12300000Y-39800000D01*
X4250000Y-28750000D02*
X3500000Y-28000000D01*
X12250000Y-39500000D02*
X12300000Y-39800000D01*
%TO.N,VM*%
D39*
X22000000Y-18000000D02*
X18000000Y-18000000D01*
X12000000Y-14250000D02*
X11750000Y-14250000D01*
X11750000Y-14250000D02*
X11750000Y-18000000D01*
X11750000Y-18000000D02*
X13750000Y-18000000D01*
D42*
X13750000Y-18000000D02*
X13700000Y-18000000D01*
X13750000Y-18000000D02*
X13700000Y-18000000D01*
D39*
X21500000Y-19250000D02*
X21500000Y-18000000D01*
D42*
X21500000Y-19250000D02*
X21500000Y-19200000D01*
X21500000Y-18000000D02*
X22000000Y-18000000D01*
X21500000Y-19250000D02*
X21500000Y-19200000D01*
X21500000Y-18000000D02*
X22000000Y-18000000D01*
D39*
X26000000Y-14500000D02*
X27750000Y-14500000D01*
X31000000Y-14500000D02*
X33250000Y-14500000D01*
X33250000Y-14500000D02*
X33250000Y-9500000D01*
X33250000Y-9500000D02*
X24000000Y-9500000D01*
D43*
X26000000Y-14500000D02*
X26000000Y-14800000D01*
X26000000Y-14500000D02*
X26000000Y-14800000D01*
D39*
X25500000Y-8750000D02*
X25500000Y-9500000D01*
X25500000Y-8750000D02*
X26000000Y-8000000D01*
X25500000Y-9500000D02*
X26000000Y-8000000D01*
X28500000Y-11000000D02*
X28500000Y-9500000D01*
X28500000Y-11000000D02*
X28500000Y-11200000D01*
X28500000Y-11000000D02*
X28500000Y-11200000D01*
X50750000Y-38750000D02*
X49500000Y-38750000D01*
X49500000Y-38750000D02*
X49500000Y-40500000D01*
X49500000Y-40500000D02*
X48750000Y-40500000D01*
D42*
X50750000Y-38750000D02*
X50700000Y-38700000D01*
D39*
X48750000Y-40500000D02*
X48550000Y-41000000D01*
D42*
X50750000Y-38750000D02*
X50700000Y-38700000D01*
D39*
X48750000Y-40500000D02*
X48550000Y-41000000D01*
X52750000Y-15750000D02*
X52750000Y-14500000D01*
X52750000Y-14500000D02*
X33250000Y-14500000D01*
X61250000Y-37750000D02*
X60500000Y-37750000D01*
X61250000Y-37750000D02*
X61500000Y-38000000D01*
X61250000Y-37750000D02*
X61500000Y-38000000D01*
X63250000Y-41750000D02*
X63250000Y-38250000D01*
X63250000Y-38250000D02*
X61750000Y-38250000D01*
X63250000Y-41750000D02*
X63500000Y-42500000D01*
X61750000Y-38250000D02*
X61500000Y-38000000D01*
X63250000Y-41750000D02*
X63500000Y-42500000D01*
X61750000Y-38250000D02*
X61500000Y-38000000D01*
%TO.N,VIN_OR*%
X21500000Y-7750000D02*
X15250000Y-7750000D01*
X13000000Y-7750000D02*
X12750000Y-7750000D01*
X21500000Y-7750000D02*
X22000000Y-8000000D01*
X12750000Y-7750000D02*
X12000000Y-8000000D01*
X21500000Y-7750000D02*
X22000000Y-8000000D01*
D40*
X12750000Y-7750000D02*
X13000000Y-7750000D01*
D39*
X18750000Y-12750000D02*
X18750000Y-7750000D01*
X18750000Y-12750000D02*
X19000000Y-13000000D01*
X18750000Y-12750000D02*
X19000000Y-13000000D01*
X55250000Y-7750000D02*
X55250000Y-5750000D01*
X53000000Y-5750000D02*
X22500000Y-5750000D01*
X22500000Y-5750000D02*
X22500000Y-7250000D01*
X55250000Y-7750000D02*
X56000000Y-8000000D01*
X22500000Y-7250000D02*
X22000000Y-8000000D01*
X55250000Y-7750000D02*
X56000000Y-8000000D01*
%TO.N,VIN_DC*%
X15750000Y-10500000D02*
X15750000Y-12750000D01*
X15750000Y-12750000D02*
X14000000Y-12750000D01*
X10250000Y-13750000D02*
X10250000Y-15500000D01*
X10250000Y-15500000D02*
X6000000Y-15500000D01*
X6000000Y-15500000D02*
X6000000Y-10500000D01*
X15750000Y-10500000D02*
X16500000Y-10200000D01*
X6000000Y-10500000D02*
X6500000Y-10000000D01*
X15750000Y-10500000D02*
X16500000Y-10200000D01*
X6000000Y-10500000D02*
X6500000Y-10000000D01*
X14250000Y-12750000D02*
X15000000Y-13000000D01*
X14250000Y-12750000D02*
X15000000Y-13000000D01*
D40*
X14250000Y-12750000D02*
X14000000Y-12750000D01*
X14250000Y-12750000D02*
X14000000Y-12750000D01*
%TO.N,VBAT1_IN*%
D39*
X11000000Y-3500000D02*
X8750000Y-3500000D01*
X8750000Y-3500000D02*
X8750000Y-7750000D01*
X11000000Y-3500000D02*
X11460000Y-3000000D01*
X8750000Y-7750000D02*
X8000000Y-8000000D01*
X11000000Y-3500000D02*
X11460000Y-3000000D01*
X8750000Y-7750000D02*
X8000000Y-8000000D01*
%TO.N,VBAT2_IN*%
X51250000Y-7750000D02*
X51250000Y-7000000D01*
X51250000Y-7750000D02*
X52000000Y-8000000D01*
D40*
X51250000Y-7750000D02*
X51250000Y-7000000D01*
%TO.N,ILIM*%
D36*
X40750000Y-41750000D02*
X40750000Y-41500000D01*
X40750000Y-41500000D02*
X39500000Y-41500000D01*
X40750000Y-41750000D02*
X41525000Y-41905000D01*
X39500000Y-41500000D02*
X39200000Y-41100000D01*
X40750000Y-41750000D02*
X41525000Y-41905000D01*
X39500000Y-41500000D02*
X39200000Y-41100000D01*
%TO.N,VBAT_CHG*%
X50000000Y-31250000D02*
X49000000Y-31250000D01*
X50000000Y-31250000D02*
X50400000Y-31500000D01*
X49000000Y-31250000D02*
X48800000Y-31000000D01*
X50000000Y-31250000D02*
X50400000Y-31500000D01*
X49000000Y-31250000D02*
X48800000Y-31000000D01*
%TO.N,VBAT_RTC*%
X52250000Y-33750000D02*
X52250000Y-31750000D01*
X52250000Y-33750000D02*
X52750000Y-34500000D01*
X52250000Y-31750000D02*
X52600000Y-31500000D01*
X52250000Y-31750000D02*
X52600000Y-31500000D01*
X57000000Y-22250000D02*
X53000000Y-22250000D01*
X53000000Y-22250000D02*
X53000000Y-31250000D01*
X57000000Y-22250000D02*
X57900000Y-22095000D01*
X53000000Y-31250000D02*
X52600000Y-31500000D01*
X53000000Y-31250000D02*
X52600000Y-31500000D01*
%TO.N,SDA*%
X57000000Y-20500000D02*
X51000000Y-20500000D01*
X51000000Y-20500000D02*
X51000000Y-20250000D01*
X39000000Y-24250000D02*
X39000000Y-25000000D01*
X39000000Y-25000000D02*
X37250000Y-25000000D01*
X57000000Y-20500000D02*
X57900000Y-20825000D01*
X37250000Y-25000000D02*
X36475000Y-25190000D01*
X37250000Y-25000000D02*
X36475000Y-25190000D01*
X61750000Y-21750000D02*
X59500000Y-21750000D01*
X59500000Y-21750000D02*
X59500000Y-21000000D01*
X59500000Y-21000000D02*
X58750000Y-21000000D01*
X58750000Y-21000000D02*
X57900000Y-20825000D01*
X58750000Y-21000000D02*
X57900000Y-20825000D01*
X60000000Y-11000000D02*
X60000000Y-10000000D01*
X60000000Y-10000000D02*
X65250000Y-10000000D01*
X65250000Y-10000000D02*
X65250000Y-16750000D01*
X65250000Y-16750000D02*
X64250000Y-16750000D01*
X60000000Y-11000000D02*
X59700000Y-11500000D01*
X64250000Y-16750000D02*
X63540000Y-17540000D01*
X60000000Y-11000000D02*
X59700000Y-11500000D01*
%TO.N,SCL*%
X57000000Y-19250000D02*
X57000000Y-18750000D01*
X57000000Y-18750000D02*
X56250000Y-18750000D01*
X51500000Y-15750000D02*
X33250000Y-15750000D01*
X33250000Y-15750000D02*
X33250000Y-17250000D01*
X33250000Y-24250000D02*
X33250000Y-26250000D01*
X33250000Y-26250000D02*
X32500000Y-26250000D01*
X57000000Y-19250000D02*
X57900000Y-19555000D01*
X32500000Y-26250000D02*
X31525000Y-26460000D01*
X55500000Y-14250000D02*
X55500000Y-14500000D01*
X55500000Y-14250000D02*
X55700000Y-13800000D01*
X55500000Y-14250000D02*
X55500000Y-14500000D01*
X60250000Y-18250000D02*
X58750000Y-18250000D01*
X58750000Y-18250000D02*
X58750000Y-19250000D01*
X60250000Y-18250000D02*
X61000000Y-17540000D01*
X58750000Y-19250000D02*
X57900000Y-19555000D01*
%TO.N,MISO*%
X47500000Y-16750000D02*
X47500000Y-17250000D01*
X47500000Y-17250000D02*
X34500000Y-17250000D01*
X32250000Y-25250000D02*
X31525000Y-25190000D01*
X32250000Y-25250000D02*
X31525000Y-25190000D01*
X62750000Y-12250000D02*
X62500000Y-12250000D01*
X62750000Y-12250000D02*
X63500000Y-11500000D01*
X62750000Y-12250000D02*
X62500000Y-12250000D01*
%TO.N,/RESET*%
X52250000Y-18500000D02*
X52250000Y-19500000D01*
X39000000Y-29750000D02*
X38000000Y-29750000D01*
X38000000Y-29750000D02*
X38000000Y-29250000D01*
X38000000Y-29250000D02*
X37250000Y-29250000D01*
X52250000Y-18500000D02*
X52200000Y-18000000D01*
X37250000Y-29250000D02*
X36475000Y-29000000D01*
X52250000Y-18500000D02*
X52200000Y-18000000D01*
X37250000Y-29250000D02*
X36475000Y-29000000D01*
X57750000Y-29500000D02*
X57750000Y-32250000D01*
X57750000Y-32250000D02*
X53750000Y-32250000D01*
%TO.N,+3V3*%
X42250000Y-33900000D02*
X42500000Y-35100000D01*
X40750000Y-35500000D02*
X40337000Y-35500000D01*
%TO.N,VM*%
X20000000Y-21500000D02*
X20500000Y-21500000D01*
X20500000Y-21500000D02*
X20500000Y-19250000D01*
X20500000Y-19250000D02*
X21500000Y-19250000D01*
X46475000Y-41905000D02*
X48250000Y-41905000D01*
X48250000Y-41905000D02*
X48250000Y-41000000D01*
D39*
X48250000Y-41000000D02*
X48550000Y-41000000D01*
X50750000Y-38750000D02*
X50000000Y-38750000D01*
X50000000Y-38750000D02*
X50000000Y-39500000D01*
D36*
X50000000Y-39500000D02*
X51250000Y-39500000D01*
%TO.N,DRV_IN1*%
X40337000Y-33150000D02*
X40337000Y-33500000D01*
X40337000Y-33500000D02*
X41000000Y-33500000D01*
X41000000Y-33500000D02*
X41000000Y-34000000D01*
X41000000Y-34000000D02*
X41250000Y-34000000D01*
X41250000Y-34000000D02*
X41250000Y-34750000D01*
X41250000Y-34750000D02*
X41500000Y-34750000D01*
%TO.N,DRV_IN2_MCU*%
X36475000Y-30270000D02*
X37250000Y-30500000D01*
X37250000Y-30500000D02*
X37750000Y-30500000D01*
X37750000Y-30500000D02*
X39500000Y-30500000D01*
X39500000Y-30500000D02*
X39500000Y-34750000D01*
X39500000Y-34750000D02*
X38663000Y-34850000D01*
%TD*%
M02*
