%TF.GenerationSoftware,KiCad,Pcbnew,10.0.3*%
%TF.CreationDate,2026-08-11T20:58:58-05:00*%
%TF.ProjectId,co2_timer_v5,636f325f-7469-46d6-9572-5f76352e6b69,5.0*%
%TF.SameCoordinates,Original*%
%TF.FileFunction,Legend,Top*%
%TF.FilePolarity,Positive*%
%FSLAX46Y46*%
G04 Gerber Fmt 4.6, Leading zero omitted, Abs format (unit mm)*
G04 Created by KiCad (PCBNEW 10.0.3) date 2026-08-11 20:58:58*
%MOMM*%
%LPD*%
G01*
G04 APERTURE LIST*
G04 Aperture macros list*
%AMRoundRect*
0 Rectangle with rounded corners*
0 $1 Rounding radius*
0 $2 $3 $4 $5 $6 $7 $8 $9 X,Y pos of 4 corners*
0 Add a 4 corners polygon primitive as box body*
4,1,4,$2,$3,$4,$5,$6,$7,$8,$9,$2,$3,0*
0 Add four circle primitives for the rounded corners*
1,1,$1+$1,$2,$3*
1,1,$1+$1,$4,$5*
1,1,$1+$1,$6,$7*
1,1,$1+$1,$8,$9*
0 Add four rect primitives between the rounded corners*
20,1,$1+$1,$2,$3,$4,$5,0*
20,1,$1+$1,$4,$5,$6,$7,0*
20,1,$1+$1,$6,$7,$8,$9,0*
20,1,$1+$1,$8,$9,$2,$3,0*%
G04 Aperture macros list end*
%ADD10C,0.150000*%
%ADD11C,0.120000*%
%ADD12C,0.250000*%
%ADD13C,0.300000*%
%ADD14C,0.200000*%
%ADD15C,0.100000*%
%ADD16C,3.400000*%
%ADD17RoundRect,0.100000X-0.900000X-0.900000X0.900000X-0.900000X0.900000X0.900000X-0.900000X0.900000X0*%
%ADD18C,2.000000*%
%ADD19RoundRect,0.100000X-1.750000X-1.000000X1.750000X-1.000000X1.750000X1.000000X-1.750000X1.000000X0*%
%ADD20C,2.200000*%
%ADD21RoundRect,0.100000X-0.850000X-0.850000X0.850000X-0.850000X0.850000X0.850000X-0.850000X0.850000X0*%
%ADD22C,1.900000*%
%ADD23RoundRect,0.100000X-1.200000X-0.800000X1.200000X-0.800000X1.200000X0.800000X-1.200000X0.800000X0*%
%ADD24RoundRect,0.100000X-0.800000X-1.200000X0.800000X-1.200000X0.800000X1.200000X-0.800000X1.200000X0*%
%ADD25RoundRect,0.100000X-0.900000X-1.300000X0.900000X-1.300000X0.900000X1.300000X-0.900000X1.300000X0*%
%ADD26RoundRect,0.100000X-0.450000X-0.650000X0.450000X-0.650000X0.450000X0.650000X-0.450000X0.650000X0*%
%ADD27RoundRect,0.100000X-0.575000X-0.725000X0.575000X-0.725000X0.575000X0.725000X-0.575000X0.725000X0*%
%ADD28RoundRect,0.100000X-0.975000X-0.300000X0.975000X-0.300000X0.975000X0.300000X-0.975000X0.300000X0*%
%ADD29RoundRect,0.100000X-0.400000X-0.475000X0.400000X-0.475000X0.400000X0.475000X-0.400000X0.475000X0*%
%ADD30RoundRect,0.100000X-1.000000X-0.300000X1.000000X-0.300000X1.000000X0.300000X-1.000000X0.300000X0*%
%ADD31RoundRect,0.100000X-0.400000X-0.300000X0.400000X-0.300000X0.400000X0.300000X-0.400000X0.300000X0*%
%ADD32RoundRect,0.100000X-1.205000X-1.550000X1.205000X-1.550000X1.205000X1.550000X-1.205000X1.550000X0*%
%ADD33RoundRect,0.100000X-0.575000X-0.900000X0.575000X-0.900000X0.575000X0.900000X-0.575000X0.900000X0*%
%ADD34RoundRect,0.100000X-0.475000X-0.400000X0.475000X-0.400000X0.475000X0.400000X-0.475000X0.400000X0*%
%ADD35RoundRect,0.160000X-0.602500X-0.240000X0.602500X-0.240000X0.602500X0.240000X-0.602500X0.240000X0*%
%ADD36RoundRect,0.110000X-0.502500X-0.165000X0.502500X-0.165000X0.502500X0.165000X-0.502500X0.165000X0*%
%ADD37RoundRect,0.320000X-0.680000X-0.480000X0.680000X-0.480000X0.680000X0.480000X-0.680000X0.480000X0*%
%ADD38C,1.700000*%
G04 APERTURE END LIST*
D10*
X12907142Y-5537128D02*
X13035714Y-5579985D01*
X13035714Y-5579985D02*
X13078571Y-5622842D01*
X13078571Y-5622842D02*
X13121428Y-5708557D01*
X13121428Y-5708557D02*
X13121428Y-5837128D01*
X13121428Y-5837128D02*
X13078571Y-5922842D01*
X13078571Y-5922842D02*
X13035714Y-5965700D01*
X13035714Y-5965700D02*
X12949999Y-6008557D01*
X12949999Y-6008557D02*
X12607142Y-6008557D01*
X12607142Y-6008557D02*
X12607142Y-5108557D01*
X12607142Y-5108557D02*
X12907142Y-5108557D01*
X12907142Y-5108557D02*
X12992857Y-5151414D01*
X12992857Y-5151414D02*
X13035714Y-5194271D01*
X13035714Y-5194271D02*
X13078571Y-5279985D01*
X13078571Y-5279985D02*
X13078571Y-5365700D01*
X13078571Y-5365700D02*
X13035714Y-5451414D01*
X13035714Y-5451414D02*
X12992857Y-5494271D01*
X12992857Y-5494271D02*
X12907142Y-5537128D01*
X12907142Y-5537128D02*
X12607142Y-5537128D01*
X13464285Y-5751414D02*
X13892857Y-5751414D01*
X13378571Y-6008557D02*
X13678571Y-5108557D01*
X13678571Y-5108557D02*
X13978571Y-6008557D01*
X14150000Y-5108557D02*
X14664286Y-5108557D01*
X14407143Y-6008557D02*
X14407143Y-5108557D01*
X15435714Y-6008557D02*
X14921428Y-6008557D01*
X15178571Y-6008557D02*
X15178571Y-5108557D01*
X15178571Y-5108557D02*
X15092857Y-5237128D01*
X15092857Y-5237128D02*
X15007142Y-5322842D01*
X15007142Y-5322842D02*
X14921428Y-5365700D01*
X52907142Y-5537128D02*
X53035714Y-5579985D01*
X53035714Y-5579985D02*
X53078571Y-5622842D01*
X53078571Y-5622842D02*
X53121428Y-5708557D01*
X53121428Y-5708557D02*
X53121428Y-5837128D01*
X53121428Y-5837128D02*
X53078571Y-5922842D01*
X53078571Y-5922842D02*
X53035714Y-5965700D01*
X53035714Y-5965700D02*
X52949999Y-6008557D01*
X52949999Y-6008557D02*
X52607142Y-6008557D01*
X52607142Y-6008557D02*
X52607142Y-5108557D01*
X52607142Y-5108557D02*
X52907142Y-5108557D01*
X52907142Y-5108557D02*
X52992857Y-5151414D01*
X52992857Y-5151414D02*
X53035714Y-5194271D01*
X53035714Y-5194271D02*
X53078571Y-5279985D01*
X53078571Y-5279985D02*
X53078571Y-5365700D01*
X53078571Y-5365700D02*
X53035714Y-5451414D01*
X53035714Y-5451414D02*
X52992857Y-5494271D01*
X52992857Y-5494271D02*
X52907142Y-5537128D01*
X52907142Y-5537128D02*
X52607142Y-5537128D01*
X53464285Y-5751414D02*
X53892857Y-5751414D01*
X53378571Y-6008557D02*
X53678571Y-5108557D01*
X53678571Y-5108557D02*
X53978571Y-6008557D01*
X54150000Y-5108557D02*
X54664286Y-5108557D01*
X54407143Y-6008557D02*
X54407143Y-5108557D01*
X54921428Y-5194271D02*
X54964285Y-5151414D01*
X54964285Y-5151414D02*
X55050000Y-5108557D01*
X55050000Y-5108557D02*
X55264285Y-5108557D01*
X55264285Y-5108557D02*
X55350000Y-5151414D01*
X55350000Y-5151414D02*
X55392857Y-5194271D01*
X55392857Y-5194271D02*
X55435714Y-5279985D01*
X55435714Y-5279985D02*
X55435714Y-5365700D01*
X55435714Y-5365700D02*
X55392857Y-5494271D01*
X55392857Y-5494271D02*
X54878571Y-6008557D01*
X54878571Y-6008557D02*
X55435714Y-6008557D01*
X11155238Y-5557533D02*
X11764762Y-5557533D01*
X11460000Y-5862295D02*
X11460000Y-5252771D01*
X16235238Y-5557533D02*
X16844762Y-5557533D01*
X51155238Y-5557533D02*
X51764762Y-5557533D01*
X51460000Y-5862295D02*
X51460000Y-5252771D01*
X56235238Y-5557533D02*
X56844762Y-5557533D01*
X35238095Y-45224200D02*
X35352381Y-45262295D01*
X35352381Y-45262295D02*
X35542857Y-45262295D01*
X35542857Y-45262295D02*
X35619048Y-45224200D01*
X35619048Y-45224200D02*
X35657143Y-45186104D01*
X35657143Y-45186104D02*
X35695238Y-45109914D01*
X35695238Y-45109914D02*
X35695238Y-45033723D01*
X35695238Y-45033723D02*
X35657143Y-44957533D01*
X35657143Y-44957533D02*
X35619048Y-44919438D01*
X35619048Y-44919438D02*
X35542857Y-44881342D01*
X35542857Y-44881342D02*
X35390476Y-44843247D01*
X35390476Y-44843247D02*
X35314286Y-44805152D01*
X35314286Y-44805152D02*
X35276191Y-44767057D01*
X35276191Y-44767057D02*
X35238095Y-44690866D01*
X35238095Y-44690866D02*
X35238095Y-44614676D01*
X35238095Y-44614676D02*
X35276191Y-44538485D01*
X35276191Y-44538485D02*
X35314286Y-44500390D01*
X35314286Y-44500390D02*
X35390476Y-44462295D01*
X35390476Y-44462295D02*
X35580953Y-44462295D01*
X35580953Y-44462295D02*
X35695238Y-44500390D01*
X36190477Y-44462295D02*
X36342858Y-44462295D01*
X36342858Y-44462295D02*
X36419048Y-44500390D01*
X36419048Y-44500390D02*
X36495239Y-44576580D01*
X36495239Y-44576580D02*
X36533334Y-44728961D01*
X36533334Y-44728961D02*
X36533334Y-44995628D01*
X36533334Y-44995628D02*
X36495239Y-45148009D01*
X36495239Y-45148009D02*
X36419048Y-45224200D01*
X36419048Y-45224200D02*
X36342858Y-45262295D01*
X36342858Y-45262295D02*
X36190477Y-45262295D01*
X36190477Y-45262295D02*
X36114286Y-45224200D01*
X36114286Y-45224200D02*
X36038096Y-45148009D01*
X36038096Y-45148009D02*
X36000000Y-44995628D01*
X36000000Y-44995628D02*
X36000000Y-44728961D01*
X36000000Y-44728961D02*
X36038096Y-44576580D01*
X36038096Y-44576580D02*
X36114286Y-44500390D01*
X36114286Y-44500390D02*
X36190477Y-44462295D01*
X37257143Y-45262295D02*
X36876191Y-45262295D01*
X36876191Y-45262295D02*
X36876191Y-44462295D01*
X37523810Y-44843247D02*
X37790476Y-44843247D01*
X37904762Y-45262295D02*
X37523810Y-45262295D01*
X37523810Y-45262295D02*
X37523810Y-44462295D01*
X37523810Y-44462295D02*
X37904762Y-44462295D01*
X38247620Y-45262295D02*
X38247620Y-44462295D01*
X38247620Y-44462295D02*
X38704763Y-45262295D01*
X38704763Y-45262295D02*
X38704763Y-44462295D01*
X39238096Y-44462295D02*
X39390477Y-44462295D01*
X39390477Y-44462295D02*
X39466667Y-44500390D01*
X39466667Y-44500390D02*
X39542858Y-44576580D01*
X39542858Y-44576580D02*
X39580953Y-44728961D01*
X39580953Y-44728961D02*
X39580953Y-44995628D01*
X39580953Y-44995628D02*
X39542858Y-45148009D01*
X39542858Y-45148009D02*
X39466667Y-45224200D01*
X39466667Y-45224200D02*
X39390477Y-45262295D01*
X39390477Y-45262295D02*
X39238096Y-45262295D01*
X39238096Y-45262295D02*
X39161905Y-45224200D01*
X39161905Y-45224200D02*
X39085715Y-45148009D01*
X39085715Y-45148009D02*
X39047619Y-44995628D01*
X39047619Y-44995628D02*
X39047619Y-44728961D01*
X39047619Y-44728961D02*
X39085715Y-44576580D01*
X39085715Y-44576580D02*
X39161905Y-44500390D01*
X39161905Y-44500390D02*
X39238096Y-44462295D01*
X39923810Y-45262295D02*
X39923810Y-44462295D01*
X40304762Y-45262295D02*
X40304762Y-44462295D01*
X40304762Y-44462295D02*
X40495238Y-44462295D01*
X40495238Y-44462295D02*
X40609524Y-44500390D01*
X40609524Y-44500390D02*
X40685714Y-44576580D01*
X40685714Y-44576580D02*
X40723809Y-44652771D01*
X40723809Y-44652771D02*
X40761905Y-44805152D01*
X40761905Y-44805152D02*
X40761905Y-44919438D01*
X40761905Y-44919438D02*
X40723809Y-45071819D01*
X40723809Y-45071819D02*
X40685714Y-45148009D01*
X40685714Y-45148009D02*
X40609524Y-45224200D01*
X40609524Y-45224200D02*
X40495238Y-45262295D01*
X40495238Y-45262295D02*
X40304762Y-45262295D01*
X35155238Y-45957533D02*
X35764762Y-45957533D01*
X35460000Y-46262295D02*
X35460000Y-45652771D01*
X40235238Y-45957533D02*
X40844762Y-45957533D01*
X5142857Y-4862295D02*
X5295238Y-4862295D01*
X5295238Y-4862295D02*
X5371428Y-4824200D01*
X5371428Y-4824200D02*
X5409524Y-4786104D01*
X5409524Y-4786104D02*
X5485714Y-4671819D01*
X5485714Y-4671819D02*
X5523809Y-4519438D01*
X5523809Y-4519438D02*
X5523809Y-4214676D01*
X5523809Y-4214676D02*
X5485714Y-4138485D01*
X5485714Y-4138485D02*
X5447619Y-4100390D01*
X5447619Y-4100390D02*
X5371428Y-4062295D01*
X5371428Y-4062295D02*
X5219047Y-4062295D01*
X5219047Y-4062295D02*
X5142857Y-4100390D01*
X5142857Y-4100390D02*
X5104762Y-4138485D01*
X5104762Y-4138485D02*
X5066666Y-4214676D01*
X5066666Y-4214676D02*
X5066666Y-4405152D01*
X5066666Y-4405152D02*
X5104762Y-4481342D01*
X5104762Y-4481342D02*
X5142857Y-4519438D01*
X5142857Y-4519438D02*
X5219047Y-4557533D01*
X5219047Y-4557533D02*
X5371428Y-4557533D01*
X5371428Y-4557533D02*
X5447619Y-4519438D01*
X5447619Y-4519438D02*
X5485714Y-4481342D01*
X5485714Y-4481342D02*
X5523809Y-4405152D01*
X5866667Y-4557533D02*
X6476191Y-4557533D01*
X7276190Y-4862295D02*
X6819047Y-4862295D01*
X7047619Y-4862295D02*
X7047619Y-4062295D01*
X7047619Y-4062295D02*
X6971428Y-4176580D01*
X6971428Y-4176580D02*
X6895238Y-4252771D01*
X6895238Y-4252771D02*
X6819047Y-4290866D01*
X7580952Y-4138485D02*
X7619048Y-4100390D01*
X7619048Y-4100390D02*
X7695238Y-4062295D01*
X7695238Y-4062295D02*
X7885714Y-4062295D01*
X7885714Y-4062295D02*
X7961905Y-4100390D01*
X7961905Y-4100390D02*
X8000000Y-4138485D01*
X8000000Y-4138485D02*
X8038095Y-4214676D01*
X8038095Y-4214676D02*
X8038095Y-4290866D01*
X8038095Y-4290866D02*
X8000000Y-4405152D01*
X8000000Y-4405152D02*
X7542857Y-4862295D01*
X7542857Y-4862295D02*
X8038095Y-4862295D01*
X8266667Y-4062295D02*
X8533334Y-4862295D01*
X8533334Y-4862295D02*
X8800000Y-4062295D01*
X9676191Y-4862295D02*
X9676191Y-4062295D01*
X9676191Y-4062295D02*
X9866667Y-4062295D01*
X9866667Y-4062295D02*
X9980953Y-4100390D01*
X9980953Y-4100390D02*
X10057143Y-4176580D01*
X10057143Y-4176580D02*
X10095238Y-4252771D01*
X10095238Y-4252771D02*
X10133334Y-4405152D01*
X10133334Y-4405152D02*
X10133334Y-4519438D01*
X10133334Y-4519438D02*
X10095238Y-4671819D01*
X10095238Y-4671819D02*
X10057143Y-4748009D01*
X10057143Y-4748009D02*
X9980953Y-4824200D01*
X9980953Y-4824200D02*
X9866667Y-4862295D01*
X9866667Y-4862295D02*
X9676191Y-4862295D01*
X10933334Y-4786104D02*
X10895238Y-4824200D01*
X10895238Y-4824200D02*
X10780953Y-4862295D01*
X10780953Y-4862295D02*
X10704762Y-4862295D01*
X10704762Y-4862295D02*
X10590476Y-4824200D01*
X10590476Y-4824200D02*
X10514286Y-4748009D01*
X10514286Y-4748009D02*
X10476191Y-4671819D01*
X10476191Y-4671819D02*
X10438095Y-4519438D01*
X10438095Y-4519438D02*
X10438095Y-4405152D01*
X10438095Y-4405152D02*
X10476191Y-4252771D01*
X10476191Y-4252771D02*
X10514286Y-4176580D01*
X10514286Y-4176580D02*
X10590476Y-4100390D01*
X10590476Y-4100390D02*
X10704762Y-4062295D01*
X10704762Y-4062295D02*
X10780953Y-4062295D01*
X10780953Y-4062295D02*
X10895238Y-4100390D01*
X10895238Y-4100390D02*
X10933334Y-4138485D01*
X1862295Y-32690475D02*
X1062295Y-32690475D01*
X1062295Y-32690475D02*
X1062295Y-32499999D01*
X1062295Y-32499999D02*
X1100390Y-32385713D01*
X1100390Y-32385713D02*
X1176580Y-32309523D01*
X1176580Y-32309523D02*
X1252771Y-32271428D01*
X1252771Y-32271428D02*
X1405152Y-32233332D01*
X1405152Y-32233332D02*
X1519438Y-32233332D01*
X1519438Y-32233332D02*
X1671819Y-32271428D01*
X1671819Y-32271428D02*
X1748009Y-32309523D01*
X1748009Y-32309523D02*
X1824200Y-32385713D01*
X1824200Y-32385713D02*
X1862295Y-32499999D01*
X1862295Y-32499999D02*
X1862295Y-32690475D01*
X1862295Y-31890475D02*
X1062295Y-31890475D01*
X1824200Y-31547619D02*
X1862295Y-31433333D01*
X1862295Y-31433333D02*
X1862295Y-31242857D01*
X1862295Y-31242857D02*
X1824200Y-31166666D01*
X1824200Y-31166666D02*
X1786104Y-31128571D01*
X1786104Y-31128571D02*
X1709914Y-31090476D01*
X1709914Y-31090476D02*
X1633723Y-31090476D01*
X1633723Y-31090476D02*
X1557533Y-31128571D01*
X1557533Y-31128571D02*
X1519438Y-31166666D01*
X1519438Y-31166666D02*
X1481342Y-31242857D01*
X1481342Y-31242857D02*
X1443247Y-31395238D01*
X1443247Y-31395238D02*
X1405152Y-31471428D01*
X1405152Y-31471428D02*
X1367057Y-31509523D01*
X1367057Y-31509523D02*
X1290866Y-31547619D01*
X1290866Y-31547619D02*
X1214676Y-31547619D01*
X1214676Y-31547619D02*
X1138485Y-31509523D01*
X1138485Y-31509523D02*
X1100390Y-31471428D01*
X1100390Y-31471428D02*
X1062295Y-31395238D01*
X1062295Y-31395238D02*
X1062295Y-31204761D01*
X1062295Y-31204761D02*
X1100390Y-31090476D01*
X1862295Y-30747618D02*
X1062295Y-30747618D01*
X1062295Y-30747618D02*
X1062295Y-30442856D01*
X1062295Y-30442856D02*
X1100390Y-30366666D01*
X1100390Y-30366666D02*
X1138485Y-30328571D01*
X1138485Y-30328571D02*
X1214676Y-30290475D01*
X1214676Y-30290475D02*
X1328961Y-30290475D01*
X1328961Y-30290475D02*
X1405152Y-30328571D01*
X1405152Y-30328571D02*
X1443247Y-30366666D01*
X1443247Y-30366666D02*
X1481342Y-30442856D01*
X1481342Y-30442856D02*
X1481342Y-30747618D01*
X1862295Y-29566666D02*
X1862295Y-29947618D01*
X1862295Y-29947618D02*
X1062295Y-29947618D01*
X1633723Y-29338095D02*
X1633723Y-28957142D01*
X1862295Y-29414285D02*
X1062295Y-29147618D01*
X1062295Y-29147618D02*
X1862295Y-28880952D01*
X1481342Y-28461904D02*
X1862295Y-28461904D01*
X1062295Y-28728571D02*
X1481342Y-28461904D01*
X1481342Y-28461904D02*
X1062295Y-28195238D01*
X58019048Y-17862295D02*
X58019048Y-17062295D01*
X58361904Y-17824200D02*
X58476190Y-17862295D01*
X58476190Y-17862295D02*
X58666666Y-17862295D01*
X58666666Y-17862295D02*
X58742857Y-17824200D01*
X58742857Y-17824200D02*
X58780952Y-17786104D01*
X58780952Y-17786104D02*
X58819047Y-17709914D01*
X58819047Y-17709914D02*
X58819047Y-17633723D01*
X58819047Y-17633723D02*
X58780952Y-17557533D01*
X58780952Y-17557533D02*
X58742857Y-17519438D01*
X58742857Y-17519438D02*
X58666666Y-17481342D01*
X58666666Y-17481342D02*
X58514285Y-17443247D01*
X58514285Y-17443247D02*
X58438095Y-17405152D01*
X58438095Y-17405152D02*
X58400000Y-17367057D01*
X58400000Y-17367057D02*
X58361904Y-17290866D01*
X58361904Y-17290866D02*
X58361904Y-17214676D01*
X58361904Y-17214676D02*
X58400000Y-17138485D01*
X58400000Y-17138485D02*
X58438095Y-17100390D01*
X58438095Y-17100390D02*
X58514285Y-17062295D01*
X58514285Y-17062295D02*
X58704762Y-17062295D01*
X58704762Y-17062295D02*
X58819047Y-17100390D01*
X59161905Y-17862295D02*
X59161905Y-17062295D01*
X59161905Y-17062295D02*
X59466667Y-17062295D01*
X59466667Y-17062295D02*
X59542857Y-17100390D01*
X59542857Y-17100390D02*
X59580952Y-17138485D01*
X59580952Y-17138485D02*
X59619048Y-17214676D01*
X59619048Y-17214676D02*
X59619048Y-17328961D01*
X59619048Y-17328961D02*
X59580952Y-17405152D01*
X59580952Y-17405152D02*
X59542857Y-17443247D01*
X59542857Y-17443247D02*
X59466667Y-17481342D01*
X59466667Y-17481342D02*
X59161905Y-17481342D01*
X4871429Y-45862295D02*
X4871429Y-46509914D01*
X4871429Y-46509914D02*
X4909524Y-46586104D01*
X4909524Y-46586104D02*
X4947619Y-46624200D01*
X4947619Y-46624200D02*
X5023810Y-46662295D01*
X5023810Y-46662295D02*
X5176191Y-46662295D01*
X5176191Y-46662295D02*
X5252381Y-46624200D01*
X5252381Y-46624200D02*
X5290476Y-46586104D01*
X5290476Y-46586104D02*
X5328572Y-46509914D01*
X5328572Y-46509914D02*
X5328572Y-45862295D01*
X5709524Y-46662295D02*
X5709524Y-45862295D01*
X5709524Y-45862295D02*
X6014286Y-45862295D01*
X6014286Y-45862295D02*
X6090476Y-45900390D01*
X6090476Y-45900390D02*
X6128571Y-45938485D01*
X6128571Y-45938485D02*
X6166667Y-46014676D01*
X6166667Y-46014676D02*
X6166667Y-46128961D01*
X6166667Y-46128961D02*
X6128571Y-46205152D01*
X6128571Y-46205152D02*
X6090476Y-46243247D01*
X6090476Y-46243247D02*
X6014286Y-46281342D01*
X6014286Y-46281342D02*
X5709524Y-46281342D01*
X5304761Y-28224200D02*
X5419047Y-28262295D01*
X5419047Y-28262295D02*
X5609523Y-28262295D01*
X5609523Y-28262295D02*
X5685714Y-28224200D01*
X5685714Y-28224200D02*
X5723809Y-28186104D01*
X5723809Y-28186104D02*
X5761904Y-28109914D01*
X5761904Y-28109914D02*
X5761904Y-28033723D01*
X5761904Y-28033723D02*
X5723809Y-27957533D01*
X5723809Y-27957533D02*
X5685714Y-27919438D01*
X5685714Y-27919438D02*
X5609523Y-27881342D01*
X5609523Y-27881342D02*
X5457142Y-27843247D01*
X5457142Y-27843247D02*
X5380952Y-27805152D01*
X5380952Y-27805152D02*
X5342857Y-27767057D01*
X5342857Y-27767057D02*
X5304761Y-27690866D01*
X5304761Y-27690866D02*
X5304761Y-27614676D01*
X5304761Y-27614676D02*
X5342857Y-27538485D01*
X5342857Y-27538485D02*
X5380952Y-27500390D01*
X5380952Y-27500390D02*
X5457142Y-27462295D01*
X5457142Y-27462295D02*
X5647619Y-27462295D01*
X5647619Y-27462295D02*
X5761904Y-27500390D01*
X6104762Y-27843247D02*
X6371428Y-27843247D01*
X6485714Y-28262295D02*
X6104762Y-28262295D01*
X6104762Y-28262295D02*
X6104762Y-27462295D01*
X6104762Y-27462295D02*
X6485714Y-27462295D01*
X6714286Y-27462295D02*
X7171429Y-27462295D01*
X6942857Y-28262295D02*
X6942857Y-27462295D01*
X26857142Y-1051414D02*
X26771428Y-1008557D01*
X26771428Y-1008557D02*
X26642856Y-1008557D01*
X26642856Y-1008557D02*
X26514285Y-1051414D01*
X26514285Y-1051414D02*
X26428570Y-1137128D01*
X26428570Y-1137128D02*
X26385713Y-1222842D01*
X26385713Y-1222842D02*
X26342856Y-1394271D01*
X26342856Y-1394271D02*
X26342856Y-1522842D01*
X26342856Y-1522842D02*
X26385713Y-1694271D01*
X26385713Y-1694271D02*
X26428570Y-1779985D01*
X26428570Y-1779985D02*
X26514285Y-1865700D01*
X26514285Y-1865700D02*
X26642856Y-1908557D01*
X26642856Y-1908557D02*
X26728570Y-1908557D01*
X26728570Y-1908557D02*
X26857142Y-1865700D01*
X26857142Y-1865700D02*
X26899999Y-1822842D01*
X26899999Y-1822842D02*
X26899999Y-1522842D01*
X26899999Y-1522842D02*
X26728570Y-1522842D01*
X27285713Y-1908557D02*
X27285713Y-1308557D01*
X27285713Y-1479985D02*
X27328570Y-1394271D01*
X27328570Y-1394271D02*
X27371428Y-1351414D01*
X27371428Y-1351414D02*
X27457142Y-1308557D01*
X27457142Y-1308557D02*
X27542856Y-1308557D01*
X28185713Y-1865700D02*
X28099999Y-1908557D01*
X28099999Y-1908557D02*
X27928571Y-1908557D01*
X27928571Y-1908557D02*
X27842856Y-1865700D01*
X27842856Y-1865700D02*
X27799999Y-1779985D01*
X27799999Y-1779985D02*
X27799999Y-1437128D01*
X27799999Y-1437128D02*
X27842856Y-1351414D01*
X27842856Y-1351414D02*
X27928571Y-1308557D01*
X27928571Y-1308557D02*
X28099999Y-1308557D01*
X28099999Y-1308557D02*
X28185713Y-1351414D01*
X28185713Y-1351414D02*
X28228571Y-1437128D01*
X28228571Y-1437128D02*
X28228571Y-1522842D01*
X28228571Y-1522842D02*
X27799999Y-1608557D01*
X28957142Y-1865700D02*
X28871428Y-1908557D01*
X28871428Y-1908557D02*
X28700000Y-1908557D01*
X28700000Y-1908557D02*
X28614285Y-1865700D01*
X28614285Y-1865700D02*
X28571428Y-1779985D01*
X28571428Y-1779985D02*
X28571428Y-1437128D01*
X28571428Y-1437128D02*
X28614285Y-1351414D01*
X28614285Y-1351414D02*
X28700000Y-1308557D01*
X28700000Y-1308557D02*
X28871428Y-1308557D01*
X28871428Y-1308557D02*
X28957142Y-1351414D01*
X28957142Y-1351414D02*
X29000000Y-1437128D01*
X29000000Y-1437128D02*
X29000000Y-1522842D01*
X29000000Y-1522842D02*
X28571428Y-1608557D01*
X29385714Y-1308557D02*
X29385714Y-1908557D01*
X29385714Y-1394271D02*
X29428571Y-1351414D01*
X29428571Y-1351414D02*
X29514286Y-1308557D01*
X29514286Y-1308557D02*
X29642857Y-1308557D01*
X29642857Y-1308557D02*
X29728571Y-1351414D01*
X29728571Y-1351414D02*
X29771429Y-1437128D01*
X29771429Y-1437128D02*
X29771429Y-1908557D01*
X30671429Y-1051414D02*
X30585715Y-1008557D01*
X30585715Y-1008557D02*
X30457143Y-1008557D01*
X30457143Y-1008557D02*
X30328572Y-1051414D01*
X30328572Y-1051414D02*
X30242857Y-1137128D01*
X30242857Y-1137128D02*
X30200000Y-1222842D01*
X30200000Y-1222842D02*
X30157143Y-1394271D01*
X30157143Y-1394271D02*
X30157143Y-1522842D01*
X30157143Y-1522842D02*
X30200000Y-1694271D01*
X30200000Y-1694271D02*
X30242857Y-1779985D01*
X30242857Y-1779985D02*
X30328572Y-1865700D01*
X30328572Y-1865700D02*
X30457143Y-1908557D01*
X30457143Y-1908557D02*
X30542857Y-1908557D01*
X30542857Y-1908557D02*
X30671429Y-1865700D01*
X30671429Y-1865700D02*
X30714286Y-1822842D01*
X30714286Y-1822842D02*
X30714286Y-1522842D01*
X30714286Y-1522842D02*
X30542857Y-1522842D01*
X31485715Y-1308557D02*
X31485715Y-1908557D01*
X31100000Y-1308557D02*
X31100000Y-1779985D01*
X31100000Y-1779985D02*
X31142857Y-1865700D01*
X31142857Y-1865700D02*
X31228572Y-1908557D01*
X31228572Y-1908557D02*
X31357143Y-1908557D01*
X31357143Y-1908557D02*
X31442857Y-1865700D01*
X31442857Y-1865700D02*
X31485715Y-1822842D01*
X32300001Y-1908557D02*
X32300001Y-1437128D01*
X32300001Y-1437128D02*
X32257143Y-1351414D01*
X32257143Y-1351414D02*
X32171429Y-1308557D01*
X32171429Y-1308557D02*
X32000001Y-1308557D01*
X32000001Y-1308557D02*
X31914286Y-1351414D01*
X32300001Y-1865700D02*
X32214286Y-1908557D01*
X32214286Y-1908557D02*
X32000001Y-1908557D01*
X32000001Y-1908557D02*
X31914286Y-1865700D01*
X31914286Y-1865700D02*
X31871429Y-1779985D01*
X31871429Y-1779985D02*
X31871429Y-1694271D01*
X31871429Y-1694271D02*
X31914286Y-1608557D01*
X31914286Y-1608557D02*
X32000001Y-1565700D01*
X32000001Y-1565700D02*
X32214286Y-1565700D01*
X32214286Y-1565700D02*
X32300001Y-1522842D01*
X32728572Y-1908557D02*
X32728572Y-1308557D01*
X32728572Y-1479985D02*
X32771429Y-1394271D01*
X32771429Y-1394271D02*
X32814287Y-1351414D01*
X32814287Y-1351414D02*
X32900001Y-1308557D01*
X32900001Y-1308557D02*
X32985715Y-1308557D01*
X33671430Y-1908557D02*
X33671430Y-1008557D01*
X33671430Y-1865700D02*
X33585715Y-1908557D01*
X33585715Y-1908557D02*
X33414287Y-1908557D01*
X33414287Y-1908557D02*
X33328572Y-1865700D01*
X33328572Y-1865700D02*
X33285715Y-1822842D01*
X33285715Y-1822842D02*
X33242858Y-1737128D01*
X33242858Y-1737128D02*
X33242858Y-1479985D01*
X33242858Y-1479985D02*
X33285715Y-1394271D01*
X33285715Y-1394271D02*
X33328572Y-1351414D01*
X33328572Y-1351414D02*
X33414287Y-1308557D01*
X33414287Y-1308557D02*
X33585715Y-1308557D01*
X33585715Y-1308557D02*
X33671430Y-1351414D01*
X35300001Y-1822842D02*
X35257144Y-1865700D01*
X35257144Y-1865700D02*
X35128572Y-1908557D01*
X35128572Y-1908557D02*
X35042858Y-1908557D01*
X35042858Y-1908557D02*
X34914287Y-1865700D01*
X34914287Y-1865700D02*
X34828572Y-1779985D01*
X34828572Y-1779985D02*
X34785715Y-1694271D01*
X34785715Y-1694271D02*
X34742858Y-1522842D01*
X34742858Y-1522842D02*
X34742858Y-1394271D01*
X34742858Y-1394271D02*
X34785715Y-1222842D01*
X34785715Y-1222842D02*
X34828572Y-1137128D01*
X34828572Y-1137128D02*
X34914287Y-1051414D01*
X34914287Y-1051414D02*
X35042858Y-1008557D01*
X35042858Y-1008557D02*
X35128572Y-1008557D01*
X35128572Y-1008557D02*
X35257144Y-1051414D01*
X35257144Y-1051414D02*
X35300001Y-1094271D01*
X35857144Y-1008557D02*
X36028572Y-1008557D01*
X36028572Y-1008557D02*
X36114287Y-1051414D01*
X36114287Y-1051414D02*
X36200001Y-1137128D01*
X36200001Y-1137128D02*
X36242858Y-1308557D01*
X36242858Y-1308557D02*
X36242858Y-1608557D01*
X36242858Y-1608557D02*
X36200001Y-1779985D01*
X36200001Y-1779985D02*
X36114287Y-1865700D01*
X36114287Y-1865700D02*
X36028572Y-1908557D01*
X36028572Y-1908557D02*
X35857144Y-1908557D01*
X35857144Y-1908557D02*
X35771430Y-1865700D01*
X35771430Y-1865700D02*
X35685715Y-1779985D01*
X35685715Y-1779985D02*
X35642858Y-1608557D01*
X35642858Y-1608557D02*
X35642858Y-1308557D01*
X35642858Y-1308557D02*
X35685715Y-1137128D01*
X35685715Y-1137128D02*
X35771430Y-1051414D01*
X35771430Y-1051414D02*
X35857144Y-1008557D01*
X36585715Y-1094271D02*
X36628572Y-1051414D01*
X36628572Y-1051414D02*
X36714287Y-1008557D01*
X36714287Y-1008557D02*
X36928572Y-1008557D01*
X36928572Y-1008557D02*
X37014287Y-1051414D01*
X37014287Y-1051414D02*
X37057144Y-1094271D01*
X37057144Y-1094271D02*
X37100001Y-1179985D01*
X37100001Y-1179985D02*
X37100001Y-1265700D01*
X37100001Y-1265700D02*
X37057144Y-1394271D01*
X37057144Y-1394271D02*
X36542858Y-1908557D01*
X36542858Y-1908557D02*
X37100001Y-1908557D01*
X38042858Y-1008557D02*
X38557144Y-1008557D01*
X38300001Y-1908557D02*
X38300001Y-1008557D01*
X38857143Y-1908557D02*
X38857143Y-1308557D01*
X38857143Y-1008557D02*
X38814286Y-1051414D01*
X38814286Y-1051414D02*
X38857143Y-1094271D01*
X38857143Y-1094271D02*
X38900000Y-1051414D01*
X38900000Y-1051414D02*
X38857143Y-1008557D01*
X38857143Y-1008557D02*
X38857143Y-1094271D01*
X39285714Y-1908557D02*
X39285714Y-1308557D01*
X39285714Y-1394271D02*
X39328571Y-1351414D01*
X39328571Y-1351414D02*
X39414286Y-1308557D01*
X39414286Y-1308557D02*
X39542857Y-1308557D01*
X39542857Y-1308557D02*
X39628571Y-1351414D01*
X39628571Y-1351414D02*
X39671429Y-1437128D01*
X39671429Y-1437128D02*
X39671429Y-1908557D01*
X39671429Y-1437128D02*
X39714286Y-1351414D01*
X39714286Y-1351414D02*
X39800000Y-1308557D01*
X39800000Y-1308557D02*
X39928571Y-1308557D01*
X39928571Y-1308557D02*
X40014286Y-1351414D01*
X40014286Y-1351414D02*
X40057143Y-1437128D01*
X40057143Y-1437128D02*
X40057143Y-1908557D01*
X40828571Y-1865700D02*
X40742857Y-1908557D01*
X40742857Y-1908557D02*
X40571429Y-1908557D01*
X40571429Y-1908557D02*
X40485714Y-1865700D01*
X40485714Y-1865700D02*
X40442857Y-1779985D01*
X40442857Y-1779985D02*
X40442857Y-1437128D01*
X40442857Y-1437128D02*
X40485714Y-1351414D01*
X40485714Y-1351414D02*
X40571429Y-1308557D01*
X40571429Y-1308557D02*
X40742857Y-1308557D01*
X40742857Y-1308557D02*
X40828571Y-1351414D01*
X40828571Y-1351414D02*
X40871429Y-1437128D01*
X40871429Y-1437128D02*
X40871429Y-1522842D01*
X40871429Y-1522842D02*
X40442857Y-1608557D01*
X41257143Y-1908557D02*
X41257143Y-1308557D01*
X41257143Y-1479985D02*
X41300000Y-1394271D01*
X41300000Y-1394271D02*
X41342858Y-1351414D01*
X41342858Y-1351414D02*
X41428572Y-1308557D01*
X41428572Y-1308557D02*
X41514286Y-1308557D01*
X42414286Y-1308557D02*
X42628572Y-1908557D01*
X42628572Y-1908557D02*
X42842857Y-1308557D01*
X43614286Y-1008557D02*
X43185714Y-1008557D01*
X43185714Y-1008557D02*
X43142857Y-1437128D01*
X43142857Y-1437128D02*
X43185714Y-1394271D01*
X43185714Y-1394271D02*
X43271429Y-1351414D01*
X43271429Y-1351414D02*
X43485714Y-1351414D01*
X43485714Y-1351414D02*
X43571429Y-1394271D01*
X43571429Y-1394271D02*
X43614286Y-1437128D01*
X43614286Y-1437128D02*
X43657143Y-1522842D01*
X43657143Y-1522842D02*
X43657143Y-1737128D01*
X43657143Y-1737128D02*
X43614286Y-1822842D01*
X43614286Y-1822842D02*
X43571429Y-1865700D01*
X43571429Y-1865700D02*
X43485714Y-1908557D01*
X43485714Y-1908557D02*
X43271429Y-1908557D01*
X43271429Y-1908557D02*
X43185714Y-1865700D01*
X43185714Y-1865700D02*
X43142857Y-1822842D01*
X51757142Y-33265700D02*
X52442857Y-33265700D01*
X52099999Y-33608557D02*
X52099999Y-32922842D01*
X52857142Y-38865700D02*
X53542857Y-38865700D01*
X53199999Y-39208557D02*
X53199999Y-38522842D01*
X59857142Y-28365700D02*
X60542857Y-28365700D01*
X60199999Y-28708557D02*
X60199999Y-28022842D01*
%TO.C,J1*%
D11*
X9000000Y-1000000D02*
X19000000Y-1000000D01*
X9000000Y-5000000D02*
X19000000Y-5000000D01*
X9000000Y-1000000D02*
X9000000Y-5000000D01*
X19000000Y-1000000D02*
X19000000Y-5000000D01*
%TO.C,J6*%
X49000000Y-1000000D02*
X59000000Y-1000000D01*
X49000000Y-5000000D02*
X59000000Y-5000000D01*
X49000000Y-1000000D02*
X49000000Y-5000000D01*
X59000000Y-1000000D02*
X59000000Y-5000000D01*
%TO.C,J2*%
X33000000Y-45000000D02*
X43000000Y-45000000D01*
X33000000Y-49000000D02*
X43000000Y-49000000D01*
X33000000Y-45000000D02*
X33000000Y-49000000D01*
X43000000Y-45000000D02*
X43000000Y-49000000D01*
%TO.C,J5*%
X4900000Y-16000000D02*
X4900000Y-7000000D01*
X11500000Y-16000000D02*
X11500000Y-7000000D01*
%TO.C,J4*%
X2230000Y-26730000D02*
X4770000Y-26730000D01*
%TO.C,J3*%
X59730000Y-13730000D02*
X59730000Y-16270000D01*
X59730000Y-13730000D02*
X62270000Y-13730000D01*
%TO.C,D1*%
D12*
X10600000Y-9000000D02*
X10600000Y-7000000D01*
D11*
X12300000Y-9150000D02*
X7700000Y-9150000D01*
X12300000Y-6850000D02*
X7700000Y-6850000D01*
%TO.C,D5*%
D12*
X54600000Y-9000000D02*
X54600000Y-7000000D01*
D11*
X56300000Y-9150000D02*
X51700000Y-9150000D01*
X56300000Y-6850000D02*
X51700000Y-6850000D01*
%TO.C,D4*%
D12*
X17600000Y-14000000D02*
X17600000Y-12000000D01*
D11*
X19300000Y-14150000D02*
X14700000Y-14150000D01*
X19300000Y-11850000D02*
X14700000Y-11850000D01*
%TO.C,TVS1*%
D12*
X15100000Y-11200000D02*
X15100000Y-9200000D01*
D11*
X16800000Y-11350000D02*
X12200000Y-11350000D01*
X16800000Y-9050000D02*
X12200000Y-9050000D01*
%TO.C,TVS2*%
D12*
X64500000Y-43900000D02*
X62500000Y-43900000D01*
D11*
X64650000Y-42200000D02*
X64650000Y-46800000D01*
X62350000Y-42200000D02*
X62350000Y-46800000D01*
%TO.C,F1*%
X21700000Y-6400000D02*
X26300000Y-6400000D01*
X21700000Y-9600000D02*
X26300000Y-9600000D01*
%TO.C,U3*%
D13*
X24350000Y-12200000D02*
G75*
G02*
X24050000Y-12200000I-150000J0D01*
G01*
X24050000Y-12200000D02*
G75*
G02*
X24350000Y-12200000I150000J0D01*
G01*
%TO.C,U1*%
X38100000Y-32810000D02*
G75*
G02*
X37800000Y-32810000I-150000J0D01*
G01*
X37800000Y-32810000D02*
G75*
G02*
X38100000Y-32810000I150000J0D01*
G01*
D11*
X35300000Y-33510000D02*
X32700000Y-33510000D01*
X35300000Y-24490000D02*
X32700000Y-24490000D01*
%TO.C,U2*%
D13*
X46750000Y-19555000D02*
G75*
G02*
X46450000Y-19555000I-150000J0D01*
G01*
X46450000Y-19555000D02*
G75*
G02*
X46750000Y-19555000I150000J0D01*
G01*
D11*
X49300000Y-18855000D02*
X56700000Y-18855000D01*
X49300000Y-29145000D02*
X56700000Y-29145000D01*
%TO.C,D2*%
D14*
X52050000Y-30700000D02*
X52050000Y-32300000D01*
D11*
X50700000Y-30800000D02*
X52300000Y-30800000D01*
X50700000Y-32200000D02*
X52300000Y-32200000D01*
%TO.C,SC1*%
D10*
X51500000Y-32000000D02*
X61500000Y-32000000D01*
X51500000Y-37000000D02*
X61500000Y-37000000D01*
X51500000Y-32000000D02*
X51500000Y-37000000D01*
X61500000Y-32000000D02*
X61500000Y-37000000D01*
%TO.C,C1*%
X62000000Y-42000000D02*
G75*
G02*
X52000000Y-42000000I-5000000J0D01*
G01*
X52000000Y-42000000D02*
G75*
G02*
X62000000Y-42000000I5000000J0D01*
G01*
%TO.C,C19*%
X69000000Y-31500000D02*
G75*
G02*
X59000000Y-31500000I-5000000J0D01*
G01*
X59000000Y-31500000D02*
G75*
G02*
X69000000Y-31500000I5000000J0D01*
G01*
%TO.C,U4*%
D13*
X40200000Y-38095000D02*
G75*
G02*
X39900000Y-38095000I-150000J0D01*
G01*
X39900000Y-38095000D02*
G75*
G02*
X40200000Y-38095000I150000J0D01*
G01*
D11*
X42700000Y-37395000D02*
X45300000Y-37395000D01*
X42700000Y-42605000D02*
X45300000Y-42605000D01*
%TO.C,U5*%
X17090000Y-19940000D02*
X18910000Y-19940000D01*
X17090000Y-23060000D02*
X18910000Y-23060000D01*
X17090000Y-19940000D02*
X17090000Y-19990000D01*
X18910000Y-19940000D02*
X18910000Y-19990000D01*
X16690000Y-19800000D02*
G75*
G02*
X16410000Y-19800000I-140000J0D01*
G01*
X16410000Y-19800000D02*
G75*
G02*
X16690000Y-19800000I140000J0D01*
G01*
%TO.C,U6*%
X38765000Y-31390000D02*
X40235000Y-31390000D01*
X38765000Y-33610000D02*
X40235000Y-33610000D01*
X38765000Y-31390000D02*
X38765000Y-31415000D01*
X40235000Y-31390000D02*
X40235000Y-31415000D01*
D15*
X38440000Y-31220000D02*
G75*
G02*
X38200000Y-31220000I-120000J0D01*
G01*
X38200000Y-31220000D02*
G75*
G02*
X38440000Y-31220000I120000J0D01*
G01*
%TO.C,U7*%
D11*
X38765000Y-34390000D02*
X40235000Y-34390000D01*
X38765000Y-36610000D02*
X40235000Y-36610000D01*
X38765000Y-34390000D02*
X38765000Y-34415000D01*
X40235000Y-34390000D02*
X40235000Y-34415000D01*
D15*
X38440000Y-34220000D02*
G75*
G02*
X38200000Y-34220000I-120000J0D01*
G01*
X38200000Y-34220000D02*
G75*
G02*
X38440000Y-34220000I120000J0D01*
G01*
%TO.C,D3*%
D14*
X18550000Y-26700000D02*
X18550000Y-28300000D01*
D11*
X17200000Y-26800000D02*
X18800000Y-26800000D01*
X17200000Y-28200000D02*
X18800000Y-28200000D01*
%TO.C,SW1*%
D10*
X7100000Y-42000000D02*
G75*
G02*
X3900000Y-42000000I-1600000J0D01*
G01*
X3900000Y-42000000D02*
G75*
G02*
X7100000Y-42000000I1600000J0D01*
G01*
D11*
X2400000Y-38900000D02*
X8600000Y-38900000D01*
X2400000Y-45100000D02*
X8600000Y-45100000D01*
%TO.C,SW2*%
D10*
X7100000Y-23500000D02*
G75*
G02*
X3900000Y-23500000I-1600000J0D01*
G01*
X3900000Y-23500000D02*
G75*
G02*
X7100000Y-23500000I1600000J0D01*
G01*
D11*
X2400000Y-20400000D02*
X8600000Y-20400000D01*
X2400000Y-26600000D02*
X8600000Y-26600000D01*
%TO.C,TP1*%
D10*
X64550000Y-11500000D02*
G75*
G02*
X62450000Y-11500000I-1050000J0D01*
G01*
X62450000Y-11500000D02*
G75*
G02*
X64550000Y-11500000I1050000J0D01*
G01*
%TO.C,TP2*%
X14050000Y-24500000D02*
G75*
G02*
X11950000Y-24500000I-1050000J0D01*
G01*
X11950000Y-24500000D02*
G75*
G02*
X14050000Y-24500000I1050000J0D01*
G01*
%TO.C,TP3*%
X62550000Y-38000000D02*
G75*
G02*
X60450000Y-38000000I-1050000J0D01*
G01*
X60450000Y-38000000D02*
G75*
G02*
X62550000Y-38000000I1050000J0D01*
G01*
%TD*%
%LPC*%
D16*
%TO.C,H1*%
X3000000Y-3000000D03*
%TD*%
%TO.C,H2*%
X67000000Y-3000000D03*
%TD*%
%TO.C,H3*%
X3000000Y-47000000D03*
%TD*%
%TO.C,H4*%
X67000000Y-47000000D03*
%TD*%
D17*
%TO.C,J1*%
X11460000Y-3000000D03*
D18*
X16540000Y-3000000D03*
%TD*%
D17*
%TO.C,J6*%
X51460000Y-3000000D03*
D18*
X56540000Y-3000000D03*
%TD*%
D17*
%TO.C,J2*%
X35460000Y-47000000D03*
D18*
X40540000Y-47000000D03*
%TD*%
D19*
%TO.C,J5*%
X6500000Y-10000000D03*
D20*
X10000000Y-10000000D03*
X8000000Y-13500000D03*
%TD*%
D21*
%TO.C,J4*%
X3500000Y-28000000D03*
D22*
X3500000Y-30540000D03*
X3500000Y-33080000D03*
X3500000Y-35620000D03*
%TD*%
D21*
%TO.C,J3*%
X61000000Y-15000000D03*
D22*
X63540000Y-15000000D03*
X61000000Y-17540000D03*
X63540000Y-17540000D03*
X61000000Y-20080000D03*
X63540000Y-20080000D03*
%TD*%
D23*
%TO.C,D1*%
X8000000Y-8000000D03*
X12000000Y-8000000D03*
%TD*%
%TO.C,D5*%
X52000000Y-8000000D03*
X56000000Y-8000000D03*
%TD*%
%TO.C,D4*%
X15000000Y-13000000D03*
X19000000Y-13000000D03*
%TD*%
%TO.C,TVS1*%
X12500000Y-10200000D03*
X16500000Y-10200000D03*
%TD*%
D24*
%TO.C,TVS2*%
X63500000Y-46500000D03*
X63500000Y-42500000D03*
%TD*%
D25*
%TO.C,F1*%
X22000000Y-8000000D03*
X26000000Y-8000000D03*
%TD*%
D26*
%TO.C,U3*%
X25050000Y-12200000D03*
X26950000Y-12200000D03*
X26000000Y-14800000D03*
%TD*%
D27*
%TO.C,C2*%
X28500000Y-11200000D03*
X30500000Y-11200000D03*
%TD*%
%TO.C,C3*%
X25000000Y-17000000D03*
X27000000Y-17000000D03*
%TD*%
%TO.C,C12*%
X28500000Y-17000000D03*
X30500000Y-17000000D03*
%TD*%
D28*
%TO.C,U1*%
X36475000Y-32810000D03*
X36475000Y-31540000D03*
X36475000Y-30270000D03*
X36475000Y-29000000D03*
X36475000Y-27730000D03*
X36475000Y-26460000D03*
X36475000Y-25190000D03*
X31525000Y-32810000D03*
X31525000Y-31540000D03*
X31525000Y-30270000D03*
X31525000Y-29000000D03*
X31525000Y-27730000D03*
X31525000Y-26460000D03*
X31525000Y-25190000D03*
%TD*%
D29*
%TO.C,C6*%
X35700000Y-33800000D03*
X37300000Y-33800000D03*
%TD*%
D30*
%TO.C,U2*%
X48100000Y-19555000D03*
X48100000Y-20825000D03*
X48100000Y-22095000D03*
X48100000Y-23365000D03*
X48100000Y-24635000D03*
X48100000Y-25905000D03*
X48100000Y-27175000D03*
X48100000Y-28445000D03*
X57900000Y-19555000D03*
X57900000Y-20825000D03*
X57900000Y-22095000D03*
X57900000Y-23365000D03*
X57900000Y-24635000D03*
X57900000Y-25905000D03*
X57900000Y-27175000D03*
X57900000Y-28445000D03*
%TD*%
D29*
%TO.C,C7*%
X48600000Y-17800000D03*
X50200000Y-17800000D03*
%TD*%
%TO.C,R2*%
X59700000Y-11500000D03*
X61300000Y-11500000D03*
%TD*%
%TO.C,R3*%
X55700000Y-13800000D03*
X57300000Y-13800000D03*
%TD*%
%TO.C,R4*%
X43200000Y-19500000D03*
X44800000Y-19500000D03*
%TD*%
%TO.C,R1*%
X52200000Y-18000000D03*
X53800000Y-18000000D03*
%TD*%
%TO.C,R5*%
X47200000Y-31000000D03*
X48800000Y-31000000D03*
%TD*%
D31*
%TO.C,D2*%
X50400000Y-31500000D03*
X52600000Y-31500000D03*
%TD*%
D17*
%TO.C,SC1*%
X52750000Y-34500000D03*
D18*
X60250000Y-34500000D03*
%TD*%
D17*
%TO.C,C1*%
X54500000Y-42000000D03*
D18*
X59500000Y-42000000D03*
%TD*%
D17*
%TO.C,C19*%
X61500000Y-31500000D03*
D18*
X66500000Y-31500000D03*
%TD*%
D28*
%TO.C,U4*%
X41525000Y-38095000D03*
X41525000Y-39365000D03*
X41525000Y-40635000D03*
X41525000Y-41905000D03*
X46475000Y-38095000D03*
X46475000Y-39365000D03*
X46475000Y-40635000D03*
X46475000Y-41905000D03*
D32*
X44000000Y-40000000D03*
%TD*%
D33*
%TO.C,C4*%
X48550000Y-41000000D03*
X51450000Y-41000000D03*
%TD*%
D29*
%TO.C,C5*%
X50700000Y-38700000D03*
X52300000Y-38700000D03*
%TD*%
D34*
%TO.C,R6*%
X39200000Y-41100000D03*
X39200000Y-42700000D03*
%TD*%
%TO.C,R14*%
X43500000Y-30700000D03*
X43500000Y-32300000D03*
%TD*%
D29*
%TO.C,R15*%
X41900000Y-36000000D03*
X43500000Y-36000000D03*
%TD*%
%TO.C,R13*%
X22000000Y-18000000D03*
X23600000Y-18000000D03*
%TD*%
%TO.C,R16*%
X22000000Y-26000000D03*
X23600000Y-26000000D03*
%TD*%
%TO.C,R17*%
X26200000Y-19000000D03*
X27800000Y-19000000D03*
%TD*%
%TO.C,R18*%
X26200000Y-22000000D03*
X27800000Y-22000000D03*
%TD*%
D35*
%TO.C,U5*%
X16863000Y-20550000D03*
X16863000Y-21500000D03*
X16863000Y-22450000D03*
X19137000Y-22450000D03*
X19137000Y-21500000D03*
X19137000Y-20550000D03*
%TD*%
D36*
%TO.C,U6*%
X38662000Y-31850000D03*
X38662000Y-32500000D03*
X38662000Y-33150000D03*
X40338000Y-33150000D03*
X40338000Y-32500000D03*
X40338000Y-31850000D03*
%TD*%
%TO.C,U7*%
X38662000Y-34850000D03*
X38662000Y-35500000D03*
X38662000Y-36150000D03*
X40338000Y-36150000D03*
X40338000Y-35500000D03*
X40338000Y-34850000D03*
%TD*%
D29*
%TO.C,C9*%
X13700000Y-18000000D03*
X15300000Y-18000000D03*
%TD*%
%TO.C,C18*%
X43700000Y-34200000D03*
X45300000Y-34200000D03*
%TD*%
D31*
%TO.C,D3*%
X16900000Y-27500000D03*
X19100000Y-27500000D03*
%TD*%
D34*
%TO.C,R7*%
X21500000Y-19200000D03*
X21500000Y-20800000D03*
%TD*%
%TO.C,R8*%
X21500000Y-22700000D03*
X21500000Y-24300000D03*
%TD*%
%TO.C,C14*%
X23300000Y-21000000D03*
X23300000Y-22600000D03*
%TD*%
D37*
%TO.C,SW1*%
X2500000Y-39750000D03*
X8500000Y-39750000D03*
X2500000Y-44250000D03*
X8500000Y-44250000D03*
%TD*%
%TO.C,SW2*%
X2500000Y-21250000D03*
X8500000Y-21250000D03*
X2500000Y-25750000D03*
X8500000Y-25750000D03*
%TD*%
D29*
%TO.C,R11*%
X10700000Y-39800000D03*
X12300000Y-39800000D03*
%TD*%
%TO.C,R12*%
X10700000Y-21300000D03*
X12300000Y-21300000D03*
%TD*%
%TO.C,R9*%
X21200000Y-30270000D03*
X22800000Y-30270000D03*
%TD*%
%TO.C,R10*%
X21200000Y-28400000D03*
X22800000Y-28400000D03*
%TD*%
%TO.C,C10*%
X25200000Y-32500000D03*
X26800000Y-32500000D03*
%TD*%
%TO.C,C11*%
X25200000Y-26500000D03*
X26800000Y-26500000D03*
%TD*%
D38*
%TO.C,TP1*%
X63500000Y-11500000D03*
%TD*%
%TO.C,TP2*%
X13000000Y-24500000D03*
%TD*%
%TO.C,TP3*%
X61500000Y-38000000D03*
%TD*%
%LPD*%
M02*
