%TF.GenerationSoftware,KiCad,Pcbnew,10.0.3*%
%TF.CreationDate,2026-08-11T20:58:58-05:00*%
%TF.ProjectId,co2_timer_v5,636f325f-7469-46d6-9572-5f76352e6b69,5.0*%
%TF.SameCoordinates,Original*%
%TF.FileFunction,Paste,Top*%
%TF.FilePolarity,Positive*%
%FSLAX46Y46*%
G04 Gerber Fmt 4.6, Leading zero omitted, Abs format (unit mm)*
G04 Created by KiCad (PCBNEW 10.0.3) date 2026-08-11 20:58:58*
%MOMM*%
%LPD*%
G01*
G04 APERTURE LIST*
G04 Aperture macros list*
%AMRoundRect*
0 Rectangle with rounded corners*
0 $1 Rounding radius*
0 $2 $3 $4 $5 $6 $7 $8 $9 X,Y pos of 4 corners*
0 Add a 4 corners polygon primitive as box body*
4,1,4,$2,$3,$4,$5,$6,$7,$8,$9,$2,$3,0*
0 Add four circle primitives for the rounded corners*
1,1,$1+$1,$2,$3*
1,1,$1+$1,$4,$5*
1,1,$1+$1,$6,$7*
1,1,$1+$1,$8,$9*
0 Add four rect primitives between the rounded corners*
20,1,$1+$1,$2,$3,$4,$5,0*
20,1,$1+$1,$4,$5,$6,$7,0*
20,1,$1+$1,$6,$7,$8,$9,0*
20,1,$1+$1,$8,$9,$2,$3,0*%
G04 Aperture macros list end*
%ADD10R,2.400000X1.600000*%
%ADD11R,1.600000X2.400000*%
%ADD12R,1.800000X2.600000*%
%ADD13R,0.900000X1.300000*%
%ADD14R,1.150000X1.450000*%
%ADD15R,1.950000X0.600000*%
%ADD16R,0.800000X0.950000*%
%ADD17R,2.000000X0.600000*%
%ADD18R,0.800000X0.600000*%
%ADD19R,2.410000X3.100000*%
%ADD20R,1.150000X1.800000*%
%ADD21R,0.950000X0.800000*%
%ADD22RoundRect,0.120000X-0.542500X-0.180000X0.542500X-0.180000X0.542500X0.180000X-0.542500X0.180000X0*%
%ADD23RoundRect,0.070000X-0.442500X-0.105000X0.442500X-0.105000X0.442500X0.105000X-0.442500X0.105000X0*%
%ADD24RoundRect,0.280000X-0.620000X-0.420000X0.620000X-0.420000X0.620000X0.420000X-0.620000X0.420000X0*%
%ADD25C,1.500000*%
G04 APERTURE END LIST*
D10*
%TO.C,D1*%
X8000000Y-8000000D03*
X12000000Y-8000000D03*
%TD*%
%TO.C,D5*%
X52000000Y-8000000D03*
X56000000Y-8000000D03*
%TD*%
%TO.C,D4*%
X15000000Y-13000000D03*
X19000000Y-13000000D03*
%TD*%
%TO.C,TVS1*%
X12500000Y-10200000D03*
X16500000Y-10200000D03*
%TD*%
D11*
%TO.C,TVS2*%
X63500000Y-46500000D03*
X63500000Y-42500000D03*
%TD*%
D12*
%TO.C,F1*%
X22000000Y-8000000D03*
X26000000Y-8000000D03*
%TD*%
D13*
%TO.C,U3*%
X25050000Y-12200000D03*
X26950000Y-12200000D03*
X26000000Y-14800000D03*
%TD*%
D14*
%TO.C,C2*%
X28500000Y-11200000D03*
X30500000Y-11200000D03*
%TD*%
%TO.C,C3*%
X25000000Y-17000000D03*
X27000000Y-17000000D03*
%TD*%
%TO.C,C12*%
X28500000Y-17000000D03*
X30500000Y-17000000D03*
%TD*%
D15*
%TO.C,U1*%
X36475000Y-32810000D03*
X36475000Y-31540000D03*
X36475000Y-30270000D03*
X36475000Y-29000000D03*
X36475000Y-27730000D03*
X36475000Y-26460000D03*
X36475000Y-25190000D03*
X31525000Y-32810000D03*
X31525000Y-31540000D03*
X31525000Y-30270000D03*
X31525000Y-29000000D03*
X31525000Y-27730000D03*
X31525000Y-26460000D03*
X31525000Y-25190000D03*
%TD*%
D16*
%TO.C,C6*%
X35700000Y-33800000D03*
X37300000Y-33800000D03*
%TD*%
D17*
%TO.C,U2*%
X48100000Y-19555000D03*
X48100000Y-20825000D03*
X48100000Y-22095000D03*
X48100000Y-23365000D03*
X48100000Y-24635000D03*
X48100000Y-25905000D03*
X48100000Y-27175000D03*
X48100000Y-28445000D03*
X57900000Y-19555000D03*
X57900000Y-20825000D03*
X57900000Y-22095000D03*
X57900000Y-23365000D03*
X57900000Y-24635000D03*
X57900000Y-25905000D03*
X57900000Y-27175000D03*
X57900000Y-28445000D03*
%TD*%
D16*
%TO.C,C7*%
X48600000Y-17800000D03*
X50200000Y-17800000D03*
%TD*%
%TO.C,R2*%
X59700000Y-11500000D03*
X61300000Y-11500000D03*
%TD*%
%TO.C,R3*%
X55700000Y-13800000D03*
X57300000Y-13800000D03*
%TD*%
%TO.C,R4*%
X43200000Y-19500000D03*
X44800000Y-19500000D03*
%TD*%
%TO.C,R1*%
X52200000Y-18000000D03*
X53800000Y-18000000D03*
%TD*%
%TO.C,R5*%
X47200000Y-31000000D03*
X48800000Y-31000000D03*
%TD*%
D18*
%TO.C,D2*%
X50400000Y-31500000D03*
X52600000Y-31500000D03*
%TD*%
D15*
%TO.C,U4*%
X41525000Y-38095000D03*
X41525000Y-39365000D03*
X41525000Y-40635000D03*
X41525000Y-41905000D03*
X46475000Y-38095000D03*
X46475000Y-39365000D03*
X46475000Y-40635000D03*
X46475000Y-41905000D03*
D19*
X44000000Y-40000000D03*
%TD*%
D20*
%TO.C,C4*%
X48550000Y-41000000D03*
X51450000Y-41000000D03*
%TD*%
D16*
%TO.C,C5*%
X50700000Y-38700000D03*
X52300000Y-38700000D03*
%TD*%
D21*
%TO.C,R6*%
X39200000Y-41100000D03*
X39200000Y-42700000D03*
%TD*%
%TO.C,R14*%
X43500000Y-30700000D03*
X43500000Y-32300000D03*
%TD*%
D16*
%TO.C,R15*%
X41900000Y-36000000D03*
X43500000Y-36000000D03*
%TD*%
%TO.C,R13*%
X22000000Y-18000000D03*
X23600000Y-18000000D03*
%TD*%
%TO.C,R16*%
X22000000Y-26000000D03*
X23600000Y-26000000D03*
%TD*%
%TO.C,R17*%
X26200000Y-19000000D03*
X27800000Y-19000000D03*
%TD*%
%TO.C,R18*%
X26200000Y-22000000D03*
X27800000Y-22000000D03*
%TD*%
D22*
%TO.C,U5*%
X16863000Y-20550000D03*
X16863000Y-21500000D03*
X16863000Y-22450000D03*
X19137000Y-22450000D03*
X19137000Y-21500000D03*
X19137000Y-20550000D03*
%TD*%
D23*
%TO.C,U6*%
X38662000Y-31850000D03*
X38662000Y-32500000D03*
X38662000Y-33150000D03*
X40338000Y-33150000D03*
X40338000Y-32500000D03*
X40338000Y-31850000D03*
%TD*%
%TO.C,U7*%
X38662000Y-34850000D03*
X38662000Y-35500000D03*
X38662000Y-36150000D03*
X40338000Y-36150000D03*
X40338000Y-35500000D03*
X40338000Y-34850000D03*
%TD*%
D16*
%TO.C,C9*%
X13700000Y-18000000D03*
X15300000Y-18000000D03*
%TD*%
%TO.C,C18*%
X43700000Y-34200000D03*
X45300000Y-34200000D03*
%TD*%
D18*
%TO.C,D3*%
X16900000Y-27500000D03*
X19100000Y-27500000D03*
%TD*%
D21*
%TO.C,R7*%
X21500000Y-19200000D03*
X21500000Y-20800000D03*
%TD*%
%TO.C,R8*%
X21500000Y-22700000D03*
X21500000Y-24300000D03*
%TD*%
%TO.C,C14*%
X23300000Y-21000000D03*
X23300000Y-22600000D03*
%TD*%
D24*
%TO.C,SW1*%
X2500000Y-39750000D03*
X8500000Y-39750000D03*
X2500000Y-44250000D03*
X8500000Y-44250000D03*
%TD*%
%TO.C,SW2*%
X2500000Y-21250000D03*
X8500000Y-21250000D03*
X2500000Y-25750000D03*
X8500000Y-25750000D03*
%TD*%
D16*
%TO.C,R11*%
X10700000Y-39800000D03*
X12300000Y-39800000D03*
%TD*%
%TO.C,R12*%
X10700000Y-21300000D03*
X12300000Y-21300000D03*
%TD*%
%TO.C,R9*%
X21200000Y-30270000D03*
X22800000Y-30270000D03*
%TD*%
%TO.C,R10*%
X21200000Y-28400000D03*
X22800000Y-28400000D03*
%TD*%
%TO.C,C10*%
X25200000Y-32500000D03*
X26800000Y-32500000D03*
%TD*%
%TO.C,C11*%
X25200000Y-26500000D03*
X26800000Y-26500000D03*
%TD*%
D25*
%TO.C,TP1*%
X63500000Y-11500000D03*
%TD*%
%TO.C,TP2*%
X13000000Y-24500000D03*
%TD*%
%TO.C,TP3*%
X61500000Y-38000000D03*
%TD*%
M02*
