%TF.GenerationSoftware,KiCad,Pcbnew,10.0.3*%
%TF.CreationDate,2026-07-10T14:46:15-05:00*%
%TF.ProjectId,co2_timer_v5,636f325f-7469-46d6-9572-5f76352e6b69,5.0*%
%TF.SameCoordinates,Original*%
%TF.FileFunction,Soldermask,Top*%
%TF.FilePolarity,Negative*%
%FSLAX46Y46*%
G04 Gerber Fmt 4.6, Leading zero omitted, Abs format (unit mm)*
G04 Created by KiCad (PCBNEW 10.0.3) date 2026-07-10 14:46:15*
%MOMM*%
%LPD*%
G01*
G04 APERTURE LIST*
G04 Aperture macros list*
%AMRoundRect*
0 Rectangle with rounded corners*
0 $1 Rounding radius*
0 $2 $3 $4 $5 $6 $7 $8 $9 X,Y pos of 4 corners*
0 Add a 4 corners polygon primitive as box body*
4,1,4,$2,$3,$4,$5,$6,$7,$8,$9,$2,$3,0*
0 Add four circle primitives for the rounded corners*
1,1,$1+$1,$2,$3*
1,1,$1+$1,$4,$5*
1,1,$1+$1,$6,$7*
1,1,$1+$1,$8,$9*
0 Add four rect primitives between the rounded corners*
20,1,$1+$1,$2,$3,$4,$5,0*
20,1,$1+$1,$4,$5,$6,$7,0*
20,1,$1+$1,$6,$7,$8,$9,0*
20,1,$1+$1,$8,$9,$2,$3,0*%
G04 Aperture macros list end*
%ADD10C,3.400000*%
%ADD11RoundRect,0.100000X-0.900000X-0.900000X0.900000X-0.900000X0.900000X0.900000X-0.900000X0.900000X0*%
%ADD12C,2.000000*%
%ADD13RoundRect,0.100000X-1.000000X-1.000000X1.000000X-1.000000X1.000000X1.000000X-1.000000X1.000000X0*%
%ADD14C,2.200000*%
%ADD15RoundRect,0.100000X-0.850000X-0.850000X0.850000X-0.850000X0.850000X0.850000X-0.850000X0.850000X0*%
%ADD16C,1.900000*%
%ADD17RoundRect,0.100000X-1.200000X-0.800000X1.200000X-0.800000X1.200000X0.800000X-1.200000X0.800000X0*%
%ADD18RoundRect,0.100000X-0.800000X-1.200000X0.800000X-1.200000X0.800000X1.200000X-0.800000X1.200000X0*%
%ADD19RoundRect,0.100000X-0.900000X-1.300000X0.900000X-1.300000X0.900000X1.300000X-0.900000X1.300000X0*%
%ADD20RoundRect,0.100000X-0.450000X-0.650000X0.450000X-0.650000X0.450000X0.650000X-0.450000X0.650000X0*%
%ADD21RoundRect,0.100000X-0.575000X-0.725000X0.575000X-0.725000X0.575000X0.725000X-0.575000X0.725000X0*%
%ADD22RoundRect,0.100000X-0.975000X-0.300000X0.975000X-0.300000X0.975000X0.300000X-0.975000X0.300000X0*%
%ADD23RoundRect,0.100000X-0.400000X-0.475000X0.400000X-0.475000X0.400000X0.475000X-0.400000X0.475000X0*%
%ADD24RoundRect,0.100000X-1.000000X-0.300000X1.000000X-0.300000X1.000000X0.300000X-1.000000X0.300000X0*%
%ADD25RoundRect,0.100000X-0.650000X-0.450000X0.650000X-0.450000X0.650000X0.450000X-0.650000X0.450000X0*%
%ADD26RoundRect,0.100000X-0.650000X-0.650000X0.650000X-0.650000X0.650000X0.650000X-0.650000X0.650000X0*%
%ADD27C,1.500000*%
%ADD28RoundRect,0.100000X-0.800000X-0.800000X0.800000X-0.800000X0.800000X0.800000X-0.800000X0.800000X0*%
%ADD29C,1.800000*%
%ADD30RoundRect,0.100000X-1.205000X-1.550000X1.205000X-1.550000X1.205000X1.550000X-1.205000X1.550000X0*%
%ADD31RoundRect,0.100000X-0.575000X-0.900000X0.575000X-0.900000X0.575000X0.900000X-0.575000X0.900000X0*%
%ADD32RoundRect,0.100000X-0.475000X-0.400000X0.475000X-0.400000X0.475000X0.400000X-0.475000X0.400000X0*%
%ADD33RoundRect,0.100000X-0.500000X-0.140000X0.500000X-0.140000X0.500000X0.140000X-0.500000X0.140000X0*%
%ADD34RoundRect,0.100000X-0.800000X-0.550000X0.800000X-0.550000X0.800000X0.550000X-0.800000X0.550000X0*%
%ADD35C,1.700000*%
G04 APERTURE END LIST*
D10*
%TO.C,H1*%
X3000000Y-3000000D03*
%TD*%
%TO.C,H2*%
X67000000Y-3000000D03*
%TD*%
%TO.C,H3*%
X3000000Y-47000000D03*
%TD*%
%TO.C,H4*%
X67000000Y-47000000D03*
%TD*%
D11*
%TO.C,J1*%
X11460000Y-3000000D03*
D12*
X16540000Y-3000000D03*
%TD*%
D11*
%TO.C,J6*%
X51460000Y-3000000D03*
D12*
X56540000Y-3000000D03*
%TD*%
D11*
%TO.C,J2*%
X35460000Y-47000000D03*
D12*
X40540000Y-47000000D03*
%TD*%
D13*
%TO.C,J5*%
X6500000Y-10000000D03*
D14*
X9900000Y-10000000D03*
X8200000Y-13300000D03*
%TD*%
D15*
%TO.C,J4*%
X3500000Y-28000000D03*
D16*
X3500000Y-30540000D03*
X3500000Y-33080000D03*
X3500000Y-35620000D03*
%TD*%
D15*
%TO.C,J3*%
X61000000Y-15000000D03*
D16*
X63540000Y-15000000D03*
X61000000Y-17540000D03*
X63540000Y-17540000D03*
X61000000Y-20080000D03*
X63540000Y-20080000D03*
%TD*%
D17*
%TO.C,D1*%
X12000000Y-8000000D03*
X16000000Y-8000000D03*
%TD*%
%TO.C,D5*%
X52000000Y-8000000D03*
X56000000Y-8000000D03*
%TD*%
%TO.C,D4*%
X15000000Y-13000000D03*
X19000000Y-13000000D03*
%TD*%
%TO.C,TVS1*%
X12500000Y-10200000D03*
X16500000Y-10200000D03*
%TD*%
D18*
%TO.C,TVS2*%
X63500000Y-46500000D03*
X63500000Y-42500000D03*
%TD*%
D19*
%TO.C,F1*%
X22000000Y-8000000D03*
X26000000Y-8000000D03*
%TD*%
D20*
%TO.C,U3*%
X25050000Y-12200000D03*
X26950000Y-12200000D03*
X26000000Y-14800000D03*
%TD*%
D21*
%TO.C,C2*%
X28500000Y-11200000D03*
X30500000Y-11200000D03*
%TD*%
%TO.C,C3*%
X25000000Y-17000000D03*
X27000000Y-17000000D03*
%TD*%
%TO.C,C12*%
X28500000Y-17000000D03*
X30500000Y-17000000D03*
%TD*%
D22*
%TO.C,U1*%
X36475000Y-32810000D03*
X36475000Y-31540000D03*
X36475000Y-30270000D03*
X36475000Y-29000000D03*
X36475000Y-27730000D03*
X36475000Y-26460000D03*
X36475000Y-25190000D03*
X31525000Y-25190000D03*
X31525000Y-26460000D03*
X31525000Y-27730000D03*
X31525000Y-29000000D03*
X31525000Y-30270000D03*
X31525000Y-31540000D03*
X31525000Y-32810000D03*
%TD*%
D23*
%TO.C,C6*%
X38700000Y-33800000D03*
X40300000Y-33800000D03*
%TD*%
D24*
%TO.C,U2*%
X48100000Y-19555000D03*
X48100000Y-20825000D03*
X48100000Y-22095000D03*
X48100000Y-23365000D03*
X48100000Y-24635000D03*
X48100000Y-25905000D03*
X48100000Y-27175000D03*
X48100000Y-28445000D03*
X57900000Y-28445000D03*
X57900000Y-27175000D03*
X57900000Y-25905000D03*
X57900000Y-24635000D03*
X57900000Y-23365000D03*
X57900000Y-22095000D03*
X57900000Y-20825000D03*
X57900000Y-19555000D03*
%TD*%
D23*
%TO.C,C7*%
X48600000Y-17800000D03*
X50200000Y-17800000D03*
%TD*%
%TO.C,R2*%
X59700000Y-11500000D03*
X61300000Y-11500000D03*
%TD*%
%TO.C,R3*%
X55700000Y-13800000D03*
X57300000Y-13800000D03*
%TD*%
%TO.C,R4*%
X43200000Y-19500000D03*
X44800000Y-19500000D03*
%TD*%
%TO.C,R1*%
X43200000Y-17500000D03*
X44800000Y-17500000D03*
%TD*%
%TO.C,R5*%
X47200000Y-31000000D03*
X48800000Y-31000000D03*
%TD*%
D25*
%TO.C,D2*%
X50200000Y-32450000D03*
X52800000Y-31500000D03*
%TD*%
D26*
%TO.C,SC1*%
X55500000Y-34500000D03*
D27*
X57500000Y-34500000D03*
%TD*%
D28*
%TO.C,C1*%
X58750000Y-43000000D03*
D29*
X55250000Y-43000000D03*
%TD*%
D22*
%TO.C,U4*%
X41525000Y-38095000D03*
X41525000Y-39365000D03*
X41525000Y-40635000D03*
X41525000Y-41905000D03*
X46475000Y-41905000D03*
X46475000Y-40635000D03*
X46475000Y-39365000D03*
X46475000Y-38095000D03*
D30*
X44000000Y-40000000D03*
%TD*%
D31*
%TO.C,C4*%
X50050000Y-41000000D03*
X52950000Y-41000000D03*
%TD*%
D23*
%TO.C,C5*%
X50700000Y-38700000D03*
X52300000Y-38700000D03*
%TD*%
D32*
%TO.C,R6*%
X39200000Y-41100000D03*
X39200000Y-42700000D03*
%TD*%
%TO.C,R14*%
X41000000Y-32200000D03*
X41000000Y-33800000D03*
%TD*%
D23*
%TO.C,R16*%
X38200000Y-36000000D03*
X39800000Y-36000000D03*
%TD*%
%TO.C,R15*%
X41900000Y-36000000D03*
X43500000Y-36000000D03*
%TD*%
D25*
%TO.C,D6*%
X31700000Y-38950000D03*
X34300000Y-38000000D03*
%TD*%
D33*
%TO.C,U6*%
X22750000Y-40250000D03*
X22750000Y-40750000D03*
X22750000Y-41250000D03*
X22750000Y-41750000D03*
X25250000Y-41750000D03*
X25250000Y-41250000D03*
X25250000Y-40750000D03*
X25250000Y-40250000D03*
%TD*%
D32*
%TO.C,C9*%
X27500000Y-42000000D03*
X27500000Y-43600000D03*
%TD*%
%TO.C,R13*%
X29900000Y-42000000D03*
X29900000Y-43600000D03*
%TD*%
D23*
%TO.C,C8*%
X24800000Y-37600000D03*
X23200000Y-37600000D03*
%TD*%
D20*
%TO.C,U5*%
X16050000Y-40700000D03*
X17950000Y-40700000D03*
X17000000Y-43300000D03*
%TD*%
D23*
%TO.C,C13*%
X15300000Y-38600000D03*
X13700000Y-38600000D03*
%TD*%
D25*
%TO.C,D3*%
X21700000Y-44350000D03*
X19100000Y-45300000D03*
%TD*%
D32*
%TO.C,R7*%
X21500000Y-19200000D03*
X21500000Y-20800000D03*
%TD*%
%TO.C,R8*%
X21500000Y-22700000D03*
X21500000Y-24300000D03*
%TD*%
%TO.C,C14*%
X23300000Y-21000000D03*
X23300000Y-22600000D03*
%TD*%
D34*
%TO.C,SW1*%
X2500000Y-39800000D03*
X8500000Y-39800000D03*
X2500000Y-44200000D03*
X8500000Y-44200000D03*
%TD*%
%TO.C,SW2*%
X2500000Y-21300000D03*
X8500000Y-21300000D03*
X2500000Y-25700000D03*
X8500000Y-25700000D03*
%TD*%
D23*
%TO.C,R11*%
X10700000Y-39800000D03*
X12300000Y-39800000D03*
%TD*%
%TO.C,R12*%
X10700000Y-21300000D03*
X12300000Y-21300000D03*
%TD*%
%TO.C,R9*%
X21200000Y-30270000D03*
X22800000Y-30270000D03*
%TD*%
%TO.C,R10*%
X21200000Y-28400000D03*
X22800000Y-28400000D03*
%TD*%
%TO.C,C10*%
X25200000Y-32500000D03*
X26800000Y-32500000D03*
%TD*%
%TO.C,C11*%
X25200000Y-26500000D03*
X26800000Y-26500000D03*
%TD*%
D35*
%TO.C,TP1*%
X63500000Y-11500000D03*
%TD*%
%TO.C,TP2*%
X13000000Y-46500000D03*
%TD*%
%TO.C,TP3*%
X61500000Y-38000000D03*
%TD*%
M02*
