%TF.GenerationSoftware,KiCad,Pcbnew,10.0.3*%
%TF.CreationDate,2026-08-11T20:58:58-05:00*%
%TF.ProjectId,co2_timer_v5,636f325f-7469-46d6-9572-5f76352e6b69,5.0*%
%TF.SameCoordinates,Original*%
%TF.FileFunction,Copper,L2,Bot*%
%TF.FilePolarity,Positive*%
%FSLAX46Y46*%
G04 Gerber Fmt 4.6, Leading zero omitted, Abs format (unit mm)*
G04 Created by KiCad (PCBNEW 10.0.3) date 2026-08-11 20:58:58*
%MOMM*%
%LPD*%
G01*
G04 APERTURE LIST*
%TA.AperFunction,ComponentPad*%
%ADD10R,1.800000X1.800000*%
%TD*%
%TA.AperFunction,ComponentPad*%
%ADD11C,1.800000*%
%TD*%
%TA.AperFunction,ComponentPad*%
%ADD12R,3.500000X2.000000*%
%TD*%
%TA.AperFunction,ComponentPad*%
%ADD13C,2.000000*%
%TD*%
%TA.AperFunction,ComponentPad*%
%ADD14R,1.700000X1.700000*%
%TD*%
%TA.AperFunction,ComponentPad*%
%ADD15C,1.700000*%
%TD*%
%TA.AperFunction,ViaPad*%
%ADD16C,0.700000*%
%TD*%
%TA.AperFunction,ViaPad*%
%ADD17C,0.500000*%
%TD*%
%TA.AperFunction,ViaPad*%
%ADD18C,0.650000*%
%TD*%
%TA.AperFunction,Conductor*%
%ADD19C,0.400000*%
%TD*%
%TA.AperFunction,Conductor*%
%ADD20C,0.250000*%
%TD*%
%TA.AperFunction,Conductor*%
%ADD21C,1.000000*%
%TD*%
%TA.AperFunction,Conductor*%
%ADD22C,0.500000*%
%TD*%
%TA.AperFunction,Conductor*%
%ADD23C,0.800000*%
%TD*%
G04 APERTURE END LIST*
D10*
%TO.P,J1,1*%
%TO.N,VBAT1_IN*%
X11460000Y-3000000D03*
D11*
%TO.P,J1,2*%
%TO.N,GND*%
X16540000Y-3000000D03*
%TD*%
D10*
%TO.P,J6,1*%
%TO.N,VBAT2_IN*%
X51460000Y-3000000D03*
D11*
%TO.P,J6,2*%
%TO.N,GND*%
X56540000Y-3000000D03*
%TD*%
D10*
%TO.P,J2,1*%
%TO.N,SOL_OUT1*%
X35460000Y-47000000D03*
D11*
%TO.P,J2,2*%
%TO.N,SOL_OUT2*%
X40540000Y-47000000D03*
%TD*%
D12*
%TO.P,J5,1*%
%TO.N,VIN_DC*%
X6500000Y-10000000D03*
D13*
%TO.P,J5,2*%
%TO.N,GND*%
X10000000Y-10000000D03*
%TO.P,J5,3*%
X8000000Y-13500000D03*
%TD*%
D14*
%TO.P,J4,1*%
%TO.N,+3V3*%
X3500000Y-28000000D03*
D15*
%TO.P,J4,2*%
%TO.N,GND*%
X3500000Y-30540000D03*
%TO.P,J4,3*%
%TO.N,TM_DIO*%
X3500000Y-33080000D03*
%TO.P,J4,4*%
%TO.N,TM_CLK*%
X3500000Y-35620000D03*
%TD*%
D14*
%TO.P,J3,1*%
%TO.N,MISO*%
X61000000Y-15000000D03*
D15*
%TO.P,J3,2*%
%TO.N,+3V3*%
X63540000Y-15000000D03*
%TO.P,J3,3*%
%TO.N,SCL*%
X61000000Y-17540000D03*
%TO.P,J3,4*%
%TO.N,SDA*%
X63540000Y-17540000D03*
%TO.P,J3,5*%
%TO.N,/RESET*%
X61000000Y-20080000D03*
%TO.P,J3,6*%
%TO.N,GND*%
X63540000Y-20080000D03*
%TD*%
D10*
%TO.P,SC1,+*%
%TO.N,VBAT_RTC*%
X52750000Y-34500000D03*
D11*
%TO.P,SC1,-*%
%TO.N,GND*%
X60250000Y-34500000D03*
%TD*%
D10*
%TO.P,C1,+*%
%TO.N,VM*%
X54500000Y-42000000D03*
D11*
%TO.P,C1,-*%
%TO.N,GND*%
X59500000Y-42000000D03*
%TD*%
D10*
%TO.P,C19,+*%
%TO.N,VM*%
X61500000Y-31500000D03*
D11*
%TO.P,C19,-*%
%TO.N,GND*%
X66500000Y-31500000D03*
%TD*%
D16*
%TO.N,GND*%
X13750000Y-10250000D03*
X62250000Y-46500000D03*
X23750000Y-12250000D03*
X31750000Y-11250000D03*
D17*
X27000000Y-17000000D03*
D16*
X31750000Y-17000000D03*
X32750000Y-32750000D03*
X38500000Y-33750000D03*
X49500000Y-24750000D03*
X49500000Y-26000000D03*
X49500000Y-27250000D03*
X49500000Y-28500000D03*
X59250000Y-23250000D03*
X59250000Y-24750000D03*
X59250000Y-26000000D03*
X59250000Y-27250000D03*
X59250000Y-28500000D03*
X50250000Y-19000000D03*
X42750000Y-38000000D03*
X47750000Y-39250000D03*
X52750000Y-41000000D03*
X53500000Y-38750000D03*
X38000000Y-42750000D03*
X44750000Y-32250000D03*
X44750000Y-36000000D03*
X23500000Y-24750000D03*
X29000000Y-19000000D03*
D17*
X16863000Y-21500000D03*
D16*
X19250000Y-23750000D03*
X37250000Y-34500000D03*
X37250000Y-35500000D03*
X16500000Y-18000000D03*
X46500000Y-34250000D03*
X22750000Y-24250000D03*
X24500000Y-22500000D03*
X3750000Y-44250000D03*
X9750000Y-44250000D03*
X3750000Y-25750000D03*
X9750000Y-25750000D03*
X28000000Y-32500000D03*
X28000000Y-26500000D03*
D18*
X43400000Y-39250000D03*
X44600000Y-39250000D03*
X43400000Y-40750000D03*
X44600000Y-40750000D03*
D16*
X15500000Y-21500000D03*
X41750000Y-33250000D03*
X27500000Y-18500000D03*
X25750000Y-13250000D03*
%TO.N,/ALERT*%
X33250000Y-27750000D03*
X18000000Y-27750000D03*
%TO.N,TM_DIO*%
X34500000Y-26750000D03*
X34500000Y-28750000D03*
X6250000Y-33750000D03*
%TO.N,TM_CLK*%
X29250000Y-31750000D03*
X29250000Y-35000000D03*
X6250000Y-35000000D03*
%TO.N,BTN_UP_SW*%
X6250000Y-39250000D03*
X4250000Y-39250000D03*
X21000000Y-33000000D03*
X21000000Y-36000000D03*
%TO.N,BTN_UP*%
X30250000Y-30500000D03*
X25500000Y-30500000D03*
%TO.N,BTN_SET_SW*%
X11000000Y-24000000D03*
X11000000Y-22000000D03*
%TO.N,BTN_SET*%
X30250000Y-29000000D03*
X25500000Y-29000000D03*
%TO.N,DRV_IN1*%
X41500000Y-40500000D03*
X43000000Y-31000000D03*
D17*
%TO.N,/VM_OK*%
X16500000Y-20250000D03*
X14250000Y-24000000D03*
X14250000Y-27000000D03*
X25750000Y-21750000D03*
X25750000Y-19750000D03*
X40100000Y-28500000D03*
X40100000Y-26500000D03*
X40100000Y-34500000D03*
X40100000Y-31500000D03*
D16*
%TO.N,VM_DIV*%
X21250000Y-25500000D03*
X17750000Y-22500000D03*
X16000000Y-16750000D03*
%TO.N,VM_SENSE*%
X33500000Y-30000000D03*
X22750000Y-19250000D03*
%TO.N,SOL_OUT1*%
X46000000Y-40750000D03*
X46000000Y-43000000D03*
%TO.N,SOL_OUT2*%
X47250000Y-37750000D03*
X49250000Y-42750000D03*
%TO.N,+3V3*%
X12000000Y-20750000D03*
X30250000Y-19750000D03*
X29000000Y-17750000D03*
X14000000Y-15750000D03*
X53500000Y-17750000D03*
X49000000Y-17750000D03*
X47250000Y-29500000D03*
X47250000Y-21000000D03*
X38750000Y-40000000D03*
X50500000Y-36500000D03*
X12250000Y-37000000D03*
X12250000Y-33000000D03*
%TO.N,VM*%
X18000000Y-18000000D03*
X12000000Y-14250000D03*
X27750000Y-14500000D03*
X31000000Y-14500000D03*
X24000000Y-9500000D03*
X52750000Y-15750000D03*
X60500000Y-37750000D03*
%TO.N,VIN_OR*%
X15250000Y-7750000D03*
X13000000Y-7750000D03*
X55250000Y-5750000D03*
X53000000Y-5750000D03*
%TO.N,VIN_DC*%
X14000000Y-12750000D03*
X10250000Y-13750000D03*
%TO.N,VBAT2_IN*%
X51250000Y-7000000D03*
%TO.N,SDA*%
X51000000Y-20250000D03*
X39000000Y-24250000D03*
X61750000Y-21750000D03*
%TO.N,SCL*%
X56250000Y-18750000D03*
X51500000Y-15750000D03*
X33250000Y-17250000D03*
X33250000Y-24250000D03*
X55500000Y-14500000D03*
%TO.N,MISO*%
X47500000Y-16750000D03*
X34500000Y-17250000D03*
X32250000Y-25250000D03*
X62500000Y-12250000D03*
%TO.N,/RESET*%
X52250000Y-19500000D03*
X39000000Y-29750000D03*
X57750000Y-29500000D03*
X53750000Y-32250000D03*
D17*
%TO.N,+3V3*%
X40337000Y-32500000D03*
X43700000Y-34200000D03*
X42250000Y-33900000D03*
X42500000Y-35100000D03*
X40750000Y-35500000D03*
X38750000Y-37500000D03*
%TO.N,VM*%
X19137000Y-21500000D03*
X20000000Y-21500000D03*
X51250000Y-39500000D03*
%TO.N,DRV_IN1*%
X41500000Y-34750000D03*
%TD*%
%TO.N,GND*%
D19*
X16500000Y-21500000D02*
X15500000Y-21500000D01*
X16500000Y-21500000D02*
X16863000Y-21500000D01*
X37000000Y-34000000D02*
X37000000Y-33000000D01*
X37000000Y-33000000D02*
X32250000Y-33000000D01*
X37000000Y-34000000D02*
X37250000Y-34500000D01*
X32250000Y-33000000D02*
X32750000Y-32750000D01*
X41750000Y-33250000D02*
X39000000Y-33250000D01*
X39000000Y-33250000D02*
X38750000Y-33750000D01*
X27250000Y-17250000D02*
X27250000Y-18500000D01*
X27250000Y-18500000D02*
X27500000Y-18500000D01*
X27250000Y-17250000D02*
X27000000Y-17000000D01*
X25750000Y-13250000D02*
X25750000Y-16750000D01*
X25750000Y-16750000D02*
X26750000Y-16750000D01*
X26750000Y-16750000D02*
X27000000Y-17000000D01*
%TO.N,/ALERT*%
D20*
X33250000Y-27750000D02*
X18000000Y-27750000D01*
%TO.N,TM_DIO*%
X34500000Y-26750000D02*
X34500000Y-28750000D01*
X6250000Y-33750000D02*
X4250000Y-33750000D01*
X4250000Y-33750000D02*
X3500000Y-33080000D01*
%TO.N,TM_CLK*%
X29250000Y-31750000D02*
X29250000Y-35000000D01*
X6250000Y-35000000D02*
X4250000Y-35000000D01*
X4250000Y-35000000D02*
X3500000Y-35620000D01*
%TO.N,BTN_UP_SW*%
X6250000Y-39250000D02*
X4250000Y-39250000D01*
X21000000Y-33000000D02*
X21000000Y-36000000D01*
%TO.N,BTN_UP*%
X30250000Y-30500000D02*
X25500000Y-30500000D01*
%TO.N,BTN_SET_SW*%
X11000000Y-24000000D02*
X11000000Y-22000000D01*
%TO.N,BTN_SET*%
X30250000Y-29000000D02*
X25500000Y-29000000D01*
%TO.N,DRV_IN1*%
X41500000Y-40500000D02*
X41500000Y-34500000D01*
X41500000Y-34500000D02*
X43000000Y-34500000D01*
X43000000Y-34500000D02*
X43000000Y-31000000D01*
%TO.N,/VM_OK*%
X16500000Y-20250000D02*
X14250000Y-20250000D01*
X14250000Y-20250000D02*
X14250000Y-24000000D01*
X14250000Y-27000000D02*
X14250000Y-24000000D01*
X25750000Y-21750000D02*
X25750000Y-20250000D01*
X25750000Y-20250000D02*
X16500000Y-20250000D01*
X25750000Y-19750000D02*
X25750000Y-20250000D01*
X25750000Y-20250000D02*
X25750000Y-19750000D01*
X40000000Y-28500000D02*
X40000000Y-26500000D01*
X40000000Y-34500000D02*
X40000000Y-36750000D01*
X40000000Y-36750000D02*
X31250000Y-36750000D01*
X31250000Y-36750000D02*
X31250000Y-31500000D01*
X31250000Y-31500000D02*
X40000000Y-31500000D01*
%TO.N,VM_DIV*%
X21250000Y-25500000D02*
X21250000Y-22500000D01*
X21250000Y-22500000D02*
X17750000Y-22500000D01*
X16000000Y-16750000D02*
X13000000Y-16750000D01*
X13000000Y-16750000D02*
X13000000Y-28250000D01*
X13000000Y-28250000D02*
X16750000Y-28250000D01*
X16750000Y-28250000D02*
X16750000Y-22500000D01*
X16750000Y-22500000D02*
X17750000Y-22500000D01*
%TO.N,VM_SENSE*%
X33500000Y-30000000D02*
X35750000Y-30000000D01*
X35750000Y-30000000D02*
X35750000Y-12500000D01*
X35750000Y-12500000D02*
X27000000Y-12500000D01*
X27000000Y-12500000D02*
X27000000Y-11000000D01*
X27000000Y-11000000D02*
X22500000Y-11000000D01*
X22500000Y-11000000D02*
X22500000Y-19250000D01*
X22500000Y-19250000D02*
X22750000Y-19250000D01*
%TO.N,SOL_OUT1*%
D21*
X46000000Y-40750000D02*
X46000000Y-43000000D01*
%TO.N,SOL_OUT2*%
X47250000Y-37750000D02*
X49250000Y-37750000D01*
X49250000Y-37750000D02*
X49250000Y-42750000D01*
%TO.N,+3V3*%
D22*
X12000000Y-20750000D02*
X5000000Y-20750000D01*
X5000000Y-20750000D02*
X5000000Y-27250000D01*
X5000000Y-27250000D02*
X4250000Y-27250000D01*
X4250000Y-27250000D02*
X3500000Y-28000000D01*
X30250000Y-19750000D02*
X30250000Y-17750000D01*
X30250000Y-17750000D02*
X29000000Y-17750000D01*
X14000000Y-15750000D02*
X12000000Y-15750000D01*
X12000000Y-15750000D02*
X12000000Y-20750000D01*
X53500000Y-17750000D02*
X49000000Y-17750000D01*
X47250000Y-29500000D02*
X47250000Y-21000000D01*
X38750000Y-40000000D02*
X40250000Y-40000000D01*
X40250000Y-40000000D02*
X40250000Y-44250000D01*
X40250000Y-44250000D02*
X50500000Y-44250000D01*
X50500000Y-44250000D02*
X50500000Y-36500000D01*
X12250000Y-37000000D02*
X12250000Y-33000000D01*
%TO.N,VM*%
D21*
X18000000Y-18000000D02*
X18000000Y-14250000D01*
X18000000Y-14250000D02*
X12000000Y-14250000D01*
X27750000Y-14500000D02*
X31000000Y-14500000D01*
X24000000Y-9500000D02*
X18000000Y-9500000D01*
X18000000Y-9500000D02*
X18000000Y-14250000D01*
X55000000Y-41500000D02*
X55000000Y-15750000D01*
X55000000Y-15750000D02*
X52750000Y-15750000D01*
X55000000Y-41500000D02*
X54500000Y-42000000D01*
X55000000Y-41500000D02*
X54500000Y-42000000D01*
X60500000Y-37750000D02*
X55000000Y-37750000D01*
X61000000Y-31000000D02*
X55000000Y-31000000D01*
X61000000Y-31000000D02*
X61500000Y-31500000D01*
X61000000Y-31000000D02*
X61500000Y-31500000D01*
%TO.N,VIN_OR*%
X15250000Y-7750000D02*
X13000000Y-7750000D01*
X55250000Y-5750000D02*
X53000000Y-5750000D01*
%TO.N,VIN_DC*%
X14000000Y-12750000D02*
X10250000Y-12750000D01*
X10250000Y-12750000D02*
X10250000Y-13750000D01*
%TO.N,VBAT2_IN*%
X51250000Y-7000000D02*
X51250000Y-3500000D01*
X51250000Y-3500000D02*
X51460000Y-3000000D01*
X51250000Y-3500000D02*
X51460000Y-3000000D01*
%TO.N,SDA*%
D20*
X51000000Y-20250000D02*
X48500000Y-20250000D01*
X48500000Y-20250000D02*
X48500000Y-19750000D01*
X48500000Y-19750000D02*
X39000000Y-19750000D01*
X39000000Y-19750000D02*
X39000000Y-24250000D01*
X64250000Y-18250000D02*
X65250000Y-18250000D01*
X65250000Y-18250000D02*
X65250000Y-21750000D01*
X65250000Y-21750000D02*
X61750000Y-21750000D01*
X64250000Y-18250000D02*
X63540000Y-17540000D01*
%TO.N,SCL*%
X56250000Y-18750000D02*
X56250000Y-14500000D01*
X56250000Y-14500000D02*
X51500000Y-14500000D01*
X51500000Y-14500000D02*
X51500000Y-15750000D01*
X33250000Y-17250000D02*
X33250000Y-24250000D01*
%TO.N,MISO*%
X60250000Y-14250000D02*
X60250000Y-13250000D01*
X60250000Y-13250000D02*
X47500000Y-13250000D01*
X47500000Y-13250000D02*
X47500000Y-16750000D01*
X34500000Y-17250000D02*
X34500000Y-25500000D01*
X34500000Y-25500000D02*
X32250000Y-25500000D01*
X32250000Y-25500000D02*
X32250000Y-25250000D01*
X60250000Y-14250000D02*
X61000000Y-15000000D01*
X62500000Y-12250000D02*
X61750000Y-12250000D01*
X61750000Y-12250000D02*
X61750000Y-14250000D01*
X61750000Y-14250000D02*
X61000000Y-15000000D01*
%TO.N,/RESET*%
X52250000Y-19500000D02*
X52250000Y-30750000D01*
X52250000Y-30750000D02*
X44250000Y-30750000D01*
X44250000Y-30750000D02*
X44250000Y-29750000D01*
X44250000Y-29750000D02*
X39000000Y-29750000D01*
X60250000Y-20750000D02*
X57750000Y-20750000D01*
X57750000Y-20750000D02*
X57750000Y-29500000D01*
X53750000Y-32250000D02*
X53750000Y-30750000D01*
X53750000Y-30750000D02*
X52250000Y-30750000D01*
X60250000Y-20750000D02*
X61000000Y-20080000D01*
%TO.N,+3V3*%
X40337000Y-32500000D02*
X42300000Y-32500000D01*
X42300000Y-32500000D02*
X42500000Y-32500000D01*
X42500000Y-32500000D02*
X42500000Y-33500000D01*
X42500000Y-33500000D02*
X42250000Y-33900000D01*
X42500000Y-35100000D02*
X43700000Y-35100000D01*
X43700000Y-35100000D02*
X43700000Y-34200000D01*
X42300000Y-30250000D02*
X42300000Y-31750000D01*
X42300000Y-31750000D02*
X42500000Y-31750000D01*
X42500000Y-31750000D02*
X42500000Y-34000000D01*
X42500000Y-34000000D02*
X40750000Y-34000000D01*
X40750000Y-34000000D02*
X40750000Y-35500000D01*
X40750000Y-35500000D02*
X40750000Y-37500000D01*
X40750000Y-37500000D02*
X38750000Y-37500000D01*
%TO.N,GND*%
X37250000Y-34500000D02*
X37250000Y-35500000D01*
%TO.N,VM*%
D23*
X19137000Y-21500000D02*
X20000000Y-21500000D01*
D20*
X51250000Y-39500000D02*
X51500000Y-39500000D01*
D21*
X51500000Y-39500000D02*
X51500000Y-37500000D01*
X51500000Y-37500000D02*
X55000000Y-37500000D01*
X55000000Y-37500000D02*
X55000000Y-37750000D01*
%TD*%
M02*
