{
  "accessors": [
    {
      "bufferView": 2,
      "componentType": 5126,
      "count": 65532,
      "max": [
        0.43676498532295227,
        0.30994200706481934,
        0.9516969919204712
      ],
      "min": [
        -0.4811510145664215,
        -0.2847200036048889,
        -0.9430099725723267
      ],
      "type": "VEC3"
    },
    {
      "bufferView": 2,
      "byteOffset": 786384,
      "componentType": 5126,
      "count": 65532,
      "max": [
        0.9999359846115112,
        0.9999986886978149,
        0.9999064207077026
      ],
      "min": [
        -0.999991774559021,
        -0.9999990463256836,
        -0.9999415874481201
      ],
      "type": "VEC3"
    },
    {
      "bufferView": 3,
      "componentType": 5126,
      "count": 65532,
      "max": [
        0.9999968409538269,
        0.999988317489624,
        0.9999904036521912,
        1.0
      ],
      "min": [
        -0.9999830722808838,
        -0.9999953508377075,
        -0.9999996423721313,
        -1.0
      ],
      "type": "VEC4"
    },
    {
      "bufferView": 1,
      "componentType": 5126,
      "count": 65532,
      "max": [
        0.9989359974861145,
        0.9999589920043945
      ],
      "min": [
        0.0002010000025620684,
        3.600120544433594e-05
      ],
      "type": "VEC2"
    },
    {
      "bufferView": 1,
      "byteOffset": 524256,
      "componentType": 5126,
      "count": 65532,
      "max": [
        0.9989359974861145,
        0.9999589920043945
      ],
      "min": [
        0.0002010000025620684,
        3.600120544433594e-05
      ],
      "type": "VEC2"
    },
    {
      "bufferView": 1,
      "byteOffset": 1048512,
      "componentType": 5126,
      "count": 65532,
      "max": [
        0.9989359974861145,
        0.9999589920043945
      ],
      "min": [
        0.0002010000025620684,
        3.600120544433594e-05
      ],
      "type": "VEC2"
    },
    {
      "bufferView": 1,
      "byteOffset": 1572768,
      "componentType": 5126,
      "count": 65532,
      "max": [
        0.9989359974861145,
        0.9999589920043945
      ],
      "min": [
        0.0002010000025620684,
        3.600120544433594e-05
      ],
      "type": "VEC2"
    },
    {
      "bufferView": 0,
      "componentType": 5125,
      "count": 332226,
      "type": "SCALAR"
    },
    {
      "bufferView": 2,
      "byteOffset": 1572768,
      "componentType": 5126,
      "count": 24302,
      "max": [
        0.4986169934272766,
        0.25588300824165344,
        0.7300019860267639
      ],
      "min": [
        -0.4984000027179718,
        -0.2954449951648712,
        -0.9513840079307556
      ],
      "type": "VEC3"
    },
    {
      "bufferView": 2,
      "byteOffset": 1864392,
      "componentType": 5126,
      "count": 24302,
      "max": [
        0.9999977350234985,
        0.9993666410446167,
        0.9999877214431763
      ],
      "min": [
        -0.9999926090240479,
        -0.9999997615814209,
        -0.9999814033508301
      ],
      "type": "VEC3"
    },
    {
      "bufferView": 3,
      "byteOffset": 1048512,
      "componentType": 5126,
      "count": 24302,
      "max": [
        0.9999890923500061,
        0.9999233484268188,
        0.9999129176139832,
        1.0
      ],
      "min": [
        -0.9999164342880249,
        -0.9997472763061523,
        -0.9999504089355469,
        -1.0
      ],
      "type": "VEC4"
    },
    {
      "bufferView": 1,
      "byteOffset": 2097024,
      "componentType": 5126,
      "count": 24302,
      "max": [
        0.9990000128746033,
        0.9999899864196777
      ],
      "min": [
        0.0010229999898001552,
        5.0067901611328125e-06
      ],
      "type": "VEC2"
    },
    {
      "bufferView": 1,
      "byteOffset": 2291440,
      "componentType": 5126,
      "count": 24302,
      "max": [
        0.9990000128746033,
        0.9999899864196777
      ],
      "min": [
        0.0010229999898001552,
        5.0067901611328125e-06
      ],
      "type": "VEC2"
    },
    {
      "bufferView": 1,
      "byteOffset": 2485856,
      "componentType": 5126,
      "count": 24302,
      "max": [
        0.9990000128746033,
        0.9999899864196777
      ],
      "min": [
        0.0010229999898001552,
        5.0067901611328125e-06
      ],
      "type": "VEC2"
    },
    {
      "bufferView": 1,
      "byteOffset": 2680272,
      "componentType": 5126,
      "count": 24302,
      "max": [
        0.9990000128746033,
        0.9999899864196777
      ],
      "min": [
        0.0010229999898001552,
        5.0067901611328125e-06
      ],
      "type": "VEC2"
    },
    {
      "bufferView": 0,
      "byteOffset": 1328904,
      "componentType": 5125,
      "count": 112227,
      "type": "SCALAR"
    }
  ],
  "asset": {
    "extras": {
      "author": "fdehell (https://sketchfab.com/fdehell)",
      "license": "CC-BY-4.0 (http://creativecommons.org/licenses/by/4.0/)",
      "source": "https://sketchfab.com/3d-models/tiger-shark-galeocerdo-cuvier-b74e252a508d406490ecef3bde602e2f",
      "title": "Tiger Shark (Galeocerdo Cuvier)"
    },
    "generator": "Sketchfab-16.95.0",
    "version": "2.0"
  },
  "bufferViews": [
    {
      "buffer": 0,
      "byteLength": 1777812,
      "name": "floatBufferViews",
      "target": 34963
    },
    {
      "buffer": 0,
      "byteLength": 2874688,
      "byteOffset": 1777812,
      "byteStride": 8,
      "name": "floatBufferViews",
      "target": 34962
    },
    {
      "buffer": 0,
      "byteLength": 2156016,
      "byteOffset": 4652500,
      "byteStride": 12,
      "name": "floatBufferViews",
      "target": 34962
    },
    {
      "buffer": 0,
      "byteLength": 1437344,
      "byteOffset": 6808516,
      "byteStride": 16,
      "name": "floatBufferViews",
      "target": 34962
    }
  ],
  "buffers": [
    {
      "byteLength": 8245860,
      "uri": "scene.bin"
    }
  ],
  "images": [
    {
      "uri": "textures/material_0_baseColor.jpeg"
    },
    {
      "uri": "textures/material_0_metallicRoughness.png"
    },
    {
      "uri": "textures/material_0_normal.jpeg"
    }
  ],
  "materials": [
    {
      "doubleSided": true,
      "name": "material_0",
      "normalTexture": {
        "index": 2,
        "texCoord": 2
      },
      "pbrMetallicRoughness": {
        "baseColorTexture": {
          "index": 0
        },
        "metallicRoughnessTexture": {
          "index": 1,
          "texCoord": 1
        }
      }
    }
  ],
  "meshes": [
    {
      "name": "Object_0",
      "primitives": [
        {
          "attributes": {
            "NORMAL": 1,
            "POSITION": 0,
            "TANGENT": 2,
            "TEXCOORD_0": 3,
            "TEXCOORD_1": 4,
            "TEXCOORD_2": 5,
            "TEXCOORD_3": 6
          },
          "indices": 7,
          "material": 0,
          "mode": 4
        }
      ]
    },
    {
      "name": "Object_1",
      "primitives": [
        {
          "attributes": {
            "NORMAL": 9,
            "POSITION": 8,
            "TANGENT": 10,
            "TEXCOORD_0": 11,
            "TEXCOORD_1": 12,
            "TEXCOORD_2": 13,
            "TEXCOORD_3": 14
          },
          "indices": 15,
          "material": 0,
          "mode": 4
        }
      ]
    }
  ],
  "nodes": [
    {
      "children": [
        1
      ],
      "matrix": [
        1.0,
        0.0,
        0.0,
        0.0,
        0.0,
        2.220446049250313e-16,
        -1.0,
        0.0,
        0.0,
        1.0,
        2.220446049250313e-16,
        0.0,
        0.0,
        0.0,
        0.0,
        1.0
      ],
      "name": "Sketchfab_model"
    },
    {
      "children": [
        2
      ],
      "name": "root"
    },
    {
      "children": [
        3
      ],
      "matrix": [
        1.0,
        0.0,
        0.0,
        0.0,
        0.0,
        2.220446049250313e-16,
        1.0,
        0.0,
        0.0,
        -1.0,
        2.220446049250313e-16,
        0.0,
        0.0,
        0.0,
        0.0,
        1.0
      ],
      "name": "GLTF_SceneRootNode"
    },
    {
      "children": [
        4,
        5
      ],
      "name": "_0"
    },
    {
      "mesh": 0,
      "name": "Object_4"
    },
    {
      "mesh": 1,
      "name": "Object_5"
    }
  ],
  "samplers": [
    {
      "magFilter": 9729,
      "minFilter": 9987,
      "wrapS": 10497,
      "wrapT": 10497
    }
  ],
  "scene": 0,
  "scenes": [
    {
      "name": "Sketchfab_Scene",
      "nodes": [
        0
      ]
    }
  ],
  "textures": [
    {
      "sampler": 0,
      "source": 0
    },
    {
      "sampler": 0,
      "source": 1
    },
    {
      "sampler": 0,
      "source": 2
    }
  ]
}
