{
  "accessors": [
    {
      "bufferView": 2,
      "componentType": 5126,
      "count": 65532,
      "max": [
        0.23675039410591125,
        0.1439564824104309,
        0.5
      ],
      "min": [
        -0.23672820627689362,
        -0.1457950919866562,
        -0.5
      ],
      "type": "VEC3"
    },
    {
      "bufferView": 2,
      "byteOffset": 786384,
      "componentType": 5126,
      "count": 65532,
      "max": [
        1.0,
        1.0,
        1.0
      ],
      "min": [
        -1.0,
        -1.0,
        -0.9999690055847168
      ],
      "type": "VEC3"
    },
    {
      "bufferView": 3,
      "componentType": 5126,
      "count": 65532,
      "max": [
        0.9999770522117615,
        1.0,
        1.0,
        1.0
      ],
      "min": [
        -1.0,
        -0.9999998211860657,
        -1.0,
        -1.0
      ],
      "type": "VEC4"
    },
    {
      "bufferView": 1,
      "componentType": 5126,
      "count": 65532,
      "max": [
        0.9996852874755859,
        0.9999911189079285
      ],
      "min": [
        0.00039910152554512024,
        0.0003355741500854492
      ],
      "type": "VEC2"
    },
    {
      "bufferView": 1,
      "byteOffset": 524256,
      "componentType": 5126,
      "count": 65532,
      "max": [
        0.9996852874755859,
        0.9999911189079285
      ],
      "min": [
        0.00039910152554512024,
        0.0003355741500854492
      ],
      "type": "VEC2"
    },
    {
      "bufferView": 1,
      "byteOffset": 1048512,
      "componentType": 5126,
      "count": 65532,
      "max": [
        0.9996852874755859,
        0.9999911189079285
      ],
      "min": [
        0.00039910152554512024,
        0.0003355741500854492
      ],
      "type": "VEC2"
    },
    {
      "bufferView": 1,
      "byteOffset": 1572768,
      "componentType": 5126,
      "count": 65532,
      "max": [
        0.9996852874755859,
        0.9999911189079285
      ],
      "min": [
        0.00039910152554512024,
        0.0003355741500854492
      ],
      "type": "VEC2"
    },
    {
      "bufferView": 0,
      "componentType": 5125,
      "count": 367119,
      "type": "SCALAR"
    },
    {
      "bufferView": 2,
      "byteOffset": 1572768,
      "componentType": 5126,
      "count": 15587,
      "max": [
        0.06999217718839645,
        0.14578764140605927,
        0.1232069805264473
      ],
      "min": [
        -0.0705193281173706,
        -0.10294579714536667,
        -0.25193798542022705
      ],
      "type": "VEC3"
    },
    {
      "bufferView": 2,
      "byteOffset": 1759812,
      "componentType": 5126,
      "count": 15587,
      "max": [
        0.9989476799964905,
        0.9990094900131226,
        0.8163707852363586
      ],
      "min": [
        -0.999225914478302,
        -0.9998760223388672,
        -0.9993805885314941
      ],
      "type": "VEC3"
    },
    {
      "bufferView": 3,
      "byteOffset": 1048512,
      "componentType": 5126,
      "count": 15587,
      "max": [
        1.0,
        0.9999233484268188,
        0.9999585747718811,
        1.0
      ],
      "min": [
        -0.9999685883522034,
        -0.9976511597633362,
        -0.9992292523384094,
        -1.0
      ],
      "type": "VEC4"
    },
    {
      "bufferView": 1,
      "byteOffset": 2097024,
      "componentType": 5126,
      "count": 15587,
      "max": [
        0.9999293684959412,
        0.9890059232711792
      ],
      "min": [
        0.08778171986341476,
        0.003264967817813158
      ],
      "type": "VEC2"
    },
    {
      "bufferView": 1,
      "byteOffset": 2221720,
      "componentType": 5126,
      "count": 15587,
      "max": [
        0.9999293684959412,
        0.9890059232711792
      ],
      "min": [
        0.08778171986341476,
        0.003264967817813158
      ],
      "type": "VEC2"
    },
    {
      "bufferView": 1,
      "byteOffset": 2346416,
      "componentType": 5126,
      "count": 15587,
      "max": [
        0.9999293684959412,
        0.9890059232711792
      ],
      "min": [
        0.08778171986341476,
        0.003264967817813158
      ],
      "type": "VEC2"
    },
    {
      "bufferView": 1,
      "byteOffset": 2471112,
      "componentType": 5126,
      "count": 15587,
      "max": [
        0.9999293684959412,
        0.9890059232711792
      ],
      "min": [
        0.08778171986341476,
        0.003264967817813158
      ],
      "type": "VEC2"
    },
    {
      "bufferView": 0,
      "byteOffset": 1468476,
      "componentType": 5125,
      "count": 82866,
      "type": "SCALAR"
    }
  ],
  "asset": {
    "extras": {
      "author": "faerbogdan99 (https://sketchfab.com/faerbogdan99)",
      "license": "CC-BY-4.0 (http://creativecommons.org/licenses/by/4.0/)",
      "source": "https://sketchfab.com/3d-models/shortfin-mako-shark-0ec4d184c6ea4a6a8704f56cc2ba6e78",
      "title": "Shortfin mako shark"
    },
    "generator": "Sketchfab-16.62.0",
    "version": "2.0"
  },
  "bufferViews": [
    {
      "buffer": 0,
      "byteLength": 1799940,
      "name": "floatBufferViews",
      "target": 34963
    },
    {
      "buffer": 0,
      "byteLength": 2595808,
      "byteOffset": 1799940,
      "byteStride": 8,
      "name": "floatBufferViews",
      "target": 34962
    },
    {
      "buffer": 0,
      "byteLength": 1946856,
      "byteOffset": 4395748,
      "byteStride": 12,
      "name": "floatBufferViews",
      "target": 34962
    },
    {
      "buffer": 0,
      "byteLength": 1297904,
      "byteOffset": 6342604,
      "byteStride": 16,
      "name": "floatBufferViews",
      "target": 34962
    }
  ],
  "buffers": [
    {
      "byteLength": 7640508,
      "uri": "scene.bin"
    }
  ],
  "images": [
    {
      "uri": "textures/tripo_material_2a102e34-8dd0-4754-ad2f-81de1cb75af6_baseColor.jpeg"
    },
    {
      "uri": "textures/tripo_material_2a102e34-8dd0-4754-ad2f-81de1cb75af6_metallicRoughness.png"
    },
    {
      "uri": "textures/tripo_material_2a102e34-8dd0-4754-ad2f-81de1cb75af6_normal.jpeg"
    }
  ],
  "materials": [
    {
      "name": "tripo_material_2a102e34-8dd0-4754-ad2f-81de1cb75af6",
      "normalTexture": {
        "index": 2,
        "texCoord": 2
      },
      "pbrMetallicRoughness": {
        "baseColorTexture": {
          "index": 0
        },
        "metallicRoughnessTexture": {
          "index": 1,
          "texCoord": 1
        }
      }
    }
  ],
  "meshes": [
    {
      "name": "Object_0",
      "primitives": [
        {
          "attributes": {
            "NORMAL": 1,
            "POSITION": 0,
            "TANGENT": 2,
            "TEXCOORD_0": 3,
            "TEXCOORD_1": 4,
            "TEXCOORD_2": 5,
            "TEXCOORD_3": 6
          },
          "indices": 7,
          "material": 0,
          "mode": 4
        }
      ]
    },
    {
      "name": "Object_1",
      "primitives": [
        {
          "attributes": {
            "NORMAL": 9,
            "POSITION": 8,
            "TANGENT": 10,
            "TEXCOORD_0": 11,
            "TEXCOORD_1": 12,
            "TEXCOORD_2": 13,
            "TEXCOORD_3": 14
          },
          "indices": 15,
          "material": 0,
          "mode": 4
        }
      ]
    }
  ],
  "nodes": [
    {
      "children": [
        1
      ],
      "matrix": [
        1.0,
        0.0,
        0.0,
        0.0,
        0.0,
        2.220446049250313e-16,
        -1.0,
        0.0,
        0.0,
        1.0,
        2.220446049250313e-16,
        0.0,
        0.0,
        0.0,
        0.0,
        1.0
      ],
      "name": "Sketchfab_model"
    },
    {
      "children": [
        2
      ],
      "name": "root"
    },
    {
      "children": [
        3
      ],
      "matrix": [
        1.0,
        0.0,
        0.0,
        0.0,
        0.0,
        2.220446049250313e-16,
        1.0,
        0.0,
        0.0,
        -1.0,
        2.220446049250313e-16,
        0.0,
        0.0,
        0.0,
        0.0,
        1.0
      ],
      "name": "GLTF_SceneRootNode"
    },
    {
      "children": [
        4,
        5
      ],
      "name": "tripo_node_2a102e34-8dd0-4754-ad2f-81de1cb75af6_0"
    },
    {
      "mesh": 0,
      "name": "Object_4"
    },
    {
      "mesh": 1,
      "name": "Object_5"
    }
  ],
  "samplers": [
    {
      "magFilter": 9729,
      "minFilter": 9987,
      "wrapS": 10497,
      "wrapT": 10497
    }
  ],
  "scene": 0,
  "scenes": [
    {
      "name": "Sketchfab_Scene",
      "nodes": [
        0
      ]
    }
  ],
  "textures": [
    {
      "sampler": 0,
      "source": 0
    },
    {
      "sampler": 0,
      "source": 1
    },
    {
      "sampler": 0,
      "source": 2
    }
  ]
}
