%TF.GenerationSoftware,KiCad,Pcbnew,10.0.3*%
%TF.CreationDate,2026-06-08T22:33:09-05:00*%
%TF.ProjectId,co2_timer_v2_clean,636f325f-7469-46d6-9572-5f76325f636c,2.0*%
%TF.SameCoordinates,Original*%
%TF.FileFunction,Copper,L1,Top*%
%TF.FilePolarity,Positive*%
%FSLAX46Y46*%
G04 Gerber Fmt 4.6, Leading zero omitted, Abs format (unit mm)*
G04 Created by KiCad (PCBNEW 10.0.3) date 2026-06-08 22:33:09*
%MOMM*%
%LPD*%
G01*
G04 APERTURE LIST*
%TA.AperFunction,ComponentPad*%
%ADD10R,1.600000X1.600000*%
%TD*%
%TA.AperFunction,ComponentPad*%
%ADD11C,1.600000*%
%TD*%
%TA.AperFunction,SMDPad,CuDef*%
%ADD12R,1.270000X1.800000*%
%TD*%
%TA.AperFunction,SMDPad,CuDef*%
%ADD13R,1.500000X2.000000*%
%TD*%
%TA.AperFunction,SMDPad,CuDef*%
%ADD14R,3.000000X2.000000*%
%TD*%
%TA.AperFunction,SMDPad,CuDef*%
%ADD15R,3.400000X1.600000*%
%TD*%
%TA.AperFunction,ComponentPad*%
%ADD16R,1.800000X1.800000*%
%TD*%
%TA.AperFunction,ComponentPad*%
%ADD17C,1.800000*%
%TD*%
%TA.AperFunction,SMDPad,CuDef*%
%ADD18R,1.400000X1.650000*%
%TD*%
%TA.AperFunction,ComponentPad*%
%ADD19C,2.000000*%
%TD*%
%TA.AperFunction,SMDPad,CuDef*%
%ADD20R,2.000000X3.400000*%
%TD*%
G04 APERTURE END LIST*
D10*
%TO.P,U1,1*%
%TO.N,N/C*%
X18190000Y-18920000D03*
D11*
%TO.P,U1,2*%
X18190000Y-21460000D03*
%TO.P,U1,3*%
X18190000Y-24000000D03*
%TO.P,U1,4*%
X18190000Y-26540000D03*
%TO.P,U1,5*%
X25810000Y-26540000D03*
%TO.P,U1,6*%
X25810000Y-24000000D03*
%TO.P,U1,7*%
X25810000Y-21460000D03*
%TO.P,U1,8*%
X25810000Y-18920000D03*
%TD*%
D12*
%TO.P,U2,1*%
%TO.N,N/C*%
X45100000Y-15110000D03*
%TO.P,U2,2*%
X45100000Y-16380000D03*
%TO.P,U2,3*%
X45100000Y-17650000D03*
%TO.P,U2,4*%
X45100000Y-18920000D03*
%TO.P,U2,5*%
X45100000Y-20190000D03*
%TO.P,U2,6*%
X45100000Y-21460000D03*
%TO.P,U2,7*%
X45100000Y-22730000D03*
%TO.P,U2,8*%
X45100000Y-24000000D03*
%TO.P,U2,9*%
X54900000Y-24000000D03*
%TO.P,U2,10*%
X54900000Y-22730000D03*
%TO.P,U2,11*%
X54900000Y-21460000D03*
%TO.P,U2,12*%
X54900000Y-20190000D03*
%TO.P,U2,13*%
X54900000Y-18920000D03*
%TO.P,U2,14*%
X54900000Y-17650000D03*
%TO.P,U2,15*%
X54900000Y-16380000D03*
%TO.P,U2,16*%
X54900000Y-15110000D03*
%TD*%
D13*
%TO.P,U3,1*%
%TO.N,N/C*%
X5700000Y-10300000D03*
D14*
%TO.P,U3,2*%
X8000000Y-10300000D03*
D13*
%TO.P,U3,3*%
X10300000Y-10300000D03*
D15*
%TO.P,U3,2*%
X8000000Y-6500000D03*
%TD*%
D10*
%TO.P,Q1,1*%
%TO.N,N/C*%
X55460000Y-35000000D03*
D11*
%TO.P,Q1,2*%
X58000000Y-35000000D03*
%TO.P,Q1,3*%
X60540000Y-35000000D03*
%TD*%
%TO.P,D1,A*%
%TO.N,N/C*%
X2920000Y-22000000D03*
%TO.P,D1,K*%
X13080000Y-22000000D03*
%TD*%
%TO.P,D2,A*%
%TO.N,N/C*%
X32920000Y-35000000D03*
%TO.P,D2,K*%
X43080000Y-35000000D03*
%TD*%
%TO.P,D3,A*%
%TO.N,N/C*%
X52920000Y-12000000D03*
%TO.P,D3,K*%
X63080000Y-12000000D03*
%TD*%
%TO.P,SW1,1*%
%TO.N,N/C*%
X21830000Y-36830000D03*
%TO.P,SW1,2*%
X28170000Y-43170000D03*
%TD*%
%TO.P,SW2,1*%
%TO.N,N/C*%
X34830000Y-36830000D03*
%TO.P,SW2,2*%
X41170000Y-43170000D03*
%TD*%
D16*
%TO.P,J1,1*%
%TO.N,N/C*%
X2460000Y-38000000D03*
D17*
%TO.P,J1,2*%
X7540000Y-38000000D03*
%TD*%
D16*
%TO.P,J2,1*%
%TO.N,N/C*%
X57460000Y-38000000D03*
D17*
%TO.P,J2,2*%
X62540000Y-38000000D03*
%TD*%
D10*
%TO.P,J3,1*%
%TO.N,N/C*%
X5460000Y-11460000D03*
D11*
%TO.P,J3,2*%
X8000000Y-11460000D03*
%TO.P,J3,3*%
X5460000Y-14000000D03*
%TO.P,J3,4*%
X8000000Y-14000000D03*
%TO.P,J3,5*%
X5460000Y-16540000D03*
%TO.P,J3,6*%
X8000000Y-16540000D03*
%TD*%
D10*
%TO.P,J4,1*%
%TO.N,N/C*%
X28190000Y-5000000D03*
D11*
%TO.P,J4,2*%
X30730000Y-5000000D03*
%TO.P,J4,3*%
X33270000Y-5000000D03*
%TO.P,J4,4*%
X35810000Y-5000000D03*
%TD*%
D18*
%TO.P,R1,1*%
%TO.N,N/C*%
X28875000Y-14000000D03*
%TO.P,R1,2*%
X31125000Y-14000000D03*
%TD*%
%TO.P,R2,1*%
%TO.N,N/C*%
X18875000Y-35000000D03*
%TO.P,R2,2*%
X21125000Y-35000000D03*
%TD*%
%TO.P,R3,1*%
%TO.N,N/C*%
X31875000Y-35000000D03*
%TO.P,R3,2*%
X34125000Y-35000000D03*
%TD*%
%TO.P,R4,1*%
%TO.N,N/C*%
X46875000Y-35000000D03*
%TO.P,R4,2*%
X49125000Y-35000000D03*
%TD*%
%TO.P,R5,1*%
%TO.N,N/C*%
X40875000Y-14000000D03*
%TO.P,R5,2*%
X43125000Y-14000000D03*
%TD*%
%TO.P,R6,1*%
%TO.N,N/C*%
X40875000Y-18000000D03*
%TO.P,R6,2*%
X43125000Y-18000000D03*
%TD*%
%TO.P,R7,1*%
%TO.N,N/C*%
X44875000Y-14000000D03*
%TO.P,R7,2*%
X47125000Y-14000000D03*
%TD*%
%TO.P,C2,1*%
%TO.N,N/C*%
X20875000Y-14000000D03*
%TO.P,C2,2*%
X23125000Y-14000000D03*
%TD*%
%TO.P,C3,1*%
%TO.N,N/C*%
X48875000Y-14000000D03*
%TO.P,C3,2*%
X51125000Y-14000000D03*
%TD*%
D19*
%TO.P,C1,+*%
%TO.N,N/C*%
X56750000Y-24000000D03*
%TO.P,C1,-*%
X59250000Y-24000000D03*
%TD*%
D20*
%TO.P,F1,1*%
%TO.N,N/C*%
X5440000Y-5000000D03*
%TO.P,F1,2*%
X10560000Y-5000000D03*
%TD*%
M02*
