M48
; DRILL file KiCad 10.0.3 date 2026-06-08T22:33:18
; FORMAT={-:-/ absolute / metric / decimal}
; #@! TF.CreationDate,2026-06-08T22:33:18-05:00
; #@! TF.GenerationSoftware,Kicad,Pcbnew,10.0.3
; #@! TF.FileFunction,Plated,1,2,PTH
FMAT,2
METRIC
; #@! TA.AperFunction,Plated,PTH,ComponentDrill
T1C0.800
; #@! TA.AperFunction,Plated,PTH,ComponentDrill
T2C1.000
%
G90
G05
T1
X2.92Y-22.0
X5.46Y-11.46
X5.46Y-14.0
X5.46Y-16.54
X8.0Y-11.46
X8.0Y-14.0
X8.0Y-16.54
X13.08Y-22.0
X18.19Y-18.92
X18.19Y-21.46
X18.19Y-24.0
X18.19Y-26.54
X21.83Y-36.83
X25.81Y-18.92
X25.81Y-21.46
X25.81Y-24.0
X25.81Y-26.54
X28.17Y-43.17
X28.19Y-5.0
X30.73Y-5.0
X32.92Y-35.0
X33.27Y-5.0
X34.83Y-36.83
X35.81Y-5.0
X41.17Y-43.17
X43.08Y-35.0
X52.92Y-12.0
X55.46Y-35.0
X56.75Y-24.0
X58.0Y-35.0
X59.25Y-24.0
X60.54Y-35.0
X63.08Y-12.0
T2
X2.46Y-38.0
X7.54Y-38.0
X57.46Y-38.0
X62.54Y-38.0
M30
