%TF.GenerationSoftware,KiCad,Pcbnew,10.0.3*%
%TF.CreationDate,2026-06-08T22:33:09-05:00*%
%TF.ProjectId,co2_timer_v2_clean,636f325f-7469-46d6-9572-5f76325f636c,2.0*%
%TF.SameCoordinates,Original*%
%TF.FileFunction,Legend,Top*%
%TF.FilePolarity,Positive*%
%FSLAX46Y46*%
G04 Gerber Fmt 4.6, Leading zero omitted, Abs format (unit mm)*
G04 Created by KiCad (PCBNEW 10.0.3) date 2026-06-08 22:33:09*
%MOMM*%
%LPD*%
G01*
G04 APERTURE LIST*
G04 Aperture macros list*
%AMRoundRect*
0 Rectangle with rounded corners*
0 $1 Rounding radius*
0 $2 $3 $4 $5 $6 $7 $8 $9 X,Y pos of 4 corners*
0 Add a 4 corners polygon primitive as box body*
4,1,4,$2,$3,$4,$5,$6,$7,$8,$9,$2,$3,0*
0 Add four circle primitives for the rounded corners*
1,1,$1+$1,$2,$3*
1,1,$1+$1,$4,$5*
1,1,$1+$1,$6,$7*
1,1,$1+$1,$8,$9*
0 Add four rect primitives between the rounded corners*
20,1,$1+$1,$2,$3,$4,$5,0*
20,1,$1+$1,$4,$5,$6,$7,0*
20,1,$1+$1,$6,$7,$8,$9,0*
20,1,$1+$1,$8,$9,$2,$3,0*%
G04 Aperture macros list end*
%ADD10C,0.150000*%
%ADD11C,0.120000*%
%ADD12C,3.400000*%
%ADD13RoundRect,0.100000X-0.800000X-0.800000X0.800000X-0.800000X0.800000X0.800000X-0.800000X0.800000X0*%
%ADD14C,1.800000*%
%ADD15RoundRect,0.100000X-0.635000X-0.900000X0.635000X-0.900000X0.635000X0.900000X-0.635000X0.900000X0*%
%ADD16RoundRect,0.100000X-0.750000X-1.000000X0.750000X-1.000000X0.750000X1.000000X-0.750000X1.000000X0*%
%ADD17RoundRect,0.100000X-1.500000X-1.000000X1.500000X-1.000000X1.500000X1.000000X-1.500000X1.000000X0*%
%ADD18RoundRect,0.100000X-1.700000X-0.800000X1.700000X-0.800000X1.700000X0.800000X-1.700000X0.800000X0*%
%ADD19RoundRect,0.100000X-0.900000X-0.900000X0.900000X-0.900000X0.900000X0.900000X-0.900000X0.900000X0*%
%ADD20C,2.000000*%
%ADD21RoundRect,0.100000X-0.700000X-0.825000X0.700000X-0.825000X0.700000X0.825000X-0.700000X0.825000X0*%
%ADD22C,2.200000*%
%ADD23RoundRect,0.100000X-1.000000X-1.700000X1.000000X-1.700000X1.000000X1.700000X-1.000000X1.700000X0*%
G04 APERTURE END LIST*
D10*
X21428570Y-1502438D02*
X21333332Y-1454819D01*
X21333332Y-1454819D02*
X21190475Y-1454819D01*
X21190475Y-1454819D02*
X21047618Y-1502438D01*
X21047618Y-1502438D02*
X20952380Y-1597676D01*
X20952380Y-1597676D02*
X20904761Y-1692914D01*
X20904761Y-1692914D02*
X20857142Y-1883390D01*
X20857142Y-1883390D02*
X20857142Y-2026247D01*
X20857142Y-2026247D02*
X20904761Y-2216723D01*
X20904761Y-2216723D02*
X20952380Y-2311961D01*
X20952380Y-2311961D02*
X21047618Y-2407200D01*
X21047618Y-2407200D02*
X21190475Y-2454819D01*
X21190475Y-2454819D02*
X21285713Y-2454819D01*
X21285713Y-2454819D02*
X21428570Y-2407200D01*
X21428570Y-2407200D02*
X21476189Y-2359580D01*
X21476189Y-2359580D02*
X21476189Y-2026247D01*
X21476189Y-2026247D02*
X21285713Y-2026247D01*
X21904761Y-2454819D02*
X21904761Y-1788152D01*
X21904761Y-1978628D02*
X21952380Y-1883390D01*
X21952380Y-1883390D02*
X21999999Y-1835771D01*
X21999999Y-1835771D02*
X22095237Y-1788152D01*
X22095237Y-1788152D02*
X22190475Y-1788152D01*
X22904761Y-2407200D02*
X22809523Y-2454819D01*
X22809523Y-2454819D02*
X22619047Y-2454819D01*
X22619047Y-2454819D02*
X22523809Y-2407200D01*
X22523809Y-2407200D02*
X22476190Y-2311961D01*
X22476190Y-2311961D02*
X22476190Y-1931009D01*
X22476190Y-1931009D02*
X22523809Y-1835771D01*
X22523809Y-1835771D02*
X22619047Y-1788152D01*
X22619047Y-1788152D02*
X22809523Y-1788152D01*
X22809523Y-1788152D02*
X22904761Y-1835771D01*
X22904761Y-1835771D02*
X22952380Y-1931009D01*
X22952380Y-1931009D02*
X22952380Y-2026247D01*
X22952380Y-2026247D02*
X22476190Y-2121485D01*
X23761904Y-2407200D02*
X23666666Y-2454819D01*
X23666666Y-2454819D02*
X23476190Y-2454819D01*
X23476190Y-2454819D02*
X23380952Y-2407200D01*
X23380952Y-2407200D02*
X23333333Y-2311961D01*
X23333333Y-2311961D02*
X23333333Y-1931009D01*
X23333333Y-1931009D02*
X23380952Y-1835771D01*
X23380952Y-1835771D02*
X23476190Y-1788152D01*
X23476190Y-1788152D02*
X23666666Y-1788152D01*
X23666666Y-1788152D02*
X23761904Y-1835771D01*
X23761904Y-1835771D02*
X23809523Y-1931009D01*
X23809523Y-1931009D02*
X23809523Y-2026247D01*
X23809523Y-2026247D02*
X23333333Y-2121485D01*
X24238095Y-1788152D02*
X24238095Y-2454819D01*
X24238095Y-1883390D02*
X24285714Y-1835771D01*
X24285714Y-1835771D02*
X24380952Y-1788152D01*
X24380952Y-1788152D02*
X24523809Y-1788152D01*
X24523809Y-1788152D02*
X24619047Y-1835771D01*
X24619047Y-1835771D02*
X24666666Y-1931009D01*
X24666666Y-1931009D02*
X24666666Y-2454819D01*
X25666666Y-1502438D02*
X25571428Y-1454819D01*
X25571428Y-1454819D02*
X25428571Y-1454819D01*
X25428571Y-1454819D02*
X25285714Y-1502438D01*
X25285714Y-1502438D02*
X25190476Y-1597676D01*
X25190476Y-1597676D02*
X25142857Y-1692914D01*
X25142857Y-1692914D02*
X25095238Y-1883390D01*
X25095238Y-1883390D02*
X25095238Y-2026247D01*
X25095238Y-2026247D02*
X25142857Y-2216723D01*
X25142857Y-2216723D02*
X25190476Y-2311961D01*
X25190476Y-2311961D02*
X25285714Y-2407200D01*
X25285714Y-2407200D02*
X25428571Y-2454819D01*
X25428571Y-2454819D02*
X25523809Y-2454819D01*
X25523809Y-2454819D02*
X25666666Y-2407200D01*
X25666666Y-2407200D02*
X25714285Y-2359580D01*
X25714285Y-2359580D02*
X25714285Y-2026247D01*
X25714285Y-2026247D02*
X25523809Y-2026247D01*
X26571428Y-1788152D02*
X26571428Y-2454819D01*
X26142857Y-1788152D02*
X26142857Y-2311961D01*
X26142857Y-2311961D02*
X26190476Y-2407200D01*
X26190476Y-2407200D02*
X26285714Y-2454819D01*
X26285714Y-2454819D02*
X26428571Y-2454819D01*
X26428571Y-2454819D02*
X26523809Y-2407200D01*
X26523809Y-2407200D02*
X26571428Y-2359580D01*
X27476190Y-2454819D02*
X27476190Y-1931009D01*
X27476190Y-1931009D02*
X27428571Y-1835771D01*
X27428571Y-1835771D02*
X27333333Y-1788152D01*
X27333333Y-1788152D02*
X27142857Y-1788152D01*
X27142857Y-1788152D02*
X27047619Y-1835771D01*
X27476190Y-2407200D02*
X27380952Y-2454819D01*
X27380952Y-2454819D02*
X27142857Y-2454819D01*
X27142857Y-2454819D02*
X27047619Y-2407200D01*
X27047619Y-2407200D02*
X27000000Y-2311961D01*
X27000000Y-2311961D02*
X27000000Y-2216723D01*
X27000000Y-2216723D02*
X27047619Y-2121485D01*
X27047619Y-2121485D02*
X27142857Y-2073866D01*
X27142857Y-2073866D02*
X27380952Y-2073866D01*
X27380952Y-2073866D02*
X27476190Y-2026247D01*
X27952381Y-2454819D02*
X27952381Y-1788152D01*
X27952381Y-1978628D02*
X28000000Y-1883390D01*
X28000000Y-1883390D02*
X28047619Y-1835771D01*
X28047619Y-1835771D02*
X28142857Y-1788152D01*
X28142857Y-1788152D02*
X28238095Y-1788152D01*
X29000000Y-2454819D02*
X29000000Y-1454819D01*
X29000000Y-2407200D02*
X28904762Y-2454819D01*
X28904762Y-2454819D02*
X28714286Y-2454819D01*
X28714286Y-2454819D02*
X28619048Y-2407200D01*
X28619048Y-2407200D02*
X28571429Y-2359580D01*
X28571429Y-2359580D02*
X28523810Y-2264342D01*
X28523810Y-2264342D02*
X28523810Y-1978628D01*
X28523810Y-1978628D02*
X28571429Y-1883390D01*
X28571429Y-1883390D02*
X28619048Y-1835771D01*
X28619048Y-1835771D02*
X28714286Y-1788152D01*
X28714286Y-1788152D02*
X28904762Y-1788152D01*
X28904762Y-1788152D02*
X29000000Y-1835771D01*
X30809524Y-2359580D02*
X30761905Y-2407200D01*
X30761905Y-2407200D02*
X30619048Y-2454819D01*
X30619048Y-2454819D02*
X30523810Y-2454819D01*
X30523810Y-2454819D02*
X30380953Y-2407200D01*
X30380953Y-2407200D02*
X30285715Y-2311961D01*
X30285715Y-2311961D02*
X30238096Y-2216723D01*
X30238096Y-2216723D02*
X30190477Y-2026247D01*
X30190477Y-2026247D02*
X30190477Y-1883390D01*
X30190477Y-1883390D02*
X30238096Y-1692914D01*
X30238096Y-1692914D02*
X30285715Y-1597676D01*
X30285715Y-1597676D02*
X30380953Y-1502438D01*
X30380953Y-1502438D02*
X30523810Y-1454819D01*
X30523810Y-1454819D02*
X30619048Y-1454819D01*
X30619048Y-1454819D02*
X30761905Y-1502438D01*
X30761905Y-1502438D02*
X30809524Y-1550057D01*
X31428572Y-1454819D02*
X31619048Y-1454819D01*
X31619048Y-1454819D02*
X31714286Y-1502438D01*
X31714286Y-1502438D02*
X31809524Y-1597676D01*
X31809524Y-1597676D02*
X31857143Y-1788152D01*
X31857143Y-1788152D02*
X31857143Y-2121485D01*
X31857143Y-2121485D02*
X31809524Y-2311961D01*
X31809524Y-2311961D02*
X31714286Y-2407200D01*
X31714286Y-2407200D02*
X31619048Y-2454819D01*
X31619048Y-2454819D02*
X31428572Y-2454819D01*
X31428572Y-2454819D02*
X31333334Y-2407200D01*
X31333334Y-2407200D02*
X31238096Y-2311961D01*
X31238096Y-2311961D02*
X31190477Y-2121485D01*
X31190477Y-2121485D02*
X31190477Y-1788152D01*
X31190477Y-1788152D02*
X31238096Y-1597676D01*
X31238096Y-1597676D02*
X31333334Y-1502438D01*
X31333334Y-1502438D02*
X31428572Y-1454819D01*
X32238096Y-1550057D02*
X32285715Y-1502438D01*
X32285715Y-1502438D02*
X32380953Y-1454819D01*
X32380953Y-1454819D02*
X32619048Y-1454819D01*
X32619048Y-1454819D02*
X32714286Y-1502438D01*
X32714286Y-1502438D02*
X32761905Y-1550057D01*
X32761905Y-1550057D02*
X32809524Y-1645295D01*
X32809524Y-1645295D02*
X32809524Y-1740533D01*
X32809524Y-1740533D02*
X32761905Y-1883390D01*
X32761905Y-1883390D02*
X32190477Y-2454819D01*
X32190477Y-2454819D02*
X32809524Y-2454819D01*
X33857144Y-1454819D02*
X34428572Y-1454819D01*
X34142858Y-2454819D02*
X34142858Y-1454819D01*
X34761906Y-2454819D02*
X34761906Y-1788152D01*
X34761906Y-1454819D02*
X34714287Y-1502438D01*
X34714287Y-1502438D02*
X34761906Y-1550057D01*
X34761906Y-1550057D02*
X34809525Y-1502438D01*
X34809525Y-1502438D02*
X34761906Y-1454819D01*
X34761906Y-1454819D02*
X34761906Y-1550057D01*
X35238096Y-2454819D02*
X35238096Y-1788152D01*
X35238096Y-1883390D02*
X35285715Y-1835771D01*
X35285715Y-1835771D02*
X35380953Y-1788152D01*
X35380953Y-1788152D02*
X35523810Y-1788152D01*
X35523810Y-1788152D02*
X35619048Y-1835771D01*
X35619048Y-1835771D02*
X35666667Y-1931009D01*
X35666667Y-1931009D02*
X35666667Y-2454819D01*
X35666667Y-1931009D02*
X35714286Y-1835771D01*
X35714286Y-1835771D02*
X35809524Y-1788152D01*
X35809524Y-1788152D02*
X35952381Y-1788152D01*
X35952381Y-1788152D02*
X36047620Y-1835771D01*
X36047620Y-1835771D02*
X36095239Y-1931009D01*
X36095239Y-1931009D02*
X36095239Y-2454819D01*
X36952381Y-2407200D02*
X36857143Y-2454819D01*
X36857143Y-2454819D02*
X36666667Y-2454819D01*
X36666667Y-2454819D02*
X36571429Y-2407200D01*
X36571429Y-2407200D02*
X36523810Y-2311961D01*
X36523810Y-2311961D02*
X36523810Y-1931009D01*
X36523810Y-1931009D02*
X36571429Y-1835771D01*
X36571429Y-1835771D02*
X36666667Y-1788152D01*
X36666667Y-1788152D02*
X36857143Y-1788152D01*
X36857143Y-1788152D02*
X36952381Y-1835771D01*
X36952381Y-1835771D02*
X37000000Y-1931009D01*
X37000000Y-1931009D02*
X37000000Y-2026247D01*
X37000000Y-2026247D02*
X36523810Y-2121485D01*
X37428572Y-2454819D02*
X37428572Y-1788152D01*
X37428572Y-1978628D02*
X37476191Y-1883390D01*
X37476191Y-1883390D02*
X37523810Y-1835771D01*
X37523810Y-1835771D02*
X37619048Y-1788152D01*
X37619048Y-1788152D02*
X37714286Y-1788152D01*
X39380953Y-2454819D02*
X39047620Y-1978628D01*
X38809525Y-2454819D02*
X38809525Y-1454819D01*
X38809525Y-1454819D02*
X39190477Y-1454819D01*
X39190477Y-1454819D02*
X39285715Y-1502438D01*
X39285715Y-1502438D02*
X39333334Y-1550057D01*
X39333334Y-1550057D02*
X39380953Y-1645295D01*
X39380953Y-1645295D02*
X39380953Y-1788152D01*
X39380953Y-1788152D02*
X39333334Y-1883390D01*
X39333334Y-1883390D02*
X39285715Y-1931009D01*
X39285715Y-1931009D02*
X39190477Y-1978628D01*
X39190477Y-1978628D02*
X38809525Y-1978628D01*
X40190477Y-2407200D02*
X40095239Y-2454819D01*
X40095239Y-2454819D02*
X39904763Y-2454819D01*
X39904763Y-2454819D02*
X39809525Y-2407200D01*
X39809525Y-2407200D02*
X39761906Y-2311961D01*
X39761906Y-2311961D02*
X39761906Y-1931009D01*
X39761906Y-1931009D02*
X39809525Y-1835771D01*
X39809525Y-1835771D02*
X39904763Y-1788152D01*
X39904763Y-1788152D02*
X40095239Y-1788152D01*
X40095239Y-1788152D02*
X40190477Y-1835771D01*
X40190477Y-1835771D02*
X40238096Y-1931009D01*
X40238096Y-1931009D02*
X40238096Y-2026247D01*
X40238096Y-2026247D02*
X39761906Y-2121485D01*
X40571430Y-1788152D02*
X40809525Y-2454819D01*
X40809525Y-2454819D02*
X41047620Y-1788152D01*
X42142859Y-1550057D02*
X42190478Y-1502438D01*
X42190478Y-1502438D02*
X42285716Y-1454819D01*
X42285716Y-1454819D02*
X42523811Y-1454819D01*
X42523811Y-1454819D02*
X42619049Y-1502438D01*
X42619049Y-1502438D02*
X42666668Y-1550057D01*
X42666668Y-1550057D02*
X42714287Y-1645295D01*
X42714287Y-1645295D02*
X42714287Y-1740533D01*
X42714287Y-1740533D02*
X42666668Y-1883390D01*
X42666668Y-1883390D02*
X42095240Y-2454819D01*
X42095240Y-2454819D02*
X42714287Y-2454819D01*
X43142859Y-2359580D02*
X43190478Y-2407200D01*
X43190478Y-2407200D02*
X43142859Y-2454819D01*
X43142859Y-2454819D02*
X43095240Y-2407200D01*
X43095240Y-2407200D02*
X43142859Y-2359580D01*
X43142859Y-2359580D02*
X43142859Y-2454819D01*
X43809525Y-1454819D02*
X43904763Y-1454819D01*
X43904763Y-1454819D02*
X44000001Y-1502438D01*
X44000001Y-1502438D02*
X44047620Y-1550057D01*
X44047620Y-1550057D02*
X44095239Y-1645295D01*
X44095239Y-1645295D02*
X44142858Y-1835771D01*
X44142858Y-1835771D02*
X44142858Y-2073866D01*
X44142858Y-2073866D02*
X44095239Y-2264342D01*
X44095239Y-2264342D02*
X44047620Y-2359580D01*
X44047620Y-2359580D02*
X44000001Y-2407200D01*
X44000001Y-2407200D02*
X43904763Y-2454819D01*
X43904763Y-2454819D02*
X43809525Y-2454819D01*
X43809525Y-2454819D02*
X43714287Y-2407200D01*
X43714287Y-2407200D02*
X43666668Y-2359580D01*
X43666668Y-2359580D02*
X43619049Y-2264342D01*
X43619049Y-2264342D02*
X43571430Y-2073866D01*
X43571430Y-2073866D02*
X43571430Y-1835771D01*
X43571430Y-1835771D02*
X43619049Y-1645295D01*
X43619049Y-1645295D02*
X43666668Y-1550057D01*
X43666668Y-1550057D02*
X43714287Y-1502438D01*
X43714287Y-1502438D02*
X43809525Y-1454819D01*
D11*
X26480953Y-43063855D02*
X26633334Y-43063855D01*
X26633334Y-43063855D02*
X26709524Y-43101950D01*
X26709524Y-43101950D02*
X26785715Y-43178140D01*
X26785715Y-43178140D02*
X26823810Y-43330521D01*
X26823810Y-43330521D02*
X26823810Y-43597188D01*
X26823810Y-43597188D02*
X26785715Y-43749569D01*
X26785715Y-43749569D02*
X26709524Y-43825760D01*
X26709524Y-43825760D02*
X26633334Y-43863855D01*
X26633334Y-43863855D02*
X26480953Y-43863855D01*
X26480953Y-43863855D02*
X26404762Y-43825760D01*
X26404762Y-43825760D02*
X26328572Y-43749569D01*
X26328572Y-43749569D02*
X26290476Y-43597188D01*
X26290476Y-43597188D02*
X26290476Y-43330521D01*
X26290476Y-43330521D02*
X26328572Y-43178140D01*
X26328572Y-43178140D02*
X26404762Y-43101950D01*
X26404762Y-43101950D02*
X26480953Y-43063855D01*
X27166667Y-43863855D02*
X27166667Y-43063855D01*
X27166667Y-43063855D02*
X27623810Y-43863855D01*
X27623810Y-43863855D02*
X27623810Y-43063855D01*
X28004762Y-43787664D02*
X28042857Y-43825760D01*
X28042857Y-43825760D02*
X28004762Y-43863855D01*
X28004762Y-43863855D02*
X27966666Y-43825760D01*
X27966666Y-43825760D02*
X28004762Y-43787664D01*
X28004762Y-43787664D02*
X28004762Y-43863855D01*
X28004762Y-43368617D02*
X28042857Y-43406712D01*
X28042857Y-43406712D02*
X28004762Y-43444807D01*
X28004762Y-43444807D02*
X27966666Y-43406712D01*
X27966666Y-43406712D02*
X28004762Y-43368617D01*
X28004762Y-43368617D02*
X28004762Y-43444807D01*
X28538095Y-43063855D02*
X28614285Y-43063855D01*
X28614285Y-43063855D02*
X28690476Y-43101950D01*
X28690476Y-43101950D02*
X28728571Y-43140045D01*
X28728571Y-43140045D02*
X28766666Y-43216236D01*
X28766666Y-43216236D02*
X28804761Y-43368617D01*
X28804761Y-43368617D02*
X28804761Y-43559093D01*
X28804761Y-43559093D02*
X28766666Y-43711474D01*
X28766666Y-43711474D02*
X28728571Y-43787664D01*
X28728571Y-43787664D02*
X28690476Y-43825760D01*
X28690476Y-43825760D02*
X28614285Y-43863855D01*
X28614285Y-43863855D02*
X28538095Y-43863855D01*
X28538095Y-43863855D02*
X28461904Y-43825760D01*
X28461904Y-43825760D02*
X28423809Y-43787664D01*
X28423809Y-43787664D02*
X28385714Y-43711474D01*
X28385714Y-43711474D02*
X28347618Y-43559093D01*
X28347618Y-43559093D02*
X28347618Y-43368617D01*
X28347618Y-43368617D02*
X28385714Y-43216236D01*
X28385714Y-43216236D02*
X28423809Y-43140045D01*
X28423809Y-43140045D02*
X28461904Y-43101950D01*
X28461904Y-43101950D02*
X28538095Y-43063855D01*
X29528571Y-43063855D02*
X29147619Y-43063855D01*
X29147619Y-43063855D02*
X29109523Y-43444807D01*
X29109523Y-43444807D02*
X29147619Y-43406712D01*
X29147619Y-43406712D02*
X29223809Y-43368617D01*
X29223809Y-43368617D02*
X29414285Y-43368617D01*
X29414285Y-43368617D02*
X29490476Y-43406712D01*
X29490476Y-43406712D02*
X29528571Y-43444807D01*
X29528571Y-43444807D02*
X29566666Y-43520998D01*
X29566666Y-43520998D02*
X29566666Y-43711474D01*
X29566666Y-43711474D02*
X29528571Y-43787664D01*
X29528571Y-43787664D02*
X29490476Y-43825760D01*
X29490476Y-43825760D02*
X29414285Y-43863855D01*
X29414285Y-43863855D02*
X29223809Y-43863855D01*
X29223809Y-43863855D02*
X29147619Y-43825760D01*
X29147619Y-43825760D02*
X29109523Y-43787664D01*
X29909524Y-43787664D02*
X29947619Y-43825760D01*
X29947619Y-43825760D02*
X29909524Y-43863855D01*
X29909524Y-43863855D02*
X29871428Y-43825760D01*
X29871428Y-43825760D02*
X29909524Y-43787664D01*
X29909524Y-43787664D02*
X29909524Y-43863855D01*
X29909524Y-43368617D02*
X29947619Y-43406712D01*
X29947619Y-43406712D02*
X29909524Y-43444807D01*
X29909524Y-43444807D02*
X29871428Y-43406712D01*
X29871428Y-43406712D02*
X29909524Y-43368617D01*
X29909524Y-43368617D02*
X29909524Y-43444807D01*
X30214285Y-43063855D02*
X30709523Y-43063855D01*
X30709523Y-43063855D02*
X30442857Y-43368617D01*
X30442857Y-43368617D02*
X30557142Y-43368617D01*
X30557142Y-43368617D02*
X30633333Y-43406712D01*
X30633333Y-43406712D02*
X30671428Y-43444807D01*
X30671428Y-43444807D02*
X30709523Y-43520998D01*
X30709523Y-43520998D02*
X30709523Y-43711474D01*
X30709523Y-43711474D02*
X30671428Y-43787664D01*
X30671428Y-43787664D02*
X30633333Y-43825760D01*
X30633333Y-43825760D02*
X30557142Y-43863855D01*
X30557142Y-43863855D02*
X30328571Y-43863855D01*
X30328571Y-43863855D02*
X30252380Y-43825760D01*
X30252380Y-43825760D02*
X30214285Y-43787664D01*
X31204762Y-43063855D02*
X31280952Y-43063855D01*
X31280952Y-43063855D02*
X31357143Y-43101950D01*
X31357143Y-43101950D02*
X31395238Y-43140045D01*
X31395238Y-43140045D02*
X31433333Y-43216236D01*
X31433333Y-43216236D02*
X31471428Y-43368617D01*
X31471428Y-43368617D02*
X31471428Y-43559093D01*
X31471428Y-43559093D02*
X31433333Y-43711474D01*
X31433333Y-43711474D02*
X31395238Y-43787664D01*
X31395238Y-43787664D02*
X31357143Y-43825760D01*
X31357143Y-43825760D02*
X31280952Y-43863855D01*
X31280952Y-43863855D02*
X31204762Y-43863855D01*
X31204762Y-43863855D02*
X31128571Y-43825760D01*
X31128571Y-43825760D02*
X31090476Y-43787664D01*
X31090476Y-43787664D02*
X31052381Y-43711474D01*
X31052381Y-43711474D02*
X31014285Y-43559093D01*
X31014285Y-43559093D02*
X31014285Y-43368617D01*
X31014285Y-43368617D02*
X31052381Y-43216236D01*
X31052381Y-43216236D02*
X31090476Y-43140045D01*
X31090476Y-43140045D02*
X31128571Y-43101950D01*
X31128571Y-43101950D02*
X31204762Y-43063855D01*
X33185715Y-43063855D02*
X33338096Y-43063855D01*
X33338096Y-43063855D02*
X33414286Y-43101950D01*
X33414286Y-43101950D02*
X33490477Y-43178140D01*
X33490477Y-43178140D02*
X33528572Y-43330521D01*
X33528572Y-43330521D02*
X33528572Y-43597188D01*
X33528572Y-43597188D02*
X33490477Y-43749569D01*
X33490477Y-43749569D02*
X33414286Y-43825760D01*
X33414286Y-43825760D02*
X33338096Y-43863855D01*
X33338096Y-43863855D02*
X33185715Y-43863855D01*
X33185715Y-43863855D02*
X33109524Y-43825760D01*
X33109524Y-43825760D02*
X33033334Y-43749569D01*
X33033334Y-43749569D02*
X32995238Y-43597188D01*
X32995238Y-43597188D02*
X32995238Y-43330521D01*
X32995238Y-43330521D02*
X33033334Y-43178140D01*
X33033334Y-43178140D02*
X33109524Y-43101950D01*
X33109524Y-43101950D02*
X33185715Y-43063855D01*
X34138095Y-43444807D02*
X33871429Y-43444807D01*
X33871429Y-43863855D02*
X33871429Y-43063855D01*
X33871429Y-43063855D02*
X34252381Y-43063855D01*
X34823809Y-43444807D02*
X34557143Y-43444807D01*
X34557143Y-43863855D02*
X34557143Y-43063855D01*
X34557143Y-43063855D02*
X34938095Y-43063855D01*
X35242857Y-43787664D02*
X35280952Y-43825760D01*
X35280952Y-43825760D02*
X35242857Y-43863855D01*
X35242857Y-43863855D02*
X35204761Y-43825760D01*
X35204761Y-43825760D02*
X35242857Y-43787664D01*
X35242857Y-43787664D02*
X35242857Y-43863855D01*
X35242857Y-43368617D02*
X35280952Y-43406712D01*
X35280952Y-43406712D02*
X35242857Y-43444807D01*
X35242857Y-43444807D02*
X35204761Y-43406712D01*
X35204761Y-43406712D02*
X35242857Y-43368617D01*
X35242857Y-43368617D02*
X35242857Y-43444807D01*
X35585713Y-43140045D02*
X35623809Y-43101950D01*
X35623809Y-43101950D02*
X35699999Y-43063855D01*
X35699999Y-43063855D02*
X35890475Y-43063855D01*
X35890475Y-43063855D02*
X35966666Y-43101950D01*
X35966666Y-43101950D02*
X36004761Y-43140045D01*
X36004761Y-43140045D02*
X36042856Y-43216236D01*
X36042856Y-43216236D02*
X36042856Y-43292426D01*
X36042856Y-43292426D02*
X36004761Y-43406712D01*
X36004761Y-43406712D02*
X35547618Y-43863855D01*
X35547618Y-43863855D02*
X36042856Y-43863855D01*
X36309523Y-43063855D02*
X36804761Y-43063855D01*
X36804761Y-43063855D02*
X36538095Y-43368617D01*
X36538095Y-43368617D02*
X36652380Y-43368617D01*
X36652380Y-43368617D02*
X36728571Y-43406712D01*
X36728571Y-43406712D02*
X36766666Y-43444807D01*
X36766666Y-43444807D02*
X36804761Y-43520998D01*
X36804761Y-43520998D02*
X36804761Y-43711474D01*
X36804761Y-43711474D02*
X36766666Y-43787664D01*
X36766666Y-43787664D02*
X36728571Y-43825760D01*
X36728571Y-43825760D02*
X36652380Y-43863855D01*
X36652380Y-43863855D02*
X36423809Y-43863855D01*
X36423809Y-43863855D02*
X36347618Y-43825760D01*
X36347618Y-43825760D02*
X36309523Y-43787664D01*
X37147619Y-43787664D02*
X37185714Y-43825760D01*
X37185714Y-43825760D02*
X37147619Y-43863855D01*
X37147619Y-43863855D02*
X37109523Y-43825760D01*
X37109523Y-43825760D02*
X37147619Y-43787664D01*
X37147619Y-43787664D02*
X37147619Y-43863855D01*
X37147619Y-43368617D02*
X37185714Y-43406712D01*
X37185714Y-43406712D02*
X37147619Y-43444807D01*
X37147619Y-43444807D02*
X37109523Y-43406712D01*
X37109523Y-43406712D02*
X37147619Y-43368617D01*
X37147619Y-43368617D02*
X37147619Y-43444807D01*
X37452380Y-43063855D02*
X37947618Y-43063855D01*
X37947618Y-43063855D02*
X37680952Y-43368617D01*
X37680952Y-43368617D02*
X37795237Y-43368617D01*
X37795237Y-43368617D02*
X37871428Y-43406712D01*
X37871428Y-43406712D02*
X37909523Y-43444807D01*
X37909523Y-43444807D02*
X37947618Y-43520998D01*
X37947618Y-43520998D02*
X37947618Y-43711474D01*
X37947618Y-43711474D02*
X37909523Y-43787664D01*
X37909523Y-43787664D02*
X37871428Y-43825760D01*
X37871428Y-43825760D02*
X37795237Y-43863855D01*
X37795237Y-43863855D02*
X37566666Y-43863855D01*
X37566666Y-43863855D02*
X37490475Y-43825760D01*
X37490475Y-43825760D02*
X37452380Y-43787664D01*
X38442857Y-43063855D02*
X38519047Y-43063855D01*
X38519047Y-43063855D02*
X38595238Y-43101950D01*
X38595238Y-43101950D02*
X38633333Y-43140045D01*
X38633333Y-43140045D02*
X38671428Y-43216236D01*
X38671428Y-43216236D02*
X38709523Y-43368617D01*
X38709523Y-43368617D02*
X38709523Y-43559093D01*
X38709523Y-43559093D02*
X38671428Y-43711474D01*
X38671428Y-43711474D02*
X38633333Y-43787664D01*
X38633333Y-43787664D02*
X38595238Y-43825760D01*
X38595238Y-43825760D02*
X38519047Y-43863855D01*
X38519047Y-43863855D02*
X38442857Y-43863855D01*
X38442857Y-43863855D02*
X38366666Y-43825760D01*
X38366666Y-43825760D02*
X38328571Y-43787664D01*
X38328571Y-43787664D02*
X38290476Y-43711474D01*
X38290476Y-43711474D02*
X38252380Y-43559093D01*
X38252380Y-43559093D02*
X38252380Y-43368617D01*
X38252380Y-43368617D02*
X38290476Y-43216236D01*
X38290476Y-43216236D02*
X38328571Y-43140045D01*
X38328571Y-43140045D02*
X38366666Y-43101950D01*
X38366666Y-43101950D02*
X38442857Y-43063855D01*
X2009524Y-36363855D02*
X2161905Y-36363855D01*
X2161905Y-36363855D02*
X2238095Y-36325760D01*
X2238095Y-36325760D02*
X2276191Y-36287664D01*
X2276191Y-36287664D02*
X2352381Y-36173379D01*
X2352381Y-36173379D02*
X2390476Y-36020998D01*
X2390476Y-36020998D02*
X2390476Y-35716236D01*
X2390476Y-35716236D02*
X2352381Y-35640045D01*
X2352381Y-35640045D02*
X2314286Y-35601950D01*
X2314286Y-35601950D02*
X2238095Y-35563855D01*
X2238095Y-35563855D02*
X2085714Y-35563855D01*
X2085714Y-35563855D02*
X2009524Y-35601950D01*
X2009524Y-35601950D02*
X1971429Y-35640045D01*
X1971429Y-35640045D02*
X1933333Y-35716236D01*
X1933333Y-35716236D02*
X1933333Y-35906712D01*
X1933333Y-35906712D02*
X1971429Y-35982902D01*
X1971429Y-35982902D02*
X2009524Y-36020998D01*
X2009524Y-36020998D02*
X2085714Y-36059093D01*
X2085714Y-36059093D02*
X2238095Y-36059093D01*
X2238095Y-36059093D02*
X2314286Y-36020998D01*
X2314286Y-36020998D02*
X2352381Y-35982902D01*
X2352381Y-35982902D02*
X2390476Y-35906712D01*
X2619048Y-35563855D02*
X2885715Y-36363855D01*
X2885715Y-36363855D02*
X3152381Y-35563855D01*
X3419048Y-36059093D02*
X4028572Y-36059093D01*
X3723810Y-36363855D02*
X3723810Y-35754331D01*
X55533333Y-36325760D02*
X55647619Y-36363855D01*
X55647619Y-36363855D02*
X55838095Y-36363855D01*
X55838095Y-36363855D02*
X55914286Y-36325760D01*
X55914286Y-36325760D02*
X55952381Y-36287664D01*
X55952381Y-36287664D02*
X55990476Y-36211474D01*
X55990476Y-36211474D02*
X55990476Y-36135283D01*
X55990476Y-36135283D02*
X55952381Y-36059093D01*
X55952381Y-36059093D02*
X55914286Y-36020998D01*
X55914286Y-36020998D02*
X55838095Y-35982902D01*
X55838095Y-35982902D02*
X55685714Y-35944807D01*
X55685714Y-35944807D02*
X55609524Y-35906712D01*
X55609524Y-35906712D02*
X55571429Y-35868617D01*
X55571429Y-35868617D02*
X55533333Y-35792426D01*
X55533333Y-35792426D02*
X55533333Y-35716236D01*
X55533333Y-35716236D02*
X55571429Y-35640045D01*
X55571429Y-35640045D02*
X55609524Y-35601950D01*
X55609524Y-35601950D02*
X55685714Y-35563855D01*
X55685714Y-35563855D02*
X55876191Y-35563855D01*
X55876191Y-35563855D02*
X55990476Y-35601950D01*
X56485715Y-35563855D02*
X56638096Y-35563855D01*
X56638096Y-35563855D02*
X56714286Y-35601950D01*
X56714286Y-35601950D02*
X56790477Y-35678140D01*
X56790477Y-35678140D02*
X56828572Y-35830521D01*
X56828572Y-35830521D02*
X56828572Y-36097188D01*
X56828572Y-36097188D02*
X56790477Y-36249569D01*
X56790477Y-36249569D02*
X56714286Y-36325760D01*
X56714286Y-36325760D02*
X56638096Y-36363855D01*
X56638096Y-36363855D02*
X56485715Y-36363855D01*
X56485715Y-36363855D02*
X56409524Y-36325760D01*
X56409524Y-36325760D02*
X56333334Y-36249569D01*
X56333334Y-36249569D02*
X56295238Y-36097188D01*
X56295238Y-36097188D02*
X56295238Y-35830521D01*
X56295238Y-35830521D02*
X56333334Y-35678140D01*
X56333334Y-35678140D02*
X56409524Y-35601950D01*
X56409524Y-35601950D02*
X56485715Y-35563855D01*
X57552381Y-36363855D02*
X57171429Y-36363855D01*
X57171429Y-36363855D02*
X57171429Y-35563855D01*
X57819048Y-36059093D02*
X58428572Y-36059093D01*
X58123810Y-36363855D02*
X58123810Y-35754331D01*
X24371429Y-42563855D02*
X24371429Y-43211474D01*
X24371429Y-43211474D02*
X24409524Y-43287664D01*
X24409524Y-43287664D02*
X24447619Y-43325760D01*
X24447619Y-43325760D02*
X24523810Y-43363855D01*
X24523810Y-43363855D02*
X24676191Y-43363855D01*
X24676191Y-43363855D02*
X24752381Y-43325760D01*
X24752381Y-43325760D02*
X24790476Y-43287664D01*
X24790476Y-43287664D02*
X24828572Y-43211474D01*
X24828572Y-43211474D02*
X24828572Y-42563855D01*
X25209524Y-43363855D02*
X25209524Y-42563855D01*
X25209524Y-42563855D02*
X25514286Y-42563855D01*
X25514286Y-42563855D02*
X25590476Y-42601950D01*
X25590476Y-42601950D02*
X25628571Y-42640045D01*
X25628571Y-42640045D02*
X25666667Y-42716236D01*
X25666667Y-42716236D02*
X25666667Y-42830521D01*
X25666667Y-42830521D02*
X25628571Y-42906712D01*
X25628571Y-42906712D02*
X25590476Y-42944807D01*
X25590476Y-42944807D02*
X25514286Y-42982902D01*
X25514286Y-42982902D02*
X25209524Y-42982902D01*
X37104761Y-43325760D02*
X37219047Y-43363855D01*
X37219047Y-43363855D02*
X37409523Y-43363855D01*
X37409523Y-43363855D02*
X37485714Y-43325760D01*
X37485714Y-43325760D02*
X37523809Y-43287664D01*
X37523809Y-43287664D02*
X37561904Y-43211474D01*
X37561904Y-43211474D02*
X37561904Y-43135283D01*
X37561904Y-43135283D02*
X37523809Y-43059093D01*
X37523809Y-43059093D02*
X37485714Y-43020998D01*
X37485714Y-43020998D02*
X37409523Y-42982902D01*
X37409523Y-42982902D02*
X37257142Y-42944807D01*
X37257142Y-42944807D02*
X37180952Y-42906712D01*
X37180952Y-42906712D02*
X37142857Y-42868617D01*
X37142857Y-42868617D02*
X37104761Y-42792426D01*
X37104761Y-42792426D02*
X37104761Y-42716236D01*
X37104761Y-42716236D02*
X37142857Y-42640045D01*
X37142857Y-42640045D02*
X37180952Y-42601950D01*
X37180952Y-42601950D02*
X37257142Y-42563855D01*
X37257142Y-42563855D02*
X37447619Y-42563855D01*
X37447619Y-42563855D02*
X37561904Y-42601950D01*
X37904762Y-42944807D02*
X38171428Y-42944807D01*
X38285714Y-43363855D02*
X37904762Y-43363855D01*
X37904762Y-43363855D02*
X37904762Y-42563855D01*
X37904762Y-42563855D02*
X38285714Y-42563855D01*
X38514286Y-42563855D02*
X38971429Y-42563855D01*
X38742857Y-43363855D02*
X38742857Y-42563855D01*
X29809524Y-8363855D02*
X29809524Y-7563855D01*
X29809524Y-7563855D02*
X30000000Y-7563855D01*
X30000000Y-7563855D02*
X30114286Y-7601950D01*
X30114286Y-7601950D02*
X30190476Y-7678140D01*
X30190476Y-7678140D02*
X30228571Y-7754331D01*
X30228571Y-7754331D02*
X30266667Y-7906712D01*
X30266667Y-7906712D02*
X30266667Y-8020998D01*
X30266667Y-8020998D02*
X30228571Y-8173379D01*
X30228571Y-8173379D02*
X30190476Y-8249569D01*
X30190476Y-8249569D02*
X30114286Y-8325760D01*
X30114286Y-8325760D02*
X30000000Y-8363855D01*
X30000000Y-8363855D02*
X29809524Y-8363855D01*
X30609524Y-8363855D02*
X30609524Y-7563855D01*
X30952380Y-8325760D02*
X31066666Y-8363855D01*
X31066666Y-8363855D02*
X31257142Y-8363855D01*
X31257142Y-8363855D02*
X31333333Y-8325760D01*
X31333333Y-8325760D02*
X31371428Y-8287664D01*
X31371428Y-8287664D02*
X31409523Y-8211474D01*
X31409523Y-8211474D02*
X31409523Y-8135283D01*
X31409523Y-8135283D02*
X31371428Y-8059093D01*
X31371428Y-8059093D02*
X31333333Y-8020998D01*
X31333333Y-8020998D02*
X31257142Y-7982902D01*
X31257142Y-7982902D02*
X31104761Y-7944807D01*
X31104761Y-7944807D02*
X31028571Y-7906712D01*
X31028571Y-7906712D02*
X30990476Y-7868617D01*
X30990476Y-7868617D02*
X30952380Y-7792426D01*
X30952380Y-7792426D02*
X30952380Y-7716236D01*
X30952380Y-7716236D02*
X30990476Y-7640045D01*
X30990476Y-7640045D02*
X31028571Y-7601950D01*
X31028571Y-7601950D02*
X31104761Y-7563855D01*
X31104761Y-7563855D02*
X31295238Y-7563855D01*
X31295238Y-7563855D02*
X31409523Y-7601950D01*
X31752381Y-8363855D02*
X31752381Y-7563855D01*
X31752381Y-7563855D02*
X32057143Y-7563855D01*
X32057143Y-7563855D02*
X32133333Y-7601950D01*
X32133333Y-7601950D02*
X32171428Y-7640045D01*
X32171428Y-7640045D02*
X32209524Y-7716236D01*
X32209524Y-7716236D02*
X32209524Y-7830521D01*
X32209524Y-7830521D02*
X32171428Y-7906712D01*
X32171428Y-7906712D02*
X32133333Y-7944807D01*
X32133333Y-7944807D02*
X32057143Y-7982902D01*
X32057143Y-7982902D02*
X31752381Y-7982902D01*
X32933333Y-8363855D02*
X32552381Y-8363855D01*
X32552381Y-8363855D02*
X32552381Y-7563855D01*
X33161904Y-8135283D02*
X33542857Y-8135283D01*
X33085714Y-8363855D02*
X33352381Y-7563855D01*
X33352381Y-7563855D02*
X33619047Y-8363855D01*
X34038095Y-7982902D02*
X34038095Y-8363855D01*
X33771428Y-7563855D02*
X34038095Y-7982902D01*
X34038095Y-7982902D02*
X34304761Y-7563855D01*
X6819048Y-20363855D02*
X6819048Y-19563855D01*
X7657143Y-20287664D02*
X7619047Y-20325760D01*
X7619047Y-20325760D02*
X7504762Y-20363855D01*
X7504762Y-20363855D02*
X7428571Y-20363855D01*
X7428571Y-20363855D02*
X7314285Y-20325760D01*
X7314285Y-20325760D02*
X7238095Y-20249569D01*
X7238095Y-20249569D02*
X7200000Y-20173379D01*
X7200000Y-20173379D02*
X7161904Y-20020998D01*
X7161904Y-20020998D02*
X7161904Y-19906712D01*
X7161904Y-19906712D02*
X7200000Y-19754331D01*
X7200000Y-19754331D02*
X7238095Y-19678140D01*
X7238095Y-19678140D02*
X7314285Y-19601950D01*
X7314285Y-19601950D02*
X7428571Y-19563855D01*
X7428571Y-19563855D02*
X7504762Y-19563855D01*
X7504762Y-19563855D02*
X7619047Y-19601950D01*
X7619047Y-19601950D02*
X7657143Y-19640045D01*
X7961904Y-20325760D02*
X8076190Y-20363855D01*
X8076190Y-20363855D02*
X8266666Y-20363855D01*
X8266666Y-20363855D02*
X8342857Y-20325760D01*
X8342857Y-20325760D02*
X8380952Y-20287664D01*
X8380952Y-20287664D02*
X8419047Y-20211474D01*
X8419047Y-20211474D02*
X8419047Y-20135283D01*
X8419047Y-20135283D02*
X8380952Y-20059093D01*
X8380952Y-20059093D02*
X8342857Y-20020998D01*
X8342857Y-20020998D02*
X8266666Y-19982902D01*
X8266666Y-19982902D02*
X8114285Y-19944807D01*
X8114285Y-19944807D02*
X8038095Y-19906712D01*
X8038095Y-19906712D02*
X8000000Y-19868617D01*
X8000000Y-19868617D02*
X7961904Y-19792426D01*
X7961904Y-19792426D02*
X7961904Y-19716236D01*
X7961904Y-19716236D02*
X8000000Y-19640045D01*
X8000000Y-19640045D02*
X8038095Y-19601950D01*
X8038095Y-19601950D02*
X8114285Y-19563855D01*
X8114285Y-19563855D02*
X8304762Y-19563855D01*
X8304762Y-19563855D02*
X8419047Y-19601950D01*
X8761905Y-20363855D02*
X8761905Y-19563855D01*
X8761905Y-19563855D02*
X9066667Y-19563855D01*
X9066667Y-19563855D02*
X9142857Y-19601950D01*
X9142857Y-19601950D02*
X9180952Y-19640045D01*
X9180952Y-19640045D02*
X9219048Y-19716236D01*
X9219048Y-19716236D02*
X9219048Y-19830521D01*
X9219048Y-19830521D02*
X9180952Y-19906712D01*
X9180952Y-19906712D02*
X9142857Y-19944807D01*
X9142857Y-19944807D02*
X9066667Y-19982902D01*
X9066667Y-19982902D02*
X8761905Y-19982902D01*
%LPC*%
D12*
%TO.C,H1*%
X3000000Y-3000000D03*
%TD*%
%TO.C,H2*%
X62000000Y-3000000D03*
%TD*%
%TO.C,H3*%
X3000000Y-42000000D03*
%TD*%
%TO.C,H4*%
X62000000Y-42000000D03*
%TD*%
D13*
%TO.C,U1*%
X18190000Y-18920000D03*
D14*
X18190000Y-21460000D03*
X18190000Y-24000000D03*
X18190000Y-26540000D03*
X25810000Y-26540000D03*
X25810000Y-24000000D03*
X25810000Y-21460000D03*
X25810000Y-18920000D03*
%TD*%
D15*
%TO.C,U2*%
X45100000Y-15110000D03*
X45100000Y-16380000D03*
X45100000Y-17650000D03*
X45100000Y-18920000D03*
X45100000Y-20190000D03*
X45100000Y-21460000D03*
X45100000Y-22730000D03*
X45100000Y-24000000D03*
X54900000Y-24000000D03*
X54900000Y-22730000D03*
X54900000Y-21460000D03*
X54900000Y-20190000D03*
X54900000Y-18920000D03*
X54900000Y-17650000D03*
X54900000Y-16380000D03*
X54900000Y-15110000D03*
%TD*%
D16*
%TO.C,U3*%
X5700000Y-10300000D03*
D17*
X8000000Y-10300000D03*
D16*
X10300000Y-10300000D03*
D18*
X8000000Y-6500000D03*
%TD*%
D13*
%TO.C,Q1*%
X55460000Y-35000000D03*
D14*
X58000000Y-35000000D03*
X60540000Y-35000000D03*
%TD*%
%TO.C,D1*%
X2920000Y-22000000D03*
X13080000Y-22000000D03*
%TD*%
%TO.C,D2*%
X32920000Y-35000000D03*
X43080000Y-35000000D03*
%TD*%
%TO.C,D3*%
X52920000Y-12000000D03*
X63080000Y-12000000D03*
%TD*%
%TO.C,SW1*%
X21830000Y-36830000D03*
X28170000Y-43170000D03*
%TD*%
%TO.C,SW2*%
X34830000Y-36830000D03*
X41170000Y-43170000D03*
%TD*%
D19*
%TO.C,J1*%
X2460000Y-38000000D03*
D20*
X7540000Y-38000000D03*
%TD*%
D19*
%TO.C,J2*%
X57460000Y-38000000D03*
D20*
X62540000Y-38000000D03*
%TD*%
D13*
%TO.C,J3*%
X5460000Y-11460000D03*
D14*
X8000000Y-11460000D03*
X5460000Y-14000000D03*
X8000000Y-14000000D03*
X5460000Y-16540000D03*
X8000000Y-16540000D03*
%TD*%
D13*
%TO.C,J4*%
X28190000Y-5000000D03*
D14*
X30730000Y-5000000D03*
X33270000Y-5000000D03*
X35810000Y-5000000D03*
%TD*%
D21*
%TO.C,R1*%
X28875000Y-14000000D03*
X31125000Y-14000000D03*
%TD*%
%TO.C,R2*%
X18875000Y-35000000D03*
X21125000Y-35000000D03*
%TD*%
%TO.C,R3*%
X31875000Y-35000000D03*
X34125000Y-35000000D03*
%TD*%
%TO.C,R4*%
X46875000Y-35000000D03*
X49125000Y-35000000D03*
%TD*%
%TO.C,R5*%
X40875000Y-14000000D03*
X43125000Y-14000000D03*
%TD*%
%TO.C,R6*%
X40875000Y-18000000D03*
X43125000Y-18000000D03*
%TD*%
%TO.C,R7*%
X44875000Y-14000000D03*
X47125000Y-14000000D03*
%TD*%
%TO.C,C2*%
X20875000Y-14000000D03*
X23125000Y-14000000D03*
%TD*%
%TO.C,C3*%
X48875000Y-14000000D03*
X51125000Y-14000000D03*
%TD*%
D22*
%TO.C,C1*%
X56750000Y-24000000D03*
X59250000Y-24000000D03*
%TD*%
D23*
%TO.C,F1*%
X5440000Y-5000000D03*
X10560000Y-5000000D03*
%TD*%
%LPD*%
M02*
