%TF.GenerationSoftware,KiCad,Pcbnew,10.0.3*%
%TF.CreationDate,2026-06-08T22:33:09-05:00*%
%TF.ProjectId,co2_timer_v2_clean,636f325f-7469-46d6-9572-5f76325f636c,2.0*%
%TF.SameCoordinates,Original*%
%TF.FileFunction,Soldermask,Top*%
%TF.FilePolarity,Negative*%
%FSLAX46Y46*%
G04 Gerber Fmt 4.6, Leading zero omitted, Abs format (unit mm)*
G04 Created by KiCad (PCBNEW 10.0.3) date 2026-06-08 22:33:09*
%MOMM*%
%LPD*%
G01*
G04 APERTURE LIST*
G04 Aperture macros list*
%AMRoundRect*
0 Rectangle with rounded corners*
0 $1 Rounding radius*
0 $2 $3 $4 $5 $6 $7 $8 $9 X,Y pos of 4 corners*
0 Add a 4 corners polygon primitive as box body*
4,1,4,$2,$3,$4,$5,$6,$7,$8,$9,$2,$3,0*
0 Add four circle primitives for the rounded corners*
1,1,$1+$1,$2,$3*
1,1,$1+$1,$4,$5*
1,1,$1+$1,$6,$7*
1,1,$1+$1,$8,$9*
0 Add four rect primitives between the rounded corners*
20,1,$1+$1,$2,$3,$4,$5,0*
20,1,$1+$1,$4,$5,$6,$7,0*
20,1,$1+$1,$6,$7,$8,$9,0*
20,1,$1+$1,$8,$9,$2,$3,0*%
G04 Aperture macros list end*
%ADD10C,3.400000*%
%ADD11RoundRect,0.100000X-0.800000X-0.800000X0.800000X-0.800000X0.800000X0.800000X-0.800000X0.800000X0*%
%ADD12C,1.800000*%
%ADD13RoundRect,0.100000X-0.635000X-0.900000X0.635000X-0.900000X0.635000X0.900000X-0.635000X0.900000X0*%
%ADD14RoundRect,0.100000X-0.750000X-1.000000X0.750000X-1.000000X0.750000X1.000000X-0.750000X1.000000X0*%
%ADD15RoundRect,0.100000X-1.500000X-1.000000X1.500000X-1.000000X1.500000X1.000000X-1.500000X1.000000X0*%
%ADD16RoundRect,0.100000X-1.700000X-0.800000X1.700000X-0.800000X1.700000X0.800000X-1.700000X0.800000X0*%
%ADD17RoundRect,0.100000X-0.900000X-0.900000X0.900000X-0.900000X0.900000X0.900000X-0.900000X0.900000X0*%
%ADD18C,2.000000*%
%ADD19RoundRect,0.100000X-0.700000X-0.825000X0.700000X-0.825000X0.700000X0.825000X-0.700000X0.825000X0*%
%ADD20C,2.200000*%
%ADD21RoundRect,0.100000X-1.000000X-1.700000X1.000000X-1.700000X1.000000X1.700000X-1.000000X1.700000X0*%
G04 APERTURE END LIST*
D10*
%TO.C,H1*%
X3000000Y-3000000D03*
%TD*%
%TO.C,H2*%
X62000000Y-3000000D03*
%TD*%
%TO.C,H3*%
X3000000Y-42000000D03*
%TD*%
%TO.C,H4*%
X62000000Y-42000000D03*
%TD*%
D11*
%TO.C,U1*%
X18190000Y-18920000D03*
D12*
X18190000Y-21460000D03*
X18190000Y-24000000D03*
X18190000Y-26540000D03*
X25810000Y-26540000D03*
X25810000Y-24000000D03*
X25810000Y-21460000D03*
X25810000Y-18920000D03*
%TD*%
D13*
%TO.C,U2*%
X45100000Y-15110000D03*
X45100000Y-16380000D03*
X45100000Y-17650000D03*
X45100000Y-18920000D03*
X45100000Y-20190000D03*
X45100000Y-21460000D03*
X45100000Y-22730000D03*
X45100000Y-24000000D03*
X54900000Y-24000000D03*
X54900000Y-22730000D03*
X54900000Y-21460000D03*
X54900000Y-20190000D03*
X54900000Y-18920000D03*
X54900000Y-17650000D03*
X54900000Y-16380000D03*
X54900000Y-15110000D03*
%TD*%
D14*
%TO.C,U3*%
X5700000Y-10300000D03*
D15*
X8000000Y-10300000D03*
D14*
X10300000Y-10300000D03*
D16*
X8000000Y-6500000D03*
%TD*%
D11*
%TO.C,Q1*%
X55460000Y-35000000D03*
D12*
X58000000Y-35000000D03*
X60540000Y-35000000D03*
%TD*%
%TO.C,D1*%
X2920000Y-22000000D03*
X13080000Y-22000000D03*
%TD*%
%TO.C,D2*%
X32920000Y-35000000D03*
X43080000Y-35000000D03*
%TD*%
%TO.C,D3*%
X52920000Y-12000000D03*
X63080000Y-12000000D03*
%TD*%
%TO.C,SW1*%
X21830000Y-36830000D03*
X28170000Y-43170000D03*
%TD*%
%TO.C,SW2*%
X34830000Y-36830000D03*
X41170000Y-43170000D03*
%TD*%
D17*
%TO.C,J1*%
X2460000Y-38000000D03*
D18*
X7540000Y-38000000D03*
%TD*%
D17*
%TO.C,J2*%
X57460000Y-38000000D03*
D18*
X62540000Y-38000000D03*
%TD*%
D11*
%TO.C,J3*%
X5460000Y-11460000D03*
D12*
X8000000Y-11460000D03*
X5460000Y-14000000D03*
X8000000Y-14000000D03*
X5460000Y-16540000D03*
X8000000Y-16540000D03*
%TD*%
D11*
%TO.C,J4*%
X28190000Y-5000000D03*
D12*
X30730000Y-5000000D03*
X33270000Y-5000000D03*
X35810000Y-5000000D03*
%TD*%
D19*
%TO.C,R1*%
X28875000Y-14000000D03*
X31125000Y-14000000D03*
%TD*%
%TO.C,R2*%
X18875000Y-35000000D03*
X21125000Y-35000000D03*
%TD*%
%TO.C,R3*%
X31875000Y-35000000D03*
X34125000Y-35000000D03*
%TD*%
%TO.C,R4*%
X46875000Y-35000000D03*
X49125000Y-35000000D03*
%TD*%
%TO.C,R5*%
X40875000Y-14000000D03*
X43125000Y-14000000D03*
%TD*%
%TO.C,R6*%
X40875000Y-18000000D03*
X43125000Y-18000000D03*
%TD*%
%TO.C,C2*%
X20875000Y-14000000D03*
X23125000Y-14000000D03*
%TD*%
%TO.C,C3*%
X48875000Y-14000000D03*
X51125000Y-14000000D03*
%TD*%
D20*
%TO.C,C1*%
X56750000Y-24000000D03*
X59250000Y-24000000D03*
%TD*%
D21*
%TO.C,F1*%
X5440000Y-5000000D03*
X10560000Y-5000000D03*
%TD*%
M02*
