%TF.GenerationSoftware,KiCad,Pcbnew,10.0.3*%
%TF.CreationDate,2026-06-08T17:09:50-05:00*%
%TF.ProjectId,co2_timer,636f325f-7469-46d6-9572-2e6b69636164,1.0*%
%TF.SameCoordinates,Original*%
%TF.FileFunction,Soldermask,Top*%
%TF.FilePolarity,Negative*%
%FSLAX46Y46*%
G04 Gerber Fmt 4.6, Leading zero omitted, Abs format (unit mm)*
G04 Created by KiCad (PCBNEW 10.0.3) date 2026-06-08 17:09:50*
%MOMM*%
%LPD*%
G01*
G04 APERTURE LIST*
G04 Aperture macros list*
%AMRoundRect*
0 Rectangle with rounded corners*
0 $1 Rounding radius*
0 $2 $3 $4 $5 $6 $7 $8 $9 X,Y pos of 4 corners*
0 Add a 4 corners polygon primitive as box body*
4,1,4,$2,$3,$4,$5,$6,$7,$8,$9,$2,$3,0*
0 Add four circle primitives for the rounded corners*
1,1,$1+$1,$2,$3*
1,1,$1+$1,$4,$5*
1,1,$1+$1,$6,$7*
1,1,$1+$1,$8,$9*
0 Add four rect primitives between the rounded corners*
20,1,$1+$1,$2,$3,$4,$5,0*
20,1,$1+$1,$4,$5,$6,$7,0*
20,1,$1+$1,$6,$7,$8,$9,0*
20,1,$1+$1,$8,$9,$2,$3,0*%
G04 Aperture macros list end*
%ADD10C,3.400000*%
%ADD11RoundRect,0.100000X-0.800000X-0.800000X0.800000X-0.800000X0.800000X0.800000X-0.800000X0.800000X0*%
%ADD12C,1.800000*%
%ADD13C,2.200000*%
%ADD14RoundRect,0.100000X-0.900000X-0.900000X0.900000X-0.900000X0.900000X0.900000X-0.900000X0.900000X0*%
%ADD15C,2.000000*%
%ADD16RoundRect,0.100000X-0.700000X-0.825000X0.700000X-0.825000X0.700000X0.825000X-0.700000X0.825000X0*%
%ADD17RoundRect,0.100000X-1.000000X-1.700000X1.000000X-1.700000X1.000000X1.700000X-1.000000X1.700000X0*%
G04 APERTURE END LIST*
D10*
%TO.C,H1*%
X3000000Y-3000000D03*
%TD*%
%TO.C,H2*%
X57000000Y-3000000D03*
%TD*%
%TO.C,H3*%
X3000000Y-37000000D03*
%TD*%
%TO.C,H4*%
X57000000Y-37000000D03*
%TD*%
D11*
%TO.C,U1*%
X26190000Y-14920000D03*
D12*
X26190000Y-17460000D03*
X26190000Y-20000000D03*
X26190000Y-22540000D03*
X33810000Y-22540000D03*
X33810000Y-20000000D03*
X33810000Y-17460000D03*
X33810000Y-14920000D03*
%TD*%
D11*
%TO.C,Q1*%
X49460000Y-32000000D03*
D12*
X52000000Y-32000000D03*
X54540000Y-32000000D03*
%TD*%
%TO.C,D1*%
X2920000Y-25000000D03*
X13080000Y-25000000D03*
%TD*%
%TO.C,D2*%
X46920000Y-10000000D03*
X57080000Y-10000000D03*
%TD*%
%TO.C,LED1*%
X18730000Y-5000000D03*
X21270000Y-5000000D03*
%TD*%
%TO.C,LED2*%
X26730000Y-5000000D03*
X29270000Y-5000000D03*
%TD*%
%TO.C,SW1*%
X26830000Y-31830000D03*
X33170000Y-38170000D03*
%TD*%
D13*
%TO.C,BT1*%
X9920000Y-30000000D03*
X20080000Y-30000000D03*
%TD*%
D14*
%TO.C,J1*%
X2460000Y-35000000D03*
D15*
X7540000Y-35000000D03*
%TD*%
D14*
%TO.C,J2*%
X52460000Y-35000000D03*
D15*
X57540000Y-35000000D03*
%TD*%
D11*
%TO.C,J3*%
X5460000Y-12460000D03*
D12*
X8000000Y-12460000D03*
X5460000Y-15000000D03*
X8000000Y-15000000D03*
X5460000Y-17540000D03*
X8000000Y-17540000D03*
%TD*%
D16*
%TO.C,R1*%
X33875000Y-13000000D03*
X36125000Y-13000000D03*
%TD*%
%TO.C,R5*%
X40875000Y-13000000D03*
X43125000Y-13000000D03*
%TD*%
%TO.C,R7*%
X40875000Y-17000000D03*
X43125000Y-17000000D03*
%TD*%
%TO.C,R3*%
X20875000Y-10000000D03*
X23125000Y-10000000D03*
%TD*%
%TO.C,R4*%
X28875000Y-10000000D03*
X31125000Y-10000000D03*
%TD*%
%TO.C,R6*%
X44875000Y-28000000D03*
X47125000Y-28000000D03*
%TD*%
%TO.C,C2*%
X20875000Y-20000000D03*
X23125000Y-20000000D03*
%TD*%
%TO.C,C3*%
X42875000Y-20000000D03*
X45125000Y-20000000D03*
%TD*%
D17*
%TO.C,F1*%
X5440000Y-5000000D03*
X10560000Y-5000000D03*
%TD*%
M02*
