%TF.GenerationSoftware,KiCad,Pcbnew,10.0.3*%
%TF.CreationDate,2026-06-08T17:09:50-05:00*%
%TF.ProjectId,co2_timer,636f325f-7469-46d6-9572-2e6b69636164,1.0*%
%TF.SameCoordinates,Original*%
%TF.FileFunction,Legend,Top*%
%TF.FilePolarity,Positive*%
%FSLAX46Y46*%
G04 Gerber Fmt 4.6, Leading zero omitted, Abs format (unit mm)*
G04 Created by KiCad (PCBNEW 10.0.3) date 2026-06-08 17:09:50*
%MOMM*%
%LPD*%
G01*
G04 APERTURE LIST*
G04 Aperture macros list*
%AMRoundRect*
0 Rectangle with rounded corners*
0 $1 Rounding radius*
0 $2 $3 $4 $5 $6 $7 $8 $9 X,Y pos of 4 corners*
0 Add a 4 corners polygon primitive as box body*
4,1,4,$2,$3,$4,$5,$6,$7,$8,$9,$2,$3,0*
0 Add four circle primitives for the rounded corners*
1,1,$1+$1,$2,$3*
1,1,$1+$1,$4,$5*
1,1,$1+$1,$6,$7*
1,1,$1+$1,$8,$9*
0 Add four rect primitives between the rounded corners*
20,1,$1+$1,$2,$3,$4,$5,0*
20,1,$1+$1,$4,$5,$6,$7,0*
20,1,$1+$1,$6,$7,$8,$9,0*
20,1,$1+$1,$8,$9,$2,$3,0*%
G04 Aperture macros list end*
%ADD10C,0.150000*%
%ADD11C,0.120000*%
%ADD12C,3.400000*%
%ADD13RoundRect,0.100000X-0.800000X-0.800000X0.800000X-0.800000X0.800000X0.800000X-0.800000X0.800000X0*%
%ADD14C,1.800000*%
%ADD15C,2.200000*%
%ADD16RoundRect,0.100000X-0.900000X-0.900000X0.900000X-0.900000X0.900000X0.900000X-0.900000X0.900000X0*%
%ADD17C,2.000000*%
%ADD18RoundRect,0.100000X-0.700000X-0.825000X0.700000X-0.825000X0.700000X0.825000X-0.700000X0.825000X0*%
%ADD19RoundRect,0.100000X-1.000000X-1.700000X1.000000X-1.700000X1.000000X1.700000X-1.000000X1.700000X0*%
G04 APERTURE END LIST*
D10*
X20628572Y-1404485D02*
X20514287Y-1347342D01*
X20514287Y-1347342D02*
X20342858Y-1347342D01*
X20342858Y-1347342D02*
X20171429Y-1404485D01*
X20171429Y-1404485D02*
X20057144Y-1518771D01*
X20057144Y-1518771D02*
X20000001Y-1633057D01*
X20000001Y-1633057D02*
X19942858Y-1861628D01*
X19942858Y-1861628D02*
X19942858Y-2033057D01*
X19942858Y-2033057D02*
X20000001Y-2261628D01*
X20000001Y-2261628D02*
X20057144Y-2375914D01*
X20057144Y-2375914D02*
X20171429Y-2490200D01*
X20171429Y-2490200D02*
X20342858Y-2547342D01*
X20342858Y-2547342D02*
X20457144Y-2547342D01*
X20457144Y-2547342D02*
X20628572Y-2490200D01*
X20628572Y-2490200D02*
X20685715Y-2433057D01*
X20685715Y-2433057D02*
X20685715Y-2033057D01*
X20685715Y-2033057D02*
X20457144Y-2033057D01*
X21200001Y-2547342D02*
X21200001Y-1747342D01*
X21200001Y-1975914D02*
X21257144Y-1861628D01*
X21257144Y-1861628D02*
X21314287Y-1804485D01*
X21314287Y-1804485D02*
X21428572Y-1747342D01*
X21428572Y-1747342D02*
X21542858Y-1747342D01*
X22400001Y-2490200D02*
X22285715Y-2547342D01*
X22285715Y-2547342D02*
X22057144Y-2547342D01*
X22057144Y-2547342D02*
X21942858Y-2490200D01*
X21942858Y-2490200D02*
X21885715Y-2375914D01*
X21885715Y-2375914D02*
X21885715Y-1918771D01*
X21885715Y-1918771D02*
X21942858Y-1804485D01*
X21942858Y-1804485D02*
X22057144Y-1747342D01*
X22057144Y-1747342D02*
X22285715Y-1747342D01*
X22285715Y-1747342D02*
X22400001Y-1804485D01*
X22400001Y-1804485D02*
X22457144Y-1918771D01*
X22457144Y-1918771D02*
X22457144Y-2033057D01*
X22457144Y-2033057D02*
X21885715Y-2147342D01*
X23428572Y-2490200D02*
X23314286Y-2547342D01*
X23314286Y-2547342D02*
X23085715Y-2547342D01*
X23085715Y-2547342D02*
X22971429Y-2490200D01*
X22971429Y-2490200D02*
X22914286Y-2375914D01*
X22914286Y-2375914D02*
X22914286Y-1918771D01*
X22914286Y-1918771D02*
X22971429Y-1804485D01*
X22971429Y-1804485D02*
X23085715Y-1747342D01*
X23085715Y-1747342D02*
X23314286Y-1747342D01*
X23314286Y-1747342D02*
X23428572Y-1804485D01*
X23428572Y-1804485D02*
X23485715Y-1918771D01*
X23485715Y-1918771D02*
X23485715Y-2033057D01*
X23485715Y-2033057D02*
X22914286Y-2147342D01*
X24000000Y-1747342D02*
X24000000Y-2547342D01*
X24000000Y-1861628D02*
X24057143Y-1804485D01*
X24057143Y-1804485D02*
X24171428Y-1747342D01*
X24171428Y-1747342D02*
X24342857Y-1747342D01*
X24342857Y-1747342D02*
X24457143Y-1804485D01*
X24457143Y-1804485D02*
X24514286Y-1918771D01*
X24514286Y-1918771D02*
X24514286Y-2547342D01*
X25714285Y-1404485D02*
X25600000Y-1347342D01*
X25600000Y-1347342D02*
X25428571Y-1347342D01*
X25428571Y-1347342D02*
X25257142Y-1404485D01*
X25257142Y-1404485D02*
X25142857Y-1518771D01*
X25142857Y-1518771D02*
X25085714Y-1633057D01*
X25085714Y-1633057D02*
X25028571Y-1861628D01*
X25028571Y-1861628D02*
X25028571Y-2033057D01*
X25028571Y-2033057D02*
X25085714Y-2261628D01*
X25085714Y-2261628D02*
X25142857Y-2375914D01*
X25142857Y-2375914D02*
X25257142Y-2490200D01*
X25257142Y-2490200D02*
X25428571Y-2547342D01*
X25428571Y-2547342D02*
X25542857Y-2547342D01*
X25542857Y-2547342D02*
X25714285Y-2490200D01*
X25714285Y-2490200D02*
X25771428Y-2433057D01*
X25771428Y-2433057D02*
X25771428Y-2033057D01*
X25771428Y-2033057D02*
X25542857Y-2033057D01*
X26800000Y-1747342D02*
X26800000Y-2547342D01*
X26285714Y-1747342D02*
X26285714Y-2375914D01*
X26285714Y-2375914D02*
X26342857Y-2490200D01*
X26342857Y-2490200D02*
X26457142Y-2547342D01*
X26457142Y-2547342D02*
X26628571Y-2547342D01*
X26628571Y-2547342D02*
X26742857Y-2490200D01*
X26742857Y-2490200D02*
X26800000Y-2433057D01*
X27885714Y-2547342D02*
X27885714Y-1918771D01*
X27885714Y-1918771D02*
X27828571Y-1804485D01*
X27828571Y-1804485D02*
X27714285Y-1747342D01*
X27714285Y-1747342D02*
X27485714Y-1747342D01*
X27485714Y-1747342D02*
X27371428Y-1804485D01*
X27885714Y-2490200D02*
X27771428Y-2547342D01*
X27771428Y-2547342D02*
X27485714Y-2547342D01*
X27485714Y-2547342D02*
X27371428Y-2490200D01*
X27371428Y-2490200D02*
X27314285Y-2375914D01*
X27314285Y-2375914D02*
X27314285Y-2261628D01*
X27314285Y-2261628D02*
X27371428Y-2147342D01*
X27371428Y-2147342D02*
X27485714Y-2090200D01*
X27485714Y-2090200D02*
X27771428Y-2090200D01*
X27771428Y-2090200D02*
X27885714Y-2033057D01*
X28457142Y-2547342D02*
X28457142Y-1747342D01*
X28457142Y-1975914D02*
X28514285Y-1861628D01*
X28514285Y-1861628D02*
X28571428Y-1804485D01*
X28571428Y-1804485D02*
X28685713Y-1747342D01*
X28685713Y-1747342D02*
X28799999Y-1747342D01*
X29714285Y-2547342D02*
X29714285Y-1347342D01*
X29714285Y-2490200D02*
X29599999Y-2547342D01*
X29599999Y-2547342D02*
X29371427Y-2547342D01*
X29371427Y-2547342D02*
X29257142Y-2490200D01*
X29257142Y-2490200D02*
X29199999Y-2433057D01*
X29199999Y-2433057D02*
X29142856Y-2318771D01*
X29142856Y-2318771D02*
X29142856Y-1975914D01*
X29142856Y-1975914D02*
X29199999Y-1861628D01*
X29199999Y-1861628D02*
X29257142Y-1804485D01*
X29257142Y-1804485D02*
X29371427Y-1747342D01*
X29371427Y-1747342D02*
X29599999Y-1747342D01*
X29599999Y-1747342D02*
X29714285Y-1804485D01*
X31885713Y-2433057D02*
X31828570Y-2490200D01*
X31828570Y-2490200D02*
X31657142Y-2547342D01*
X31657142Y-2547342D02*
X31542856Y-2547342D01*
X31542856Y-2547342D02*
X31371427Y-2490200D01*
X31371427Y-2490200D02*
X31257142Y-2375914D01*
X31257142Y-2375914D02*
X31199999Y-2261628D01*
X31199999Y-2261628D02*
X31142856Y-2033057D01*
X31142856Y-2033057D02*
X31142856Y-1861628D01*
X31142856Y-1861628D02*
X31199999Y-1633057D01*
X31199999Y-1633057D02*
X31257142Y-1518771D01*
X31257142Y-1518771D02*
X31371427Y-1404485D01*
X31371427Y-1404485D02*
X31542856Y-1347342D01*
X31542856Y-1347342D02*
X31657142Y-1347342D01*
X31657142Y-1347342D02*
X31828570Y-1404485D01*
X31828570Y-1404485D02*
X31885713Y-1461628D01*
X32628570Y-1347342D02*
X32857142Y-1347342D01*
X32857142Y-1347342D02*
X32971427Y-1404485D01*
X32971427Y-1404485D02*
X33085713Y-1518771D01*
X33085713Y-1518771D02*
X33142856Y-1747342D01*
X33142856Y-1747342D02*
X33142856Y-2147342D01*
X33142856Y-2147342D02*
X33085713Y-2375914D01*
X33085713Y-2375914D02*
X32971427Y-2490200D01*
X32971427Y-2490200D02*
X32857142Y-2547342D01*
X32857142Y-2547342D02*
X32628570Y-2547342D01*
X32628570Y-2547342D02*
X32514285Y-2490200D01*
X32514285Y-2490200D02*
X32399999Y-2375914D01*
X32399999Y-2375914D02*
X32342856Y-2147342D01*
X32342856Y-2147342D02*
X32342856Y-1747342D01*
X32342856Y-1747342D02*
X32399999Y-1518771D01*
X32399999Y-1518771D02*
X32514285Y-1404485D01*
X32514285Y-1404485D02*
X32628570Y-1347342D01*
X33599999Y-1461628D02*
X33657142Y-1404485D01*
X33657142Y-1404485D02*
X33771428Y-1347342D01*
X33771428Y-1347342D02*
X34057142Y-1347342D01*
X34057142Y-1347342D02*
X34171428Y-1404485D01*
X34171428Y-1404485D02*
X34228570Y-1461628D01*
X34228570Y-1461628D02*
X34285713Y-1575914D01*
X34285713Y-1575914D02*
X34285713Y-1690200D01*
X34285713Y-1690200D02*
X34228570Y-1861628D01*
X34228570Y-1861628D02*
X33542856Y-2547342D01*
X33542856Y-2547342D02*
X34285713Y-2547342D01*
X35542856Y-1347342D02*
X36228571Y-1347342D01*
X35885713Y-2547342D02*
X35885713Y-1347342D01*
X36628571Y-2547342D02*
X36628571Y-1747342D01*
X36628571Y-1347342D02*
X36571428Y-1404485D01*
X36571428Y-1404485D02*
X36628571Y-1461628D01*
X36628571Y-1461628D02*
X36685714Y-1404485D01*
X36685714Y-1404485D02*
X36628571Y-1347342D01*
X36628571Y-1347342D02*
X36628571Y-1461628D01*
X37200000Y-2547342D02*
X37200000Y-1747342D01*
X37200000Y-1861628D02*
X37257143Y-1804485D01*
X37257143Y-1804485D02*
X37371428Y-1747342D01*
X37371428Y-1747342D02*
X37542857Y-1747342D01*
X37542857Y-1747342D02*
X37657143Y-1804485D01*
X37657143Y-1804485D02*
X37714286Y-1918771D01*
X37714286Y-1918771D02*
X37714286Y-2547342D01*
X37714286Y-1918771D02*
X37771428Y-1804485D01*
X37771428Y-1804485D02*
X37885714Y-1747342D01*
X37885714Y-1747342D02*
X38057143Y-1747342D01*
X38057143Y-1747342D02*
X38171428Y-1804485D01*
X38171428Y-1804485D02*
X38228571Y-1918771D01*
X38228571Y-1918771D02*
X38228571Y-2547342D01*
X39257143Y-2490200D02*
X39142857Y-2547342D01*
X39142857Y-2547342D02*
X38914286Y-2547342D01*
X38914286Y-2547342D02*
X38800000Y-2490200D01*
X38800000Y-2490200D02*
X38742857Y-2375914D01*
X38742857Y-2375914D02*
X38742857Y-1918771D01*
X38742857Y-1918771D02*
X38800000Y-1804485D01*
X38800000Y-1804485D02*
X38914286Y-1747342D01*
X38914286Y-1747342D02*
X39142857Y-1747342D01*
X39142857Y-1747342D02*
X39257143Y-1804485D01*
X39257143Y-1804485D02*
X39314286Y-1918771D01*
X39314286Y-1918771D02*
X39314286Y-2033057D01*
X39314286Y-2033057D02*
X38742857Y-2147342D01*
X39828571Y-2547342D02*
X39828571Y-1747342D01*
X39828571Y-1975914D02*
X39885714Y-1861628D01*
X39885714Y-1861628D02*
X39942857Y-1804485D01*
X39942857Y-1804485D02*
X40057142Y-1747342D01*
X40057142Y-1747342D02*
X40171428Y-1747342D01*
D11*
X48342857Y-2363855D02*
X48076190Y-1982902D01*
X47885714Y-2363855D02*
X47885714Y-1563855D01*
X47885714Y-1563855D02*
X48190476Y-1563855D01*
X48190476Y-1563855D02*
X48266666Y-1601950D01*
X48266666Y-1601950D02*
X48304761Y-1640045D01*
X48304761Y-1640045D02*
X48342857Y-1716236D01*
X48342857Y-1716236D02*
X48342857Y-1830521D01*
X48342857Y-1830521D02*
X48304761Y-1906712D01*
X48304761Y-1906712D02*
X48266666Y-1944807D01*
X48266666Y-1944807D02*
X48190476Y-1982902D01*
X48190476Y-1982902D02*
X47885714Y-1982902D01*
X48990476Y-2325760D02*
X48914285Y-2363855D01*
X48914285Y-2363855D02*
X48761904Y-2363855D01*
X48761904Y-2363855D02*
X48685714Y-2325760D01*
X48685714Y-2325760D02*
X48647618Y-2249569D01*
X48647618Y-2249569D02*
X48647618Y-1944807D01*
X48647618Y-1944807D02*
X48685714Y-1868617D01*
X48685714Y-1868617D02*
X48761904Y-1830521D01*
X48761904Y-1830521D02*
X48914285Y-1830521D01*
X48914285Y-1830521D02*
X48990476Y-1868617D01*
X48990476Y-1868617D02*
X49028571Y-1944807D01*
X49028571Y-1944807D02*
X49028571Y-2020998D01*
X49028571Y-2020998D02*
X48647618Y-2097188D01*
X49295237Y-1830521D02*
X49485713Y-2363855D01*
X49485713Y-2363855D02*
X49676190Y-1830521D01*
X51009523Y-2363855D02*
X50552380Y-2363855D01*
X50780952Y-2363855D02*
X50780952Y-1563855D01*
X50780952Y-1563855D02*
X50704761Y-1678140D01*
X50704761Y-1678140D02*
X50628571Y-1754331D01*
X50628571Y-1754331D02*
X50552380Y-1792426D01*
X51352381Y-2287664D02*
X51390476Y-2325760D01*
X51390476Y-2325760D02*
X51352381Y-2363855D01*
X51352381Y-2363855D02*
X51314285Y-2325760D01*
X51314285Y-2325760D02*
X51352381Y-2287664D01*
X51352381Y-2287664D02*
X51352381Y-2363855D01*
X51885714Y-1563855D02*
X51961904Y-1563855D01*
X51961904Y-1563855D02*
X52038095Y-1601950D01*
X52038095Y-1601950D02*
X52076190Y-1640045D01*
X52076190Y-1640045D02*
X52114285Y-1716236D01*
X52114285Y-1716236D02*
X52152380Y-1868617D01*
X52152380Y-1868617D02*
X52152380Y-2059093D01*
X52152380Y-2059093D02*
X52114285Y-2211474D01*
X52114285Y-2211474D02*
X52076190Y-2287664D01*
X52076190Y-2287664D02*
X52038095Y-2325760D01*
X52038095Y-2325760D02*
X51961904Y-2363855D01*
X51961904Y-2363855D02*
X51885714Y-2363855D01*
X51885714Y-2363855D02*
X51809523Y-2325760D01*
X51809523Y-2325760D02*
X51771428Y-2287664D01*
X51771428Y-2287664D02*
X51733333Y-2211474D01*
X51733333Y-2211474D02*
X51695237Y-2059093D01*
X51695237Y-2059093D02*
X51695237Y-1868617D01*
X51695237Y-1868617D02*
X51733333Y-1716236D01*
X51733333Y-1716236D02*
X51771428Y-1640045D01*
X51771428Y-1640045D02*
X51809523Y-1601950D01*
X51809523Y-1601950D02*
X51885714Y-1563855D01*
X23009524Y-38063855D02*
X23161905Y-38063855D01*
X23161905Y-38063855D02*
X23238095Y-38101950D01*
X23238095Y-38101950D02*
X23314286Y-38178140D01*
X23314286Y-38178140D02*
X23352381Y-38330521D01*
X23352381Y-38330521D02*
X23352381Y-38597188D01*
X23352381Y-38597188D02*
X23314286Y-38749569D01*
X23314286Y-38749569D02*
X23238095Y-38825760D01*
X23238095Y-38825760D02*
X23161905Y-38863855D01*
X23161905Y-38863855D02*
X23009524Y-38863855D01*
X23009524Y-38863855D02*
X22933333Y-38825760D01*
X22933333Y-38825760D02*
X22857143Y-38749569D01*
X22857143Y-38749569D02*
X22819047Y-38597188D01*
X22819047Y-38597188D02*
X22819047Y-38330521D01*
X22819047Y-38330521D02*
X22857143Y-38178140D01*
X22857143Y-38178140D02*
X22933333Y-38101950D01*
X22933333Y-38101950D02*
X23009524Y-38063855D01*
X23695238Y-38863855D02*
X23695238Y-38063855D01*
X23695238Y-38063855D02*
X24152381Y-38863855D01*
X24152381Y-38863855D02*
X24152381Y-38063855D01*
X24533333Y-38787664D02*
X24571428Y-38825760D01*
X24571428Y-38825760D02*
X24533333Y-38863855D01*
X24533333Y-38863855D02*
X24495237Y-38825760D01*
X24495237Y-38825760D02*
X24533333Y-38787664D01*
X24533333Y-38787664D02*
X24533333Y-38863855D01*
X24533333Y-38368617D02*
X24571428Y-38406712D01*
X24571428Y-38406712D02*
X24533333Y-38444807D01*
X24533333Y-38444807D02*
X24495237Y-38406712D01*
X24495237Y-38406712D02*
X24533333Y-38368617D01*
X24533333Y-38368617D02*
X24533333Y-38444807D01*
X25295237Y-38063855D02*
X24914285Y-38063855D01*
X24914285Y-38063855D02*
X24876189Y-38444807D01*
X24876189Y-38444807D02*
X24914285Y-38406712D01*
X24914285Y-38406712D02*
X24990475Y-38368617D01*
X24990475Y-38368617D02*
X25180951Y-38368617D01*
X25180951Y-38368617D02*
X25257142Y-38406712D01*
X25257142Y-38406712D02*
X25295237Y-38444807D01*
X25295237Y-38444807D02*
X25333332Y-38520998D01*
X25333332Y-38520998D02*
X25333332Y-38711474D01*
X25333332Y-38711474D02*
X25295237Y-38787664D01*
X25295237Y-38787664D02*
X25257142Y-38825760D01*
X25257142Y-38825760D02*
X25180951Y-38863855D01*
X25180951Y-38863855D02*
X24990475Y-38863855D01*
X24990475Y-38863855D02*
X24914285Y-38825760D01*
X24914285Y-38825760D02*
X24876189Y-38787664D01*
X25676190Y-38787664D02*
X25714285Y-38825760D01*
X25714285Y-38825760D02*
X25676190Y-38863855D01*
X25676190Y-38863855D02*
X25638094Y-38825760D01*
X25638094Y-38825760D02*
X25676190Y-38787664D01*
X25676190Y-38787664D02*
X25676190Y-38863855D01*
X25676190Y-38368617D02*
X25714285Y-38406712D01*
X25714285Y-38406712D02*
X25676190Y-38444807D01*
X25676190Y-38444807D02*
X25638094Y-38406712D01*
X25638094Y-38406712D02*
X25676190Y-38368617D01*
X25676190Y-38368617D02*
X25676190Y-38444807D01*
X25980951Y-38063855D02*
X26476189Y-38063855D01*
X26476189Y-38063855D02*
X26209523Y-38368617D01*
X26209523Y-38368617D02*
X26323808Y-38368617D01*
X26323808Y-38368617D02*
X26399999Y-38406712D01*
X26399999Y-38406712D02*
X26438094Y-38444807D01*
X26438094Y-38444807D02*
X26476189Y-38520998D01*
X26476189Y-38520998D02*
X26476189Y-38711474D01*
X26476189Y-38711474D02*
X26438094Y-38787664D01*
X26438094Y-38787664D02*
X26399999Y-38825760D01*
X26399999Y-38825760D02*
X26323808Y-38863855D01*
X26323808Y-38863855D02*
X26095237Y-38863855D01*
X26095237Y-38863855D02*
X26019046Y-38825760D01*
X26019046Y-38825760D02*
X25980951Y-38787664D01*
X26971428Y-38063855D02*
X27047618Y-38063855D01*
X27047618Y-38063855D02*
X27123809Y-38101950D01*
X27123809Y-38101950D02*
X27161904Y-38140045D01*
X27161904Y-38140045D02*
X27199999Y-38216236D01*
X27199999Y-38216236D02*
X27238094Y-38368617D01*
X27238094Y-38368617D02*
X27238094Y-38559093D01*
X27238094Y-38559093D02*
X27199999Y-38711474D01*
X27199999Y-38711474D02*
X27161904Y-38787664D01*
X27161904Y-38787664D02*
X27123809Y-38825760D01*
X27123809Y-38825760D02*
X27047618Y-38863855D01*
X27047618Y-38863855D02*
X26971428Y-38863855D01*
X26971428Y-38863855D02*
X26895237Y-38825760D01*
X26895237Y-38825760D02*
X26857142Y-38787664D01*
X26857142Y-38787664D02*
X26819047Y-38711474D01*
X26819047Y-38711474D02*
X26780951Y-38559093D01*
X26780951Y-38559093D02*
X26780951Y-38368617D01*
X26780951Y-38368617D02*
X26819047Y-38216236D01*
X26819047Y-38216236D02*
X26857142Y-38140045D01*
X26857142Y-38140045D02*
X26895237Y-38101950D01*
X26895237Y-38101950D02*
X26971428Y-38063855D01*
X27542856Y-38635283D02*
X27923809Y-38635283D01*
X27466666Y-38863855D02*
X27733333Y-38063855D01*
X27733333Y-38063855D02*
X27999999Y-38863855D01*
X28266666Y-38863855D02*
X28266666Y-38063855D01*
X28266666Y-38063855D02*
X28533332Y-38635283D01*
X28533332Y-38635283D02*
X28799999Y-38063855D01*
X28799999Y-38063855D02*
X28799999Y-38863855D01*
X29942857Y-38063855D02*
X30095238Y-38063855D01*
X30095238Y-38063855D02*
X30171428Y-38101950D01*
X30171428Y-38101950D02*
X30247619Y-38178140D01*
X30247619Y-38178140D02*
X30285714Y-38330521D01*
X30285714Y-38330521D02*
X30285714Y-38597188D01*
X30285714Y-38597188D02*
X30247619Y-38749569D01*
X30247619Y-38749569D02*
X30171428Y-38825760D01*
X30171428Y-38825760D02*
X30095238Y-38863855D01*
X30095238Y-38863855D02*
X29942857Y-38863855D01*
X29942857Y-38863855D02*
X29866666Y-38825760D01*
X29866666Y-38825760D02*
X29790476Y-38749569D01*
X29790476Y-38749569D02*
X29752380Y-38597188D01*
X29752380Y-38597188D02*
X29752380Y-38330521D01*
X29752380Y-38330521D02*
X29790476Y-38178140D01*
X29790476Y-38178140D02*
X29866666Y-38101950D01*
X29866666Y-38101950D02*
X29942857Y-38063855D01*
X30895237Y-38444807D02*
X30628571Y-38444807D01*
X30628571Y-38863855D02*
X30628571Y-38063855D01*
X30628571Y-38063855D02*
X31009523Y-38063855D01*
X31580951Y-38444807D02*
X31314285Y-38444807D01*
X31314285Y-38863855D02*
X31314285Y-38063855D01*
X31314285Y-38063855D02*
X31695237Y-38063855D01*
X31999999Y-38787664D02*
X32038094Y-38825760D01*
X32038094Y-38825760D02*
X31999999Y-38863855D01*
X31999999Y-38863855D02*
X31961903Y-38825760D01*
X31961903Y-38825760D02*
X31999999Y-38787664D01*
X31999999Y-38787664D02*
X31999999Y-38863855D01*
X31999999Y-38368617D02*
X32038094Y-38406712D01*
X32038094Y-38406712D02*
X31999999Y-38444807D01*
X31999999Y-38444807D02*
X31961903Y-38406712D01*
X31961903Y-38406712D02*
X31999999Y-38368617D01*
X31999999Y-38368617D02*
X31999999Y-38444807D01*
X32799998Y-38863855D02*
X32342855Y-38863855D01*
X32571427Y-38863855D02*
X32571427Y-38063855D01*
X32571427Y-38063855D02*
X32495236Y-38178140D01*
X32495236Y-38178140D02*
X32419046Y-38254331D01*
X32419046Y-38254331D02*
X32342855Y-38292426D01*
X33561903Y-38863855D02*
X33104760Y-38863855D01*
X33333332Y-38863855D02*
X33333332Y-38063855D01*
X33333332Y-38063855D02*
X33257141Y-38178140D01*
X33257141Y-38178140D02*
X33180951Y-38254331D01*
X33180951Y-38254331D02*
X33104760Y-38292426D01*
X33904761Y-38787664D02*
X33942856Y-38825760D01*
X33942856Y-38825760D02*
X33904761Y-38863855D01*
X33904761Y-38863855D02*
X33866665Y-38825760D01*
X33866665Y-38825760D02*
X33904761Y-38787664D01*
X33904761Y-38787664D02*
X33904761Y-38863855D01*
X33904761Y-38368617D02*
X33942856Y-38406712D01*
X33942856Y-38406712D02*
X33904761Y-38444807D01*
X33904761Y-38444807D02*
X33866665Y-38406712D01*
X33866665Y-38406712D02*
X33904761Y-38368617D01*
X33904761Y-38368617D02*
X33904761Y-38444807D01*
X34209522Y-38063855D02*
X34704760Y-38063855D01*
X34704760Y-38063855D02*
X34438094Y-38368617D01*
X34438094Y-38368617D02*
X34552379Y-38368617D01*
X34552379Y-38368617D02*
X34628570Y-38406712D01*
X34628570Y-38406712D02*
X34666665Y-38444807D01*
X34666665Y-38444807D02*
X34704760Y-38520998D01*
X34704760Y-38520998D02*
X34704760Y-38711474D01*
X34704760Y-38711474D02*
X34666665Y-38787664D01*
X34666665Y-38787664D02*
X34628570Y-38825760D01*
X34628570Y-38825760D02*
X34552379Y-38863855D01*
X34552379Y-38863855D02*
X34323808Y-38863855D01*
X34323808Y-38863855D02*
X34247617Y-38825760D01*
X34247617Y-38825760D02*
X34209522Y-38787664D01*
X35199999Y-38063855D02*
X35276189Y-38063855D01*
X35276189Y-38063855D02*
X35352380Y-38101950D01*
X35352380Y-38101950D02*
X35390475Y-38140045D01*
X35390475Y-38140045D02*
X35428570Y-38216236D01*
X35428570Y-38216236D02*
X35466665Y-38368617D01*
X35466665Y-38368617D02*
X35466665Y-38559093D01*
X35466665Y-38559093D02*
X35428570Y-38711474D01*
X35428570Y-38711474D02*
X35390475Y-38787664D01*
X35390475Y-38787664D02*
X35352380Y-38825760D01*
X35352380Y-38825760D02*
X35276189Y-38863855D01*
X35276189Y-38863855D02*
X35199999Y-38863855D01*
X35199999Y-38863855D02*
X35123808Y-38825760D01*
X35123808Y-38825760D02*
X35085713Y-38787664D01*
X35085713Y-38787664D02*
X35047618Y-38711474D01*
X35047618Y-38711474D02*
X35009522Y-38559093D01*
X35009522Y-38559093D02*
X35009522Y-38368617D01*
X35009522Y-38368617D02*
X35047618Y-38216236D01*
X35047618Y-38216236D02*
X35085713Y-38140045D01*
X35085713Y-38140045D02*
X35123808Y-38101950D01*
X35123808Y-38101950D02*
X35199999Y-38063855D01*
X35809523Y-38863855D02*
X35809523Y-38063855D01*
X35809523Y-38063855D02*
X36114285Y-38063855D01*
X36114285Y-38063855D02*
X36190475Y-38101950D01*
X36190475Y-38101950D02*
X36228570Y-38140045D01*
X36228570Y-38140045D02*
X36266666Y-38216236D01*
X36266666Y-38216236D02*
X36266666Y-38330521D01*
X36266666Y-38330521D02*
X36228570Y-38406712D01*
X36228570Y-38406712D02*
X36190475Y-38444807D01*
X36190475Y-38444807D02*
X36114285Y-38482902D01*
X36114285Y-38482902D02*
X35809523Y-38482902D01*
X36609523Y-38863855D02*
X36609523Y-38063855D01*
X36609523Y-38063855D02*
X36876189Y-38635283D01*
X36876189Y-38635283D02*
X37142856Y-38063855D01*
X37142856Y-38063855D02*
X37142856Y-38863855D01*
X2009524Y-33363855D02*
X2161905Y-33363855D01*
X2161905Y-33363855D02*
X2238095Y-33325760D01*
X2238095Y-33325760D02*
X2276191Y-33287664D01*
X2276191Y-33287664D02*
X2352381Y-33173379D01*
X2352381Y-33173379D02*
X2390476Y-33020998D01*
X2390476Y-33020998D02*
X2390476Y-32716236D01*
X2390476Y-32716236D02*
X2352381Y-32640045D01*
X2352381Y-32640045D02*
X2314286Y-32601950D01*
X2314286Y-32601950D02*
X2238095Y-32563855D01*
X2238095Y-32563855D02*
X2085714Y-32563855D01*
X2085714Y-32563855D02*
X2009524Y-32601950D01*
X2009524Y-32601950D02*
X1971429Y-32640045D01*
X1971429Y-32640045D02*
X1933333Y-32716236D01*
X1933333Y-32716236D02*
X1933333Y-32906712D01*
X1933333Y-32906712D02*
X1971429Y-32982902D01*
X1971429Y-32982902D02*
X2009524Y-33020998D01*
X2009524Y-33020998D02*
X2085714Y-33059093D01*
X2085714Y-33059093D02*
X2238095Y-33059093D01*
X2238095Y-33059093D02*
X2314286Y-33020998D01*
X2314286Y-33020998D02*
X2352381Y-32982902D01*
X2352381Y-32982902D02*
X2390476Y-32906712D01*
X2619048Y-32563855D02*
X2885715Y-33363855D01*
X2885715Y-33363855D02*
X3152381Y-32563855D01*
X3419048Y-33059093D02*
X4028572Y-33059093D01*
X3723810Y-33363855D02*
X3723810Y-32754331D01*
X51533333Y-33325760D02*
X51647619Y-33363855D01*
X51647619Y-33363855D02*
X51838095Y-33363855D01*
X51838095Y-33363855D02*
X51914286Y-33325760D01*
X51914286Y-33325760D02*
X51952381Y-33287664D01*
X51952381Y-33287664D02*
X51990476Y-33211474D01*
X51990476Y-33211474D02*
X51990476Y-33135283D01*
X51990476Y-33135283D02*
X51952381Y-33059093D01*
X51952381Y-33059093D02*
X51914286Y-33020998D01*
X51914286Y-33020998D02*
X51838095Y-32982902D01*
X51838095Y-32982902D02*
X51685714Y-32944807D01*
X51685714Y-32944807D02*
X51609524Y-32906712D01*
X51609524Y-32906712D02*
X51571429Y-32868617D01*
X51571429Y-32868617D02*
X51533333Y-32792426D01*
X51533333Y-32792426D02*
X51533333Y-32716236D01*
X51533333Y-32716236D02*
X51571429Y-32640045D01*
X51571429Y-32640045D02*
X51609524Y-32601950D01*
X51609524Y-32601950D02*
X51685714Y-32563855D01*
X51685714Y-32563855D02*
X51876191Y-32563855D01*
X51876191Y-32563855D02*
X51990476Y-32601950D01*
X52485715Y-32563855D02*
X52638096Y-32563855D01*
X52638096Y-32563855D02*
X52714286Y-32601950D01*
X52714286Y-32601950D02*
X52790477Y-32678140D01*
X52790477Y-32678140D02*
X52828572Y-32830521D01*
X52828572Y-32830521D02*
X52828572Y-33097188D01*
X52828572Y-33097188D02*
X52790477Y-33249569D01*
X52790477Y-33249569D02*
X52714286Y-33325760D01*
X52714286Y-33325760D02*
X52638096Y-33363855D01*
X52638096Y-33363855D02*
X52485715Y-33363855D01*
X52485715Y-33363855D02*
X52409524Y-33325760D01*
X52409524Y-33325760D02*
X52333334Y-33249569D01*
X52333334Y-33249569D02*
X52295238Y-33097188D01*
X52295238Y-33097188D02*
X52295238Y-32830521D01*
X52295238Y-32830521D02*
X52333334Y-32678140D01*
X52333334Y-32678140D02*
X52409524Y-32601950D01*
X52409524Y-32601950D02*
X52485715Y-32563855D01*
X53552381Y-33363855D02*
X53171429Y-33363855D01*
X53171429Y-33363855D02*
X53171429Y-32563855D01*
X53819048Y-33059093D02*
X54428572Y-33059093D01*
X54123810Y-33363855D02*
X54123810Y-32754331D01*
X28609523Y-32325760D02*
X28723809Y-32363855D01*
X28723809Y-32363855D02*
X28914285Y-32363855D01*
X28914285Y-32363855D02*
X28990476Y-32325760D01*
X28990476Y-32325760D02*
X29028571Y-32287664D01*
X29028571Y-32287664D02*
X29066666Y-32211474D01*
X29066666Y-32211474D02*
X29066666Y-32135283D01*
X29066666Y-32135283D02*
X29028571Y-32059093D01*
X29028571Y-32059093D02*
X28990476Y-32020998D01*
X28990476Y-32020998D02*
X28914285Y-31982902D01*
X28914285Y-31982902D02*
X28761904Y-31944807D01*
X28761904Y-31944807D02*
X28685714Y-31906712D01*
X28685714Y-31906712D02*
X28647619Y-31868617D01*
X28647619Y-31868617D02*
X28609523Y-31792426D01*
X28609523Y-31792426D02*
X28609523Y-31716236D01*
X28609523Y-31716236D02*
X28647619Y-31640045D01*
X28647619Y-31640045D02*
X28685714Y-31601950D01*
X28685714Y-31601950D02*
X28761904Y-31563855D01*
X28761904Y-31563855D02*
X28952381Y-31563855D01*
X28952381Y-31563855D02*
X29066666Y-31601950D01*
X29561905Y-31982902D02*
X29561905Y-32363855D01*
X29295238Y-31563855D02*
X29561905Y-31982902D01*
X29561905Y-31982902D02*
X29828571Y-31563855D01*
X30095238Y-32363855D02*
X30095238Y-31563855D01*
X30095238Y-31563855D02*
X30552381Y-32363855D01*
X30552381Y-32363855D02*
X30552381Y-31563855D01*
X31390476Y-32287664D02*
X31352380Y-32325760D01*
X31352380Y-32325760D02*
X31238095Y-32363855D01*
X31238095Y-32363855D02*
X31161904Y-32363855D01*
X31161904Y-32363855D02*
X31047618Y-32325760D01*
X31047618Y-32325760D02*
X30971428Y-32249569D01*
X30971428Y-32249569D02*
X30933333Y-32173379D01*
X30933333Y-32173379D02*
X30895237Y-32020998D01*
X30895237Y-32020998D02*
X30895237Y-31906712D01*
X30895237Y-31906712D02*
X30933333Y-31754331D01*
X30933333Y-31754331D02*
X30971428Y-31678140D01*
X30971428Y-31678140D02*
X31047618Y-31601950D01*
X31047618Y-31601950D02*
X31161904Y-31563855D01*
X31161904Y-31563855D02*
X31238095Y-31563855D01*
X31238095Y-31563855D02*
X31352380Y-31601950D01*
X31352380Y-31601950D02*
X31390476Y-31640045D01*
X16933333Y-3363855D02*
X16933333Y-2563855D01*
X16933333Y-2563855D02*
X17238095Y-2563855D01*
X17238095Y-2563855D02*
X17314285Y-2601950D01*
X17314285Y-2601950D02*
X17352380Y-2640045D01*
X17352380Y-2640045D02*
X17390476Y-2716236D01*
X17390476Y-2716236D02*
X17390476Y-2830521D01*
X17390476Y-2830521D02*
X17352380Y-2906712D01*
X17352380Y-2906712D02*
X17314285Y-2944807D01*
X17314285Y-2944807D02*
X17238095Y-2982902D01*
X17238095Y-2982902D02*
X16933333Y-2982902D01*
X17657142Y-2563855D02*
X17847618Y-3363855D01*
X17847618Y-3363855D02*
X17999999Y-2792426D01*
X17999999Y-2792426D02*
X18152380Y-3363855D01*
X18152380Y-3363855D02*
X18342857Y-2563855D01*
X19104762Y-3363855D02*
X18838095Y-2982902D01*
X18647619Y-3363855D02*
X18647619Y-2563855D01*
X18647619Y-2563855D02*
X18952381Y-2563855D01*
X18952381Y-2563855D02*
X19028571Y-2601950D01*
X19028571Y-2601950D02*
X19066666Y-2640045D01*
X19066666Y-2640045D02*
X19104762Y-2716236D01*
X19104762Y-2716236D02*
X19104762Y-2830521D01*
X19104762Y-2830521D02*
X19066666Y-2906712D01*
X19066666Y-2906712D02*
X19028571Y-2944807D01*
X19028571Y-2944807D02*
X18952381Y-2982902D01*
X18952381Y-2982902D02*
X18647619Y-2982902D01*
X24361905Y-2563855D02*
X24628572Y-3363855D01*
X24628572Y-3363855D02*
X24895238Y-2563855D01*
X25123809Y-3135283D02*
X25504762Y-3135283D01*
X25047619Y-3363855D02*
X25314286Y-2563855D01*
X25314286Y-2563855D02*
X25580952Y-3363855D01*
X26228571Y-3363855D02*
X25847619Y-3363855D01*
X25847619Y-3363855D02*
X25847619Y-2563855D01*
X26380952Y-2563855D02*
X26647619Y-3363855D01*
X26647619Y-3363855D02*
X26914285Y-2563855D01*
X27180952Y-2944807D02*
X27447618Y-2944807D01*
X27561904Y-3363855D02*
X27180952Y-3363855D01*
X27180952Y-3363855D02*
X27180952Y-2563855D01*
X27180952Y-2563855D02*
X27561904Y-2563855D01*
%LPC*%
D12*
%TO.C,H1*%
X3000000Y-3000000D03*
%TD*%
%TO.C,H2*%
X57000000Y-3000000D03*
%TD*%
%TO.C,H3*%
X3000000Y-37000000D03*
%TD*%
%TO.C,H4*%
X57000000Y-37000000D03*
%TD*%
D13*
%TO.C,U1*%
X26190000Y-14920000D03*
D14*
X26190000Y-17460000D03*
X26190000Y-20000000D03*
X26190000Y-22540000D03*
X33810000Y-22540000D03*
X33810000Y-20000000D03*
X33810000Y-17460000D03*
X33810000Y-14920000D03*
%TD*%
D13*
%TO.C,Q1*%
X49460000Y-32000000D03*
D14*
X52000000Y-32000000D03*
X54540000Y-32000000D03*
%TD*%
%TO.C,D1*%
X2920000Y-25000000D03*
X13080000Y-25000000D03*
%TD*%
%TO.C,D2*%
X46920000Y-10000000D03*
X57080000Y-10000000D03*
%TD*%
%TO.C,LED1*%
X18730000Y-5000000D03*
X21270000Y-5000000D03*
%TD*%
%TO.C,LED2*%
X26730000Y-5000000D03*
X29270000Y-5000000D03*
%TD*%
%TO.C,SW1*%
X26830000Y-31830000D03*
X33170000Y-38170000D03*
%TD*%
D15*
%TO.C,BT1*%
X9920000Y-30000000D03*
X20080000Y-30000000D03*
%TD*%
D16*
%TO.C,J1*%
X2460000Y-35000000D03*
D17*
X7540000Y-35000000D03*
%TD*%
D16*
%TO.C,J2*%
X52460000Y-35000000D03*
D17*
X57540000Y-35000000D03*
%TD*%
D13*
%TO.C,J3*%
X5460000Y-12460000D03*
D14*
X8000000Y-12460000D03*
X5460000Y-15000000D03*
X8000000Y-15000000D03*
X5460000Y-17540000D03*
X8000000Y-17540000D03*
%TD*%
D18*
%TO.C,R1*%
X33875000Y-13000000D03*
X36125000Y-13000000D03*
%TD*%
%TO.C,R5*%
X40875000Y-13000000D03*
X43125000Y-13000000D03*
%TD*%
%TO.C,R7*%
X40875000Y-17000000D03*
X43125000Y-17000000D03*
%TD*%
%TO.C,R3*%
X20875000Y-10000000D03*
X23125000Y-10000000D03*
%TD*%
%TO.C,R4*%
X28875000Y-10000000D03*
X31125000Y-10000000D03*
%TD*%
%TO.C,R6*%
X44875000Y-28000000D03*
X47125000Y-28000000D03*
%TD*%
%TO.C,C2*%
X20875000Y-20000000D03*
X23125000Y-20000000D03*
%TD*%
%TO.C,C3*%
X42875000Y-20000000D03*
X45125000Y-20000000D03*
%TD*%
D19*
%TO.C,F1*%
X5440000Y-5000000D03*
X10560000Y-5000000D03*
%TD*%
%LPD*%
M02*
