mtllib NormalCar2.mtl
o NormalCar2_Cube.002
v 0.619 0.372 -1.382
v 0.619 0.517 -1.388
v 0.746 0.372 -0.058
v 0.746 0.596 -0.061
v 0.269 0.558 -1.565
v 0.448 0.547 -1.505
v 0.448 0.372 -1.548
v 0.269 0.372 -1.609
v 0.672 0.745 -0.078
v 0.707 0.527 1.303
v 0.701 0.372 1.326
v 0.269 0.517 1.577
v 0.269 0.372 1.629
v 0.581 0.525 1.5
v 0.74 0.544 1.004
v 0.739 0.589 0.742
v 0.746 0.595 0.23
v 0.672 0.745 0.26
v 0.65 0.745 0.724
v 0.622 0.714 1.057
v 0.283 0.704 1.115
v 0.347 0.741 0.806
v 0.746 0.372 0.22
v 0.739 0.368 0.735
v 0.746 0.532 0.895
v 0.638 0.728 0.922
v 0.328 0.73 0.936
v 0.746 0.372 0.77
v 0.746 0.372 -0.579
v 0.746 0.604 -0.574
v 0.672 0.745 -0.579
v 0.744 0.371 -0.639
v 0.744 0.584 -0.722
v 0.634 0.745 -0.973
v 0.74 0.161 -0.682
v 0.7 0.485 -1.12
v 0.613 0.747 -1.297
v 0.269 0.747 -1.343
v 0.251 0.599 1.504
v 0.6 0.607 1.421
v 0.699 0.46 -1.105
v 0.619 0.272 -1.382
v 0.507 0.143 -0.103
v 0.746 0.143 -0.103
v 0.269 0.287 -1.609
v 0.269 0.143 -0.103
v 0.448 0.287 -1.548
v 0.494 0.223 -1.155
v 0.288 0.223 -1.185
v 0.69 0.148 1.36
v 0.269 0.143 1.629
v 0.507 0.143 0.26
v 0.272 0.148 1.36
v 0.746 0.143 0.167
v 0.739 0.143 0.652
v 0.746 0.148 0.726
v 0.503 0.148 1.36
v 0.507 0.148 0.726
v 0.507 0.143 0.632
v 0.269 0.143 0.277
v 0.269 0.143 0.666
v 0.269 0.148 0.726
v 0.746 0.143 -0.579
v 0.507 0.143 -0.579
v 0.269 0.143 -0.579
v 0.744 0.146 -0.639
v 0.527 0.146 -0.639
v 0.288 0.146 -0.639
v 0.732 0.526 1.214
v 0.269 0.676 1.282
v 0.615 0.69 1.197
v 0.731 0.498 1.214
v 0.705 0.347 1.28
v 0.737 0.486 1.003
v 0.743 0.441 0.864
v 0.743 0.347 0.814
v 0.696 0.148 1.308
v 0.743 0.148 0.777
v 0.73 0.441 1.194
v 0.511 0.347 1.28
v 0.563 0.491 1.003
v 0.549 0.441 0.864
v 0.549 0.347 0.814
v 0.502 0.148 1.308
v 0.549 0.148 0.777
v 0.536 0.441 1.194
v 0.269 1.117 -0.153
v 0.481 1.084 -0.154
v 0.486 1.065 -0.563
v 0.269 1.108 -0.554
v 0.269 1.092 0.237
v 0.478 1.06 0.22
v 0.567 0.908 0.462
v 0.662 0.763 -0.04
v 0.662 0.763 0.234
v 0.502 1.06 -0.889
v 0.269 1.1 -0.882
v 0.591 0.914 -0.108
v 0.575 0.874 -0.932
v 0.603 0.764 -1.375
v 0.269 0.764 -1.475
v 0.654 0.758 0.233
v 0.355 0.761 0.767
v 0.613 0.761 0.694
v 0.635 0.758 0.639
v 0.54 0.908 0.463
v 0.457 1.041 0.26
v 0.277 1.073 0.317
v 0.643 0.763 0.64
v 0.59 0.911 -0.066
v 0.571 0.906 0.41
v 0.655 0.768 -0.561
v 0.488 1.038 0.209
v 0.495 1.056 -0.106
v 0.661 0.773 -0.561
v 0.662 0.772 -0.106
v 0.59 0.919 -0.134
v 0.629 0.772 -0.933
v 0.578 0.884 -0.894
v 0.513 0.99 -0.725
v 0.503 1.025 -0.557
v 0.501 1.065 -0.177
v 0.73 0.561 -0.912
v 0.74 0.417 -0.75
v 0.74 0.335 -0.693
v 0.509 0.183 -0.82
v 0.288 0.183 -0.84
v 0.559 0.928 -1.022
v 0.677 0.322 -1.239
v 0.677 0.418 -1.203
v 0.677 0.227 -1.255
v 0.463 0.255 -1.421
v 0.288 0.255 -1.417
v 0.728 0.497 -0.919
v 0.681 0.322 -1.201
v 0.681 0.403 -1.172
v 0.681 0.222 -1.217
v 0.524 0.162 -0.685
v 0.505 0.46 -1.105
v 0.524 0.417 -0.75
v 0.528 0.334 -0.697
v 0.515 0.497 -0.919
v 0.495 0.291 -1.197
v 0.499 0.403 -1.172
v 0.487 0.228 -1.217
v 0.522 0.337 -0.795
v 0.522 0.36 -0.787
v 0.503 0.337 -1.118
v 0.504 0.425 -1.101
v 0.355 0.749 0.761
v 0.613 0.749 0.688
v 0.331 0.896 0.53
v 0.54 0.896 0.457
v 0.457 1.029 0.254
v 0.277 1.061 0.311
v 0.654 0.758 -0.041
v 0.582 0.906 -0.067
v 0.563 0.901 0.41
v 0.579 0.908 0.179
v 0.48 1.033 0.209
v 0.488 1.049 -0.107
v 0.655 0.768 -0.106
v 0.582 0.915 -0.134
v 0.622 0.768 -0.932
v 0.578 0.888 -0.555
v 0.57 0.88 -0.893
v 0.506 0.984 -0.724
v 0.496 1.019 -0.556
v 0.494 1.059 -0.176
v 0.272 1.091 -0.903
v 0.544 0.925 -1.029
v 0.49 1.049 -0.909
v 0.566 0.813 -1.163
v 0.267 0.787 -1.212
v 0.579 0.82 -1.15
v 0.65 0.409 1.458
v 0.627 0.462 1.429
v 0.635 0.145 1.423
v 0.692 0.198 1.354
v 0.744 0.192 -0.638
v 0.746 0.194 -0.579
v 0.269 0.311 -1.609
v 0.448 0.311 -1.548
v 0.746 0.194 -0.095
v 0.746 0.194 0.177
v 0.739 0.193 0.668
v 0.746 0.198 0.734
v 0.619 0.299 -1.382
v 0.697 0.193 1.304
v 0.743 0.193 0.784
v 0.503 0.193 1.304
v 0.549 0.193 0.784
v 0.681 0.255 -1.216
v 0.74 0.205 -0.679
v 0.677 0.258 -1.253
v 0.489 0.254 -1.215
v 0.525 0.2 -0.683
v 0.496 0.253 -1.148
v 0.511 0.22 -0.815
v 0.637 0.196 1.42
v 0.269 0.194 1.629
v 0.76 0.194 0.176
v 0.76 0.143 0.166
v 0.76 0.198 0.734
v 0.76 0.148 0.725
v 0.76 0.143 -0.104
v 0.754 0.143 0.651
v 0.76 0.143 -0.58
v 0.758 0.146 -0.64
v 0.757 0.193 0.783
v 0.757 0.148 0.776
v 0.755 0.161 -0.683
v 0.758 0.192 -0.639
v 0.76 0.194 -0.58
v 0.76 0.194 -0.096
v 0.754 0.193 0.667
v 0.755 0.205 -0.68
v 0.716 0.198 1.376
v 0.714 0.147 1.381
v 0.66 0.145 1.445
v 0.293 0.143 1.651
v 0.722 0.193 1.326
v 0.72 0.147 1.33
v 0.661 0.196 1.442
v 0.293 0.194 1.651
v 0.461 0.311 -1.564
v 0.461 0.287 -1.564
v 0.69 0.225 -1.27
v 0.631 0.272 -1.398
v 0.282 0.287 -1.624
v 0.694 0.221 -1.233
v 0.694 0.253 -1.231
v 0.69 0.257 -1.269
v 0.282 0.311 -1.624
v 0.631 0.299 -1.398
v 0.517 0.37 1.573
v 0.594 0.371 1.514
v 0.589 0.144 1.524
v 0.512 0.143 1.582
v 0.512 0.194 1.582
v 0.589 0.195 1.524
v 0.536 0.143 1.604
v 0.614 0.144 1.546
v 0.614 0.195 1.546
v 0.536 0.194 1.604
v 0.657 0.686 0.708
v 0.657 0.713 0.708
v 0.647 0.686 0.689
v 0.647 0.713 0.689
v 0.709 0.679 0.681
v 0.709 0.72 0.681
v 0.682 0.679 0.635
v 0.682 0.72 0.635
v 0.786 0.72 0.527
v 0.765 0.679 0.55
v 0.798 0.679 0.59
v 0.819 0.72 0.567
v 0.769 0.76 0.546
v 0.802 0.76 0.585
v 0.761 0.72 0.641
v 0.734 0.72 0.595
v 0.734 0.679 0.595
v 0.761 0.679 0.641
v 0.761 0.767 0.641
v 0.734 0.767 0.595
v 0.679 0.686 0.667
v 0.679 0.713 0.667
v 0.689 0.686 0.686
v 0.689 0.713 0.686
v 0.682 0.758 0.635
v 0.693 0.772 0.627
v 0.72 0.772 0.672
v 0.709 0.758 0.681
v 0.272 0.919 -1.044
v 0.272 1.085 -0.9
v 0.544 0.919 -1.026
v 0.49 1.042 -0.907
v 0.565 0.806 -1.16
v 0.267 0.78 -1.209
v 0.76 0.599 -0.061
v 0.76 0.375 -0.058
v 0.686 0.748 -0.078
v 0.758 0.194 -0.095
v 0.746 0.608 -0.537
v 0.672 0.745 -0.542
v 0.746 0.372 -0.54
v 0.485 1.067 -0.533
v 0.269 1.11 -0.524
v 0.662 0.772 -0.528
v 0.503 1.028 -0.529
v 0.655 0.768 -0.527
v 0.496 1.022 -0.528
v 0.578 0.89 -0.524
v 0.746 0.194 -0.543
v 0.585 0.894 -0.556
v 0.585 0.896 -0.525
v 0.76 0.194 -0.545
v 0.272 1.081 -0.956
v 0.269 1.1 -0.956
v 0.502 1.06 -0.956
v 0.49 1.049 -0.956
v 0.39 0.371 1.602
v 0.382 0.52 1.549
v 0.387 0.414 1.587
v 0.384 0.486 1.561
v 0.617 0.46 1.436
v 0.575 0.518 1.5
v 0.638 0.413 1.462
v 0.517 0.377 1.568
v 0.587 0.377 1.513
v 0.399 0.417 1.58
v 0.396 0.483 1.556
v 0.609 0.456 1.427
v 0.567 0.514 1.491
v 0.63 0.409 1.453
v 0.509 0.373 1.559
v 0.579 0.373 1.504
v 0.391 0.413 1.571
v 0.387 0.479 1.547
v 0.459 0.764 -1.418
v 0.469 0.569 -1.489
v 0.598 0.546 -1.4
v 0.586 0.734 -1.39
v 0.477 0.734 -1.423
v 0.46 0.565 -1.473
v 0.59 0.542 -1.383
v 0.578 0.73 -1.374
v 0.469 0.73 -1.407
v 0.239 0.392 -1.607
v 0.239 0.538 -1.573
v 0.238 0.388 -1.586
v 0.238 0.533 -1.552
v 0.227 0.222 1.631
v 0.227 0.344 1.631
v 0.226 0.222 1.607
v 0.226 0.344 1.607
v -0.619 0.372 -1.382
v -0.619 0.517 -1.388
v -0.746 0.372 -0.058
v -0.746 0.596 -0.061
v 0 0.372 -1.633
v 0 0.558 -1.59
v -0.269 0.558 -1.565
v -0.448 0.547 -1.505
v -0.448 0.372 -1.548
v -0.269 0.372 -1.609
v -0.672 0.745 -0.078
v -0.707 0.527 1.303
v -0.701 0.372 1.326
v -0.269 0.517 1.577
v -0 0.517 1.586
v -0 0.372 1.638
v -0.269 0.372 1.629
v -0.581 0.525 1.5
v -0.74 0.544 1.004
v -0.739 0.589 0.742
v -0.746 0.595 0.23
v -0.672 0.745 0.26
v -0.65 0.745 0.724
v -0.622 0.714 1.057
v -0 0.741 0.812
v -0.283 0.704 1.115
v -0.347 0.741 0.806
v -0.746 0.372 0.22
v -0.739 0.368 0.735
v -0.746 0.532 0.895
v -0.638 0.728 0.922
v -0.328 0.73 0.936
v -0.746 0.372 0.77
v -0.746 0.372 -0.579
v -0.746 0.604 -0.574
v -0.672 0.745 -0.579
v -0.744 0.371 -0.639
v -0.744 0.584 -0.722
v -0.634 0.745 -0.973
v -0.74 0.161 -0.682
v -0.7 0.485 -1.12
v 0 0.747 -1.355
v -0.613 0.747 -1.297
v -0.269 0.747 -1.343
v -0.251 0.599 1.504
v -0 0.597 1.504
v -0.6 0.607 1.421
v -0.699 0.46 -1.105
v -0.619 0.272 -1.382
v -0.507 0.143 -0.103
v -0.746 0.143 -0.103
v -0.269 0.287 -1.609
v 0 0.287 -1.633
v -0 0.223 -1.198
v -0 0.143 -0.103
v -0.269 0.143 -0.103
v -0.448 0.287 -1.548
v -0.494 0.223 -1.155
v -0.288 0.223 -1.185
v -0.69 0.148 1.36
v -0 0.143 1.638
v -0.269 0.143 1.629
v -0.507 0.143 0.26
v -0.272 0.148 1.36
v -0 0.143 0.279
v -0.746 0.143 0.167
v -0.739 0.143 0.652
v -0.746 0.148 0.726
v -0.503 0.148 1.36
v -0.507 0.148 0.726
v -0.507 0.143 0.632
v -0.269 0.143 0.277
v -0.269 0.143 0.666
v -0.269 0.148 0.726
v -0 0.148 1.36
v -0 0.148 0.726
v -0 0.143 0.671
v -0.746 0.143 -0.579
v -0 0.143 -0.579
v -0.507 0.143 -0.579
v -0.269 0.143 -0.579
v -0.744 0.146 -0.639
v -0 0.146 -0.639
v -0.527 0.146 -0.639
v -0.288 0.146 -0.639
v -0.732 0.526 1.214
v -0.269 0.676 1.282
v -0.615 0.69 1.197
v -0.731 0.498 1.214
v -0.705 0.347 1.28
v -0.737 0.486 1.003
v -0.743 0.441 0.864
v -0.743 0.347 0.814
v -0.696 0.148 1.308
v -0.743 0.148 0.777
v -0.73 0.441 1.194
v -0.511 0.347 1.28
v -0.563 0.491 1.003
v -0.549 0.441 0.864
v -0.549 0.347 0.814
v -0.502 0.148 1.308
v -0.549 0.148 0.777
v -0.536 0.441 1.194
v -0.269 1.117 -0.153
v -0 1.117 -0.153
v -0 1.113 -0.554
v -0.481 1.084 -0.154
v -0.486 1.065 -0.563
v -0.269 1.108 -0.554
v -0.269 1.092 0.237
v -0.478 1.06 0.22
v -0.567 0.908 0.462
v -0 1.107 0.239
v -0.662 0.763 -0.04
v -0.662 0.763 0.234
v -0 1.1 -0.882
v -0.502 1.06 -0.889
v -0.269 1.1 -0.882
v -0.591 0.914 -0.108
v -0.575 0.874 -0.932
v -0.603 0.764 -1.375
v 0 0.764 -1.491
v -0.269 0.764 -1.475
v -0.654 0.758 0.233
v -0 0.761 0.771
v -0.355 0.761 0.767
v -0.613 0.761 0.694
v -0.635 0.758 0.639
v -0.54 0.908 0.463
v -0.457 1.041 0.26
v -0 1.088 0.341
v -0.277 1.073 0.317
v -0.643 0.763 0.64
v -0.59 0.911 -0.066
v -0.571 0.906 0.41
v -0.655 0.768 -0.561
v -0.488 1.038 0.209
v -0.495 1.056 -0.106
v -0.661 0.773 -0.561
v -0.662 0.772 -0.106
v -0.59 0.919 -0.134
v -0.629 0.772 -0.933
v -0.578 0.884 -0.894
v -0.513 0.99 -0.725
v -0.503 1.025 -0.557
v -0.501 1.065 -0.177
v -0.73 0.561 -0.912
v -0.74 0.417 -0.75
v -0.74 0.335 -0.693
v -0 0.183 -0.833
v -0.509 0.183 -0.82
v -0.288 0.183 -0.84
v -0.559 0.928 -1.022
v -0.677 0.322 -1.239
v -0.677 0.418 -1.203
v -0.677 0.227 -1.255
v 0 0.255 -1.436
v -0.463 0.255 -1.421
v -0.288 0.255 -1.417
v -0.728 0.497 -0.919
v -0.681 0.322 -1.201
v -0.681 0.403 -1.172
v -0.681 0.222 -1.217
v -0.524 0.162 -0.685
v -0.505 0.46 -1.105
v -0.524 0.417 -0.75
v -0.528 0.334 -0.697
v -0.515 0.497 -0.919
v -0.495 0.291 -1.197
v -0.499 0.403 -1.172
v -0.487 0.228 -1.217
v -0 0.749 0.765
v -0.522 0.337 -0.795
v -0.522 0.36 -0.787
v -0 0.896 0.535
v -0.503 0.337 -1.118
v -0.504 0.425 -1.101
v -0.355 0.749 0.761
v -0.613 0.749 0.688
v -0.331 0.896 0.53
v -0.54 0.896 0.457
v -0.457 1.029 0.254
v -0 1.076 0.335
v -0.277 1.061 0.311
v -0.654 0.758 -0.041
v -0.582 0.906 -0.067
v -0.563 0.901 0.41
v -0.579 0.908 0.179
v -0.48 1.033 0.209
v -0.488 1.049 -0.107
v -0.655 0.768 -0.106
v -0.582 0.915 -0.134
v -0.622 0.768 -0.932
v -0.578 0.888 -0.555
v -0.57 0.88 -0.893
v -0.506 0.984 -0.724
v -0.496 1.019 -0.556
v -0.494 1.059 -0.176
v -0.272 1.091 -0.903
v -0 1.091 -0.903
v -0.544 0.925 -1.029
v -0.49 1.049 -0.909
v -0.566 0.813 -1.163
v -0.267 0.787 -1.212
v -0 0.787 -1.224
v -0.579 0.82 -1.15
v -0.65 0.409 1.458
v -0.627 0.462 1.429
v -0.635 0.145 1.423
v -0.692 0.198 1.354
v 0 0.311 -1.633
v -0.744 0.192 -0.638
v -0.746 0.194 -0.579
v -0.269 0.311 -1.609
v -0.448 0.311 -1.548
v -0.746 0.194 -0.095
v -0.746 0.194 0.177
v -0.739 0.193 0.668
v -0.746 0.198 0.734
v -0.619 0.299 -1.382
v -0.697 0.193 1.304
v -0.743 0.193 0.784
v -0.503 0.193 1.304
v -0.549 0.193 0.784
v -0.681 0.255 -1.216
v -0.74 0.205 -0.679
v -0.677 0.258 -1.253
v -0.489 0.254 -1.215
v -0.525 0.2 -0.683
v -0.496 0.253 -1.148
v -0.511 0.22 -0.815
v -0.637 0.196 1.42
v -0 0.194 1.638
v -0.269 0.194 1.629
v -0.76 0.194 0.176
v -0.76 0.143 0.166
v -0.76 0.198 0.734
v -0.76 0.148 0.725
v -0.76 0.143 -0.104
v -0.754 0.143 0.651
v -0.76 0.143 -0.58
v -0.758 0.146 -0.64
v -0.757 0.193 0.783
v -0.757 0.148 0.776
v -0.755 0.161 -0.683
v -0.758 0.192 -0.639
v -0.76 0.194 -0.58
v -0.76 0.194 -0.096
v -0.754 0.193 0.667
v -0.755 0.205 -0.68
v -0.716 0.198 1.376
v -0.714 0.147 1.381
v -0 0.194 1.66
v -0 0.143 1.66
v -0.66 0.145 1.445
v -0.293 0.143 1.651
v -0.722 0.193 1.326
v -0.72 0.147 1.33
v -0.661 0.196 1.442
v -0.293 0.194 1.651
v -0.461 0.311 -1.564
v -0.461 0.287 -1.564
v -0.69 0.225 -1.27
v -0.631 0.272 -1.398
v -0.282 0.287 -1.624
v 0 0.287 -1.649
v -0.694 0.221 -1.233
v -0.694 0.253 -1.231
v -0.69 0.257 -1.269
v 0 0.311 -1.649
v -0.282 0.311 -1.624
v -0.631 0.299 -1.398
v -0 0.727 0.947
v -0 0.703 1.118
v -0 0.681 1.297
v -0.517 0.37 1.573
v -0.594 0.371 1.514
v -0.589 0.144 1.524
v -0.512 0.143 1.582
v -0.512 0.194 1.582
v -0.589 0.195 1.524
v -0.536 0.143 1.604
v -0.614 0.144 1.546
v -0.614 0.195 1.546
v -0.536 0.194 1.604
v -0.657 0.686 0.708
v -0.657 0.713 0.708
v -0.647 0.686 0.689
v -0.647 0.713 0.689
v -0.709 0.679 0.681
v -0.709 0.72 0.681
v -0.682 0.679 0.635
v -0.682 0.72 0.635
v -0.786 0.72 0.527
v -0.765 0.679 0.55
v -0.798 0.679 0.59
v -0.819 0.72 0.567
v -0.769 0.76 0.546
v -0.802 0.76 0.585
v -0.761 0.72 0.641
v -0.734 0.72 0.595
v -0.734 0.679 0.595
v -0.761 0.679 0.641
v -0.761 0.767 0.641
v -0.734 0.767 0.595
v -0.679 0.686 0.667
v -0.679 0.713 0.667
v -0.689 0.686 0.686
v -0.689 0.713 0.686
v -0.682 0.758 0.635
v -0.693 0.772 0.627
v -0.72 0.772 0.672
v -0.709 0.758 0.681
v -0.272 0.919 -1.044
v -0.272 1.085 -0.9
v -0 0.919 -1.051
v -0 1.085 -0.9
v -0.544 0.919 -1.026
v -0.49 1.042 -0.907
v -0.565 0.806 -1.16
v -0.267 0.78 -1.209
v -0 0.78 -1.221
v -0.76 0.599 -0.061
v -0.76 0.375 -0.058
v -0.686 0.748 -0.078
v -0.758 0.194 -0.095
v -0.746 0.608 -0.537
v -0.672 0.745 -0.542
v -0.746 0.372 -0.54
v -0 1.114 -0.524
v -0.485 1.067 -0.533
v -0.269 1.11 -0.524
v -0.662 0.772 -0.528
v -0.503 1.028 -0.529
v -0.655 0.768 -0.527
v -0.496 1.022 -0.528
v -0.578 0.89 -0.524
v -0.746 0.194 -0.543
v -0.585 0.894 -0.556
v -0.585 0.896 -0.525
v -0.76 0.194 -0.545
v -0.272 1.081 -0.956
v -0.269 1.1 -0.956
v -0.502 1.06 -0.956
v -0 1.1 -0.956
v -0.49 1.049 -0.956
v -0 1.081 -0.956
v -0.39 0.371 1.602
v -0.382 0.52 1.549
v -0.387 0.414 1.587
v -0.384 0.486 1.561
v -0.617 0.46 1.436
v -0.575 0.518 1.5
v -0.638 0.413 1.462
v -0.517 0.377 1.568
v -0.587 0.377 1.513
v -0.399 0.417 1.58
v -0.396 0.483 1.556
v -0.609 0.456 1.427
v -0.567 0.514 1.491
v -0.63 0.409 1.453
v -0.509 0.373 1.559
v -0.579 0.373 1.504
v -0.391 0.413 1.571
v -0.387 0.479 1.547
v -0.459 0.764 -1.418
v -0.469 0.569 -1.489
v -0.598 0.546 -1.4
v -0.586 0.734 -1.39
v -0.477 0.734 -1.423
v -0.46 0.565 -1.473
v -0.59 0.542 -1.383
v -0.578 0.73 -1.374
v -0.469 0.73 -1.407
v -0.239 0.392 -1.607
v 0 0.392 -1.626
v 0 0.538 -1.592
v -0.239 0.538 -1.573
v -0.238 0.388 -1.586
v 0 0.388 -1.605
v 0 0.533 -1.571
v -0.238 0.533 -1.552
v -0.227 0.222 1.631
v -0.227 0.344 1.631
v -0 0.344 1.637
v -0 0.222 1.637
v -0.226 0.222 1.607
v -0.226 0.344 1.607
v -0 0.344 1.613
v -0 0.222 1.613
usemtl LightBlue
f 7 6 2 1
f 286 284 4 3
f 610 21 27 609
f 69 71 40 10
f 38 101 458 378
f 36 130 2 100 37
f 342 5 330 713
f 8 5 6 7
f 39 303 14 40
f 71 70 39 40
f 3 4 280 281
f 23 17 16 24
f 38 378 541 174
f 93 19 109 111
f 26 27 21 20
f 17 18 19 16
f 25 26 20 15
f 361 22 103 461
f 16 19 26 25
f 19 22 27 26
f 24 16 25 28
f 284 30 31 285
f 32 33 30 29
f 98 9 116 117
f 30 33 34 31
f 19 93 106 104
f 36 123 134 41
f 129 130 136 135
f 88 98 117 122
f 123 36 34
f 9 98 110 94
f 39 382 351 12
f 10 40 177
f 237 176 308 310
f 201 13 334 333
f 127 68 419 486
f 123 33 124 134
f 126 138 68 127
f 11 72 69 10
f 20 21 70 71
f 15 20 71 69
f 611 70 21 610
f 69 72 15
f 72 11 73 79
f 25 15 74 75
f 28 25 75 76
f 15 72 79 74
f 187 28 76 190
f 189 77 84 191
f 79 73 80 86
f 190 76 83 192
f 75 74 81 82
f 74 79 86 81
f 76 75 82 83
f 191 192 83 80
f 86 82 81
f 80 83 82 86
f 412 62 53 411
f 62 85 84 53
f 88 87 91 92
f 22 19 104 103
f 87 441 449 91
f 93 92 107 106
f 287 89 90 288
f 288 90 442 666
f 89 96 97 90
f 90 97 452 442
f 96 128 171 172
f 285 31 115 289
f 34 99 119 118
f 18 9 94 95
f 92 93 111 113
f 458 101 5 342
f 101 320 6 5
f 6 320 324 321
f 461 103 150 508
f 104 106 153 151
f 107 108 155 154
f 108 467 519 155
f 91 449 467 108
f 92 91 108 107
f 109 95 102 105
f 94 110 157 156
f 95 94 156 102
f 113 111 158 160
f 19 18 95 109
f 88 92 113 114
f 98 88 114 110
f 122 117 163 169
f 115 118 164 112
f 119 120 167 166
f 99 96 120 119
f 96 89 121 120
f 287 88 122 290
f 31 34 118 115
f 48 126 127 49
f 33 32 125 124
f 49 127 486 390
f 33 123 34
f 130 36 41 136
f 195 129 135 193
f 37 38 174 173
f 99 128 96
f 99 34 175
f 1 2 130 129
f 135 136 144 143
f 124 125 141 140
f 134 124 140 142
f 41 134 142 139
f 193 135 143 196
f 136 41 139 144
f 196 143 148 198
f 140 139 142
f 141 146 147
f 144 139 149
f 147 146 148 149
f 147 140 141
f 199 146 141 197
f 149 148 143 144
f 149 139 140 147
f 198 148 146 199
f 106 107 154 153
f 103 104 151 150
f 110 114 161 157
f 114 113 160 161
f 111 109 105 158
f 165 168 121 295
f 293 291 289 296
f 290 122 169 292
f 117 116 162 163
f 118 119 166 164
f 120 121 168 167
f 172 171 276 277
f 174 541 658 279
f 536 170 275 653
f 173 174 279 278
f 128 175 173 171
f 173 175 37
f 175 128 99
f 175 34 37
f 176 237 241 200
f 11 10 177 176
f 11 176 200 179
f 48 198 199 126
f 126 199 197 138
f 145 196 198 48
f 125 194 197 141
f 1 129 195 188
f 84 85 192 191
f 73 189 191 80
f 11 179 189 73
f 32 180 194 125
f 8 7 183 182
f 24 28 187 186
f 184 3 281 283
f 23 24 186 185
f 341 8 182 547
f 286 3 184 294
f 32 29 181 180
f 7 1 188 183
f 609 27 22 361
f 382 39 70 611
f 241 237 236 240
f 246 247 249 248
f 266 267 253 252
f 260 257 259 264
f 268 269 247 246
f 266 252 250 268
f 267 249 247 269
f 255 254 257 256
f 262 261 254 255
f 260 263 256 257
f 263 262 255 256
f 265 264 259 258
f 257 254 258 259
f 251 260 264 272 273
f 253 251 273 270
f 254 261 265 258
f 261 253 270 271 265
f 250 252 262 263
f 251 250 263 260
f 252 253 261 262
f 253 267 269 251
f 248 266 268 246
f 250 251 269 268
f 248 249 267 266
f 270 273 272 271
f 271 272 264 265
f 171 173 278 276
f 170 172 277 275
f 177 40 14
f 236 302 201 240
f 177 14 307 306
f 305 304 311 312
f 18 17 280 282
f 23 185 283 281
f 4 9 282 280
f 9 18 282
f 17 23 281 280
f 351 352 13 12
f 29 286 294 181
f 89 287 290 121
f 116 289 291 162
f 9 285 289 116
f 87 288 666 441
f 88 287 288 87
f 4 284 285 9
f 29 30 284 286
f 289 115 295 296
f 296 295 121 290
f 112 165 295 115
f 292 293 296 290
f 34 36 37
f 37 100 320 38
f 302 304 13
f 309 310 317 316
f 304 302 236
f 305 14 303
f 312 311 318 319
f 307 312 319 314
f 236 237 310 309
f 304 236 309 311
f 176 177 306 308
f 14 305 312 307
f 306 307 314 313
f 311 309 316 318
f 310 308 315 317
f 308 306 313 315
f 13 304 305 12
f 12 305 303
f 303 39 12
f 201 302 13
f 323 322 326 327
f 2 6 321 322
f 38 320 101
f 321 324 328 325
f 100 2 322 323
f 320 100 323 324
f 322 321 325 326
f 324 323 327 328
f 713 330 332 717
f 8 341 712 329
f 5 8 329 330
f 329 712 716 331
f 330 329 331 332
f 13 352 721 334
f 333 334 336 335
f 334 721 725 336
f 345 337 338 344
f 665 339 340 663
f 610 609 368 362
f 422 348 383 424
f 380 378 458 459
f 377 379 457 338 491
f 342 713 714 343
f 346 345 344 343
f 381 383 354 685
f 424 383 381 423
f 339 660 659 340
f 364 365 356 357
f 380 540 541 378
f 448 471 469 359
f 367 360 362 368
f 357 356 359 358
f 366 355 360 367
f 361 461 462 363
f 356 366 367 359
f 359 367 368 363
f 365 369 366 356
f 663 664 372 371
f 373 370 371 374
f 455 477 476 347
f 371 372 375 374
f 359 463 465 448
f 377 384 496 483
f 490 497 498 491
f 443 482 477 455
f 483 375 377
f 347 450 470 455
f 381 350 351 382
f 348 544 383
f 613 692 690 543
f 570 719 720 353
f 488 486 419 421
f 483 496 484 374
f 487 488 421 500
f 349 348 422 425
f 360 424 423 362
f 355 422 424 360
f 611 610 362 423
f 422 355 425
f 425 432 426 349
f 366 428 427 355
f 369 429 428 366
f 355 427 432 425
f 555 558 429 369
f 557 559 437 430
f 432 439 433 426
f 558 560 436 429
f 428 435 434 427
f 427 434 439 432
f 429 436 435 428
f 559 433 436 560
f 439 434 435
f 433 439 435 436
f 412 411 400 410
f 410 400 437 438
f 443 447 446 440
f 363 462 463 359
f 440 446 449 441
f 448 465 466 447
f 667 668 445 444
f 668 666 442 445
f 444 445 454 453
f 445 442 452 454
f 453 538 537 489
f 664 669 475 372
f 375 478 479 456
f 358 451 450 347
f 447 473 471 448
f 458 342 343 459
f 459 343 344 702
f 344 703 706 702
f 461 508 514 462
f 463 515 517 465
f 466 518 520 468
f 468 520 519 467
f 446 468 467 449
f 447 466 468 446
f 469 464 460 451
f 450 521 522 470
f 451 460 521 450
f 473 525 523 471
f 359 469 451 358
f 443 474 473 447
f 455 470 474 443
f 482 534 528 477
f 475 472 529 478
f 479 531 532 480
f 456 479 480 453
f 453 480 481 444
f 667 670 482 443
f 372 475 478 375
f 394 395 488 487
f 374 484 485 373
f 395 390 486 488
f 374 375 483
f 491 498 384 377
f 563 561 497 490
f 379 539 540 380
f 456 453 489
f 456 542 375
f 337 490 491 338
f 497 505 506 498
f 484 502 503 485
f 496 504 502 484
f 384 501 504 496
f 561 564 505 497
f 498 506 501 384
f 564 566 512 505
f 502 504 501
f 503 510 509
f 506 513 501
f 510 513 512 509
f 510 503 502
f 567 565 503 509
f 513 506 505 512
f 513 510 502 501
f 566 567 509 512
f 465 517 518 466
f 462 514 515 463
f 470 522 526 474
f 474 526 525 473
f 471 523 464 469
f 530 675 481 533
f 673 676 669 671
f 670 672 534 482
f 477 528 527 476
f 478 529 531 479
f 480 532 533 481
f 538 655 654 537
f 540 657 658 541
f 536 653 651 535
f 539 656 657 540
f 489 537 539 542
f 539 379 542
f 542 456 489
f 542 379 375
f 543 568 617 613
f 349 543 544 348
f 349 546 568 543
f 394 487 567 566
f 487 500 565 567
f 507 394 566 564
f 485 503 565 562
f 337 556 563 490
f 437 559 560 438
f 426 433 559 557
f 349 426 557 546
f 373 485 562 548
f 346 550 551 345
f 365 554 555 369
f 552 662 660 339
f 364 553 554 365
f 341 547 550 346
f 665 674 552 339
f 373 548 549 370
f 345 551 556 337
f 609 361 363 368
f 382 611 423 381
f 617 616 612 613
f 622 624 625 623
f 642 628 629 643
f 636 640 635 633
f 644 622 623 645
f 642 644 626 628
f 643 645 623 625
f 631 632 633 630
f 638 631 630 637
f 636 633 632 639
f 639 632 631 638
f 641 634 635 640
f 633 635 634 630
f 627 649 648 640 636
f 629 646 649 627
f 630 634 641 637
f 637 641 647 646 629
f 626 639 638 628
f 627 636 639 626
f 628 638 637 629
f 629 627 645 643
f 624 622 644 642
f 626 644 645 627
f 624 642 643 625
f 646 647 648 649
f 647 641 640 648
f 537 654 656 539
f 535 651 655 538
f 544 354 383
f 612 616 570 684
f 544 688 689 354
f 687 694 693 686
f 358 661 659 357
f 364 660 662 553
f 340 659 661 347
f 347 661 358
f 357 659 660 364
f 351 350 353 352
f 370 549 674 665
f 444 481 670 667
f 476 527 671 669
f 347 476 669 664
f 440 441 666 668
f 443 440 668 667
f 340 347 664 663
f 370 665 663 371
f 669 676 675 475
f 676 670 481 675
f 472 475 675 530
f 672 670 676 673
f 375 379 377
f 379 380 702 457
f 684 353 686
f 691 698 699 692
f 686 612 684
f 687 685 354
f 694 701 700 693
f 689 696 701 694
f 612 691 692 613
f 686 693 691 612
f 543 690 688 544
f 354 689 694 687
f 688 695 696 689
f 693 700 698 691
f 692 699 697 690
f 690 697 695 688
f 353 350 687 686
f 350 685 687
f 685 350 381
f 570 353 684
f 705 709 708 704
f 338 704 703 344
f 380 459 702
f 703 707 710 706
f 457 705 704 338
f 702 706 705 457
f 704 708 707 703
f 706 710 709 705
f 713 717 718 714
f 346 711 712 341
f 343 714 711 346
f 711 715 716 712
f 714 718 715 711
f 353 720 721 352
f 719 723 724 720
f 720 724 725 721
usemtl Windows
f 508 150 152 511
f 150 151 153 152
f 154 155 152 153
f 155 519 511 152
f 102 156 157 159
f 105 102 159 158
f 159 157 161 160
f 158 159 160
f 112 164 166 165
f 165 166 167
f 167 168 165
f 276 274 275 277
f 274 652 653 275
f 279 658 652 274
f 278 279 274 276
f 163 293 292 169
f 162 291 293 163
f 508 511 516 514
f 514 516 517 515
f 518 517 516 520
f 520 516 511 519
f 460 524 522 521
f 464 523 524 460
f 524 525 526 522
f 523 525 524
f 472 530 531 529
f 530 532 531
f 532 530 533
f 654 655 651 650
f 650 651 653 652
f 657 650 652 658
f 656 654 650 657
f 528 534 672 673
f 527 528 673 671
usemtl Black
f 170 536 683 298
f 96 172 301 300
f 299 300 301 298
f 681 299 298 683
f 97 96 300 299
f 452 97 299 681
f 172 170 298 301
f 535 678 683 536
f 453 680 682 538
f 679 678 682 680
f 681 683 678 679
f 454 679 680 453
f 452 681 679 454
f 538 682 678 535
usemtl Grey
f 716 717 332 331
f 336 725 726 335
f 716 715 718 717
f 724 723 726 725
usemtl Headlights
f 316 314 319 318
f 315 313 314 317
f 317 314 316
f 698 700 701 696
f 697 699 696 695
f 699 698 696
usemtl Material.007
f 185 184 283
f 195 193 232 233
f 44 63 208 206
f 186 187 204 216
f 131 42 229 228
f 200 241 244 224
f 63 66 209 208
f 180 181 214 213
f 194 180 213 217
f 51 239 242 221
f 137 131 228 231
f 65 46 391 415
f 63 44 43 64
f 64 43 46 65
f 46 43 52 60
f 60 52 59 61
f 391 46 60 401
f 401 60 61 413
f 43 44 54 52
f 52 54 55 59
f 59 55 56 58
f 413 61 62 412
f 61 59 58 62
f 67 64 65 68
f 66 63 64 67
f 68 65 415 419
f 132 145 133
f 181 294 297 214
f 133 49 390 493
f 238 178 220 243
f 57 50 178 238
f 411 53 51 397
f 179 200 224 218
f 57 84 77 50
f 56 78 85 58
f 58 85 62
f 53 84 57
f 45 133 493 389
f 42 132 47
f 47 132 133 45
f 42 47 227 229
f 132 42 131
f 194 35 138 197
f 67 138 35 66
f 137 145 132 131
f 68 138 67
f 133 145 48 49
f 178 50 219 220
f 137 193 196 145
f 188 195 233 235
f 78 190 192 85
f 55 54 203 207
f 213 214 208 209
f 77 189 222 223
f 201 569 589 225
f 214 297 208
f 202 216 207 203
f 215 202 203 206
f 216 204 205 207
f 213 209 212 217
f 205 204 210 211
f 35 194 217 212
f 184 185 202 283
f 185 186 216 202
f 66 35 212 209
f 190 78 211 210
f 56 55 207 205
f 54 44 206 203
f 187 190 210 204
f 78 56 205 211
f 218 219 223 222
f 218 224 220 219
f 224 244 243 220
f 225 589 590 221
f 397 51 221 590
f 50 77 223 219
f 240 201 225 245
f 245 225 221 242
f 53 57 239 51
f 189 179 218 222
f 226 235 229 227
f 606 234 230 602
f 234 226 227 230
f 235 233 228 229
f 228 233 232 231
f 47 45 230 227
f 182 183 226 234
f 193 137 231 232
f 183 188 235 226
f 547 182 234 606
f 45 389 602 230
f 238 239 57
f 243 244 245 242
f 242 239 238 243
f 240 245 244 241
f 283 202 215
f 208 297 215 206
f 297 294 184 283 215
f 722 333 335 726
f 569 201 333 722
f 553 662 552
f 563 605 604 561
f 387 575 577 414
f 554 585 573 555
f 492 599 600 385
f 568 595 620 617
f 414 577 578 418
f 548 582 583 549
f 562 586 582 548
f 398 592 618 615
f 499 603 599 492
f 417 415 391 392
f 414 416 386 387
f 416 417 392 386
f 392 408 399 386
f 408 409 407 399
f 391 401 408 392
f 401 413 409 408
f 386 399 402 387
f 399 407 403 402
f 407 406 404 403
f 413 412 410 409
f 409 410 406 407
f 420 421 417 416
f 418 420 416 414
f 421 419 415 417
f 494 495 507
f 549 583 677 674
f 495 493 390 395
f 614 619 591 545
f 405 614 545 396
f 411 397 398 400
f 546 587 595 568
f 405 396 430 437
f 404 406 438 431
f 406 410 438
f 400 405 437
f 388 389 493 495
f 385 393 494
f 393 388 495 494
f 385 600 598 393
f 494 492 385
f 562 565 500 376
f 420 418 376 500
f 499 492 494 507
f 421 420 500
f 495 395 394 507
f 545 591 588 396
f 499 507 564 561
f 556 608 605 563
f 431 438 560 558
f 403 576 572 402
f 582 578 577 583
f 430 594 593 557
f 570 596 589 569
f 583 577 677
f 571 572 576 585
f 584 575 572 571
f 585 576 574 573
f 582 586 581 578
f 574 580 579 573
f 376 581 586 562
f 552 662 571 553
f 553 571 585 554
f 418 578 581 376
f 558 579 580 431
f 404 574 576 403
f 402 572 575 387
f 555 573 579 558
f 431 580 574 404
f 587 593 594 588
f 587 588 591 595
f 595 591 619 620
f 596 592 590 589
f 397 590 592 398
f 396 588 594 430
f 616 621 596 570
f 621 618 592 596
f 400 398 615 405
f 557 593 587 546
f 597 598 600 608
f 606 602 601 607
f 607 601 598 597
f 608 600 599 605
f 599 603 604 605
f 393 598 601 388
f 550 607 597 551
f 561 604 603 499
f 551 597 608 556
f 547 606 607 550
f 388 601 602 389
f 614 405 615
f 619 618 621 620
f 618 619 614 615
f 616 617 620 621
f 662 584 571
f 577 575 584 677
f 677 584 662 552 674
f 722 726 723 719
f 569 722 719 570
usemtl TailLights
f 327 326 325
f 325 328 327
f 709 707 708
f 707 709 710
o NormalCar2_BackWheels_Cylinder.003
v 0.569 0.219 -1.203
v 0.721 0.219 -1.203
v 0.569 0.095 -1.17
v 0.721 0.095 -1.17
v 0.569 0.005 -1.079
v 0.721 0.005 -1.079
v 0.569 -0.028 -0.955
v 0.721 -0.028 -0.955
v 0.569 0.005 -0.832
v 0.721 0.005 -0.832
v 0.569 0.095 -0.741
v 0.721 0.095 -0.741
v 0.569 0.219 -0.708
v 0.721 0.219 -0.708
v 0.569 0.343 -0.741
v 0.721 0.343 -0.741
v 0.569 0.434 -0.832
v 0.721 0.434 -0.832
v 0.569 0.467 -0.955
v 0.721 0.467 -0.955
v 0.569 0.434 -1.079
v 0.721 0.434 -1.079
v 0.569 0.343 -1.17
v 0.721 0.343 -1.17
v 0.749 0.125 -1.118
v 0.749 0.219 -1.143
v 0.749 0.057 -1.049
v 0.749 0.032 -0.955
v 0.749 0.057 -0.862
v 0.749 0.125 -0.793
v 0.749 0.219 -0.768
v 0.749 0.313 -0.793
v 0.749 0.381 -0.862
v 0.749 0.407 -0.955
v 0.749 0.381 -1.049
v 0.749 0.313 -1.118
v 0.749 0.137 -1.097
v 0.749 0.219 -1.119
v 0.749 0.077 -1.037
v 0.749 0.056 -0.955
v 0.749 0.077 -0.874
v 0.749 0.137 -0.814
v 0.749 0.219 -0.792
v 0.749 0.301 -0.814
v 0.749 0.361 -0.874
v 0.749 0.383 -0.955
v 0.749 0.361 -1.037
v 0.749 0.301 -1.097
v 0.727 0.137 -1.097
v 0.727 0.219 -1.119
v 0.727 0.077 -1.037
v 0.727 0.056 -0.955
v 0.727 0.077 -0.874
v 0.727 0.137 -0.814
v 0.727 0.219 -0.792
v 0.727 0.301 -0.814
v 0.727 0.361 -0.874
v 0.727 0.383 -0.955
v 0.727 0.361 -1.037
v 0.727 0.301 -1.097
v 0.729 0.196 -0.995
v 0.729 0.219 -1.001
v 0.729 0.179 -0.978
v 0.729 0.173 -0.955
v 0.729 0.179 -0.932
v 0.729 0.196 -0.916
v 0.729 0.219 -0.91
v 0.729 0.242 -0.916
v 0.729 0.259 -0.932
v 0.729 0.265 -0.955
v 0.729 0.259 -0.978
v 0.729 0.242 -0.995
v 0.737 0.205 -0.98
v 0.737 0.219 -0.984
v 0.737 0.194 -0.97
v 0.737 0.191 -0.955
v 0.737 0.194 -0.941
v 0.737 0.205 -0.931
v 0.737 0.219 -0.927
v 0.737 0.233 -0.931
v 0.737 0.244 -0.941
v 0.737 0.248 -0.955
v 0.737 0.244 -0.97
v 0.737 0.233 -0.98
v 0.727 0.211 -0.803
v 0.727 0.146 -0.82
v 0.726 0.213 -0.899
v 0.726 0.193 -0.904
v 0.727 0.293 -0.82
v 0.727 0.227 -0.803
v 0.726 0.245 -0.904
v 0.726 0.225 -0.899
v 0.727 0.35 -0.873
v 0.727 0.302 -0.825
v 0.726 0.267 -0.922
v 0.726 0.252 -0.908
v 0.727 0.372 -0.947
v 0.727 0.354 -0.882
v 0.726 0.275 -0.949
v 0.726 0.27 -0.929
v 0.727 0.302 -1.086
v 0.727 0.35 -1.038
v 0.726 0.252 -1.003
v 0.726 0.267 -0.988
v 0.727 0.354 -1.029
v 0.727 0.372 -0.964
v 0.726 0.27 -0.981
v 0.726 0.275 -0.962
v 0.727 0.227 -1.108
v 0.727 0.293 -1.091
v 0.726 0.225 -1.012
v 0.726 0.245 -1.006
v 0.727 0.146 -1.091
v 0.727 0.211 -1.108
v 0.726 0.193 -1.006
v 0.726 0.213 -1.012
v 0.727 0.088 -1.038
v 0.727 0.136 -1.086
v 0.726 0.172 -0.988
v 0.726 0.186 -1.003
v 0.727 0.066 -0.964
v 0.727 0.084 -1.029
v 0.726 0.163 -0.962
v 0.726 0.168 -0.981
v 0.727 0.084 -0.882
v 0.727 0.066 -0.947
v 0.726 0.168 -0.929
v 0.726 0.163 -0.949
v 0.727 0.136 -0.825
v 0.727 0.088 -0.873
v 0.726 0.186 -0.908
v 0.726 0.172 -0.922
v 0.688 0.211 -0.803
v 0.688 0.146 -0.82
v 0.696 0.213 -0.899
v 0.696 0.193 -0.904
v 0.688 0.293 -0.82
v 0.688 0.227 -0.803
v 0.696 0.245 -0.904
v 0.696 0.225 -0.899
v 0.688 0.35 -0.873
v 0.688 0.302 -0.825
v 0.696 0.267 -0.922
v 0.696 0.252 -0.908
v 0.688 0.372 -0.947
v 0.688 0.354 -0.882
v 0.696 0.275 -0.949
v 0.696 0.27 -0.929
v 0.688 0.302 -1.086
v 0.688 0.35 -1.038
v 0.696 0.252 -1.003
v 0.696 0.267 -0.988
v 0.688 0.354 -1.029
v 0.688 0.372 -0.964
v 0.696 0.27 -0.981
v 0.696 0.275 -0.962
v 0.688 0.227 -1.108
v 0.688 0.293 -1.091
v 0.696 0.225 -1.012
v 0.696 0.245 -1.006
v 0.688 0.146 -1.091
v 0.688 0.211 -1.108
v 0.696 0.193 -1.006
v 0.696 0.213 -1.012
v 0.688 0.088 -1.038
v 0.688 0.136 -1.086
v 0.696 0.172 -0.988
v 0.696 0.186 -1.003
v 0.688 0.066 -0.964
v 0.688 0.084 -1.029
v 0.696 0.163 -0.962
v 0.696 0.168 -0.981
v 0.688 0.084 -0.882
v 0.688 0.066 -0.947
v 0.696 0.168 -0.929
v 0.696 0.163 -0.949
v 0.688 0.136 -0.825
v 0.688 0.088 -0.873
v 0.696 0.186 -0.908
v 0.696 0.172 -0.922
v 0.731 0.195 -0.921
v 0.731 0.185 -0.931
v 0.735 0.2 -0.93
v 0.735 0.194 -0.936
v 0.731 0.185 -0.98
v 0.731 0.195 -0.99
v 0.735 0.194 -0.975
v 0.735 0.2 -0.981
v 0.731 0.244 -0.99
v 0.731 0.254 -0.98
v 0.735 0.239 -0.981
v 0.735 0.245 -0.975
v 0.731 0.254 -0.931
v 0.731 0.244 -0.921
v 0.735 0.245 -0.936
v 0.735 0.239 -0.93
v 0.715 0.195 -0.921
v 0.715 0.185 -0.931
v 0.719 0.2 -0.93
v 0.719 0.194 -0.936
v 0.715 0.185 -0.98
v 0.715 0.195 -0.99
v 0.719 0.194 -0.975
v 0.719 0.2 -0.981
v 0.715 0.244 -0.99
v 0.715 0.254 -0.98
v 0.719 0.239 -0.981
v 0.719 0.245 -0.975
v 0.715 0.254 -0.931
v 0.715 0.244 -0.921
v 0.719 0.245 -0.936
v 0.719 0.239 -0.93
v -0.567 0.219 -1.203
v -0.72 0.219 -1.203
v -0.567 0.095 -1.17
v -0.72 0.095 -1.17
v -0.567 0.005 -1.079
v -0.72 0.005 -1.079
v -0.567 -0.028 -0.955
v -0.72 -0.028 -0.955
v -0.567 0.005 -0.832
v -0.72 0.005 -0.832
v -0.567 0.095 -0.741
v -0.72 0.095 -0.741
v -0.567 0.219 -0.708
v -0.72 0.219 -0.708
v -0.567 0.343 -0.741
v -0.72 0.343 -0.741
v -0.567 0.434 -0.832
v -0.72 0.434 -0.832
v -0.567 0.467 -0.955
v -0.72 0.467 -0.955
v -0.567 0.434 -1.079
v -0.72 0.434 -1.079
v -0.567 0.343 -1.17
v -0.72 0.343 -1.17
v -0.748 0.125 -1.118
v -0.748 0.219 -1.143
v -0.748 0.057 -1.049
v -0.748 0.032 -0.955
v -0.748 0.057 -0.862
v -0.748 0.125 -0.793
v -0.748 0.219 -0.768
v -0.748 0.313 -0.793
v -0.748 0.381 -0.862
v -0.748 0.407 -0.955
v -0.748 0.381 -1.049
v -0.748 0.313 -1.118
v -0.748 0.137 -1.097
v -0.748 0.219 -1.119
v -0.748 0.077 -1.037
v -0.748 0.056 -0.955
v -0.748 0.077 -0.874
v -0.748 0.137 -0.814
v -0.748 0.219 -0.792
v -0.748 0.301 -0.814
v -0.748 0.361 -0.874
v -0.748 0.383 -0.955
v -0.748 0.361 -1.037
v -0.748 0.301 -1.097
v -0.726 0.137 -1.097
v -0.726 0.219 -1.119
v -0.726 0.077 -1.037
v -0.726 0.056 -0.955
v -0.726 0.077 -0.874
v -0.726 0.137 -0.814
v -0.726 0.219 -0.792
v -0.726 0.301 -0.814
v -0.726 0.361 -0.874
v -0.726 0.383 -0.955
v -0.726 0.361 -1.037
v -0.726 0.301 -1.097
v -0.728 0.196 -0.995
v -0.728 0.219 -1.001
v -0.728 0.179 -0.978
v -0.728 0.173 -0.955
v -0.728 0.179 -0.932
v -0.728 0.196 -0.916
v -0.728 0.219 -0.91
v -0.728 0.242 -0.916
v -0.728 0.259 -0.932
v -0.728 0.265 -0.955
v -0.728 0.259 -0.978
v -0.728 0.242 -0.995
v -0.736 0.205 -0.98
v -0.736 0.219 -0.984
v -0.736 0.194 -0.97
v -0.736 0.191 -0.955
v -0.736 0.194 -0.941
v -0.736 0.205 -0.931
v -0.736 0.219 -0.927
v -0.736 0.233 -0.931
v -0.736 0.244 -0.941
v -0.736 0.248 -0.955
v -0.736 0.244 -0.97
v -0.736 0.233 -0.98
v -0.726 0.211 -0.803
v -0.726 0.146 -0.82
v -0.725 0.213 -0.899
v -0.725 0.193 -0.904
v -0.726 0.293 -0.82
v -0.726 0.227 -0.803
v -0.725 0.245 -0.904
v -0.725 0.225 -0.899
v -0.726 0.35 -0.873
v -0.726 0.302 -0.825
v -0.725 0.267 -0.922
v -0.725 0.252 -0.908
v -0.726 0.372 -0.947
v -0.726 0.354 -0.882
v -0.725 0.275 -0.949
v -0.725 0.27 -0.929
v -0.726 0.302 -1.086
v -0.726 0.35 -1.038
v -0.725 0.252 -1.003
v -0.725 0.267 -0.988
v -0.726 0.354 -1.029
v -0.726 0.372 -0.964
v -0.725 0.27 -0.981
v -0.725 0.275 -0.962
v -0.726 0.227 -1.108
v -0.726 0.293 -1.091
v -0.725 0.225 -1.012
v -0.725 0.245 -1.006
v -0.726 0.146 -1.091
v -0.726 0.211 -1.108
v -0.725 0.193 -1.006
v -0.725 0.213 -1.012
v -0.726 0.088 -1.038
v -0.726 0.136 -1.086
v -0.725 0.172 -0.988
v -0.725 0.186 -1.003
v -0.726 0.066 -0.964
v -0.726 0.084 -1.029
v -0.725 0.163 -0.962
v -0.725 0.168 -0.981
v -0.726 0.084 -0.882
v -0.726 0.066 -0.947
v -0.725 0.168 -0.929
v -0.725 0.163 -0.949
v -0.726 0.136 -0.825
v -0.726 0.088 -0.873
v -0.725 0.186 -0.908
v -0.725 0.172 -0.922
v -0.687 0.211 -0.803
v -0.687 0.146 -0.82
v -0.695 0.213 -0.899
v -0.695 0.193 -0.904
v -0.687 0.293 -0.82
v -0.687 0.227 -0.803
v -0.695 0.245 -0.904
v -0.695 0.225 -0.899
v -0.687 0.35 -0.873
v -0.687 0.302 -0.825
v -0.695 0.267 -0.922
v -0.695 0.252 -0.908
v -0.687 0.372 -0.947
v -0.687 0.354 -0.882
v -0.695 0.275 -0.949
v -0.695 0.27 -0.929
v -0.687 0.302 -1.086
v -0.687 0.35 -1.038
v -0.695 0.252 -1.003
v -0.695 0.267 -0.988
v -0.687 0.354 -1.029
v -0.687 0.372 -0.964
v -0.695 0.27 -0.981
v -0.695 0.275 -0.962
v -0.687 0.227 -1.108
v -0.687 0.293 -1.091
v -0.695 0.225 -1.012
v -0.695 0.245 -1.006
v -0.687 0.146 -1.091
v -0.687 0.211 -1.108
v -0.695 0.193 -1.006
v -0.695 0.213 -1.012
v -0.687 0.088 -1.038
v -0.687 0.136 -1.086
v -0.695 0.172 -0.988
v -0.695 0.186 -1.003
v -0.687 0.066 -0.964
v -0.687 0.084 -1.029
v -0.695 0.163 -0.962
v -0.695 0.168 -0.981
v -0.687 0.084 -0.882
v -0.687 0.066 -0.947
v -0.695 0.168 -0.929
v -0.695 0.163 -0.949
v -0.687 0.136 -0.825
v -0.687 0.088 -0.873
v -0.695 0.186 -0.908
v -0.695 0.172 -0.922
v -0.73 0.195 -0.921
v -0.73 0.185 -0.931
v -0.734 0.2 -0.93
v -0.734 0.194 -0.936
v -0.73 0.185 -0.98
v -0.73 0.195 -0.99
v -0.734 0.194 -0.975
v -0.734 0.2 -0.981
v -0.73 0.244 -0.99
v -0.73 0.254 -0.98
v -0.734 0.239 -0.981
v -0.734 0.245 -0.975
v -0.73 0.254 -0.931
v -0.73 0.244 -0.921
v -0.734 0.245 -0.936
v -0.734 0.239 -0.93
v -0.713 0.195 -0.921
v -0.713 0.185 -0.931
v -0.718 0.2 -0.93
v -0.718 0.194 -0.936
v -0.713 0.185 -0.98
v -0.713 0.195 -0.99
v -0.718 0.194 -0.975
v -0.718 0.2 -0.981
v -0.713 0.244 -0.99
v -0.713 0.254 -0.98
v -0.718 0.239 -0.981
v -0.718 0.245 -0.975
v -0.713 0.254 -0.931
v -0.713 0.244 -0.921
v -0.718 0.245 -0.936
v -0.718 0.239 -0.93
usemtl Black
f 727 728 730 729
f 729 730 732 731
f 731 732 734 733
f 733 734 736 735
f 735 736 738 737
f 737 738 740 739
f 739 740 742 741
f 741 742 744 743
f 743 744 746 745
f 745 746 748 747
f 740 738 756 757
f 747 748 750 749
f 749 750 728 727
f 727 729 731 733 735 737 739 741 743 745 747 749
f 757 756 768 769
f 738 736 755 756
f 736 734 754 755
f 728 750 762 752
f 730 728 752 751
f 734 732 753 754
f 750 748 761 762
f 732 730 751 753
f 748 746 760 761
f 746 744 759 760
f 744 742 758 759
f 742 740 757 758
f 772 771 783 784
f 754 753 765 766
f 761 760 772 773
f 758 757 769 770
f 755 754 766 767
f 762 761 773 774
f 751 752 764 763
f 759 758 770 771
f 756 755 767 768
f 752 762 774 764
f 753 751 763 765
f 760 759 771 772
f 769 768 780 781
f 766 765 777 778
f 773 772 784 785
f 770 769 781 782
f 767 766 778 779
f 774 773 785 786
f 763 764 776 775
f 771 770 782 783
f 768 767 779 780
f 764 774 786 776
f 765 763 775 777
f 859 860 862 861
f 863 864 866 865
f 867 868 870 869
f 871 872 874 873
f 875 876 878 877
f 879 880 882 881
f 883 884 886 885
f 887 888 890 889
f 891 892 894 893
f 895 896 898 897
f 899 900 902 901
f 903 904 906 905
f 923 924 926 925
f 927 928 930 929
f 931 932 934 933
f 935 936 938 937
f 939 941 942 940
f 941 943 944 942
f 943 945 946 944
f 945 947 948 946
f 947 949 950 948
f 949 951 952 950
f 951 953 954 952
f 953 955 956 954
f 955 957 958 956
f 957 959 960 958
f 952 969 968 950
f 959 961 962 960
f 961 939 940 962
f 939 961 959 957 955 953 951 949 947 945 943 941
f 969 981 980 968
f 950 968 967 948
f 948 967 966 946
f 940 964 974 962
f 942 963 964 940
f 946 966 965 944
f 962 974 973 960
f 944 965 963 942
f 960 973 972 958
f 958 972 971 956
f 956 971 970 954
f 954 970 969 952
f 984 996 995 983
f 966 978 977 965
f 973 985 984 972
f 970 982 981 969
f 967 979 978 966
f 974 986 985 973
f 963 975 976 964
f 971 983 982 970
f 968 980 979 967
f 964 976 986 974
f 965 977 975 963
f 972 984 983 971
f 981 993 992 980
f 978 990 989 977
f 985 997 996 984
f 982 994 993 981
f 979 991 990 978
f 986 998 997 985
f 975 987 988 976
f 983 995 994 982
f 980 992 991 979
f 976 988 998 986
f 977 989 987 975
f 1071 1073 1074 1072
f 1075 1077 1078 1076
f 1079 1081 1082 1080
f 1083 1085 1086 1084
f 1087 1089 1090 1088
f 1091 1093 1094 1092
f 1095 1097 1098 1096
f 1099 1101 1102 1100
f 1103 1105 1106 1104
f 1107 1109 1110 1108
f 1111 1113 1114 1112
f 1115 1117 1118 1116
f 1135 1137 1138 1136
f 1139 1141 1142 1140
f 1143 1145 1146 1144
f 1147 1149 1150 1148
usemtl Grey
f 789 777 843 845
f 788 798 810 800
f 783 795 826 824
f 781 780 812 811
f 789 790 849 850
f 797 785 831 833
f 793 794 817 818
f 778 790 854 852
f 797 798 829 830
f 788 787 841 842
f 795 783 819 821
f 791 792 857 858
f 798 788 837 838
f 799 800 810 809 808 807 806 805 804 803 802 801
f 787 799 914 912
f 796 795 807 808
f 793 792 804 805
f 790 789 801 802
f 797 796 808 809
f 794 793 805 806
f 791 790 802 803
f 810 798 915 917
f 787 788 800 799
f 794 806 922 920
f 792 791 908 907
f 814 813 861 862
f 793 781 811 813
f 792 793 813 814
f 780 792 814 812
f 834 833 881 882
f 781 793 818 816
f 782 781 816 815
f 794 782 815 817
f 854 853 901 902
f 782 794 822 820
f 794 795 821 822
f 783 782 820 819
f 825 823 871 873
f 795 796 825 826
f 784 783 824 823
f 796 784 823 825
f 811 812 860 859
f 786 785 828 827
f 785 797 830 828
f 798 786 827 829
f 845 843 891 893
f 784 796 834 832
f 796 797 833 834
f 785 784 832 831
f 831 832 880 879
f 786 798 838 836
f 776 786 836 835
f 788 776 835 837
f 851 852 900 899
f 775 776 840 839
f 787 775 839 841
f 776 788 842 840
f 824 826 874 872
f 787 789 845 846
f 775 787 846 844
f 777 775 844 843
f 844 846 894 892
f 777 789 850 848
f 778 777 848 847
f 790 778 847 849
f 826 825 873 874
f 790 791 853 854
f 779 778 852 851
f 791 779 851 853
f 846 845 893 894
f 780 779 856 855
f 792 780 855 857
f 779 791 858 856
f 852 854 902 900
f 832 834 882 880
f 812 814 862 860
f 839 840 888 887
f 853 851 899 901
f 819 820 868 867
f 833 831 879 881
f 813 811 859 861
f 842 841 889 890
f 822 821 869 870
f 841 839 887 889
f 821 819 867 869
f 847 848 896 895
f 827 828 876 875
f 840 842 890 888
f 820 822 870 868
f 850 849 897 898
f 830 829 877 878
f 848 850 898 896
f 828 830 878 876
f 855 856 904 903
f 835 836 884 883
f 849 847 895 897
f 815 816 864 863
f 829 827 875 877
f 858 857 905 906
f 838 837 885 886
f 818 817 865 866
f 857 855 903 905
f 836 838 886 884
f 816 818 866 864
f 843 844 892 891
f 856 858 906 904
f 823 824 872 871
f 837 835 883 885
f 817 815 863 865
f 907 908 924 923
f 804 792 907 909
f 791 803 910 908
f 803 804 909 910
f 920 922 938 936
f 799 801 913 914
f 789 787 912 911
f 801 789 911 913
f 916 918 934 932
f 809 810 917 918
f 797 809 918 916
f 798 797 916 915
f 921 919 935 937
f 806 807 921 922
f 795 794 920 919
f 807 795 919 921
f 911 912 928 927
f 910 909 925 926
f 915 916 932 931
f 914 913 929 930
f 919 920 936 935
f 909 907 923 925
f 918 917 933 934
f 912 914 930 928
f 922 921 937 938
f 908 910 926 924
f 917 915 931 933
f 913 911 927 929
f 1001 1057 1055 989
f 1000 1012 1022 1010
f 995 1036 1038 1007
f 993 1023 1024 992
f 1001 1062 1061 1002
f 1009 1045 1043 997
f 1005 1030 1029 1006
f 990 1064 1066 1002
f 1009 1042 1041 1010
f 1000 1054 1053 999
f 1007 1033 1031 995
f 1003 1070 1069 1004
f 1010 1050 1049 1000
f 1011 1013 1014 1015 1016 1017 1018 1019 1020 1021 1022 1012
f 999 1124 1126 1011
f 1008 1020 1019 1007
f 1005 1017 1016 1004
f 1002 1014 1013 1001
f 1009 1021 1020 1008
f 1006 1018 1017 1005
f 1003 1015 1014 1002
f 1022 1129 1127 1010
f 999 1011 1012 1000
f 1006 1132 1134 1018
f 1004 1119 1120 1003
f 1026 1074 1073 1025
f 1005 1025 1023 993
f 1004 1026 1025 1005
f 992 1024 1026 1004
f 1046 1094 1093 1045
f 993 1028 1030 1005
f 994 1027 1028 993
f 1006 1029 1027 994
f 1066 1114 1113 1065
f 994 1032 1034 1006
f 1006 1034 1033 1007
f 995 1031 1032 994
f 1037 1085 1083 1035
f 1007 1038 1037 1008
f 996 1035 1036 995
f 1008 1037 1035 996
f 1023 1071 1072 1024
f 998 1039 1040 997
f 997 1040 1042 1009
f 1010 1041 1039 998
f 1057 1105 1103 1055
f 996 1044 1046 1008
f 1008 1046 1045 1009
f 997 1043 1044 996
f 1043 1091 1092 1044
f 998 1048 1050 1010
f 988 1047 1048 998
f 1000 1049 1047 988
f 1063 1111 1112 1064
f 987 1051 1052 988
f 999 1053 1051 987
f 988 1052 1054 1000
f 1036 1084 1086 1038
f 999 1058 1057 1001
f 987 1056 1058 999
f 989 1055 1056 987
f 1056 1104 1106 1058
f 989 1060 1062 1001
f 990 1059 1060 989
f 1002 1061 1059 990
f 1038 1086 1085 1037
f 1002 1066 1065 1003
f 991 1063 1064 990
f 1003 1065 1063 991
f 1058 1106 1105 1057
f 992 1067 1068 991
f 1004 1069 1067 992
f 991 1068 1070 1003
f 1064 1112 1114 1066
f 1044 1092 1094 1046
f 1024 1072 1074 1026
f 1051 1099 1100 1052
f 1065 1113 1111 1063
f 1031 1079 1080 1032
f 1045 1093 1091 1043
f 1025 1073 1071 1023
f 1054 1102 1101 1053
f 1034 1082 1081 1033
f 1053 1101 1099 1051
f 1033 1081 1079 1031
f 1059 1107 1108 1060
f 1039 1087 1088 1040
f 1052 1100 1102 1054
f 1032 1080 1082 1034
f 1062 1110 1109 1061
f 1042 1090 1089 1041
f 1060 1108 1110 1062
f 1040 1088 1090 1042
f 1067 1115 1116 1068
f 1047 1095 1096 1048
f 1061 1109 1107 1059
f 1027 1075 1076 1028
f 1041 1089 1087 1039
f 1070 1118 1117 1069
f 1050 1098 1097 1049
f 1030 1078 1077 1029
f 1069 1117 1115 1067
f 1048 1096 1098 1050
f 1028 1076 1078 1030
f 1055 1103 1104 1056
f 1068 1116 1118 1070
f 1035 1083 1084 1036
f 1049 1097 1095 1047
f 1029 1077 1075 1027
f 1119 1135 1136 1120
f 1016 1121 1119 1004
f 1003 1120 1122 1015
f 1015 1122 1121 1016
f 1132 1148 1150 1134
f 1011 1126 1125 1013
f 1001 1123 1124 999
f 1013 1125 1123 1001
f 1128 1144 1146 1130
f 1021 1130 1129 1022
f 1009 1128 1130 1021
f 1010 1127 1128 1009
f 1133 1149 1147 1131
f 1018 1134 1133 1019
f 1007 1131 1132 1006
f 1019 1133 1131 1007
f 1123 1139 1140 1124
f 1122 1138 1137 1121
f 1127 1143 1144 1128
f 1126 1142 1141 1125
f 1131 1147 1148 1132
f 1121 1137 1135 1119
f 1130 1146 1145 1129
f 1124 1140 1142 1126
f 1134 1150 1149 1133
f 1120 1136 1138 1122
f 1129 1145 1143 1127
f 1125 1141 1139 1123
o NormalCar2_FrontLeftWheel_Cylinder.015
v 0.569 0.219 0.793
v 0.721 0.219 0.793
v 0.569 0.095 0.826
v 0.721 0.095 0.826
v 0.569 0.005 0.917
v 0.721 0.005 0.917
v 0.569 -0.028 1.04
v 0.721 -0.028 1.04
v 0.569 0.005 1.164
v 0.721 0.005 1.164
v 0.569 0.095 1.255
v 0.721 0.095 1.255
v 0.569 0.219 1.288
v 0.721 0.219 1.288
v 0.569 0.343 1.255
v 0.721 0.343 1.255
v 0.569 0.434 1.164
v 0.721 0.434 1.164
v 0.569 0.467 1.04
v 0.721 0.467 1.04
v 0.569 0.434 0.917
v 0.721 0.434 0.917
v 0.569 0.343 0.826
v 0.721 0.343 0.826
v 0.749 0.125 0.878
v 0.749 0.219 0.853
v 0.749 0.057 0.947
v 0.749 0.032 1.04
v 0.749 0.057 1.134
v 0.749 0.125 1.203
v 0.749 0.219 1.228
v 0.749 0.313 1.203
v 0.749 0.381 1.134
v 0.749 0.407 1.04
v 0.749 0.381 0.947
v 0.749 0.313 0.878
v 0.749 0.137 0.899
v 0.749 0.219 0.877
v 0.749 0.077 0.959
v 0.749 0.056 1.04
v 0.749 0.077 1.122
v 0.749 0.137 1.182
v 0.749 0.219 1.204
v 0.749 0.301 1.182
v 0.749 0.361 1.122
v 0.749 0.383 1.04
v 0.749 0.361 0.959
v 0.749 0.301 0.899
v 0.727 0.137 0.899
v 0.727 0.219 0.877
v 0.727 0.077 0.959
v 0.727 0.056 1.04
v 0.727 0.077 1.122
v 0.727 0.137 1.182
v 0.727 0.219 1.204
v 0.727 0.301 1.182
v 0.727 0.361 1.122
v 0.727 0.383 1.04
v 0.727 0.361 0.959
v 0.727 0.301 0.899
v 0.729 0.196 1.001
v 0.729 0.219 0.995
v 0.729 0.179 1.017
v 0.729 0.173 1.04
v 0.729 0.179 1.063
v 0.729 0.196 1.08
v 0.729 0.219 1.086
v 0.729 0.242 1.08
v 0.729 0.259 1.063
v 0.729 0.265 1.04
v 0.729 0.259 1.017
v 0.729 0.242 1.001
v 0.737 0.205 1.016
v 0.737 0.219 1.012
v 0.737 0.194 1.026
v 0.737 0.191 1.04
v 0.737 0.194 1.055
v 0.737 0.205 1.065
v 0.737 0.219 1.069
v 0.737 0.233 1.065
v 0.737 0.244 1.055
v 0.737 0.248 1.04
v 0.737 0.244 1.026
v 0.737 0.233 1.016
v 0.727 0.211 1.193
v 0.727 0.146 1.176
v 0.726 0.213 1.097
v 0.726 0.193 1.091
v 0.727 0.293 1.176
v 0.727 0.227 1.193
v 0.726 0.245 1.091
v 0.726 0.225 1.097
v 0.727 0.35 1.123
v 0.727 0.302 1.171
v 0.726 0.267 1.073
v 0.726 0.252 1.088
v 0.727 0.372 1.049
v 0.727 0.354 1.114
v 0.726 0.275 1.047
v 0.726 0.27 1.066
v 0.727 0.302 0.91
v 0.727 0.35 0.958
v 0.726 0.252 0.993
v 0.726 0.267 1.007
v 0.727 0.354 0.967
v 0.727 0.372 1.032
v 0.726 0.27 1.014
v 0.726 0.275 1.034
v 0.727 0.227 0.888
v 0.727 0.293 0.905
v 0.726 0.225 0.984
v 0.726 0.245 0.989
v 0.727 0.146 0.905
v 0.727 0.211 0.888
v 0.726 0.193 0.989
v 0.726 0.213 0.984
v 0.727 0.088 0.958
v 0.727 0.136 0.91
v 0.726 0.172 1.007
v 0.726 0.186 0.993
v 0.727 0.066 1.032
v 0.727 0.084 0.967
v 0.726 0.163 1.034
v 0.726 0.168 1.014
v 0.727 0.084 1.114
v 0.727 0.066 1.049
v 0.726 0.168 1.066
v 0.726 0.163 1.047
v 0.727 0.136 1.171
v 0.727 0.088 1.123
v 0.726 0.186 1.088
v 0.726 0.172 1.073
v 0.688 0.211 1.193
v 0.688 0.146 1.176
v 0.696 0.213 1.097
v 0.696 0.193 1.091
v 0.688 0.293 1.176
v 0.688 0.227 1.193
v 0.696 0.245 1.091
v 0.696 0.225 1.097
v 0.688 0.35 1.123
v 0.688 0.302 1.171
v 0.696 0.267 1.073
v 0.696 0.252 1.088
v 0.688 0.372 1.049
v 0.688 0.354 1.114
v 0.696 0.275 1.047
v 0.696 0.27 1.066
v 0.688 0.302 0.91
v 0.688 0.35 0.958
v 0.696 0.252 0.993
v 0.696 0.267 1.007
v 0.688 0.354 0.967
v 0.688 0.372 1.032
v 0.696 0.27 1.014
v 0.696 0.275 1.034
v 0.688 0.227 0.888
v 0.688 0.293 0.905
v 0.696 0.225 0.984
v 0.696 0.245 0.989
v 0.688 0.146 0.905
v 0.688 0.211 0.888
v 0.696 0.193 0.989
v 0.696 0.213 0.984
v 0.688 0.088 0.958
v 0.688 0.136 0.91
v 0.696 0.172 1.007
v 0.696 0.186 0.993
v 0.688 0.066 1.032
v 0.688 0.084 0.967
v 0.696 0.163 1.034
v 0.696 0.168 1.014
v 0.688 0.084 1.114
v 0.688 0.066 1.049
v 0.696 0.168 1.066
v 0.696 0.163 1.047
v 0.688 0.136 1.171
v 0.688 0.088 1.123
v 0.696 0.186 1.088
v 0.696 0.172 1.073
v 0.731 0.195 1.075
v 0.731 0.185 1.065
v 0.735 0.2 1.066
v 0.735 0.194 1.06
v 0.731 0.185 1.016
v 0.731 0.195 1.006
v 0.735 0.194 1.021
v 0.735 0.2 1.015
v 0.731 0.244 1.006
v 0.731 0.254 1.016
v 0.735 0.239 1.015
v 0.735 0.245 1.021
v 0.731 0.254 1.065
v 0.731 0.244 1.075
v 0.735 0.245 1.06
v 0.735 0.239 1.066
v 0.715 0.195 1.075
v 0.715 0.185 1.065
v 0.719 0.2 1.066
v 0.719 0.194 1.06
v 0.715 0.185 1.016
v 0.715 0.195 1.006
v 0.719 0.194 1.021
v 0.719 0.2 1.015
v 0.715 0.244 1.006
v 0.715 0.254 1.016
v 0.719 0.239 1.015
v 0.719 0.245 1.021
v 0.715 0.254 1.065
v 0.715 0.244 1.075
v 0.719 0.245 1.06
v 0.719 0.239 1.066
usemtl Black
f 1151 1152 1154 1153
f 1153 1154 1156 1155
f 1155 1156 1158 1157
f 1157 1158 1160 1159
f 1159 1160 1162 1161
f 1161 1162 1164 1163
f 1163 1164 1166 1165
f 1165 1166 1168 1167
f 1167 1168 1170 1169
f 1169 1170 1172 1171
f 1164 1162 1180 1181
f 1171 1172 1174 1173
f 1173 1174 1152 1151
f 1151 1153 1155 1157 1159 1161 1163 1165 1167 1169 1171 1173
f 1181 1180 1192 1193
f 1162 1160 1179 1180
f 1160 1158 1178 1179
f 1152 1174 1186 1176
f 1154 1152 1176 1175
f 1158 1156 1177 1178
f 1174 1172 1185 1186
f 1156 1154 1175 1177
f 1172 1170 1184 1185
f 1170 1168 1183 1184
f 1168 1166 1182 1183
f 1166 1164 1181 1182
f 1196 1195 1207 1208
f 1178 1177 1189 1190
f 1185 1184 1196 1197
f 1182 1181 1193 1194
f 1179 1178 1190 1191
f 1186 1185 1197 1198
f 1175 1176 1188 1187
f 1183 1182 1194 1195
f 1180 1179 1191 1192
f 1176 1186 1198 1188
f 1177 1175 1187 1189
f 1184 1183 1195 1196
f 1193 1192 1204 1205
f 1190 1189 1201 1202
f 1197 1196 1208 1209
f 1194 1193 1205 1206
f 1191 1190 1202 1203
f 1198 1197 1209 1210
f 1187 1188 1200 1199
f 1195 1194 1206 1207
f 1192 1191 1203 1204
f 1188 1198 1210 1200
f 1189 1187 1199 1201
f 1283 1284 1286 1285
f 1287 1288 1290 1289
f 1291 1292 1294 1293
f 1295 1296 1298 1297
f 1299 1300 1302 1301
f 1303 1304 1306 1305
f 1307 1308 1310 1309
f 1311 1312 1314 1313
f 1315 1316 1318 1317
f 1319 1320 1322 1321
f 1323 1324 1326 1325
f 1327 1328 1330 1329
f 1347 1348 1350 1349
f 1351 1352 1354 1353
f 1355 1356 1358 1357
f 1359 1360 1362 1361
usemtl Grey
f 1213 1201 1267 1269
f 1212 1222 1234 1224
f 1207 1219 1250 1248
f 1205 1204 1236 1235
f 1213 1214 1273 1274
f 1221 1209 1255 1257
f 1217 1218 1241 1242
f 1202 1214 1278 1276
f 1221 1222 1253 1254
f 1212 1211 1265 1266
f 1219 1207 1243 1245
f 1215 1216 1281 1282
f 1222 1212 1261 1262
f 1223 1224 1234 1233 1232 1231 1230 1229 1228 1227 1226 1225
f 1211 1223 1338 1336
f 1220 1219 1231 1232
f 1217 1216 1228 1229
f 1214 1213 1225 1226
f 1221 1220 1232 1233
f 1218 1217 1229 1230
f 1215 1214 1226 1227
f 1234 1222 1339 1341
f 1211 1212 1224 1223
f 1218 1230 1346 1344
f 1216 1215 1332 1331
f 1238 1237 1285 1286
f 1217 1205 1235 1237
f 1216 1217 1237 1238
f 1204 1216 1238 1236
f 1258 1257 1305 1306
f 1205 1217 1242 1240
f 1206 1205 1240 1239
f 1218 1206 1239 1241
f 1278 1277 1325 1326
f 1206 1218 1246 1244
f 1218 1219 1245 1246
f 1207 1206 1244 1243
f 1249 1247 1295 1297
f 1219 1220 1249 1250
f 1208 1207 1248 1247
f 1220 1208 1247 1249
f 1235 1236 1284 1283
f 1210 1209 1252 1251
f 1209 1221 1254 1252
f 1222 1210 1251 1253
f 1269 1267 1315 1317
f 1208 1220 1258 1256
f 1220 1221 1257 1258
f 1209 1208 1256 1255
f 1255 1256 1304 1303
f 1210 1222 1262 1260
f 1200 1210 1260 1259
f 1212 1200 1259 1261
f 1275 1276 1324 1323
f 1199 1200 1264 1263
f 1211 1199 1263 1265
f 1200 1212 1266 1264
f 1248 1250 1298 1296
f 1211 1213 1269 1270
f 1199 1211 1270 1268
f 1201 1199 1268 1267
f 1268 1270 1318 1316
f 1201 1213 1274 1272
f 1202 1201 1272 1271
f 1214 1202 1271 1273
f 1250 1249 1297 1298
f 1214 1215 1277 1278
f 1203 1202 1276 1275
f 1215 1203 1275 1277
f 1270 1269 1317 1318
f 1204 1203 1280 1279
f 1216 1204 1279 1281
f 1203 1215 1282 1280
f 1276 1278 1326 1324
f 1256 1258 1306 1304
f 1236 1238 1286 1284
f 1263 1264 1312 1311
f 1277 1275 1323 1325
f 1243 1244 1292 1291
f 1257 1255 1303 1305
f 1237 1235 1283 1285
f 1266 1265 1313 1314
f 1246 1245 1293 1294
f 1265 1263 1311 1313
f 1245 1243 1291 1293
f 1271 1272 1320 1319
f 1251 1252 1300 1299
f 1264 1266 1314 1312
f 1244 1246 1294 1292
f 1274 1273 1321 1322
f 1254 1253 1301 1302
f 1272 1274 1322 1320
f 1252 1254 1302 1300
f 1279 1280 1328 1327
f 1259 1260 1308 1307
f 1273 1271 1319 1321
f 1239 1240 1288 1287
f 1253 1251 1299 1301
f 1282 1281 1329 1330
f 1262 1261 1309 1310
f 1242 1241 1289 1290
f 1281 1279 1327 1329
f 1260 1262 1310 1308
f 1240 1242 1290 1288
f 1267 1268 1316 1315
f 1280 1282 1330 1328
f 1247 1248 1296 1295
f 1261 1259 1307 1309
f 1241 1239 1287 1289
f 1331 1332 1348 1347
f 1228 1216 1331 1333
f 1215 1227 1334 1332
f 1227 1228 1333 1334
f 1344 1346 1362 1360
f 1223 1225 1337 1338
f 1213 1211 1336 1335
f 1225 1213 1335 1337
f 1340 1342 1358 1356
f 1233 1234 1341 1342
f 1221 1233 1342 1340
f 1222 1221 1340 1339
f 1345 1343 1359 1361
f 1230 1231 1345 1346
f 1219 1218 1344 1343
f 1231 1219 1343 1345
f 1335 1336 1352 1351
f 1334 1333 1349 1350
f 1339 1340 1356 1355
f 1338 1337 1353 1354
f 1343 1344 1360 1359
f 1333 1331 1347 1349
f 1342 1341 1357 1358
f 1336 1338 1354 1352
f 1346 1345 1361 1362
f 1332 1334 1350 1348
f 1341 1339 1355 1357
f 1337 1335 1351 1353
o NormalCar2_FrontRightWheel_Cylinder.016
v -0.567 0.219 0.793
v -0.72 0.219 0.793
v -0.567 0.095 0.826
v -0.72 0.095 0.826
v -0.567 0.005 0.917
v -0.72 0.005 0.917
v -0.567 -0.028 1.04
v -0.72 -0.028 1.04
v -0.567 0.005 1.164
v -0.72 0.005 1.164
v -0.567 0.095 1.255
v -0.72 0.095 1.255
v -0.567 0.219 1.288
v -0.72 0.219 1.288
v -0.567 0.343 1.255
v -0.72 0.343 1.255
v -0.567 0.434 1.164
v -0.72 0.434 1.164
v -0.567 0.467 1.04
v -0.72 0.467 1.04
v -0.567 0.434 0.917
v -0.72 0.434 0.917
v -0.567 0.343 0.826
v -0.72 0.343 0.826
v -0.748 0.125 0.878
v -0.748 0.219 0.853
v -0.748 0.057 0.947
v -0.748 0.032 1.04
v -0.748 0.057 1.134
v -0.748 0.125 1.203
v -0.748 0.219 1.228
v -0.748 0.313 1.203
v -0.748 0.381 1.134
v -0.748 0.407 1.04
v -0.748 0.381 0.947
v -0.748 0.313 0.878
v -0.748 0.137 0.899
v -0.748 0.219 0.877
v -0.748 0.077 0.959
v -0.748 0.056 1.04
v -0.748 0.077 1.122
v -0.748 0.137 1.182
v -0.748 0.219 1.204
v -0.748 0.301 1.182
v -0.748 0.361 1.122
v -0.748 0.383 1.04
v -0.748 0.361 0.959
v -0.748 0.301 0.899
v -0.726 0.137 0.899
v -0.726 0.219 0.877
v -0.726 0.077 0.959
v -0.726 0.056 1.04
v -0.726 0.077 1.122
v -0.726 0.137 1.182
v -0.726 0.219 1.204
v -0.726 0.301 1.182
v -0.726 0.361 1.122
v -0.726 0.383 1.04
v -0.726 0.361 0.959
v -0.726 0.301 0.899
v -0.728 0.196 1.001
v -0.728 0.219 0.995
v -0.728 0.179 1.017
v -0.728 0.173 1.04
v -0.728 0.179 1.063
v -0.728 0.196 1.08
v -0.728 0.219 1.086
v -0.728 0.242 1.08
v -0.728 0.259 1.063
v -0.728 0.265 1.04
v -0.728 0.259 1.017
v -0.728 0.242 1.001
v -0.736 0.205 1.016
v -0.736 0.219 1.012
v -0.736 0.194 1.026
v -0.736 0.191 1.04
v -0.736 0.194 1.055
v -0.736 0.205 1.065
v -0.736 0.219 1.069
v -0.736 0.233 1.065
v -0.736 0.244 1.055
v -0.736 0.248 1.04
v -0.736 0.244 1.026
v -0.736 0.233 1.016
v -0.726 0.211 1.193
v -0.726 0.146 1.176
v -0.725 0.213 1.097
v -0.725 0.193 1.091
v -0.726 0.293 1.176
v -0.726 0.227 1.193
v -0.725 0.245 1.091
v -0.725 0.225 1.097
v -0.726 0.35 1.123
v -0.726 0.302 1.171
v -0.725 0.267 1.073
v -0.725 0.252 1.088
v -0.726 0.372 1.049
v -0.726 0.354 1.114
v -0.725 0.275 1.047
v -0.725 0.27 1.066
v -0.726 0.302 0.91
v -0.726 0.35 0.958
v -0.725 0.252 0.993
v -0.725 0.267 1.007
v -0.726 0.354 0.967
v -0.726 0.372 1.032
v -0.725 0.27 1.014
v -0.725 0.275 1.034
v -0.726 0.227 0.888
v -0.726 0.293 0.905
v -0.725 0.225 0.984
v -0.725 0.245 0.989
v -0.726 0.146 0.905
v -0.726 0.211 0.888
v -0.725 0.193 0.989
v -0.725 0.213 0.984
v -0.726 0.088 0.958
v -0.726 0.136 0.91
v -0.725 0.172 1.007
v -0.725 0.186 0.993
v -0.726 0.066 1.032
v -0.726 0.084 0.967
v -0.725 0.163 1.034
v -0.725 0.168 1.014
v -0.726 0.084 1.114
v -0.726 0.066 1.049
v -0.725 0.168 1.066
v -0.725 0.163 1.047
v -0.726 0.136 1.171
v -0.726 0.088 1.123
v -0.725 0.186 1.088
v -0.725 0.172 1.073
v -0.687 0.211 1.193
v -0.687 0.146 1.176
v -0.695 0.213 1.097
v -0.695 0.193 1.091
v -0.687 0.293 1.176
v -0.687 0.227 1.193
v -0.695 0.245 1.091
v -0.695 0.225 1.097
v -0.687 0.35 1.123
v -0.687 0.302 1.171
v -0.695 0.267 1.073
v -0.695 0.252 1.088
v -0.687 0.372 1.049
v -0.687 0.354 1.114
v -0.695 0.275 1.047
v -0.695 0.27 1.066
v -0.687 0.302 0.91
v -0.687 0.35 0.958
v -0.695 0.252 0.993
v -0.695 0.267 1.007
v -0.687 0.354 0.967
v -0.687 0.372 1.032
v -0.695 0.27 1.014
v -0.695 0.275 1.034
v -0.687 0.227 0.888
v -0.687 0.293 0.905
v -0.695 0.225 0.984
v -0.695 0.245 0.989
v -0.687 0.146 0.905
v -0.687 0.211 0.888
v -0.695 0.193 0.989
v -0.695 0.213 0.984
v -0.687 0.088 0.958
v -0.687 0.136 0.91
v -0.695 0.172 1.007
v -0.695 0.186 0.993
v -0.687 0.066 1.032
v -0.687 0.084 0.967
v -0.695 0.163 1.034
v -0.695 0.168 1.014
v -0.687 0.084 1.114
v -0.687 0.066 1.049
v -0.695 0.168 1.066
v -0.695 0.163 1.047
v -0.687 0.136 1.171
v -0.687 0.088 1.123
v -0.695 0.186 1.088
v -0.695 0.172 1.073
v -0.73 0.195 1.075
v -0.73 0.185 1.065
v -0.734 0.2 1.066
v -0.734 0.194 1.06
v -0.73 0.185 1.016
v -0.73 0.195 1.006
v -0.734 0.194 1.021
v -0.734 0.2 1.015
v -0.73 0.244 1.006
v -0.73 0.254 1.016
v -0.734 0.239 1.015
v -0.734 0.245 1.021
v -0.73 0.254 1.065
v -0.73 0.244 1.075
v -0.734 0.245 1.06
v -0.734 0.239 1.066
v -0.713 0.195 1.075
v -0.713 0.185 1.065
v -0.718 0.2 1.066
v -0.718 0.194 1.06
v -0.713 0.185 1.016
v -0.713 0.195 1.006
v -0.718 0.194 1.021
v -0.718 0.2 1.015
v -0.713 0.244 1.006
v -0.713 0.254 1.016
v -0.718 0.239 1.015
v -0.718 0.245 1.021
v -0.713 0.254 1.065
v -0.713 0.244 1.075
v -0.718 0.245 1.06
v -0.718 0.239 1.066
usemtl Black
f 1363 1365 1366 1364
f 1365 1367 1368 1366
f 1367 1369 1370 1368
f 1369 1371 1372 1370
f 1371 1373 1374 1372
f 1373 1375 1376 1374
f 1375 1377 1378 1376
f 1377 1379 1380 1378
f 1379 1381 1382 1380
f 1381 1383 1384 1382
f 1376 1393 1392 1374
f 1383 1385 1386 1384
f 1385 1363 1364 1386
f 1363 1385 1383 1381 1379 1377 1375 1373 1371 1369 1367 1365
f 1393 1405 1404 1392
f 1374 1392 1391 1372
f 1372 1391 1390 1370
f 1364 1388 1398 1386
f 1366 1387 1388 1364
f 1370 1390 1389 1368
f 1386 1398 1397 1384
f 1368 1389 1387 1366
f 1384 1397 1396 1382
f 1382 1396 1395 1380
f 1380 1395 1394 1378
f 1378 1394 1393 1376
f 1408 1420 1419 1407
f 1390 1402 1401 1389
f 1397 1409 1408 1396
f 1394 1406 1405 1393
f 1391 1403 1402 1390
f 1398 1410 1409 1397
f 1387 1399 1400 1388
f 1395 1407 1406 1394
f 1392 1404 1403 1391
f 1388 1400 1410 1398
f 1389 1401 1399 1387
f 1396 1408 1407 1395
f 1405 1417 1416 1404
f 1402 1414 1413 1401
f 1409 1421 1420 1408
f 1406 1418 1417 1405
f 1403 1415 1414 1402
f 1410 1422 1421 1409
f 1399 1411 1412 1400
f 1407 1419 1418 1406
f 1404 1416 1415 1403
f 1400 1412 1422 1410
f 1401 1413 1411 1399
f 1495 1497 1498 1496
f 1499 1501 1502 1500
f 1503 1505 1506 1504
f 1507 1509 1510 1508
f 1511 1513 1514 1512
f 1515 1517 1518 1516
f 1519 1521 1522 1520
f 1523 1525 1526 1524
f 1527 1529 1530 1528
f 1531 1533 1534 1532
f 1535 1537 1538 1536
f 1539 1541 1542 1540
f 1559 1561 1562 1560
f 1563 1565 1566 1564
f 1567 1569 1570 1568
f 1571 1573 1574 1572
usemtl Grey
f 1425 1481 1479 1413
f 1424 1436 1446 1434
f 1419 1460 1462 1431
f 1417 1447 1448 1416
f 1425 1486 1485 1426
f 1433 1469 1467 1421
f 1429 1454 1453 1430
f 1414 1488 1490 1426
f 1433 1466 1465 1434
f 1424 1478 1477 1423
f 1431 1457 1455 1419
f 1427 1494 1493 1428
f 1434 1474 1473 1424
f 1435 1437 1438 1439 1440 1441 1442 1443 1444 1445 1446 1436
f 1423 1548 1550 1435
f 1432 1444 1443 1431
f 1429 1441 1440 1428
f 1426 1438 1437 1425
f 1433 1445 1444 1432
f 1430 1442 1441 1429
f 1427 1439 1438 1426
f 1446 1553 1551 1434
f 1423 1435 1436 1424
f 1430 1556 1558 1442
f 1428 1543 1544 1427
f 1450 1498 1497 1449
f 1429 1449 1447 1417
f 1428 1450 1449 1429
f 1416 1448 1450 1428
f 1470 1518 1517 1469
f 1417 1452 1454 1429
f 1418 1451 1452 1417
f 1430 1453 1451 1418
f 1490 1538 1537 1489
f 1418 1456 1458 1430
f 1430 1458 1457 1431
f 1419 1455 1456 1418
f 1461 1509 1507 1459
f 1431 1462 1461 1432
f 1420 1459 1460 1419
f 1432 1461 1459 1420
f 1447 1495 1496 1448
f 1422 1463 1464 1421
f 1421 1464 1466 1433
f 1434 1465 1463 1422
f 1481 1529 1527 1479
f 1420 1468 1470 1432
f 1432 1470 1469 1433
f 1421 1467 1468 1420
f 1467 1515 1516 1468
f 1422 1472 1474 1434
f 1412 1471 1472 1422
f 1424 1473 1471 1412
f 1487 1535 1536 1488
f 1411 1475 1476 1412
f 1423 1477 1475 1411
f 1412 1476 1478 1424
f 1460 1508 1510 1462
f 1423 1482 1481 1425
f 1411 1480 1482 1423
f 1413 1479 1480 1411
f 1480 1528 1530 1482
f 1413 1484 1486 1425
f 1414 1483 1484 1413
f 1426 1485 1483 1414
f 1462 1510 1509 1461
f 1426 1490 1489 1427
f 1415 1487 1488 1414
f 1427 1489 1487 1415
f 1482 1530 1529 1481
f 1416 1491 1492 1415
f 1428 1493 1491 1416
f 1415 1492 1494 1427
f 1488 1536 1538 1490
f 1468 1516 1518 1470
f 1448 1496 1498 1450
f 1475 1523 1524 1476
f 1489 1537 1535 1487
f 1455 1503 1504 1456
f 1469 1517 1515 1467
f 1449 1497 1495 1447
f 1478 1526 1525 1477
f 1458 1506 1505 1457
f 1477 1525 1523 1475
f 1457 1505 1503 1455
f 1483 1531 1532 1484
f 1463 1511 1512 1464
f 1476 1524 1526 1478
f 1456 1504 1506 1458
f 1486 1534 1533 1485
f 1466 1514 1513 1465
f 1484 1532 1534 1486
f 1464 1512 1514 1466
f 1491 1539 1540 1492
f 1471 1519 1520 1472
f 1485 1533 1531 1483
f 1451 1499 1500 1452
f 1465 1513 1511 1463
f 1494 1542 1541 1493
f 1474 1522 1521 1473
f 1454 1502 1501 1453
f 1493 1541 1539 1491
f 1472 1520 1522 1474
f 1452 1500 1502 1454
f 1479 1527 1528 1480
f 1492 1540 1542 1494
f 1459 1507 1508 1460
f 1473 1521 1519 1471
f 1453 1501 1499 1451
f 1543 1559 1560 1544
f 1440 1545 1543 1428
f 1427 1544 1546 1439
f 1439 1546 1545 1440
f 1556 1572 1574 1558
f 1435 1550 1549 1437
f 1425 1547 1548 1423
f 1437 1549 1547 1425
f 1552 1568 1570 1554
f 1445 1554 1553 1446
f 1433 1552 1554 1445
f 1434 1551 1552 1433
f 1557 1573 1571 1555
f 1442 1558 1557 1443
f 1431 1555 1556 1430
f 1443 1557 1555 1431
f 1547 1563 1564 1548
f 1546 1562 1561 1545
f 1551 1567 1568 1552
f 1550 1566 1565 1549
f 1555 1571 1572 1556
f 1545 1561 1559 1543
f 1554 1570 1569 1553
f 1548 1564 1566 1550
f 1558 1574 1573 1557
f 1544 1560 1562 1546
f 1553 1569 1567 1551
f 1549 1565 1563 1547
