mtllib SportsCar.mtl
o SportsCar_Cube.005
v 0.672 0.4 -1.718
v 0.672 0.545 -1.723
v 0.817 0.4 -0.212
v 0.817 0.624 -0.214
v 0.272 0.586 -1.9
v 0.477 0.582 -1.84
v 0.477 0.4 -1.884
v 0.272 0.4 -1.944
v 0.733 0.773 -0.231
v 0.773 0.555 1.512
v 0.766 0.4 1.521
v 0.272 0.545 1.887
v 0.272 0.4 1.948
v 0.629 0.553 1.797
v 0.811 0.583 1.189
v 0.81 0.617 0.763
v 0.817 0.623 0.252
v 0.733 0.773 0.281
v 0.708 0.773 0.745
v 0.676 0.742 1.283
v 0.289 0.732 1.406
v 0.361 0.769 0.828
v 0.817 0.4 0.241
v 0.81 0.396 0.756
v 0.817 0.59 1.013
v 0.694 0.755 1.041
v 0.34 0.758 1.142
v 0.817 0.4 0.864
v 0.817 0.4 -0.732
v 0.817 0.567 -0.728
v 0.733 0.773 -0.732
v 0.793 0.378 -0.958
v 0.793 0.506 -1.051
v 0.69 0.773 -1.127
v 0.788 0.188 -0.965
v 0.743 0.522 -1.422
v 0.656 0.775 -1.466
v 0.272 0.775 -1.496
v 0.251 0.627 1.802
v 0.65 0.635 1.706
v 0.742 0.497 -1.408
v 0.672 0.3 -1.718
v 0.545 0.171 -0.257
v 0.817 0.171 -0.257
v 0.272 0.315 -1.944
v 0.272 0.171 -0.257
v 0.477 0.315 -1.884
v 0.507 0.251 -1.45
v 0.272 0.251 -1.48
v 0.753 0.175 1.556
v 0.272 0.171 1.948
v 0.545 0.171 0.281
v 0.275 0.175 1.556
v 0.817 0.171 0.189
v 0.81 0.171 0.673
v 0.817 0.175 0.828
v 0.539 0.175 1.556
v 0.545 0.175 0.828
v 0.545 0.171 0.653
v 0.272 0.171 0.298
v 0.272 0.171 0.687
v 0.272 0.175 0.828
v 0.817 0.171 -0.732
v 0.545 0.171 -0.732
v 0.272 0.171 -0.732
v 0.793 0.177 -0.921
v 0.545 0.177 -0.921
v 0.272 0.177 -0.921
v 0.801 0.558 1.36
v 0.272 0.703 1.544
v 0.668 0.718 1.446
v 0.8 0.53 1.36
v 0.77 0.375 1.467
v 0.807 0.525 1.188
v 0.814 0.489 1.033
v 0.814 0.375 0.916
v 0.76 0.175 1.496
v 0.814 0.175 0.888
v 0.799 0.484 1.332
v 0.548 0.375 1.467
v 0.608 0.531 1.188
v 0.592 0.489 1.033
v 0.592 0.375 0.916
v 0.538 0.175 1.496
v 0.592 0.175 0.888
v 0.577 0.484 1.332
v 0.272 1.145 -0.306
v 0.514 1.112 -0.307
v 0.52 1.078 -0.716
v 0.272 1.107 -0.715
v 0.272 1.12 0.173
v 0.511 1.088 0.156
v 0.613 0.936 0.483
v 0.722 0.791 -0.193
v 0.722 0.791 0.255
v 0.539 1.036 -0.9
v 0.272 1.037 -0.9
v 0.641 0.942 -0.261
v 0.623 0.902 -1.086
v 0.602 0.792 -1.71
v 0.272 0.792 -1.81
v 0.713 0.786 0.255
v 0.371 0.788 0.788
v 0.666 0.788 0.715
v 0.691 0.786 0.66
v 0.582 0.935 0.485
v 0.488 1.069 0.197
v 0.282 1.1 0.211
v 0.7 0.791 0.661
v 0.639 0.939 -0.219
v 0.617 0.933 0.432
v 0.713 0.795 -0.714
v 0.523 1.066 0.146
v 0.531 1.083 -0.259
v 0.722 0.8 -0.715
v 0.722 0.8 -0.26
v 0.639 0.947 -0.288
v 0.684 0.8 -1.086
v 0.625 0.912 -1.047
v 0.552 1.018 -0.878
v 0.54 1.053 -0.71
v 0.537 1.093 -0.331
v 0.777 0.564 -1.245
v 0.788 0.486 -1.079
v 0.788 0.374 -0.995
v 0.524 0.211 -1.115
v 0.272 0.211 -1.135
v 0.603 0.903 -1.18
v 0.716 0.368 -1.545
v 0.716 0.432 -1.51
v 0.716 0.275 -1.571
v 0.494 0.283 -1.602
v 0.272 0.283 -1.712
v 0.774 0.538 -1.25
v 0.72 0.364 -1.508
v 0.72 0.414 -1.481
v 0.72 0.267 -1.535
v 0.542 0.188 -0.969
v 0.52 0.497 -1.407
v 0.542 0.486 -1.08
v 0.546 0.343 -0.996
v 0.531 0.538 -1.25
v 0.508 0.356 -1.509
v 0.513 0.414 -1.481
v 0.499 0.273 -1.533
v 0.539 0.365 -1.09
v 0.539 0.388 -1.082
v 0.518 0.365 -1.413
v 0.519 0.453 -1.396
v 0.37 0.777 0.782
v 0.665 0.777 0.709
v 0.343 0.924 0.551
v 0.582 0.924 0.479
v 0.487 1.057 0.191
v 0.281 1.089 0.205
v 0.713 0.786 -0.194
v 0.63 0.934 -0.22
v 0.608 0.928 0.431
v 0.626 0.936 0.2
v 0.514 1.061 0.145
v 0.523 1.077 -0.26
v 0.713 0.795 -0.259
v 0.63 0.943 -0.287
v 0.675 0.795 -1.085
v 0.626 0.916 -0.709
v 0.617 0.908 -1.046
v 0.543 1.012 -0.877
v 0.532 1.047 -0.709
v 0.529 1.087 -0.33
v 0.276 1.028 -0.921
v 0.587 0.901 -1.187
v 0.525 1.025 -0.92
v 0.611 0.841 -1.317
v 0.27 0.841 -1.345
v 0.626 0.848 -1.303
v 0.397 0.548 1.855
v 0.367 0.4 1.925
v 0.708 0.4 1.69
v 0.681 0.554 1.716
v 0.691 0.173 1.708
v 0.756 0.226 1.549
v 0.793 0.223 -0.924
v 0.817 0.222 -0.732
v 0.272 0.339 -1.944
v 0.477 0.339 -1.884
v 0.817 0.222 -0.248
v 0.817 0.222 0.199
v 0.81 0.221 0.689
v 0.817 0.226 0.838
v 0.672 0.327 -1.718
v 0.762 0.221 1.491
v 0.814 0.221 0.896
v 0.54 0.221 1.491
v 0.592 0.221 0.896
v 0.72 0.299 -1.529
v 0.788 0.232 -0.967
v 0.716 0.307 -1.567
v 0.501 0.298 -1.528
v 0.543 0.226 -0.971
v 0.509 0.28 -1.443
v 0.527 0.248 -1.11
v 0.692 0.224 1.705
v 0.272 0.222 1.948
v 0.834 0.222 0.198
v 0.834 0.171 0.188
v 0.834 0.226 0.837
v 0.834 0.175 0.827
v 0.834 0.171 -0.258
v 0.827 0.171 0.672
v 0.834 0.171 -0.733
v 0.809 0.177 -0.922
v 0.831 0.221 0.895
v 0.831 0.175 0.887
v 0.805 0.188 -0.966
v 0.809 0.223 -0.925
v 0.834 0.222 -0.733
v 0.834 0.222 -0.249
v 0.827 0.221 0.688
v 0.805 0.232 -0.968
v 0.784 0.226 1.575
v 0.781 0.175 1.581
v 0.719 0.173 1.733
v 0.3 0.171 1.973
v 0.79 0.221 1.516
v 0.788 0.175 1.522
v 0.72 0.224 1.73
v 0.3 0.222 1.973
v 0.492 0.339 -1.899
v 0.492 0.315 -1.899
v 0.731 0.276 -1.587
v 0.687 0.3 -1.733
v 0.287 0.315 -1.96
v 0.735 0.267 -1.55
v 0.735 0.299 -1.545
v 0.731 0.307 -1.582
v 0.287 0.339 -1.96
v 0.687 0.327 -1.733
v 0.221 0.725 1.551
v 0.238 0.754 1.413
v 0.29 0.78 1.149
v 0.311 0.791 0.835
v 0.201 0.682 1.792
v 0.556 0.398 1.883
v 0.644 0.398 1.813
v 0.639 0.172 1.825
v 0.55 0.171 1.893
v 0.55 0.222 1.893
v 0.639 0.223 1.825
v 0.578 0.171 1.919
v 0.667 0.171 1.851
v 0.667 0.222 1.851
v 0.578 0.222 1.919
v 0.716 0.714 0.73
v 0.716 0.741 0.73
v 0.705 0.714 0.711
v 0.705 0.741 0.711
v 0.775 0.707 0.703
v 0.775 0.748 0.703
v 0.744 0.707 0.657
v 0.744 0.748 0.657
v 0.863 0.748 0.548
v 0.839 0.707 0.571
v 0.877 0.707 0.611
v 0.901 0.748 0.588
v 0.843 0.788 0.567
v 0.882 0.788 0.607
v 0.835 0.748 0.663
v 0.804 0.748 0.617
v 0.804 0.707 0.617
v 0.835 0.707 0.663
v 0.835 0.795 0.663
v 0.804 0.795 0.617
v 0.742 0.714 0.689
v 0.742 0.741 0.689
v 0.753 0.714 0.708
v 0.753 0.741 0.708
v 0.744 0.786 0.657
v 0.757 0.8 0.648
v 0.788 0.8 0.694
v 0.775 0.786 0.703
v 0.276 0.894 -1.202
v 0.276 1.021 -0.918
v 0.587 0.894 -1.184
v 0.525 1.019 -0.917
v 0.611 0.834 -1.314
v 0.27 0.834 -1.342
v 0.657 0.541 1.731
v 0.613 0.54 1.799
v 0.453 0.495 1.859
v 0.396 0.413 1.905
v 0.679 0.413 1.71
v 0.553 0.411 1.87
v 0.626 0.412 1.812
v 0.648 0.538 1.72
v 0.605 0.537 1.788
v 0.445 0.492 1.848
v 0.388 0.41 1.893
v 0.67 0.41 1.699
v 0.544 0.408 1.859
v 0.617 0.408 1.801
v 0.834 0.627 -0.214
v 0.834 0.403 -0.212
v 0.749 0.776 -0.231
v 0.831 0.222 -0.249
v 0.207 0.636 1.801
v 0.174 0.672 1.794
v 0.217 0.647 1.611
v 0.184 0.683 1.605
v 0.24 0.422 -1.942
v 0.24 0.564 -1.908
v 0.237 0.413 -1.906
v 0.237 0.556 -1.872
v 0.475 0.615 -1.827
v 0.576 0.64 -1.764
v 0.349 0.617 -1.864
v 0.552 0.744 -1.747
v 0.349 0.744 -1.808
v 0.464 0.607 -1.803
v 0.565 0.632 -1.741
v 0.338 0.609 -1.841
v 0.541 0.736 -1.723
v 0.338 0.736 -1.785
v 0.272 0.222 1.948
v 0.272 0.4 1.948
v -0.674 0.4 -1.718
v -0.674 0.545 -1.723
v -0.819 0.4 -0.212
v -0.819 0.624 -0.214
v -0.001 0.4 -1.969
v -0.001 0.586 -1.925
v -0.274 0.586 -1.9
v -0.479 0.582 -1.84
v -0.479 0.4 -1.884
v -0.274 0.4 -1.944
v -0.735 0.773 -0.231
v -0.775 0.555 1.512
v -0.767 0.4 1.521
v -0.274 0.545 1.887
v -0.001 0.545 1.897
v -0.001 0.4 1.959
v -0.274 0.4 1.948
v -0.63 0.553 1.797
v -0.813 0.583 1.189
v -0.812 0.617 0.763
v -0.819 0.623 0.252
v -0.735 0.773 0.281
v -0.71 0.773 0.745
v -0.678 0.742 1.283
v -0.001 0.769 0.833
v -0.29 0.732 1.406
v -0.363 0.769 0.828
v -0.819 0.4 0.241
v -0.812 0.396 0.756
v -0.819 0.59 1.013
v -0.696 0.755 1.041
v -0.342 0.758 1.142
v -0.819 0.4 0.864
v -0.819 0.4 -0.732
v -0.819 0.567 -0.728
v -0.735 0.773 -0.732
v -0.794 0.378 -0.958
v -0.794 0.506 -1.051
v -0.692 0.773 -1.127
v -0.79 0.188 -0.965
v -0.745 0.522 -1.422
v -0.001 0.775 -1.509
v -0.658 0.775 -1.466
v -0.274 0.775 -1.496
v -0.253 0.627 1.802
v -0.001 0.625 1.802
v -0.652 0.635 1.706
v -0.744 0.497 -1.408
v -0.674 0.3 -1.718
v -0.546 0.171 -0.257
v -0.819 0.171 -0.257
v -0.274 0.315 -1.944
v -0.001 0.315 -1.969
v -0.001 0.251 -1.493
v -0.001 0.171 -0.257
v -0.274 0.171 -0.257
v -0.479 0.315 -1.884
v -0.509 0.251 -1.45
v -0.274 0.251 -1.48
v -0.755 0.175 1.556
v -0.001 0.171 1.959
v -0.274 0.171 1.948
v -0.546 0.171 0.281
v -0.277 0.175 1.556
v -0.001 0.171 0.301
v -0.819 0.171 0.189
v -0.812 0.171 0.673
v -0.819 0.175 0.828
v -0.541 0.175 1.556
v -0.546 0.175 0.828
v -0.546 0.171 0.653
v -0.274 0.171 0.298
v -0.274 0.171 0.687
v -0.274 0.175 0.828
v -0.001 0.175 1.556
v -0.001 0.175 0.828
v -0.001 0.171 0.693
v -0.819 0.171 -0.732
v -0.001 0.171 -0.732
v -0.546 0.171 -0.732
v -0.274 0.171 -0.732
v -0.794 0.177 -0.921
v -0.001 0.177 -0.921
v -0.546 0.177 -0.921
v -0.274 0.177 -0.921
v -0.803 0.558 1.36
v -0.274 0.703 1.544
v -0.67 0.718 1.446
v -0.802 0.53 1.36
v -0.772 0.375 1.467
v -0.809 0.525 1.188
v -0.816 0.489 1.033
v -0.816 0.375 0.916
v -0.762 0.175 1.496
v -0.816 0.175 0.888
v -0.801 0.484 1.332
v -0.55 0.375 1.467
v -0.61 0.531 1.188
v -0.594 0.489 1.033
v -0.594 0.375 0.916
v -0.54 0.175 1.496
v -0.594 0.175 0.888
v -0.579 0.484 1.332
v -0.274 1.145 -0.306
v -0.001 1.145 -0.306
v -0.001 1.112 -0.715
v -0.516 1.112 -0.307
v -0.522 1.078 -0.716
v -0.274 1.107 -0.715
v -0.274 1.12 0.173
v -0.513 1.088 0.156
v -0.615 0.936 0.483
v -0.001 1.135 0.176
v -0.724 0.791 -0.193
v -0.724 0.791 0.255
v -0.001 1.037 -0.9
v -0.541 1.036 -0.9
v -0.274 1.037 -0.9
v -0.643 0.942 -0.261
v -0.624 0.902 -1.086
v -0.604 0.792 -1.71
v -0.001 0.792 -1.826
v -0.274 0.792 -1.81
v -0.715 0.786 0.255
v -0.001 0.788 0.793
v -0.373 0.788 0.788
v -0.668 0.788 0.715
v -0.693 0.786 0.66
v -0.584 0.935 0.485
v -0.49 1.069 0.197
v -0.001 1.115 0.214
v -0.284 1.1 0.211
v -0.702 0.791 0.661
v -0.641 0.939 -0.219
v -0.619 0.933 0.432
v -0.715 0.795 -0.714
v -0.525 1.066 0.146
v -0.533 1.083 -0.259
v -0.724 0.8 -0.715
v -0.724 0.8 -0.26
v -0.641 0.947 -0.288
v -0.686 0.8 -1.086
v -0.627 0.912 -1.047
v -0.553 1.018 -0.878
v -0.542 1.053 -0.71
v -0.539 1.093 -0.331
v -0.778 0.564 -1.245
v -0.79 0.486 -1.079
v -0.79 0.374 -0.995
v -0.001 0.211 -1.128
v -0.526 0.211 -1.115
v -0.274 0.211 -1.135
v -0.605 0.903 -1.18
v -0.718 0.368 -1.545
v -0.718 0.432 -1.51
v -0.718 0.275 -1.571
v -0.001 0.283 -1.731
v -0.496 0.283 -1.602
v -0.274 0.283 -1.712
v -0.776 0.538 -1.25
v -0.722 0.364 -1.508
v -0.722 0.414 -1.481
v -0.722 0.267 -1.535
v -0.543 0.188 -0.969
v -0.522 0.497 -1.407
v -0.543 0.486 -1.08
v -0.548 0.343 -0.996
v -0.533 0.538 -1.25
v -0.51 0.356 -1.509
v -0.514 0.414 -1.481
v -0.501 0.273 -1.533
v -0.001 0.777 0.787
v -0.541 0.365 -1.09
v -0.541 0.388 -1.082
v -0.001 0.924 0.556
v -0.52 0.365 -1.413
v -0.521 0.453 -1.396
v -0.372 0.777 0.782
v -0.667 0.777 0.709
v -0.345 0.924 0.551
v -0.584 0.924 0.479
v -0.489 1.057 0.191
v -0.001 1.104 0.208
v -0.283 1.089 0.205
v -0.715 0.786 -0.194
v -0.632 0.934 -0.22
v -0.61 0.928 0.431
v -0.628 0.936 0.2
v -0.516 1.061 0.145
v -0.525 1.077 -0.26
v -0.715 0.795 -0.259
v -0.632 0.943 -0.287
v -0.677 0.795 -1.085
v -0.628 0.916 -0.709
v -0.618 0.908 -1.046
v -0.545 1.012 -0.877
v -0.534 1.047 -0.709
v -0.531 1.087 -0.33
v -0.278 1.028 -0.921
v -0.001 1.028 -0.921
v -0.589 0.901 -1.187
v -0.527 1.025 -0.92
v -0.613 0.841 -1.317
v -0.272 0.841 -1.345
v -0.001 0.841 -1.356
v -0.628 0.848 -1.303
v -0.399 0.548 1.855
v -0.369 0.4 1.925
v -0.71 0.4 1.69
v -0.683 0.554 1.716
v -0.693 0.173 1.708
v -0.757 0.226 1.549
v -0.001 0.339 -1.969
v -0.794 0.223 -0.924
v -0.819 0.222 -0.732
v -0.274 0.339 -1.944
v -0.479 0.339 -1.884
v -0.819 0.222 -0.248
v -0.819 0.222 0.199
v -0.812 0.221 0.689
v -0.819 0.226 0.838
v -0.674 0.327 -1.718
v -0.764 0.221 1.491
v -0.816 0.221 0.896
v -0.542 0.221 1.491
v -0.594 0.221 0.896
v -0.722 0.299 -1.529
v -0.79 0.232 -0.967
v -0.718 0.307 -1.567
v -0.503 0.298 -1.528
v -0.544 0.226 -0.971
v -0.511 0.28 -1.443
v -0.529 0.248 -1.11
v -0.694 0.224 1.705
v -0.001 0.222 1.959
v -0.274 0.222 1.948
v -0.836 0.222 0.198
v -0.836 0.171 0.188
v -0.836 0.226 0.837
v -0.836 0.175 0.827
v -0.836 0.171 -0.258
v -0.829 0.171 0.672
v -0.836 0.171 -0.733
v -0.811 0.177 -0.922
v -0.832 0.221 0.895
v -0.832 0.175 0.887
v -0.807 0.188 -0.966
v -0.811 0.223 -0.925
v -0.836 0.222 -0.733
v -0.836 0.222 -0.249
v -0.829 0.221 0.688
v -0.807 0.232 -0.968
v -0.785 0.226 1.575
v -0.783 0.175 1.581
v -0.001 0.222 1.984
v -0.001 0.171 1.984
v -0.721 0.173 1.733
v -0.302 0.171 1.973
v -0.792 0.221 1.516
v -0.79 0.175 1.522
v -0.722 0.224 1.73
v -0.302 0.222 1.973
v -0.494 0.339 -1.899
v -0.494 0.315 -1.899
v -0.733 0.276 -1.587
v -0.688 0.3 -1.733
v -0.288 0.315 -1.96
v -0.001 0.315 -1.985
v -0.737 0.267 -1.55
v -0.737 0.299 -1.545
v -0.733 0.307 -1.582
v -0.001 0.339 -1.985
v -0.288 0.339 -1.96
v -0.688 0.327 -1.733
v -0.001 0.779 1.156
v -0.001 0.753 1.421
v -0.223 0.725 1.551
v -0.24 0.754 1.413
v -0.291 0.78 1.149
v -0.313 0.791 0.835
v -0.001 0.791 0.84
v -0.001 0.724 1.571
v -0.001 0.681 1.792
v -0.202 0.682 1.792
v -0.558 0.398 1.883
v -0.645 0.398 1.813
v -0.64 0.172 1.825
v -0.552 0.171 1.893
v -0.552 0.222 1.893
v -0.64 0.223 1.825
v -0.58 0.171 1.919
v -0.668 0.171 1.851
v -0.668 0.222 1.851
v -0.58 0.222 1.919
v -0.718 0.714 0.73
v -0.718 0.741 0.73
v -0.707 0.714 0.711
v -0.707 0.741 0.711
v -0.777 0.707 0.703
v -0.777 0.748 0.703
v -0.746 0.707 0.657
v -0.746 0.748 0.657
v -0.865 0.748 0.548
v -0.841 0.707 0.571
v -0.879 0.707 0.611
v -0.903 0.748 0.588
v -0.845 0.788 0.567
v -0.884 0.788 0.607
v -0.837 0.748 0.663
v -0.806 0.748 0.617
v -0.806 0.707 0.617
v -0.837 0.707 0.663
v -0.837 0.795 0.663
v -0.806 0.795 0.617
v -0.743 0.714 0.689
v -0.743 0.741 0.689
v -0.755 0.714 0.708
v -0.755 0.741 0.708
v -0.746 0.786 0.657
v -0.759 0.8 0.648
v -0.79 0.8 0.694
v -0.777 0.786 0.703
v -0.277 0.894 -1.202
v -0.278 1.021 -0.918
v -0.001 0.894 -1.209
v -0.001 1.021 -0.918
v -0.589 0.894 -1.184
v -0.526 1.019 -0.917
v -0.613 0.834 -1.314
v -0.272 0.834 -1.342
v -0.001 0.834 -1.353
v -0.659 0.541 1.731
v -0.615 0.54 1.799
v -0.455 0.495 1.859
v -0.398 0.413 1.905
v -0.681 0.413 1.71
v -0.554 0.411 1.87
v -0.627 0.412 1.812
v -0.65 0.538 1.72
v -0.606 0.537 1.788
v -0.446 0.492 1.848
v -0.389 0.41 1.893
v -0.672 0.41 1.699
v -0.546 0.408 1.859
v -0.619 0.408 1.801
v -0.835 0.627 -0.214
v -0.835 0.403 -0.212
v -0.751 0.776 -0.231
v -0.833 0.222 -0.249
v -0.001 0.671 1.794
v -0.001 0.635 1.801
v -0.209 0.636 1.801
v -0.176 0.672 1.794
v -0.001 0.682 1.605
v -0.001 0.646 1.611
v -0.219 0.647 1.611
v -0.186 0.683 1.605
v -0.242 0.422 -1.942
v -0.001 0.422 -1.961
v -0.001 0.564 -1.927
v -0.242 0.564 -1.908
v -0.239 0.413 -1.906
v -0.001 0.413 -1.925
v -0.001 0.556 -1.891
v -0.239 0.556 -1.872
v -0.477 0.615 -1.827
v -0.578 0.64 -1.764
v -0.351 0.617 -1.864
v -0.554 0.744 -1.747
v -0.351 0.744 -1.808
v -0.466 0.607 -1.803
v -0.567 0.632 -1.741
v -0.34 0.609 -1.841
v -0.543 0.736 -1.723
v -0.34 0.736 -1.785
v -0.274 0.222 1.948
v -0.274 0.4 1.948
v -0.001 0.4 1.959
v -0.001 0.222 1.959
usemtl Orange
f 7 6 2 1
f 29 30 4 3
f 27 22 241 240
f 69 71 40 10
f 38 101 446 366
f 36 130 2 100 37
f 330 5 310 684
f 8 5 6 7
f 243 177 203 247
f 71 70 39 40
f 3 4 301 302
f 23 17 16 24
f 38 366 529 174
f 93 19 109 111
f 26 27 21 20
f 17 18 19 16
f 25 26 20 15
f 349 22 103 449
f 70 21 239 238
f 22 349 605 241
f 16 19 26 25
f 19 22 27 26
f 24 16 25 28
f 4 30 31 9
f 32 33 30 29
f 98 9 116 117
f 30 33 34 31
f 19 93 106 104
f 36 123 134 41
f 129 130 136 135
f 88 98 117 122
f 123 36 37 34
f 9 98 110 94
f 39 370 339 12
f 10 40 179
f 40 39 176 14
f 13 340 702 324
f 127 68 407 474
f 123 33 124 134
f 126 138 68 127
f 11 72 69 10
f 20 21 70 71
f 15 20 71 69
f 370 39 305 675
f 69 72 15
f 72 11 73 79
f 25 15 74 75
f 28 25 75 76
f 15 72 79 74
f 189 28 76 192
f 191 77 84 193
f 79 73 80 86
f 192 76 83 194
f 75 74 81 82
f 74 79 86 81
f 76 75 82 83
f 193 194 83 80
f 86 82 81
f 80 83 82 86
f 400 62 53 399
f 62 85 84 53
f 88 87 91 92
f 22 19 104 103
f 87 429 437 91
f 93 92 107 106
f 88 89 90 87
f 87 90 430 429
f 89 96 97 90
f 90 97 440 430
f 96 128 171 172
f 9 31 115 116
f 34 99 119 118
f 18 9 94 95
f 92 93 111 113
f 446 101 5 330
f 101 100 316 317
f 2 6 313 314
f 449 103 150 496
f 104 106 153 151
f 107 108 155 154
f 108 455 507 155
f 91 437 455 108
f 92 91 108 107
f 109 95 102 105
f 94 110 157 156
f 95 94 156 102
f 113 111 158 160
f 19 18 95 109
f 88 92 113 114
f 98 88 114 110
f 122 117 163 169
f 116 115 112 162
f 115 118 164 112
f 119 120 167 166
f 99 96 120 119
f 96 89 121 120
f 89 88 122 121
f 31 34 118 115
f 48 126 127 49
f 33 32 125 124
f 49 127 474 378
f 33 123 34
f 130 36 41 136
f 197 129 135 195
f 97 96 172 170
f 37 38 174 173
f 99 128 96
f 99 34 175
f 1 2 130 129
f 135 136 144 143
f 124 125 141 140
f 134 124 140 142
f 41 134 142 139
f 195 135 143 198
f 136 41 139 144
f 198 143 148 200
f 140 139 142
f 141 146 147
f 144 139 149
f 147 146 148 149
f 147 140 141
f 201 146 141 199
f 149 148 143 144
f 149 139 140 147
f 200 148 146 201
f 106 107 154 153
f 103 104 151 150
f 110 114 161 157
f 114 113 160 161
f 111 109 105 158
f 121 122 169 168
f 117 116 162 163
f 118 119 166 164
f 120 121 168 167
f 172 171 283 284
f 174 529 655 286
f 524 170 282 650
f 173 174 286 285
f 440 97 170 524
f 128 175 173 171
f 173 175 37
f 175 128 99
f 175 34 37
f 178 244 248 202
f 11 10 179 178
f 11 178 202 181
f 48 200 201 126
f 126 201 199 138
f 145 198 200 48
f 125 196 199 141
f 1 129 197 190
f 84 85 194 193
f 73 191 193 80
f 11 181 191 73
f 32 182 196 125
f 8 7 185 184
f 24 28 189 188
f 186 3 302 304
f 23 24 188 187
f 179 14 288 287
f 329 8 184 537
f 29 3 186 183
f 32 29 183 182
f 7 1 190 185
f 12 13 177 176
f 238 606 607 242
f 240 599 600 239
f 241 605 599 240
f 239 600 606 238
f 21 27 240 239
f 39 70 238 242
f 203 177 13
f 248 244 243 247
f 14 176 289 288
f 176 177 290 289
f 253 254 256 255
f 273 274 260 259
f 267 264 266 271
f 275 276 254 253
f 273 259 257 275
f 274 256 254 276
f 262 261 264 263
f 269 268 261 262
f 267 270 263 264
f 270 269 262 263
f 272 271 266 265
f 264 261 265 266
f 258 267 271 279 280
f 260 258 280 277
f 261 268 272 265
f 268 260 277 278 272
f 257 259 269 270
f 258 257 270 267
f 259 260 268 269
f 260 274 276 258
f 255 273 275 253
f 257 258 276 275
f 255 256 274 273
f 277 280 279 278
f 278 279 271 272
f 171 173 285 283
f 170 172 284 282
f 292 293 300 299
f 179 40 14
f 288 289 296 295
f 291 287 294 298
f 244 178 291 293
f 178 179 287 291
f 177 243 292 290
f 243 244 293 292
f 289 290 297 296
f 287 288 295 294
f 293 291 298 300
f 290 292 299 297
f 18 17 301 303
f 23 187 304 302
f 4 9 303 301
f 9 18 303
f 17 23 302 301
f 339 340 13 12
f 176 39 12
f 37 100 101 38
f 306 674 678 308
f 39 242 306 305
f 242 607 674 306
f 679 307 308 678
f 675 305 307 679
f 305 306 308 307
f 684 310 312 688
f 8 329 683 309
f 5 8 309 310
f 309 683 687 311
f 310 309 311 312
f 313 315 320 318
f 315 317 322 320
f 5 101 317 315
f 6 5 315 313
f 100 2 314 316
f 317 316 321 322
f 314 313 318 319
f 316 314 319 321
f 324 702 703 323
f 203 13 324 323
f 333 325 326 332
f 358 327 328 359
f 356 603 604 351
f 410 336 371 412
f 368 366 446 447
f 365 367 445 326 479
f 330 684 685 331
f 334 333 332 331
f 609 613 560 532
f 412 371 369 411
f 327 671 670 328
f 352 353 344 345
f 368 528 529 366
f 436 459 457 347
f 355 348 350 356
f 345 344 347 346
f 354 343 348 355
f 349 449 450 351
f 411 601 602 350
f 351 604 605 349
f 344 354 355 347
f 347 355 356 351
f 353 357 354 344
f 328 335 360 359
f 361 358 359 362
f 443 465 464 335
f 359 360 363 362
f 347 451 453 436
f 365 372 484 471
f 478 485 486 479
f 431 470 465 443
f 471 363 367 365
f 335 438 458 443
f 369 338 339 370
f 336 534 371
f 371 342 531 369
f 341 701 702 340
f 476 474 407 409
f 471 484 472 362
f 475 476 409 488
f 337 336 410 413
f 348 412 411 350
f 343 410 412 348
f 370 675 676 369
f 410 343 413
f 413 420 414 337
f 354 416 415 343
f 357 417 416 354
f 343 415 420 413
f 545 548 417 357
f 547 549 425 418
f 420 427 421 414
f 548 550 424 417
f 416 423 422 415
f 415 422 427 420
f 417 424 423 416
f 549 421 424 550
f 427 422 423
f 421 427 423 424
f 400 399 388 398
f 398 388 425 426
f 431 435 434 428
f 351 450 451 347
f 428 434 437 429
f 436 453 454 435
f 431 428 433 432
f 428 429 430 433
f 432 433 442 441
f 433 430 440 442
f 441 526 525 477
f 335 464 463 360
f 363 466 467 444
f 346 439 438 335
f 435 461 459 436
f 446 330 331 447
f 447 694 693 445
f 326 691 690 332
f 449 496 502 450
f 451 503 505 453
f 454 506 508 456
f 456 508 507 455
f 434 456 455 437
f 435 454 456 434
f 457 452 448 439
f 438 509 510 458
f 439 448 509 438
f 461 513 511 459
f 347 457 439 346
f 431 462 461 435
f 443 458 462 431
f 470 522 516 465
f 464 515 460 463
f 463 460 517 466
f 467 519 520 468
f 444 467 468 441
f 441 468 469 432
f 432 469 470 431
f 360 463 466 363
f 382 383 476 475
f 362 472 473 361
f 383 378 474 476
f 362 363 471
f 479 486 372 365
f 553 551 485 478
f 442 523 526 441
f 367 527 528 368
f 444 441 477
f 444 530 363
f 325 478 479 326
f 485 493 494 486
f 472 490 491 473
f 484 492 490 472
f 372 489 492 484
f 551 554 493 485
f 486 494 489 372
f 554 556 500 493
f 490 492 489
f 491 498 497
f 494 501 489
f 498 501 500 497
f 498 491 490
f 557 555 491 497
f 501 494 493 500
f 501 498 490 489
f 556 557 497 500
f 453 505 506 454
f 450 502 503 451
f 458 510 514 462
f 462 514 513 461
f 459 511 452 457
f 469 521 522 470
f 465 516 515 464
f 466 517 519 467
f 468 520 521 469
f 526 652 651 525
f 528 654 655 529
f 524 650 648 523
f 527 653 654 528
f 440 524 523 442
f 477 525 527 530
f 527 367 530
f 530 444 477
f 530 367 363
f 533 558 614 610
f 337 533 534 336
f 337 536 558 533
f 382 475 557 556
f 475 488 555 557
f 495 382 556 554
f 473 491 555 552
f 325 546 553 478
f 425 549 550 426
f 414 421 549 547
f 337 414 547 536
f 361 473 552 538
f 334 540 541 333
f 353 544 545 357
f 542 673 671 327
f 352 543 544 353
f 534 656 657 342
f 329 537 540 334
f 358 539 542 327
f 361 538 539 358
f 333 541 546 325
f 338 531 532 341
f 601 608 607 606
f 603 602 600 599
f 604 603 599 605
f 602 601 606 600
f 350 602 603 356
f 369 608 601 411
f 560 341 532
f 614 613 609 610
f 342 657 658 531
f 531 658 659 532
f 619 621 622 620
f 639 625 626 640
f 633 637 632 630
f 641 619 620 642
f 639 641 623 625
f 640 642 620 622
f 628 629 630 627
f 635 628 627 634
f 633 630 629 636
f 636 629 628 635
f 638 631 632 637
f 630 632 631 627
f 624 646 645 637 633
f 626 643 646 624
f 627 631 638 634
f 634 638 644 643 626
f 623 636 635 625
f 624 633 636 623
f 625 635 634 626
f 626 624 642 640
f 621 619 641 639
f 623 641 642 624
f 621 639 640 622
f 643 644 645 646
f 644 638 637 645
f 525 651 653 527
f 523 648 652 526
f 661 668 669 662
f 534 342 371
f 657 664 665 658
f 660 667 663 656
f 610 662 660 533
f 533 660 656 534
f 532 659 661 609
f 609 661 662 610
f 658 665 666 659
f 656 663 664 657
f 662 669 667 660
f 659 666 668 661
f 346 672 670 345
f 352 671 673 543
f 328 670 672 335
f 335 672 346
f 345 670 671 352
f 339 338 341 340
f 531 338 369
f 367 368 447 445
f 677 681 678 674
f 369 676 677 608
f 608 677 674 607
f 679 678 681 680
f 675 679 680 676
f 676 680 681 677
f 684 688 689 685
f 334 682 683 329
f 331 685 682 334
f 682 686 687 683
f 685 689 686 682
f 690 695 697 692
f 692 697 699 694
f 331 692 694 447
f 332 690 692 331
f 445 693 691 326
f 694 699 698 693
f 691 696 695 690
f 693 698 696 691
f 701 700 703 702
f 560 700 701 341
usemtl DarkOrange
f 187 186 304
f 197 195 234 235
f 44 63 210 208
f 188 189 206 218
f 131 42 231 230
f 202 248 251 226
f 63 66 211 210
f 182 183 216 215
f 196 182 215 219
f 51 246 249 223
f 137 131 230 233
f 65 46 379 403
f 63 44 43 64
f 64 43 46 65
f 46 43 52 60
f 60 52 59 61
f 379 46 60 389
f 389 60 61 401
f 43 44 54 52
f 52 54 55 59
f 59 55 56 58
f 401 61 62 400
f 61 59 58 62
f 67 64 65 68
f 66 63 64 67
f 68 65 403 407
f 132 145 133
f 183 186 304 217 216
f 133 49 378 481
f 245 180 222 250
f 57 50 180 245
f 399 53 51 385
f 181 202 226 220
f 57 84 77 50
f 56 78 85 58
f 58 85 62
f 53 84 57
f 45 133 481 377
f 42 132 47
f 47 132 133 45
f 42 47 229 231
f 132 42 131
f 196 35 138 199
f 67 138 35 66
f 137 145 132 131
f 68 138 67
f 133 145 48 49
f 180 50 221 222
f 137 195 198 145
f 190 197 235 237
f 78 192 194 85
f 55 54 205 209
f 215 216 210 211
f 77 191 224 225
f 203 559 579 227
f 216 217 208 210
f 204 218 209 205
f 217 204 205 208
f 218 206 207 209
f 215 211 214 219
f 207 206 212 213
f 35 196 219 214
f 186 187 204 304
f 187 188 218 204
f 66 35 214 211
f 192 78 213 212
f 56 55 209 207
f 54 44 208 205
f 189 192 212 206
f 78 56 207 213
f 220 221 225 224
f 220 226 222 221
f 226 251 250 222
f 227 579 580 223
f 385 51 223 580
f 50 77 225 221
f 247 203 227 252
f 252 227 223 249
f 53 57 246 51
f 191 181 220 224
f 228 237 231 229
f 596 236 232 592
f 236 228 229 232
f 237 235 230 231
f 230 235 234 233
f 47 45 232 229
f 184 185 228 236
f 195 137 233 234
f 185 190 237 228
f 537 184 236 596
f 45 377 592 232
f 245 246 57
f 250 251 252 249
f 249 246 245 250
f 247 252 251 248
f 304 204 217
f 559 203 323 703
f 543 673 542
f 553 595 594 551
f 375 565 567 402
f 544 575 563 545
f 480 589 590 373
f 558 585 617 614
f 402 567 568 406
f 538 572 573 539
f 552 576 572 538
f 386 582 615 612
f 487 593 589 480
f 405 403 379 380
f 402 404 374 375
f 404 405 380 374
f 380 396 387 374
f 396 397 395 387
f 379 389 396 380
f 389 401 397 396
f 374 387 390 375
f 387 395 391 390
f 395 394 392 391
f 401 400 398 397
f 397 398 394 395
f 408 409 405 404
f 406 408 404 402
f 409 407 403 405
f 482 483 495
f 539 573 574 673 542
f 483 481 378 383
f 611 616 581 535
f 393 611 535 384
f 399 385 386 388
f 536 577 585 558
f 393 384 418 425
f 392 394 426 419
f 394 398 426
f 388 393 425
f 376 377 481 483
f 373 381 482
f 381 376 483 482
f 373 590 588 381
f 482 480 373
f 552 555 488 364
f 408 406 364 488
f 487 480 482 495
f 409 408 488
f 483 383 382 495
f 535 581 578 384
f 487 495 554 551
f 546 598 595 553
f 419 426 550 548
f 391 566 562 390
f 572 568 567 573
f 418 584 583 547
f 560 586 579 559
f 573 567 565 574
f 561 562 566 575
f 574 565 562 561
f 575 566 564 563
f 572 576 571 568
f 564 570 569 563
f 364 571 576 552
f 542 673 561 543
f 543 561 575 544
f 406 568 571 364
f 548 569 570 419
f 392 564 566 391
f 390 562 565 375
f 545 563 569 548
f 419 570 564 392
f 577 583 584 578
f 577 578 581 585
f 585 581 616 617
f 586 582 580 579
f 385 580 582 386
f 384 578 584 418
f 613 618 586 560
f 618 615 582 586
f 388 386 612 393
f 547 583 577 536
f 587 588 590 598
f 596 592 591 597
f 597 591 588 587
f 598 590 589 595
f 589 593 594 595
f 381 588 591 376
f 540 597 587 541
f 551 594 593 487
f 541 587 598 546
f 537 596 597 540
f 376 591 592 377
f 611 393 612
f 616 615 618 617
f 615 616 611 612
f 613 614 617 618
f 673 574 561
f 559 703 700 560
usemtl Windows
f 496 150 152 499
f 150 151 153 152
f 154 155 152 153
f 155 507 499 152
f 102 156 157 159
f 105 102 159 158
f 159 157 161 160
f 158 159 160
f 162 112 165 163
f 112 164 166 165
f 163 165 168 169
f 165 166 167
f 167 168 165
f 283 281 282 284
f 281 649 650 282
f 286 655 649 281
f 285 286 281 283
f 496 499 504 502
f 502 504 505 503
f 506 505 504 508
f 508 504 499 507
f 448 512 510 509
f 452 511 512 448
f 512 513 514 510
f 511 513 512
f 515 516 518 460
f 460 518 519 517
f 516 522 521 518
f 518 520 519
f 520 518 521
f 651 652 648 647
f 647 648 650 649
f 654 647 649 655
f 653 651 647 654
usemtl Grey
f 687 688 312 311
f 687 686 689 688
usemtl Headlights
f 298 294 295 300
f 296 297 299 295
f 300 295 299
f 667 669 664 663
f 665 664 668 666
f 669 668 664
usemtl TailLights
f 322 321 318 320
f 321 319 318
f 699 697 695 698
f 698 695 696
o SportsCar_BackWheels_Cylinder.004
v 0.598 0.25 -1.515
v 0.758 0.25 -1.515
v 0.598 0.12 -1.48
v 0.758 0.12 -1.48
v 0.598 0.025 -1.385
v 0.758 0.025 -1.385
v 0.598 -0.01 -1.255
v 0.758 -0.01 -1.255
v 0.598 0.025 -1.125
v 0.758 0.025 -1.125
v 0.598 0.12 -1.03
v 0.758 0.12 -1.03
v 0.598 0.25 -0.995
v 0.758 0.25 -0.995
v 0.598 0.38 -1.03
v 0.758 0.38 -1.03
v 0.598 0.475 -1.125
v 0.758 0.475 -1.125
v 0.598 0.51 -1.255
v 0.758 0.51 -1.255
v 0.598 0.475 -1.385
v 0.758 0.475 -1.385
v 0.598 0.38 -1.48
v 0.758 0.38 -1.48
v 0.787 0.151 -1.425
v 0.787 0.25 -1.451
v 0.787 0.079 -1.353
v 0.787 0.053 -1.255
v 0.787 0.079 -1.156
v 0.787 0.151 -1.084
v 0.787 0.25 -1.058
v 0.787 0.348 -1.084
v 0.787 0.42 -1.156
v 0.787 0.446 -1.255
v 0.787 0.42 -1.353
v 0.787 0.348 -1.425
v 0.787 0.164 -1.403
v 0.787 0.25 -1.426
v 0.787 0.101 -1.341
v 0.787 0.078 -1.255
v 0.787 0.101 -1.169
v 0.787 0.164 -1.106
v 0.787 0.25 -1.083
v 0.787 0.336 -1.106
v 0.787 0.398 -1.169
v 0.787 0.421 -1.255
v 0.787 0.398 -1.341
v 0.787 0.336 -1.403
v 0.764 0.164 -1.403
v 0.764 0.25 -1.426
v 0.764 0.101 -1.341
v 0.764 0.078 -1.255
v 0.764 0.101 -1.169
v 0.764 0.164 -1.106
v 0.764 0.25 -1.083
v 0.764 0.336 -1.106
v 0.764 0.398 -1.169
v 0.764 0.421 -1.255
v 0.764 0.398 -1.341
v 0.764 0.336 -1.403
v 0.766 0.226 -1.296
v 0.766 0.25 -1.303
v 0.766 0.208 -1.279
v 0.766 0.201 -1.255
v 0.766 0.208 -1.231
v 0.766 0.226 -1.213
v 0.766 0.25 -1.206
v 0.766 0.274 -1.213
v 0.766 0.291 -1.231
v 0.766 0.298 -1.255
v 0.766 0.291 -1.279
v 0.766 0.274 -1.296
v 0.775 0.235 -1.281
v 0.775 0.25 -1.285
v 0.775 0.224 -1.27
v 0.775 0.22 -1.255
v 0.775 0.224 -1.24
v 0.775 0.235 -1.229
v 0.775 0.25 -1.225
v 0.775 0.265 -1.229
v 0.775 0.276 -1.24
v 0.775 0.28 -1.255
v 0.775 0.276 -1.27
v 0.775 0.265 -1.281
v 0.764 0.241 -1.094
v 0.764 0.172 -1.113
v 0.763 0.243 -1.196
v 0.763 0.222 -1.201
v 0.764 0.327 -1.113
v 0.764 0.258 -1.094
v 0.763 0.277 -1.201
v 0.763 0.256 -1.196
v 0.764 0.387 -1.168
v 0.764 0.337 -1.117
v 0.763 0.299 -1.22
v 0.763 0.284 -1.205
v 0.764 0.41 -1.246
v 0.764 0.392 -1.177
v 0.763 0.309 -1.248
v 0.763 0.303 -1.227
v 0.764 0.337 -1.392
v 0.764 0.387 -1.342
v 0.763 0.284 -1.304
v 0.763 0.299 -1.289
v 0.764 0.392 -1.332
v 0.764 0.41 -1.263
v 0.763 0.303 -1.282
v 0.763 0.309 -1.261
v 0.764 0.258 -1.415
v 0.764 0.327 -1.397
v 0.763 0.256 -1.314
v 0.763 0.277 -1.308
v 0.764 0.172 -1.397
v 0.764 0.241 -1.415
v 0.763 0.222 -1.308
v 0.763 0.243 -1.314
v 0.764 0.112 -1.342
v 0.764 0.163 -1.392
v 0.763 0.2 -1.289
v 0.763 0.215 -1.304
v 0.764 0.089 -1.263
v 0.764 0.108 -1.332
v 0.763 0.191 -1.261
v 0.763 0.196 -1.282
v 0.764 0.108 -1.177
v 0.764 0.089 -1.246
v 0.763 0.196 -1.227
v 0.763 0.191 -1.248
v 0.764 0.163 -1.117
v 0.764 0.112 -1.168
v 0.763 0.215 -1.205
v 0.763 0.2 -1.22
v 0.723 0.241 -1.094
v 0.723 0.172 -1.113
v 0.732 0.243 -1.196
v 0.732 0.222 -1.201
v 0.723 0.327 -1.113
v 0.723 0.258 -1.094
v 0.732 0.277 -1.201
v 0.732 0.256 -1.196
v 0.723 0.387 -1.168
v 0.723 0.337 -1.117
v 0.732 0.299 -1.22
v 0.732 0.284 -1.205
v 0.723 0.41 -1.246
v 0.723 0.392 -1.177
v 0.732 0.309 -1.248
v 0.732 0.303 -1.227
v 0.723 0.337 -1.392
v 0.723 0.387 -1.342
v 0.732 0.284 -1.304
v 0.732 0.299 -1.289
v 0.723 0.392 -1.332
v 0.723 0.41 -1.263
v 0.732 0.303 -1.282
v 0.732 0.309 -1.261
v 0.723 0.258 -1.415
v 0.723 0.327 -1.397
v 0.732 0.256 -1.314
v 0.732 0.277 -1.308
v 0.723 0.172 -1.397
v 0.723 0.241 -1.415
v 0.732 0.222 -1.308
v 0.732 0.243 -1.314
v 0.723 0.112 -1.342
v 0.723 0.163 -1.392
v 0.732 0.2 -1.289
v 0.732 0.215 -1.304
v 0.723 0.089 -1.263
v 0.723 0.108 -1.332
v 0.732 0.191 -1.261
v 0.732 0.196 -1.282
v 0.723 0.108 -1.177
v 0.723 0.089 -1.246
v 0.732 0.196 -1.227
v 0.732 0.191 -1.248
v 0.723 0.163 -1.117
v 0.723 0.112 -1.168
v 0.732 0.215 -1.205
v 0.732 0.2 -1.22
v 0.768 0.224 -1.218
v 0.768 0.213 -1.229
v 0.773 0.229 -1.228
v 0.773 0.223 -1.234
v 0.768 0.213 -1.28
v 0.768 0.224 -1.291
v 0.773 0.223 -1.275
v 0.773 0.229 -1.282
v 0.768 0.275 -1.291
v 0.768 0.286 -1.28
v 0.773 0.27 -1.282
v 0.773 0.277 -1.275
v 0.768 0.286 -1.229
v 0.768 0.275 -1.218
v 0.773 0.277 -1.234
v 0.773 0.27 -1.228
v 0.751 0.224 -1.218
v 0.751 0.213 -1.229
v 0.756 0.229 -1.228
v 0.756 0.223 -1.234
v 0.751 0.213 -1.28
v 0.751 0.224 -1.291
v 0.756 0.223 -1.275
v 0.756 0.229 -1.282
v 0.751 0.275 -1.291
v 0.751 0.286 -1.28
v 0.756 0.27 -1.282
v 0.756 0.277 -1.275
v 0.751 0.286 -1.229
v 0.751 0.275 -1.218
v 0.756 0.277 -1.234
v 0.756 0.27 -1.228
v -0.592 0.25 -1.515
v -0.752 0.25 -1.515
v -0.592 0.12 -1.48
v -0.752 0.12 -1.48
v -0.592 0.025 -1.385
v -0.752 0.025 -1.385
v -0.592 -0.01 -1.255
v -0.752 -0.01 -1.255
v -0.592 0.025 -1.125
v -0.752 0.025 -1.125
v -0.592 0.12 -1.03
v -0.752 0.12 -1.03
v -0.592 0.25 -0.995
v -0.752 0.25 -0.995
v -0.592 0.38 -1.03
v -0.752 0.38 -1.03
v -0.592 0.475 -1.125
v -0.752 0.475 -1.125
v -0.592 0.51 -1.255
v -0.752 0.51 -1.255
v -0.592 0.475 -1.385
v -0.752 0.475 -1.385
v -0.592 0.38 -1.48
v -0.752 0.38 -1.48
v -0.781 0.151 -1.425
v -0.781 0.25 -1.451
v -0.781 0.079 -1.353
v -0.781 0.053 -1.255
v -0.781 0.079 -1.156
v -0.781 0.151 -1.084
v -0.781 0.25 -1.058
v -0.781 0.348 -1.084
v -0.781 0.42 -1.156
v -0.781 0.446 -1.255
v -0.781 0.42 -1.353
v -0.781 0.348 -1.425
v -0.781 0.164 -1.403
v -0.781 0.25 -1.426
v -0.781 0.101 -1.341
v -0.781 0.078 -1.255
v -0.781 0.101 -1.169
v -0.781 0.164 -1.106
v -0.781 0.25 -1.083
v -0.781 0.336 -1.106
v -0.781 0.398 -1.169
v -0.781 0.421 -1.255
v -0.781 0.398 -1.341
v -0.781 0.336 -1.403
v -0.758 0.164 -1.403
v -0.758 0.25 -1.426
v -0.758 0.101 -1.341
v -0.758 0.078 -1.255
v -0.758 0.101 -1.169
v -0.758 0.164 -1.106
v -0.758 0.25 -1.083
v -0.758 0.336 -1.106
v -0.758 0.398 -1.169
v -0.758 0.421 -1.255
v -0.758 0.398 -1.341
v -0.758 0.336 -1.403
v -0.76 0.226 -1.296
v -0.76 0.25 -1.303
v -0.76 0.208 -1.279
v -0.76 0.201 -1.255
v -0.76 0.208 -1.231
v -0.76 0.226 -1.213
v -0.76 0.25 -1.206
v -0.76 0.274 -1.213
v -0.76 0.291 -1.231
v -0.76 0.298 -1.255
v -0.76 0.291 -1.279
v -0.76 0.274 -1.296
v -0.769 0.235 -1.281
v -0.769 0.25 -1.285
v -0.769 0.224 -1.27
v -0.769 0.22 -1.255
v -0.769 0.224 -1.24
v -0.769 0.235 -1.229
v -0.769 0.25 -1.225
v -0.769 0.265 -1.229
v -0.769 0.276 -1.24
v -0.769 0.28 -1.255
v -0.769 0.276 -1.27
v -0.769 0.265 -1.281
v -0.758 0.241 -1.094
v -0.758 0.172 -1.113
v -0.757 0.243 -1.196
v -0.757 0.222 -1.201
v -0.758 0.327 -1.113
v -0.758 0.258 -1.094
v -0.757 0.277 -1.201
v -0.757 0.256 -1.196
v -0.758 0.387 -1.168
v -0.758 0.337 -1.117
v -0.757 0.299 -1.22
v -0.757 0.284 -1.205
v -0.758 0.41 -1.246
v -0.758 0.392 -1.177
v -0.757 0.309 -1.248
v -0.757 0.303 -1.227
v -0.758 0.337 -1.392
v -0.758 0.387 -1.342
v -0.757 0.284 -1.304
v -0.757 0.299 -1.289
v -0.758 0.392 -1.332
v -0.758 0.41 -1.263
v -0.757 0.303 -1.282
v -0.757 0.309 -1.261
v -0.758 0.258 -1.415
v -0.758 0.327 -1.397
v -0.757 0.256 -1.314
v -0.757 0.277 -1.308
v -0.758 0.172 -1.397
v -0.758 0.241 -1.415
v -0.757 0.222 -1.308
v -0.757 0.243 -1.314
v -0.758 0.112 -1.342
v -0.758 0.163 -1.392
v -0.757 0.2 -1.289
v -0.757 0.215 -1.304
v -0.758 0.089 -1.263
v -0.758 0.108 -1.332
v -0.757 0.191 -1.261
v -0.757 0.196 -1.282
v -0.758 0.108 -1.177
v -0.758 0.089 -1.246
v -0.757 0.196 -1.227
v -0.757 0.191 -1.248
v -0.758 0.163 -1.117
v -0.758 0.112 -1.168
v -0.757 0.215 -1.205
v -0.757 0.2 -1.22
v -0.717 0.241 -1.094
v -0.717 0.172 -1.113
v -0.726 0.243 -1.196
v -0.726 0.222 -1.201
v -0.717 0.327 -1.113
v -0.717 0.258 -1.094
v -0.726 0.277 -1.201
v -0.726 0.256 -1.196
v -0.717 0.387 -1.168
v -0.717 0.337 -1.117
v -0.726 0.299 -1.22
v -0.726 0.284 -1.205
v -0.717 0.41 -1.246
v -0.717 0.392 -1.177
v -0.726 0.309 -1.248
v -0.726 0.303 -1.227
v -0.717 0.337 -1.392
v -0.717 0.387 -1.342
v -0.726 0.284 -1.304
v -0.726 0.299 -1.289
v -0.717 0.392 -1.332
v -0.717 0.41 -1.263
v -0.726 0.303 -1.282
v -0.726 0.309 -1.261
v -0.717 0.258 -1.415
v -0.717 0.327 -1.397
v -0.726 0.256 -1.314
v -0.726 0.277 -1.308
v -0.717 0.172 -1.397
v -0.717 0.241 -1.415
v -0.726 0.222 -1.308
v -0.726 0.243 -1.314
v -0.717 0.112 -1.342
v -0.717 0.163 -1.392
v -0.726 0.2 -1.289
v -0.726 0.215 -1.304
v -0.717 0.089 -1.263
v -0.717 0.108 -1.332
v -0.726 0.191 -1.261
v -0.726 0.196 -1.282
v -0.717 0.108 -1.177
v -0.717 0.089 -1.246
v -0.726 0.196 -1.227
v -0.726 0.191 -1.248
v -0.717 0.163 -1.117
v -0.717 0.112 -1.168
v -0.726 0.215 -1.205
v -0.726 0.2 -1.22
v -0.762 0.224 -1.218
v -0.762 0.213 -1.229
v -0.767 0.229 -1.228
v -0.767 0.223 -1.234
v -0.762 0.213 -1.28
v -0.762 0.224 -1.291
v -0.767 0.223 -1.275
v -0.767 0.229 -1.282
v -0.762 0.275 -1.291
v -0.762 0.286 -1.28
v -0.767 0.27 -1.282
v -0.767 0.277 -1.275
v -0.762 0.286 -1.229
v -0.762 0.275 -1.218
v -0.767 0.277 -1.234
v -0.767 0.27 -1.228
v -0.745 0.224 -1.218
v -0.745 0.213 -1.229
v -0.75 0.229 -1.228
v -0.75 0.223 -1.234
v -0.745 0.213 -1.28
v -0.745 0.224 -1.291
v -0.75 0.223 -1.275
v -0.75 0.229 -1.282
v -0.745 0.275 -1.291
v -0.745 0.286 -1.28
v -0.75 0.27 -1.282
v -0.75 0.277 -1.275
v -0.745 0.286 -1.229
v -0.745 0.275 -1.218
v -0.75 0.277 -1.234
v -0.75 0.27 -1.228
usemtl Black
f 704 705 707 706
f 706 707 709 708
f 708 709 711 710
f 710 711 713 712
f 712 713 715 714
f 714 715 717 716
f 716 717 719 718
f 718 719 721 720
f 720 721 723 722
f 722 723 725 724
f 717 715 733 734
f 724 725 727 726
f 726 727 705 704
f 704 706 708 710 712 714 716 718 720 722 724 726
f 734 733 745 746
f 715 713 732 733
f 713 711 731 732
f 705 727 739 729
f 707 705 729 728
f 711 709 730 731
f 727 725 738 739
f 709 707 728 730
f 725 723 737 738
f 723 721 736 737
f 721 719 735 736
f 719 717 734 735
f 749 748 760 761
f 731 730 742 743
f 738 737 749 750
f 735 734 746 747
f 732 731 743 744
f 739 738 750 751
f 728 729 741 740
f 736 735 747 748
f 733 732 744 745
f 729 739 751 741
f 730 728 740 742
f 737 736 748 749
f 746 745 757 758
f 743 742 754 755
f 750 749 761 762
f 747 746 758 759
f 744 743 755 756
f 751 750 762 763
f 740 741 753 752
f 748 747 759 760
f 745 744 756 757
f 741 751 763 753
f 742 740 752 754
f 836 837 839 838
f 840 841 843 842
f 844 845 847 846
f 848 849 851 850
f 852 853 855 854
f 856 857 859 858
f 860 861 863 862
f 864 865 867 866
f 868 869 871 870
f 872 873 875 874
f 876 877 879 878
f 880 881 883 882
f 900 901 903 902
f 904 905 907 906
f 908 909 911 910
f 912 913 915 914
f 916 918 919 917
f 918 920 921 919
f 920 922 923 921
f 922 924 925 923
f 924 926 927 925
f 926 928 929 927
f 928 930 931 929
f 930 932 933 931
f 932 934 935 933
f 934 936 937 935
f 929 946 945 927
f 936 938 939 937
f 938 916 917 939
f 916 938 936 934 932 930 928 926 924 922 920 918
f 946 958 957 945
f 927 945 944 925
f 925 944 943 923
f 917 941 951 939
f 919 940 941 917
f 923 943 942 921
f 939 951 950 937
f 921 942 940 919
f 937 950 949 935
f 935 949 948 933
f 933 948 947 931
f 931 947 946 929
f 961 973 972 960
f 943 955 954 942
f 950 962 961 949
f 947 959 958 946
f 944 956 955 943
f 951 963 962 950
f 940 952 953 941
f 948 960 959 947
f 945 957 956 944
f 941 953 963 951
f 942 954 952 940
f 949 961 960 948
f 958 970 969 957
f 955 967 966 954
f 962 974 973 961
f 959 971 970 958
f 956 968 967 955
f 963 975 974 962
f 952 964 965 953
f 960 972 971 959
f 957 969 968 956
f 953 965 975 963
f 954 966 964 952
f 1048 1050 1051 1049
f 1052 1054 1055 1053
f 1056 1058 1059 1057
f 1060 1062 1063 1061
f 1064 1066 1067 1065
f 1068 1070 1071 1069
f 1072 1074 1075 1073
f 1076 1078 1079 1077
f 1080 1082 1083 1081
f 1084 1086 1087 1085
f 1088 1090 1091 1089
f 1092 1094 1095 1093
f 1112 1114 1115 1113
f 1116 1118 1119 1117
f 1120 1122 1123 1121
f 1124 1126 1127 1125
usemtl Grey
f 766 754 820 822
f 765 775 787 777
f 760 772 803 801
f 758 757 789 788
f 766 767 826 827
f 774 762 808 810
f 770 771 794 795
f 755 767 831 829
f 774 775 806 807
f 765 764 818 819
f 772 760 796 798
f 768 769 834 835
f 775 765 814 815
f 776 777 787 786 785 784 783 782 781 780 779 778
f 764 776 891 889
f 773 772 784 785
f 770 769 781 782
f 767 766 778 779
f 774 773 785 786
f 771 770 782 783
f 768 767 779 780
f 787 775 892 894
f 764 765 777 776
f 771 783 899 897
f 769 768 885 884
f 791 790 838 839
f 770 758 788 790
f 769 770 790 791
f 757 769 791 789
f 811 810 858 859
f 758 770 795 793
f 759 758 793 792
f 771 759 792 794
f 831 830 878 879
f 759 771 799 797
f 771 772 798 799
f 760 759 797 796
f 802 800 848 850
f 772 773 802 803
f 761 760 801 800
f 773 761 800 802
f 788 789 837 836
f 763 762 805 804
f 762 774 807 805
f 775 763 804 806
f 822 820 868 870
f 761 773 811 809
f 773 774 810 811
f 762 761 809 808
f 808 809 857 856
f 763 775 815 813
f 753 763 813 812
f 765 753 812 814
f 828 829 877 876
f 752 753 817 816
f 764 752 816 818
f 753 765 819 817
f 801 803 851 849
f 764 766 822 823
f 752 764 823 821
f 754 752 821 820
f 821 823 871 869
f 754 766 827 825
f 755 754 825 824
f 767 755 824 826
f 803 802 850 851
f 767 768 830 831
f 756 755 829 828
f 768 756 828 830
f 823 822 870 871
f 757 756 833 832
f 769 757 832 834
f 756 768 835 833
f 829 831 879 877
f 809 811 859 857
f 789 791 839 837
f 816 817 865 864
f 830 828 876 878
f 796 797 845 844
f 810 808 856 858
f 790 788 836 838
f 819 818 866 867
f 799 798 846 847
f 818 816 864 866
f 798 796 844 846
f 824 825 873 872
f 804 805 853 852
f 817 819 867 865
f 797 799 847 845
f 827 826 874 875
f 807 806 854 855
f 825 827 875 873
f 805 807 855 853
f 832 833 881 880
f 812 813 861 860
f 826 824 872 874
f 792 793 841 840
f 806 804 852 854
f 835 834 882 883
f 815 814 862 863
f 795 794 842 843
f 834 832 880 882
f 813 815 863 861
f 793 795 843 841
f 820 821 869 868
f 833 835 883 881
f 800 801 849 848
f 814 812 860 862
f 794 792 840 842
f 884 885 901 900
f 781 769 884 886
f 768 780 887 885
f 780 781 886 887
f 897 899 915 913
f 776 778 890 891
f 766 764 889 888
f 778 766 888 890
f 893 895 911 909
f 786 787 894 895
f 774 786 895 893
f 775 774 893 892
f 898 896 912 914
f 783 784 898 899
f 772 771 897 896
f 784 772 896 898
f 888 889 905 904
f 887 886 902 903
f 892 893 909 908
f 891 890 906 907
f 896 897 913 912
f 886 884 900 902
f 895 894 910 911
f 889 891 907 905
f 899 898 914 915
f 885 887 903 901
f 894 892 908 910
f 890 888 904 906
f 978 1034 1032 966
f 977 989 999 987
f 972 1013 1015 984
f 970 1000 1001 969
f 978 1039 1038 979
f 986 1022 1020 974
f 982 1007 1006 983
f 967 1041 1043 979
f 986 1019 1018 987
f 977 1031 1030 976
f 984 1010 1008 972
f 980 1047 1046 981
f 987 1027 1026 977
f 988 990 991 992 993 994 995 996 997 998 999 989
f 976 1101 1103 988
f 985 997 996 984
f 982 994 993 981
f 979 991 990 978
f 986 998 997 985
f 983 995 994 982
f 980 992 991 979
f 999 1106 1104 987
f 976 988 989 977
f 983 1109 1111 995
f 981 1096 1097 980
f 1003 1051 1050 1002
f 982 1002 1000 970
f 981 1003 1002 982
f 969 1001 1003 981
f 1023 1071 1070 1022
f 970 1005 1007 982
f 971 1004 1005 970
f 983 1006 1004 971
f 1043 1091 1090 1042
f 971 1009 1011 983
f 983 1011 1010 984
f 972 1008 1009 971
f 1014 1062 1060 1012
f 984 1015 1014 985
f 973 1012 1013 972
f 985 1014 1012 973
f 1000 1048 1049 1001
f 975 1016 1017 974
f 974 1017 1019 986
f 987 1018 1016 975
f 1034 1082 1080 1032
f 973 1021 1023 985
f 985 1023 1022 986
f 974 1020 1021 973
f 1020 1068 1069 1021
f 975 1025 1027 987
f 965 1024 1025 975
f 977 1026 1024 965
f 1040 1088 1089 1041
f 964 1028 1029 965
f 976 1030 1028 964
f 965 1029 1031 977
f 1013 1061 1063 1015
f 976 1035 1034 978
f 964 1033 1035 976
f 966 1032 1033 964
f 1033 1081 1083 1035
f 966 1037 1039 978
f 967 1036 1037 966
f 979 1038 1036 967
f 1015 1063 1062 1014
f 979 1043 1042 980
f 968 1040 1041 967
f 980 1042 1040 968
f 1035 1083 1082 1034
f 969 1044 1045 968
f 981 1046 1044 969
f 968 1045 1047 980
f 1041 1089 1091 1043
f 1021 1069 1071 1023
f 1001 1049 1051 1003
f 1028 1076 1077 1029
f 1042 1090 1088 1040
f 1008 1056 1057 1009
f 1022 1070 1068 1020
f 1002 1050 1048 1000
f 1031 1079 1078 1030
f 1011 1059 1058 1010
f 1030 1078 1076 1028
f 1010 1058 1056 1008
f 1036 1084 1085 1037
f 1016 1064 1065 1017
f 1029 1077 1079 1031
f 1009 1057 1059 1011
f 1039 1087 1086 1038
f 1019 1067 1066 1018
f 1037 1085 1087 1039
f 1017 1065 1067 1019
f 1044 1092 1093 1045
f 1024 1072 1073 1025
f 1038 1086 1084 1036
f 1004 1052 1053 1005
f 1018 1066 1064 1016
f 1047 1095 1094 1046
f 1027 1075 1074 1026
f 1007 1055 1054 1006
f 1046 1094 1092 1044
f 1025 1073 1075 1027
f 1005 1053 1055 1007
f 1032 1080 1081 1033
f 1045 1093 1095 1047
f 1012 1060 1061 1013
f 1026 1074 1072 1024
f 1006 1054 1052 1004
f 1096 1112 1113 1097
f 993 1098 1096 981
f 980 1097 1099 992
f 992 1099 1098 993
f 1109 1125 1127 1111
f 988 1103 1102 990
f 978 1100 1101 976
f 990 1102 1100 978
f 1105 1121 1123 1107
f 998 1107 1106 999
f 986 1105 1107 998
f 987 1104 1105 986
f 1110 1126 1124 1108
f 995 1111 1110 996
f 984 1108 1109 983
f 996 1110 1108 984
f 1100 1116 1117 1101
f 1099 1115 1114 1098
f 1104 1120 1121 1105
f 1103 1119 1118 1102
f 1108 1124 1125 1109
f 1098 1114 1112 1096
f 1107 1123 1122 1106
f 1101 1117 1119 1103
f 1111 1127 1126 1110
f 1097 1113 1115 1099
f 1106 1122 1120 1104
f 1102 1118 1116 1100
o SportsCar_FrontLeftWheel_Cylinder.013
v 0.625 0.25 0.928
v 0.786 0.25 0.928
v 0.625 0.12 0.963
v 0.786 0.12 0.963
v 0.625 0.025 1.058
v 0.786 0.025 1.058
v 0.625 -0.01 1.188
v 0.786 -0.01 1.188
v 0.625 0.025 1.318
v 0.786 0.025 1.318
v 0.625 0.12 1.413
v 0.786 0.12 1.413
v 0.625 0.25 1.448
v 0.786 0.25 1.448
v 0.625 0.38 1.413
v 0.786 0.38 1.413
v 0.625 0.475 1.318
v 0.786 0.475 1.318
v 0.625 0.51 1.188
v 0.786 0.51 1.188
v 0.625 0.475 1.058
v 0.786 0.475 1.058
v 0.625 0.38 0.963
v 0.786 0.38 0.963
v 0.814 0.151 1.018
v 0.814 0.25 0.991
v 0.814 0.079 1.09
v 0.814 0.053 1.188
v 0.814 0.079 1.286
v 0.814 0.151 1.358
v 0.814 0.25 1.385
v 0.814 0.348 1.358
v 0.814 0.42 1.286
v 0.814 0.446 1.188
v 0.814 0.42 1.09
v 0.814 0.348 1.018
v 0.814 0.164 1.039
v 0.814 0.25 1.016
v 0.814 0.101 1.102
v 0.814 0.078 1.188
v 0.814 0.101 1.274
v 0.814 0.164 1.337
v 0.814 0.25 1.36
v 0.814 0.336 1.337
v 0.814 0.398 1.274
v 0.814 0.421 1.188
v 0.814 0.398 1.102
v 0.814 0.336 1.039
v 0.791 0.164 1.039
v 0.791 0.25 1.016
v 0.791 0.101 1.102
v 0.791 0.078 1.188
v 0.791 0.101 1.274
v 0.791 0.164 1.337
v 0.791 0.25 1.36
v 0.791 0.336 1.337
v 0.791 0.398 1.274
v 0.791 0.421 1.188
v 0.791 0.398 1.102
v 0.791 0.336 1.039
v 0.794 0.226 1.146
v 0.794 0.25 1.14
v 0.794 0.208 1.164
v 0.794 0.201 1.188
v 0.794 0.208 1.212
v 0.794 0.226 1.23
v 0.794 0.25 1.236
v 0.794 0.274 1.23
v 0.794 0.291 1.212
v 0.794 0.298 1.188
v 0.794 0.291 1.164
v 0.794 0.274 1.146
v 0.802 0.235 1.162
v 0.802 0.25 1.158
v 0.802 0.224 1.173
v 0.802 0.22 1.188
v 0.802 0.224 1.203
v 0.802 0.235 1.214
v 0.802 0.25 1.218
v 0.802 0.265 1.214
v 0.802 0.276 1.203
v 0.802 0.28 1.188
v 0.802 0.276 1.173
v 0.802 0.265 1.162
v 0.791 0.241 1.348
v 0.791 0.172 1.33
v 0.79 0.243 1.247
v 0.79 0.222 1.242
v 0.791 0.327 1.33
v 0.791 0.258 1.348
v 0.79 0.277 1.242
v 0.79 0.256 1.247
v 0.791 0.387 1.275
v 0.791 0.337 1.325
v 0.79 0.299 1.223
v 0.79 0.284 1.238
v 0.791 0.41 1.197
v 0.791 0.392 1.265
v 0.79 0.309 1.195
v 0.79 0.303 1.215
v 0.791 0.337 1.051
v 0.791 0.387 1.101
v 0.79 0.284 1.138
v 0.79 0.299 1.153
v 0.791 0.392 1.111
v 0.791 0.41 1.179
v 0.79 0.303 1.161
v 0.79 0.309 1.181
v 0.791 0.258 1.028
v 0.791 0.327 1.046
v 0.79 0.256 1.129
v 0.79 0.277 1.134
v 0.791 0.172 1.046
v 0.791 0.241 1.028
v 0.79 0.222 1.134
v 0.79 0.243 1.129
v 0.791 0.112 1.101
v 0.791 0.163 1.051
v 0.79 0.2 1.153
v 0.79 0.215 1.138
v 0.791 0.089 1.179
v 0.791 0.108 1.111
v 0.79 0.191 1.181
v 0.79 0.196 1.161
v 0.791 0.108 1.265
v 0.791 0.089 1.197
v 0.79 0.196 1.215
v 0.79 0.191 1.195
v 0.791 0.163 1.325
v 0.791 0.112 1.275
v 0.79 0.215 1.238
v 0.79 0.2 1.223
v 0.75 0.241 1.348
v 0.75 0.172 1.33
v 0.759 0.243 1.247
v 0.759 0.222 1.242
v 0.75 0.327 1.33
v 0.75 0.258 1.348
v 0.759 0.277 1.242
v 0.759 0.256 1.247
v 0.75 0.387 1.275
v 0.75 0.337 1.325
v 0.759 0.299 1.223
v 0.759 0.284 1.238
v 0.75 0.41 1.197
v 0.75 0.392 1.265
v 0.759 0.309 1.195
v 0.759 0.303 1.215
v 0.75 0.337 1.051
v 0.75 0.387 1.101
v 0.759 0.284 1.138
v 0.759 0.299 1.153
v 0.75 0.392 1.111
v 0.75 0.41 1.179
v 0.759 0.303 1.161
v 0.759 0.309 1.181
v 0.75 0.258 1.028
v 0.75 0.327 1.046
v 0.759 0.256 1.129
v 0.759 0.277 1.134
v 0.75 0.172 1.046
v 0.75 0.241 1.028
v 0.759 0.222 1.134
v 0.759 0.243 1.129
v 0.75 0.112 1.101
v 0.75 0.163 1.051
v 0.759 0.2 1.153
v 0.759 0.215 1.138
v 0.75 0.089 1.179
v 0.75 0.108 1.111
v 0.759 0.191 1.181
v 0.759 0.196 1.161
v 0.75 0.108 1.265
v 0.75 0.089 1.197
v 0.759 0.196 1.215
v 0.759 0.191 1.195
v 0.75 0.163 1.325
v 0.75 0.112 1.275
v 0.759 0.215 1.238
v 0.759 0.2 1.223
v 0.795 0.224 1.224
v 0.795 0.213 1.214
v 0.8 0.229 1.215
v 0.8 0.223 1.208
v 0.795 0.213 1.162
v 0.795 0.224 1.152
v 0.8 0.223 1.168
v 0.8 0.229 1.161
v 0.795 0.275 1.152
v 0.795 0.286 1.162
v 0.8 0.27 1.161
v 0.8 0.277 1.168
v 0.795 0.286 1.214
v 0.795 0.275 1.224
v 0.8 0.277 1.208
v 0.8 0.27 1.215
v 0.778 0.224 1.224
v 0.778 0.213 1.214
v 0.783 0.229 1.215
v 0.783 0.223 1.208
v 0.778 0.213 1.162
v 0.778 0.224 1.152
v 0.783 0.223 1.168
v 0.783 0.229 1.161
v 0.778 0.275 1.152
v 0.778 0.286 1.162
v 0.783 0.27 1.161
v 0.783 0.277 1.168
v 0.778 0.286 1.214
v 0.778 0.275 1.224
v 0.783 0.277 1.208
v 0.783 0.27 1.215
usemtl Black
f 1128 1129 1131 1130
f 1130 1131 1133 1132
f 1132 1133 1135 1134
f 1134 1135 1137 1136
f 1136 1137 1139 1138
f 1138 1139 1141 1140
f 1140 1141 1143 1142
f 1142 1143 1145 1144
f 1144 1145 1147 1146
f 1146 1147 1149 1148
f 1141 1139 1157 1158
f 1148 1149 1151 1150
f 1150 1151 1129 1128
f 1128 1130 1132 1134 1136 1138 1140 1142 1144 1146 1148 1150
f 1158 1157 1169 1170
f 1139 1137 1156 1157
f 1137 1135 1155 1156
f 1129 1151 1163 1153
f 1131 1129 1153 1152
f 1135 1133 1154 1155
f 1151 1149 1162 1163
f 1133 1131 1152 1154
f 1149 1147 1161 1162
f 1147 1145 1160 1161
f 1145 1143 1159 1160
f 1143 1141 1158 1159
f 1173 1172 1184 1185
f 1155 1154 1166 1167
f 1162 1161 1173 1174
f 1159 1158 1170 1171
f 1156 1155 1167 1168
f 1163 1162 1174 1175
f 1152 1153 1165 1164
f 1160 1159 1171 1172
f 1157 1156 1168 1169
f 1153 1163 1175 1165
f 1154 1152 1164 1166
f 1161 1160 1172 1173
f 1170 1169 1181 1182
f 1167 1166 1178 1179
f 1174 1173 1185 1186
f 1171 1170 1182 1183
f 1168 1167 1179 1180
f 1175 1174 1186 1187
f 1164 1165 1177 1176
f 1172 1171 1183 1184
f 1169 1168 1180 1181
f 1165 1175 1187 1177
f 1166 1164 1176 1178
f 1260 1261 1263 1262
f 1264 1265 1267 1266
f 1268 1269 1271 1270
f 1272 1273 1275 1274
f 1276 1277 1279 1278
f 1280 1281 1283 1282
f 1284 1285 1287 1286
f 1288 1289 1291 1290
f 1292 1293 1295 1294
f 1296 1297 1299 1298
f 1300 1301 1303 1302
f 1304 1305 1307 1306
f 1324 1325 1327 1326
f 1328 1329 1331 1330
f 1332 1333 1335 1334
f 1336 1337 1339 1338
usemtl Grey
f 1190 1178 1244 1246
f 1189 1199 1211 1201
f 1184 1196 1227 1225
f 1182 1181 1213 1212
f 1190 1191 1250 1251
f 1198 1186 1232 1234
f 1194 1195 1218 1219
f 1179 1191 1255 1253
f 1198 1199 1230 1231
f 1189 1188 1242 1243
f 1196 1184 1220 1222
f 1192 1193 1258 1259
f 1199 1189 1238 1239
f 1200 1201 1211 1210 1209 1208 1207 1206 1205 1204 1203 1202
f 1188 1200 1315 1313
f 1197 1196 1208 1209
f 1194 1193 1205 1206
f 1191 1190 1202 1203
f 1198 1197 1209 1210
f 1195 1194 1206 1207
f 1192 1191 1203 1204
f 1211 1199 1316 1318
f 1188 1189 1201 1200
f 1195 1207 1323 1321
f 1193 1192 1309 1308
f 1215 1214 1262 1263
f 1194 1182 1212 1214
f 1193 1194 1214 1215
f 1181 1193 1215 1213
f 1235 1234 1282 1283
f 1182 1194 1219 1217
f 1183 1182 1217 1216
f 1195 1183 1216 1218
f 1255 1254 1302 1303
f 1183 1195 1223 1221
f 1195 1196 1222 1223
f 1184 1183 1221 1220
f 1226 1224 1272 1274
f 1196 1197 1226 1227
f 1185 1184 1225 1224
f 1197 1185 1224 1226
f 1212 1213 1261 1260
f 1187 1186 1229 1228
f 1186 1198 1231 1229
f 1199 1187 1228 1230
f 1246 1244 1292 1294
f 1185 1197 1235 1233
f 1197 1198 1234 1235
f 1186 1185 1233 1232
f 1232 1233 1281 1280
f 1187 1199 1239 1237
f 1177 1187 1237 1236
f 1189 1177 1236 1238
f 1252 1253 1301 1300
f 1176 1177 1241 1240
f 1188 1176 1240 1242
f 1177 1189 1243 1241
f 1225 1227 1275 1273
f 1188 1190 1246 1247
f 1176 1188 1247 1245
f 1178 1176 1245 1244
f 1245 1247 1295 1293
f 1178 1190 1251 1249
f 1179 1178 1249 1248
f 1191 1179 1248 1250
f 1227 1226 1274 1275
f 1191 1192 1254 1255
f 1180 1179 1253 1252
f 1192 1180 1252 1254
f 1247 1246 1294 1295
f 1181 1180 1257 1256
f 1193 1181 1256 1258
f 1180 1192 1259 1257
f 1253 1255 1303 1301
f 1233 1235 1283 1281
f 1213 1215 1263 1261
f 1240 1241 1289 1288
f 1254 1252 1300 1302
f 1220 1221 1269 1268
f 1234 1232 1280 1282
f 1214 1212 1260 1262
f 1243 1242 1290 1291
f 1223 1222 1270 1271
f 1242 1240 1288 1290
f 1222 1220 1268 1270
f 1248 1249 1297 1296
f 1228 1229 1277 1276
f 1241 1243 1291 1289
f 1221 1223 1271 1269
f 1251 1250 1298 1299
f 1231 1230 1278 1279
f 1249 1251 1299 1297
f 1229 1231 1279 1277
f 1256 1257 1305 1304
f 1236 1237 1285 1284
f 1250 1248 1296 1298
f 1216 1217 1265 1264
f 1230 1228 1276 1278
f 1259 1258 1306 1307
f 1239 1238 1286 1287
f 1219 1218 1266 1267
f 1258 1256 1304 1306
f 1237 1239 1287 1285
f 1217 1219 1267 1265
f 1244 1245 1293 1292
f 1257 1259 1307 1305
f 1224 1225 1273 1272
f 1238 1236 1284 1286
f 1218 1216 1264 1266
f 1308 1309 1325 1324
f 1205 1193 1308 1310
f 1192 1204 1311 1309
f 1204 1205 1310 1311
f 1321 1323 1339 1337
f 1200 1202 1314 1315
f 1190 1188 1313 1312
f 1202 1190 1312 1314
f 1317 1319 1335 1333
f 1210 1211 1318 1319
f 1198 1210 1319 1317
f 1199 1198 1317 1316
f 1322 1320 1336 1338
f 1207 1208 1322 1323
f 1196 1195 1321 1320
f 1208 1196 1320 1322
f 1312 1313 1329 1328
f 1311 1310 1326 1327
f 1316 1317 1333 1332
f 1315 1314 1330 1331
f 1320 1321 1337 1336
f 1310 1308 1324 1326
f 1319 1318 1334 1335
f 1313 1315 1331 1329
f 1323 1322 1338 1339
f 1309 1311 1327 1325
f 1318 1316 1332 1334
f 1314 1312 1328 1330
o SportsCar_FrontRightWheel_Cylinder.014
v -0.619 0.25 0.928
v -0.78 0.25 0.928
v -0.619 0.12 0.963
v -0.78 0.12 0.963
v -0.619 0.025 1.058
v -0.78 0.025 1.058
v -0.619 -0.01 1.188
v -0.78 -0.01 1.188
v -0.619 0.025 1.318
v -0.78 0.025 1.318
v -0.619 0.12 1.413
v -0.78 0.12 1.413
v -0.619 0.25 1.448
v -0.78 0.25 1.448
v -0.619 0.38 1.413
v -0.78 0.38 1.413
v -0.619 0.475 1.318
v -0.78 0.475 1.318
v -0.619 0.51 1.188
v -0.78 0.51 1.188
v -0.619 0.475 1.058
v -0.78 0.475 1.058
v -0.619 0.38 0.963
v -0.78 0.38 0.963
v -0.809 0.151 1.018
v -0.809 0.25 0.991
v -0.809 0.079 1.09
v -0.809 0.053 1.188
v -0.809 0.079 1.286
v -0.809 0.151 1.358
v -0.809 0.25 1.385
v -0.809 0.348 1.358
v -0.809 0.42 1.286
v -0.809 0.446 1.188
v -0.809 0.42 1.09
v -0.809 0.348 1.018
v -0.809 0.164 1.039
v -0.809 0.25 1.016
v -0.809 0.101 1.102
v -0.809 0.078 1.188
v -0.809 0.101 1.274
v -0.809 0.164 1.337
v -0.809 0.25 1.36
v -0.809 0.336 1.337
v -0.809 0.398 1.274
v -0.809 0.421 1.188
v -0.809 0.398 1.102
v -0.809 0.336 1.039
v -0.785 0.164 1.039
v -0.785 0.25 1.016
v -0.785 0.101 1.102
v -0.785 0.078 1.188
v -0.785 0.101 1.274
v -0.785 0.164 1.337
v -0.785 0.25 1.36
v -0.785 0.336 1.337
v -0.785 0.398 1.274
v -0.785 0.421 1.188
v -0.785 0.398 1.102
v -0.785 0.336 1.039
v -0.788 0.226 1.146
v -0.788 0.25 1.14
v -0.788 0.208 1.164
v -0.788 0.201 1.188
v -0.788 0.208 1.212
v -0.788 0.226 1.23
v -0.788 0.25 1.236
v -0.788 0.274 1.23
v -0.788 0.291 1.212
v -0.788 0.298 1.188
v -0.788 0.291 1.164
v -0.788 0.274 1.146
v -0.796 0.235 1.162
v -0.796 0.25 1.158
v -0.796 0.224 1.173
v -0.796 0.22 1.188
v -0.796 0.224 1.203
v -0.796 0.235 1.214
v -0.796 0.25 1.218
v -0.796 0.265 1.214
v -0.796 0.276 1.203
v -0.796 0.28 1.188
v -0.796 0.276 1.173
v -0.796 0.265 1.162
v -0.785 0.241 1.348
v -0.785 0.172 1.33
v -0.785 0.243 1.247
v -0.785 0.222 1.242
v -0.785 0.327 1.33
v -0.785 0.258 1.348
v -0.785 0.277 1.242
v -0.785 0.256 1.247
v -0.785 0.387 1.275
v -0.785 0.337 1.325
v -0.785 0.299 1.223
v -0.785 0.284 1.238
v -0.785 0.41 1.197
v -0.785 0.392 1.265
v -0.785 0.309 1.195
v -0.785 0.303 1.215
v -0.785 0.337 1.051
v -0.785 0.387 1.101
v -0.785 0.284 1.138
v -0.785 0.299 1.153
v -0.785 0.392 1.111
v -0.785 0.41 1.179
v -0.785 0.303 1.161
v -0.785 0.309 1.181
v -0.785 0.258 1.028
v -0.785 0.327 1.046
v -0.785 0.256 1.129
v -0.785 0.277 1.134
v -0.785 0.172 1.046
v -0.785 0.241 1.028
v -0.785 0.222 1.134
v -0.785 0.243 1.129
v -0.785 0.112 1.101
v -0.785 0.163 1.051
v -0.785 0.2 1.153
v -0.785 0.215 1.138
v -0.785 0.089 1.179
v -0.785 0.108 1.111
v -0.785 0.191 1.181
v -0.785 0.196 1.161
v -0.785 0.108 1.265
v -0.785 0.089 1.197
v -0.785 0.196 1.215
v -0.785 0.191 1.195
v -0.785 0.163 1.325
v -0.785 0.112 1.275
v -0.785 0.215 1.238
v -0.785 0.2 1.223
v -0.745 0.241 1.348
v -0.745 0.172 1.33
v -0.753 0.243 1.247
v -0.753 0.222 1.242
v -0.745 0.327 1.33
v -0.745 0.258 1.348
v -0.753 0.277 1.242
v -0.753 0.256 1.247
v -0.745 0.387 1.275
v -0.745 0.337 1.325
v -0.753 0.299 1.223
v -0.753 0.284 1.238
v -0.745 0.41 1.197
v -0.745 0.392 1.265
v -0.753 0.309 1.195
v -0.753 0.303 1.215
v -0.745 0.337 1.051
v -0.745 0.387 1.101
v -0.753 0.284 1.138
v -0.753 0.299 1.153
v -0.745 0.392 1.111
v -0.745 0.41 1.179
v -0.753 0.303 1.161
v -0.753 0.309 1.181
v -0.745 0.258 1.028
v -0.745 0.327 1.046
v -0.753 0.256 1.129
v -0.753 0.277 1.134
v -0.745 0.172 1.046
v -0.745 0.241 1.028
v -0.753 0.222 1.134
v -0.753 0.243 1.129
v -0.745 0.112 1.101
v -0.745 0.163 1.051
v -0.753 0.2 1.153
v -0.753 0.215 1.138
v -0.745 0.089 1.179
v -0.745 0.108 1.111
v -0.753 0.191 1.181
v -0.753 0.196 1.161
v -0.745 0.108 1.265
v -0.745 0.089 1.197
v -0.753 0.196 1.215
v -0.753 0.191 1.195
v -0.745 0.163 1.325
v -0.745 0.112 1.275
v -0.753 0.215 1.238
v -0.753 0.2 1.223
v -0.79 0.224 1.224
v -0.79 0.213 1.214
v -0.795 0.229 1.215
v -0.795 0.223 1.208
v -0.79 0.213 1.162
v -0.79 0.224 1.152
v -0.795 0.223 1.168
v -0.795 0.229 1.161
v -0.79 0.275 1.152
v -0.79 0.286 1.162
v -0.795 0.27 1.161
v -0.795 0.277 1.168
v -0.79 0.286 1.214
v -0.79 0.275 1.224
v -0.795 0.277 1.208
v -0.795 0.27 1.215
v -0.773 0.224 1.224
v -0.773 0.213 1.214
v -0.778 0.229 1.215
v -0.778 0.223 1.208
v -0.773 0.213 1.162
v -0.773 0.224 1.152
v -0.778 0.223 1.168
v -0.778 0.229 1.161
v -0.773 0.275 1.152
v -0.773 0.286 1.162
v -0.778 0.27 1.161
v -0.778 0.277 1.168
v -0.773 0.286 1.214
v -0.773 0.275 1.224
v -0.778 0.277 1.208
v -0.778 0.27 1.215
usemtl Black
f 1340 1342 1343 1341
f 1342 1344 1345 1343
f 1344 1346 1347 1345
f 1346 1348 1349 1347
f 1348 1350 1351 1349
f 1350 1352 1353 1351
f 1352 1354 1355 1353
f 1354 1356 1357 1355
f 1356 1358 1359 1357
f 1358 1360 1361 1359
f 1353 1370 1369 1351
f 1360 1362 1363 1361
f 1362 1340 1341 1363
f 1340 1362 1360 1358 1356 1354 1352 1350 1348 1346 1344 1342
f 1370 1382 1381 1369
f 1351 1369 1368 1349
f 1349 1368 1367 1347
f 1341 1365 1375 1363
f 1343 1364 1365 1341
f 1347 1367 1366 1345
f 1363 1375 1374 1361
f 1345 1366 1364 1343
f 1361 1374 1373 1359
f 1359 1373 1372 1357
f 1357 1372 1371 1355
f 1355 1371 1370 1353
f 1385 1397 1396 1384
f 1367 1379 1378 1366
f 1374 1386 1385 1373
f 1371 1383 1382 1370
f 1368 1380 1379 1367
f 1375 1387 1386 1374
f 1364 1376 1377 1365
f 1372 1384 1383 1371
f 1369 1381 1380 1368
f 1365 1377 1387 1375
f 1366 1378 1376 1364
f 1373 1385 1384 1372
f 1382 1394 1393 1381
f 1379 1391 1390 1378
f 1386 1398 1397 1385
f 1383 1395 1394 1382
f 1380 1392 1391 1379
f 1387 1399 1398 1386
f 1376 1388 1389 1377
f 1384 1396 1395 1383
f 1381 1393 1392 1380
f 1377 1389 1399 1387
f 1378 1390 1388 1376
f 1472 1474 1475 1473
f 1476 1478 1479 1477
f 1480 1482 1483 1481
f 1484 1486 1487 1485
f 1488 1490 1491 1489
f 1492 1494 1495 1493
f 1496 1498 1499 1497
f 1500 1502 1503 1501
f 1504 1506 1507 1505
f 1508 1510 1511 1509
f 1512 1514 1515 1513
f 1516 1518 1519 1517
f 1536 1538 1539 1537
f 1540 1542 1543 1541
f 1544 1546 1547 1545
f 1548 1550 1551 1549
usemtl Grey
f 1402 1458 1456 1390
f 1401 1413 1423 1411
f 1396 1437 1439 1408
f 1394 1424 1425 1393
f 1402 1463 1462 1403
f 1410 1446 1444 1398
f 1406 1431 1430 1407
f 1391 1465 1467 1403
f 1410 1443 1442 1411
f 1401 1455 1454 1400
f 1408 1434 1432 1396
f 1404 1471 1470 1405
f 1411 1451 1450 1401
f 1412 1414 1415 1416 1417 1418 1419 1420 1421 1422 1423 1413
f 1400 1525 1527 1412
f 1409 1421 1420 1408
f 1406 1418 1417 1405
f 1403 1415 1414 1402
f 1410 1422 1421 1409
f 1407 1419 1418 1406
f 1404 1416 1415 1403
f 1423 1530 1528 1411
f 1400 1412 1413 1401
f 1407 1533 1535 1419
f 1405 1520 1521 1404
f 1427 1475 1474 1426
f 1406 1426 1424 1394
f 1405 1427 1426 1406
f 1393 1425 1427 1405
f 1447 1495 1494 1446
f 1394 1429 1431 1406
f 1395 1428 1429 1394
f 1407 1430 1428 1395
f 1467 1515 1514 1466
f 1395 1433 1435 1407
f 1407 1435 1434 1408
f 1396 1432 1433 1395
f 1438 1486 1484 1436
f 1408 1439 1438 1409
f 1397 1436 1437 1396
f 1409 1438 1436 1397
f 1424 1472 1473 1425
f 1399 1440 1441 1398
f 1398 1441 1443 1410
f 1411 1442 1440 1399
f 1458 1506 1504 1456
f 1397 1445 1447 1409
f 1409 1447 1446 1410
f 1398 1444 1445 1397
f 1444 1492 1493 1445
f 1399 1449 1451 1411
f 1389 1448 1449 1399
f 1401 1450 1448 1389
f 1464 1512 1513 1465
f 1388 1452 1453 1389
f 1400 1454 1452 1388
f 1389 1453 1455 1401
f 1437 1485 1487 1439
f 1400 1459 1458 1402
f 1388 1457 1459 1400
f 1390 1456 1457 1388
f 1457 1505 1507 1459
f 1390 1461 1463 1402
f 1391 1460 1461 1390
f 1403 1462 1460 1391
f 1439 1487 1486 1438
f 1403 1467 1466 1404
f 1392 1464 1465 1391
f 1404 1466 1464 1392
f 1459 1507 1506 1458
f 1393 1468 1469 1392
f 1405 1470 1468 1393
f 1392 1469 1471 1404
f 1465 1513 1515 1467
f 1445 1493 1495 1447
f 1425 1473 1475 1427
f 1452 1500 1501 1453
f 1466 1514 1512 1464
f 1432 1480 1481 1433
f 1446 1494 1492 1444
f 1426 1474 1472 1424
f 1455 1503 1502 1454
f 1435 1483 1482 1434
f 1454 1502 1500 1452
f 1434 1482 1480 1432
f 1460 1508 1509 1461
f 1440 1488 1489 1441
f 1453 1501 1503 1455
f 1433 1481 1483 1435
f 1463 1511 1510 1462
f 1443 1491 1490 1442
f 1461 1509 1511 1463
f 1441 1489 1491 1443
f 1468 1516 1517 1469
f 1448 1496 1497 1449
f 1462 1510 1508 1460
f 1428 1476 1477 1429
f 1442 1490 1488 1440
f 1471 1519 1518 1470
f 1451 1499 1498 1450
f 1431 1479 1478 1430
f 1470 1518 1516 1468
f 1449 1497 1499 1451
f 1429 1477 1479 1431
f 1456 1504 1505 1457
f 1469 1517 1519 1471
f 1436 1484 1485 1437
f 1450 1498 1496 1448
f 1430 1478 1476 1428
f 1520 1536 1537 1521
f 1417 1522 1520 1405
f 1404 1521 1523 1416
f 1416 1523 1522 1417
f 1533 1549 1551 1535
f 1412 1527 1526 1414
f 1402 1524 1525 1400
f 1414 1526 1524 1402
f 1529 1545 1547 1531
f 1422 1531 1530 1423
f 1410 1529 1531 1422
f 1411 1528 1529 1410
f 1534 1550 1548 1532
f 1419 1535 1534 1420
f 1408 1532 1533 1407
f 1420 1534 1532 1408
f 1524 1540 1541 1525
f 1523 1539 1538 1522
f 1528 1544 1545 1529
f 1527 1543 1542 1526
f 1532 1548 1549 1533
f 1522 1538 1536 1520
f 1531 1547 1546 1530
f 1525 1541 1543 1527
f 1535 1551 1550 1534
f 1521 1537 1539 1523
f 1530 1546 1544 1528
f 1526 1542 1540 1524
