mtllib SUV.mtl
o SUV_Cube
v 0.797 0.501 -1.761
v 0.797 0.682 -1.732
v 0.961 0.531 -0.11
v 0.961 0.82 -0.113
v 0.346 0.741 -1.996
v 0.621 0.741 -1.919
v 0.578 0.501 -1.975
v 0.346 0.501 -2.053
v 0.866 1.012 -0.135
v 0.911 0.731 1.644
v 0.903 0.531 1.674
v 0.346 0.718 1.997
v 0.748 0.728 1.897
v 0.954 0.77 1.259
v 0.953 0.77 0.921
v 0.961 0.818 0.262
v 0.866 1.012 0.3
v 0.838 1.012 0.898
v 0.802 0.971 1.327
v 0.365 0.959 1.402
v 0.447 1.007 1.004
v 0.961 0.531 0.248
v 0.953 0.526 0.912
v 0.961 0.77 1.118
v 0.822 0.989 1.153
v 0.423 0.992 1.171
v 0.961 0.531 0.957
v 0.961 0.531 -0.731
v 0.961 0.835 -0.726
v 0.866 1.012 -0.733
v 0.842 1.012 -1.238
v 0.953 0.26 -0.877
v 0.902 0.676 -1.478
v 0.685 1.06 -1.777
v 0.346 1.066 -1.839
v 0.323 0.823 1.903
v 0.773 0.834 1.796
v 0.901 0.645 -1.459
v 0.797 0.372 -1.761
v 0.654 0.236 -0.168
v 0.961 0.236 -0.168
v 0.346 0.391 -2.053
v 0.346 0.236 -0.168
v 0.578 0.391 -1.975
v 0.637 0.339 -1.523
v 0.371 0.339 -1.562
v 0.889 0.242 1.717
v 0.449 0.236 2.064
v 0.654 0.236 0.3
v 0.409 0.242 1.717
v 0.961 0.236 0.181
v 0.953 0.236 0.805
v 0.961 0.242 0.901
v 0.648 0.242 1.717
v 0.654 0.242 0.901
v 0.654 0.236 0.78
v 0.346 0.236 0.322
v 0.346 0.236 0.823
v 0.346 0.242 0.901
v 0.961 0.236 -0.755
v 0.654 0.236 -0.755
v 0.346 0.236 -0.755
v 0.958 0.24 -0.822
v 0.679 0.24 -0.822
v 0.371 0.24 -0.822
v 0.943 0.753 1.529
v 0.346 0.922 1.616
v 0.793 0.941 1.508
v 0.942 0.693 1.529
v 0.908 0.499 1.615
v 0.949 0.678 1.258
v 0.957 0.62 1.078
v 0.957 0.499 1.014
v 0.896 0.242 1.651
v 0.957 0.242 0.967
v 0.941 0.62 1.503
v 0.658 0.499 1.615
v 0.725 0.685 1.258
v 0.707 0.62 1.078
v 0.707 0.499 1.014
v 0.646 0.242 1.651
v 0.707 0.242 0.967
v 0.691 0.62 1.503
v 0.346 1.474 -0.232
v 0.62 1.432 -0.233
v 0.346 1.394 0.218
v 0.616 1.376 0.223
v 0.731 1.222 0.56
v 0.853 1.036 -0.087
v 0.853 1.036 0.266
v 0.647 1.417 -1.536
v 0.346 1.469 -1.527
v 0.762 1.23 -0.174
v 0.346 0.89 -1.94
v 0.843 1.029 0.265
v 0.458 1.032 0.953
v 0.79 1.032 0.859
v 0.819 1.029 0.789
v 0.696 1.221 0.562
v 0.589 1.359 0.278
v 0.357 1.373 0.297
v 0.829 1.036 0.789
v 0.76 1.226 -0.12
v 0.735 1.219 0.494
v 0.843 1.041 -0.714
v 0.629 1.345 0.214
v 0.638 1.395 -0.172
v 0.853 1.047 -0.715
v 0.853 1.047 -0.172
v 0.76 1.236 -0.208
v 0.784 1.11 -1.349
v 0.73 1.223 -1.457
v 0.661 1.386 -1.009
v 0.648 1.408 -0.72
v 0.645 1.407 -0.263
v 0.94 0.775 -1.244
v 0.953 0.589 -1.001
v 0.953 0.483 -0.928
v 0.656 0.288 -1.066
v 0.371 0.288 -1.091
v 0.672 1.247 -1.662
v 0.872 0.466 -1.631
v 0.872 0.59 -1.584
v 0.872 0.344 -1.652
v 0.597 0.35 -1.81
v 0.371 0.35 -1.806
v 0.937 0.692 -1.218
v 0.877 0.466 -1.583
v 0.877 0.571 -1.545
v 0.877 0.338 -1.603
v 0.676 0.26 -0.882
v 0.651 0.645 -1.459
v 0.675 0.589 -1.001
v 0.681 0.483 -0.933
v 0.663 0.692 -1.219
v 0.638 0.427 -1.577
v 0.643 0.572 -1.544
v 0.628 0.346 -1.603
v 0.672 0.486 -1.059
v 0.673 0.515 -1.049
v 0.649 0.486 -1.475
v 0.65 0.6 -1.454
v 0.457 1.017 0.945
v 0.79 1.017 0.852
v 0.426 1.206 0.648
v 0.696 1.206 0.554
v 0.589 1.343 0.273
v 0.357 1.357 0.292
v 0.843 1.029 -0.087
v 0.749 1.219 -0.121
v 0.725 1.212 0.493
v 0.746 1.222 0.235
v 0.619 1.338 0.214
v 0.629 1.386 -0.172
v 0.843 1.041 -0.171
v 0.75 1.231 -0.207
v 0.774 1.104 -1.348
v 0.745 1.199 -0.71
v 0.72 1.217 -1.456
v 0.652 1.379 -1.008
v 0.639 1.4 -0.719
v 0.637 1.399 -0.262
v 0.351 1.458 -1.554
v 0.638 1.244 -1.671
v 0.631 1.403 -1.563
v 0.651 1.113 -1.757
v 0.344 1.11 -1.817
v 0.683 1.114 -1.746
v 0.837 0.579 1.843
v 0.808 0.647 1.807
v 0.819 0.239 1.798
v 0.891 0.307 1.71
v 0.958 0.299 -0.82
v 0.961 0.302 -0.709
v 0.346 0.422 -2.053
v 0.578 0.422 -1.975
v 0.961 0.302 -0.157
v 0.961 0.302 0.193
v 0.953 0.301 0.825
v 0.961 0.307 0.911
v 0.797 0.407 -1.761
v 0.899 0.301 1.645
v 0.957 0.301 0.976
v 0.648 0.301 1.645
v 0.707 0.301 0.976
v 0.877 0.38 -1.601
v 0.953 0.316 -0.874
v 0.872 0.385 -1.65
v 0.63 0.379 -1.6
v 0.676 0.309 -0.879
v 0.639 0.377 -1.514
v 0.659 0.335 -1.06
v 0.82 0.305 1.795
v 0.472 0.302 2.064
v 0.98 0.302 0.192
v 0.98 0.236 0.179
v 0.98 0.307 0.91
v 0.98 0.242 0.9
v 0.98 0.236 -0.169
v 0.971 0.236 0.804
v 0.98 0.236 -0.757
v 0.977 0.24 -0.824
v 0.976 0.301 0.974
v 0.976 0.242 0.966
v 0.972 0.26 -0.879
v 0.977 0.299 -0.822
v 0.98 0.302 -0.711
v 0.98 0.302 -0.158
v 0.971 0.301 0.824
v 0.972 0.316 -0.875
v 0.923 0.307 1.738
v 0.92 0.242 1.745
v 0.85 0.239 1.827
v 0.452 0.236 2.093
v 0.93 0.301 1.673
v 0.928 0.242 1.679
v 0.852 0.304 1.823
v 0.466 0.302 2.093
v 0.594 0.423 -1.995
v 0.594 0.392 -1.995
v 0.889 0.342 -1.672
v 0.814 0.373 -1.781
v 0.363 0.392 -2.073
v 0.894 0.336 -1.623
v 0.894 0.378 -1.621
v 0.889 0.383 -1.67
v 0.363 0.423 -2.073
v 0.814 0.407 -1.781
v 0.666 0.529 1.993
v 0.765 0.529 1.915
v 0.759 0.237 1.929
v 0.66 0.236 2.004
v 0.66 0.302 2.004
v 0.759 0.303 1.928
v 0.691 0.236 2.032
v 0.791 0.237 1.957
v 0.791 0.303 1.957
v 0.691 0.302 2.032
v 0.847 0.936 0.878
v 0.847 0.97 0.878
v 0.834 0.936 0.853
v 0.834 0.97 0.853
v 0.913 0.927 0.843
v 0.913 0.979 0.843
v 0.879 0.927 0.784
v 0.879 0.979 0.784
v 1.012 0.979 0.644
v 0.986 0.927 0.674
v 1.029 0.927 0.725
v 1.056 0.979 0.695
v 0.99 1.032 0.668
v 1.033 1.032 0.72
v 0.981 0.979 0.791
v 0.946 0.979 0.732
v 0.946 0.927 0.732
v 0.981 0.927 0.791
v 0.981 1.04 0.791
v 0.946 1.04 0.732
v 0.875 0.936 0.825
v 0.875 0.97 0.825
v 0.888 0.936 0.849
v 0.888 0.97 0.849
v 0.879 1.028 0.784
v 0.893 1.047 0.772
v 0.928 1.047 0.832
v 0.913 1.028 0.843
v 0.35 1.235 -1.735
v 0.351 1.449 -1.551
v 0.638 1.235 -1.667
v 0.631 1.395 -1.559
v 0.651 1.107 -1.75
v 0.344 1.103 -1.811
v 0.979 0.824 -0.113
v 0.979 0.535 -0.11
v 0.884 1.016 -0.135
v 0.976 0.302 -0.158
v 0.625 1.443 -0.719
v 0.346 1.482 -0.71
v 0.351 1.445 -1.587
v 0.346 1.469 -1.587
v 0.647 1.417 -1.587
v 0.631 1.403 -1.587
v 0.502 0.53 2.029
v 0.493 0.722 1.96
v 0.499 0.546 2.016
v 0.495 0.678 1.976
v 0.795 0.645 1.816
v 0.741 0.72 1.898
v 0.822 0.584 1.849
v 0.666 0.538 1.985
v 0.756 0.538 1.915
v 0.514 0.55 2.007
v 0.51 0.674 1.97
v 0.784 0.64 1.804
v 0.73 0.715 1.887
v 0.811 0.579 1.837
v 0.655 0.533 1.973
v 0.745 0.533 1.903
v 0.503 0.545 1.995
v 0.499 0.669 1.958
v 0.673 1.328 -1.455
v 0.682 1.335 -1.456
v 0.811 1.094 -1.171
v 0.738 1.207 -1.128
v 0.789 1.086 -1.169
v 0.66 1.373 -1.052
v 0.631 1.436 -1.02
v 0.667 1.381 -1.05
v 0.665 1.366 -1.119
v 0.738 1.211 -1.192
v 0.671 1.374 -1.114
v 0.794 1.099 -1.24
v 0.785 1.093 -1.238
v 0.748 1.211 -1.128
v 0.747 1.215 -1.192
v 0.762 1.043 -1.537
v 0.793 0.845 -1.674
v 0.854 0.803 -1.498
v 0.47 0.302 2.035
v 0.313 0.531 2.067
v 0.391 0.513 2.064
v 0.381 0.542 2.058
v 0.389 0.513 2.035
v 0.311 0.531 2.038
v 0.971 0.533 -0.859
v 0.971 0.807 -0.965
v 0.854 1.015 -1.238
v 0.953 0.778 -1.245
v 0.966 0.592 -1.001
v 0.807 1.101 -1.241
v 0.966 0.486 -0.929
v 0.95 0.695 -1.219
v 0.49 1.387 0.081
v 0.49 1.429 0.084
v 0.49 1.387 -0.031
v 0.49 1.443 -0.028
v 0.542 1.387 0.081
v 0.542 1.429 0.084
v 0.542 1.387 -0.031
v 0.542 1.443 -0.028
v 0.49 1.463 0.088
v 0.49 1.477 -0.024
v 0.542 1.477 -0.024
v 0.542 1.463 0.088
v 0.49 1.476 -0.699
v 0.542 1.476 -0.699
v 0.49 1.51 -0.697
v 0.542 1.51 -0.697
v 0.49 1.462 -1.23
v 0.542 1.462 -1.23
v 0.49 1.496 -1.235
v 0.542 1.496 -1.235
v 0.49 1.458 -1.345
v 0.542 1.458 -1.345
v 0.49 1.493 -1.345
v 0.542 1.493 -1.345
v 0.49 1.387 -1.228
v 0.542 1.387 -1.228
v 0.49 1.387 -1.343
v 0.542 1.387 -1.343
v 0.525 1.063 -1.806
v 0.518 0.904 -1.896
v 0.493 0.741 -1.955
v 0.63 0.793 -1.894
v 0.737 0.757 -1.781
v 0.553 0.793 -1.916
v 0.309 0.527 -2.05
v 0.669 0.986 -1.808
v 0.734 0.856 -1.746
v 0.572 0.988 -1.826
v 0.568 0.891 -1.88
v 0.617 0.798 -1.872
v 0.724 0.762 -1.759
v 0.54 0.798 -1.894
v 0.643 0.903 -1.836
v 0.656 0.991 -1.786
v 0.721 0.861 -1.724
v 0.559 0.993 -1.804
v 0.555 0.896 -1.858
v 0.309 0.715 -2.006
v 0.307 0.521 -2.025
v 0.307 0.709 -1.981
v -0.797 0.501 -1.761
v -0.797 0.682 -1.732
v -0.961 0.531 -0.11
v -0.961 0.82 -0.113
v 0 0.501 -2.085
v 0 0.741 -2.028
v -0.346 0.741 -1.996
v -0.621 0.741 -1.919
v -0.578 0.501 -1.975
v -0.346 0.501 -2.053
v -0.866 1.012 -0.135
v -0.911 0.731 1.644
v -0.903 0.531 1.674
v -0.346 0.718 1.997
v -0 0.718 2.008
v -0 0.531 2.076
v -0.748 0.728 1.897
v -0.954 0.77 1.259
v -0.953 0.77 0.921
v -0.961 0.818 0.262
v -0.866 1.012 0.3
v -0.838 1.012 0.898
v -0.802 0.971 1.327
v -0 1.007 1.011
v -0.365 0.959 1.402
v -0.447 1.007 1.004
v -0.961 0.531 0.248
v -0.953 0.526 0.912
v -0.961 0.77 1.118
v -0.822 0.989 1.153
v -0.423 0.992 1.171
v -0.961 0.531 0.957
v -0.961 0.531 -0.731
v -0.961 0.835 -0.726
v -0.866 1.012 -0.733
v -0.842 1.012 -1.238
v -0.953 0.26 -0.877
v -0.902 0.676 -1.478
v 0 1.066 -1.855
v -0.685 1.06 -1.777
v -0.346 1.066 -1.839
v -0.323 0.823 1.903
v -0 0.821 1.903
v -0.773 0.834 1.796
v -0.901 0.645 -1.459
v -0.797 0.372 -1.761
v -0.654 0.236 -0.168
v -0.961 0.236 -0.168
v -0.346 0.391 -2.053
v 0 0.391 -2.085
v -0 0.339 -1.578
v -0 0.236 -0.168
v -0.346 0.236 -0.168
v -0.578 0.391 -1.975
v -0.637 0.339 -1.523
v -0.371 0.339 -1.562
v -0.889 0.242 1.717
v -0 0.236 2.076
v -0.449 0.236 2.064
v -0.654 0.236 0.3
v -0.409 0.242 1.717
v -0 0.236 0.325
v -0.961 0.236 0.181
v -0.953 0.236 0.805
v -0.961 0.242 0.901
v -0.648 0.242 1.717
v -0.654 0.242 0.901
v -0.654 0.236 0.78
v -0.346 0.236 0.322
v -0.346 0.236 0.823
v -0.346 0.242 0.901
v -0 0.242 1.717
v -0 0.242 0.901
v -0 0.236 0.83
v -0.961 0.236 -0.755
v -0 0.236 -0.755
v -0.654 0.236 -0.755
v -0.346 0.236 -0.755
v -0.958 0.24 -0.822
v -0 0.24 -0.822
v -0.679 0.24 -0.822
v -0.371 0.24 -0.822
v -0.943 0.753 1.529
v -0.346 0.922 1.616
v -0.793 0.941 1.508
v -0.942 0.693 1.529
v -0.908 0.499 1.615
v -0.949 0.678 1.258
v -0.957 0.62 1.078
v -0.957 0.499 1.014
v -0.896 0.242 1.651
v -0.957 0.242 0.967
v -0.941 0.62 1.503
v -0.658 0.499 1.615
v -0.725 0.685 1.258
v -0.707 0.62 1.078
v -0.707 0.499 1.014
v -0.646 0.242 1.651
v -0.707 0.242 0.967
v -0.691 0.62 1.503
v -0.346 1.474 -0.232
v -0 1.474 -0.232
v -0.62 1.432 -0.233
v -0.346 1.394 0.218
v -0.616 1.376 0.223
v -0.731 1.222 0.56
v -0 1.413 0.218
v -0.853 1.036 -0.087
v -0.853 1.036 0.266
v -0 1.469 -1.527
v -0.647 1.417 -1.536
v -0.346 1.469 -1.527
v -0.762 1.23 -0.174
v 0 0.89 -1.96
v -0.346 0.89 -1.94
v -0.843 1.029 0.265
v -0 1.032 0.959
v -0.458 1.032 0.953
v -0.79 1.032 0.859
v -0.819 1.029 0.789
v -0.696 1.221 0.562
v -0.589 1.359 0.278
v -0 1.379 0.309
v -0.357 1.373 0.297
v -0.829 1.036 0.789
v -0.76 1.226 -0.12
v -0.735 1.219 0.494
v -0.843 1.041 -0.714
v -0.629 1.345 0.214
v -0.638 1.395 -0.172
v -0.853 1.047 -0.715
v -0.853 1.047 -0.172
v -0.76 1.236 -0.208
v -0.784 1.11 -1.349
v -0.73 1.223 -1.457
v -0.661 1.386 -1.009
v -0.648 1.408 -0.72
v -0.645 1.407 -0.263
v -0.94 0.775 -1.244
v -0.953 0.589 -1.001
v -0.953 0.483 -0.928
v -0 0.288 -1.083
v -0.656 0.288 -1.066
v -0.371 0.288 -1.091
v -0.672 1.247 -1.662
v -0.872 0.466 -1.631
v -0.872 0.59 -1.584
v -0.872 0.344 -1.652
v 0 0.35 -1.83
v -0.597 0.35 -1.81
v -0.371 0.35 -1.806
v -0.937 0.692 -1.218
v -0.877 0.466 -1.583
v -0.877 0.571 -1.545
v -0.877 0.338 -1.603
v -0.676 0.26 -0.882
v -0.651 0.645 -1.459
v -0.675 0.589 -1.001
v -0.681 0.483 -0.933
v -0.663 0.692 -1.219
v -0.638 0.427 -1.577
v -0.643 0.572 -1.544
v -0.628 0.346 -1.603
v -0 1.017 0.951
v -0.672 0.486 -1.059
v -0.673 0.515 -1.049
v -0 1.206 0.654
v -0.649 0.486 -1.475
v -0.65 0.6 -1.454
v -0.457 1.017 0.945
v -0.79 1.017 0.852
v -0.426 1.206 0.648
v -0.696 1.206 0.554
v -0.589 1.343 0.273
v -0 1.363 0.304
v -0.357 1.357 0.292
v -0.843 1.029 -0.087
v -0.749 1.219 -0.121
v -0.725 1.212 0.493
v -0.746 1.222 0.235
v -0.619 1.338 0.214
v -0.629 1.386 -0.172
v -0.843 1.041 -0.171
v -0.75 1.231 -0.207
v -0.774 1.104 -1.348
v -0.745 1.199 -0.71
v -0.72 1.217 -1.456
v -0.652 1.379 -1.008
v -0.639 1.4 -0.719
v -0.637 1.399 -0.262
v -0.351 1.458 -1.554
v -0 1.458 -1.554
v -0.638 1.244 -1.671
v -0.631 1.403 -1.563
v -0.651 1.113 -1.757
v -0.344 1.11 -1.817
v 0 1.105 -1.831
v -0.683 1.114 -1.746
v -0.837 0.579 1.843
v -0.808 0.647 1.807
v -0.819 0.239 1.798
v -0.891 0.307 1.71
v 0 0.422 -2.085
v -0.958 0.299 -0.82
v -0.961 0.302 -0.709
v -0.346 0.422 -2.053
v -0.578 0.422 -1.975
v -0.961 0.302 -0.157
v -0.961 0.302 0.193
v -0.953 0.301 0.825
v -0.961 0.307 0.911
v -0.797 0.407 -1.761
v -0.899 0.301 1.645
v -0.957 0.301 0.976
v -0.648 0.301 1.645
v -0.707 0.301 0.976
v -0.877 0.38 -1.601
v -0.953 0.316 -0.874
v -0.872 0.385 -1.65
v -0.63 0.379 -1.6
v -0.676 0.309 -0.879
v -0.639 0.377 -1.514
v -0.659 0.335 -1.06
v -0.82 0.305 1.795
v -0 0.302 2.076
v -0.472 0.302 2.064
v -0.98 0.302 0.192
v -0.98 0.236 0.179
v -0.98 0.307 0.91
v -0.98 0.242 0.9
v -0.98 0.236 -0.169
v -0.971 0.236 0.804
v -0.98 0.236 -0.757
v -0.977 0.24 -0.824
v -0.976 0.301 0.974
v -0.976 0.242 0.966
v -0.972 0.26 -0.879
v -0.977 0.299 -0.822
v -0.98 0.302 -0.711
v -0.98 0.302 -0.158
v -0.971 0.301 0.824
v -0.972 0.316 -0.875
v -0.923 0.307 1.738
v -0.92 0.242 1.745
v -0 0.302 2.104
v -0 0.236 2.104
v -0.85 0.239 1.827
v -0.452 0.236 2.093
v -0.93 0.301 1.673
v -0.928 0.242 1.679
v -0.852 0.304 1.823
v -0.466 0.302 2.093
v -0.594 0.423 -1.995
v -0.594 0.392 -1.995
v -0.889 0.342 -1.672
v -0.814 0.373 -1.781
v -0.363 0.392 -2.073
v 0 0.392 -2.105
v -0.894 0.336 -1.623
v -0.894 0.378 -1.621
v -0.889 0.383 -1.67
v 0 0.423 -2.105
v -0.363 0.423 -2.073
v -0.814 0.407 -1.781
v -0 0.989 1.186
v -0 0.958 1.406
v -0 0.93 1.636
v -0.666 0.529 1.993
v -0.765 0.529 1.915
v -0.759 0.237 1.929
v -0.66 0.236 2.004
v -0.66 0.302 2.004
v -0.759 0.303 1.928
v -0.691 0.236 2.032
v -0.791 0.237 1.957
v -0.791 0.303 1.957
v -0.691 0.302 2.032
v -0.847 0.936 0.878
v -0.847 0.97 0.878
v -0.834 0.936 0.853
v -0.834 0.97 0.853
v -0.913 0.927 0.843
v -0.913 0.979 0.843
v -0.879 0.927 0.784
v -0.879 0.979 0.784
v -1.012 0.979 0.644
v -0.986 0.927 0.674
v -1.029 0.927 0.725
v -1.056 0.979 0.695
v -0.99 1.032 0.668
v -1.033 1.032 0.72
v -0.981 0.979 0.791
v -0.946 0.979 0.732
v -0.946 0.927 0.732
v -0.981 0.927 0.791
v -0.981 1.04 0.791
v -0.946 1.04 0.732
v -0.875 0.936 0.825
v -0.875 0.97 0.825
v -0.888 0.936 0.849
v -0.888 0.97 0.849
v -0.879 1.028 0.784
v -0.893 1.047 0.772
v -0.928 1.047 0.832
v -0.913 1.028 0.843
v -0.35 1.235 -1.735
v -0.351 1.449 -1.551
v 0 1.235 -1.745
v -0 1.449 -1.551
v -0.638 1.235 -1.667
v -0.631 1.395 -1.559
v -0.651 1.107 -1.75
v -0.344 1.103 -1.811
v 0 1.098 -1.825
v -0.979 0.824 -0.113
v -0.979 0.535 -0.11
v -0.884 1.016 -0.135
v -0.976 0.302 -0.158
v -0 1.487 -0.71
v -0.625 1.443 -0.719
v -0.346 1.482 -0.71
v -0.351 1.445 -1.587
v -0.346 1.469 -1.587
v -0.647 1.417 -1.587
v -0 1.469 -1.587
v -0.631 1.403 -1.587
v -0 1.445 -1.587
v -0.502 0.53 2.029
v -0.493 0.722 1.96
v -0.499 0.546 2.016
v -0.495 0.678 1.976
v -0.795 0.645 1.816
v -0.741 0.72 1.898
v -0.822 0.584 1.849
v -0.666 0.538 1.985
v -0.756 0.538 1.915
v -0.514 0.55 2.007
v -0.51 0.674 1.97
v -0.784 0.64 1.804
v -0.73 0.715 1.887
v -0.811 0.579 1.837
v -0.655 0.533 1.973
v -0.745 0.533 1.903
v -0.503 0.545 1.995
v -0.499 0.669 1.958
v -0.673 1.328 -1.455
v -0.682 1.335 -1.456
v -0.811 1.094 -1.171
v -0.738 1.207 -1.128
v -0.789 1.086 -1.169
v -0.66 1.373 -1.052
v -0.631 1.436 -1.02
v -0.667 1.381 -1.05
v -0.665 1.366 -1.119
v -0.738 1.211 -1.192
v -0.671 1.374 -1.114
v -0.794 1.099 -1.24
v -0.785 1.093 -1.238
v -0.748 1.211 -1.128
v -0.747 1.215 -1.192
v -0.762 1.043 -1.537
v -0.793 0.845 -1.674
v -0.854 0.803 -1.498
v -0.47 0.302 2.035
v -0 0.531 2.047
v -0 0.302 2.047
v -0.313 0.531 2.067
v -0.391 0.513 2.064
v -0.381 0.542 2.058
v -0.389 0.513 2.035
v -0.311 0.531 2.038
v -0.971 0.533 -0.859
v -0.971 0.807 -0.965
v -0.854 1.015 -1.238
v -0.953 0.778 -1.245
v -0.966 0.592 -1.001
v -0.807 1.101 -1.241
v -0.966 0.486 -0.929
v -0.95 0.695 -1.219
v -0.49 1.387 0.081
v -0.49 1.429 0.084
v -0.49 1.387 -0.031
v -0.49 1.443 -0.028
v -0.542 1.387 0.081
v -0.542 1.429 0.084
v -0.542 1.387 -0.031
v -0.542 1.443 -0.028
v -0.49 1.463 0.088
v -0.49 1.477 -0.024
v -0.542 1.477 -0.024
v -0.542 1.463 0.088
v -0.49 1.476 -0.699
v -0.542 1.476 -0.699
v -0.49 1.51 -0.697
v -0.542 1.51 -0.697
v -0.49 1.462 -1.23
v -0.542 1.462 -1.23
v -0.49 1.496 -1.235
v -0.542 1.496 -1.235
v -0.49 1.458 -1.345
v -0.542 1.458 -1.345
v -0.49 1.493 -1.345
v -0.542 1.493 -1.345
v -0.49 1.387 -1.228
v -0.542 1.387 -1.228
v -0.49 1.387 -1.343
v -0.542 1.387 -1.343
v -0.525 1.063 -1.806
v -0.518 0.904 -1.896
v -0.493 0.741 -1.955
v -0.63 0.793 -1.894
v -0.737 0.757 -1.781
v -0.553 0.793 -1.916
v -0.309 0.527 -2.05
v -0.669 0.986 -1.808
v -0.734 0.856 -1.746
v -0.572 0.988 -1.826
v -0.568 0.891 -1.88
v -0.617 0.798 -1.872
v -0.724 0.762 -1.759
v -0.54 0.798 -1.894
v -0.643 0.903 -1.836
v -0.656 0.991 -1.786
v -0.721 0.861 -1.724
v -0.559 0.993 -1.804
v -0.555 0.896 -1.858
v 0 0.527 -2.075
v 0 0.715 -2.031
v -0.309 0.715 -2.006
v -0.307 0.521 -2.025
v 0 0.521 -2.05
v 0 0.709 -2.006
v -0.307 0.709 -1.981
usemtl White
f 7 6 2 1
f 28 29 4 3
f 648 20 26 647
f 66 68 37 10
f 35 94 496 421
f 33 123 2 317 318
f 8 387 809 367
f 8 5 363 6 7
f 36 284 13 37
f 68 67 36 37
f 3 4 273 274
f 22 16 15 23
f 35 421 579 167
f 88 18 102 104
f 25 26 20 19
f 16 17 18 15
f 24 25 19 14
f 406 21 96 499
f 15 18 25 24
f 18 21 26 25
f 23 15 24 27
f 108 30 327 303
f 93 9 109 110
f 187 118 331
f 18 88 99 97
f 33 116 127 38
f 122 123 129 128
f 85 93 110 115
f 9 93 103 89
f 36 425 397 12
f 10 37 170
f 230 169 289 291
f 120 65 462 524
f 325 326 29 28
f 119 131 65 120
f 11 69 66 10
f 19 20 67 68
f 14 19 68 66
f 649 67 20 648
f 66 69 14
f 69 11 70 76
f 24 14 71 72
f 27 24 72 73
f 14 69 76 71
f 180 27 73 183
f 182 74 81 184
f 76 70 77 83
f 183 73 80 185
f 72 71 78 79
f 71 76 83 78
f 73 72 79 80
f 184 185 80 77
f 83 79 78
f 77 80 79 83
f 455 59 50 454
f 59 82 81 50
f 85 84 86 87
f 21 18 97 96
f 84 484 489 86
f 88 87 100 99
f 92 492 701 278
f 91 121 164 165
f 17 9 89 90
f 87 88 104 106
f 496 94 5 388
f 94 362 363 5
f 499 96 143 546
f 97 99 146 144
f 100 101 148 147
f 101 505 557 148
f 86 489 505 101
f 87 86 101 100
f 102 90 95 98
f 89 103 150 149
f 90 89 149 95
f 106 104 151 153
f 18 17 90 102
f 85 87 106 107
f 93 85 107 103
f 115 110 156 162
f 108 303 305 105
f 112 302 301 159
f 277 85 115 114
f 45 119 120 46
f 31 312 330 327
f 46 120 524 433
f 123 33 38 129
f 188 122 128 186
f 163 574 709 279
f 34 361 35 167 166
f 1 2 123 122
f 128 129 137 136
f 117 118 134 133
f 127 117 133 135
f 38 127 135 132
f 186 128 136 189
f 129 38 132 137
f 189 136 141 191
f 133 132 135
f 134 139 140
f 137 132 142
f 140 139 141 142
f 140 133 134
f 192 139 134 190
f 142 141 136 137
f 142 132 133 140
f 191 141 139 192
f 99 100 147 146
f 96 97 144 143
f 103 107 154 150
f 107 106 153 154
f 104 102 98 151
f 114 115 162 161
f 110 109 155 156
f 111 112 159 157
f 113 114 161 160
f 165 164 269 270
f 167 579 696 272
f 574 163 268 691
f 166 167 272 271
f 91 165 282 281
f 121 168 166 164
f 166 168 34
f 111 168 121 112
f 169 230 234 193
f 11 10 170 169
f 11 169 193 172
f 45 191 192 119
f 119 192 190 131
f 138 189 191 45
f 118 187 190 134
f 1 122 188 181
f 81 82 185 184
f 70 182 184 77
f 11 172 182 70
f 118 117 329 331
f 8 7 176 175
f 23 27 180 179
f 177 3 274 276
f 22 23 179 178
f 387 8 175 585
f 28 3 177 174
f 116 31 327 328
f 7 1 181 176
f 647 26 21 406
f 425 36 67 649
f 234 230 229 233
f 239 240 242 241
f 259 260 246 245
f 253 250 252 257
f 261 262 240 239
f 259 245 243 261
f 260 242 240 262
f 248 247 250 249
f 255 254 247 248
f 253 256 249 250
f 256 255 248 249
f 258 257 252 251
f 250 247 251 252
f 244 253 257 265 266
f 246 244 266 263
f 247 254 258 251
f 254 246 263 264 258
f 243 245 255 256
f 244 243 256 253
f 245 246 254 255
f 246 260 262 244
f 241 259 261 239
f 243 244 262 261
f 241 242 260 259
f 263 266 265 264
f 264 265 257 258
f 164 166 271 269
f 163 165 270 268
f 170 37 13
f 229 283 194 233
f 170 13 288 287
f 286 285 292 293
f 17 16 273 275
f 22 178 276 274
f 4 9 275 273
f 9 17 275
f 16 22 274 273
f 194 283 322 321
f 109 108 105 155
f 9 30 108 109
f 84 278 701 484
f 85 277 278 84
f 4 29 30 9
f 280 281 282 279
f 707 280 279 709
f 92 91 281 280
f 492 92 280 707
f 165 163 279 282
f 34 317 369 368
f 290 291 298 297
f 285 283 229
f 286 13 284
f 293 292 299 300
f 288 293 300 295
f 229 230 291 290
f 285 229 290 292
f 169 170 287 289
f 13 286 293 288
f 287 288 295 294
f 292 290 297 299
f 291 289 296 298
f 289 287 294 296
f 397 398 320 322 12
f 12 286 284
f 284 36 12
f 194 321 323 319
f 112 121 91 302
f 168 111 31 316 34
f 301 302 311 309
f 91 92 278 307
f 127 116 328 332
f 313 310 315 312
f 91 307 311 302
f 307 278 277
f 113 307 277 114
f 306 308 113 160
f 308 307 113
f 314 303 330 315
f 312 31 111
f 311 307 308
f 313 312 111 157
f 308 314 315 311
f 310 309 311 315
f 306 304 314 308
f 304 305 303 314
f 316 317 34
f 116 318 316 31
f 318 317 316
f 6 363 366 364
f 318 116 33
f 2 6 364 365
f 320 398 747 324
f 283 285 322
f 320 321 322
f 320 324 323 321
f 322 285 286 12
f 328 326 329 332
f 174 173 325 28
f 326 325 331 329
f 326 328 327
f 303 327 330
f 117 127 332 329
f 173 187 331 325
f 326 327 30 29
f 315 330 312
f 363 362 371 366
f 361 362 94 35
f 317 2 365 369
f 362 361 370 371
f 361 34 368 370
f 380 367 381 382
f 5 8 367 380
f 388 5 380 810
f 810 380 382 814
f 367 809 813 381
f 391 383 384 390
f 415 385 386 416
f 648 647 413 407
f 465 394 426 467
f 423 421 496 497
f 420 745 744 384 529
f 392 796 809 387
f 392 391 390 792 389
f 424 426 399 711
f 467 426 424 466
f 385 698 697 386
f 409 410 401 402
f 423 578 579 421
f 488 509 507 404
f 412 405 407 413
f 402 401 404 403
f 411 400 405 412
f 406 499 500 408
f 401 411 412 404
f 404 412 413 408
f 410 414 411 401
f 513 730 756 417
f 495 515 514 393
f 600 760 523
f 404 501 503 488
f 420 427 534 521
f 528 535 536 529
f 485 520 515 495
f 393 490 508 495
f 424 396 397 425
f 394 582 426
f 651 718 716 581
f 526 524 462 464
f 754 415 416 755
f 525 526 464 538
f 395 394 465 468
f 405 467 466 407
f 400 465 467 405
f 649 648 407 466
f 465 400 468
f 468 475 469 395
f 411 471 470 400
f 414 472 471 411
f 400 470 475 468
f 593 596 472 414
f 595 597 480 473
f 475 482 476 469
f 596 598 479 472
f 471 478 477 470
f 470 477 482 475
f 472 479 478 471
f 597 476 479 598
f 482 477 478
f 476 482 478 479
f 455 454 443 453
f 453 443 480 481
f 485 487 486 483
f 408 500 501 404
f 483 486 489 484
f 488 503 504 487
f 494 703 701 492
f 493 576 575 527
f 403 491 490 393
f 487 511 509 488
f 496 388 389 497
f 497 389 792 791
f 499 546 552 500
f 501 553 555 503
f 504 556 558 506
f 506 558 557 505
f 486 506 505 489
f 487 504 506 486
f 507 502 498 491
f 490 559 560 508
f 491 498 559 490
f 511 563 561 509
f 404 507 491 403
f 485 512 511 487
f 495 508 512 485
f 520 572 566 515
f 513 510 732 730
f 517 569 728 729
f 702 519 520 485
f 437 438 526 525
f 418 756 759 739
f 438 433 524 526
f 529 536 427 420
f 601 599 535 528
f 573 704 709 574
f 422 577 578 423 790
f 383 528 529 384
f 535 543 544 536
f 522 540 541 523
f 534 542 540 522
f 427 539 542 534
f 599 602 543 535
f 536 544 539 427
f 602 604 550 543
f 540 542 539
f 541 548 547
f 544 551 539
f 548 551 550 547
f 548 541 540
f 605 603 541 547
f 551 544 543 550
f 551 548 540 539
f 604 605 547 550
f 503 555 556 504
f 500 552 553 501
f 508 560 564 512
f 512 564 563 511
f 509 561 502 507
f 519 571 572 520
f 515 566 565 514
f 516 567 569 517
f 518 570 571 519
f 576 693 692 575
f 578 695 696 579
f 574 691 689 573
f 577 694 695 578
f 493 706 708 576
f 527 575 577 580
f 577 422 580
f 516 517 527 580
f 581 606 655 651
f 395 581 582 394
f 395 584 606 581
f 437 525 605 604
f 525 538 603 605
f 545 437 604 602
f 523 541 603 600
f 383 594 601 528
f 480 597 598 481
f 469 476 597 595
f 395 469 595 584
f 523 760 758 522
f 392 588 589 391
f 410 592 593 414
f 590 700 698 385
f 409 591 592 410
f 387 585 588 392
f 415 587 590 385
f 521 757 756 418
f 391 589 594 383
f 647 406 408 413
f 425 649 466 424
f 655 654 650 651
f 660 662 663 661
f 680 666 667 681
f 674 678 673 671
f 682 660 661 683
f 680 682 664 666
f 681 683 661 663
f 669 670 671 668
f 676 669 668 675
f 674 671 670 677
f 677 670 669 676
f 679 672 673 678
f 671 673 672 668
f 665 687 686 678 674
f 667 684 687 665
f 668 672 679 675
f 675 679 685 684 667
f 664 677 676 666
f 665 674 677 664
f 666 676 675 667
f 667 665 683 681
f 662 660 682 680
f 664 682 683 665
f 662 680 681 663
f 684 685 686 687
f 685 679 678 686
f 575 692 694 577
f 573 689 693 576
f 582 399 426
f 650 654 608 710
f 582 714 715 399
f 713 720 719 712
f 403 699 697 402
f 409 698 700 591
f 386 697 699 393
f 393 699 403
f 402 697 698 409
f 608 750 751 710
f 514 565 510 513
f 393 514 513 417
f 483 484 701 703
f 485 483 703 702
f 386 393 417 416
f 705 704 708 706
f 707 709 704 705
f 494 705 706 493
f 492 707 705 494
f 576 708 704 573
f 422 797 798 744
f 717 724 725 718
f 712 650 710
f 713 711 399
f 720 727 726 719
f 715 722 727 720
f 650 717 718 651
f 712 719 717 650
f 581 716 714 582
f 399 715 720 713
f 714 721 722 715
f 719 726 724 717
f 718 725 723 716
f 716 723 721 714
f 397 396 751 749 398
f 396 711 713
f 711 396 424
f 608 746 752 750
f 517 729 493 527
f 580 422 743 418 516
f 728 736 738 729
f 493 734 703 494
f 534 761 757 521
f 740 739 742 737
f 493 729 738 734
f 734 702 703
f 518 519 702 734
f 733 570 518 735
f 735 518 734
f 741 742 759 730
f 739 516 418
f 738 735 734
f 740 567 516 739
f 735 738 742 741
f 737 742 738 736
f 733 735 741 731
f 731 741 730 732
f 743 422 744
f 521 418 743 745
f 745 743 744
f 390 793 795 792
f 745 420 521
f 384 794 793 390
f 749 753 747 398
f 710 751 712
f 749 751 750
f 749 750 752 753
f 751 396 713 712
f 757 761 758 755
f 587 415 754 586
f 755 758 760 754
f 755 756 757
f 730 759 756
f 522 758 761 534
f 586 754 760 600
f 755 416 417 756
f 742 739 759
f 792 795 800 791
f 790 423 497 791
f 744 798 794 384
f 791 800 799 790
f 790 799 797 422
f 811 815 812 796
f 389 811 796 392
f 388 810 811 389
f 810 814 815 811
f 796 812 813 809
usemtl Windows
f 546 143 145 549
f 143 144 146 145
f 147 148 145 146
f 148 557 549 145
f 95 149 150 152
f 98 95 152 151
f 152 150 154 153
f 151 152 153
f 105 305 304 158
f 160 161 158
f 269 267 268 270
f 267 690 691 268
f 272 696 690 267
f 271 272 267 269
f 156 158 161 162
f 155 105 158 156
f 158 304 306 160
f 310 313 157 159
f 309 310 159 301
f 546 549 554 552
f 552 554 555 553
f 556 555 554 558
f 558 554 549 557
f 498 562 560 559
f 502 561 562 498
f 562 563 564 560
f 561 563 562
f 510 568 731 732
f 570 568 571
f 692 693 689 688
f 688 689 691 690
f 695 688 690 696
f 694 692 688 695
f 566 572 571 568
f 565 566 568 510
f 568 570 733 731
f 737 569 567 740
f 736 728 569 737
usemtl Black
f 178 177 276
f 188 186 225 226
f 41 60 201 199
f 179 180 197 209
f 124 39 222 221
f 193 234 237 217
f 60 63 202 201
f 173 174 207 206
f 187 173 206 210
f 48 232 235 214
f 607 194 319 748
f 130 124 221 224
f 62 43 434 458
f 60 41 40 61
f 61 40 43 62
f 43 40 49 57
f 57 49 56 58
f 434 43 57 444
f 444 57 58 456
f 40 41 51 49
f 49 51 52 56
f 56 52 53 55
f 456 58 59 455
f 58 56 55 59
f 64 61 62 65
f 63 60 61 64
f 65 62 458 462
f 125 138 126
f 126 46 433 531
f 231 171 213 236
f 54 47 171 231
f 454 50 48 440
f 172 193 217 211
f 54 81 74 47
f 53 75 82 55
f 55 82 59
f 50 81 54
f 42 126 531 432
f 39 125 44
f 44 125 126 42
f 39 44 220 222
f 125 39 124
f 187 32 131 190
f 64 131 32 63
f 130 138 125 124
f 65 131 64
f 126 138 45 46
f 171 47 212 213
f 130 186 189 138
f 181 188 226 228
f 75 183 185 82
f 52 51 196 200
f 206 207 201 202
f 74 182 215 216
f 194 607 627 218
f 195 209 200 196
f 208 195 196 199
f 209 197 198 200
f 206 202 205 210
f 198 197 203 204
f 32 187 210 205
f 177 178 195 276
f 178 179 209 195
f 63 32 205 202
f 183 75 204 203
f 53 52 200 198
f 51 41 199 196
f 180 183 203 197
f 75 53 198 204
f 211 212 216 215
f 211 217 213 212
f 217 237 236 213
f 218 627 628 214
f 440 48 214 628
f 47 74 216 212
f 233 194 218 238
f 238 218 214 235
f 50 54 232 48
f 182 172 211 215
f 219 228 222 220
f 644 227 223 640
f 227 219 220 223
f 228 226 221 222
f 221 226 225 224
f 44 42 223 220
f 175 176 219 227
f 186 130 224 225
f 176 181 228 219
f 585 175 227 644
f 42 432 640 223
f 231 232 54
f 236 237 238 235
f 235 232 231 236
f 233 238 237 234
f 276 195 208
f 201 207 208 199
f 207 174 177 276 208
f 333 334 336 335
f 335 336 340 339
f 339 340 338 337
f 337 338 334 333
f 335 339 337 333
f 338 340 343 344
f 343 342 341 344
f 336 334 341 342
f 334 338 344 341
f 336 342 347 345
f 345 347 351 349
f 342 343 348 347
f 340 336 345 346
f 343 340 346 348
f 352 350 354 356
f 347 348 352 351
f 348 346 350 352
f 346 345 349 350
f 354 353 355 356
f 350 349 357 358
f 349 351 355 353
f 351 352 356 355
f 358 357 359 360
f 349 353 359 357
f 354 350 358 360
f 353 354 360 359
f 591 700 590
f 601 643 642 599
f 430 613 615 457
f 592 623 611 593
f 530 637 638 428
f 606 633 658 655
f 457 615 616 461
f 586 620 621 587
f 600 624 620 586
f 441 630 656 653
f 607 748 746 608
f 537 641 637 530
f 460 458 434 435
f 457 459 429 430
f 459 460 435 429
f 435 451 442 429
f 451 452 450 442
f 434 444 451 435
f 444 456 452 451
f 429 442 445 430
f 442 450 446 445
f 450 449 447 446
f 456 455 453 452
f 452 453 449 450
f 463 464 460 459
f 461 463 459 457
f 464 462 458 460
f 532 533 545
f 533 531 433 438
f 652 657 629 583
f 448 652 583 439
f 454 440 441 443
f 584 625 633 606
f 448 439 473 480
f 447 449 481 474
f 449 453 481
f 443 448 480
f 431 432 531 533
f 428 436 532
f 436 431 533 532
f 428 638 636 436
f 532 530 428
f 600 603 538 419
f 463 461 419 538
f 537 530 532 545
f 464 463 538
f 533 438 437 545
f 583 629 626 439
f 537 545 602 599
f 594 646 643 601
f 474 481 598 596
f 446 614 610 445
f 620 616 615 621
f 473 632 631 595
f 608 634 627 607
f 609 610 614 623
f 622 613 610 609
f 623 614 612 611
f 620 624 619 616
f 612 618 617 611
f 419 619 624 600
f 590 700 609 591
f 591 609 623 592
f 461 616 619 419
f 596 617 618 474
f 447 612 614 446
f 445 610 613 430
f 593 611 617 596
f 474 618 612 447
f 625 631 632 626
f 625 626 629 633
f 633 629 657 658
f 634 630 628 627
f 440 628 630 441
f 439 626 632 473
f 654 659 634 608
f 659 656 630 634
f 443 441 653 448
f 595 631 625 584
f 635 636 638 646
f 644 640 639 645
f 645 639 636 635
f 646 638 637 643
f 637 641 642 643
f 436 636 639 431
f 588 645 635 589
f 599 642 641 537
f 589 635 646 594
f 585 644 645 588
f 431 639 640 432
f 652 448 653
f 657 656 659 658
f 656 657 652 653
f 654 655 658 659
f 700 622 609
f 615 613 622 621
f 621 622 700 590 587
f 762 764 765 763
f 764 768 769 765
f 768 766 767 769
f 766 762 763 767
f 764 762 766 768
f 767 773 772 769
f 772 773 770 771
f 765 771 770 763
f 763 770 773 767
f 765 774 776 771
f 774 778 780 776
f 771 776 777 772
f 769 775 774 765
f 772 777 775 769
f 781 785 783 779
f 776 780 781 777
f 777 781 779 775
f 775 779 778 774
f 783 785 784 782
f 779 787 786 778
f 778 782 784 780
f 780 784 785 781
f 787 789 788 786
f 778 786 788 782
f 783 789 787 779
f 782 788 789 783
usemtl Grey
f 323 324 747 748 319
f 813 814 382 381
f 752 746 748 747 753
f 813 812 815 814
usemtl Headlights
f 297 295 300 299
f 296 294 295 298
f 298 295 297
f 724 726 727 722
f 723 725 722 721
f 725 724 722
usemtl TailLights
f 369 365 373 377
f 370 368 376 378
f 366 371 379 374
f 365 364 372 373
f 376 375 379 378
f 376 377 375
f 375 377 373 372
f 374 379 375 372
f 368 369 377 376
f 364 366 374 372
f 371 370 378 379
f 798 806 802 794
f 799 807 805 797
f 795 803 808 800
f 794 802 801 793
f 805 807 808 804
f 805 804 806
f 804 801 802 806
f 803 801 804 808
f 797 805 806 798
f 793 801 803 795
f 800 808 807 799
o SUV_BackWheels_Cylinder.009
v 0.68 0.309 -1.578
v 0.882 0.309 -1.578
v 0.68 0.146 -1.534
v 0.882 0.146 -1.534
v 0.68 0.026 -1.415
v 0.882 0.026 -1.415
v 0.68 -0.018 -1.251
v 0.882 -0.018 -1.251
v 0.68 0.026 -1.087
v 0.882 0.026 -1.087
v 0.68 0.146 -0.968
v 0.882 0.146 -0.968
v 0.68 0.309 -0.924
v 0.882 0.309 -0.924
v 0.68 0.473 -0.968
v 0.882 0.473 -0.968
v 0.68 0.593 -1.087
v 0.882 0.593 -1.087
v 0.68 0.636 -1.251
v 0.882 0.636 -1.251
v 0.68 0.593 -1.415
v 0.882 0.593 -1.415
v 0.68 0.473 -1.534
v 0.882 0.473 -1.534
v 0.919 0.185 -1.466
v 0.919 0.309 -1.499
v 0.919 0.095 -1.375
v 0.919 0.061 -1.251
v 0.919 0.095 -1.127
v 0.919 0.185 -1.037
v 0.919 0.309 -1.003
v 0.919 0.433 -1.037
v 0.919 0.524 -1.127
v 0.919 0.557 -1.251
v 0.919 0.524 -1.375
v 0.919 0.433 -1.466
v 0.919 0.201 -1.438
v 0.919 0.309 -1.467
v 0.919 0.122 -1.359
v 0.919 0.093 -1.251
v 0.919 0.122 -1.143
v 0.919 0.201 -1.064
v 0.919 0.309 -1.035
v 0.919 0.417 -1.064
v 0.919 0.496 -1.143
v 0.919 0.525 -1.251
v 0.919 0.496 -1.359
v 0.919 0.417 -1.438
v 0.889 0.201 -1.438
v 0.889 0.309 -1.467
v 0.889 0.122 -1.359
v 0.889 0.093 -1.251
v 0.889 0.122 -1.143
v 0.889 0.201 -1.064
v 0.889 0.309 -1.035
v 0.889 0.417 -1.064
v 0.889 0.496 -1.143
v 0.889 0.525 -1.251
v 0.889 0.496 -1.359
v 0.889 0.417 -1.438
v 0.893 0.279 -1.304
v 0.893 0.309 -1.312
v 0.893 0.257 -1.281
v 0.893 0.249 -1.251
v 0.893 0.257 -1.221
v 0.893 0.279 -1.199
v 0.893 0.309 -1.19
v 0.893 0.339 -1.199
v 0.893 0.362 -1.221
v 0.893 0.37 -1.251
v 0.893 0.362 -1.281
v 0.893 0.339 -1.304
v 0.903 0.29 -1.284
v 0.903 0.309 -1.289
v 0.903 0.276 -1.27
v 0.903 0.271 -1.251
v 0.903 0.276 -1.232
v 0.903 0.29 -1.218
v 0.903 0.309 -1.213
v 0.903 0.328 -1.218
v 0.903 0.342 -1.232
v 0.903 0.347 -1.251
v 0.903 0.342 -1.27
v 0.903 0.328 -1.284
v 0.889 0.298 -1.049
v 0.889 0.212 -1.072
v 0.888 0.301 -1.177
v 0.888 0.275 -1.184
v 0.889 0.406 -1.072
v 0.889 0.32 -1.049
v 0.888 0.344 -1.184
v 0.888 0.317 -1.177
v 0.889 0.482 -1.142
v 0.889 0.419 -1.078
v 0.888 0.372 -1.207
v 0.888 0.353 -1.188
v 0.889 0.511 -1.24
v 0.889 0.488 -1.154
v 0.888 0.384 -1.243
v 0.888 0.377 -1.217
v 0.889 0.419 -1.424
v 0.889 0.482 -1.361
v 0.888 0.353 -1.314
v 0.888 0.372 -1.295
v 0.889 0.488 -1.348
v 0.889 0.511 -1.262
v 0.888 0.377 -1.285
v 0.888 0.384 -1.259
v 0.889 0.32 -1.453
v 0.889 0.406 -1.43
v 0.888 0.317 -1.325
v 0.888 0.344 -1.319
v 0.889 0.212 -1.43
v 0.889 0.298 -1.453
v 0.888 0.275 -1.319
v 0.888 0.301 -1.325
v 0.889 0.136 -1.361
v 0.889 0.2 -1.424
v 0.888 0.246 -1.295
v 0.888 0.265 -1.314
v 0.889 0.107 -1.262
v 0.889 0.13 -1.348
v 0.888 0.235 -1.259
v 0.888 0.242 -1.285
v 0.889 0.13 -1.154
v 0.889 0.107 -1.24
v 0.888 0.242 -1.217
v 0.888 0.235 -1.243
v 0.889 0.2 -1.078
v 0.889 0.136 -1.142
v 0.888 0.265 -1.188
v 0.888 0.246 -1.207
v 0.838 0.298 -1.049
v 0.838 0.212 -1.072
v 0.849 0.301 -1.177
v 0.849 0.275 -1.184
v 0.838 0.406 -1.072
v 0.838 0.32 -1.049
v 0.849 0.344 -1.184
v 0.849 0.317 -1.177
v 0.838 0.482 -1.142
v 0.838 0.419 -1.078
v 0.849 0.372 -1.207
v 0.849 0.353 -1.188
v 0.838 0.511 -1.24
v 0.838 0.488 -1.154
v 0.849 0.384 -1.243
v 0.849 0.377 -1.217
v 0.838 0.419 -1.424
v 0.838 0.482 -1.361
v 0.849 0.353 -1.314
v 0.849 0.372 -1.295
v 0.838 0.488 -1.348
v 0.838 0.511 -1.262
v 0.849 0.377 -1.285
v 0.849 0.384 -1.259
v 0.838 0.32 -1.453
v 0.838 0.406 -1.43
v 0.849 0.317 -1.325
v 0.849 0.344 -1.319
v 0.838 0.212 -1.43
v 0.838 0.298 -1.453
v 0.849 0.275 -1.319
v 0.849 0.301 -1.325
v 0.838 0.136 -1.361
v 0.838 0.2 -1.424
v 0.849 0.246 -1.295
v 0.849 0.265 -1.314
v 0.838 0.107 -1.262
v 0.838 0.13 -1.348
v 0.849 0.235 -1.259
v 0.849 0.242 -1.285
v 0.838 0.13 -1.154
v 0.838 0.107 -1.24
v 0.849 0.242 -1.217
v 0.849 0.235 -1.243
v 0.838 0.2 -1.078
v 0.838 0.136 -1.142
v 0.849 0.265 -1.188
v 0.849 0.246 -1.207
v 0.895 0.277 -1.205
v 0.895 0.263 -1.219
v 0.901 0.284 -1.217
v 0.901 0.275 -1.225
v 0.895 0.263 -1.284
v 0.895 0.277 -1.297
v 0.901 0.275 -1.277
v 0.901 0.284 -1.285
v 0.895 0.342 -1.297
v 0.895 0.355 -1.284
v 0.901 0.335 -1.285
v 0.901 0.343 -1.277
v 0.895 0.355 -1.219
v 0.895 0.342 -1.205
v 0.901 0.343 -1.225
v 0.901 0.335 -1.217
v 0.873 0.277 -1.205
v 0.873 0.263 -1.219
v 0.88 0.284 -1.217
v 0.88 0.275 -1.225
v 0.873 0.263 -1.284
v 0.873 0.277 -1.297
v 0.88 0.275 -1.277
v 0.88 0.284 -1.285
v 0.873 0.342 -1.297
v 0.873 0.355 -1.284
v 0.88 0.335 -1.285
v 0.88 0.343 -1.277
v 0.873 0.355 -1.219
v 0.873 0.342 -1.205
v 0.88 0.343 -1.225
v 0.88 0.335 -1.217
v -0.67 0.309 -1.578
v -0.872 0.309 -1.578
v -0.67 0.146 -1.534
v -0.872 0.146 -1.534
v -0.67 0.026 -1.415
v -0.872 0.026 -1.415
v -0.67 -0.018 -1.251
v -0.872 -0.018 -1.251
v -0.67 0.026 -1.087
v -0.872 0.026 -1.087
v -0.67 0.146 -0.968
v -0.872 0.146 -0.968
v -0.67 0.309 -0.924
v -0.872 0.309 -0.924
v -0.67 0.473 -0.968
v -0.872 0.473 -0.968
v -0.67 0.593 -1.087
v -0.872 0.593 -1.087
v -0.67 0.636 -1.251
v -0.872 0.636 -1.251
v -0.67 0.593 -1.415
v -0.872 0.593 -1.415
v -0.67 0.473 -1.534
v -0.872 0.473 -1.534
v -0.909 0.185 -1.466
v -0.909 0.309 -1.499
v -0.909 0.095 -1.375
v -0.909 0.061 -1.251
v -0.909 0.095 -1.127
v -0.909 0.185 -1.037
v -0.909 0.309 -1.003
v -0.909 0.433 -1.037
v -0.909 0.524 -1.127
v -0.909 0.557 -1.251
v -0.909 0.524 -1.375
v -0.909 0.433 -1.466
v -0.909 0.201 -1.438
v -0.909 0.309 -1.467
v -0.909 0.122 -1.359
v -0.909 0.093 -1.251
v -0.909 0.122 -1.143
v -0.909 0.201 -1.064
v -0.909 0.309 -1.035
v -0.909 0.417 -1.064
v -0.909 0.496 -1.143
v -0.909 0.525 -1.251
v -0.909 0.496 -1.359
v -0.909 0.417 -1.438
v -0.879 0.201 -1.438
v -0.879 0.309 -1.467
v -0.879 0.122 -1.359
v -0.879 0.093 -1.251
v -0.879 0.122 -1.143
v -0.879 0.201 -1.064
v -0.879 0.309 -1.035
v -0.879 0.417 -1.064
v -0.879 0.496 -1.143
v -0.879 0.525 -1.251
v -0.879 0.496 -1.359
v -0.879 0.417 -1.438
v -0.882 0.279 -1.304
v -0.882 0.309 -1.312
v -0.882 0.257 -1.281
v -0.882 0.249 -1.251
v -0.882 0.257 -1.221
v -0.882 0.279 -1.199
v -0.882 0.309 -1.19
v -0.882 0.339 -1.199
v -0.882 0.362 -1.221
v -0.882 0.37 -1.251
v -0.882 0.362 -1.281
v -0.882 0.339 -1.304
v -0.893 0.29 -1.284
v -0.893 0.309 -1.289
v -0.893 0.276 -1.27
v -0.893 0.271 -1.251
v -0.893 0.276 -1.232
v -0.893 0.29 -1.218
v -0.893 0.309 -1.213
v -0.893 0.328 -1.218
v -0.893 0.342 -1.232
v -0.893 0.347 -1.251
v -0.893 0.342 -1.27
v -0.893 0.328 -1.284
v -0.879 0.298 -1.049
v -0.879 0.212 -1.072
v -0.878 0.301 -1.177
v -0.878 0.275 -1.184
v -0.879 0.406 -1.072
v -0.879 0.32 -1.049
v -0.878 0.344 -1.184
v -0.878 0.317 -1.177
v -0.879 0.482 -1.142
v -0.879 0.419 -1.078
v -0.878 0.372 -1.207
v -0.878 0.353 -1.188
v -0.879 0.511 -1.24
v -0.879 0.488 -1.154
v -0.878 0.384 -1.243
v -0.878 0.377 -1.217
v -0.879 0.419 -1.424
v -0.879 0.482 -1.361
v -0.878 0.353 -1.314
v -0.878 0.372 -1.295
v -0.879 0.488 -1.348
v -0.879 0.511 -1.262
v -0.878 0.377 -1.285
v -0.878 0.384 -1.259
v -0.879 0.32 -1.453
v -0.879 0.406 -1.43
v -0.878 0.317 -1.325
v -0.878 0.344 -1.319
v -0.879 0.212 -1.43
v -0.879 0.298 -1.453
v -0.878 0.275 -1.319
v -0.878 0.301 -1.325
v -0.879 0.136 -1.361
v -0.879 0.2 -1.424
v -0.878 0.246 -1.295
v -0.878 0.265 -1.314
v -0.879 0.107 -1.262
v -0.879 0.13 -1.348
v -0.878 0.235 -1.259
v -0.878 0.242 -1.285
v -0.879 0.13 -1.154
v -0.879 0.107 -1.24
v -0.878 0.242 -1.217
v -0.878 0.235 -1.243
v -0.879 0.2 -1.078
v -0.879 0.136 -1.142
v -0.878 0.265 -1.188
v -0.878 0.246 -1.207
v -0.828 0.298 -1.049
v -0.828 0.212 -1.072
v -0.839 0.301 -1.177
v -0.839 0.275 -1.184
v -0.828 0.406 -1.072
v -0.828 0.32 -1.049
v -0.839 0.344 -1.184
v -0.839 0.317 -1.177
v -0.828 0.482 -1.142
v -0.828 0.419 -1.078
v -0.839 0.372 -1.207
v -0.839 0.353 -1.188
v -0.828 0.511 -1.24
v -0.828 0.488 -1.154
v -0.839 0.384 -1.243
v -0.839 0.377 -1.217
v -0.828 0.419 -1.424
v -0.828 0.482 -1.361
v -0.839 0.353 -1.314
v -0.839 0.372 -1.295
v -0.828 0.488 -1.348
v -0.828 0.511 -1.262
v -0.839 0.377 -1.285
v -0.839 0.384 -1.259
v -0.828 0.32 -1.453
v -0.828 0.406 -1.43
v -0.839 0.317 -1.325
v -0.839 0.344 -1.319
v -0.828 0.212 -1.43
v -0.828 0.298 -1.453
v -0.839 0.275 -1.319
v -0.839 0.301 -1.325
v -0.828 0.136 -1.361
v -0.828 0.2 -1.424
v -0.839 0.246 -1.295
v -0.839 0.265 -1.314
v -0.828 0.107 -1.262
v -0.828 0.13 -1.348
v -0.839 0.235 -1.259
v -0.839 0.242 -1.285
v -0.828 0.13 -1.154
v -0.828 0.107 -1.24
v -0.839 0.242 -1.217
v -0.839 0.235 -1.243
v -0.828 0.2 -1.078
v -0.828 0.136 -1.142
v -0.839 0.265 -1.188
v -0.839 0.246 -1.207
v -0.884 0.277 -1.205
v -0.884 0.263 -1.219
v -0.891 0.284 -1.217
v -0.891 0.275 -1.225
v -0.884 0.263 -1.284
v -0.884 0.277 -1.297
v -0.891 0.275 -1.277
v -0.891 0.284 -1.285
v -0.884 0.342 -1.297
v -0.884 0.355 -1.284
v -0.891 0.335 -1.285
v -0.891 0.343 -1.277
v -0.884 0.355 -1.219
v -0.884 0.342 -1.205
v -0.891 0.343 -1.225
v -0.891 0.335 -1.217
v -0.863 0.277 -1.205
v -0.863 0.263 -1.219
v -0.869 0.284 -1.217
v -0.869 0.275 -1.225
v -0.863 0.263 -1.284
v -0.863 0.277 -1.297
v -0.869 0.275 -1.277
v -0.869 0.284 -1.285
v -0.863 0.342 -1.297
v -0.863 0.355 -1.284
v -0.869 0.335 -1.285
v -0.869 0.343 -1.277
v -0.863 0.355 -1.219
v -0.863 0.342 -1.205
v -0.869 0.343 -1.225
v -0.869 0.335 -1.217
usemtl Black
f 816 817 819 818
f 818 819 821 820
f 820 821 823 822
f 822 823 825 824
f 824 825 827 826
f 826 827 829 828
f 828 829 831 830
f 830 831 833 832
f 832 833 835 834
f 834 835 837 836
f 829 827 845 846
f 836 837 839 838
f 838 839 817 816
f 816 818 820 822 824 826 828 830 832 834 836 838
f 846 845 857 858
f 827 825 844 845
f 825 823 843 844
f 817 839 851 841
f 819 817 841 840
f 823 821 842 843
f 839 837 850 851
f 821 819 840 842
f 837 835 849 850
f 835 833 848 849
f 833 831 847 848
f 831 829 846 847
f 861 860 872 873
f 843 842 854 855
f 850 849 861 862
f 847 846 858 859
f 844 843 855 856
f 851 850 862 863
f 840 841 853 852
f 848 847 859 860
f 845 844 856 857
f 841 851 863 853
f 842 840 852 854
f 849 848 860 861
f 858 857 869 870
f 855 854 866 867
f 862 861 873 874
f 859 858 870 871
f 856 855 867 868
f 863 862 874 875
f 852 853 865 864
f 860 859 871 872
f 857 856 868 869
f 853 863 875 865
f 854 852 864 866
f 948 949 951 950
f 952 953 955 954
f 956 957 959 958
f 960 961 963 962
f 964 965 967 966
f 968 969 971 970
f 972 973 975 974
f 976 977 979 978
f 980 981 983 982
f 984 985 987 986
f 988 989 991 990
f 992 993 995 994
f 1012 1013 1015 1014
f 1016 1017 1019 1018
f 1020 1021 1023 1022
f 1024 1025 1027 1026
f 1028 1030 1031 1029
f 1030 1032 1033 1031
f 1032 1034 1035 1033
f 1034 1036 1037 1035
f 1036 1038 1039 1037
f 1038 1040 1041 1039
f 1040 1042 1043 1041
f 1042 1044 1045 1043
f 1044 1046 1047 1045
f 1046 1048 1049 1047
f 1041 1058 1057 1039
f 1048 1050 1051 1049
f 1050 1028 1029 1051
f 1028 1050 1048 1046 1044 1042 1040 1038 1036 1034 1032 1030
f 1058 1070 1069 1057
f 1039 1057 1056 1037
f 1037 1056 1055 1035
f 1029 1053 1063 1051
f 1031 1052 1053 1029
f 1035 1055 1054 1033
f 1051 1063 1062 1049
f 1033 1054 1052 1031
f 1049 1062 1061 1047
f 1047 1061 1060 1045
f 1045 1060 1059 1043
f 1043 1059 1058 1041
f 1073 1085 1084 1072
f 1055 1067 1066 1054
f 1062 1074 1073 1061
f 1059 1071 1070 1058
f 1056 1068 1067 1055
f 1063 1075 1074 1062
f 1052 1064 1065 1053
f 1060 1072 1071 1059
f 1057 1069 1068 1056
f 1053 1065 1075 1063
f 1054 1066 1064 1052
f 1061 1073 1072 1060
f 1070 1082 1081 1069
f 1067 1079 1078 1066
f 1074 1086 1085 1073
f 1071 1083 1082 1070
f 1068 1080 1079 1067
f 1075 1087 1086 1074
f 1064 1076 1077 1065
f 1072 1084 1083 1071
f 1069 1081 1080 1068
f 1065 1077 1087 1075
f 1066 1078 1076 1064
f 1160 1162 1163 1161
f 1164 1166 1167 1165
f 1168 1170 1171 1169
f 1172 1174 1175 1173
f 1176 1178 1179 1177
f 1180 1182 1183 1181
f 1184 1186 1187 1185
f 1188 1190 1191 1189
f 1192 1194 1195 1193
f 1196 1198 1199 1197
f 1200 1202 1203 1201
f 1204 1206 1207 1205
f 1224 1226 1227 1225
f 1228 1230 1231 1229
f 1232 1234 1235 1233
f 1236 1238 1239 1237
usemtl Grey
f 878 866 932 934
f 877 887 899 889
f 872 884 915 913
f 870 869 901 900
f 878 879 938 939
f 886 874 920 922
f 882 883 906 907
f 867 879 943 941
f 886 887 918 919
f 877 876 930 931
f 884 872 908 910
f 880 881 946 947
f 887 877 926 927
f 888 889 899 898 897 896 895 894 893 892 891 890
f 876 888 1003 1001
f 885 884 896 897
f 882 881 893 894
f 879 878 890 891
f 886 885 897 898
f 883 882 894 895
f 880 879 891 892
f 899 887 1004 1006
f 876 877 889 888
f 883 895 1011 1009
f 881 880 997 996
f 903 902 950 951
f 882 870 900 902
f 881 882 902 903
f 869 881 903 901
f 923 922 970 971
f 870 882 907 905
f 871 870 905 904
f 883 871 904 906
f 943 942 990 991
f 871 883 911 909
f 883 884 910 911
f 872 871 909 908
f 914 912 960 962
f 884 885 914 915
f 873 872 913 912
f 885 873 912 914
f 900 901 949 948
f 875 874 917 916
f 874 886 919 917
f 887 875 916 918
f 934 932 980 982
f 873 885 923 921
f 885 886 922 923
f 874 873 921 920
f 920 921 969 968
f 875 887 927 925
f 865 875 925 924
f 877 865 924 926
f 940 941 989 988
f 864 865 929 928
f 876 864 928 930
f 865 877 931 929
f 913 915 963 961
f 876 878 934 935
f 864 876 935 933
f 866 864 933 932
f 933 935 983 981
f 866 878 939 937
f 867 866 937 936
f 879 867 936 938
f 915 914 962 963
f 879 880 942 943
f 868 867 941 940
f 880 868 940 942
f 935 934 982 983
f 869 868 945 944
f 881 869 944 946
f 868 880 947 945
f 941 943 991 989
f 921 923 971 969
f 901 903 951 949
f 928 929 977 976
f 942 940 988 990
f 908 909 957 956
f 922 920 968 970
f 902 900 948 950
f 931 930 978 979
f 911 910 958 959
f 930 928 976 978
f 910 908 956 958
f 936 937 985 984
f 916 917 965 964
f 929 931 979 977
f 909 911 959 957
f 939 938 986 987
f 919 918 966 967
f 937 939 987 985
f 917 919 967 965
f 944 945 993 992
f 924 925 973 972
f 938 936 984 986
f 904 905 953 952
f 918 916 964 966
f 947 946 994 995
f 927 926 974 975
f 907 906 954 955
f 946 944 992 994
f 925 927 975 973
f 905 907 955 953
f 932 933 981 980
f 945 947 995 993
f 912 913 961 960
f 926 924 972 974
f 906 904 952 954
f 996 997 1013 1012
f 893 881 996 998
f 880 892 999 997
f 892 893 998 999
f 1009 1011 1027 1025
f 888 890 1002 1003
f 878 876 1001 1000
f 890 878 1000 1002
f 1005 1007 1023 1021
f 898 899 1006 1007
f 886 898 1007 1005
f 887 886 1005 1004
f 1010 1008 1024 1026
f 895 896 1010 1011
f 884 883 1009 1008
f 896 884 1008 1010
f 1000 1001 1017 1016
f 999 998 1014 1015
f 1004 1005 1021 1020
f 1003 1002 1018 1019
f 1008 1009 1025 1024
f 998 996 1012 1014
f 1007 1006 1022 1023
f 1001 1003 1019 1017
f 1011 1010 1026 1027
f 997 999 1015 1013
f 1006 1004 1020 1022
f 1002 1000 1016 1018
f 1090 1146 1144 1078
f 1089 1101 1111 1099
f 1084 1125 1127 1096
f 1082 1112 1113 1081
f 1090 1151 1150 1091
f 1098 1134 1132 1086
f 1094 1119 1118 1095
f 1079 1153 1155 1091
f 1098 1131 1130 1099
f 1089 1143 1142 1088
f 1096 1122 1120 1084
f 1092 1159 1158 1093
f 1099 1139 1138 1089
f 1100 1102 1103 1104 1105 1106 1107 1108 1109 1110 1111 1101
f 1088 1213 1215 1100
f 1097 1109 1108 1096
f 1094 1106 1105 1093
f 1091 1103 1102 1090
f 1098 1110 1109 1097
f 1095 1107 1106 1094
f 1092 1104 1103 1091
f 1111 1218 1216 1099
f 1088 1100 1101 1089
f 1095 1221 1223 1107
f 1093 1208 1209 1092
f 1115 1163 1162 1114
f 1094 1114 1112 1082
f 1093 1115 1114 1094
f 1081 1113 1115 1093
f 1135 1183 1182 1134
f 1082 1117 1119 1094
f 1083 1116 1117 1082
f 1095 1118 1116 1083
f 1155 1203 1202 1154
f 1083 1121 1123 1095
f 1095 1123 1122 1096
f 1084 1120 1121 1083
f 1126 1174 1172 1124
f 1096 1127 1126 1097
f 1085 1124 1125 1084
f 1097 1126 1124 1085
f 1112 1160 1161 1113
f 1087 1128 1129 1086
f 1086 1129 1131 1098
f 1099 1130 1128 1087
f 1146 1194 1192 1144
f 1085 1133 1135 1097
f 1097 1135 1134 1098
f 1086 1132 1133 1085
f 1132 1180 1181 1133
f 1087 1137 1139 1099
f 1077 1136 1137 1087
f 1089 1138 1136 1077
f 1152 1200 1201 1153
f 1076 1140 1141 1077
f 1088 1142 1140 1076
f 1077 1141 1143 1089
f 1125 1173 1175 1127
f 1088 1147 1146 1090
f 1076 1145 1147 1088
f 1078 1144 1145 1076
f 1145 1193 1195 1147
f 1078 1149 1151 1090
f 1079 1148 1149 1078
f 1091 1150 1148 1079
f 1127 1175 1174 1126
f 1091 1155 1154 1092
f 1080 1152 1153 1079
f 1092 1154 1152 1080
f 1147 1195 1194 1146
f 1081 1156 1157 1080
f 1093 1158 1156 1081
f 1080 1157 1159 1092
f 1153 1201 1203 1155
f 1133 1181 1183 1135
f 1113 1161 1163 1115
f 1140 1188 1189 1141
f 1154 1202 1200 1152
f 1120 1168 1169 1121
f 1134 1182 1180 1132
f 1114 1162 1160 1112
f 1143 1191 1190 1142
f 1123 1171 1170 1122
f 1142 1190 1188 1140
f 1122 1170 1168 1120
f 1148 1196 1197 1149
f 1128 1176 1177 1129
f 1141 1189 1191 1143
f 1121 1169 1171 1123
f 1151 1199 1198 1150
f 1131 1179 1178 1130
f 1149 1197 1199 1151
f 1129 1177 1179 1131
f 1156 1204 1205 1157
f 1136 1184 1185 1137
f 1150 1198 1196 1148
f 1116 1164 1165 1117
f 1130 1178 1176 1128
f 1159 1207 1206 1158
f 1139 1187 1186 1138
f 1119 1167 1166 1118
f 1158 1206 1204 1156
f 1137 1185 1187 1139
f 1117 1165 1167 1119
f 1144 1192 1193 1145
f 1157 1205 1207 1159
f 1124 1172 1173 1125
f 1138 1186 1184 1136
f 1118 1166 1164 1116
f 1208 1224 1225 1209
f 1105 1210 1208 1093
f 1092 1209 1211 1104
f 1104 1211 1210 1105
f 1221 1237 1239 1223
f 1100 1215 1214 1102
f 1090 1212 1213 1088
f 1102 1214 1212 1090
f 1217 1233 1235 1219
f 1110 1219 1218 1111
f 1098 1217 1219 1110
f 1099 1216 1217 1098
f 1222 1238 1236 1220
f 1107 1223 1222 1108
f 1096 1220 1221 1095
f 1108 1222 1220 1096
f 1212 1228 1229 1213
f 1211 1227 1226 1210
f 1216 1232 1233 1217
f 1215 1231 1230 1214
f 1220 1236 1237 1221
f 1210 1226 1224 1208
f 1219 1235 1234 1218
f 1213 1229 1231 1215
f 1223 1239 1238 1222
f 1209 1225 1227 1211
f 1218 1234 1232 1216
f 1214 1230 1228 1212
o SUV_FrontLeftWheel_Cylinder.010
v 0.653 0.309 0.99
v 0.856 0.309 0.99
v 0.653 0.146 1.034
v 0.856 0.146 1.034
v 0.653 0.026 1.153
v 0.856 0.026 1.153
v 0.653 -0.018 1.317
v 0.856 -0.018 1.317
v 0.653 0.026 1.481
v 0.856 0.026 1.481
v 0.653 0.146 1.6
v 0.856 0.146 1.6
v 0.653 0.309 1.644
v 0.856 0.309 1.644
v 0.653 0.473 1.6
v 0.856 0.473 1.6
v 0.653 0.593 1.481
v 0.856 0.593 1.481
v 0.653 0.636 1.317
v 0.856 0.636 1.317
v 0.653 0.593 1.153
v 0.856 0.593 1.153
v 0.653 0.473 1.034
v 0.856 0.473 1.034
v 0.892 0.185 1.102
v 0.892 0.309 1.069
v 0.892 0.095 1.193
v 0.892 0.061 1.317
v 0.892 0.095 1.441
v 0.892 0.185 1.532
v 0.892 0.309 1.565
v 0.892 0.433 1.532
v 0.892 0.524 1.441
v 0.892 0.557 1.317
v 0.892 0.524 1.193
v 0.892 0.433 1.102
v 0.892 0.201 1.13
v 0.892 0.309 1.101
v 0.892 0.122 1.209
v 0.892 0.093 1.317
v 0.892 0.122 1.425
v 0.892 0.201 1.504
v 0.892 0.309 1.533
v 0.892 0.417 1.504
v 0.892 0.496 1.425
v 0.892 0.525 1.317
v 0.892 0.496 1.209
v 0.892 0.417 1.13
v 0.862 0.201 1.13
v 0.862 0.309 1.101
v 0.862 0.122 1.209
v 0.862 0.093 1.317
v 0.862 0.122 1.425
v 0.862 0.201 1.504
v 0.862 0.309 1.533
v 0.862 0.417 1.504
v 0.862 0.496 1.425
v 0.862 0.525 1.317
v 0.862 0.496 1.209
v 0.862 0.417 1.13
v 0.866 0.279 1.264
v 0.866 0.309 1.256
v 0.866 0.257 1.287
v 0.866 0.249 1.317
v 0.866 0.257 1.347
v 0.866 0.279 1.369
v 0.866 0.309 1.378
v 0.866 0.339 1.369
v 0.866 0.362 1.347
v 0.866 0.37 1.317
v 0.866 0.362 1.287
v 0.866 0.339 1.264
v 0.876 0.29 1.284
v 0.876 0.309 1.279
v 0.876 0.276 1.298
v 0.876 0.271 1.317
v 0.876 0.276 1.336
v 0.876 0.29 1.35
v 0.876 0.309 1.355
v 0.876 0.328 1.35
v 0.876 0.342 1.336
v 0.876 0.347 1.317
v 0.876 0.342 1.298
v 0.876 0.328 1.284
v 0.862 0.298 1.519
v 0.862 0.212 1.496
v 0.862 0.301 1.391
v 0.862 0.275 1.384
v 0.862 0.406 1.496
v 0.862 0.32 1.519
v 0.862 0.344 1.384
v 0.862 0.317 1.391
v 0.862 0.482 1.426
v 0.862 0.419 1.49
v 0.862 0.372 1.361
v 0.862 0.353 1.38
v 0.862 0.511 1.328
v 0.862 0.488 1.414
v 0.862 0.384 1.325
v 0.862 0.377 1.351
v 0.862 0.419 1.144
v 0.862 0.482 1.207
v 0.862 0.353 1.254
v 0.862 0.372 1.273
v 0.862 0.488 1.22
v 0.862 0.511 1.306
v 0.862 0.377 1.283
v 0.862 0.384 1.309
v 0.862 0.32 1.115
v 0.862 0.406 1.138
v 0.862 0.317 1.243
v 0.862 0.344 1.25
v 0.862 0.212 1.138
v 0.862 0.298 1.115
v 0.862 0.275 1.25
v 0.862 0.301 1.243
v 0.862 0.136 1.207
v 0.862 0.2 1.144
v 0.862 0.246 1.273
v 0.862 0.265 1.254
v 0.862 0.107 1.306
v 0.862 0.13 1.22
v 0.862 0.235 1.309
v 0.862 0.242 1.283
v 0.862 0.13 1.414
v 0.862 0.107 1.328
v 0.862 0.242 1.351
v 0.862 0.235 1.325
v 0.862 0.2 1.49
v 0.862 0.136 1.426
v 0.862 0.265 1.38
v 0.862 0.246 1.361
v 0.811 0.298 1.519
v 0.811 0.212 1.496
v 0.822 0.301 1.391
v 0.822 0.275 1.384
v 0.811 0.406 1.496
v 0.811 0.32 1.519
v 0.822 0.344 1.384
v 0.822 0.317 1.391
v 0.811 0.482 1.426
v 0.811 0.419 1.49
v 0.822 0.372 1.361
v 0.822 0.353 1.38
v 0.811 0.511 1.328
v 0.811 0.488 1.414
v 0.822 0.384 1.325
v 0.822 0.377 1.351
v 0.811 0.419 1.144
v 0.811 0.482 1.207
v 0.822 0.353 1.254
v 0.822 0.372 1.273
v 0.811 0.488 1.22
v 0.811 0.511 1.306
v 0.822 0.377 1.283
v 0.822 0.384 1.309
v 0.811 0.32 1.115
v 0.811 0.406 1.138
v 0.822 0.317 1.243
v 0.822 0.344 1.25
v 0.811 0.212 1.138
v 0.811 0.298 1.115
v 0.822 0.275 1.25
v 0.822 0.301 1.243
v 0.811 0.136 1.207
v 0.811 0.2 1.144
v 0.822 0.246 1.273
v 0.822 0.265 1.254
v 0.811 0.107 1.306
v 0.811 0.13 1.22
v 0.822 0.235 1.309
v 0.822 0.242 1.283
v 0.811 0.13 1.414
v 0.811 0.107 1.328
v 0.822 0.242 1.351
v 0.822 0.235 1.325
v 0.811 0.2 1.49
v 0.811 0.136 1.426
v 0.822 0.265 1.38
v 0.822 0.246 1.361
v 0.868 0.277 1.363
v 0.868 0.263 1.349
v 0.874 0.284 1.351
v 0.874 0.275 1.343
v 0.868 0.263 1.284
v 0.868 0.277 1.271
v 0.874 0.275 1.291
v 0.874 0.284 1.283
v 0.868 0.342 1.271
v 0.868 0.355 1.284
v 0.874 0.335 1.283
v 0.874 0.343 1.291
v 0.868 0.355 1.349
v 0.868 0.342 1.363
v 0.874 0.343 1.343
v 0.874 0.335 1.351
v 0.846 0.277 1.363
v 0.846 0.263 1.349
v 0.853 0.284 1.351
v 0.853 0.275 1.343
v 0.846 0.263 1.284
v 0.846 0.277 1.271
v 0.853 0.275 1.291
v 0.853 0.284 1.283
v 0.846 0.342 1.271
v 0.846 0.355 1.284
v 0.853 0.335 1.283
v 0.853 0.343 1.291
v 0.846 0.355 1.349
v 0.846 0.342 1.363
v 0.853 0.343 1.343
v 0.853 0.335 1.351
usemtl Black
f 1240 1241 1243 1242
f 1242 1243 1245 1244
f 1244 1245 1247 1246
f 1246 1247 1249 1248
f 1248 1249 1251 1250
f 1250 1251 1253 1252
f 1252 1253 1255 1254
f 1254 1255 1257 1256
f 1256 1257 1259 1258
f 1258 1259 1261 1260
f 1253 1251 1269 1270
f 1260 1261 1263 1262
f 1262 1263 1241 1240
f 1240 1242 1244 1246 1248 1250 1252 1254 1256 1258 1260 1262
f 1270 1269 1281 1282
f 1251 1249 1268 1269
f 1249 1247 1267 1268
f 1241 1263 1275 1265
f 1243 1241 1265 1264
f 1247 1245 1266 1267
f 1263 1261 1274 1275
f 1245 1243 1264 1266
f 1261 1259 1273 1274
f 1259 1257 1272 1273
f 1257 1255 1271 1272
f 1255 1253 1270 1271
f 1285 1284 1296 1297
f 1267 1266 1278 1279
f 1274 1273 1285 1286
f 1271 1270 1282 1283
f 1268 1267 1279 1280
f 1275 1274 1286 1287
f 1264 1265 1277 1276
f 1272 1271 1283 1284
f 1269 1268 1280 1281
f 1265 1275 1287 1277
f 1266 1264 1276 1278
f 1273 1272 1284 1285
f 1282 1281 1293 1294
f 1279 1278 1290 1291
f 1286 1285 1297 1298
f 1283 1282 1294 1295
f 1280 1279 1291 1292
f 1287 1286 1298 1299
f 1276 1277 1289 1288
f 1284 1283 1295 1296
f 1281 1280 1292 1293
f 1277 1287 1299 1289
f 1278 1276 1288 1290
f 1372 1373 1375 1374
f 1376 1377 1379 1378
f 1380 1381 1383 1382
f 1384 1385 1387 1386
f 1388 1389 1391 1390
f 1392 1393 1395 1394
f 1396 1397 1399 1398
f 1400 1401 1403 1402
f 1404 1405 1407 1406
f 1408 1409 1411 1410
f 1412 1413 1415 1414
f 1416 1417 1419 1418
f 1436 1437 1439 1438
f 1440 1441 1443 1442
f 1444 1445 1447 1446
f 1448 1449 1451 1450
usemtl Grey
f 1302 1290 1356 1358
f 1301 1311 1323 1313
f 1296 1308 1339 1337
f 1294 1293 1325 1324
f 1302 1303 1362 1363
f 1310 1298 1344 1346
f 1306 1307 1330 1331
f 1291 1303 1367 1365
f 1310 1311 1342 1343
f 1301 1300 1354 1355
f 1308 1296 1332 1334
f 1304 1305 1370 1371
f 1311 1301 1350 1351
f 1312 1313 1323 1322 1321 1320 1319 1318 1317 1316 1315 1314
f 1300 1312 1427 1425
f 1309 1308 1320 1321
f 1306 1305 1317 1318
f 1303 1302 1314 1315
f 1310 1309 1321 1322
f 1307 1306 1318 1319
f 1304 1303 1315 1316
f 1323 1311 1428 1430
f 1300 1301 1313 1312
f 1307 1319 1435 1433
f 1305 1304 1421 1420
f 1327 1326 1374 1375
f 1306 1294 1324 1326
f 1305 1306 1326 1327
f 1293 1305 1327 1325
f 1347 1346 1394 1395
f 1294 1306 1331 1329
f 1295 1294 1329 1328
f 1307 1295 1328 1330
f 1367 1366 1414 1415
f 1295 1307 1335 1333
f 1307 1308 1334 1335
f 1296 1295 1333 1332
f 1338 1336 1384 1386
f 1308 1309 1338 1339
f 1297 1296 1337 1336
f 1309 1297 1336 1338
f 1324 1325 1373 1372
f 1299 1298 1341 1340
f 1298 1310 1343 1341
f 1311 1299 1340 1342
f 1358 1356 1404 1406
f 1297 1309 1347 1345
f 1309 1310 1346 1347
f 1298 1297 1345 1344
f 1344 1345 1393 1392
f 1299 1311 1351 1349
f 1289 1299 1349 1348
f 1301 1289 1348 1350
f 1364 1365 1413 1412
f 1288 1289 1353 1352
f 1300 1288 1352 1354
f 1289 1301 1355 1353
f 1337 1339 1387 1385
f 1300 1302 1358 1359
f 1288 1300 1359 1357
f 1290 1288 1357 1356
f 1357 1359 1407 1405
f 1290 1302 1363 1361
f 1291 1290 1361 1360
f 1303 1291 1360 1362
f 1339 1338 1386 1387
f 1303 1304 1366 1367
f 1292 1291 1365 1364
f 1304 1292 1364 1366
f 1359 1358 1406 1407
f 1293 1292 1369 1368
f 1305 1293 1368 1370
f 1292 1304 1371 1369
f 1365 1367 1415 1413
f 1345 1347 1395 1393
f 1325 1327 1375 1373
f 1352 1353 1401 1400
f 1366 1364 1412 1414
f 1332 1333 1381 1380
f 1346 1344 1392 1394
f 1326 1324 1372 1374
f 1355 1354 1402 1403
f 1335 1334 1382 1383
f 1354 1352 1400 1402
f 1334 1332 1380 1382
f 1360 1361 1409 1408
f 1340 1341 1389 1388
f 1353 1355 1403 1401
f 1333 1335 1383 1381
f 1363 1362 1410 1411
f 1343 1342 1390 1391
f 1361 1363 1411 1409
f 1341 1343 1391 1389
f 1368 1369 1417 1416
f 1348 1349 1397 1396
f 1362 1360 1408 1410
f 1328 1329 1377 1376
f 1342 1340 1388 1390
f 1371 1370 1418 1419
f 1351 1350 1398 1399
f 1331 1330 1378 1379
f 1370 1368 1416 1418
f 1349 1351 1399 1397
f 1329 1331 1379 1377
f 1356 1357 1405 1404
f 1369 1371 1419 1417
f 1336 1337 1385 1384
f 1350 1348 1396 1398
f 1330 1328 1376 1378
f 1420 1421 1437 1436
f 1317 1305 1420 1422
f 1304 1316 1423 1421
f 1316 1317 1422 1423
f 1433 1435 1451 1449
f 1312 1314 1426 1427
f 1302 1300 1425 1424
f 1314 1302 1424 1426
f 1429 1431 1447 1445
f 1322 1323 1430 1431
f 1310 1322 1431 1429
f 1311 1310 1429 1428
f 1434 1432 1448 1450
f 1319 1320 1434 1435
f 1308 1307 1433 1432
f 1320 1308 1432 1434
f 1424 1425 1441 1440
f 1423 1422 1438 1439
f 1428 1429 1445 1444
f 1427 1426 1442 1443
f 1432 1433 1449 1448
f 1422 1420 1436 1438
f 1431 1430 1446 1447
f 1425 1427 1443 1441
f 1435 1434 1450 1451
f 1421 1423 1439 1437
f 1430 1428 1444 1446
f 1426 1424 1440 1442
o SUV_FrontRightWheel_Cylinder.005
v -0.643 0.309 0.99
v -0.845 0.309 0.99
v -0.643 0.146 1.034
v -0.845 0.146 1.034
v -0.643 0.026 1.153
v -0.845 0.026 1.153
v -0.643 -0.018 1.317
v -0.845 -0.018 1.317
v -0.643 0.026 1.481
v -0.845 0.026 1.481
v -0.643 0.146 1.6
v -0.845 0.146 1.6
v -0.643 0.309 1.644
v -0.845 0.309 1.644
v -0.643 0.473 1.6
v -0.845 0.473 1.6
v -0.643 0.593 1.481
v -0.845 0.593 1.481
v -0.643 0.636 1.317
v -0.845 0.636 1.317
v -0.643 0.593 1.153
v -0.845 0.593 1.153
v -0.643 0.473 1.034
v -0.845 0.473 1.034
v -0.882 0.185 1.102
v -0.882 0.309 1.069
v -0.882 0.095 1.193
v -0.882 0.061 1.317
v -0.882 0.095 1.441
v -0.882 0.185 1.532
v -0.882 0.309 1.565
v -0.882 0.433 1.532
v -0.882 0.524 1.441
v -0.882 0.557 1.317
v -0.882 0.524 1.193
v -0.882 0.433 1.102
v -0.882 0.201 1.13
v -0.882 0.309 1.101
v -0.882 0.122 1.209
v -0.882 0.093 1.317
v -0.882 0.122 1.425
v -0.882 0.201 1.504
v -0.882 0.309 1.533
v -0.882 0.417 1.504
v -0.882 0.496 1.425
v -0.882 0.525 1.317
v -0.882 0.496 1.209
v -0.882 0.417 1.13
v -0.852 0.201 1.13
v -0.852 0.309 1.101
v -0.852 0.122 1.209
v -0.852 0.093 1.317
v -0.852 0.122 1.425
v -0.852 0.201 1.504
v -0.852 0.309 1.533
v -0.852 0.417 1.504
v -0.852 0.496 1.425
v -0.852 0.525 1.317
v -0.852 0.496 1.209
v -0.852 0.417 1.13
v -0.855 0.279 1.264
v -0.855 0.309 1.256
v -0.855 0.257 1.287
v -0.855 0.249 1.317
v -0.855 0.257 1.347
v -0.855 0.279 1.369
v -0.855 0.309 1.378
v -0.855 0.339 1.369
v -0.855 0.362 1.347
v -0.855 0.37 1.317
v -0.855 0.362 1.287
v -0.855 0.339 1.264
v -0.866 0.29 1.284
v -0.866 0.309 1.279
v -0.866 0.276 1.298
v -0.866 0.271 1.317
v -0.866 0.276 1.336
v -0.866 0.29 1.35
v -0.866 0.309 1.355
v -0.866 0.328 1.35
v -0.866 0.342 1.336
v -0.866 0.347 1.317
v -0.866 0.342 1.298
v -0.866 0.328 1.284
v -0.852 0.298 1.519
v -0.852 0.212 1.496
v -0.851 0.301 1.391
v -0.851 0.275 1.384
v -0.852 0.406 1.496
v -0.852 0.32 1.519
v -0.851 0.344 1.384
v -0.851 0.317 1.391
v -0.852 0.482 1.426
v -0.852 0.419 1.49
v -0.851 0.372 1.361
v -0.851 0.353 1.38
v -0.852 0.511 1.328
v -0.852 0.488 1.414
v -0.851 0.384 1.325
v -0.851 0.377 1.351
v -0.852 0.419 1.144
v -0.852 0.482 1.207
v -0.851 0.353 1.254
v -0.851 0.372 1.273
v -0.852 0.488 1.22
v -0.852 0.511 1.306
v -0.851 0.377 1.283
v -0.851 0.384 1.309
v -0.852 0.32 1.115
v -0.852 0.406 1.138
v -0.851 0.317 1.243
v -0.851 0.344 1.25
v -0.852 0.212 1.138
v -0.852 0.298 1.115
v -0.851 0.275 1.25
v -0.851 0.301 1.243
v -0.852 0.136 1.207
v -0.852 0.2 1.144
v -0.851 0.246 1.273
v -0.851 0.265 1.254
v -0.852 0.107 1.306
v -0.852 0.13 1.22
v -0.851 0.235 1.309
v -0.851 0.242 1.283
v -0.852 0.13 1.414
v -0.852 0.107 1.328
v -0.851 0.242 1.351
v -0.851 0.235 1.325
v -0.852 0.2 1.49
v -0.852 0.136 1.426
v -0.851 0.265 1.38
v -0.851 0.246 1.361
v -0.801 0.298 1.519
v -0.801 0.212 1.496
v -0.812 0.301 1.391
v -0.812 0.275 1.384
v -0.801 0.406 1.496
v -0.801 0.32 1.519
v -0.812 0.344 1.384
v -0.812 0.317 1.391
v -0.801 0.482 1.426
v -0.801 0.419 1.49
v -0.812 0.372 1.361
v -0.812 0.353 1.38
v -0.801 0.511 1.328
v -0.801 0.488 1.414
v -0.812 0.384 1.325
v -0.812 0.377 1.351
v -0.801 0.419 1.144
v -0.801 0.482 1.207
v -0.812 0.353 1.254
v -0.812 0.372 1.273
v -0.801 0.488 1.22
v -0.801 0.511 1.306
v -0.812 0.377 1.283
v -0.812 0.384 1.309
v -0.801 0.32 1.115
v -0.801 0.406 1.138
v -0.812 0.317 1.243
v -0.812 0.344 1.25
v -0.801 0.212 1.138
v -0.801 0.298 1.115
v -0.812 0.275 1.25
v -0.812 0.301 1.243
v -0.801 0.136 1.207
v -0.801 0.2 1.144
v -0.812 0.246 1.273
v -0.812 0.265 1.254
v -0.801 0.107 1.306
v -0.801 0.13 1.22
v -0.812 0.235 1.309
v -0.812 0.242 1.283
v -0.801 0.13 1.414
v -0.801 0.107 1.328
v -0.812 0.242 1.351
v -0.812 0.235 1.325
v -0.801 0.2 1.49
v -0.801 0.136 1.426
v -0.812 0.265 1.38
v -0.812 0.246 1.361
v -0.858 0.277 1.363
v -0.858 0.263 1.349
v -0.864 0.284 1.351
v -0.864 0.275 1.343
v -0.858 0.263 1.284
v -0.858 0.277 1.271
v -0.864 0.275 1.291
v -0.864 0.284 1.283
v -0.858 0.342 1.271
v -0.858 0.355 1.284
v -0.864 0.335 1.283
v -0.864 0.343 1.291
v -0.858 0.355 1.349
v -0.858 0.342 1.363
v -0.864 0.343 1.343
v -0.864 0.335 1.351
v -0.836 0.277 1.363
v -0.836 0.263 1.349
v -0.842 0.284 1.351
v -0.842 0.275 1.343
v -0.836 0.263 1.284
v -0.836 0.277 1.271
v -0.842 0.275 1.291
v -0.842 0.284 1.283
v -0.836 0.342 1.271
v -0.836 0.355 1.284
v -0.842 0.335 1.283
v -0.842 0.343 1.291
v -0.836 0.355 1.349
v -0.836 0.342 1.363
v -0.842 0.343 1.343
v -0.842 0.335 1.351
usemtl Black
f 1452 1454 1455 1453
f 1454 1456 1457 1455
f 1456 1458 1459 1457
f 1458 1460 1461 1459
f 1460 1462 1463 1461
f 1462 1464 1465 1463
f 1464 1466 1467 1465
f 1466 1468 1469 1467
f 1468 1470 1471 1469
f 1470 1472 1473 1471
f 1465 1482 1481 1463
f 1472 1474 1475 1473
f 1474 1452 1453 1475
f 1452 1474 1472 1470 1468 1466 1464 1462 1460 1458 1456 1454
f 1482 1494 1493 1481
f 1463 1481 1480 1461
f 1461 1480 1479 1459
f 1453 1477 1487 1475
f 1455 1476 1477 1453
f 1459 1479 1478 1457
f 1475 1487 1486 1473
f 1457 1478 1476 1455
f 1473 1486 1485 1471
f 1471 1485 1484 1469
f 1469 1484 1483 1467
f 1467 1483 1482 1465
f 1497 1509 1508 1496
f 1479 1491 1490 1478
f 1486 1498 1497 1485
f 1483 1495 1494 1482
f 1480 1492 1491 1479
f 1487 1499 1498 1486
f 1476 1488 1489 1477
f 1484 1496 1495 1483
f 1481 1493 1492 1480
f 1477 1489 1499 1487
f 1478 1490 1488 1476
f 1485 1497 1496 1484
f 1494 1506 1505 1493
f 1491 1503 1502 1490
f 1498 1510 1509 1497
f 1495 1507 1506 1494
f 1492 1504 1503 1491
f 1499 1511 1510 1498
f 1488 1500 1501 1489
f 1496 1508 1507 1495
f 1493 1505 1504 1492
f 1489 1501 1511 1499
f 1490 1502 1500 1488
f 1584 1586 1587 1585
f 1588 1590 1591 1589
f 1592 1594 1595 1593
f 1596 1598 1599 1597
f 1600 1602 1603 1601
f 1604 1606 1607 1605
f 1608 1610 1611 1609
f 1612 1614 1615 1613
f 1616 1618 1619 1617
f 1620 1622 1623 1621
f 1624 1626 1627 1625
f 1628 1630 1631 1629
f 1648 1650 1651 1649
f 1652 1654 1655 1653
f 1656 1658 1659 1657
f 1660 1662 1663 1661
usemtl Grey
f 1514 1570 1568 1502
f 1513 1525 1535 1523
f 1508 1549 1551 1520
f 1506 1536 1537 1505
f 1514 1575 1574 1515
f 1522 1558 1556 1510
f 1518 1543 1542 1519
f 1503 1577 1579 1515
f 1522 1555 1554 1523
f 1513 1567 1566 1512
f 1520 1546 1544 1508
f 1516 1583 1582 1517
f 1523 1563 1562 1513
f 1524 1526 1527 1528 1529 1530 1531 1532 1533 1534 1535 1525
f 1512 1637 1639 1524
f 1521 1533 1532 1520
f 1518 1530 1529 1517
f 1515 1527 1526 1514
f 1522 1534 1533 1521
f 1519 1531 1530 1518
f 1516 1528 1527 1515
f 1535 1642 1640 1523
f 1512 1524 1525 1513
f 1519 1645 1647 1531
f 1517 1632 1633 1516
f 1539 1587 1586 1538
f 1518 1538 1536 1506
f 1517 1539 1538 1518
f 1505 1537 1539 1517
f 1559 1607 1606 1558
f 1506 1541 1543 1518
f 1507 1540 1541 1506
f 1519 1542 1540 1507
f 1579 1627 1626 1578
f 1507 1545 1547 1519
f 1519 1547 1546 1520
f 1508 1544 1545 1507
f 1550 1598 1596 1548
f 1520 1551 1550 1521
f 1509 1548 1549 1508
f 1521 1550 1548 1509
f 1536 1584 1585 1537
f 1511 1552 1553 1510
f 1510 1553 1555 1522
f 1523 1554 1552 1511
f 1570 1618 1616 1568
f 1509 1557 1559 1521
f 1521 1559 1558 1522
f 1510 1556 1557 1509
f 1556 1604 1605 1557
f 1511 1561 1563 1523
f 1501 1560 1561 1511
f 1513 1562 1560 1501
f 1576 1624 1625 1577
f 1500 1564 1565 1501
f 1512 1566 1564 1500
f 1501 1565 1567 1513
f 1549 1597 1599 1551
f 1512 1571 1570 1514
f 1500 1569 1571 1512
f 1502 1568 1569 1500
f 1569 1617 1619 1571
f 1502 1573 1575 1514
f 1503 1572 1573 1502
f 1515 1574 1572 1503
f 1551 1599 1598 1550
f 1515 1579 1578 1516
f 1504 1576 1577 1503
f 1516 1578 1576 1504
f 1571 1619 1618 1570
f 1505 1580 1581 1504
f 1517 1582 1580 1505
f 1504 1581 1583 1516
f 1577 1625 1627 1579
f 1557 1605 1607 1559
f 1537 1585 1587 1539
f 1564 1612 1613 1565
f 1578 1626 1624 1576
f 1544 1592 1593 1545
f 1558 1606 1604 1556
f 1538 1586 1584 1536
f 1567 1615 1614 1566
f 1547 1595 1594 1546
f 1566 1614 1612 1564
f 1546 1594 1592 1544
f 1572 1620 1621 1573
f 1552 1600 1601 1553
f 1565 1613 1615 1567
f 1545 1593 1595 1547
f 1575 1623 1622 1574
f 1555 1603 1602 1554
f 1573 1621 1623 1575
f 1553 1601 1603 1555
f 1580 1628 1629 1581
f 1560 1608 1609 1561
f 1574 1622 1620 1572
f 1540 1588 1589 1541
f 1554 1602 1600 1552
f 1583 1631 1630 1582
f 1563 1611 1610 1562
f 1543 1591 1590 1542
f 1582 1630 1628 1580
f 1561 1609 1611 1563
f 1541 1589 1591 1543
f 1568 1616 1617 1569
f 1581 1629 1631 1583
f 1548 1596 1597 1549
f 1562 1610 1608 1560
f 1542 1590 1588 1540
f 1632 1648 1649 1633
f 1529 1634 1632 1517
f 1516 1633 1635 1528
f 1528 1635 1634 1529
f 1645 1661 1663 1647
f 1524 1639 1638 1526
f 1514 1636 1637 1512
f 1526 1638 1636 1514
f 1641 1657 1659 1643
f 1534 1643 1642 1535
f 1522 1641 1643 1534
f 1523 1640 1641 1522
f 1646 1662 1660 1644
f 1531 1647 1646 1532
f 1520 1644 1645 1519
f 1532 1646 1644 1520
f 1636 1652 1653 1637
f 1635 1651 1650 1634
f 1640 1656 1657 1641
f 1639 1655 1654 1638
f 1644 1660 1661 1645
f 1634 1650 1648 1632
f 1643 1659 1658 1642
f 1637 1653 1655 1639
f 1647 1663 1662 1646
f 1633 1649 1651 1635
f 1642 1658 1656 1640
f 1638 1654 1652 1636
