{"accessors": [{"bufferView": 2, "componentType": 5126, "count": 14607, "max": [0.5459916591644287, 2.050438404083252, -0.3520892560482025], "min": [-0.6991000771522522, 1.4551728963851929, -0.6778907179832458], "type": "VEC3"}, {"bufferView": 2, "byteOffset": 175284, "componentType": 5126, "count": 14607, "max": [0.9894236922264099, 0.9982131123542786, 0.9997909069061279], "min": [-0.9998456239700317, -0.9999078512191772, -0.8513318300247192], "type": "VEC3"}, {"bufferView": 1, "componentType": 5126, "count": 14607, "max": [0.9982619881629944, 0.9989897012710571], "min": [0.0016885041259229183, 0.001025923527777195], "type": "VEC2"}, {"bufferView": 0, "componentType": 5125, "count": 14607, "type": "SCALAR"}, {"bufferView": 2, "byteOffset": 350568, "componentType": 5126, "count": 8187, "max": [0.5472519993782043, 2.051622152328491, -0.3675312101840973], "min": [-0.7043681740760803, 1.4551728963851929, -0.6765176653862], "type": "VEC3"}, {"bufferView": 2, "byteOffset": 448812, "componentType": 5126, "count": 8187, "max": [0.9999248385429382, 0.9989457130432129, 0.9998087286949158], "min": [-0.9999127388000488, -0.9995333552360535, -0.807287871837616], "type": "VEC3"}, {"bufferView": 1, "byteOffset": 116856, "componentType": 5126, "count": 8187, "max": [1.9963690042495728, 0.999002993106842], "min": [1.002772331237793, 0.0007900000200606883], "type": "VEC2"}, {"bufferView": 0, "byteOffset": 58428, "componentType": 5125, "count": 8187, "type": "SCALAR"}, {"bufferView": 2, "byteOffset": 547056, "componentType": 5126, "count": 13119, "max": [0.5463775992393494, 2.027730941772461, -0.3538224995136261], "min": [-0.7082106471061707, 1.457016944885254, -0.679682731628418], "type": "VEC3"}, {"bufferView": 2, "byteOffset": 704484, "componentType": 5126, "count": 13119, "max": [0.9992151856422424, 0.9999865889549255, 0.999902606010437], "min": [-0.9991065859794617, -0.9993864893913269, -0.8996492028236389], "type": "VEC3"}, {"bufferView": 1, "byteOffset": 182352, "componentType": 5126, "count": 13119, "max": [2.9973719120025635, 0.998837947845459], "min": [2.0010788440704346, 0.0008299999753944576], "type": "VEC2"}, {"bufferView": 0, "byteOffset": 91176, "componentType": 5125, "count": 13119, "type": "SCALAR"}, {"bufferView": 2, "byteOffset": 861912, "componentType": 5126, "count": 10296, "max": [0.5458956956863403, 2.0506277084350586, -0.35459738969802856], "min": [-0.7074969410896301, 1.4569495916366577, -0.6778907179832458], "type": "VEC3"}, {"bufferView": 2, "byteOffset": 985464, "componentType": 5126, "count": 10296, "max": [0.9972566366195679, 0.9997323751449585, 0.9997674822807312], "min": [-0.9975907206535339, -0.9983932971954346, -0.933333158493042], "type": "VEC3"}, {"bufferView": 1, "byteOffset": 287304, "componentType": 5126, "count": 10296, "max": [3.9987969398498535, 0.9992356300354004], "min": [3.0006520748138428, 0.0007523992098867893], "type": "VEC2"}, {"bufferView": 0, "byteOffset": 143652, "componentType": 5125, "count": 10296, "type": "SCALAR"}, {"bufferView": 2, "byteOffset": 1109016, "componentType": 5126, "count": 65532, "max": [0.6766824722290039, 1.7440061569213867, 0.22380588948726654], "min": [-0.8551682233810425, 1.2034040689468384, -0.35781916975975037], "type": "VEC3"}, {"bufferView": 2, "byteOffset": 1895400, "componentType": 5126, "count": 65532, "max": [0.9987918734550476, 0.9996475577354431, 0.9999925494194031], "min": [-0.9992629289627075, -0.9999831914901733, -0.9996021389961243], "type": "VEC3"}, {"bufferView": 1, "byteOffset": 369672, "componentType": 5126, "count": 65532, "max": [0.999203622341156, 0.9597010016441345], "min": [0.0006680000224150717, 0.0009929999941959977], "type": "VEC2"}, {"bufferView": 0, "byteOffset": 184836, "componentType": 5125, "count": 65532, "type": "SCALAR"}, {"bufferView": 2, "byteOffset": 2681784, "componentType": 5126, "count": 65532, "max": [0.6383847594261169, 1.7232612371444702, 0.22508206963539124], "min": [-0.4553016722202301, 1.2056667804718018, -0.35813385248184204], "type": "VEC3"}, {"bufferView": 2, "byteOffset": 3468168, "componentType": 5126, "count": 65532, "max": [0.999849796295166, 0.9999960660934448, 0.9999997615814209], "min": [-0.9861695170402527, -0.999940037727356, -0.9997818470001221], "type": "VEC3"}, {"bufferView": 1, "byteOffset": 893928, "componentType": 5126, "count": 65532, "max": [0.968334972858429, 0.8889020085334778], "min": [0.20579899847507477, 0.04150199890136719], "type": "VEC2"}, {"bufferView": 0, "byteOffset": 446964, "componentType": 5125, "count": 65532, "type": "SCALAR"}, {"bufferView": 2, "byteOffset": 4254552, "componentType": 5126, "count": 65532, "max": [0.5909656882286072, 1.7450072765350342, 0.077833391726017], "min": [-0.3427165746688843, 1.5270007848739624, -0.3540085256099701], "type": "VEC3"}, {"bufferView": 2, "byteOffset": 5040936, "componentType": 5126, "count": 65532, "max": [0.980010986328125, 0.9999995827674866, 0.9698132872581482], "min": [-0.9949901700019836, -0.9419102668762207, -0.991468071937561], "type": "VEC3"}, {"bufferView": 1, "byteOffset": 1418184, "componentType": 5126, "count": 65532, "max": [0.42613500356674194, 0.9437710046768188], "min": [0.0006489999941550195, 0.47755300998687744], "type": "VEC2"}, {"bufferView": 0, "byteOffset": 709092, "componentType": 5125, "count": 65532, "type": "SCALAR"}, {"bufferView": 2, "byteOffset": 5827320, "componentType": 5126, "count": 65532, "max": [0.58663409948349, 1.7341245412826538, 0.22522124648094177], "min": [-0.8511290550231934, 1.2082730531692505, -0.3371879458427429], "type": "VEC3"}, {"bufferView": 2, "byteOffset": 6613704, "componentType": 5126, "count": 65532, "max": [0.9774578809738159, 0.9999884963035583, 0.9999670386314392], "min": [-0.9743936061859131, -0.99997878074646, -0.9999001622200012], "type": "VEC3"}, {"bufferView": 1, "byteOffset": 1942440, "componentType": 5126, "count": 65532, "max": [0.9911550283432007, 0.9446437954902649], "min": [0.0006440000142902136, 0.1895260065793991], "type": "VEC2"}, {"bufferView": 0, "byteOffset": 971220, "componentType": 5125, "count": 65532, "type": "SCALAR"}, {"bufferView": 2, "byteOffset": 7400088, "componentType": 5126, "count": 40188, "max": [0.6035474538803101, 1.7190920114517212, 0.21887966990470886], "min": [-0.7278007864952087, 1.2233071327209473, -0.3588501513004303], "type": "VEC3"}, {"bufferView": 2, "byteOffset": 7882344, "componentType": 5126, "count": 40188, "max": [0.9998553991317749, 0.9999479651451111, 0.9999851584434509], "min": [-0.9726189970970154, -0.9996581673622131, -0.9999578595161438], "type": "VEC3"}, {"bufferView": 1, "byteOffset": 2466696, "componentType": 5126, "count": 40188, "max": [0.8603039979934692, 0.9993259906768799], "min": [0.13799099624156952, 0.28731200098991394], "type": "VEC2"}, {"bufferView": 0, "byteOffset": 1233348, "componentType": 5125, "count": 40188, "type": "SCALAR"}, {"bufferView": 2, "byteOffset": 8364600, "componentType": 5126, "count": 65532, "max": [0.655053436756134, 1.7421543598175049, 0.22428779304027557], "min": [-0.8517164587974548, 1.212637186050415, -0.35813385248184204], "type": "VEC3"}, {"bufferView": 2, "byteOffset": 9150984, "componentType": 5126, "count": 65532, "max": [0.9998793601989746, 0.9999058246612549, 0.9999963045120239], "min": [-0.9992341995239258, -0.9999752640724182, -0.9999786615371704], "type": "VEC3"}, {"bufferView": 1, "byteOffset": 2788200, "componentType": 5126, "count": 65532, "max": [1.9993009567260742, 0.9908850193023682], "min": [1.0635318756103516, 0.000770999991800636], "type": "VEC2"}, {"bufferView": 0, "byteOffset": 1394100, "componentType": 5125, "count": 65532, "type": "SCALAR"}, {"bufferView": 2, "byteOffset": 9937368, "componentType": 5126, "count": 65532, "max": [0.6326349377632141, 1.7257763147354126, 0.21480371057987213], "min": [-0.7862616181373596, 1.2816877365112305, -0.3569183349609375], "type": "VEC3"}, {"bufferView": 2, "byteOffset": 10723752, "componentType": 5126, "count": 65532, "max": [0.9999225735664368, 0.9999864101409912, 0.999984085559845], "min": [-0.988143265247345, -0.999948263168335, -0.9999925494194031], "type": "VEC3"}, {"bufferView": 1, "byteOffset": 3312456, "componentType": 5126, "count": 65532, "max": [1.7919275760650635, 0.9993789792060852], "min": [1.0006259679794312, 0.014564000070095062], "type": "VEC2"}, {"bufferView": 0, "byteOffset": 1656228, "componentType": 5125, "count": 65532, "type": "SCALAR"}, {"bufferView": 2, "byteOffset": 11510136, "componentType": 5126, "count": 65532, "max": [0.6781293749809265, 1.7440506219863892, 0.21092696487903595], "min": [-0.5855773091316223, 1.3122131824493408, -0.35012146830558777], "type": "VEC3"}, {"bufferView": 2, "byteOffset": 12296520, "componentType": 5126, "count": 65532, "max": [0.9997758865356445, 0.9999984502792358, 0.9999910593032837], "min": [-0.9745532870292664, -0.9999819993972778, -0.9999843835830688], "type": "VEC3"}, {"bufferView": 1, "byteOffset": 3836712, "componentType": 5126, "count": 65532, "max": [1.8889142274856567, 0.9489840269088745], "min": [1.1451220512390137, 0.008196000009775162], "type": "VEC2"}, {"bufferView": 0, "byteOffset": 1918356, "componentType": 5125, "count": 65532, "type": "SCALAR"}, {"bufferView": 2, "byteOffset": 13082904, "componentType": 5126, "count": 39738, "max": [0.6232194304466248, 1.7156081199645996, 0.19828836619853973], "min": [-0.7907422184944153, 1.3067315816879272, -0.33324235677719116], "type": "VEC3"}, {"bufferView": 2, "byteOffset": 13559760, "componentType": 5126, "count": 39738, "max": [0.9996100664138794, 0.9995687007904053, 0.9999921321868896], "min": [-0.9473637938499451, -0.9997957348823547, -0.9998382329940796], "type": "VEC3"}, {"bufferView": 1, "byteOffset": 4360968, "componentType": 5126, "count": 39738, "max": [1.922111988067627, 0.918632984161377], "min": [1.4094879627227783, 0.014928000047802925], "type": "VEC2"}, {"bufferView": 0, "byteOffset": 2180484, "componentType": 5125, "count": 39738, "type": "SCALAR"}, {"bufferView": 2, "byteOffset": 14036616, "componentType": 5126, "count": 65532, "max": [0.6754570007324219, 1.7436267137527466, 0.2111126184463501], "min": [-0.8471767902374268, 1.2031958103179932, -0.35485440492630005], "type": "VEC3"}, {"bufferView": 2, "byteOffset": 14823000, "componentType": 5126, "count": 65532, "max": [0.9999589323997498, 0.9999898672103882, 0.9999847412109375], "min": [-0.9996013641357422, -0.9999451041221619, -0.9999748468399048], "type": "VEC3"}, {"bufferView": 1, "byteOffset": 4678872, "componentType": 5126, "count": 65532, "max": [2.998703956604004, 0.9746230244636536], "min": [2.180232048034668, 0.0007340000011026859], "type": "VEC2"}, {"bufferView": 0, "byteOffset": 2339436, "componentType": 5125, "count": 65532, "type": "SCALAR"}, {"bufferView": 2, "byteOffset": 15609384, "componentType": 5126, "count": 65532, "max": [0.6694348454475403, 1.7317111492156982, 0.2220531702041626], "min": [-0.7846024632453918, 1.2035908699035645, -0.33807313442230225], "type": "VEC3"}, {"bufferView": 2, "byteOffset": 16395768, "componentType": 5126, "count": 65532, "max": [0.9998654127120972, 0.9999865293502808, 0.9999999403953552], "min": [-0.9473398327827454, -0.9999462366104126, -0.9999617338180542], "type": "VEC3"}, {"bufferView": 1, "byteOffset": 5203128, "componentType": 5126, "count": 65532, "max": [2.438127279281616, 0.999364972114563], "min": [2.0006110668182373, 0.0013680000556632876], "type": "VEC2"}, {"bufferView": 0, "byteOffset": 2601564, "componentType": 5125, "count": 65532, "type": "SCALAR"}, {"bufferView": 2, "byteOffset": 17182152, "componentType": 5126, "count": 65532, "max": [0.675655722618103, 1.7439669370651245, 0.22205448150634766], "min": [-0.8463690280914307, 1.204607367515564, -0.3563494086265564], "type": "VEC3"}, {"bufferView": 2, "byteOffset": 17968536, "componentType": 5126, "count": 65532, "max": [0.9999554753303528, 0.9998971223831177, 0.9999968409538269], "min": [-0.9813326597213745, -0.9998068809509277, -0.9999791979789734], "type": "VEC3"}, {"bufferView": 1, "byteOffset": 5727384, "componentType": 5126, "count": 65532, "max": [2.8643031120300293, 0.9557070136070251], "min": [2.1074230670928955, 0.0007939999923110008], "type": "VEC2"}, {"bufferView": 0, "byteOffset": 2863692, "componentType": 5125, "count": 65532, "type": "SCALAR"}, {"bufferView": 2, "byteOffset": 18754920, "componentType": 5126, "count": 30801, "max": [0.6619230508804321, 1.7421156167984009, 0.20763161778450012], "min": [-0.8539953231811523, 1.267780065536499, -0.3454439640045166], "type": "VEC3"}, {"bufferView": 2, "byteOffset": 19124532, "componentType": 5126, "count": 30801, "max": [0.999854326248169, 0.9998552203178406, 0.9999833106994629], "min": [-0.9971705079078674, -0.9998529553413391, -0.9997988939285278], "type": "VEC3"}, {"bufferView": 1, "byteOffset": 6251640, "componentType": 5126, "count": 30801, "max": [2.9964420795440674, 0.9746800065040588], "min": [2.4372498989105225, 0.0013821597676724195], "type": "VEC2"}, {"bufferView": 0, "byteOffset": 3125820, "componentType": 5125, "count": 30801, "type": "SCALAR"}, {"bufferView": 2, "byteOffset": 19494144, "componentType": 5126, "count": 65532, "max": [0.6779344081878662, 1.7450072765350342, 0.2195642590522766], "min": [-0.8517926931381226, 1.2031958103179932, -0.35807132720947266], "type": "VEC3"}, {"bufferView": 2, "byteOffset": 20280528, "componentType": 5126, "count": 65532, "max": [0.9997537732124329, 0.9999581575393677, 0.9999634623527527], "min": [-0.9993501901626587, -0.999955952167511, -0.9999441504478455], "type": "VEC3"}, {"bufferView": 1, "byteOffset": 6498048, "componentType": 5126, "count": 65532, "max": [3.997093915939331, 0.9993870258331299], "min": [3.0006260871887207, 0.0006569999968633056], "type": "VEC2"}, {"bufferView": 0, "byteOffset": 3249024, "componentType": 5125, "count": 65532, "type": "SCALAR"}, {"bufferView": 2, "byteOffset": 21066912, "componentType": 5126, "count": 51723, "max": [0.6605839133262634, 1.741814136505127, 0.2231878787279129], "min": [-0.8551682233810425, 1.2033849954605103, -0.35864192247390747], "type": "VEC3"}, {"bufferView": 2, "byteOffset": 21687588, "componentType": 5126, "count": 51723, "max": [0.9998868107795715, 0.9999562501907349, 0.999998927116394], "min": [-0.9985857009887695, -0.9999839663505554, -0.9998908638954163], "type": "VEC3"}, {"bufferView": 1, "byteOffset": 7022304, "componentType": 5126, "count": 51723, "max": [3.999315023422241, 0.9681990146636963], "min": [3.0893640518188477, 0.0007130000158213079], "type": "VEC2"}, {"bufferView": 0, "byteOffset": 3511152, "componentType": 5125, "count": 51723, "type": "SCALAR"}, {"bufferView": 2, "byteOffset": 22308264, "componentType": 5126, "count": 288, "max": [0.00359999923966825, 0.1654868721961975, 0.0035999964457005262], "min": [-0.00359999923966825, -0.1457478404045105, -0.0036000022664666176], "type": "VEC3"}, {"bufferView": 2, "byteOffset": 22311720, "componentType": 5126, "count": 288, "max": [0.997859001159668, 1.0, 0.9978589415550232], "min": [-0.9978589415550232, -1.0, -0.997859001159668], "type": "VEC3"}, {"bufferView": 1, "byteOffset": 7436088, "componentType": 5126, "count": 288, "max": [1.0, 1.0], "min": [3.762543201446533e-07, 0.009999990463256836], "type": "VEC2"}, {"bufferView": 0, "byteOffset": 3718044, "componentType": 5125, "count": 564, "type": "SCALAR"}, {"bufferView": 2, "byteOffset": 22315176, "componentType": 5126, "count": 288, "max": [0.00359999923966825, 0.0348055325448513, 0.0035999964457005262], "min": [-0.00359999923966825, -0.1457478404045105, -0.0036000022664666176], "type": "VEC3"}, {"bufferView": 2, "byteOffset": 22318632, "componentType": 5126, "count": 288, "max": [0.997859001159668, 1.0, 0.997859001159668], "min": [-0.997859001159668, -1.0, -0.997859001159668], "type": "VEC3"}, {"bufferView": 1, "byteOffset": 7438392, "componentType": 5126, "count": 288, "max": [1.0, 1.0], "min": [3.762543201446533e-07, 0.009999990463256836], "type": "VEC2"}, {"bufferView": 0, "byteOffset": 3720300, "componentType": 5125, "count": 564, "type": "SCALAR"}, {"bufferView": 2, "byteOffset": 22322088, "componentType": 5126, "count": 20, "max": [0.25077900290489197, 0.0470595583319664, 0.12633267045021057], "min": [0.14011940360069275, 0.035059548914432526, 0.058940574526786804], "type": "VEC3"}, {"bufferView": 2, "byteOffset": 22322328, "componentType": 5126, "count": 20, "max": [1.0, 1.0, 1.0], "min": [-1.0, 0.0, -1.0], "type": "VEC3"}, {"bufferView": 1, "byteOffset": 7440696, "componentType": 5126, "count": 20, "max": [0.9992021322250366, 0.8901170492172241], "min": [0.0008026696741580963, 0.10938703268766403], "type": "VEC2"}, {"bufferView": 0, "byteOffset": 3722556, "componentType": 5125, "count": 30, "type": "SCALAR"}], "asset": {"extras": {"author": "tubaf.vr (https://sketchfab.com/tubaf.vr)", "license": "CC-BY-4.0 (http://creativecommons.org/licenses/by/4.0/)", "source": "https://sketchfab.com/3d-models/mako-shark-e4abb10165a846b8b7fb760b1f13ad9c", "title": "Mako shark"}, "generator": "Sketchfab-12.68.0", "version": "2.0"}, "bufferViews": [{"buffer": 0, "byteLength": 3722676, "name": "floatBufferViews", "target": 34963}, {"buffer": 0, "byteLength": 7440856, "byteOffset": 3722676, "byteStride": 8, "name": "floatBufferViews", "target": 34962}, {"buffer": 0, "byteLength": 22322568, "byteOffset": 11163532, "byteStride": 12, "name": "floatBufferViews", "target": 34962}], "buffers": [{"byteLength": 33486100, "uri": "scene.bin"}], "images": [{"uri": "textures/TextureAtlas_1001_baseColor.png"}, {"uri": "textures/TextureAtlas_1002_baseColor.png"}, {"uri": "textures/TextureAtlas_1003_baseColor.png"}, {"uri": "textures/TextureAtlas_1004_baseColor.png"}, {"uri": "textures/Sign_baseColor.png"}], "materials": [{"doubleSided": true, "name": "TextureAtlas_1001", "pbrMetallicRoughness": {"baseColorTexture": {"index": 0}, "metallicFactor": 0.0}}, {"doubleSided": true, "name": "TextureAtlas_1002", "pbrMetallicRoughness": {"baseColorTexture": {"index": 1}, "metallicFactor": 0.0}}, {"doubleSided": true, "name": "TextureAtlas_1003", "pbrMetallicRoughness": {"baseColorTexture": {"index": 2}, "metallicFactor": 0.0}}, {"doubleSided": true, "name": "TextureAtlas_1004", "pbrMetallicRoughness": {"baseColorTexture": {"index": 3}, "metallicFactor": 0.0}}, {"doubleSided": true, "name": "Metal", "pbrMetallicRoughness": {"baseColorFactor": [0.496925, 0.496925, 0.496925, 1.0], "metallicFactor": 0.7, "roughnessFactor": 0.3}}, {"doubleSided": true, "name": "Sign", "pbrMetallicRoughness": {"baseColorTexture": {"index": 4}, "metallicFactor": 0.2, "roughnessFactor": 0.9}}], "meshes": [{"name": "Object_0", "primitives": [{"attributes": {"NORMAL": 1, "POSITION": 0, "TEXCOORD_0": 2}, "indices": 3, "material": 0, "mode": 4}]}, {"name": "Object_1", "primitives": [{"attributes": {"NORMAL": 5, "POSITION": 4, "TEXCOORD_0": 6}, "indices": 7, "material": 1, "mode": 4}]}, {"name": "Object_2", "primitives": [{"attributes": {"NORMAL": 9, "POSITION": 8, "TEXCOORD_0": 10}, "indices": 11, "material": 2, "mode": 4}]}, {"name": "Object_3", "primitives": [{"attributes": {"NORMAL": 13, "POSITION": 12, "TEXCOORD_0": 14}, "indices": 15, "material": 3, "mode": 4}]}, {"name": "Object_4", "primitives": [{"attributes": {"NORMAL": 17, "POSITION": 16, "TEXCOORD_0": 18}, "indices": 19, "material": 0, "mode": 4}]}, {"name": "Object_5", "primitives": [{"attributes": {"NORMAL": 21, "POSITION": 20, "TEXCOORD_0": 22}, "indices": 23, "material": 0, "mode": 4}]}, {"name": "Object_6", "primitives": [{"attributes": {"NORMAL": 25, "POSITION": 24, "TEXCOORD_0": 26}, "indices": 27, "material": 0, "mode": 4}]}, {"name": "Object_7", "primitives": [{"attributes": {"NORMAL": 29, "POSITION": 28, "TEXCOORD_0": 30}, "indices": 31, "material": 0, "mode": 4}]}, {"name": "Object_8", "primitives": [{"attributes": {"NORMAL": 33, "POSITION": 32, "TEXCOORD_0": 34}, "indices": 35, "material": 0, "mode": 4}]}, {"name": "Object_9", "primitives": [{"attributes": {"NORMAL": 37, "POSITION": 36, "TEXCOORD_0": 38}, "indices": 39, "material": 1, "mode": 4}]}, {"name": "Object_10", "primitives": [{"attributes": {"NORMAL": 41, "POSITION": 40, "TEXCOORD_0": 42}, "indices": 43, "material": 1, "mode": 4}]}, {"name": "Object_11", "primitives": [{"attributes": {"NORMAL": 45, "POSITION": 44, "TEXCOORD_0": 46}, "indices": 47, "material": 1, "mode": 4}]}, {"name": "Object_12", "primitives": [{"attributes": {"NORMAL": 49, "POSITION": 48, "TEXCOORD_0": 50}, "indices": 51, "material": 1, "mode": 4}]}, {"name": "Object_13", "primitives": [{"attributes": {"NORMAL": 53, "POSITION": 52, "TEXCOORD_0": 54}, "indices": 55, "material": 2, "mode": 4}]}, {"name": "Object_14", "primitives": [{"attributes": {"NORMAL": 57, "POSITION": 56, "TEXCOORD_0": 58}, "indices": 59, "material": 2, "mode": 4}]}, {"name": "Object_15", "primitives": [{"attributes": {"NORMAL": 61, "POSITION": 60, "TEXCOORD_0": 62}, "indices": 63, "material": 2, "mode": 4}]}, {"name": "Object_16", "primitives": [{"attributes": {"NORMAL": 65, "POSITION": 64, "TEXCOORD_0": 66}, "indices": 67, "material": 2, "mode": 4}]}, {"name": "Object_17", "primitives": [{"attributes": {"NORMAL": 69, "POSITION": 68, "TEXCOORD_0": 70}, "indices": 71, "material": 3, "mode": 4}]}, {"name": "Object_18", "primitives": [{"attributes": {"NORMAL": 73, "POSITION": 72, "TEXCOORD_0": 74}, "indices": 75, "material": 3, "mode": 4}]}, {"name": "Object_19", "primitives": [{"attributes": {"NORMAL": 77, "POSITION": 76, "TEXCOORD_0": 78}, "indices": 79, "material": 4, "mode": 4}]}, {"name": "Object_20", "primitives": [{"attributes": {"NORMAL": 81, "POSITION": 80, "TEXCOORD_0": 82}, "indices": 83, "material": 4, "mode": 4}]}, {"name": "Object_21", "primitives": [{"attributes": {"NORMAL": 85, "POSITION": 84, "TEXCOORD_0": 86}, "indices": 87, "material": 5, "mode": 4}]}], "nodes": [{"children": [1], "matrix": [1.0, 0.0, 0.0, 0.0, 0.0, 2.220446049250313e-16, -1.0, 0.0, 0.0, 1.0, 2.220446049250313e-16, 0.0, 0.0, 0.0, 0.0, 1.0], "name": "Sketchfab_model"}, {"children": [2], "name": "root"}, {"children": [3, 8, 24, 26, 28], "matrix": [1.0, 0.0, 0.0, 0.0, 0.0, 2.220446049250313e-16, 1.0, 0.0, 0.0, -1.0, 2.220446049250313e-16, 0.0, 0.0, 0.0, 0.0, 1.0], "name": "GLTF_SceneRootNode"}, {"children": [4, 5, 6, 7], "matrix": [0.4930828890217503, 0.012607054023163068, -0.08191694786471035, 0.0, -0.07004083971234527, -0.20083180085500618, -0.4525051033278241, 0.0, -0.04431256360478336, 0.457720056357689, -0.19628740844660952, 0.0, 0.10107295215129852, 0.6029572486877441, 0.7064160704612732, 1.0], "name": "Fuss_2"}, {"mesh": 0, "name": "Object_4"}, {"mesh": 1, "name": "Object_5"}, {"mesh": 2, "name": "Object_6"}, {"mesh": 3, "name": "Object_7"}, {"children": [9, 10, 11, 12, 13, 14, 15, 16, 17, 18, 19, 20, 21, 22, 23], "matrix": [0.4930828890217503, 0.012607054023163068, -0.08191694786471035, 0.0, -0.07004083971234527, -0.20083180085500618, -0.4525051033278241, 0.0, -0.04431256360478336, 0.457720056357689, -0.19628740844660952, 0.0, 0.10107295215129852, 0.6029572486877441, 0.7064160704612732, 1.0], "name": "Kopf_3"}, {"mesh": 4, "name": "Object_9"}, {"mesh": 5, "name": "Object_10"}, {"mesh": 6, "name": "Object_11"}, {"mesh": 7, "name": "Object_12"}, {"mesh": 8, "name": "Object_13"}, {"mesh": 9, "name": "Object_14"}, {"mesh": 10, "name": "Object_15"}, {"mesh": 11, "name": "Object_16"}, {"mesh": 12, "name": "Object_17"}, {"mesh": 13, "name": "Object_18"}, {"mesh": 14, "name": "Object_19"}, {"mesh": 15, "name": "Object_20"}, {"mesh": 16, "name": "Object_21"}, {"mesh": 17, "name": "Object_22"}, {"mesh": 18, "name": "Object_23"}, {"children": [25], "matrix": [0.6000000238418579, 0.0, 0.0, 0.0, 0.0, 0.6000000238418579, 0.0, 0.0, 0.0, 0.0, 0.6000000238418579, 0.0, -0.24989217519760132, 0.12905709445476532, 0.040920063853263855, 1.0], "name": "Stab1_4"}, {"mesh": 19, "name": "Object_25"}, {"children": [27], "matrix": [0.6000000238418579, 0.0, 0.0, 0.0, 0.0, 0.6000000238418579, 0.0, 0.0, 0.0, 0.0, 0.6000000238418579, 0.0, 0.13224723935127258, 0.12905709445476532, 0.02815236896276474, 1.0], "name": "Stab2_5"}, {"mesh": 20, "name": "Object_27"}, {"children": [29], "matrix": [1.057650073154985, 0.0, 0.0001845947580027976, 0.0, -0.0, 1.0, 0.0, 0.0, -0.00018594764379321535, -0.0, 1.0654015378806734, 0.0, -0.012294674292206764, 0.0, -0.007556994445621967, 1.0], "name": "Schild_6"}, {"mesh": 21, "name": "Object_29"}], "samplers": [{"magFilter": 9729, "minFilter": 9987, "wrapS": 10497, "wrapT": 10497}], "scene": 0, "scenes": [{"name": "Sketchfab_Scene", "nodes": [8]}], "textures": [{"sampler": 0, "source": 0}, {"sampler": 0, "source": 1}, {"sampler": 0, "source": 2}, {"sampler": 0, "source": 3}, {"sampler": 0, "source": 4}]}