%TF.GenerationSoftware,KiCad,Pcbnew,10.0.3*%
%TF.CreationDate,2026-06-09T12:13:04-05:00*%
%TF.ProjectId,co2 timer v3,636f3220-7469-46d6-9572-2076332e6b69,3.0*%
%TF.SameCoordinates,Original*%
%TF.FileFunction,Paste,Top*%
%TF.FilePolarity,Positive*%
%FSLAX46Y46*%
G04 Gerber Fmt 4.6, Leading zero omitted, Abs format (unit mm)*
G04 Created by KiCad (PCBNEW 10.0.3) date 2026-06-09 12:13:04*
%MOMM*%
%LPD*%
G01*
G04 APERTURE LIST*
%ADD10R,1.400000X1.650000*%
%ADD11R,0.900000X1.300000*%
%ADD12R,1.550000X0.600000*%
%ADD13R,2.000000X3.400000*%
%ADD14R,1.500000X0.450000*%
G04 APERTURE END LIST*
D10*
%TO.C,R7*%
X48875000Y-14000000D03*
X51125000Y-14000000D03*
%TD*%
D11*
%TO.C,U3*%
X37050000Y-6700000D03*
X38950000Y-6700000D03*
X38000000Y-9300000D03*
%TD*%
D10*
%TO.C,C4*%
X59875000Y-14000000D03*
X62125000Y-14000000D03*
%TD*%
%TO.C,R5*%
X36875000Y-14000000D03*
X39125000Y-14000000D03*
%TD*%
%TO.C,R2*%
X18875000Y-36000000D03*
X21125000Y-36000000D03*
%TD*%
D12*
%TO.C,U2*%
X47100000Y-9110000D03*
X47100000Y-10380000D03*
X47100000Y-11650000D03*
X47100000Y-12920000D03*
X47100000Y-14190000D03*
X47100000Y-15460000D03*
X47100000Y-16730000D03*
X47100000Y-18000000D03*
X56900000Y-18000000D03*
X56900000Y-16730000D03*
X56900000Y-15460000D03*
X56900000Y-14190000D03*
X56900000Y-12920000D03*
X56900000Y-11650000D03*
X56900000Y-10380000D03*
X56900000Y-9110000D03*
%TD*%
D10*
%TO.C,R1*%
X30875000Y-14000000D03*
X33125000Y-14000000D03*
%TD*%
%TO.C,C3*%
X59875000Y-5000000D03*
X62125000Y-5000000D03*
%TD*%
%TO.C,C2*%
X30875000Y-8000000D03*
X33125000Y-8000000D03*
%TD*%
%TO.C,R6*%
X42875000Y-14000000D03*
X45125000Y-14000000D03*
%TD*%
D13*
%TO.C,F1*%
X5460000Y-36000000D03*
X10540000Y-36000000D03*
%TD*%
D10*
%TO.C,R3*%
X31875000Y-36000000D03*
X34125000Y-36000000D03*
%TD*%
D14*
%TO.C,U4*%
X49100000Y-32425000D03*
X49100000Y-33075000D03*
X49100000Y-33725000D03*
X49100000Y-34375000D03*
X49100000Y-35025000D03*
X49100000Y-35675000D03*
X49100000Y-36325000D03*
X49100000Y-36975000D03*
X54900000Y-36975000D03*
X54900000Y-36325000D03*
X54900000Y-35675000D03*
X54900000Y-35025000D03*
X54900000Y-34375000D03*
X54900000Y-33725000D03*
X54900000Y-33075000D03*
X54900000Y-32425000D03*
%TD*%
M02*
