mtllib NormalCar1.mtl
o NormalCar1_Cube.012
v 0.71 0.409 -1.808
v 0.71 0.559 -1.814
v 0.833 0.409 -0.148
v 0.833 0.641 -0.151
v 0.373 0.602 -2.013
v 0.546 0.597 -1.945
v 0.546 0.409 -1.994
v 0.373 0.409 -2.062
v 0.762 0.766 -0.17
v 0.765 0.57 1.758
v 0.789 0.409 1.515
v 0.373 0.559 2.045
v 0.373 0.409 2.103
v 0.674 0.568 1.96
v 0.828 0.599 1.199
v 0.827 0.634 0.837
v 0.833 0.64 0.265
v 0.762 0.766 0.298
v 0.741 0.766 0.817
v 0.714 0.736 1.288
v 0.387 0.726 1.285
v 0.449 0.761 0.91
v 0.833 0.409 0.253
v 0.827 0.404 0.83
v 0.833 0.606 1.031
v 0.729 0.752 1.057
v 0.431 0.755 1.154
v 0.833 0.409 0.889
v 0.833 0.409 -0.652
v 0.833 0.583 -0.687
v 0.762 0.766 -0.758
v 0.812 0.386 -0.906
v 0.812 0.519 -1.01
v 0.726 0.766 -1.094
v 0.808 0.188 -0.913
v 0.77 0.536 -1.425
v 0.697 0.82 -1.474
v 0.373 0.82 -1.508
v 0.356 0.63 1.964
v 0.692 0.649 1.872
v 0.769 0.51 -1.409
v 0.723 0.305 -1.826
v 0.603 0.171 -0.199
v 0.833 0.171 -0.199
v 0.373 0.32 -2.062
v 0.373 0.171 -0.199
v 0.546 0.32 -1.994
v 0.572 0.254 -1.456
v 0.373 0.254 -1.49
v 0.779 0.175 1.549
v 0.373 0.171 2.103
v 0.603 0.171 0.298
v 0.376 0.175 1.549
v 0.833 0.171 0.194
v 0.827 0.171 0.737
v 0.833 0.175 0.855
v 0.599 0.175 1.549
v 0.603 0.175 0.855
v 0.603 0.171 0.715
v 0.373 0.171 0.317
v 0.373 0.171 0.752
v 0.373 0.175 0.855
v 0.833 0.171 -0.652
v 0.603 0.171 -0.652
v 0.373 0.171 -0.652
v 0.812 0.177 -0.864
v 0.603 0.177 -0.864
v 0.373 0.177 -0.864
v 0.819 0.573 1.362
v 0.373 0.694 1.538
v 0.707 0.71 1.444
v 0.819 0.544 1.362
v 0.793 0.383 1.464
v 0.824 0.539 1.198
v 0.83 0.502 1.05
v 0.83 0.383 0.938
v 0.785 0.175 1.492
v 0.83 0.175 0.912
v 0.818 0.496 1.336
v 0.606 0.383 1.464
v 0.657 0.544 1.198
v 0.643 0.502 1.05
v 0.643 0.383 0.938
v 0.598 0.175 1.492
v 0.643 0.175 0.912
v 0.631 0.496 1.336
v 0.373 1.183 -0.254
v 0.578 1.146 -0.255
v 0.582 1.108 -0.635
v 0.373 1.14 -0.634
v 0.373 1.155 0.177
v 0.575 1.119 0.158
v 0.661 0.948 0.524
v 0.752 0.786 -0.128
v 0.752 0.786 0.269
v 0.598 1.06 -0.84
v 0.373 1.061 -0.84
v 0.684 0.955 -0.204
v 0.669 0.91 -1.048
v 0.652 0.838 -1.8
v 0.373 0.838 -1.912
v 0.745 0.781 0.268
v 0.457 0.783 0.865
v 0.705 0.783 0.784
v 0.727 0.781 0.722
v 0.635 0.948 0.525
v 0.555 1.097 0.203
v 0.382 1.133 0.22
v 0.734 0.786 0.723
v 0.682 0.952 -0.157
v 0.664 0.946 0.466
v 0.745 0.791 -0.738
v 0.585 1.094 0.146
v 0.591 1.114 -0.202
v 0.752 0.796 -0.739
v 0.752 0.796 -0.202
v 0.682 0.961 -0.233
v 0.721 0.796 -1.049
v 0.671 0.911 -0.976
v 0.626 1.044 -0.789
v 0.621 1.077 -0.61
v 0.597 1.124 -0.281
v 0.799 0.579 -1.226
v 0.808 0.498 -1.041
v 0.808 0.381 -0.947
v 0.586 0.212 -1.081
v 0.373 0.212 -1.103
v 0.653 0.912 -1.154
v 0.748 0.376 -1.563
v 0.748 0.442 -1.523
v 0.748 0.279 -1.592
v 0.56 0.287 -1.608
v 0.373 0.287 -1.618
v 0.796 0.552 -1.233
v 0.751 0.371 -1.521
v 0.751 0.424 -1.491
v 0.751 0.27 -1.551
v 0.601 0.188 -0.917
v 0.582 0.51 -1.408
v 0.601 0.498 -1.042
v 0.605 0.349 -0.948
v 0.591 0.552 -1.233
v 0.572 0.363 -1.522
v 0.576 0.424 -1.491
v 0.565 0.277 -1.55
v 0.598 0.372 -1.053
v 0.599 0.396 -1.044
v 0.581 0.372 -1.414
v 0.582 0.464 -1.396
v 0.456 0.77 0.859
v 0.705 0.77 0.777
v 0.433 0.935 0.6
v 0.634 0.935 0.519
v 0.555 1.084 0.196
v 0.381 1.12 0.213
v 0.745 0.781 -0.129
v 0.675 0.946 -0.158
v 0.657 0.94 0.466
v 0.672 0.948 0.207
v 0.577 1.088 0.145
v 0.585 1.106 -0.202
v 0.745 0.791 -0.201
v 0.675 0.956 -0.233
v 0.713 0.791 -1.048
v 0.671 0.926 -0.671
v 0.664 0.906 -0.975
v 0.619 1.038 -0.789
v 0.614 1.07 -0.61
v 0.59 1.117 -0.281
v 0.377 1.051 -0.864
v 0.613 0.909 -1.162
v 0.523 1.048 -0.863
v 0.634 0.842 -1.307
v 0.372 0.842 -1.338
v 0.672 0.85 -1.292
v 0.741 0.409 1.858
v 0.718 0.569 1.882
v 0.727 0.173 1.874
v 0.781 0.228 1.543
v 0.812 0.225 -0.868
v 0.833 0.224 -0.652
v 0.373 0.345 -2.062
v 0.546 0.345 -1.994
v 0.833 0.224 -0.189
v 0.833 0.224 0.205
v 0.827 0.223 0.754
v 0.833 0.228 0.864
v 0.71 0.333 -1.808
v 0.786 0.223 1.487
v 0.83 0.223 0.919
v 0.599 0.223 1.487
v 0.643 0.223 0.919
v 0.751 0.304 -1.545
v 0.808 0.234 -0.916
v 0.748 0.312 -1.587
v 0.566 0.303 -1.544
v 0.601 0.228 -0.92
v 0.573 0.284 -1.448
v 0.588 0.251 -1.076
v 0.728 0.226 1.871
v 0.373 0.224 2.103
v 0.559 0.345 -2.012
v 0.559 0.32 -2.012
v 0.76 0.28 -1.61
v 0.386 0.32 -2.079
v 0.764 0.271 -1.569
v 0.764 0.304 -1.563
v 0.76 0.312 -1.604
v 0.386 0.345 -2.079
v 0.723 0.333 -1.826
v 0.612 0.407 2.041
v 0.686 0.407 1.975
v 0.682 0.171 1.986
v 0.608 0.171 2.051
v 0.608 0.224 2.051
v 0.682 0.224 1.986
v 0.748 0.7 0.8
v 0.748 0.73 0.8
v 0.738 0.7 0.779
v 0.738 0.73 0.779
v 0.797 0.692 0.77
v 0.797 0.738 0.77
v 0.771 0.692 0.718
v 0.771 0.738 0.718
v 0.871 0.738 0.597
v 0.851 0.692 0.622
v 0.884 0.692 0.667
v 0.904 0.738 0.641
v 0.855 0.783 0.618
v 0.887 0.783 0.662
v 0.848 0.738 0.725
v 0.822 0.738 0.673
v 0.822 0.692 0.673
v 0.848 0.692 0.725
v 0.848 0.79 0.725
v 0.822 0.79 0.673
v 0.769 0.7 0.754
v 0.769 0.73 0.754
v 0.779 0.7 0.775
v 0.779 0.73 0.775
v 0.771 0.78 0.718
v 0.782 0.796 0.708
v 0.808 0.796 0.76
v 0.797 0.78 0.77
v 0.351 0.902 -1.178
v 0.351 1.044 -0.86
v 0.613 0.902 -1.159
v 0.523 1.041 -0.86
v 0.634 0.834 -1.304
v 0.346 0.834 -1.335
v 0.708 0.516 1.912
v 0.647 0.535 1.983
v 0.437 0.5 2.057
v 0.437 0.427 2.077
v 0.711 0.457 1.918
v 0.61 0.421 2.029
v 0.671 0.421 1.974
v 0.7 0.512 1.901
v 0.64 0.532 1.972
v 0.437 0.497 2.049
v 0.437 0.423 2.065
v 0.704 0.454 1.907
v 0.603 0.417 2.018
v 0.664 0.417 1.963
v 0.847 0.644 -0.151
v 0.847 0.412 -0.148
v 0.776 0.77 -0.17
v 0.844 0.224 -0.19
v 0.347 0.431 -2.059
v 0.347 0.579 -2.022
v 0.344 0.422 -2.019
v 0.344 0.57 -1.981
v 0.545 0.632 -1.93
v 0.654 0.656 -1.851
v 0.386 0.635 -1.993
v 0.633 0.764 -1.837
v 0.386 0.766 -1.937
v 0.535 0.624 -1.904
v 0.646 0.65 -1.835
v 0.377 0.626 -1.973
v 0.626 0.758 -1.815
v 0.377 0.758 -1.911
v 0.562 0.509 2.023
v 0.559 0.507 2.01
v 0.669 0.921 -0.739
v 0.616 1.057 -0.684
v 0.623 1.063 -0.683
v 0.738 0.791 -0.805
v 0.746 0.796 -0.804
v 0.678 0.93 -0.672
v 0.676 0.925 -0.74
v 0.593 1.119 -0.248
v 0.751 0.792 -0.175
v 0.268 0.381 2.105
v 0.268 0.252 2.105
v 0.267 0.252 2.087
v 0.267 0.381 2.087
v -0.71 0.409 -1.808
v -0.71 0.559 -1.814
v -0.833 0.409 -0.148
v -0.833 0.641 -0.151
v 0 0.409 -2.09
v 0 0.602 -2.041
v -0.373 0.602 -2.013
v -0.546 0.597 -1.945
v -0.546 0.409 -1.994
v -0.373 0.409 -2.062
v -0.762 0.766 -0.17
v -0.765 0.57 1.758
v -0.789 0.409 1.515
v -0.373 0.559 2.045
v 0 0.559 2.055
v 0 0.409 2.113
v -0.373 0.409 2.103
v -0.674 0.568 1.96
v -0.828 0.599 1.199
v -0.827 0.634 0.837
v -0.833 0.64 0.265
v -0.762 0.766 0.298
v -0.741 0.766 0.817
v -0.714 0.736 1.288
v 0 0.761 0.916
v -0.387 0.726 1.285
v -0.449 0.761 0.91
v -0.833 0.409 0.253
v -0.827 0.404 0.83
v -0.833 0.606 1.031
v -0.729 0.752 1.057
v -0.431 0.755 1.154
v -0.833 0.409 0.889
v -0.833 0.409 -0.652
v -0.833 0.583 -0.687
v -0.762 0.766 -0.758
v -0.812 0.386 -0.906
v -0.812 0.519 -1.01
v -0.726 0.766 -1.094
v -0.808 0.188 -0.913
v -0.77 0.536 -1.425
v 0 0.82 -1.522
v -0.697 0.82 -1.474
v -0.373 0.82 -1.508
v -0.356 0.63 1.964
v 0 0.629 1.973
v -0.692 0.649 1.872
v -0.769 0.51 -1.409
v -0.723 0.305 -1.826
v -0.603 0.171 -0.199
v -0.833 0.171 -0.199
v -0.373 0.32 -2.062
v 0 0.32 -2.09
v 0 0.254 -1.504
v 0 0.171 -0.199
v -0.373 0.171 -0.199
v -0.546 0.32 -1.994
v -0.572 0.254 -1.456
v -0.373 0.254 -1.49
v -0.779 0.175 1.549
v 0 0.171 2.113
v -0.373 0.171 2.103
v -0.603 0.171 0.298
v -0.376 0.175 1.549
v 0 0.171 0.32
v -0.833 0.171 0.194
v -0.827 0.171 0.737
v -0.833 0.175 0.855
v -0.599 0.175 1.549
v -0.603 0.175 0.855
v -0.603 0.171 0.715
v -0.373 0.171 0.317
v -0.373 0.171 0.752
v -0.373 0.175 0.855
v 0 0.175 1.549
v 0 0.175 0.855
v 0 0.171 0.758
v -0.833 0.171 -0.652
v 0 0.171 -0.652
v -0.603 0.171 -0.652
v -0.373 0.171 -0.652
v -0.812 0.177 -0.864
v 0 0.177 -0.864
v -0.603 0.177 -0.864
v -0.373 0.177 -0.864
v -0.819 0.573 1.362
v -0.373 0.694 1.538
v -0.707 0.71 1.444
v -0.819 0.544 1.362
v -0.793 0.383 1.464
v -0.824 0.539 1.198
v -0.83 0.502 1.05
v -0.83 0.383 0.938
v -0.785 0.175 1.492
v -0.83 0.175 0.912
v -0.818 0.496 1.336
v -0.606 0.383 1.464
v -0.657 0.544 1.198
v -0.643 0.502 1.05
v -0.643 0.383 0.938
v -0.598 0.175 1.492
v -0.643 0.175 0.912
v -0.631 0.496 1.336
v -0.373 1.183 -0.254
v 0 1.183 -0.254
v 0 1.146 -0.634
v -0.578 1.146 -0.255
v -0.582 1.108 -0.635
v -0.373 1.14 -0.634
v -0.373 1.155 0.177
v -0.575 1.119 0.158
v -0.661 0.948 0.524
v 0 1.171 0.18
v -0.752 0.786 -0.128
v -0.752 0.786 0.269
v 0 1.061 -0.84
v -0.598 1.06 -0.84
v -0.373 1.061 -0.84
v -0.684 0.955 -0.204
v -0.669 0.91 -1.048
v -0.652 0.838 -1.8
v 0 0.838 -1.93
v -0.373 0.838 -1.912
v -0.745 0.781 0.268
v 0 0.783 0.871
v -0.457 0.783 0.865
v -0.705 0.783 0.784
v -0.727 0.781 0.722
v -0.635 0.948 0.525
v -0.555 1.097 0.203
v 0 1.149 0.222
v -0.382 1.133 0.22
v -0.734 0.786 0.723
v -0.682 0.952 -0.157
v -0.664 0.946 0.466
v -0.745 0.791 -0.738
v -0.585 1.094 0.146
v -0.591 1.114 -0.202
v -0.752 0.796 -0.739
v -0.752 0.796 -0.202
v -0.682 0.961 -0.233
v -0.721 0.796 -1.049
v -0.671 0.911 -0.976
v -0.626 1.044 -0.789
v -0.621 1.077 -0.61
v -0.597 1.124 -0.281
v -0.799 0.579 -1.226
v -0.808 0.498 -1.041
v -0.808 0.381 -0.947
v 0 0.212 -1.096
v -0.586 0.212 -1.081
v -0.373 0.212 -1.103
v -0.653 0.912 -1.154
v -0.748 0.376 -1.563
v -0.748 0.442 -1.523
v -0.748 0.279 -1.592
v 0 0.287 -1.639
v -0.56 0.287 -1.608
v -0.373 0.287 -1.618
v -0.796 0.552 -1.233
v -0.751 0.371 -1.521
v -0.751 0.424 -1.491
v -0.751 0.27 -1.551
v -0.601 0.188 -0.917
v -0.582 0.51 -1.408
v -0.601 0.498 -1.042
v -0.605 0.349 -0.948
v -0.591 0.552 -1.233
v -0.572 0.363 -1.522
v -0.576 0.424 -1.491
v -0.565 0.277 -1.55
v 0 0.77 0.864
v -0.598 0.372 -1.053
v -0.599 0.396 -1.044
v 0 0.935 0.605
v -0.581 0.372 -1.414
v -0.582 0.464 -1.396
v -0.456 0.77 0.859
v -0.705 0.77 0.777
v -0.433 0.935 0.6
v -0.634 0.935 0.519
v -0.555 1.084 0.196
v 0 1.136 0.216
v -0.381 1.12 0.213
v -0.745 0.781 -0.129
v -0.675 0.946 -0.158
v -0.657 0.94 0.466
v -0.672 0.948 0.207
v -0.577 1.088 0.145
v -0.585 1.106 -0.202
v -0.745 0.791 -0.201
v -0.675 0.956 -0.233
v -0.713 0.791 -1.048
v -0.671 0.926 -0.671
v -0.664 0.906 -0.975
v -0.619 1.038 -0.789
v -0.614 1.07 -0.61
v -0.59 1.117 -0.281
v -0.377 1.051 -0.864
v 0 1.051 -0.864
v -0.613 0.909 -1.162
v -0.523 1.048 -0.863
v -0.634 0.842 -1.307
v -0.372 0.842 -1.338
v 0 0.842 -1.351
v -0.672 0.85 -1.292
v -0.741 0.409 1.858
v -0.718 0.569 1.882
v -0.727 0.173 1.874
v -0.781 0.228 1.543
v 0 0.345 -2.09
v -0.812 0.225 -0.868
v -0.833 0.224 -0.652
v -0.373 0.345 -2.062
v -0.546 0.345 -1.994
v -0.833 0.224 -0.189
v -0.833 0.224 0.205
v -0.827 0.223 0.754
v -0.833 0.228 0.864
v -0.71 0.333 -1.808
v -0.786 0.223 1.487
v -0.83 0.223 0.919
v -0.599 0.223 1.487
v -0.643 0.223 0.919
v -0.751 0.304 -1.545
v -0.808 0.234 -0.916
v -0.748 0.312 -1.587
v -0.566 0.303 -1.544
v -0.601 0.228 -0.92
v -0.573 0.284 -1.448
v -0.588 0.251 -1.076
v -0.728 0.226 1.871
v 0 0.224 2.113
v -0.373 0.224 2.103
v -0.559 0.345 -2.012
v -0.559 0.32 -2.012
v -0.76 0.28 -1.61
v -0.386 0.32 -2.079
v 0 0.32 -2.107
v -0.764 0.271 -1.569
v -0.764 0.304 -1.563
v -0.76 0.312 -1.604
v 0 0.345 -2.107
v -0.386 0.345 -2.079
v -0.723 0.333 -1.826
v -0.612 0.407 2.041
v -0.686 0.407 1.975
v -0.682 0.171 1.986
v -0.608 0.171 2.051
v -0.608 0.224 2.051
v -0.682 0.224 1.986
v -0.748 0.7 0.8
v -0.748 0.73 0.8
v -0.738 0.7 0.779
v -0.738 0.73 0.779
v -0.797 0.692 0.77
v -0.797 0.738 0.77
v -0.771 0.692 0.718
v -0.771 0.738 0.718
v -0.871 0.738 0.597
v -0.851 0.692 0.622
v -0.884 0.692 0.667
v -0.904 0.738 0.641
v -0.855 0.783 0.618
v -0.887 0.783 0.662
v -0.848 0.738 0.725
v -0.822 0.738 0.673
v -0.822 0.692 0.673
v -0.848 0.692 0.725
v -0.848 0.79 0.725
v -0.822 0.79 0.673
v -0.769 0.7 0.754
v -0.769 0.73 0.754
v -0.779 0.7 0.775
v -0.779 0.73 0.775
v -0.771 0.78 0.718
v -0.782 0.796 0.708
v -0.808 0.796 0.76
v -0.797 0.78 0.77
v -0.351 0.902 -1.178
v -0.351 1.044 -0.86
v 0 0.902 -1.186
v 0 1.044 -0.86
v -0.613 0.902 -1.159
v -0.523 1.041 -0.86
v -0.634 0.834 -1.304
v -0.346 0.834 -1.335
v 0 0.834 -1.348
v -0.708 0.516 1.912
v -0.647 0.535 1.983
v -0.437 0.5 2.057
v -0.437 0.427 2.077
v -0.711 0.457 1.918
v -0.61 0.421 2.029
v -0.671 0.421 1.974
v -0.7 0.512 1.901
v -0.64 0.532 1.972
v -0.437 0.497 2.049
v -0.437 0.423 2.065
v -0.704 0.454 1.907
v -0.603 0.417 2.018
v -0.664 0.417 1.963
v -0.847 0.644 -0.151
v -0.847 0.412 -0.148
v -0.776 0.77 -0.17
v -0.844 0.224 -0.19
v 0 0.755 1.154
v 0 0.726 1.285
v 0 0.694 1.538
v -0.347 0.431 -2.059
v 0 0.431 -2.081
v 0 0.579 -2.043
v -0.347 0.579 -2.022
v -0.344 0.422 -2.019
v 0 0.422 -2.04
v 0 0.57 -2.003
v -0.344 0.57 -1.981
v -0.545 0.632 -1.93
v -0.654 0.656 -1.851
v -0.386 0.635 -1.993
v -0.633 0.764 -1.837
v -0.386 0.766 -1.937
v -0.535 0.624 -1.904
v -0.646 0.65 -1.835
v -0.377 0.626 -1.973
v -0.626 0.758 -1.815
v -0.377 0.758 -1.911
v -0.562 0.509 2.023
v -0.559 0.507 2.01
v -0.669 0.921 -0.739
v -0.616 1.057 -0.684
v -0.623 1.063 -0.683
v -0.738 0.791 -0.805
v -0.746 0.796 -0.804
v -0.678 0.93 -0.672
v -0.676 0.925 -0.74
v -0.593 1.119 -0.248
v -0.751 0.792 -0.175
v -0.268 0.381 2.105
v 0 0.381 2.112
v 0 0.252 2.112
v -0.268 0.252 2.105
v -0.267 0.252 2.087
v -0.267 0.381 2.087
v 0 0.381 2.094
v 0 0.252 2.094
usemtl Blue
f 7 6 2 1
f 29 30 4 3
f 69 71 40 10
f 38 101 419 339
f 36 130 2 100 37
f 303 5 270 609
f 8 5 6 7
f 530 201 295 638
f 71 70 39 40
f 3 4 265 266
f 23 17 16 24
f 38 339 502 174
f 93 19 109 111
f 26 27 21 20
f 185 184 268
f 17 18 19 16
f 25 26 20 15
f 322 22 103 422
f 195 193 207 208
f 16 19 26 25
f 19 22 27 26
f 24 16 25 28
f 4 30 31 9
f 131 42 204
f 32 33 30 29
f 98 293 116 117
f 30 33 34 31
f 19 93 106 104
f 184 185 54 44 63 181
f 178 200 216 213
f 36 123 134 41
f 129 130 136 135
f 88 292 122
f 123 36 37 34
f 39 343 312 12
f 10 40 177
f 40 39 12 14
f 201 13 294 295
f 137 131 204 206
f 65 46 352 376
f 63 44 43 64
f 64 43 46 65
f 46 43 52 60
f 60 52 59 61
f 352 46 60 362
f 362 60 61 374
f 43 44 54 52
f 52 54 55 59
f 59 55 56 58
f 374 61 62 373
f 61 59 58 62
f 67 64 65 68
f 66 63 64 67
f 68 65 376 380
f 127 68 380 447
f 123 33 124 134
f 126 138 68 127
f 132 145 133
f 181 63 66 180
f 133 49 351 454
f 57 50 178 213
f 372 53 51 358
f 11 72 69 10
f 20 21 70 71
f 15 20 71 69
f 70 21 605 606
f 69 72 15
f 72 11 73 79
f 25 15 74 75
f 28 25 75 76
f 15 72 79 74
f 187 28 76 190
f 189 77 84 191
f 79 73 80 86
f 190 76 83 192
f 75 74 81 82
f 74 79 86 81
f 76 75 82 83
f 191 192 83 80
f 86 82 81
f 57 84 77 50
f 80 83 82 86
f 56 78 85 58
f 58 85 62
f 373 62 53 372
f 53 84 57
f 62 85 84 53
f 88 87 91 92
f 22 19 104 103
f 93 92 107 106
f 88 89 90 87
f 87 90 403 402
f 89 96 97 90
f 90 97 413 403
f 96 128 171 172
f 34 99 119 118
f 92 93 111 113
f 419 101 5 303
f 101 100 276 277
f 2 6 273 274
f 422 103 150 469
f 104 106 153 151
f 107 108 155 154
f 108 428 480 155
f 91 410 428 108
f 92 91 108 107
f 94 110 157 156
f 113 111 158 160
f 88 92 113 114
f 98 292 114 110
f 122 117 163 169
f 119 120 167 166
f 99 96 120 119
f 96 89 287 120
f 89 88 122 121
f 48 126 127 49
f 33 32 125 124
f 49 127 447 351
f 33 123 34
f 130 36 41 136
f 195 129 135 193
f 97 96 172 170
f 37 38 174 173
f 45 133 454 350
f 99 128 96
f 99 34 175
f 42 132 47
f 47 132 133 45
f 1 2 130 129
f 42 47 203
f 132 42 131
f 135 136 144 143
f 124 125 141 140
f 134 124 140 142
f 41 134 142 139
f 194 35 138 197
f 193 135 143 196
f 136 41 139 144
f 196 143 148 198
f 140 139 142
f 141 146 147
f 144 139 149
f 67 138 35 66
f 137 145 132 131
f 68 138 67
f 133 145 48 49
f 147 146 148 149
f 147 140 141
f 199 146 141 197
f 149 148 143 144
f 149 139 140 147
f 198 148 146 199
f 106 107 154 153
f 103 104 151 150
f 110 114 161 157
f 114 113 160 161
f 111 109 105 158
f 285 286 287 291
f 115 289 291 290
f 121 122 169 168
f 117 116 162 163
f 118 119 166 164
f 120 287 286 167
f 172 171 247 248
f 174 502 585 250
f 497 170 246 580
f 173 174 250 249
f 413 97 170 497
f 128 175 173 171
f 173 175 37
f 175 128 99
f 175 34 37
f 530 358 51 201
f 201 215 211 13
f 11 10 176
f 11 176 200 179
f 48 198 199 126
f 126 199 197 138
f 145 196 198 48
f 137 193 196 145
f 125 194 197 141
f 1 129 195 188
f 188 195 208 210
f 84 85 192 191
f 78 190 192 85
f 73 189 191 80
f 11 179 189 73
f 32 180 194 125
f 8 7 183 182
f 24 28 187 186
f 184 3 266 268
f 23 24 186 185
f 177 14 252 251
f 302 8 182 508
f 29 3 184 181
f 32 29 181 180
f 7 1 188 183
f 185 186 55 54
f 56 55 186 187
f 66 35 194 180
f 189 179 50 77
f 215 214 213 216
f 50 179 200 178
f 53 57 214 51
f 202 210 42 203
f 540 209 205 536
f 209 202 203 205
f 210 208 204 42
f 204 208 207 206
f 47 45 205 203
f 182 183 202 209
f 193 137 206 207
f 183 188 210 202
f 508 182 209 540
f 45 350 536 205
f 213 214 57
f 216 200 176 212
f 201 51 214 215
f 14 12 283 252
f 12 13 254 253
f 217 218 220 219
f 237 238 224 223
f 231 228 230 235
f 239 240 218 217
f 237 223 221 239
f 238 220 218 240
f 226 225 228 227
f 233 232 225 226
f 231 234 227 228
f 234 233 226 227
f 236 235 230 229
f 228 225 229 230
f 222 231 235 243 244
f 224 222 244 241
f 225 232 236 229
f 232 224 241 242 236
f 221 223 233 234
f 222 221 234 231
f 223 224 232 233
f 224 238 240 222
f 219 237 239 217
f 221 222 240 239
f 219 220 238 237
f 241 244 243 242
f 242 243 235 236
f 171 173 249 247
f 170 172 248 246
f 256 257 264 263
f 177 40 14
f 252 283 284 259
f 255 251 258 262
f 212 176 255 257
f 176 177 251 255
f 13 211 256 254
f 211 212 257 256
f 253 254 261 260
f 251 252 259 258
f 257 255 262 264
f 254 256 263 261
f 18 17 265 267
f 23 185 268 266
f 4 9 267 265
f 9 18 267
f 17 23 266 265
f 312 313 13 12
f 37 100 101 38
f 27 22 322 604
f 39 70 606 343
f 21 27 604 605
f 609 270 272 613
f 8 302 608 269
f 5 8 269 270
f 269 608 612 271
f 270 269 271 272
f 273 275 280 278
f 275 277 282 280
f 5 101 277 275
f 6 5 275 273
f 100 2 274 276
f 277 276 281 282
f 274 273 278 279
f 276 274 279 281
f 187 190 78 56
f 284 283 253 260
f 283 12 253
f 165 112 115 290
f 287 89 121
f 291 287 121 290
f 288 285 291 289
f 168 165 290 121
f 114 292 88
f 122 292 98 117
f 94 293 98 110
f 294 637 642 297
f 13 313 637 294
f 215 216 212 211
f 638 295 296 643
f 295 294 297 296
f 306 298 299 305
f 331 300 301 332
f 383 309 344 385
f 341 339 419 420
f 338 340 418 299 452
f 303 609 610 304
f 307 306 305 304
f 530 638 639 531
f 385 344 342 384
f 300 601 600 301
f 325 326 317 318
f 341 501 502 339
f 409 432 430 320
f 328 321 323 329
f 514 603 513
f 318 317 320 319
f 327 316 321 328
f 322 422 423 324
f 524 539 538 522
f 317 327 328 320
f 320 328 329 324
f 326 330 327 317
f 301 308 333 332
f 453 534 346
f 334 331 332 335
f 416 438 437 635
f 332 333 336 335
f 320 424 426 409
f 513 510 375 348 363 514
f 506 545 548 529
f 338 345 457 444
f 451 458 459 452
f 404 443 634
f 444 336 340 338
f 342 311 312 343
f 309 505 344
f 344 315 311 342
f 531 639 636 314
f 460 537 534 453
f 378 376 352 353
f 375 377 347 348
f 377 378 353 347
f 353 369 360 347
f 369 370 368 360
f 352 362 369 353
f 362 374 370 369
f 347 360 363 348
f 360 368 364 363
f 368 367 365 364
f 374 373 371 370
f 370 371 367 368
f 381 382 378 377
f 379 381 377 375
f 382 380 376 378
f 449 447 380 382
f 444 457 445 335
f 448 449 382 461
f 455 456 468
f 510 509 379 375
f 456 454 351 356
f 366 545 506 357
f 372 358 359 361
f 310 309 383 386
f 321 385 384 323
f 316 383 385 321
f 384 606 605 323
f 383 316 386
f 386 393 387 310
f 327 389 388 316
f 330 390 389 327
f 316 388 393 386
f 516 519 390 330
f 518 520 398 391
f 393 400 394 387
f 519 521 397 390
f 389 396 395 388
f 388 395 400 393
f 390 397 396 389
f 520 394 397 521
f 400 395 396
f 366 357 391 398
f 394 400 396 397
f 365 367 399 392
f 367 371 399
f 373 372 361 371
f 361 366 398
f 371 361 398 399
f 404 408 407 401
f 324 423 424 320
f 409 426 427 408
f 404 401 406 405
f 401 402 403 406
f 405 406 415 414
f 406 403 413 415
f 414 499 498 450
f 336 439 440 417
f 408 434 432 409
f 419 303 304 420
f 420 619 618 418
f 299 616 615 305
f 422 469 475 423
f 424 476 478 426
f 427 479 481 429
f 429 481 480 428
f 407 429 428 410
f 408 427 429 407
f 411 482 483 431
f 434 486 484 432
f 404 435 434 408
f 416 431 435 634
f 443 495 489 438
f 440 492 493 441
f 417 440 441 414
f 414 441 629 405
f 405 442 443 404
f 355 356 449 448
f 335 445 446 334
f 356 351 447 449
f 335 336 444
f 452 459 345 338
f 524 522 458 451
f 415 496 499 414
f 340 500 501 341
f 349 350 454 456
f 417 414 450
f 417 503 336
f 346 354 455
f 354 349 456 455
f 298 451 452 299
f 346 533 354
f 455 453 346
f 458 466 467 459
f 445 463 464 446
f 457 465 463 445
f 345 462 465 457
f 523 526 461 337
f 522 525 466 458
f 459 467 462 345
f 525 527 473 466
f 463 465 462
f 464 471 470
f 467 474 462
f 381 379 337 461
f 460 453 455 468
f 382 381 461
f 456 356 355 468
f 471 474 473 470
f 471 464 463
f 528 526 464 470
f 474 467 466 473
f 474 471 463 462
f 527 528 470 473
f 426 478 479 427
f 423 475 476 424
f 431 483 487 435
f 435 487 486 434
f 432 484 425 430
f 627 633 629 628
f 436 632 633 631
f 442 494 495 443
f 438 489 488 437
f 439 490 492 440
f 441 493 628 629
f 499 582 581 498
f 501 584 585 502
f 497 580 578 496
f 500 583 584 501
f 413 497 496 415
f 450 498 500 503
f 500 340 503
f 503 417 450
f 503 340 336
f 530 531 359 358
f 531 314 543 547
f 310 504 309
f 310 507 529 504
f 355 448 528 527
f 448 461 526 528
f 468 355 527 525
f 460 468 525 522
f 446 464 526 523
f 298 517 524 451
f 517 542 539 524
f 398 520 521 399
f 392 399 521 519
f 387 394 520 518
f 310 387 518 507
f 334 446 523 509
f 307 511 512 306
f 326 515 516 330
f 513 603 601 300
f 325 514 515 326
f 505 586 587 315
f 302 508 511 307
f 331 510 513 300
f 334 509 510 331
f 306 512 517 298
f 514 363 364 515
f 365 516 515 364
f 379 509 523 337
f 518 391 357 507
f 547 548 545 546
f 357 506 529 507
f 361 359 546 366
f 532 533 346 542
f 540 536 535 541
f 541 535 533 532
f 542 346 534 539
f 534 537 538 539
f 354 533 535 349
f 511 541 532 512
f 522 538 537 460
f 512 532 542 517
f 508 540 541 511
f 349 535 536 350
f 545 366 546
f 548 544 504 529
f 531 547 546 359
f 315 587 625 311
f 311 588 589 314
f 549 551 552 550
f 569 555 556 570
f 563 567 562 560
f 571 549 550 572
f 569 571 553 555
f 570 572 550 552
f 558 559 560 557
f 565 558 557 564
f 563 560 559 566
f 566 559 558 565
f 568 561 562 567
f 560 562 561 557
f 554 576 575 567 563
f 556 573 576 554
f 557 561 568 564
f 564 568 574 573 556
f 553 566 565 555
f 554 563 566 553
f 555 565 564 556
f 556 554 572 570
f 551 549 571 569
f 553 571 572 554
f 551 569 570 552
f 573 574 575 576
f 574 568 567 575
f 498 581 583 500
f 496 578 582 499
f 591 598 599 592
f 505 315 344
f 587 594 626 625
f 590 597 593 586
f 544 592 590 504
f 504 590 586 505
f 314 589 591 543
f 543 591 592 544
f 588 595 596 589
f 586 593 594 587
f 592 599 597 590
f 589 596 598 591
f 319 602 600 318
f 325 601 603 514
f 301 600 602 308
f 308 602 319
f 318 600 601 325
f 312 311 314 313
f 340 341 420 418
f 329 604 322 324
f 342 343 606 384
f 323 605 604 329
f 609 613 614 610
f 307 607 608 302
f 304 610 607 307
f 607 611 612 608
f 610 614 611 607
f 615 620 622 617
f 617 622 624 619
f 304 617 619 420
f 305 615 617 304
f 418 618 616 299
f 619 624 623 618
f 616 621 620 615
f 618 623 621 616
f 516 365 392 519
f 626 595 588 625
f 625 588 311
f 491 632 436 433
f 629 442 405
f 633 632 442 629
f 630 631 633 627
f 494 442 632 491
f 402 410 91 87
f 410 402 401 407
f 435 404 634
f 443 438 416 634
f 411 431 416 635
f 636 641 642 637
f 314 636 637 313
f 547 543 544 548
f 638 643 640 639
f 639 640 641 636
f 176 10 177
f 309 504 505
usemtl Windows
f 469 150 152 472
f 150 151 153 152
f 154 155 152 153
f 155 480 472 152
f 102 156 157 159
f 105 102 159 158
f 159 157 161 160
f 158 159 160
f 162 112 165 163
f 163 165 168 169
f 167 286 285
f 247 245 246 248
f 245 579 580 246
f 250 585 579 245
f 249 250 245 247
f 285 166 167
f 285 288 164 166
f 469 472 477 475
f 475 477 478 476
f 479 478 477 481
f 481 477 472 480
f 421 485 483 482
f 425 484 485 421
f 485 486 487 483
f 484 486 485
f 488 489 491 433
f 489 495 494 491
f 493 627 628
f 581 582 578 577
f 577 578 580 579
f 584 577 579 585
f 583 581 577 584
f 627 493 492
f 627 492 490 630
usemtl Black
f 9 293 94
f 9 31 115 116
f 18 9 94 95
f 109 95 102 105
f 95 94 156 102
f 19 18 95 109
f 116 115 112 162
f 31 289 115
f 289 31 34 118
f 288 289 118 164
f 116 293 9
f 308 411 635
f 308 437 436 333
f 319 412 411 308
f 430 425 421 412
f 412 421 482 411
f 320 430 412 319
f 437 488 433 436
f 333 436 631
f 631 439 336 333
f 630 490 439 631
f 437 308 635
usemtl Grey
f 612 613 272 271
f 643 296 297 642
f 612 611 614 613
f 643 642 641 640
usemtl Headlights
f 262 258 259 264
f 260 261 263 284
f 264 259 263
f 284 263 259
f 597 599 594 593
f 595 626 598 596
f 599 598 594
f 626 594 598
usemtl TailLights
f 282 281 278 280
f 281 279 278
f 624 622 620 623
f 623 620 621
o NormalCar1_BackWheels_Cube.011
v 0.593 0.268 -1.505
v 0.755 0.268 -1.505
v 0.593 0.137 -1.47
v 0.755 0.137 -1.47
v 0.593 0.041 -1.374
v 0.755 0.041 -1.374
v 0.593 0.006 -1.243
v 0.755 0.006 -1.243
v 0.593 0.041 -1.112
v 0.755 0.041 -1.112
v 0.593 0.137 -1.016
v 0.755 0.137 -1.016
v 0.593 0.268 -0.981
v 0.755 0.268 -0.981
v 0.593 0.399 -1.016
v 0.755 0.399 -1.016
v 0.593 0.495 -1.112
v 0.755 0.495 -1.112
v 0.593 0.53 -1.243
v 0.755 0.53 -1.243
v 0.593 0.495 -1.374
v 0.755 0.495 -1.374
v 0.593 0.399 -1.47
v 0.755 0.399 -1.47
v 0.784 0.169 -1.415
v 0.784 0.268 -1.442
v 0.784 0.096 -1.342
v 0.784 0.07 -1.243
v 0.784 0.096 -1.144
v 0.784 0.169 -1.072
v 0.784 0.268 -1.045
v 0.784 0.367 -1.072
v 0.784 0.44 -1.144
v 0.784 0.466 -1.243
v 0.784 0.44 -1.342
v 0.784 0.367 -1.415
v 0.784 0.181 -1.393
v 0.784 0.268 -1.416
v 0.784 0.118 -1.33
v 0.784 0.095 -1.243
v 0.784 0.118 -1.157
v 0.784 0.181 -1.093
v 0.784 0.268 -1.07
v 0.784 0.354 -1.093
v 0.784 0.418 -1.157
v 0.784 0.441 -1.243
v 0.784 0.418 -1.33
v 0.784 0.354 -1.393
v 0.761 0.181 -1.393
v 0.761 0.268 -1.416
v 0.761 0.118 -1.33
v 0.761 0.095 -1.243
v 0.761 0.118 -1.157
v 0.761 0.181 -1.093
v 0.761 0.268 -1.07
v 0.761 0.354 -1.093
v 0.761 0.418 -1.157
v 0.761 0.441 -1.243
v 0.761 0.418 -1.33
v 0.761 0.354 -1.393
v 0.763 0.244 -1.285
v 0.763 0.268 -1.292
v 0.763 0.226 -1.268
v 0.763 0.219 -1.243
v 0.763 0.226 -1.219
v 0.763 0.244 -1.201
v 0.763 0.268 -1.195
v 0.763 0.292 -1.201
v 0.763 0.31 -1.219
v 0.763 0.316 -1.243
v 0.763 0.31 -1.268
v 0.763 0.292 -1.285
v 0.772 0.253 -1.269
v 0.772 0.268 -1.273
v 0.772 0.242 -1.258
v 0.772 0.238 -1.243
v 0.772 0.242 -1.228
v 0.772 0.253 -1.217
v 0.772 0.268 -1.213
v 0.772 0.283 -1.217
v 0.772 0.294 -1.228
v 0.772 0.298 -1.243
v 0.772 0.294 -1.258
v 0.772 0.283 -1.269
v 0.761 0.259 -1.082
v 0.761 0.19 -1.1
v 0.76 0.261 -1.184
v 0.76 0.24 -1.189
v 0.761 0.346 -1.1
v 0.761 0.277 -1.082
v 0.76 0.295 -1.189
v 0.76 0.275 -1.184
v 0.761 0.406 -1.156
v 0.761 0.356 -1.105
v 0.76 0.318 -1.208
v 0.76 0.303 -1.193
v 0.761 0.43 -1.235
v 0.761 0.411 -1.165
v 0.76 0.327 -1.237
v 0.76 0.322 -1.216
v 0.761 0.356 -1.382
v 0.761 0.406 -1.331
v 0.76 0.303 -1.294
v 0.76 0.318 -1.278
v 0.761 0.411 -1.321
v 0.761 0.43 -1.252
v 0.76 0.322 -1.271
v 0.76 0.327 -1.25
v 0.761 0.277 -1.405
v 0.761 0.346 -1.386
v 0.76 0.275 -1.303
v 0.76 0.295 -1.297
v 0.761 0.19 -1.386
v 0.761 0.259 -1.405
v 0.76 0.24 -1.297
v 0.76 0.261 -1.303
v 0.761 0.13 -1.331
v 0.761 0.18 -1.382
v 0.76 0.218 -1.278
v 0.76 0.233 -1.294
v 0.761 0.106 -1.252
v 0.761 0.125 -1.321
v 0.76 0.208 -1.25
v 0.76 0.214 -1.271
v 0.761 0.125 -1.165
v 0.761 0.106 -1.235
v 0.76 0.214 -1.216
v 0.76 0.208 -1.237
v 0.761 0.18 -1.105
v 0.761 0.13 -1.156
v 0.76 0.233 -1.193
v 0.76 0.218 -1.208
v 0.72 0.259 -1.082
v 0.72 0.19 -1.1
v 0.729 0.261 -1.184
v 0.729 0.24 -1.189
v 0.72 0.346 -1.1
v 0.72 0.277 -1.082
v 0.729 0.295 -1.189
v 0.729 0.275 -1.184
v 0.72 0.406 -1.156
v 0.72 0.356 -1.105
v 0.729 0.318 -1.208
v 0.729 0.303 -1.193
v 0.72 0.43 -1.235
v 0.72 0.411 -1.165
v 0.729 0.327 -1.237
v 0.729 0.322 -1.216
v 0.72 0.356 -1.382
v 0.72 0.406 -1.331
v 0.729 0.303 -1.294
v 0.729 0.318 -1.278
v 0.72 0.411 -1.321
v 0.72 0.43 -1.252
v 0.729 0.322 -1.271
v 0.729 0.327 -1.25
v 0.72 0.277 -1.405
v 0.72 0.346 -1.386
v 0.729 0.275 -1.303
v 0.729 0.295 -1.297
v 0.72 0.19 -1.386
v 0.72 0.259 -1.405
v 0.729 0.24 -1.297
v 0.729 0.261 -1.303
v 0.72 0.13 -1.331
v 0.72 0.18 -1.382
v 0.729 0.218 -1.278
v 0.729 0.233 -1.294
v 0.72 0.106 -1.252
v 0.72 0.125 -1.321
v 0.729 0.208 -1.25
v 0.729 0.214 -1.271
v 0.72 0.125 -1.165
v 0.72 0.106 -1.235
v 0.729 0.214 -1.216
v 0.729 0.208 -1.237
v 0.72 0.18 -1.105
v 0.72 0.13 -1.156
v 0.729 0.233 -1.193
v 0.729 0.218 -1.208
v 0.765 0.242 -1.207
v 0.765 0.231 -1.217
v 0.77 0.247 -1.216
v 0.77 0.241 -1.223
v 0.765 0.231 -1.269
v 0.765 0.242 -1.28
v 0.77 0.241 -1.264
v 0.77 0.247 -1.27
v 0.765 0.294 -1.28
v 0.765 0.305 -1.269
v 0.77 0.288 -1.27
v 0.77 0.295 -1.264
v 0.765 0.305 -1.217
v 0.765 0.294 -1.207
v 0.77 0.295 -1.223
v 0.77 0.288 -1.216
v 0.748 0.242 -1.207
v 0.748 0.231 -1.217
v 0.753 0.247 -1.216
v 0.753 0.241 -1.223
v 0.748 0.231 -1.269
v 0.748 0.242 -1.28
v 0.753 0.241 -1.264
v 0.753 0.247 -1.27
v 0.748 0.294 -1.28
v 0.748 0.305 -1.269
v 0.753 0.288 -1.27
v 0.753 0.295 -1.264
v 0.748 0.305 -1.217
v 0.748 0.294 -1.207
v 0.753 0.295 -1.223
v 0.753 0.288 -1.216
v -0.592 0.268 -1.505
v -0.754 0.268 -1.505
v -0.592 0.137 -1.47
v -0.754 0.137 -1.47
v -0.592 0.041 -1.374
v -0.754 0.041 -1.374
v -0.592 0.006 -1.243
v -0.754 0.006 -1.243
v -0.592 0.041 -1.112
v -0.754 0.041 -1.112
v -0.592 0.137 -1.016
v -0.754 0.137 -1.016
v -0.592 0.268 -0.981
v -0.754 0.268 -0.981
v -0.592 0.399 -1.016
v -0.754 0.399 -1.016
v -0.592 0.495 -1.112
v -0.754 0.495 -1.112
v -0.592 0.53 -1.243
v -0.754 0.53 -1.243
v -0.592 0.495 -1.374
v -0.754 0.495 -1.374
v -0.592 0.399 -1.47
v -0.754 0.399 -1.47
v -0.783 0.169 -1.415
v -0.783 0.268 -1.442
v -0.783 0.096 -1.342
v -0.783 0.07 -1.243
v -0.783 0.096 -1.144
v -0.783 0.169 -1.072
v -0.783 0.268 -1.045
v -0.783 0.367 -1.072
v -0.783 0.44 -1.144
v -0.783 0.466 -1.243
v -0.783 0.44 -1.342
v -0.783 0.367 -1.415
v -0.783 0.181 -1.393
v -0.783 0.268 -1.416
v -0.783 0.118 -1.33
v -0.783 0.095 -1.243
v -0.783 0.118 -1.157
v -0.783 0.181 -1.093
v -0.783 0.268 -1.07
v -0.783 0.354 -1.093
v -0.783 0.418 -1.157
v -0.783 0.441 -1.243
v -0.783 0.418 -1.33
v -0.783 0.354 -1.393
v -0.759 0.181 -1.393
v -0.759 0.268 -1.416
v -0.759 0.118 -1.33
v -0.759 0.095 -1.243
v -0.759 0.118 -1.157
v -0.759 0.181 -1.093
v -0.759 0.268 -1.07
v -0.759 0.354 -1.093
v -0.759 0.418 -1.157
v -0.759 0.441 -1.243
v -0.759 0.418 -1.33
v -0.759 0.354 -1.393
v -0.762 0.244 -1.285
v -0.762 0.268 -1.292
v -0.762 0.226 -1.268
v -0.762 0.219 -1.243
v -0.762 0.226 -1.219
v -0.762 0.244 -1.201
v -0.762 0.268 -1.195
v -0.762 0.292 -1.201
v -0.762 0.31 -1.219
v -0.762 0.316 -1.243
v -0.762 0.31 -1.268
v -0.762 0.292 -1.285
v -0.77 0.253 -1.269
v -0.77 0.268 -1.273
v -0.77 0.242 -1.258
v -0.77 0.238 -1.243
v -0.77 0.242 -1.228
v -0.77 0.253 -1.217
v -0.77 0.268 -1.213
v -0.77 0.283 -1.217
v -0.77 0.294 -1.228
v -0.77 0.298 -1.243
v -0.77 0.294 -1.258
v -0.77 0.283 -1.269
v -0.759 0.259 -1.082
v -0.759 0.19 -1.1
v -0.758 0.261 -1.184
v -0.758 0.24 -1.189
v -0.759 0.346 -1.1
v -0.759 0.277 -1.082
v -0.758 0.295 -1.189
v -0.758 0.275 -1.184
v -0.759 0.406 -1.156
v -0.759 0.356 -1.105
v -0.758 0.318 -1.208
v -0.758 0.303 -1.193
v -0.759 0.43 -1.235
v -0.759 0.411 -1.165
v -0.758 0.327 -1.237
v -0.758 0.322 -1.216
v -0.759 0.356 -1.382
v -0.759 0.406 -1.331
v -0.758 0.303 -1.294
v -0.758 0.318 -1.278
v -0.759 0.411 -1.321
v -0.759 0.43 -1.252
v -0.758 0.322 -1.271
v -0.758 0.327 -1.25
v -0.759 0.277 -1.405
v -0.759 0.346 -1.386
v -0.758 0.275 -1.303
v -0.758 0.295 -1.297
v -0.759 0.19 -1.386
v -0.759 0.259 -1.405
v -0.758 0.24 -1.297
v -0.758 0.261 -1.303
v -0.759 0.13 -1.331
v -0.759 0.18 -1.382
v -0.758 0.218 -1.278
v -0.758 0.233 -1.294
v -0.759 0.106 -1.252
v -0.759 0.125 -1.321
v -0.758 0.208 -1.25
v -0.758 0.214 -1.271
v -0.759 0.125 -1.165
v -0.759 0.106 -1.235
v -0.758 0.214 -1.216
v -0.758 0.208 -1.237
v -0.759 0.18 -1.105
v -0.759 0.13 -1.156
v -0.758 0.233 -1.193
v -0.758 0.218 -1.208
v -0.718 0.259 -1.082
v -0.718 0.19 -1.1
v -0.727 0.261 -1.184
v -0.727 0.24 -1.189
v -0.718 0.346 -1.1
v -0.718 0.277 -1.082
v -0.727 0.295 -1.189
v -0.727 0.275 -1.184
v -0.718 0.406 -1.156
v -0.718 0.356 -1.105
v -0.727 0.318 -1.208
v -0.727 0.303 -1.193
v -0.718 0.43 -1.235
v -0.718 0.411 -1.165
v -0.727 0.327 -1.237
v -0.727 0.322 -1.216
v -0.718 0.356 -1.382
v -0.718 0.406 -1.331
v -0.727 0.303 -1.294
v -0.727 0.318 -1.278
v -0.718 0.411 -1.321
v -0.718 0.43 -1.252
v -0.727 0.322 -1.271
v -0.727 0.327 -1.25
v -0.718 0.277 -1.405
v -0.718 0.346 -1.386
v -0.727 0.275 -1.303
v -0.727 0.295 -1.297
v -0.718 0.19 -1.386
v -0.718 0.259 -1.405
v -0.727 0.24 -1.297
v -0.727 0.261 -1.303
v -0.718 0.13 -1.331
v -0.718 0.18 -1.382
v -0.727 0.218 -1.278
v -0.727 0.233 -1.294
v -0.718 0.106 -1.252
v -0.718 0.125 -1.321
v -0.727 0.208 -1.25
v -0.727 0.214 -1.271
v -0.718 0.125 -1.165
v -0.718 0.106 -1.235
v -0.727 0.214 -1.216
v -0.727 0.208 -1.237
v -0.718 0.18 -1.105
v -0.718 0.13 -1.156
v -0.727 0.233 -1.193
v -0.727 0.218 -1.208
v -0.763 0.242 -1.207
v -0.763 0.231 -1.217
v -0.768 0.247 -1.216
v -0.768 0.241 -1.223
v -0.763 0.231 -1.269
v -0.763 0.242 -1.28
v -0.768 0.241 -1.264
v -0.768 0.247 -1.27
v -0.763 0.294 -1.28
v -0.763 0.305 -1.269
v -0.768 0.288 -1.27
v -0.768 0.295 -1.264
v -0.763 0.305 -1.217
v -0.763 0.294 -1.207
v -0.768 0.295 -1.223
v -0.768 0.288 -1.216
v -0.746 0.242 -1.207
v -0.746 0.231 -1.217
v -0.751 0.247 -1.216
v -0.751 0.241 -1.223
v -0.746 0.231 -1.269
v -0.746 0.242 -1.28
v -0.751 0.241 -1.264
v -0.751 0.247 -1.27
v -0.746 0.294 -1.28
v -0.746 0.305 -1.269
v -0.751 0.288 -1.27
v -0.751 0.295 -1.264
v -0.746 0.305 -1.217
v -0.746 0.294 -1.207
v -0.751 0.295 -1.223
v -0.751 0.288 -1.216
usemtl Black
f 644 645 647 646
f 646 647 649 648
f 648 649 651 650
f 650 651 653 652
f 652 653 655 654
f 654 655 657 656
f 656 657 659 658
f 658 659 661 660
f 660 661 663 662
f 662 663 665 664
f 657 655 673 674
f 664 665 667 666
f 666 667 645 644
f 644 646 648 650 652 654 656 658 660 662 664 666
f 674 673 685 686
f 655 653 672 673
f 653 651 671 672
f 645 667 679 669
f 647 645 669 668
f 651 649 670 671
f 667 665 678 679
f 649 647 668 670
f 665 663 677 678
f 663 661 676 677
f 661 659 675 676
f 659 657 674 675
f 689 688 700 701
f 671 670 682 683
f 678 677 689 690
f 675 674 686 687
f 672 671 683 684
f 679 678 690 691
f 668 669 681 680
f 676 675 687 688
f 673 672 684 685
f 669 679 691 681
f 670 668 680 682
f 677 676 688 689
f 686 685 697 698
f 683 682 694 695
f 690 689 701 702
f 687 686 698 699
f 684 683 695 696
f 691 690 702 703
f 680 681 693 692
f 688 687 699 700
f 685 684 696 697
f 681 691 703 693
f 682 680 692 694
f 776 777 779 778
f 780 781 783 782
f 784 785 787 786
f 788 789 791 790
f 792 793 795 794
f 796 797 799 798
f 800 801 803 802
f 804 805 807 806
f 808 809 811 810
f 812 813 815 814
f 816 817 819 818
f 820 821 823 822
f 840 841 843 842
f 844 845 847 846
f 848 849 851 850
f 852 853 855 854
f 856 858 859 857
f 858 860 861 859
f 860 862 863 861
f 862 864 865 863
f 864 866 867 865
f 866 868 869 867
f 868 870 871 869
f 870 872 873 871
f 872 874 875 873
f 874 876 877 875
f 869 886 885 867
f 876 878 879 877
f 878 856 857 879
f 856 878 876 874 872 870 868 866 864 862 860 858
f 886 898 897 885
f 867 885 884 865
f 865 884 883 863
f 857 881 891 879
f 859 880 881 857
f 863 883 882 861
f 879 891 890 877
f 861 882 880 859
f 877 890 889 875
f 875 889 888 873
f 873 888 887 871
f 871 887 886 869
f 901 913 912 900
f 883 895 894 882
f 890 902 901 889
f 887 899 898 886
f 884 896 895 883
f 891 903 902 890
f 880 892 893 881
f 888 900 899 887
f 885 897 896 884
f 881 893 903 891
f 882 894 892 880
f 889 901 900 888
f 898 910 909 897
f 895 907 906 894
f 902 914 913 901
f 899 911 910 898
f 896 908 907 895
f 903 915 914 902
f 892 904 905 893
f 900 912 911 899
f 897 909 908 896
f 893 905 915 903
f 894 906 904 892
f 988 990 991 989
f 992 994 995 993
f 996 998 999 997
f 1000 1002 1003 1001
f 1004 1006 1007 1005
f 1008 1010 1011 1009
f 1012 1014 1015 1013
f 1016 1018 1019 1017
f 1020 1022 1023 1021
f 1024 1026 1027 1025
f 1028 1030 1031 1029
f 1032 1034 1035 1033
f 1052 1054 1055 1053
f 1056 1058 1059 1057
f 1060 1062 1063 1061
f 1064 1066 1067 1065
usemtl Grey
f 706 694 760 762
f 705 715 727 717
f 700 712 743 741
f 698 697 729 728
f 706 707 766 767
f 714 702 748 750
f 710 711 734 735
f 695 707 771 769
f 714 715 746 747
f 705 704 758 759
f 712 700 736 738
f 708 709 774 775
f 715 705 754 755
f 716 717 727 726 725 724 723 722 721 720 719 718
f 704 716 831 829
f 713 712 724 725
f 710 709 721 722
f 707 706 718 719
f 714 713 725 726
f 711 710 722 723
f 708 707 719 720
f 727 715 832 834
f 704 705 717 716
f 711 723 839 837
f 709 708 825 824
f 731 730 778 779
f 710 698 728 730
f 709 710 730 731
f 697 709 731 729
f 751 750 798 799
f 698 710 735 733
f 699 698 733 732
f 711 699 732 734
f 771 770 818 819
f 699 711 739 737
f 711 712 738 739
f 700 699 737 736
f 742 740 788 790
f 712 713 742 743
f 701 700 741 740
f 713 701 740 742
f 728 729 777 776
f 703 702 745 744
f 702 714 747 745
f 715 703 744 746
f 762 760 808 810
f 701 713 751 749
f 713 714 750 751
f 702 701 749 748
f 748 749 797 796
f 703 715 755 753
f 693 703 753 752
f 705 693 752 754
f 768 769 817 816
f 692 693 757 756
f 704 692 756 758
f 693 705 759 757
f 741 743 791 789
f 704 706 762 763
f 692 704 763 761
f 694 692 761 760
f 761 763 811 809
f 694 706 767 765
f 695 694 765 764
f 707 695 764 766
f 743 742 790 791
f 707 708 770 771
f 696 695 769 768
f 708 696 768 770
f 763 762 810 811
f 697 696 773 772
f 709 697 772 774
f 696 708 775 773
f 769 771 819 817
f 749 751 799 797
f 729 731 779 777
f 756 757 805 804
f 770 768 816 818
f 736 737 785 784
f 750 748 796 798
f 730 728 776 778
f 759 758 806 807
f 739 738 786 787
f 758 756 804 806
f 738 736 784 786
f 764 765 813 812
f 744 745 793 792
f 757 759 807 805
f 737 739 787 785
f 767 766 814 815
f 747 746 794 795
f 765 767 815 813
f 745 747 795 793
f 772 773 821 820
f 752 753 801 800
f 766 764 812 814
f 732 733 781 780
f 746 744 792 794
f 775 774 822 823
f 755 754 802 803
f 735 734 782 783
f 774 772 820 822
f 753 755 803 801
f 733 735 783 781
f 760 761 809 808
f 773 775 823 821
f 740 741 789 788
f 754 752 800 802
f 734 732 780 782
f 824 825 841 840
f 721 709 824 826
f 708 720 827 825
f 720 721 826 827
f 837 839 855 853
f 716 718 830 831
f 706 704 829 828
f 718 706 828 830
f 833 835 851 849
f 726 727 834 835
f 714 726 835 833
f 715 714 833 832
f 838 836 852 854
f 723 724 838 839
f 712 711 837 836
f 724 712 836 838
f 828 829 845 844
f 827 826 842 843
f 832 833 849 848
f 831 830 846 847
f 836 837 853 852
f 826 824 840 842
f 835 834 850 851
f 829 831 847 845
f 839 838 854 855
f 825 827 843 841
f 834 832 848 850
f 830 828 844 846
f 918 974 972 906
f 917 929 939 927
f 912 953 955 924
f 910 940 941 909
f 918 979 978 919
f 926 962 960 914
f 922 947 946 923
f 907 981 983 919
f 926 959 958 927
f 917 971 970 916
f 924 950 948 912
f 920 987 986 921
f 927 967 966 917
f 928 930 931 932 933 934 935 936 937 938 939 929
f 916 1041 1043 928
f 925 937 936 924
f 922 934 933 921
f 919 931 930 918
f 926 938 937 925
f 923 935 934 922
f 920 932 931 919
f 939 1046 1044 927
f 916 928 929 917
f 923 1049 1051 935
f 921 1036 1037 920
f 943 991 990 942
f 922 942 940 910
f 921 943 942 922
f 909 941 943 921
f 963 1011 1010 962
f 910 945 947 922
f 911 944 945 910
f 923 946 944 911
f 983 1031 1030 982
f 911 949 951 923
f 923 951 950 924
f 912 948 949 911
f 954 1002 1000 952
f 924 955 954 925
f 913 952 953 912
f 925 954 952 913
f 940 988 989 941
f 915 956 957 914
f 914 957 959 926
f 927 958 956 915
f 974 1022 1020 972
f 913 961 963 925
f 925 963 962 926
f 914 960 961 913
f 960 1008 1009 961
f 915 965 967 927
f 905 964 965 915
f 917 966 964 905
f 980 1028 1029 981
f 904 968 969 905
f 916 970 968 904
f 905 969 971 917
f 953 1001 1003 955
f 916 975 974 918
f 904 973 975 916
f 906 972 973 904
f 973 1021 1023 975
f 906 977 979 918
f 907 976 977 906
f 919 978 976 907
f 955 1003 1002 954
f 919 983 982 920
f 908 980 981 907
f 920 982 980 908
f 975 1023 1022 974
f 909 984 985 908
f 921 986 984 909
f 908 985 987 920
f 981 1029 1031 983
f 961 1009 1011 963
f 941 989 991 943
f 968 1016 1017 969
f 982 1030 1028 980
f 948 996 997 949
f 962 1010 1008 960
f 942 990 988 940
f 971 1019 1018 970
f 951 999 998 950
f 970 1018 1016 968
f 950 998 996 948
f 976 1024 1025 977
f 956 1004 1005 957
f 969 1017 1019 971
f 949 997 999 951
f 979 1027 1026 978
f 959 1007 1006 958
f 977 1025 1027 979
f 957 1005 1007 959
f 984 1032 1033 985
f 964 1012 1013 965
f 978 1026 1024 976
f 944 992 993 945
f 958 1006 1004 956
f 987 1035 1034 986
f 967 1015 1014 966
f 947 995 994 946
f 986 1034 1032 984
f 965 1013 1015 967
f 945 993 995 947
f 972 1020 1021 973
f 985 1033 1035 987
f 952 1000 1001 953
f 966 1014 1012 964
f 946 994 992 944
f 1036 1052 1053 1037
f 933 1038 1036 921
f 920 1037 1039 932
f 932 1039 1038 933
f 1049 1065 1067 1051
f 928 1043 1042 930
f 918 1040 1041 916
f 930 1042 1040 918
f 1045 1061 1063 1047
f 938 1047 1046 939
f 926 1045 1047 938
f 927 1044 1045 926
f 1050 1066 1064 1048
f 935 1051 1050 936
f 924 1048 1049 923
f 936 1050 1048 924
f 1040 1056 1057 1041
f 1039 1055 1054 1038
f 1044 1060 1061 1045
f 1043 1059 1058 1042
f 1048 1064 1065 1049
f 1038 1054 1052 1036
f 1047 1063 1062 1046
f 1041 1057 1059 1043
f 1051 1067 1066 1050
f 1037 1053 1055 1039
f 1046 1062 1060 1044
f 1042 1058 1056 1040
o NormalCar1_FrontLeftWheel_Cube.007
v 0.595 0.268 0.934
v 0.757 0.268 0.934
v 0.595 0.137 0.969
v 0.757 0.137 0.969
v 0.595 0.041 1.065
v 0.757 0.041 1.065
v 0.595 0.006 1.196
v 0.757 0.006 1.196
v 0.595 0.041 1.327
v 0.757 0.041 1.327
v 0.595 0.137 1.423
v 0.757 0.137 1.423
v 0.595 0.268 1.458
v 0.757 0.268 1.458
v 0.595 0.399 1.423
v 0.757 0.399 1.423
v 0.595 0.495 1.327
v 0.757 0.495 1.327
v 0.595 0.53 1.196
v 0.757 0.53 1.196
v 0.595 0.495 1.065
v 0.757 0.495 1.065
v 0.595 0.399 0.969
v 0.757 0.399 0.969
v 0.786 0.169 1.024
v 0.786 0.268 0.998
v 0.786 0.096 1.097
v 0.786 0.07 1.196
v 0.786 0.096 1.295
v 0.786 0.169 1.368
v 0.786 0.268 1.394
v 0.786 0.367 1.368
v 0.786 0.44 1.295
v 0.786 0.466 1.196
v 0.786 0.44 1.097
v 0.786 0.367 1.024
v 0.786 0.181 1.046
v 0.786 0.268 1.023
v 0.786 0.118 1.109
v 0.786 0.095 1.196
v 0.786 0.118 1.282
v 0.786 0.181 1.346
v 0.786 0.268 1.369
v 0.786 0.354 1.346
v 0.786 0.418 1.282
v 0.786 0.441 1.196
v 0.786 0.418 1.109
v 0.786 0.354 1.046
v 0.762 0.181 1.046
v 0.762 0.268 1.023
v 0.762 0.118 1.109
v 0.762 0.095 1.196
v 0.762 0.118 1.282
v 0.762 0.181 1.346
v 0.762 0.268 1.369
v 0.762 0.354 1.346
v 0.762 0.418 1.282
v 0.762 0.441 1.196
v 0.762 0.418 1.109
v 0.762 0.354 1.046
v 0.765 0.244 1.154
v 0.765 0.268 1.147
v 0.765 0.226 1.172
v 0.765 0.219 1.196
v 0.765 0.226 1.22
v 0.765 0.244 1.238
v 0.765 0.268 1.244
v 0.765 0.292 1.238
v 0.765 0.31 1.22
v 0.765 0.316 1.196
v 0.765 0.31 1.172
v 0.765 0.292 1.154
v 0.773 0.253 1.17
v 0.773 0.268 1.166
v 0.773 0.242 1.181
v 0.773 0.238 1.196
v 0.773 0.242 1.211
v 0.773 0.253 1.222
v 0.773 0.268 1.226
v 0.773 0.283 1.222
v 0.773 0.294 1.211
v 0.773 0.298 1.196
v 0.773 0.294 1.181
v 0.773 0.283 1.17
v 0.762 0.259 1.358
v 0.762 0.19 1.339
v 0.762 0.261 1.255
v 0.762 0.24 1.25
v 0.762 0.346 1.339
v 0.762 0.277 1.358
v 0.762 0.295 1.25
v 0.762 0.275 1.255
v 0.762 0.406 1.284
v 0.762 0.356 1.334
v 0.762 0.318 1.231
v 0.762 0.303 1.246
v 0.762 0.43 1.205
v 0.762 0.411 1.274
v 0.762 0.327 1.203
v 0.762 0.322 1.223
v 0.762 0.356 1.058
v 0.762 0.406 1.108
v 0.762 0.303 1.146
v 0.762 0.318 1.161
v 0.762 0.411 1.118
v 0.762 0.43 1.187
v 0.762 0.322 1.168
v 0.762 0.327 1.189
v 0.762 0.277 1.034
v 0.762 0.346 1.053
v 0.762 0.275 1.136
v 0.762 0.295 1.142
v 0.762 0.19 1.053
v 0.762 0.259 1.034
v 0.762 0.24 1.142
v 0.762 0.261 1.136
v 0.762 0.13 1.108
v 0.762 0.18 1.058
v 0.762 0.218 1.161
v 0.762 0.233 1.146
v 0.762 0.106 1.187
v 0.762 0.125 1.118
v 0.762 0.208 1.189
v 0.762 0.214 1.168
v 0.762 0.125 1.274
v 0.762 0.106 1.205
v 0.762 0.214 1.223
v 0.762 0.208 1.203
v 0.762 0.18 1.334
v 0.762 0.13 1.284
v 0.762 0.233 1.246
v 0.762 0.218 1.231
v 0.721 0.259 1.358
v 0.721 0.19 1.339
v 0.73 0.261 1.255
v 0.73 0.24 1.25
v 0.721 0.346 1.339
v 0.721 0.277 1.358
v 0.73 0.295 1.25
v 0.73 0.275 1.255
v 0.721 0.406 1.284
v 0.721 0.356 1.334
v 0.73 0.318 1.231
v 0.73 0.303 1.246
v 0.721 0.43 1.205
v 0.721 0.411 1.274
v 0.73 0.327 1.203
v 0.73 0.322 1.223
v 0.721 0.356 1.058
v 0.721 0.406 1.108
v 0.73 0.303 1.146
v 0.73 0.318 1.161
v 0.721 0.411 1.118
v 0.721 0.43 1.187
v 0.73 0.322 1.168
v 0.73 0.327 1.189
v 0.721 0.277 1.034
v 0.721 0.346 1.053
v 0.73 0.275 1.136
v 0.73 0.295 1.142
v 0.721 0.19 1.053
v 0.721 0.259 1.034
v 0.73 0.24 1.142
v 0.73 0.261 1.136
v 0.721 0.13 1.108
v 0.721 0.18 1.058
v 0.73 0.218 1.161
v 0.73 0.233 1.146
v 0.721 0.106 1.187
v 0.721 0.125 1.118
v 0.73 0.208 1.189
v 0.73 0.214 1.168
v 0.721 0.125 1.274
v 0.721 0.106 1.205
v 0.73 0.214 1.223
v 0.73 0.208 1.203
v 0.721 0.18 1.334
v 0.721 0.13 1.284
v 0.73 0.233 1.246
v 0.73 0.218 1.231
v 0.767 0.242 1.232
v 0.767 0.231 1.222
v 0.772 0.247 1.223
v 0.772 0.241 1.216
v 0.767 0.231 1.17
v 0.767 0.242 1.159
v 0.772 0.241 1.175
v 0.772 0.247 1.169
v 0.767 0.294 1.159
v 0.767 0.305 1.17
v 0.772 0.288 1.169
v 0.772 0.295 1.175
v 0.767 0.305 1.222
v 0.767 0.294 1.232
v 0.772 0.295 1.216
v 0.772 0.288 1.223
v 0.75 0.242 1.232
v 0.75 0.231 1.222
v 0.755 0.247 1.223
v 0.755 0.241 1.216
v 0.75 0.231 1.17
v 0.75 0.242 1.159
v 0.755 0.241 1.175
v 0.755 0.247 1.169
v 0.75 0.294 1.159
v 0.75 0.305 1.17
v 0.755 0.288 1.169
v 0.755 0.295 1.175
v 0.75 0.305 1.222
v 0.75 0.294 1.232
v 0.755 0.295 1.216
v 0.755 0.288 1.223
usemtl Black
f 1068 1069 1071 1070
f 1070 1071 1073 1072
f 1072 1073 1075 1074
f 1074 1075 1077 1076
f 1076 1077 1079 1078
f 1078 1079 1081 1080
f 1080 1081 1083 1082
f 1082 1083 1085 1084
f 1084 1085 1087 1086
f 1086 1087 1089 1088
f 1081 1079 1097 1098
f 1088 1089 1091 1090
f 1090 1091 1069 1068
f 1068 1070 1072 1074 1076 1078 1080 1082 1084 1086 1088 1090
f 1098 1097 1109 1110
f 1079 1077 1096 1097
f 1077 1075 1095 1096
f 1069 1091 1103 1093
f 1071 1069 1093 1092
f 1075 1073 1094 1095
f 1091 1089 1102 1103
f 1073 1071 1092 1094
f 1089 1087 1101 1102
f 1087 1085 1100 1101
f 1085 1083 1099 1100
f 1083 1081 1098 1099
f 1113 1112 1124 1125
f 1095 1094 1106 1107
f 1102 1101 1113 1114
f 1099 1098 1110 1111
f 1096 1095 1107 1108
f 1103 1102 1114 1115
f 1092 1093 1105 1104
f 1100 1099 1111 1112
f 1097 1096 1108 1109
f 1093 1103 1115 1105
f 1094 1092 1104 1106
f 1101 1100 1112 1113
f 1110 1109 1121 1122
f 1107 1106 1118 1119
f 1114 1113 1125 1126
f 1111 1110 1122 1123
f 1108 1107 1119 1120
f 1115 1114 1126 1127
f 1104 1105 1117 1116
f 1112 1111 1123 1124
f 1109 1108 1120 1121
f 1105 1115 1127 1117
f 1106 1104 1116 1118
f 1200 1201 1203 1202
f 1204 1205 1207 1206
f 1208 1209 1211 1210
f 1212 1213 1215 1214
f 1216 1217 1219 1218
f 1220 1221 1223 1222
f 1224 1225 1227 1226
f 1228 1229 1231 1230
f 1232 1233 1235 1234
f 1236 1237 1239 1238
f 1240 1241 1243 1242
f 1244 1245 1247 1246
f 1264 1265 1267 1266
f 1268 1269 1271 1270
f 1272 1273 1275 1274
f 1276 1277 1279 1278
usemtl Grey
f 1130 1118 1184 1186
f 1129 1139 1151 1141
f 1124 1136 1167 1165
f 1122 1121 1153 1152
f 1130 1131 1190 1191
f 1138 1126 1172 1174
f 1134 1135 1158 1159
f 1119 1131 1195 1193
f 1138 1139 1170 1171
f 1129 1128 1182 1183
f 1136 1124 1160 1162
f 1132 1133 1198 1199
f 1139 1129 1178 1179
f 1140 1141 1151 1150 1149 1148 1147 1146 1145 1144 1143 1142
f 1128 1140 1255 1253
f 1137 1136 1148 1149
f 1134 1133 1145 1146
f 1131 1130 1142 1143
f 1138 1137 1149 1150
f 1135 1134 1146 1147
f 1132 1131 1143 1144
f 1151 1139 1256 1258
f 1128 1129 1141 1140
f 1135 1147 1263 1261
f 1133 1132 1249 1248
f 1155 1154 1202 1203
f 1134 1122 1152 1154
f 1133 1134 1154 1155
f 1121 1133 1155 1153
f 1175 1174 1222 1223
f 1122 1134 1159 1157
f 1123 1122 1157 1156
f 1135 1123 1156 1158
f 1195 1194 1242 1243
f 1123 1135 1163 1161
f 1135 1136 1162 1163
f 1124 1123 1161 1160
f 1166 1164 1212 1214
f 1136 1137 1166 1167
f 1125 1124 1165 1164
f 1137 1125 1164 1166
f 1152 1153 1201 1200
f 1127 1126 1169 1168
f 1126 1138 1171 1169
f 1139 1127 1168 1170
f 1186 1184 1232 1234
f 1125 1137 1175 1173
f 1137 1138 1174 1175
f 1126 1125 1173 1172
f 1172 1173 1221 1220
f 1127 1139 1179 1177
f 1117 1127 1177 1176
f 1129 1117 1176 1178
f 1192 1193 1241 1240
f 1116 1117 1181 1180
f 1128 1116 1180 1182
f 1117 1129 1183 1181
f 1165 1167 1215 1213
f 1128 1130 1186 1187
f 1116 1128 1187 1185
f 1118 1116 1185 1184
f 1185 1187 1235 1233
f 1118 1130 1191 1189
f 1119 1118 1189 1188
f 1131 1119 1188 1190
f 1167 1166 1214 1215
f 1131 1132 1194 1195
f 1120 1119 1193 1192
f 1132 1120 1192 1194
f 1187 1186 1234 1235
f 1121 1120 1197 1196
f 1133 1121 1196 1198
f 1120 1132 1199 1197
f 1193 1195 1243 1241
f 1173 1175 1223 1221
f 1153 1155 1203 1201
f 1180 1181 1229 1228
f 1194 1192 1240 1242
f 1160 1161 1209 1208
f 1174 1172 1220 1222
f 1154 1152 1200 1202
f 1183 1182 1230 1231
f 1163 1162 1210 1211
f 1182 1180 1228 1230
f 1162 1160 1208 1210
f 1188 1189 1237 1236
f 1168 1169 1217 1216
f 1181 1183 1231 1229
f 1161 1163 1211 1209
f 1191 1190 1238 1239
f 1171 1170 1218 1219
f 1189 1191 1239 1237
f 1169 1171 1219 1217
f 1196 1197 1245 1244
f 1176 1177 1225 1224
f 1190 1188 1236 1238
f 1156 1157 1205 1204
f 1170 1168 1216 1218
f 1199 1198 1246 1247
f 1179 1178 1226 1227
f 1159 1158 1206 1207
f 1198 1196 1244 1246
f 1177 1179 1227 1225
f 1157 1159 1207 1205
f 1184 1185 1233 1232
f 1197 1199 1247 1245
f 1164 1165 1213 1212
f 1178 1176 1224 1226
f 1158 1156 1204 1206
f 1248 1249 1265 1264
f 1145 1133 1248 1250
f 1132 1144 1251 1249
f 1144 1145 1250 1251
f 1261 1263 1279 1277
f 1140 1142 1254 1255
f 1130 1128 1253 1252
f 1142 1130 1252 1254
f 1257 1259 1275 1273
f 1150 1151 1258 1259
f 1138 1150 1259 1257
f 1139 1138 1257 1256
f 1262 1260 1276 1278
f 1147 1148 1262 1263
f 1136 1135 1261 1260
f 1148 1136 1260 1262
f 1252 1253 1269 1268
f 1251 1250 1266 1267
f 1256 1257 1273 1272
f 1255 1254 1270 1271
f 1260 1261 1277 1276
f 1250 1248 1264 1266
f 1259 1258 1274 1275
f 1253 1255 1271 1269
f 1263 1262 1278 1279
f 1249 1251 1267 1265
f 1258 1256 1272 1274
f 1254 1252 1268 1270
o NormalCar1_FrontRightWheel_Cube.008
v -0.593 0.268 0.934
v -0.755 0.268 0.934
v -0.593 0.137 0.969
v -0.755 0.137 0.969
v -0.593 0.041 1.065
v -0.755 0.041 1.065
v -0.593 0.006 1.196
v -0.755 0.006 1.196
v -0.593 0.041 1.327
v -0.755 0.041 1.327
v -0.593 0.137 1.423
v -0.755 0.137 1.423
v -0.593 0.268 1.458
v -0.755 0.268 1.458
v -0.593 0.399 1.423
v -0.755 0.399 1.423
v -0.593 0.495 1.327
v -0.755 0.495 1.327
v -0.593 0.53 1.196
v -0.755 0.53 1.196
v -0.593 0.495 1.065
v -0.755 0.495 1.065
v -0.593 0.399 0.969
v -0.755 0.399 0.969
v -0.784 0.169 1.024
v -0.784 0.268 0.998
v -0.784 0.096 1.097
v -0.784 0.07 1.196
v -0.784 0.096 1.295
v -0.784 0.169 1.368
v -0.784 0.268 1.394
v -0.784 0.367 1.368
v -0.784 0.44 1.295
v -0.784 0.466 1.196
v -0.784 0.44 1.097
v -0.784 0.367 1.024
v -0.784 0.181 1.046
v -0.784 0.268 1.023
v -0.784 0.118 1.109
v -0.784 0.095 1.196
v -0.784 0.118 1.282
v -0.784 0.181 1.346
v -0.784 0.268 1.369
v -0.784 0.354 1.346
v -0.784 0.418 1.282
v -0.784 0.441 1.196
v -0.784 0.418 1.109
v -0.784 0.354 1.046
v -0.761 0.181 1.046
v -0.761 0.268 1.023
v -0.761 0.118 1.109
v -0.761 0.095 1.196
v -0.761 0.118 1.282
v -0.761 0.181 1.346
v -0.761 0.268 1.369
v -0.761 0.354 1.346
v -0.761 0.418 1.282
v -0.761 0.441 1.196
v -0.761 0.418 1.109
v -0.761 0.354 1.046
v -0.763 0.244 1.154
v -0.763 0.268 1.147
v -0.763 0.226 1.172
v -0.763 0.219 1.196
v -0.763 0.226 1.22
v -0.763 0.244 1.238
v -0.763 0.268 1.244
v -0.763 0.292 1.238
v -0.763 0.31 1.22
v -0.763 0.316 1.196
v -0.763 0.31 1.172
v -0.763 0.292 1.154
v -0.772 0.253 1.17
v -0.772 0.268 1.166
v -0.772 0.242 1.181
v -0.772 0.238 1.196
v -0.772 0.242 1.211
v -0.772 0.253 1.222
v -0.772 0.268 1.226
v -0.772 0.283 1.222
v -0.772 0.294 1.211
v -0.772 0.298 1.196
v -0.772 0.294 1.181
v -0.772 0.283 1.17
v -0.761 0.259 1.358
v -0.761 0.19 1.339
v -0.76 0.261 1.255
v -0.76 0.24 1.25
v -0.761 0.346 1.339
v -0.761 0.277 1.358
v -0.76 0.295 1.25
v -0.76 0.275 1.255
v -0.761 0.406 1.284
v -0.761 0.356 1.334
v -0.76 0.318 1.231
v -0.76 0.303 1.246
v -0.761 0.43 1.205
v -0.761 0.411 1.274
v -0.76 0.327 1.203
v -0.76 0.322 1.223
v -0.761 0.356 1.058
v -0.761 0.406 1.108
v -0.76 0.303 1.146
v -0.76 0.318 1.161
v -0.761 0.411 1.118
v -0.761 0.43 1.187
v -0.76 0.322 1.168
v -0.76 0.327 1.189
v -0.761 0.277 1.034
v -0.761 0.346 1.053
v -0.76 0.275 1.136
v -0.76 0.295 1.142
v -0.761 0.19 1.053
v -0.761 0.259 1.034
v -0.76 0.24 1.142
v -0.76 0.261 1.136
v -0.761 0.13 1.108
v -0.761 0.18 1.058
v -0.76 0.218 1.161
v -0.76 0.233 1.146
v -0.761 0.106 1.187
v -0.761 0.125 1.118
v -0.76 0.208 1.189
v -0.76 0.214 1.168
v -0.761 0.125 1.274
v -0.761 0.106 1.205
v -0.76 0.214 1.223
v -0.76 0.208 1.203
v -0.761 0.18 1.334
v -0.761 0.13 1.284
v -0.76 0.233 1.246
v -0.76 0.218 1.231
v -0.72 0.259 1.358
v -0.72 0.19 1.339
v -0.729 0.261 1.255
v -0.729 0.24 1.25
v -0.72 0.346 1.339
v -0.72 0.277 1.358
v -0.729 0.295 1.25
v -0.729 0.275 1.255
v -0.72 0.406 1.284
v -0.72 0.356 1.334
v -0.729 0.318 1.231
v -0.729 0.303 1.246
v -0.72 0.43 1.205
v -0.72 0.411 1.274
v -0.729 0.327 1.203
v -0.729 0.322 1.223
v -0.72 0.356 1.058
v -0.72 0.406 1.108
v -0.729 0.303 1.146
v -0.729 0.318 1.161
v -0.72 0.411 1.118
v -0.72 0.43 1.187
v -0.729 0.322 1.168
v -0.729 0.327 1.189
v -0.72 0.277 1.034
v -0.72 0.346 1.053
v -0.729 0.275 1.136
v -0.729 0.295 1.142
v -0.72 0.19 1.053
v -0.72 0.259 1.034
v -0.729 0.24 1.142
v -0.729 0.261 1.136
v -0.72 0.13 1.108
v -0.72 0.18 1.058
v -0.729 0.218 1.161
v -0.729 0.233 1.146
v -0.72 0.106 1.187
v -0.72 0.125 1.118
v -0.729 0.208 1.189
v -0.729 0.214 1.168
v -0.72 0.125 1.274
v -0.72 0.106 1.205
v -0.729 0.214 1.223
v -0.729 0.208 1.203
v -0.72 0.18 1.334
v -0.72 0.13 1.284
v -0.729 0.233 1.246
v -0.729 0.218 1.231
v -0.765 0.242 1.232
v -0.765 0.231 1.222
v -0.77 0.247 1.223
v -0.77 0.241 1.216
v -0.765 0.231 1.17
v -0.765 0.242 1.159
v -0.77 0.241 1.175
v -0.77 0.247 1.169
v -0.765 0.294 1.159
v -0.765 0.305 1.17
v -0.77 0.288 1.169
v -0.77 0.295 1.175
v -0.765 0.305 1.222
v -0.765 0.294 1.232
v -0.77 0.295 1.216
v -0.77 0.288 1.223
v -0.748 0.242 1.232
v -0.748 0.231 1.222
v -0.753 0.247 1.223
v -0.753 0.241 1.216
v -0.748 0.231 1.17
v -0.748 0.242 1.159
v -0.753 0.241 1.175
v -0.753 0.247 1.169
v -0.748 0.294 1.159
v -0.748 0.305 1.17
v -0.753 0.288 1.169
v -0.753 0.295 1.175
v -0.748 0.305 1.222
v -0.748 0.294 1.232
v -0.753 0.295 1.216
v -0.753 0.288 1.223
usemtl Black
f 1280 1282 1283 1281
f 1282 1284 1285 1283
f 1284 1286 1287 1285
f 1286 1288 1289 1287
f 1288 1290 1291 1289
f 1290 1292 1293 1291
f 1292 1294 1295 1293
f 1294 1296 1297 1295
f 1296 1298 1299 1297
f 1298 1300 1301 1299
f 1293 1310 1309 1291
f 1300 1302 1303 1301
f 1302 1280 1281 1303
f 1280 1302 1300 1298 1296 1294 1292 1290 1288 1286 1284 1282
f 1310 1322 1321 1309
f 1291 1309 1308 1289
f 1289 1308 1307 1287
f 1281 1305 1315 1303
f 1283 1304 1305 1281
f 1287 1307 1306 1285
f 1303 1315 1314 1301
f 1285 1306 1304 1283
f 1301 1314 1313 1299
f 1299 1313 1312 1297
f 1297 1312 1311 1295
f 1295 1311 1310 1293
f 1325 1337 1336 1324
f 1307 1319 1318 1306
f 1314 1326 1325 1313
f 1311 1323 1322 1310
f 1308 1320 1319 1307
f 1315 1327 1326 1314
f 1304 1316 1317 1305
f 1312 1324 1323 1311
f 1309 1321 1320 1308
f 1305 1317 1327 1315
f 1306 1318 1316 1304
f 1313 1325 1324 1312
f 1322 1334 1333 1321
f 1319 1331 1330 1318
f 1326 1338 1337 1325
f 1323 1335 1334 1322
f 1320 1332 1331 1319
f 1327 1339 1338 1326
f 1316 1328 1329 1317
f 1324 1336 1335 1323
f 1321 1333 1332 1320
f 1317 1329 1339 1327
f 1318 1330 1328 1316
f 1412 1414 1415 1413
f 1416 1418 1419 1417
f 1420 1422 1423 1421
f 1424 1426 1427 1425
f 1428 1430 1431 1429
f 1432 1434 1435 1433
f 1436 1438 1439 1437
f 1440 1442 1443 1441
f 1444 1446 1447 1445
f 1448 1450 1451 1449
f 1452 1454 1455 1453
f 1456 1458 1459 1457
f 1476 1478 1479 1477
f 1480 1482 1483 1481
f 1484 1486 1487 1485
f 1488 1490 1491 1489
usemtl Grey
f 1342 1398 1396 1330
f 1341 1353 1363 1351
f 1336 1377 1379 1348
f 1334 1364 1365 1333
f 1342 1403 1402 1343
f 1350 1386 1384 1338
f 1346 1371 1370 1347
f 1331 1405 1407 1343
f 1350 1383 1382 1351
f 1341 1395 1394 1340
f 1348 1374 1372 1336
f 1344 1411 1410 1345
f 1351 1391 1390 1341
f 1352 1354 1355 1356 1357 1358 1359 1360 1361 1362 1363 1353
f 1340 1465 1467 1352
f 1349 1361 1360 1348
f 1346 1358 1357 1345
f 1343 1355 1354 1342
f 1350 1362 1361 1349
f 1347 1359 1358 1346
f 1344 1356 1355 1343
f 1363 1470 1468 1351
f 1340 1352 1353 1341
f 1347 1473 1475 1359
f 1345 1460 1461 1344
f 1367 1415 1414 1366
f 1346 1366 1364 1334
f 1345 1367 1366 1346
f 1333 1365 1367 1345
f 1387 1435 1434 1386
f 1334 1369 1371 1346
f 1335 1368 1369 1334
f 1347 1370 1368 1335
f 1407 1455 1454 1406
f 1335 1373 1375 1347
f 1347 1375 1374 1348
f 1336 1372 1373 1335
f 1378 1426 1424 1376
f 1348 1379 1378 1349
f 1337 1376 1377 1336
f 1349 1378 1376 1337
f 1364 1412 1413 1365
f 1339 1380 1381 1338
f 1338 1381 1383 1350
f 1351 1382 1380 1339
f 1398 1446 1444 1396
f 1337 1385 1387 1349
f 1349 1387 1386 1350
f 1338 1384 1385 1337
f 1384 1432 1433 1385
f 1339 1389 1391 1351
f 1329 1388 1389 1339
f 1341 1390 1388 1329
f 1404 1452 1453 1405
f 1328 1392 1393 1329
f 1340 1394 1392 1328
f 1329 1393 1395 1341
f 1377 1425 1427 1379
f 1340 1399 1398 1342
f 1328 1397 1399 1340
f 1330 1396 1397 1328
f 1397 1445 1447 1399
f 1330 1401 1403 1342
f 1331 1400 1401 1330
f 1343 1402 1400 1331
f 1379 1427 1426 1378
f 1343 1407 1406 1344
f 1332 1404 1405 1331
f 1344 1406 1404 1332
f 1399 1447 1446 1398
f 1333 1408 1409 1332
f 1345 1410 1408 1333
f 1332 1409 1411 1344
f 1405 1453 1455 1407
f 1385 1433 1435 1387
f 1365 1413 1415 1367
f 1392 1440 1441 1393
f 1406 1454 1452 1404
f 1372 1420 1421 1373
f 1386 1434 1432 1384
f 1366 1414 1412 1364
f 1395 1443 1442 1394
f 1375 1423 1422 1374
f 1394 1442 1440 1392
f 1374 1422 1420 1372
f 1400 1448 1449 1401
f 1380 1428 1429 1381
f 1393 1441 1443 1395
f 1373 1421 1423 1375
f 1403 1451 1450 1402
f 1383 1431 1430 1382
f 1401 1449 1451 1403
f 1381 1429 1431 1383
f 1408 1456 1457 1409
f 1388 1436 1437 1389
f 1402 1450 1448 1400
f 1368 1416 1417 1369
f 1382 1430 1428 1380
f 1411 1459 1458 1410
f 1391 1439 1438 1390
f 1371 1419 1418 1370
f 1410 1458 1456 1408
f 1389 1437 1439 1391
f 1369 1417 1419 1371
f 1396 1444 1445 1397
f 1409 1457 1459 1411
f 1376 1424 1425 1377
f 1390 1438 1436 1388
f 1370 1418 1416 1368
f 1460 1476 1477 1461
f 1357 1462 1460 1345
f 1344 1461 1463 1356
f 1356 1463 1462 1357
f 1473 1489 1491 1475
f 1352 1467 1466 1354
f 1342 1464 1465 1340
f 1354 1466 1464 1342
f 1469 1485 1487 1471
f 1362 1471 1470 1363
f 1350 1469 1471 1362
f 1351 1468 1469 1350
f 1474 1490 1488 1472
f 1359 1475 1474 1360
f 1348 1472 1473 1347
f 1360 1474 1472 1348
f 1464 1480 1481 1465
f 1463 1479 1478 1462
f 1468 1484 1485 1469
f 1467 1483 1482 1466
f 1472 1488 1489 1473
f 1462 1478 1476 1460
f 1471 1487 1486 1470
f 1465 1481 1483 1467
f 1475 1491 1490 1474
f 1461 1477 1479 1463
f 1470 1486 1484 1468
f 1466 1482 1480 1464
