mtllib SportsCar2.mtl
o SportsCar2_Cube.006
v 0.686 0.417 -1.73
v 0.689 0.584 -1.735
v 0.806 0.422 -0.067
v 0.806 0.676 -0.07
v 0.225 0.632 -1.933
v 0.457 0.622 -1.865
v 0.457 0.422 -1.914
v 0.225 0.422 -1.983
v 0.746 0.81 -0.089
v 0.791 0.598 1.475
v 0.782 0.422 1.501
v 0.225 0.586 1.813
v 0.225 0.422 1.872
v 0.628 0.595 1.698
v 0.834 0.616 1.136
v 0.833 0.668 0.819
v 0.799 0.674 0.26
v 0.746 0.81 0.274
v 0.718 0.81 0.731
v 0.681 0.774 1.196
v 0.243 0.763 1.262
v 0.325 0.805 0.824
v 0.799 0.422 0.248
v 0.833 0.417 0.832
v 0.841 0.603 1.013
v 0.702 0.79 1.043
v 0.301 0.792 1.059
v 0.841 0.422 0.871
v 0.841 0.422 -0.657
v 0.841 0.684 -0.737
v 0.753 0.81 -0.759
v 0.838 0.418 -0.976
v 0.838 0.659 -1.069
v 0.697 0.81 -1.104
v 0.833 0.181 -1.023
v 0.782 0.547 -1.52
v 0.638 0.902 -1.441
v 0.225 0.947 -1.556
v 0.201 0.679 1.73
v 0.652 0.688 1.609
v 0.781 0.519 -1.503
v 0.676 0.309 -1.726
v 0.533 0.162 -0.118
v 0.806 0.162 -0.118
v 0.225 0.325 -1.983
v 0.225 0.162 -0.118
v 0.457 0.325 -1.914
v 0.516 0.251 -1.56
v 0.25 0.251 -1.594
v 0.769 0.166 1.539
v 0.533 0.162 0.293
v 0.229 0.166 1.539
v 0.799 0.162 0.188
v 0.833 0.162 0.737
v 0.841 0.168 0.822
v 0.527 0.166 1.539
v 0.533 0.168 0.822
v 0.533 0.162 0.715
v 0.225 0.162 0.312
v 0.225 0.162 0.753
v 0.225 0.168 0.822
v 0.841 0.162 -0.657
v 0.533 0.162 -0.657
v 0.225 0.162 -0.657
v 0.838 0.163 -0.975
v 0.558 0.163 -0.975
v 0.25 0.163 -0.975
v 0.823 0.596 1.374
v 0.225 0.731 1.451
v 0.672 0.747 1.355
v 0.822 0.564 1.374
v 0.788 0.394 1.449
v 0.829 0.551 1.135
v 0.837 0.499 0.978
v 0.837 0.394 0.921
v 0.776 0.166 1.481
v 0.837 0.168 0.879
v 0.821 0.5 1.351
v 0.537 0.394 1.449
v 0.605 0.557 1.135
v 0.586 0.499 0.978
v 0.586 0.394 0.921
v 0.525 0.166 1.481
v 0.586 0.168 0.879
v 0.57 0.5 1.351
v 0.225 1.187 -0.174
v 0.562 1.15 -0.175
v 0.599 1.128 -0.783
v 0.217 1.177 -0.773
v 0.225 1.166 -0.083
v 0.556 1.128 -0.045
v 0.647 0.979 0.393
v 0.733 0.84 -0.122
v 0.733 0.83 0.264
v 0.594 1.1 -0.978
v 0.225 1.139 -0.953
v 0.654 0.956 -1.057
v 0.656 0.878 -1.796
v 0.225 0.924 -1.9
v 0.723 0.825 0.263
v 0.336 0.827 0.779
v 0.67 0.827 0.697
v 0.698 0.825 0.634
v 0.612 0.979 0.395
v 0.529 1.132 0.001
v 0.236 1.144 0.019
v 0.708 0.83 0.635
v 0.651 0.977 0.335
v 0.723 0.857 -0.755
v 0.569 1.105 -0.056
v 0.576 1.122 -0.165
v 0.732 0.863 -0.755
v 0.678 0.895 -1.037
v 0.664 0.955 -1.013
v 0.631 1.057 -0.822
v 0.622 1.083 -0.772
v 0.82 0.634 -1.284
v 0.833 0.471 -1.1
v 0.833 0.377 -1.037
v 0.535 0.205 -1.18
v 0.25 0.205 -1.202
v 0.569 1.03 -1.188
v 0.752 0.362 -1.655
v 0.752 0.471 -1.613
v 0.752 0.255 -1.673
v 0.476 0.289 -1.77
v 0.25 0.289 -1.766
v 0.817 0.561 -1.292
v 0.757 0.362 -1.612
v 0.757 0.455 -1.579
v 0.757 0.25 -1.63
v 0.555 0.181 -1.028
v 0.53 0.519 -1.503
v 0.555 0.471 -1.101
v 0.56 0.377 -1.041
v 0.542 0.561 -1.292
v 0.517 0.328 -1.607
v 0.522 0.455 -1.578
v 0.507 0.256 -1.629
v 0.551 0.379 -1.152
v 0.552 0.405 -1.143
v 0.528 0.379 -1.517
v 0.529 0.479 -1.499
v 0.336 0.814 0.772
v 0.669 0.814 0.69
v 0.305 0.966 0.471
v 0.611 0.966 0.388
v 0.529 1.118 -0.006
v 0.235 1.131 0.013
v 0.723 0.835 -0.121
v 0.656 0.95 -0.152
v 0.641 0.971 0.334
v 0.652 0.959 0.107
v 0.559 1.101 -0.057
v 0.579 1.115 -0.164
v 0.672 0.89 -1.037
v 0.662 0.974 -0.771
v 0.66 0.951 -1.01
v 0.621 1.051 -0.821
v 0.613 1.076 -0.772
v 0.229 1.14 -0.979
v 0.453 1.027 -1.196
v 0.48 1.098 -1.005
v 0.381 0.964 -1.391
v 0.222 0.954 -1.453
v 0.558 0.967 -1.374
v 0.717 0.464 1.65
v 0.687 0.523 1.618
v 0.698 0.165 1.611
v 0.771 0.206 1.533
v 0.851 0.215 -0.973
v 0.841 0.369 -0.605
v 0.225 0.353 -1.983
v 0.457 0.353 -1.914
v 0.806 0.263 -0.108
v 0.799 0.263 0.2
v 0.833 0.267 0.755
v 0.841 0.272 0.831
v 0.676 0.339 -1.726
v 0.778 0.203 1.476
v 0.837 0.267 0.887
v 0.528 0.203 1.476
v 0.586 0.267 0.887
v 0.757 0.286 -1.628
v 0.846 0.23 -1.02
v 0.752 0.291 -1.671
v 0.509 0.285 -1.627
v 0.556 0.224 -1.025
v 0.518 0.284 -1.552
v 0.538 0.247 -1.175
v 0.7 0.205 1.607
v 0.818 0.263 0.198
v 0.818 0.162 0.187
v 0.86 0.272 0.83
v 0.86 0.168 0.821
v 0.825 0.162 -0.119
v 0.851 0.162 0.736
v 0.86 0.162 -0.658
v 0.857 0.163 -0.976
v 0.856 0.267 0.886
v 0.856 0.168 0.878
v 0.852 0.181 -1.025
v 0.86 0.369 -0.607
v 0.825 0.263 -0.11
v 0.851 0.267 0.754
v 0.8 0.166 1.564
v 0.73 0.164 1.635
v 0.808 0.166 1.506
v 0.473 0.353 -1.932
v 0.473 0.326 -1.932
v 0.769 0.253 -1.69
v 0.693 0.309 -1.744
v 0.241 0.326 -2
v 0.773 0.248 -1.648
v 0.773 0.285 -1.646
v 0.769 0.289 -1.689
v 0.241 0.353 -2
v 0.693 0.339 -1.744
v 0.545 0.42 1.781
v 0.645 0.42 1.713
v 0.639 0.163 1.725
v 0.539 0.163 1.791
v 0.539 0.203 1.791
v 0.639 0.204 1.725
v 0.57 0.163 1.816
v 0.671 0.163 1.75
v 0.727 0.743 0.713
v 0.727 0.773 0.713
v 0.714 0.743 0.691
v 0.714 0.773 0.691
v 0.793 0.735 0.682
v 0.793 0.781 0.682
v 0.758 0.735 0.63
v 0.758 0.781 0.63
v 0.893 0.781 0.507
v 0.866 0.735 0.533
v 0.909 0.735 0.578
v 0.936 0.781 0.552
v 0.87 0.827 0.529
v 0.914 0.827 0.574
v 0.861 0.781 0.637
v 0.826 0.781 0.585
v 0.826 0.735 0.585
v 0.861 0.735 0.637
v 0.861 0.834 0.637
v 0.826 0.834 0.585
v 0.755 0.743 0.666
v 0.755 0.773 0.666
v 0.768 0.743 0.688
v 0.768 0.773 0.688
v 0.758 0.824 0.63
v 0.773 0.84 0.62
v 0.808 0.84 0.672
v 0.793 0.824 0.682
v 0.229 1.044 -1.213
v 0.229 1.127 -0.979
v 0.453 1.015 -1.193
v 0.48 1.085 -1.004
v 0.381 0.95 -1.39
v 0.222 0.941 -1.452
v 0.841 0.689 -0.694
v 0.746 0.81 -0.717
v 0.841 0.422 -0.613
v 0.599 1.131 -0.749
v 0.217 1.179 -0.739
v 0.733 0.862 -0.718
v 0.622 1.086 -0.741
v 0.723 0.857 -0.717
v 0.608 1.08 -0.74
v 0.662 0.976 -0.736
v 0.841 0.305 -0.54
v 0.67 0.98 -0.771
v 0.671 0.982 -0.736
v 0.86 0.305 -0.542
v 0.381 0.421 1.814
v 0.371 0.589 1.753
v 0.378 0.469 1.797
v 0.374 0.573 1.775
v 0.675 0.522 1.626
v 0.62 0.588 1.699
v 0.702 0.468 1.655
v 0.545 0.428 1.775
v 0.636 0.428 1.713
v 0.393 0.473 1.789
v 0.389 0.569 1.771
v 0.664 0.517 1.616
v 0.609 0.583 1.688
v 0.691 0.464 1.645
v 0.534 0.423 1.764
v 0.625 0.424 1.703
v 0.382 0.468 1.778
v 0.378 0.565 1.761
v 0.859 0.426 -0.658
v 0.859 0.688 -0.738
v 0.764 0.814 -0.76
v 0.767 0.509 -1.567
v 0.769 0.487 -1.541
v 0.663 0.877 -1.611
v 0.225 0.893 -1.71
v 0.526 0.487 -1.541
v 0.389 0.203 1.83
v 0.36 0.272 1.854
v 0.394 0.163 1.862
v 0.278 0.304 1.872
v 0.214 0.193 1.824
v 0.225 0.152 1.849
v 0.384 0.152 1.813
v 0.349 0.262 1.805
v 0.378 0.193 1.781
v 0.267 0.293 1.824
v 0.437 0.75 -1.871
v 0.225 0.778 -1.917
v 0.672 0.739 -1.767
v 0.447 0.654 -1.869
v 0.64 0.645 -1.777
v 0.251 0.659 -1.929
v 0.447 0.713 -1.87
v 0.251 0.726 -1.914
v 0.647 0.708 -1.782
v 0.438 0.799 -1.872
v 0.616 0.85 -1.809
v 0.268 0.81 -1.912
v 0.268 0.868 -1.899
v 0.628 0.795 -1.786
v 0.19 0.454 -1.979
v 0.19 0.6 -1.945
v 0.185 0.444 -1.953
v 0.185 0.59 -1.919
v 0.639 0.74 -1.781
v 0.589 0.712 -1.802
v 0.576 0.792 -1.804
v 0.584 0.743 -1.801
v 0.434 0.653 -1.837
v 0.627 0.644 -1.745
v 0.634 0.707 -1.751
v 0.576 0.711 -1.771
v 0.255 0.809 -1.88
v 0.255 0.867 -1.867
v 0.603 0.849 -1.778
v 0.615 0.793 -1.754
v 0.425 0.798 -1.84
v 0.563 0.791 -1.772
v 0.434 0.712 -1.838
v 0.571 0.742 -1.769
v 0.626 0.739 -1.75
v -0.686 0.417 -1.73
v -0.689 0.584 -1.735
v -0.806 0.422 -0.067
v -0.806 0.676 -0.07
v 0 0.422 -2.011
v 0 0.632 -1.961
v -0.225 0.632 -1.933
v -0.457 0.622 -1.865
v -0.457 0.422 -1.914
v -0.225 0.422 -1.983
v -0.746 0.81 -0.089
v -0.791 0.598 1.475
v -0.782 0.422 1.501
v -0.225 0.586 1.813
v 0 0.586 1.838
v 0 0.422 1.898
v -0.225 0.422 1.872
v -0.628 0.595 1.698
v -0.834 0.616 1.136
v -0.833 0.668 0.819
v -0.799 0.674 0.26
v -0.746 0.81 0.274
v -0.718 0.81 0.731
v -0.681 0.774 1.196
v 0 0.805 0.83
v -0.243 0.763 1.262
v -0.325 0.805 0.824
v -0.799 0.422 0.248
v -0.833 0.417 0.832
v -0.841 0.603 1.013
v -0.702 0.79 1.043
v -0.301 0.792 1.059
v -0.841 0.422 0.871
v -0.841 0.422 -0.657
v -0.841 0.684 -0.737
v -0.753 0.81 -0.759
v -0.838 0.418 -0.976
v -0.838 0.659 -1.069
v -0.697 0.81 -1.104
v -0.833 0.181 -1.023
v -0.782 0.547 -1.52
v 0 0.949 -1.57
v -0.638 0.902 -1.441
v -0.225 0.947 -1.556
v -0.201 0.679 1.73
v 0 0.677 1.746
v -0.652 0.688 1.609
v -0.781 0.519 -1.503
v -0.676 0.309 -1.726
v -0.533 0.162 -0.118
v -0.806 0.162 -0.118
v -0.225 0.325 -1.983
v 0 0.325 -2.011
v 0 0.251 -1.608
v 0 0.162 -0.118
v -0.225 0.162 -0.118
v -0.457 0.325 -1.914
v -0.516 0.251 -1.56
v -0.25 0.251 -1.594
v -0.769 0.166 1.539
v -0.533 0.162 0.293
v -0.229 0.166 1.539
v 0 0.162 0.315
v -0.799 0.162 0.188
v -0.833 0.162 0.737
v -0.841 0.168 0.822
v -0.527 0.166 1.539
v -0.533 0.168 0.822
v -0.533 0.162 0.715
v -0.225 0.162 0.312
v -0.225 0.162 0.753
v -0.225 0.168 0.822
v 0 0.166 1.539
v 0 0.168 0.822
v 0 0.162 0.759
v -0.841 0.162 -0.657
v 0 0.162 -0.657
v -0.533 0.162 -0.657
v -0.225 0.162 -0.657
v -0.838 0.163 -0.975
v 0 0.163 -0.975
v -0.558 0.163 -0.975
v -0.25 0.163 -0.975
v -0.823 0.596 1.374
v -0.225 0.731 1.451
v -0.672 0.747 1.355
v -0.822 0.564 1.374
v -0.788 0.394 1.449
v -0.829 0.551 1.135
v -0.837 0.499 0.978
v -0.837 0.394 0.921
v -0.776 0.166 1.481
v -0.837 0.168 0.879
v -0.821 0.5 1.351
v -0.537 0.394 1.449
v -0.605 0.557 1.135
v -0.586 0.499 0.978
v -0.586 0.394 0.921
v -0.525 0.166 1.481
v -0.586 0.168 0.879
v -0.57 0.5 1.351
v -0.225 1.187 -0.174
v 0 1.187 -0.174
v 0 1.182 -0.773
v -0.562 1.15 -0.175
v -0.599 1.128 -0.783
v -0.217 1.177 -0.773
v -0.225 1.166 -0.083
v -0.556 1.128 -0.045
v -0.647 0.979 0.393
v 0 1.183 -0.08
v -0.733 0.84 -0.122
v -0.733 0.83 0.264
v 0 1.139 -0.953
v -0.594 1.1 -0.978
v -0.225 1.139 -0.953
v -0.654 0.956 -1.057
v -0.656 0.878 -1.796
v 0 0.931 -1.917
v -0.225 0.924 -1.9
v -0.723 0.825 0.263
v 0 0.827 0.784
v -0.336 0.827 0.779
v -0.67 0.827 0.697
v -0.698 0.825 0.634
v -0.612 0.979 0.395
v -0.529 1.132 0.001
v 0 1.161 0.035
v -0.236 1.144 0.019
v -0.708 0.83 0.635
v -0.651 0.977 0.335
v -0.723 0.857 -0.755
v -0.569 1.105 -0.056
v -0.576 1.122 -0.165
v -0.732 0.863 -0.755
v -0.678 0.895 -1.037
v -0.664 0.955 -1.013
v -0.631 1.057 -0.822
v -0.622 1.083 -0.772
v -0.82 0.634 -1.284
v -0.833 0.471 -1.1
v -0.833 0.377 -1.037
v 0 0.205 -1.195
v -0.535 0.205 -1.18
v -0.25 0.205 -1.202
v -0.569 1.03 -1.188
v -0.752 0.362 -1.655
v -0.752 0.471 -1.613
v -0.752 0.255 -1.673
v 0 0.289 -1.787
v -0.476 0.289 -1.77
v -0.25 0.289 -1.766
v -0.817 0.561 -1.292
v -0.757 0.362 -1.612
v -0.757 0.455 -1.579
v -0.757 0.25 -1.63
v -0.555 0.181 -1.028
v -0.53 0.519 -1.503
v -0.555 0.471 -1.101
v -0.56 0.377 -1.041
v -0.542 0.561 -1.292
v -0.517 0.328 -1.607
v -0.522 0.455 -1.578
v -0.507 0.256 -1.629
v 0 0.814 0.778
v -0.551 0.379 -1.152
v -0.552 0.405 -1.143
v 0 0.966 0.476
v -0.528 0.379 -1.517
v -0.529 0.479 -1.499
v -0.336 0.814 0.772
v -0.669 0.814 0.69
v -0.305 0.966 0.471
v -0.611 0.966 0.388
v -0.529 1.118 -0.006
v 0 1.148 0.028
v -0.235 1.131 0.013
v -0.723 0.835 -0.121
v -0.656 0.95 -0.152
v -0.641 0.971 0.334
v -0.652 0.959 0.107
v -0.559 1.101 -0.057
v -0.579 1.115 -0.164
v -0.672 0.89 -1.037
v -0.662 0.974 -0.771
v -0.66 0.951 -1.01
v -0.621 1.051 -0.821
v -0.613 1.076 -0.772
v -0.229 1.14 -0.979
v 0 1.14 -0.979
v -0.453 1.027 -1.196
v -0.48 1.098 -1.005
v -0.381 0.964 -1.391
v -0.222 0.954 -1.453
v 0 0.958 -1.465
v -0.558 0.967 -1.374
v -0.717 0.464 1.65
v -0.687 0.523 1.618
v -0.698 0.165 1.611
v -0.771 0.206 1.533
v 0 0.353 -2.011
v -0.851 0.215 -0.973
v -0.841 0.369 -0.605
v -0.225 0.353 -1.983
v -0.457 0.353 -1.914
v -0.806 0.263 -0.108
v -0.799 0.263 0.2
v -0.833 0.267 0.755
v -0.841 0.272 0.831
v -0.676 0.339 -1.726
v -0.778 0.203 1.476
v -0.837 0.267 0.887
v -0.528 0.203 1.476
v -0.586 0.267 0.887
v -0.757 0.286 -1.628
v -0.846 0.23 -1.02
v -0.752 0.291 -1.671
v -0.509 0.285 -1.627
v -0.556 0.224 -1.025
v -0.518 0.284 -1.552
v -0.538 0.247 -1.175
v -0.7 0.205 1.607
v -0.818 0.263 0.198
v -0.818 0.162 0.187
v -0.86 0.272 0.83
v -0.86 0.168 0.821
v -0.825 0.162 -0.119
v -0.851 0.162 0.736
v -0.86 0.162 -0.658
v -0.857 0.163 -0.976
v -0.856 0.267 0.886
v -0.856 0.168 0.878
v -0.852 0.181 -1.025
v -0.86 0.369 -0.607
v -0.825 0.263 -0.11
v -0.851 0.267 0.754
v -0.8 0.166 1.564
v -0.73 0.164 1.635
v -0.808 0.166 1.506
v -0.473 0.353 -1.932
v -0.473 0.326 -1.932
v -0.769 0.253 -1.69
v -0.693 0.309 -1.744
v -0.241 0.326 -2
v 0 0.326 -2.029
v -0.773 0.248 -1.648
v -0.773 0.285 -1.646
v -0.769 0.289 -1.689
v 0 0.353 -2.029
v -0.241 0.353 -2
v -0.693 0.339 -1.744
v 0 0.789 1.072
v 0 0.762 1.266
v 0 0.737 1.468
v -0.545 0.42 1.781
v -0.645 0.42 1.713
v -0.639 0.163 1.725
v -0.539 0.163 1.791
v -0.539 0.203 1.791
v -0.639 0.204 1.725
v -0.57 0.163 1.816
v -0.671 0.163 1.75
v -0.727 0.743 0.713
v -0.727 0.773 0.713
v -0.714 0.743 0.691
v -0.714 0.773 0.691
v -0.793 0.735 0.682
v -0.793 0.781 0.682
v -0.758 0.735 0.63
v -0.758 0.781 0.63
v -0.893 0.781 0.507
v -0.866 0.735 0.533
v -0.909 0.735 0.578
v -0.936 0.781 0.552
v -0.87 0.827 0.529
v -0.914 0.827 0.574
v -0.861 0.781 0.637
v -0.826 0.781 0.585
v -0.826 0.735 0.585
v -0.861 0.735 0.637
v -0.861 0.834 0.637
v -0.826 0.834 0.585
v -0.755 0.743 0.666
v -0.755 0.773 0.666
v -0.768 0.743 0.688
v -0.768 0.773 0.688
v -0.758 0.824 0.63
v -0.773 0.84 0.62
v -0.808 0.84 0.672
v -0.793 0.824 0.682
v -0.229 1.044 -1.213
v -0.229 1.127 -0.979
v 0 1.044 -1.221
v 0 1.127 -0.979
v -0.453 1.015 -1.193
v -0.48 1.085 -1.004
v -0.381 0.95 -1.39
v -0.222 0.941 -1.452
v 0 0.945 -1.465
v -0.841 0.689 -0.694
v -0.746 0.81 -0.717
v -0.841 0.422 -0.613
v 0 1.184 -0.739
v -0.599 1.131 -0.749
v -0.217 1.179 -0.739
v -0.733 0.862 -0.718
v -0.622 1.086 -0.741
v -0.723 0.857 -0.717
v -0.608 1.08 -0.74
v -0.662 0.976 -0.736
v -0.841 0.305 -0.54
v -0.67 0.98 -0.771
v -0.671 0.982 -0.736
v -0.86 0.305 -0.542
v -0.381 0.421 1.814
v -0.371 0.589 1.753
v -0.378 0.469 1.797
v -0.374 0.573 1.775
v -0.675 0.522 1.626
v -0.62 0.588 1.699
v -0.702 0.468 1.655
v -0.545 0.428 1.775
v -0.636 0.428 1.713
v -0.393 0.473 1.789
v -0.389 0.569 1.771
v -0.664 0.517 1.616
v -0.609 0.583 1.688
v -0.691 0.464 1.645
v -0.534 0.423 1.764
v -0.625 0.424 1.703
v -0.382 0.468 1.778
v -0.378 0.565 1.761
v -0.859 0.426 -0.658
v -0.859 0.688 -0.738
v -0.764 0.814 -0.76
v -0.767 0.509 -1.567
v -0.769 0.487 -1.541
v 0 0.911 -1.759
v -0.663 0.877 -1.611
v -0.225 0.893 -1.71
v -0.526 0.487 -1.541
v -0.389 0.203 1.83
v 0 0.304 1.898
v -0.36 0.272 1.854
v -0.394 0.163 1.862
v -0.278 0.304 1.872
v 0 0.294 1.849
v 0 0.193 1.849
v -0.214 0.193 1.824
v 0 0.152 1.874
v -0.225 0.152 1.849
v -0.384 0.152 1.813
v -0.349 0.262 1.805
v -0.378 0.193 1.781
v -0.267 0.293 1.824
v -0.437 0.75 -1.871
v 0 0.782 -1.939
v -0.225 0.778 -1.917
v -0.672 0.739 -1.767
v -0.447 0.654 -1.869
v -0.64 0.645 -1.777
v -0.251 0.659 -1.929
v -0.447 0.713 -1.87
v -0.251 0.726 -1.914
v -0.647 0.708 -1.782
v -0.438 0.799 -1.872
v -0.616 0.85 -1.809
v -0.268 0.81 -1.912
v -0.268 0.868 -1.899
v -0.628 0.795 -1.786
v -0.19 0.454 -1.979
v 0 0.454 -1.999
v 0 0.6 -1.965
v -0.19 0.6 -1.945
v -0.185 0.444 -1.953
v 0 0.444 -1.972
v 0 0.59 -1.938
v -0.185 0.59 -1.919
v -0.639 0.74 -1.781
v -0.589 0.712 -1.802
v -0.576 0.792 -1.804
v -0.584 0.743 -1.801
v -0.434 0.653 -1.837
v -0.627 0.644 -1.745
v -0.634 0.707 -1.751
v -0.576 0.711 -1.771
v -0.255 0.809 -1.88
v -0.255 0.867 -1.867
v -0.603 0.849 -1.778
v -0.615 0.793 -1.754
v -0.425 0.798 -1.84
v -0.563 0.791 -1.772
v -0.434 0.712 -1.838
v -0.571 0.742 -1.769
v -0.626 0.739 -1.75
usemtl White
f 7 6 2 1
f 263 261 4 3
f 598 21 27 597
f 68 70 40 10
f 299 99 464 683
f 296 124 98 298
f 351 5 326 718
f 8 5 6 7
f 39 276 14 40
f 70 69 39 40
f 4 9 18 17
f 23 17 16 24
f 38 387 540 165
f 92 19 107 108
f 26 27 21 20
f 17 18 19 16
f 25 26 20 15
f 370 22 101 467
f 186 184 215 216
f 16 19 26 25
f 19 22 27 26
f 44 62 198 196
f 24 16 25 28
f 261 30 31 262
f 177 178 194 205
f 125 42 212 211
f 301 302 308 309
f 32 33 294 293
f 62 65 199 198
f 19 92 104 102
f 303 307 225
f 36 117 128 41
f 123 124 130 129
f 39 391 360 12
f 10 40 168
f 220 167 281 283
f 13 361 688 304
f 131 125 211 214
f 64 46 400 422
f 62 44 43 63
f 63 43 46 64
f 46 43 51 59
f 59 51 58 60
f 400 46 59 408
f 408 59 60 420
f 43 44 53 51
f 51 53 54 58
f 58 54 55 57
f 420 60 61 419
f 60 58 57 61
f 66 63 64 67
f 65 62 63 66
f 67 64 422 426
f 121 67 426 488
f 117 33 118 128
f 120 132 67 121
f 126 139 127
f 172 271 274 203
f 127 49 399 495
f 221 169 207 226
f 56 50 169 221
f 11 71 68 10
f 20 21 69 70
f 15 20 70 68
f 599 69 21 598
f 68 71 15
f 71 11 72 78
f 180 170 206 208
f 25 15 73 74
f 28 25 74 75
f 15 71 78 73
f 178 28 75 181
f 180 76 83 182
f 78 72 79 85
f 181 75 82 183
f 74 73 80 81
f 73 78 85 80
f 75 74 81 82
f 182 183 82 79
f 85 81 80
f 56 83 76 50
f 79 82 81 85
f 55 77 84 57
f 57 84 61
f 419 61 52 418
f 52 83 56
f 61 84 83 52
f 87 86 90 91
f 22 19 102 101
f 86 448 456 90
f 92 91 105 104
f 264 88 89 265
f 265 89 449 648
f 88 95 96 89
f 89 96 459 449
f 95 122 162 163
f 262 31 112 266
f 34 97 114 113
f 18 9 93 94
f 91 92 108 110
f 702 312 5 351
f 6 5 316 314
f 312 99 323 322
f 467 101 144 510
f 102 104 147 145
f 105 106 149 148
f 106 473 521 149
f 90 456 473 106
f 91 90 106 105
f 107 94 100 103
f 94 93 150 100
f 110 108 152 154
f 19 18 94 107
f 87 91 110 111
f 112 113 156 109
f 114 115 159 158
f 97 95 115 114
f 95 88 116 115
f 264 87 111 267
f 48 120 121 49
f 33 32 119 118
f 49 121 488 399
f 33 117 34
f 296 36 41 297
f 186 123 129 184
f 37 38 165 164
f 45 127 495 398
f 97 122 95
f 42 126 47
f 47 126 127 45
f 1 2 124 123
f 42 47 210 212
f 126 42 125
f 129 130 138 137
f 118 119 135 134
f 128 118 134 136
f 41 128 136 133
f 185 35 132 188
f 184 129 137 187
f 297 41 133 300
f 187 137 142 189
f 134 133 136
f 135 140 141
f 138 300 143
f 66 132 35 65
f 131 139 126 125
f 67 132 66
f 127 139 48 49
f 141 140 142 143
f 141 134 135
f 190 140 135 188
f 143 142 137 138
f 143 133 134 141
f 189 142 140 190
f 104 105 148 147
f 101 102 145 144
f 111 110 154 155
f 108 107 103 152
f 157 160 116 272
f 270 268 266 273
f 267 111 155 269
f 113 114 158 156
f 115 116 160 159
f 163 162 257 258
f 165 540 644 260
f 535 161 256 639
f 164 165 260 259
f 122 166 164 162
f 164 166 37
f 166 122 97
f 169 50 206 207
f 167 220 224 191
f 11 10 168 167
f 11 167 191 170
f 48 189 190 120
f 120 190 188 132
f 139 187 189 48
f 131 184 187 139
f 119 185 188 135
f 1 123 186 179
f 179 186 216 218
f 83 84 183 182
f 77 181 183 84
f 72 180 182 79
f 54 53 193 197
f 11 170 180 72
f 32 171 185 119
f 8 7 174 173
f 24 28 178 177
f 23 24 177 176
f 350 8 173 546
f 263 3 175 271
f 29 172 203 293
f 7 1 179 174
f 171 203 198 199
f 76 180 208
f 223 225 226 224
f 203 274 198
f 192 205 197 193
f 204 192 193 196
f 205 194 195 197
f 171 199 202 185
f 195 194 200 201
f 35 185 202
f 176 177 205 192
f 65 35 202 199
f 181 77 201 200
f 55 54 197 195
f 53 44 196 193
f 178 181 200 194
f 77 55 195 201
f 225 307 222
f 52 306 695 418
f 50 76 208 206
f 307 306 52
f 209 218 212 210
f 594 217 213 590
f 217 209 210 213
f 218 216 211 212
f 211 216 215 214
f 47 45 213 210
f 173 174 209 217
f 184 131 214 215
f 174 179 218 209
f 546 173 217 594
f 45 398 590 213
f 597 27 22 370
f 391 39 69 599
f 221 222 56
f 224 220 219 223
f 226 207 191 224
f 225 222 221 226
f 162 164 259 257
f 161 163 258 256
f 168 40 14
f 219 275 302 301 223
f 168 14 280 279
f 278 277 284 285
f 360 361 13 12
f 29 263 271 172
f 88 264 267 116
f 93 266 268 150
f 9 262 266 93
f 86 265 648 448
f 87 264 265 86
f 4 261 262 9
f 29 30 261 263
f 266 112 272 273
f 273 272 116 267
f 109 157 272 112
f 269 270 273 267
f 198 274 204 196
f 274 271 175 204
f 96 95 163 161
f 117 37 34
f 459 96 161 535
f 298 98 99 299
f 275 277 13
f 282 283 290 289
f 277 275 219
f 278 14 276
f 285 284 291 292
f 280 285 292 287
f 219 220 283 282
f 277 219 282 284
f 167 168 279 281
f 14 278 285 280
f 279 280 287 286
f 284 282 289 291
f 283 281 288 290
f 281 279 286 288
f 13 277 278 12
f 12 278 276
f 276 39 12
f 52 56 222 307
f 17 23 3 4
f 204 175 176 192
f 175 3 23 176
f 33 34 295 294
f 34 113 112 295
f 32 293 203 171
f 112 31 295
f 31 30 294 295
f 30 29 293 294
f 207 206 170 191
f 36 37 117
f 98 124 2 313
f 34 37 166 97
f 37 298 299 38
f 130 297 300 138
f 124 296 297 130
f 36 296 298 37
f 38 299 683 387
f 143 300 133
f 301 303 225 223
f 304 302 275 13
f 302 304 310 308
f 304 688 692 310
f 303 301 309 307
f 99 98 321 323
f 464 99 312 702
f 311 332 330 317
f 323 321 339 338
f 5 312 318 316
f 313 2 315 319
f 2 6 314 315
f 312 311 317 318
f 314 317 343 333
f 313 329 324
f 98 313 324 321
f 311 312 322 320
f 316 318 317 314
f 326 325 327 328
f 8 350 717 325
f 5 8 325 326
f 718 326 328 722
f 325 717 721 327
f 319 329 313
f 332 331 342 344
f 331 332 311 320
f 319 315 334 335
f 330 332 344 336
f 321 324 340 339
f 329 319 335 345
f 320 322 337 341
f 324 329 345 340
f 315 314 333 334
f 317 330 336 343
f 331 320 341 342
f 322 323 338 337
f 354 346 347 353
f 647 348 349 645
f 598 597 377 371
f 429 357 392 431
f 685 683 464 465
f 681 684 463 493
f 351 718 719 352
f 355 354 353 352
f 390 392 363 661
f 431 392 390 430
f 349 366 367 356
f 373 374 365 366
f 389 539 540 387
f 455 476 475 368
f 376 369 371 377
f 366 365 368 367
f 375 364 369 376
f 370 467 468 372
f 562 593 592 560
f 365 375 376 368
f 368 376 377 372
f 396 572 574 421
f 374 378 375 365
f 645 646 381 380
f 553 581 570 554
f 494 587 588 394
f 687 699 698 689
f 382 678 679 383
f 421 574 575 425
f 368 469 471 455
f 690 606 697
f 386 393 498 485
f 492 499 500 493
f 390 359 360 391
f 357 543 392
f 601 668 666 542
f 362 691 688 361
f 501 591 587 494
f 424 422 400 401
f 421 423 395 396
f 423 424 401 395
f 401 415 406 395
f 415 416 414 406
f 400 408 415 401
f 408 420 416 415
f 395 406 409 396
f 406 414 410 409
f 414 413 411 410
f 420 419 417 416
f 416 417 413 414
f 427 428 424 423
f 425 427 423 421
f 428 426 422 424
f 490 488 426 428
f 485 498 486 383
f 489 490 428 502
f 496 497 509
f 548 579 659 656
f 497 495 399 404
f 602 607 583 544
f 412 602 544 405
f 358 357 429 432
f 369 431 430 371
f 364 429 431 369
f 599 598 371 430
f 429 364 432
f 432 439 433 358
f 556 584 582 545
f 375 435 434 364
f 378 436 435 375
f 364 434 439 432
f 554 557 436 378
f 556 558 444 437
f 439 446 440 433
f 557 559 443 436
f 435 442 441 434
f 434 441 446 439
f 436 443 442 435
f 558 440 443 559
f 446 441 442
f 412 405 437 444
f 440 446 442 443
f 411 413 445 438
f 413 417 445
f 419 418 407 417
f 407 412 444
f 417 407 444 445
f 450 454 453 447
f 372 468 469 368
f 447 453 456 448
f 455 471 472 454
f 649 650 452 451
f 650 648 449 452
f 451 452 461 460
f 452 449 459 461
f 460 537 536 491
f 646 651 480 381
f 384 481 482 462
f 367 458 457 356
f 454 478 476 455
f 702 351 352 703
f 353 705 707 352
f 703 713 714 465
f 467 510 516 468
f 469 517 519 471
f 472 520 522 474
f 474 522 521 473
f 453 474 473 456
f 454 472 474 453
f 475 470 466 458
f 458 466 523 457
f 478 527 525 476
f 368 475 458 367
f 450 479 478 454
f 480 477 529 481
f 482 531 532 483
f 462 482 483 460
f 460 483 484 451
f 649 652 479 450
f 403 404 490 489
f 383 486 487 382
f 404 399 488 490
f 383 384 485
f 681 682 393 386
f 562 560 499 492
f 388 538 539 389
f 397 398 495 497
f 462 460 491
f 394 402 496
f 402 397 497 496
f 346 492 493 347
f 394 588 586 402
f 496 494 394
f 499 507 508 500
f 486 504 505 487
f 498 506 504 486
f 393 503 506 498
f 561 564 502 385
f 560 563 507 499
f 682 686 503 393
f 563 565 514 507
f 504 506 503
f 505 512 511
f 508 515 686
f 427 425 385 502
f 501 494 496 509
f 428 427 502
f 497 404 403 509
f 512 515 514 511
f 512 505 504
f 566 564 505 511
f 515 508 507 514
f 515 512 504 503
f 565 566 511 514
f 471 519 520 472
f 468 516 517 469
f 479 528 527 478
f 476 525 470 475
f 530 657 484 533
f 655 658 651 653
f 652 654 528 479
f 481 529 531 482
f 483 532 533 484
f 537 641 640 536
f 539 643 644 540
f 535 639 637 534
f 538 642 643 539
f 491 536 538 541
f 538 388 541
f 541 462 491
f 544 583 582 405
f 542 567 605 601
f 358 542 543 357
f 358 545 567 542
f 403 489 566 565
f 489 502 564 566
f 509 403 565 563
f 501 509 563 560
f 487 505 564 561
f 346 555 562 492
f 555 596 593 562
f 444 558 559 445
f 438 445 559 557
f 433 440 558 556
f 410 573 569 409
f 358 433 556 545
f 382 487 561 547
f 355 549 550 354
f 374 553 554 378
f 373 552 553 374
f 350 546 549 355
f 647 656 551 348
f 379 678 579 548
f 354 550 555 346
f 547 575 574 579
f 437 584 556
f 604 605 607 606
f 579 574 659
f 568 569 573 581
f 580 572 569 568
f 581 573 571 570
f 547 561 578 575
f 571 577 576 570
f 385 578 561
f 552 568 581 553
f 425 575 578 385
f 557 576 577 438
f 411 571 573 410
f 409 569 572 396
f 554 570 576 557
f 438 577 571 411
f 606 603 697
f 407 418 695 696
f 405 582 584 437
f 697 407 696
f 585 586 588 596
f 594 590 589 595
f 595 589 586 585
f 596 588 587 593
f 587 591 592 593
f 402 586 589 397
f 549 595 585 550
f 560 592 591 501
f 550 585 596 555
f 546 594 595 549
f 397 589 590 398
f 597 370 372 377
f 391 599 430 390
f 602 412 603
f 605 604 600 601
f 607 605 567 583
f 606 607 602 603
f 536 640 642 538
f 534 637 641 537
f 543 363 392
f 600 604 687 689 660
f 543 664 665 363
f 663 670 669 662
f 360 359 362 361
f 379 548 656 647
f 451 484 652 649
f 457 523 653 651
f 356 457 651 646
f 447 448 648 650
f 450 447 650 649
f 349 356 646 645
f 379 647 645 380
f 651 658 657 480
f 658 652 484 657
f 477 480 657 530
f 654 652 658 655
f 574 572 580 659
f 659 580 551 656
f 461 534 537 460
f 485 384 388
f 459 535 534 461
f 684 685 465 463
f 660 362 662
f 667 674 675 668
f 662 600 660
f 663 661 363
f 670 677 676 669
f 665 672 677 670
f 600 667 668 601
f 662 669 667 600
f 542 666 664 543
f 363 665 670 663
f 664 671 672 665
f 669 676 674 667
f 668 675 673 666
f 666 673 671 664
f 362 359 663 662
f 359 661 663
f 661 359 390
f 407 697 603 412
f 366 349 348 373
f 580 568 552 551
f 551 552 373 348
f 383 679 680 384
f 384 680 480 481
f 382 547 579 678
f 480 680 381
f 381 680 679 380
f 380 679 678 379
f 583 567 545 582
f 386 485 388
f 463 704 347 493
f 384 462 541 388
f 388 389 685 684
f 500 508 686 682
f 493 500 682 681
f 386 388 684 681
f 389 387 683 685
f 515 503 686
f 687 604 606 690
f 691 362 660 689
f 689 698 700 691
f 691 700 692 688
f 690 697 699 687
f 465 714 712 463
f 464 702 703 465
f 701 708 725 727
f 714 733 734 712
f 352 707 709 703
f 704 710 706 347
f 347 706 705 353
f 703 709 708 701
f 705 728 738 708
f 704 715 724
f 463 712 715 704
f 701 711 713 703
f 707 705 708 709
f 719 723 720 716
f 355 716 717 350
f 352 719 716 355
f 718 722 723 719
f 716 720 721 717
f 710 704 724
f 727 739 737 726
f 726 711 701 727
f 710 730 729 706
f 725 731 739 727
f 712 734 735 715
f 724 740 730 710
f 711 736 732 713
f 715 735 740 724
f 706 729 728 705
f 708 738 731 725
f 726 737 736 711
f 713 732 733 714
usemtl Windows
f 510 144 146 513
f 144 145 147 146
f 148 149 146 147
f 149 521 513 146
f 100 150 151 153
f 103 100 153 152
f 153 151 155 154
f 152 153 154
f 109 156 158 157
f 157 158 159
f 159 160 157
f 257 255 256 258
f 255 638 639 256
f 260 644 638 255
f 259 260 255 257
f 151 270 269 155
f 150 268 270 151
f 510 513 518 516
f 516 518 519 517
f 520 519 518 522
f 522 518 513 521
f 466 526 524 523
f 470 525 526 466
f 526 527 528 524
f 525 527 526
f 477 530 531 529
f 530 532 531
f 532 530 533
f 640 641 637 636
f 636 637 639 638
f 643 636 638 644
f 642 640 636 643
f 524 528 654 655
f 523 524 655 653
usemtl Grey
f 227 228 230 229
f 247 248 234 233
f 241 238 240 245
f 249 250 228 227
f 247 233 231 249
f 248 230 228 250
f 236 235 238 237
f 243 242 235 236
f 241 244 237 238
f 244 243 236 237
f 246 245 240 239
f 238 235 239 240
f 232 241 245 253 254
f 234 232 254 251
f 235 242 246 239
f 242 234 251 252 246
f 231 233 243 244
f 232 231 244 241
f 233 234 242 243
f 234 248 250 232
f 229 247 249 227
f 231 232 250 249
f 229 230 248 247
f 251 254 253 252
f 252 253 245 246
f 305 306 307 309
f 693 695 306 305
f 305 308 310
f 309 308 305
f 310 692 693 305
f 721 722 328 327
f 608 610 611 609
f 628 614 615 629
f 622 626 621 619
f 630 608 609 631
f 628 630 612 614
f 629 631 609 611
f 617 618 619 616
f 624 617 616 623
f 622 619 618 625
f 625 618 617 624
f 627 620 621 626
f 619 621 620 616
f 613 635 634 626 622
f 615 632 635 613
f 616 620 627 623
f 623 627 633 632 615
f 612 625 624 614
f 613 622 625 612
f 614 624 623 615
f 615 613 631 629
f 610 608 630 628
f 612 630 631 613
f 610 628 629 611
f 632 633 634 635
f 633 627 626 634
f 694 699 697 696
f 693 694 696 695
f 694 700 698
f 699 694 698
f 700 694 693 692
f 721 720 723 722
usemtl Headlights
f 289 287 292 291
f 288 286 287 290
f 290 287 289
f 674 676 677 672
f 673 675 672 671
f 675 674 672
usemtl TailLights
f 341 337 338 339 340 342
f 334 333 343 336 335
f 340 345 344 342
f 336 344 345 335
f 736 737 735 734 733 732
f 729 730 731 738 728
f 735 737 739 740
f 731 730 740 739
o SportsCar2_BackWheels_Cylinder.002
v 0.613 0.265 -1.601
v 0.761 0.265 -1.601
v 0.613 0.124 -1.564
v 0.761 0.124 -1.564
v 0.613 0.022 -1.461
v 0.761 0.022 -1.461
v 0.613 -0.016 -1.321
v 0.761 -0.016 -1.321
v 0.613 0.022 -1.181
v 0.761 0.022 -1.181
v 0.613 0.124 -1.078
v 0.761 0.124 -1.078
v 0.613 0.265 -1.04
v 0.761 0.265 -1.04
v 0.613 0.405 -1.078
v 0.761 0.405 -1.078
v 0.613 0.507 -1.181
v 0.761 0.507 -1.181
v 0.613 0.545 -1.321
v 0.761 0.545 -1.321
v 0.613 0.507 -1.461
v 0.761 0.507 -1.461
v 0.613 0.405 -1.564
v 0.761 0.405 -1.564
v 0.792 0.159 -1.505
v 0.792 0.265 -1.533
v 0.792 0.081 -1.427
v 0.792 0.052 -1.321
v 0.792 0.081 -1.215
v 0.792 0.159 -1.137
v 0.792 0.265 -1.108
v 0.792 0.371 -1.137
v 0.792 0.449 -1.215
v 0.792 0.477 -1.321
v 0.792 0.449 -1.427
v 0.792 0.371 -1.505
v 0.792 0.172 -1.481
v 0.792 0.265 -1.506
v 0.792 0.104 -1.413
v 0.792 0.079 -1.321
v 0.792 0.104 -1.228
v 0.792 0.172 -1.16
v 0.792 0.265 -1.135
v 0.792 0.357 -1.16
v 0.792 0.425 -1.228
v 0.792 0.45 -1.321
v 0.792 0.425 -1.413
v 0.792 0.357 -1.481
v 0.766 0.172 -1.481
v 0.766 0.265 -1.506
v 0.766 0.104 -1.413
v 0.766 0.079 -1.321
v 0.766 0.104 -1.228
v 0.766 0.172 -1.16
v 0.766 0.265 -1.135
v 0.766 0.357 -1.16
v 0.766 0.425 -1.228
v 0.766 0.45 -1.321
v 0.766 0.425 -1.413
v 0.766 0.357 -1.481
v 0.769 0.239 -1.366
v 0.769 0.265 -1.373
v 0.769 0.22 -1.347
v 0.769 0.213 -1.321
v 0.769 0.22 -1.295
v 0.769 0.239 -1.276
v 0.769 0.265 -1.269
v 0.769 0.291 -1.276
v 0.769 0.31 -1.295
v 0.769 0.317 -1.321
v 0.769 0.31 -1.347
v 0.769 0.291 -1.366
v 0.778 0.248 -1.349
v 0.778 0.265 -1.353
v 0.778 0.237 -1.337
v 0.778 0.232 -1.321
v 0.778 0.237 -1.305
v 0.778 0.248 -1.293
v 0.778 0.265 -1.288
v 0.778 0.281 -1.293
v 0.778 0.293 -1.305
v 0.778 0.297 -1.321
v 0.778 0.293 -1.337
v 0.778 0.281 -1.349
v 0.766 0.255 -1.148
v 0.766 0.181 -1.168
v 0.766 0.258 -1.257
v 0.766 0.235 -1.263
v 0.766 0.348 -1.168
v 0.766 0.274 -1.148
v 0.766 0.294 -1.263
v 0.766 0.272 -1.257
v 0.766 0.413 -1.227
v 0.766 0.358 -1.173
v 0.766 0.318 -1.283
v 0.766 0.302 -1.267
v 0.766 0.438 -1.311
v 0.766 0.418 -1.237
v 0.766 0.328 -1.314
v 0.766 0.322 -1.291
v 0.766 0.358 -1.469
v 0.766 0.413 -1.415
v 0.766 0.302 -1.375
v 0.766 0.318 -1.358
v 0.766 0.418 -1.404
v 0.766 0.438 -1.33
v 0.766 0.322 -1.35
v 0.766 0.328 -1.328
v 0.766 0.274 -1.494
v 0.766 0.348 -1.474
v 0.766 0.272 -1.385
v 0.766 0.294 -1.379
v 0.766 0.181 -1.474
v 0.766 0.255 -1.494
v 0.766 0.235 -1.379
v 0.766 0.258 -1.385
v 0.766 0.117 -1.415
v 0.766 0.171 -1.469
v 0.766 0.211 -1.358
v 0.766 0.227 -1.375
v 0.766 0.092 -1.33
v 0.766 0.111 -1.404
v 0.766 0.201 -1.328
v 0.766 0.207 -1.35
v 0.766 0.111 -1.237
v 0.766 0.092 -1.311
v 0.766 0.207 -1.291
v 0.766 0.201 -1.314
v 0.766 0.171 -1.173
v 0.766 0.117 -1.227
v 0.766 0.227 -1.267
v 0.766 0.211 -1.283
v 0.722 0.255 -1.148
v 0.722 0.181 -1.168
v 0.732 0.258 -1.257
v 0.732 0.235 -1.263
v 0.722 0.348 -1.168
v 0.722 0.274 -1.148
v 0.732 0.294 -1.263
v 0.732 0.272 -1.257
v 0.722 0.413 -1.227
v 0.722 0.358 -1.173
v 0.732 0.318 -1.283
v 0.732 0.302 -1.267
v 0.722 0.438 -1.311
v 0.722 0.418 -1.237
v 0.732 0.328 -1.314
v 0.732 0.322 -1.291
v 0.722 0.358 -1.469
v 0.722 0.413 -1.415
v 0.732 0.302 -1.375
v 0.732 0.318 -1.358
v 0.722 0.418 -1.404
v 0.722 0.438 -1.33
v 0.732 0.322 -1.35
v 0.732 0.328 -1.328
v 0.722 0.274 -1.494
v 0.722 0.348 -1.474
v 0.732 0.272 -1.385
v 0.732 0.294 -1.379
v 0.722 0.181 -1.474
v 0.722 0.255 -1.494
v 0.732 0.235 -1.379
v 0.732 0.258 -1.385
v 0.722 0.117 -1.415
v 0.722 0.171 -1.469
v 0.732 0.211 -1.358
v 0.732 0.227 -1.375
v 0.722 0.092 -1.33
v 0.722 0.111 -1.404
v 0.732 0.201 -1.328
v 0.732 0.207 -1.35
v 0.722 0.111 -1.237
v 0.722 0.092 -1.311
v 0.732 0.207 -1.291
v 0.732 0.201 -1.314
v 0.722 0.171 -1.173
v 0.722 0.117 -1.227
v 0.732 0.227 -1.267
v 0.732 0.211 -1.283
v 0.771 0.237 -1.282
v 0.771 0.225 -1.293
v 0.776 0.243 -1.292
v 0.776 0.236 -1.299
v 0.771 0.225 -1.349
v 0.771 0.237 -1.36
v 0.776 0.236 -1.343
v 0.776 0.243 -1.35
v 0.771 0.292 -1.36
v 0.771 0.304 -1.349
v 0.776 0.287 -1.35
v 0.776 0.294 -1.343
v 0.771 0.304 -1.293
v 0.771 0.292 -1.282
v 0.776 0.294 -1.299
v 0.776 0.287 -1.292
v 0.753 0.237 -1.282
v 0.753 0.225 -1.293
v 0.758 0.243 -1.292
v 0.758 0.236 -1.299
v 0.753 0.225 -1.349
v 0.753 0.237 -1.36
v 0.758 0.236 -1.343
v 0.758 0.243 -1.35
v 0.753 0.292 -1.36
v 0.753 0.304 -1.349
v 0.758 0.287 -1.35
v 0.758 0.294 -1.343
v 0.753 0.304 -1.293
v 0.753 0.292 -1.282
v 0.758 0.294 -1.299
v 0.758 0.287 -1.292
v -0.611 0.265 -1.601
v -0.759 0.265 -1.601
v -0.611 0.124 -1.564
v -0.759 0.124 -1.564
v -0.611 0.022 -1.461
v -0.759 0.022 -1.461
v -0.611 -0.016 -1.321
v -0.759 -0.016 -1.321
v -0.611 0.022 -1.181
v -0.759 0.022 -1.181
v -0.611 0.124 -1.078
v -0.759 0.124 -1.078
v -0.611 0.265 -1.04
v -0.759 0.265 -1.04
v -0.611 0.405 -1.078
v -0.759 0.405 -1.078
v -0.611 0.507 -1.181
v -0.759 0.507 -1.181
v -0.611 0.545 -1.321
v -0.759 0.545 -1.321
v -0.611 0.507 -1.461
v -0.759 0.507 -1.461
v -0.611 0.405 -1.564
v -0.759 0.405 -1.564
v -0.79 0.159 -1.505
v -0.79 0.265 -1.533
v -0.79 0.081 -1.427
v -0.79 0.052 -1.321
v -0.79 0.081 -1.215
v -0.79 0.159 -1.137
v -0.79 0.265 -1.108
v -0.79 0.371 -1.137
v -0.79 0.449 -1.215
v -0.79 0.477 -1.321
v -0.79 0.449 -1.427
v -0.79 0.371 -1.505
v -0.79 0.172 -1.481
v -0.79 0.265 -1.506
v -0.79 0.104 -1.413
v -0.79 0.079 -1.321
v -0.79 0.104 -1.228
v -0.79 0.172 -1.16
v -0.79 0.265 -1.135
v -0.79 0.357 -1.16
v -0.79 0.425 -1.228
v -0.79 0.45 -1.321
v -0.79 0.425 -1.413
v -0.79 0.357 -1.481
v -0.765 0.172 -1.481
v -0.765 0.265 -1.506
v -0.765 0.104 -1.413
v -0.765 0.079 -1.321
v -0.765 0.104 -1.228
v -0.765 0.172 -1.16
v -0.765 0.265 -1.135
v -0.765 0.357 -1.16
v -0.765 0.425 -1.228
v -0.765 0.45 -1.321
v -0.765 0.425 -1.413
v -0.765 0.357 -1.481
v -0.767 0.239 -1.366
v -0.767 0.265 -1.373
v -0.767 0.22 -1.347
v -0.767 0.213 -1.321
v -0.767 0.22 -1.295
v -0.767 0.239 -1.276
v -0.767 0.265 -1.269
v -0.767 0.291 -1.276
v -0.767 0.31 -1.295
v -0.767 0.317 -1.321
v -0.767 0.31 -1.347
v -0.767 0.291 -1.366
v -0.776 0.248 -1.349
v -0.776 0.265 -1.353
v -0.776 0.237 -1.337
v -0.776 0.232 -1.321
v -0.776 0.237 -1.305
v -0.776 0.248 -1.293
v -0.776 0.265 -1.288
v -0.776 0.281 -1.293
v -0.776 0.293 -1.305
v -0.776 0.297 -1.321
v -0.776 0.293 -1.337
v -0.776 0.281 -1.349
v -0.765 0.255 -1.148
v -0.765 0.181 -1.168
v -0.764 0.258 -1.257
v -0.764 0.235 -1.263
v -0.765 0.348 -1.168
v -0.765 0.274 -1.148
v -0.764 0.294 -1.263
v -0.764 0.272 -1.257
v -0.765 0.413 -1.227
v -0.765 0.358 -1.173
v -0.764 0.318 -1.283
v -0.764 0.302 -1.267
v -0.765 0.438 -1.311
v -0.765 0.418 -1.237
v -0.764 0.328 -1.314
v -0.764 0.322 -1.291
v -0.765 0.358 -1.469
v -0.765 0.413 -1.415
v -0.764 0.302 -1.375
v -0.764 0.318 -1.358
v -0.765 0.418 -1.404
v -0.765 0.438 -1.33
v -0.764 0.322 -1.35
v -0.764 0.328 -1.328
v -0.765 0.274 -1.494
v -0.765 0.348 -1.474
v -0.764 0.272 -1.385
v -0.764 0.294 -1.379
v -0.765 0.181 -1.474
v -0.765 0.255 -1.494
v -0.764 0.235 -1.379
v -0.764 0.258 -1.385
v -0.765 0.117 -1.415
v -0.765 0.171 -1.469
v -0.764 0.211 -1.358
v -0.764 0.227 -1.375
v -0.765 0.092 -1.33
v -0.765 0.111 -1.404
v -0.764 0.201 -1.328
v -0.764 0.207 -1.35
v -0.765 0.111 -1.237
v -0.765 0.092 -1.311
v -0.764 0.207 -1.291
v -0.764 0.201 -1.314
v -0.765 0.171 -1.173
v -0.765 0.117 -1.227
v -0.764 0.227 -1.267
v -0.764 0.211 -1.283
v -0.721 0.255 -1.148
v -0.721 0.181 -1.168
v -0.73 0.258 -1.257
v -0.73 0.235 -1.263
v -0.721 0.348 -1.168
v -0.721 0.274 -1.148
v -0.73 0.294 -1.263
v -0.73 0.272 -1.257
v -0.721 0.413 -1.227
v -0.721 0.358 -1.173
v -0.73 0.318 -1.283
v -0.73 0.302 -1.267
v -0.721 0.438 -1.311
v -0.721 0.418 -1.237
v -0.73 0.328 -1.314
v -0.73 0.322 -1.291
v -0.721 0.358 -1.469
v -0.721 0.413 -1.415
v -0.73 0.302 -1.375
v -0.73 0.318 -1.358
v -0.721 0.418 -1.404
v -0.721 0.438 -1.33
v -0.73 0.322 -1.35
v -0.73 0.328 -1.328
v -0.721 0.274 -1.494
v -0.721 0.348 -1.474
v -0.73 0.272 -1.385
v -0.73 0.294 -1.379
v -0.721 0.181 -1.474
v -0.721 0.255 -1.494
v -0.73 0.235 -1.379
v -0.73 0.258 -1.385
v -0.721 0.117 -1.415
v -0.721 0.171 -1.469
v -0.73 0.211 -1.358
v -0.73 0.227 -1.375
v -0.721 0.092 -1.33
v -0.721 0.111 -1.404
v -0.73 0.201 -1.328
v -0.73 0.207 -1.35
v -0.721 0.111 -1.237
v -0.721 0.092 -1.311
v -0.73 0.207 -1.291
v -0.73 0.201 -1.314
v -0.721 0.171 -1.173
v -0.721 0.117 -1.227
v -0.73 0.227 -1.267
v -0.73 0.211 -1.283
v -0.769 0.237 -1.282
v -0.769 0.225 -1.293
v -0.775 0.243 -1.292
v -0.775 0.236 -1.299
v -0.769 0.225 -1.349
v -0.769 0.237 -1.36
v -0.775 0.236 -1.343
v -0.775 0.243 -1.35
v -0.769 0.292 -1.36
v -0.769 0.304 -1.349
v -0.775 0.287 -1.35
v -0.775 0.294 -1.343
v -0.769 0.304 -1.293
v -0.769 0.292 -1.282
v -0.775 0.294 -1.299
v -0.775 0.287 -1.292
v -0.751 0.237 -1.282
v -0.751 0.225 -1.293
v -0.756 0.243 -1.292
v -0.756 0.236 -1.299
v -0.751 0.225 -1.349
v -0.751 0.237 -1.36
v -0.756 0.236 -1.343
v -0.756 0.243 -1.35
v -0.751 0.292 -1.36
v -0.751 0.304 -1.349
v -0.756 0.287 -1.35
v -0.756 0.294 -1.343
v -0.751 0.304 -1.293
v -0.751 0.292 -1.282
v -0.756 0.294 -1.299
v -0.756 0.287 -1.292
usemtl Black
f 741 742 744 743
f 743 744 746 745
f 745 746 748 747
f 747 748 750 749
f 749 750 752 751
f 751 752 754 753
f 753 754 756 755
f 755 756 758 757
f 757 758 760 759
f 759 760 762 761
f 754 752 770 771
f 761 762 764 763
f 763 764 742 741
f 741 743 745 747 749 751 753 755 757 759 761 763
f 771 770 782 783
f 752 750 769 770
f 750 748 768 769
f 742 764 776 766
f 744 742 766 765
f 748 746 767 768
f 764 762 775 776
f 746 744 765 767
f 762 760 774 775
f 760 758 773 774
f 758 756 772 773
f 756 754 771 772
f 786 785 797 798
f 768 767 779 780
f 775 774 786 787
f 772 771 783 784
f 769 768 780 781
f 776 775 787 788
f 765 766 778 777
f 773 772 784 785
f 770 769 781 782
f 766 776 788 778
f 767 765 777 779
f 774 773 785 786
f 783 782 794 795
f 780 779 791 792
f 787 786 798 799
f 784 783 795 796
f 781 780 792 793
f 788 787 799 800
f 777 778 790 789
f 785 784 796 797
f 782 781 793 794
f 778 788 800 790
f 779 777 789 791
f 873 874 876 875
f 877 878 880 879
f 881 882 884 883
f 885 886 888 887
f 889 890 892 891
f 893 894 896 895
f 897 898 900 899
f 901 902 904 903
f 905 906 908 907
f 909 910 912 911
f 913 914 916 915
f 917 918 920 919
f 937 938 940 939
f 941 942 944 943
f 945 946 948 947
f 949 950 952 951
f 953 955 956 954
f 955 957 958 956
f 957 959 960 958
f 959 961 962 960
f 961 963 964 962
f 963 965 966 964
f 965 967 968 966
f 967 969 970 968
f 969 971 972 970
f 971 973 974 972
f 966 983 982 964
f 973 975 976 974
f 975 953 954 976
f 953 975 973 971 969 967 965 963 961 959 957 955
f 983 995 994 982
f 964 982 981 962
f 962 981 980 960
f 954 978 988 976
f 956 977 978 954
f 960 980 979 958
f 976 988 987 974
f 958 979 977 956
f 974 987 986 972
f 972 986 985 970
f 970 985 984 968
f 968 984 983 966
f 998 1010 1009 997
f 980 992 991 979
f 987 999 998 986
f 984 996 995 983
f 981 993 992 980
f 988 1000 999 987
f 977 989 990 978
f 985 997 996 984
f 982 994 993 981
f 978 990 1000 988
f 979 991 989 977
f 986 998 997 985
f 995 1007 1006 994
f 992 1004 1003 991
f 999 1011 1010 998
f 996 1008 1007 995
f 993 1005 1004 992
f 1000 1012 1011 999
f 989 1001 1002 990
f 997 1009 1008 996
f 994 1006 1005 993
f 990 1002 1012 1000
f 991 1003 1001 989
f 1085 1087 1088 1086
f 1089 1091 1092 1090
f 1093 1095 1096 1094
f 1097 1099 1100 1098
f 1101 1103 1104 1102
f 1105 1107 1108 1106
f 1109 1111 1112 1110
f 1113 1115 1116 1114
f 1117 1119 1120 1118
f 1121 1123 1124 1122
f 1125 1127 1128 1126
f 1129 1131 1132 1130
f 1149 1151 1152 1150
f 1153 1155 1156 1154
f 1157 1159 1160 1158
f 1161 1163 1164 1162
usemtl Grey
f 803 791 857 859
f 802 812 824 814
f 797 809 840 838
f 795 794 826 825
f 803 804 863 864
f 811 799 845 847
f 807 808 831 832
f 792 804 868 866
f 811 812 843 844
f 802 801 855 856
f 809 797 833 835
f 805 806 871 872
f 812 802 851 852
f 813 814 824 823 822 821 820 819 818 817 816 815
f 801 813 928 926
f 810 809 821 822
f 807 806 818 819
f 804 803 815 816
f 811 810 822 823
f 808 807 819 820
f 805 804 816 817
f 824 812 929 931
f 801 802 814 813
f 808 820 936 934
f 806 805 922 921
f 828 827 875 876
f 807 795 825 827
f 806 807 827 828
f 794 806 828 826
f 848 847 895 896
f 795 807 832 830
f 796 795 830 829
f 808 796 829 831
f 868 867 915 916
f 796 808 836 834
f 808 809 835 836
f 797 796 834 833
f 839 837 885 887
f 809 810 839 840
f 798 797 838 837
f 810 798 837 839
f 825 826 874 873
f 800 799 842 841
f 799 811 844 842
f 812 800 841 843
f 859 857 905 907
f 798 810 848 846
f 810 811 847 848
f 799 798 846 845
f 845 846 894 893
f 800 812 852 850
f 790 800 850 849
f 802 790 849 851
f 865 866 914 913
f 789 790 854 853
f 801 789 853 855
f 790 802 856 854
f 838 840 888 886
f 801 803 859 860
f 789 801 860 858
f 791 789 858 857
f 858 860 908 906
f 791 803 864 862
f 792 791 862 861
f 804 792 861 863
f 840 839 887 888
f 804 805 867 868
f 793 792 866 865
f 805 793 865 867
f 860 859 907 908
f 794 793 870 869
f 806 794 869 871
f 793 805 872 870
f 866 868 916 914
f 846 848 896 894
f 826 828 876 874
f 853 854 902 901
f 867 865 913 915
f 833 834 882 881
f 847 845 893 895
f 827 825 873 875
f 856 855 903 904
f 836 835 883 884
f 855 853 901 903
f 835 833 881 883
f 861 862 910 909
f 841 842 890 889
f 854 856 904 902
f 834 836 884 882
f 864 863 911 912
f 844 843 891 892
f 862 864 912 910
f 842 844 892 890
f 869 870 918 917
f 849 850 898 897
f 863 861 909 911
f 829 830 878 877
f 843 841 889 891
f 872 871 919 920
f 852 851 899 900
f 832 831 879 880
f 871 869 917 919
f 850 852 900 898
f 830 832 880 878
f 857 858 906 905
f 870 872 920 918
f 837 838 886 885
f 851 849 897 899
f 831 829 877 879
f 921 922 938 937
f 818 806 921 923
f 805 817 924 922
f 817 818 923 924
f 934 936 952 950
f 813 815 927 928
f 803 801 926 925
f 815 803 925 927
f 930 932 948 946
f 823 824 931 932
f 811 823 932 930
f 812 811 930 929
f 935 933 949 951
f 820 821 935 936
f 809 808 934 933
f 821 809 933 935
f 925 926 942 941
f 924 923 939 940
f 929 930 946 945
f 928 927 943 944
f 933 934 950 949
f 923 921 937 939
f 932 931 947 948
f 926 928 944 942
f 936 935 951 952
f 922 924 940 938
f 931 929 945 947
f 927 925 941 943
f 1015 1071 1069 1003
f 1014 1026 1036 1024
f 1009 1050 1052 1021
f 1007 1037 1038 1006
f 1015 1076 1075 1016
f 1023 1059 1057 1011
f 1019 1044 1043 1020
f 1004 1078 1080 1016
f 1023 1056 1055 1024
f 1014 1068 1067 1013
f 1021 1047 1045 1009
f 1017 1084 1083 1018
f 1024 1064 1063 1014
f 1025 1027 1028 1029 1030 1031 1032 1033 1034 1035 1036 1026
f 1013 1138 1140 1025
f 1022 1034 1033 1021
f 1019 1031 1030 1018
f 1016 1028 1027 1015
f 1023 1035 1034 1022
f 1020 1032 1031 1019
f 1017 1029 1028 1016
f 1036 1143 1141 1024
f 1013 1025 1026 1014
f 1020 1146 1148 1032
f 1018 1133 1134 1017
f 1040 1088 1087 1039
f 1019 1039 1037 1007
f 1018 1040 1039 1019
f 1006 1038 1040 1018
f 1060 1108 1107 1059
f 1007 1042 1044 1019
f 1008 1041 1042 1007
f 1020 1043 1041 1008
f 1080 1128 1127 1079
f 1008 1046 1048 1020
f 1020 1048 1047 1021
f 1009 1045 1046 1008
f 1051 1099 1097 1049
f 1021 1052 1051 1022
f 1010 1049 1050 1009
f 1022 1051 1049 1010
f 1037 1085 1086 1038
f 1012 1053 1054 1011
f 1011 1054 1056 1023
f 1024 1055 1053 1012
f 1071 1119 1117 1069
f 1010 1058 1060 1022
f 1022 1060 1059 1023
f 1011 1057 1058 1010
f 1057 1105 1106 1058
f 1012 1062 1064 1024
f 1002 1061 1062 1012
f 1014 1063 1061 1002
f 1077 1125 1126 1078
f 1001 1065 1066 1002
f 1013 1067 1065 1001
f 1002 1066 1068 1014
f 1050 1098 1100 1052
f 1013 1072 1071 1015
f 1001 1070 1072 1013
f 1003 1069 1070 1001
f 1070 1118 1120 1072
f 1003 1074 1076 1015
f 1004 1073 1074 1003
f 1016 1075 1073 1004
f 1052 1100 1099 1051
f 1016 1080 1079 1017
f 1005 1077 1078 1004
f 1017 1079 1077 1005
f 1072 1120 1119 1071
f 1006 1081 1082 1005
f 1018 1083 1081 1006
f 1005 1082 1084 1017
f 1078 1126 1128 1080
f 1058 1106 1108 1060
f 1038 1086 1088 1040
f 1065 1113 1114 1066
f 1079 1127 1125 1077
f 1045 1093 1094 1046
f 1059 1107 1105 1057
f 1039 1087 1085 1037
f 1068 1116 1115 1067
f 1048 1096 1095 1047
f 1067 1115 1113 1065
f 1047 1095 1093 1045
f 1073 1121 1122 1074
f 1053 1101 1102 1054
f 1066 1114 1116 1068
f 1046 1094 1096 1048
f 1076 1124 1123 1075
f 1056 1104 1103 1055
f 1074 1122 1124 1076
f 1054 1102 1104 1056
f 1081 1129 1130 1082
f 1061 1109 1110 1062
f 1075 1123 1121 1073
f 1041 1089 1090 1042
f 1055 1103 1101 1053
f 1084 1132 1131 1083
f 1064 1112 1111 1063
f 1044 1092 1091 1043
f 1083 1131 1129 1081
f 1062 1110 1112 1064
f 1042 1090 1092 1044
f 1069 1117 1118 1070
f 1082 1130 1132 1084
f 1049 1097 1098 1050
f 1063 1111 1109 1061
f 1043 1091 1089 1041
f 1133 1149 1150 1134
f 1030 1135 1133 1018
f 1017 1134 1136 1029
f 1029 1136 1135 1030
f 1146 1162 1164 1148
f 1025 1140 1139 1027
f 1015 1137 1138 1013
f 1027 1139 1137 1015
f 1142 1158 1160 1144
f 1035 1144 1143 1036
f 1023 1142 1144 1035
f 1024 1141 1142 1023
f 1147 1163 1161 1145
f 1032 1148 1147 1033
f 1021 1145 1146 1020
f 1033 1147 1145 1021
f 1137 1153 1154 1138
f 1136 1152 1151 1135
f 1141 1157 1158 1142
f 1140 1156 1155 1139
f 1145 1161 1162 1146
f 1135 1151 1149 1133
f 1144 1160 1159 1143
f 1138 1154 1156 1140
f 1148 1164 1163 1147
f 1134 1150 1152 1136
f 1143 1159 1157 1141
f 1139 1155 1153 1137
o SportsCar2_FrontLeftWheel_Cylinder.017
v 0.637 0.265 0.906
v 0.784 0.265 0.906
v 0.637 0.124 0.943
v 0.784 0.124 0.943
v 0.637 0.022 1.046
v 0.784 0.022 1.046
v 0.637 -0.016 1.186
v 0.784 -0.016 1.186
v 0.637 0.022 1.326
v 0.784 0.022 1.326
v 0.637 0.124 1.429
v 0.784 0.124 1.429
v 0.637 0.265 1.466
v 0.784 0.265 1.466
v 0.637 0.405 1.429
v 0.784 0.405 1.429
v 0.637 0.507 1.326
v 0.784 0.507 1.326
v 0.637 0.545 1.186
v 0.784 0.545 1.186
v 0.637 0.507 1.046
v 0.784 0.507 1.046
v 0.637 0.405 0.943
v 0.784 0.405 0.943
v 0.815 0.159 1.002
v 0.815 0.265 0.974
v 0.815 0.081 1.08
v 0.815 0.052 1.186
v 0.815 0.081 1.292
v 0.815 0.159 1.37
v 0.815 0.265 1.398
v 0.815 0.371 1.37
v 0.815 0.449 1.292
v 0.815 0.477 1.186
v 0.815 0.449 1.08
v 0.815 0.371 1.002
v 0.815 0.172 1.025
v 0.815 0.265 1.001
v 0.815 0.104 1.093
v 0.815 0.079 1.186
v 0.815 0.104 1.279
v 0.815 0.172 1.346
v 0.815 0.265 1.371
v 0.815 0.357 1.346
v 0.815 0.425 1.279
v 0.815 0.45 1.186
v 0.815 0.425 1.093
v 0.815 0.357 1.025
v 0.79 0.172 1.025
v 0.79 0.265 1.001
v 0.79 0.104 1.093
v 0.79 0.079 1.186
v 0.79 0.104 1.279
v 0.79 0.172 1.346
v 0.79 0.265 1.371
v 0.79 0.357 1.346
v 0.79 0.425 1.279
v 0.79 0.45 1.186
v 0.79 0.425 1.093
v 0.79 0.357 1.025
v 0.793 0.239 1.141
v 0.793 0.265 1.134
v 0.793 0.22 1.16
v 0.793 0.213 1.186
v 0.793 0.22 1.212
v 0.793 0.239 1.231
v 0.793 0.265 1.238
v 0.793 0.291 1.231
v 0.793 0.31 1.212
v 0.793 0.317 1.186
v 0.793 0.31 1.16
v 0.793 0.291 1.141
v 0.802 0.248 1.158
v 0.802 0.265 1.154
v 0.802 0.237 1.17
v 0.802 0.232 1.186
v 0.802 0.237 1.202
v 0.802 0.248 1.214
v 0.802 0.265 1.218
v 0.802 0.281 1.214
v 0.802 0.293 1.202
v 0.802 0.297 1.186
v 0.802 0.293 1.17
v 0.802 0.281 1.158
v 0.79 0.255 1.359
v 0.79 0.181 1.339
v 0.789 0.258 1.25
v 0.789 0.235 1.244
v 0.79 0.348 1.339
v 0.79 0.274 1.359
v 0.789 0.294 1.244
v 0.789 0.272 1.25
v 0.79 0.413 1.28
v 0.79 0.358 1.334
v 0.789 0.318 1.223
v 0.789 0.302 1.24
v 0.79 0.438 1.195
v 0.79 0.418 1.269
v 0.789 0.328 1.193
v 0.789 0.322 1.215
v 0.79 0.358 1.038
v 0.79 0.413 1.092
v 0.789 0.302 1.132
v 0.789 0.318 1.148
v 0.79 0.418 1.103
v 0.79 0.438 1.177
v 0.789 0.322 1.156
v 0.789 0.328 1.179
v 0.79 0.274 1.013
v 0.79 0.348 1.033
v 0.789 0.272 1.122
v 0.789 0.294 1.128
v 0.79 0.181 1.033
v 0.79 0.255 1.013
v 0.789 0.235 1.128
v 0.789 0.258 1.122
v 0.79 0.117 1.092
v 0.79 0.171 1.038
v 0.789 0.211 1.148
v 0.789 0.227 1.132
v 0.79 0.092 1.177
v 0.79 0.111 1.103
v 0.789 0.201 1.179
v 0.789 0.207 1.156
v 0.79 0.111 1.269
v 0.79 0.092 1.195
v 0.789 0.207 1.215
v 0.789 0.201 1.193
v 0.79 0.171 1.334
v 0.79 0.117 1.28
v 0.789 0.227 1.24
v 0.789 0.211 1.223
v 0.746 0.255 1.359
v 0.746 0.181 1.339
v 0.756 0.258 1.25
v 0.756 0.235 1.244
v 0.746 0.348 1.339
v 0.746 0.274 1.359
v 0.756 0.294 1.244
v 0.756 0.272 1.25
v 0.746 0.413 1.28
v 0.746 0.358 1.334
v 0.756 0.318 1.223
v 0.756 0.302 1.24
v 0.746 0.438 1.195
v 0.746 0.418 1.269
v 0.756 0.328 1.193
v 0.756 0.322 1.215
v 0.746 0.358 1.038
v 0.746 0.413 1.092
v 0.756 0.302 1.132
v 0.756 0.318 1.148
v 0.746 0.418 1.103
v 0.746 0.438 1.177
v 0.756 0.322 1.156
v 0.756 0.328 1.179
v 0.746 0.274 1.013
v 0.746 0.348 1.033
v 0.756 0.272 1.122
v 0.756 0.294 1.128
v 0.746 0.181 1.033
v 0.746 0.255 1.013
v 0.756 0.235 1.128
v 0.756 0.258 1.122
v 0.746 0.117 1.092
v 0.746 0.171 1.038
v 0.756 0.211 1.148
v 0.756 0.227 1.132
v 0.746 0.092 1.177
v 0.746 0.111 1.103
v 0.756 0.201 1.179
v 0.756 0.207 1.156
v 0.746 0.111 1.269
v 0.746 0.092 1.195
v 0.756 0.207 1.215
v 0.756 0.201 1.193
v 0.746 0.171 1.334
v 0.746 0.117 1.28
v 0.756 0.227 1.24
v 0.756 0.211 1.223
v 0.795 0.237 1.225
v 0.795 0.225 1.214
v 0.8 0.243 1.215
v 0.8 0.236 1.208
v 0.795 0.225 1.158
v 0.795 0.237 1.147
v 0.8 0.236 1.164
v 0.8 0.243 1.157
v 0.795 0.292 1.147
v 0.795 0.304 1.158
v 0.8 0.287 1.157
v 0.8 0.294 1.164
v 0.795 0.304 1.214
v 0.795 0.292 1.225
v 0.8 0.294 1.208
v 0.8 0.287 1.215
v 0.776 0.237 1.225
v 0.776 0.225 1.214
v 0.782 0.243 1.215
v 0.782 0.236 1.208
v 0.776 0.225 1.158
v 0.776 0.237 1.147
v 0.782 0.236 1.164
v 0.782 0.243 1.157
v 0.776 0.292 1.147
v 0.776 0.304 1.158
v 0.782 0.287 1.157
v 0.782 0.294 1.164
v 0.776 0.304 1.214
v 0.776 0.292 1.225
v 0.782 0.294 1.208
v 0.782 0.287 1.215
usemtl Black
f 1165 1166 1168 1167
f 1167 1168 1170 1169
f 1169 1170 1172 1171
f 1171 1172 1174 1173
f 1173 1174 1176 1175
f 1175 1176 1178 1177
f 1177 1178 1180 1179
f 1179 1180 1182 1181
f 1181 1182 1184 1183
f 1183 1184 1186 1185
f 1178 1176 1194 1195
f 1185 1186 1188 1187
f 1187 1188 1166 1165
f 1165 1167 1169 1171 1173 1175 1177 1179 1181 1183 1185 1187
f 1195 1194 1206 1207
f 1176 1174 1193 1194
f 1174 1172 1192 1193
f 1166 1188 1200 1190
f 1168 1166 1190 1189
f 1172 1170 1191 1192
f 1188 1186 1199 1200
f 1170 1168 1189 1191
f 1186 1184 1198 1199
f 1184 1182 1197 1198
f 1182 1180 1196 1197
f 1180 1178 1195 1196
f 1210 1209 1221 1222
f 1192 1191 1203 1204
f 1199 1198 1210 1211
f 1196 1195 1207 1208
f 1193 1192 1204 1205
f 1200 1199 1211 1212
f 1189 1190 1202 1201
f 1197 1196 1208 1209
f 1194 1193 1205 1206
f 1190 1200 1212 1202
f 1191 1189 1201 1203
f 1198 1197 1209 1210
f 1207 1206 1218 1219
f 1204 1203 1215 1216
f 1211 1210 1222 1223
f 1208 1207 1219 1220
f 1205 1204 1216 1217
f 1212 1211 1223 1224
f 1201 1202 1214 1213
f 1209 1208 1220 1221
f 1206 1205 1217 1218
f 1202 1212 1224 1214
f 1203 1201 1213 1215
f 1297 1298 1300 1299
f 1301 1302 1304 1303
f 1305 1306 1308 1307
f 1309 1310 1312 1311
f 1313 1314 1316 1315
f 1317 1318 1320 1319
f 1321 1322 1324 1323
f 1325 1326 1328 1327
f 1329 1330 1332 1331
f 1333 1334 1336 1335
f 1337 1338 1340 1339
f 1341 1342 1344 1343
f 1361 1362 1364 1363
f 1365 1366 1368 1367
f 1369 1370 1372 1371
f 1373 1374 1376 1375
usemtl Grey
f 1227 1215 1281 1283
f 1226 1236 1248 1238
f 1221 1233 1264 1262
f 1219 1218 1250 1249
f 1227 1228 1287 1288
f 1235 1223 1269 1271
f 1231 1232 1255 1256
f 1216 1228 1292 1290
f 1235 1236 1267 1268
f 1226 1225 1279 1280
f 1233 1221 1257 1259
f 1229 1230 1295 1296
f 1236 1226 1275 1276
f 1237 1238 1248 1247 1246 1245 1244 1243 1242 1241 1240 1239
f 1225 1237 1352 1350
f 1234 1233 1245 1246
f 1231 1230 1242 1243
f 1228 1227 1239 1240
f 1235 1234 1246 1247
f 1232 1231 1243 1244
f 1229 1228 1240 1241
f 1248 1236 1353 1355
f 1225 1226 1238 1237
f 1232 1244 1360 1358
f 1230 1229 1346 1345
f 1252 1251 1299 1300
f 1231 1219 1249 1251
f 1230 1231 1251 1252
f 1218 1230 1252 1250
f 1272 1271 1319 1320
f 1219 1231 1256 1254
f 1220 1219 1254 1253
f 1232 1220 1253 1255
f 1292 1291 1339 1340
f 1220 1232 1260 1258
f 1232 1233 1259 1260
f 1221 1220 1258 1257
f 1263 1261 1309 1311
f 1233 1234 1263 1264
f 1222 1221 1262 1261
f 1234 1222 1261 1263
f 1249 1250 1298 1297
f 1224 1223 1266 1265
f 1223 1235 1268 1266
f 1236 1224 1265 1267
f 1283 1281 1329 1331
f 1222 1234 1272 1270
f 1234 1235 1271 1272
f 1223 1222 1270 1269
f 1269 1270 1318 1317
f 1224 1236 1276 1274
f 1214 1224 1274 1273
f 1226 1214 1273 1275
f 1289 1290 1338 1337
f 1213 1214 1278 1277
f 1225 1213 1277 1279
f 1214 1226 1280 1278
f 1262 1264 1312 1310
f 1225 1227 1283 1284
f 1213 1225 1284 1282
f 1215 1213 1282 1281
f 1282 1284 1332 1330
f 1215 1227 1288 1286
f 1216 1215 1286 1285
f 1228 1216 1285 1287
f 1264 1263 1311 1312
f 1228 1229 1291 1292
f 1217 1216 1290 1289
f 1229 1217 1289 1291
f 1284 1283 1331 1332
f 1218 1217 1294 1293
f 1230 1218 1293 1295
f 1217 1229 1296 1294
f 1290 1292 1340 1338
f 1270 1272 1320 1318
f 1250 1252 1300 1298
f 1277 1278 1326 1325
f 1291 1289 1337 1339
f 1257 1258 1306 1305
f 1271 1269 1317 1319
f 1251 1249 1297 1299
f 1280 1279 1327 1328
f 1260 1259 1307 1308
f 1279 1277 1325 1327
f 1259 1257 1305 1307
f 1285 1286 1334 1333
f 1265 1266 1314 1313
f 1278 1280 1328 1326
f 1258 1260 1308 1306
f 1288 1287 1335 1336
f 1268 1267 1315 1316
f 1286 1288 1336 1334
f 1266 1268 1316 1314
f 1293 1294 1342 1341
f 1273 1274 1322 1321
f 1287 1285 1333 1335
f 1253 1254 1302 1301
f 1267 1265 1313 1315
f 1296 1295 1343 1344
f 1276 1275 1323 1324
f 1256 1255 1303 1304
f 1295 1293 1341 1343
f 1274 1276 1324 1322
f 1254 1256 1304 1302
f 1281 1282 1330 1329
f 1294 1296 1344 1342
f 1261 1262 1310 1309
f 1275 1273 1321 1323
f 1255 1253 1301 1303
f 1345 1346 1362 1361
f 1242 1230 1345 1347
f 1229 1241 1348 1346
f 1241 1242 1347 1348
f 1358 1360 1376 1374
f 1237 1239 1351 1352
f 1227 1225 1350 1349
f 1239 1227 1349 1351
f 1354 1356 1372 1370
f 1247 1248 1355 1356
f 1235 1247 1356 1354
f 1236 1235 1354 1353
f 1359 1357 1373 1375
f 1244 1245 1359 1360
f 1233 1232 1358 1357
f 1245 1233 1357 1359
f 1349 1350 1366 1365
f 1348 1347 1363 1364
f 1353 1354 1370 1369
f 1352 1351 1367 1368
f 1357 1358 1374 1373
f 1347 1345 1361 1363
f 1356 1355 1371 1372
f 1350 1352 1368 1366
f 1360 1359 1375 1376
f 1346 1348 1364 1362
f 1355 1353 1369 1371
f 1351 1349 1365 1367
o SportsCar2_FrontRightWheel_Cylinder.018
v -0.635 0.265 0.906
v -0.782 0.265 0.906
v -0.635 0.124 0.943
v -0.782 0.124 0.943
v -0.635 0.022 1.046
v -0.782 0.022 1.046
v -0.635 -0.016 1.186
v -0.782 -0.016 1.186
v -0.635 0.022 1.326
v -0.782 0.022 1.326
v -0.635 0.124 1.429
v -0.782 0.124 1.429
v -0.635 0.265 1.466
v -0.782 0.265 1.466
v -0.635 0.405 1.429
v -0.782 0.405 1.429
v -0.635 0.507 1.326
v -0.782 0.507 1.326
v -0.635 0.545 1.186
v -0.782 0.545 1.186
v -0.635 0.507 1.046
v -0.782 0.507 1.046
v -0.635 0.405 0.943
v -0.782 0.405 0.943
v -0.813 0.159 1.002
v -0.813 0.265 0.974
v -0.813 0.081 1.08
v -0.813 0.052 1.186
v -0.813 0.081 1.292
v -0.813 0.159 1.37
v -0.813 0.265 1.398
v -0.813 0.371 1.37
v -0.813 0.449 1.292
v -0.813 0.477 1.186
v -0.813 0.449 1.08
v -0.813 0.371 1.002
v -0.813 0.172 1.025
v -0.813 0.265 1.001
v -0.813 0.104 1.093
v -0.813 0.079 1.186
v -0.813 0.104 1.279
v -0.813 0.172 1.346
v -0.813 0.265 1.371
v -0.813 0.357 1.346
v -0.813 0.425 1.279
v -0.813 0.45 1.186
v -0.813 0.425 1.093
v -0.813 0.357 1.025
v -0.788 0.172 1.025
v -0.788 0.265 1.001
v -0.788 0.104 1.093
v -0.788 0.079 1.186
v -0.788 0.104 1.279
v -0.788 0.172 1.346
v -0.788 0.265 1.371
v -0.788 0.357 1.346
v -0.788 0.425 1.279
v -0.788 0.45 1.186
v -0.788 0.425 1.093
v -0.788 0.357 1.025
v -0.791 0.239 1.141
v -0.791 0.265 1.134
v -0.791 0.22 1.16
v -0.791 0.213 1.186
v -0.791 0.22 1.212
v -0.791 0.239 1.231
v -0.791 0.265 1.238
v -0.791 0.291 1.231
v -0.791 0.31 1.212
v -0.791 0.317 1.186
v -0.791 0.31 1.16
v -0.791 0.291 1.141
v -0.8 0.248 1.158
v -0.8 0.265 1.154
v -0.8 0.237 1.17
v -0.8 0.232 1.186
v -0.8 0.237 1.202
v -0.8 0.248 1.214
v -0.8 0.265 1.218
v -0.8 0.281 1.214
v -0.8 0.293 1.202
v -0.8 0.297 1.186
v -0.8 0.293 1.17
v -0.8 0.281 1.158
v -0.788 0.255 1.359
v -0.788 0.181 1.339
v -0.787 0.258 1.25
v -0.787 0.235 1.244
v -0.788 0.348 1.339
v -0.788 0.274 1.359
v -0.787 0.294 1.244
v -0.787 0.272 1.25
v -0.788 0.413 1.28
v -0.788 0.358 1.334
v -0.787 0.318 1.223
v -0.787 0.302 1.24
v -0.788 0.438 1.195
v -0.788 0.418 1.269
v -0.787 0.328 1.193
v -0.787 0.322 1.215
v -0.788 0.358 1.038
v -0.788 0.413 1.092
v -0.787 0.302 1.132
v -0.787 0.318 1.148
v -0.788 0.418 1.103
v -0.788 0.438 1.177
v -0.787 0.322 1.156
v -0.787 0.328 1.179
v -0.788 0.274 1.013
v -0.788 0.348 1.033
v -0.787 0.272 1.122
v -0.787 0.294 1.128
v -0.788 0.181 1.033
v -0.788 0.255 1.013
v -0.787 0.235 1.128
v -0.787 0.258 1.122
v -0.788 0.117 1.092
v -0.788 0.171 1.038
v -0.787 0.211 1.148
v -0.787 0.227 1.132
v -0.788 0.092 1.177
v -0.788 0.111 1.103
v -0.787 0.201 1.179
v -0.787 0.207 1.156
v -0.788 0.111 1.269
v -0.788 0.092 1.195
v -0.787 0.207 1.215
v -0.787 0.201 1.193
v -0.788 0.171 1.334
v -0.788 0.117 1.28
v -0.787 0.227 1.24
v -0.787 0.211 1.223
v -0.744 0.255 1.359
v -0.744 0.181 1.339
v -0.754 0.258 1.25
v -0.754 0.235 1.244
v -0.744 0.348 1.339
v -0.744 0.274 1.359
v -0.754 0.294 1.244
v -0.754 0.272 1.25
v -0.744 0.413 1.28
v -0.744 0.358 1.334
v -0.754 0.318 1.223
v -0.754 0.302 1.24
v -0.744 0.438 1.195
v -0.744 0.418 1.269
v -0.754 0.328 1.193
v -0.754 0.322 1.215
v -0.744 0.358 1.038
v -0.744 0.413 1.092
v -0.754 0.302 1.132
v -0.754 0.318 1.148
v -0.744 0.418 1.103
v -0.744 0.438 1.177
v -0.754 0.322 1.156
v -0.754 0.328 1.179
v -0.744 0.274 1.013
v -0.744 0.348 1.033
v -0.754 0.272 1.122
v -0.754 0.294 1.128
v -0.744 0.181 1.033
v -0.744 0.255 1.013
v -0.754 0.235 1.128
v -0.754 0.258 1.122
v -0.744 0.117 1.092
v -0.744 0.171 1.038
v -0.754 0.211 1.148
v -0.754 0.227 1.132
v -0.744 0.092 1.177
v -0.744 0.111 1.103
v -0.754 0.201 1.179
v -0.754 0.207 1.156
v -0.744 0.111 1.269
v -0.744 0.092 1.195
v -0.754 0.207 1.215
v -0.754 0.201 1.193
v -0.744 0.171 1.334
v -0.744 0.117 1.28
v -0.754 0.227 1.24
v -0.754 0.211 1.223
v -0.793 0.237 1.225
v -0.793 0.225 1.214
v -0.798 0.243 1.215
v -0.798 0.236 1.208
v -0.793 0.225 1.158
v -0.793 0.237 1.147
v -0.798 0.236 1.164
v -0.798 0.243 1.157
v -0.793 0.292 1.147
v -0.793 0.304 1.158
v -0.798 0.287 1.157
v -0.798 0.294 1.164
v -0.793 0.304 1.214
v -0.793 0.292 1.225
v -0.798 0.294 1.208
v -0.798 0.287 1.215
v -0.774 0.237 1.225
v -0.774 0.225 1.214
v -0.78 0.243 1.215
v -0.78 0.236 1.208
v -0.774 0.225 1.158
v -0.774 0.237 1.147
v -0.78 0.236 1.164
v -0.78 0.243 1.157
v -0.774 0.292 1.147
v -0.774 0.304 1.158
v -0.78 0.287 1.157
v -0.78 0.294 1.164
v -0.774 0.304 1.214
v -0.774 0.292 1.225
v -0.78 0.294 1.208
v -0.78 0.287 1.215
usemtl Black
f 1377 1379 1380 1378
f 1379 1381 1382 1380
f 1381 1383 1384 1382
f 1383 1385 1386 1384
f 1385 1387 1388 1386
f 1387 1389 1390 1388
f 1389 1391 1392 1390
f 1391 1393 1394 1392
f 1393 1395 1396 1394
f 1395 1397 1398 1396
f 1390 1407 1406 1388
f 1397 1399 1400 1398
f 1399 1377 1378 1400
f 1377 1399 1397 1395 1393 1391 1389 1387 1385 1383 1381 1379
f 1407 1419 1418 1406
f 1388 1406 1405 1386
f 1386 1405 1404 1384
f 1378 1402 1412 1400
f 1380 1401 1402 1378
f 1384 1404 1403 1382
f 1400 1412 1411 1398
f 1382 1403 1401 1380
f 1398 1411 1410 1396
f 1396 1410 1409 1394
f 1394 1409 1408 1392
f 1392 1408 1407 1390
f 1422 1434 1433 1421
f 1404 1416 1415 1403
f 1411 1423 1422 1410
f 1408 1420 1419 1407
f 1405 1417 1416 1404
f 1412 1424 1423 1411
f 1401 1413 1414 1402
f 1409 1421 1420 1408
f 1406 1418 1417 1405
f 1402 1414 1424 1412
f 1403 1415 1413 1401
f 1410 1422 1421 1409
f 1419 1431 1430 1418
f 1416 1428 1427 1415
f 1423 1435 1434 1422
f 1420 1432 1431 1419
f 1417 1429 1428 1416
f 1424 1436 1435 1423
f 1413 1425 1426 1414
f 1421 1433 1432 1420
f 1418 1430 1429 1417
f 1414 1426 1436 1424
f 1415 1427 1425 1413
f 1509 1511 1512 1510
f 1513 1515 1516 1514
f 1517 1519 1520 1518
f 1521 1523 1524 1522
f 1525 1527 1528 1526
f 1529 1531 1532 1530
f 1533 1535 1536 1534
f 1537 1539 1540 1538
f 1541 1543 1544 1542
f 1545 1547 1548 1546
f 1549 1551 1552 1550
f 1553 1555 1556 1554
f 1573 1575 1576 1574
f 1577 1579 1580 1578
f 1581 1583 1584 1582
f 1585 1587 1588 1586
usemtl Grey
f 1439 1495 1493 1427
f 1438 1450 1460 1448
f 1433 1474 1476 1445
f 1431 1461 1462 1430
f 1439 1500 1499 1440
f 1447 1483 1481 1435
f 1443 1468 1467 1444
f 1428 1502 1504 1440
f 1447 1480 1479 1448
f 1438 1492 1491 1437
f 1445 1471 1469 1433
f 1441 1508 1507 1442
f 1448 1488 1487 1438
f 1449 1451 1452 1453 1454 1455 1456 1457 1458 1459 1460 1450
f 1437 1562 1564 1449
f 1446 1458 1457 1445
f 1443 1455 1454 1442
f 1440 1452 1451 1439
f 1447 1459 1458 1446
f 1444 1456 1455 1443
f 1441 1453 1452 1440
f 1460 1567 1565 1448
f 1437 1449 1450 1438
f 1444 1570 1572 1456
f 1442 1557 1558 1441
f 1464 1512 1511 1463
f 1443 1463 1461 1431
f 1442 1464 1463 1443
f 1430 1462 1464 1442
f 1484 1532 1531 1483
f 1431 1466 1468 1443
f 1432 1465 1466 1431
f 1444 1467 1465 1432
f 1504 1552 1551 1503
f 1432 1470 1472 1444
f 1444 1472 1471 1445
f 1433 1469 1470 1432
f 1475 1523 1521 1473
f 1445 1476 1475 1446
f 1434 1473 1474 1433
f 1446 1475 1473 1434
f 1461 1509 1510 1462
f 1436 1477 1478 1435
f 1435 1478 1480 1447
f 1448 1479 1477 1436
f 1495 1543 1541 1493
f 1434 1482 1484 1446
f 1446 1484 1483 1447
f 1435 1481 1482 1434
f 1481 1529 1530 1482
f 1436 1486 1488 1448
f 1426 1485 1486 1436
f 1438 1487 1485 1426
f 1501 1549 1550 1502
f 1425 1489 1490 1426
f 1437 1491 1489 1425
f 1426 1490 1492 1438
f 1474 1522 1524 1476
f 1437 1496 1495 1439
f 1425 1494 1496 1437
f 1427 1493 1494 1425
f 1494 1542 1544 1496
f 1427 1498 1500 1439
f 1428 1497 1498 1427
f 1440 1499 1497 1428
f 1476 1524 1523 1475
f 1440 1504 1503 1441
f 1429 1501 1502 1428
f 1441 1503 1501 1429
f 1496 1544 1543 1495
f 1430 1505 1506 1429
f 1442 1507 1505 1430
f 1429 1506 1508 1441
f 1502 1550 1552 1504
f 1482 1530 1532 1484
f 1462 1510 1512 1464
f 1489 1537 1538 1490
f 1503 1551 1549 1501
f 1469 1517 1518 1470
f 1483 1531 1529 1481
f 1463 1511 1509 1461
f 1492 1540 1539 1491
f 1472 1520 1519 1471
f 1491 1539 1537 1489
f 1471 1519 1517 1469
f 1497 1545 1546 1498
f 1477 1525 1526 1478
f 1490 1538 1540 1492
f 1470 1518 1520 1472
f 1500 1548 1547 1499
f 1480 1528 1527 1479
f 1498 1546 1548 1500
f 1478 1526 1528 1480
f 1505 1553 1554 1506
f 1485 1533 1534 1486
f 1499 1547 1545 1497
f 1465 1513 1514 1466
f 1479 1527 1525 1477
f 1508 1556 1555 1507
f 1488 1536 1535 1487
f 1468 1516 1515 1467
f 1507 1555 1553 1505
f 1486 1534 1536 1488
f 1466 1514 1516 1468
f 1493 1541 1542 1494
f 1506 1554 1556 1508
f 1473 1521 1522 1474
f 1487 1535 1533 1485
f 1467 1515 1513 1465
f 1557 1573 1574 1558
f 1454 1559 1557 1442
f 1441 1558 1560 1453
f 1453 1560 1559 1454
f 1570 1586 1588 1572
f 1449 1564 1563 1451
f 1439 1561 1562 1437
f 1451 1563 1561 1439
f 1566 1582 1584 1568
f 1459 1568 1567 1460
f 1447 1566 1568 1459
f 1448 1565 1566 1447
f 1571 1587 1585 1569
f 1456 1572 1571 1457
f 1445 1569 1570 1444
f 1457 1571 1569 1445
f 1561 1577 1578 1562
f 1560 1576 1575 1559
f 1565 1581 1582 1566
f 1564 1580 1579 1563
f 1569 1585 1586 1570
f 1559 1575 1573 1557
f 1568 1584 1583 1567
f 1562 1578 1580 1564
f 1572 1588 1587 1571
f 1558 1574 1576 1560
f 1567 1583 1581 1565
f 1563 1579 1577 1561
