mtllib Taxi.mtl
o Taxi_Cube.009
v 0.71 0.392 -1.708
v 0.71 0.542 -1.714
v 0.833 0.392 -0.048
v 0.833 0.624 -0.05
v 0.373 0.585 -1.912
v 0.546 0.581 -1.845
v 0.546 0.392 -1.894
v 0.373 0.392 -1.961
v 0.761 0.749 -0.07
v 0.764 0.553 1.858
v 0.789 0.392 1.616
v 0.373 0.542 2.145
v 0.373 0.392 2.204
v 0.673 0.551 2.06
v 0.827 0.582 1.299
v 0.826 0.617 0.938
v 0.833 0.623 0.365
v 0.761 0.749 0.398
v 0.741 0.749 0.918
v 0.713 0.72 1.389
v 0.387 0.709 1.385
v 0.448 0.744 1.01
v 0.833 0.392 0.354
v 0.826 0.387 0.93
v 0.833 0.589 1.131
v 0.729 0.735 1.158
v 0.43 0.738 1.255
v 0.833 0.392 0.99
v 0.833 0.392 -0.552
v 0.833 0.566 -0.587
v 0.761 0.749 -0.658
v 0.812 0.369 -0.805
v 0.812 0.502 -0.909
v 0.725 0.749 -0.994
v 0.808 0.171 -0.812
v 0.77 0.519 -1.324
v 0.697 0.803 -1.374
v 0.373 0.803 -1.408
v 0.355 0.614 2.065
v 0.692 0.632 1.973
v 0.769 0.493 -1.308
v 0.722 0.288 -1.725
v 0.603 0.154 -0.098
v 0.833 0.154 -0.098
v 0.373 0.303 -1.961
v 0.373 0.154 -0.098
v 0.546 0.303 -1.894
v 0.571 0.237 -1.356
v 0.373 0.237 -1.39
v 0.779 0.159 1.65
v 0.373 0.154 2.204
v 0.603 0.154 0.398
v 0.376 0.159 1.65
v 0.833 0.154 0.295
v 0.826 0.154 0.837
v 0.833 0.159 0.955
v 0.598 0.159 1.65
v 0.603 0.159 0.955
v 0.603 0.154 0.815
v 0.373 0.154 0.417
v 0.373 0.154 0.853
v 0.373 0.159 0.955
v 0.833 0.154 -0.552
v 0.603 0.154 -0.552
v 0.373 0.154 -0.552
v 0.812 0.16 -0.763
v 0.603 0.16 -0.763
v 0.373 0.16 -0.763
v 0.819 0.556 1.463
v 0.373 0.677 1.638
v 0.707 0.693 1.545
v 0.818 0.527 1.463
v 0.793 0.366 1.565
v 0.824 0.522 1.298
v 0.83 0.485 1.151
v 0.83 0.366 1.039
v 0.784 0.159 1.593
v 0.83 0.159 1.012
v 0.817 0.479 1.436
v 0.606 0.366 1.565
v 0.656 0.527 1.298
v 0.642 0.485 1.151
v 0.642 0.366 1.039
v 0.597 0.159 1.593
v 0.642 0.159 1.012
v 0.63 0.479 1.436
v 0.373 1.166 -0.153
v 0.577 1.129 -0.154
v 0.582 1.091 -0.534
v 0.373 1.123 -0.533
v 0.373 1.138 0.277
v 0.575 1.102 0.258
v 0.661 0.931 0.624
v 0.752 0.77 -0.027
v 0.752 0.77 0.369
v 0.598 1.044 -0.739
v 0.373 1.044 -0.74
v 0.684 0.938 -0.103
v 0.668 0.893 -0.948
v 0.651 0.821 -1.699
v 0.373 0.821 -1.812
v 0.744 0.764 0.368
v 0.456 0.766 0.966
v 0.705 0.766 0.884
v 0.726 0.764 0.823
v 0.635 0.931 0.626
v 0.555 1.08 0.304
v 0.381 1.116 0.32
v 0.734 0.77 0.824
v 0.682 0.935 -0.057
v 0.664 0.929 0.567
v 0.745 0.774 -0.638
v 0.584 1.077 0.247
v 0.591 1.097 -0.101
v 0.752 0.779 -0.639
v 0.752 0.779 -0.102
v 0.682 0.944 -0.133
v 0.72 0.779 -0.948
v 0.671 0.894 -0.876
v 0.626 1.027 -0.689
v 0.62 1.06 -0.509
v 0.597 1.107 -0.181
v 0.798 0.562 -1.126
v 0.808 0.481 -0.941
v 0.808 0.365 -0.847
v 0.585 0.195 -0.98
v 0.373 0.195 -1.003
v 0.652 0.895 -1.054
v 0.747 0.359 -1.462
v 0.747 0.425 -1.423
v 0.747 0.262 -1.492
v 0.56 0.27 -1.508
v 0.373 0.27 -1.517
v 0.796 0.535 -1.132
v 0.751 0.354 -1.42
v 0.751 0.407 -1.391
v 0.751 0.253 -1.45
v 0.6 0.171 -0.817
v 0.582 0.493 -1.308
v 0.6 0.481 -0.941
v 0.604 0.332 -0.847
v 0.591 0.535 -1.132
v 0.572 0.346 -1.422
v 0.576 0.407 -1.39
v 0.565 0.26 -1.449
v 0.598 0.355 -0.953
v 0.598 0.379 -0.944
v 0.58 0.355 -1.314
v 0.581 0.447 -1.295
v 0.456 0.753 0.959
v 0.705 0.753 0.878
v 0.433 0.918 0.701
v 0.634 0.918 0.619
v 0.554 1.067 0.297
v 0.381 1.103 0.314
v 0.744 0.764 -0.028
v 0.674 0.929 -0.057
v 0.656 0.923 0.566
v 0.672 0.931 0.307
v 0.577 1.071 0.246
v 0.584 1.089 -0.102
v 0.745 0.774 -0.101
v 0.675 0.939 -0.132
v 0.713 0.774 -0.947
v 0.671 0.909 -0.571
v 0.663 0.889 -0.875
v 0.619 1.021 -0.688
v 0.614 1.053 -0.509
v 0.59 1.1 -0.18
v 0.376 1.034 -0.763
v 0.613 0.892 -1.062
v 0.523 1.032 -0.763
v 0.633 0.825 -1.206
v 0.371 0.825 -1.238
v 0.672 0.833 -1.191
v 0.74 0.392 1.958
v 0.718 0.552 1.982
v 0.726 0.156 1.975
v 0.78 0.211 1.643
v 0.812 0.208 -0.767
v 0.833 0.207 -0.552
v 0.373 0.328 -1.961
v 0.546 0.328 -1.894
v 0.833 0.207 -0.089
v 0.833 0.207 0.306
v 0.826 0.206 0.855
v 0.833 0.211 0.965
v 0.71 0.316 -1.708
v 0.786 0.206 1.588
v 0.83 0.206 1.02
v 0.599 0.206 1.588
v 0.642 0.206 1.02
v 0.751 0.287 -1.445
v 0.808 0.217 -0.815
v 0.747 0.295 -1.486
v 0.566 0.286 -1.444
v 0.601 0.211 -0.819
v 0.573 0.268 -1.348
v 0.588 0.234 -0.975
v 0.727 0.209 1.972
v 0.373 0.207 2.204
v 0.558 0.328 -1.911
v 0.558 0.303 -1.911
v 0.76 0.263 -1.509
v 0.385 0.303 -1.979
v 0.763 0.254 -1.468
v 0.763 0.287 -1.462
v 0.76 0.295 -1.504
v 0.385 0.328 -1.979
v 0.722 0.316 -1.725
v 0.612 0.39 2.142
v 0.686 0.39 2.075
v 0.682 0.155 2.087
v 0.607 0.154 2.152
v 0.607 0.207 2.152
v 0.682 0.208 2.087
v 0.747 0.683 0.901
v 0.747 0.713 0.901
v 0.738 0.683 0.879
v 0.738 0.713 0.879
v 0.797 0.675 0.87
v 0.797 0.721 0.87
v 0.771 0.675 0.819
v 0.771 0.721 0.819
v 0.871 0.721 0.697
v 0.851 0.675 0.723
v 0.883 0.675 0.768
v 0.903 0.721 0.742
v 0.854 0.766 0.718
v 0.887 0.766 0.763
v 0.847 0.721 0.825
v 0.821 0.721 0.774
v 0.821 0.675 0.774
v 0.847 0.675 0.825
v 0.847 0.774 0.825
v 0.821 0.774 0.774
v 0.769 0.683 0.854
v 0.769 0.713 0.854
v 0.778 0.683 0.876
v 0.778 0.713 0.876
v 0.771 0.763 0.819
v 0.782 0.779 0.809
v 0.808 0.779 0.86
v 0.797 0.763 0.87
v 0.351 0.885 -1.078
v 0.351 1.027 -0.76
v 0.613 0.885 -1.058
v 0.523 1.024 -0.759
v 0.633 0.818 -1.203
v 0.346 0.818 -1.235
v 0.707 0.499 2.012
v 0.647 0.518 2.083
v 0.437 0.483 2.157
v 0.437 0.41 2.178
v 0.711 0.44 2.018
v 0.609 0.404 2.13
v 0.671 0.404 2.074
v 0.7 0.495 2.002
v 0.639 0.515 2.073
v 0.437 0.48 2.149
v 0.437 0.406 2.165
v 0.704 0.437 2.007
v 0.602 0.4 2.119
v 0.664 0.4 2.064
v 0.846 0.628 -0.05
v 0.846 0.395 -0.048
v 0.775 0.753 -0.07
v 0.844 0.207 -0.089
v 0.346 0.414 -1.959
v 0.346 0.562 -1.921
v 0.344 0.405 -1.918
v 0.344 0.554 -1.881
v 0.544 0.615 -1.83
v 0.653 0.639 -1.751
v 0.385 0.618 -1.892
v 0.632 0.747 -1.737
v 0.385 0.749 -1.836
v 0.535 0.607 -1.804
v 0.645 0.633 -1.734
v 0.376 0.609 -1.872
v 0.626 0.741 -1.714
v 0.376 0.741 -1.81
v 0.562 0.492 2.123
v 0.559 0.49 2.111
v 0.669 0.904 -0.639
v 0.616 1.04 -0.583
v 0.622 1.046 -0.583
v 0.738 0.774 -0.704
v 0.745 0.779 -0.704
v 0.678 0.913 -0.571
v 0.676 0.908 -0.639
v 0.301 1.152 -0.07
v 0.301 1.152 0.195
v 0.256 1.3 -0.017
v 0.256 1.282 0.147
v 0.303 1.173 -0.07
v 0.303 1.173 0.196
v 0.227 1.272 0.154
v 0.261 1.185 0.191
v 0.237 1.288 -0.022
v 0.276 1.184 -0.066
v 0.592 1.102 -0.147
v 0.751 0.775 -0.074
v 0.268 0.364 2.205
v 0.268 0.235 2.205
v 0.267 0.235 2.187
v 0.267 0.364 2.187
v -0.711 0.392 -1.708
v -0.711 0.542 -1.714
v -0.833 0.392 -0.048
v -0.833 0.624 -0.05
v 0 0.392 -1.989
v 0 0.585 -1.94
v -0.374 0.585 -1.912
v -0.547 0.581 -1.845
v -0.547 0.392 -1.894
v -0.374 0.392 -1.961
v -0.762 0.749 -0.07
v -0.765 0.553 1.858
v -0.79 0.392 1.616
v -0.374 0.542 2.145
v 0 0.542 2.156
v 0 0.392 2.214
v -0.374 0.392 2.204
v -0.674 0.551 2.06
v -0.828 0.582 1.299
v -0.827 0.617 0.938
v -0.833 0.623 0.365
v -0.762 0.749 0.398
v -0.741 0.749 0.918
v -0.714 0.72 1.389
v 0 0.744 1.016
v -0.388 0.709 1.385
v -0.449 0.744 1.01
v -0.833 0.392 0.354
v -0.827 0.387 0.93
v -0.833 0.589 1.131
v -0.73 0.735 1.158
v -0.431 0.738 1.255
v -0.833 0.392 0.99
v -0.833 0.392 -0.552
v -0.833 0.566 -0.587
v -0.762 0.749 -0.658
v -0.812 0.369 -0.805
v -0.812 0.502 -0.909
v -0.726 0.749 -0.994
v -0.809 0.171 -0.812
v -0.77 0.519 -1.324
v 0 0.803 -1.422
v -0.698 0.803 -1.374
v -0.374 0.803 -1.408
v -0.356 0.614 2.065
v 0 0.612 2.073
v -0.693 0.632 1.973
v -0.77 0.493 -1.308
v -0.723 0.288 -1.725
v -0.604 0.154 -0.098
v -0.833 0.154 -0.098
v -0.374 0.303 -1.961
v 0 0.303 -1.989
v 0 0.237 -1.404
v 0 0.154 -0.098
v -0.374 0.154 -0.098
v -0.547 0.303 -1.894
v -0.572 0.237 -1.356
v -0.374 0.237 -1.39
v -0.779 0.159 1.65
v 0 0.154 2.214
v -0.374 0.154 2.204
v -0.604 0.154 0.398
v -0.377 0.159 1.65
v 0 0.154 0.42
v -0.833 0.154 0.295
v -0.827 0.154 0.837
v -0.833 0.159 0.955
v -0.599 0.159 1.65
v -0.604 0.159 0.955
v -0.604 0.154 0.815
v -0.374 0.154 0.417
v -0.374 0.154 0.853
v -0.374 0.159 0.955
v 0 0.159 1.65
v 0 0.159 0.955
v 0 0.154 0.859
v -0.833 0.154 -0.552
v 0 0.154 -0.552
v -0.604 0.154 -0.552
v -0.374 0.154 -0.552
v -0.812 0.16 -0.763
v 0 0.16 -0.763
v -0.604 0.16 -0.763
v -0.374 0.16 -0.763
v -0.82 0.556 1.463
v -0.374 0.677 1.638
v -0.708 0.693 1.545
v -0.819 0.527 1.463
v -0.794 0.366 1.565
v -0.825 0.522 1.298
v -0.83 0.485 1.151
v -0.83 0.366 1.039
v -0.785 0.159 1.593
v -0.83 0.159 1.012
v -0.818 0.479 1.436
v -0.607 0.366 1.565
v -0.657 0.527 1.298
v -0.643 0.485 1.151
v -0.643 0.366 1.039
v -0.598 0.159 1.593
v -0.643 0.159 1.012
v -0.631 0.479 1.436
v -0.374 1.166 -0.153
v 0 1.166 -0.153
v 0 1.129 -0.533
v -0.578 1.129 -0.154
v -0.583 1.091 -0.534
v -0.374 1.123 -0.533
v -0.374 1.138 0.277
v -0.576 1.102 0.258
v -0.661 0.931 0.624
v 0 1.154 0.28
v -0.753 0.77 -0.027
v -0.753 0.77 0.369
v 0 1.044 -0.74
v -0.599 1.044 -0.739
v -0.374 1.044 -0.74
v -0.685 0.938 -0.103
v -0.669 0.893 -0.948
v -0.652 0.821 -1.699
v 0 0.821 -1.83
v -0.374 0.821 -1.812
v -0.745 0.764 0.368
v 0 0.766 0.971
v -0.457 0.766 0.966
v -0.706 0.766 0.884
v -0.727 0.764 0.823
v -0.635 0.931 0.626
v -0.556 1.08 0.304
v 0 1.132 0.323
v -0.382 1.116 0.32
v -0.735 0.77 0.824
v -0.683 0.935 -0.057
v -0.665 0.929 0.567
v -0.745 0.774 -0.638
v -0.585 1.077 0.247
v -0.592 1.097 -0.101
v -0.753 0.779 -0.639
v -0.753 0.779 -0.102
v -0.683 0.944 -0.133
v -0.721 0.779 -0.948
v -0.672 0.894 -0.876
v -0.627 1.027 -0.689
v -0.621 1.06 -0.509
v -0.597 1.107 -0.181
v -0.799 0.562 -1.126
v -0.809 0.481 -0.941
v -0.809 0.365 -0.847
v 0 0.195 -0.995
v -0.586 0.195 -0.98
v -0.374 0.195 -1.003
v -0.653 0.895 -1.054
v -0.748 0.359 -1.462
v -0.748 0.425 -1.423
v -0.748 0.262 -1.492
v 0 0.27 -1.538
v -0.561 0.27 -1.508
v -0.374 0.27 -1.517
v -0.797 0.535 -1.132
v -0.752 0.354 -1.42
v -0.752 0.407 -1.391
v -0.752 0.253 -1.45
v -0.601 0.171 -0.817
v -0.583 0.493 -1.308
v -0.601 0.481 -0.941
v -0.605 0.332 -0.847
v -0.592 0.535 -1.132
v -0.573 0.346 -1.422
v -0.577 0.407 -1.39
v -0.565 0.26 -1.449
v 0 0.753 0.964
v -0.599 0.355 -0.953
v -0.599 0.379 -0.944
v 0 0.918 0.706
v -0.581 0.355 -1.314
v -0.582 0.447 -1.295
v -0.457 0.753 0.959
v -0.705 0.753 0.878
v -0.434 0.918 0.701
v -0.635 0.918 0.619
v -0.555 1.067 0.297
v 0 1.119 0.316
v -0.382 1.103 0.314
v -0.745 0.764 -0.028
v -0.675 0.929 -0.057
v -0.657 0.923 0.566
v -0.672 0.931 0.307
v -0.577 1.071 0.246
v -0.585 1.089 -0.102
v -0.745 0.774 -0.101
v -0.676 0.939 -0.132
v -0.714 0.774 -0.947
v -0.672 0.909 -0.571
v -0.664 0.889 -0.875
v -0.62 1.021 -0.688
v -0.614 1.053 -0.509
v -0.591 1.1 -0.18
v -0.377 1.034 -0.763
v 0 1.034 -0.763
v -0.614 0.892 -1.062
v -0.524 1.032 -0.763
v -0.634 0.825 -1.206
v -0.372 0.825 -1.238
v 0 0.825 -1.251
v -0.672 0.833 -1.191
v -0.741 0.392 1.958
v -0.719 0.552 1.982
v -0.727 0.156 1.975
v -0.781 0.211 1.643
v 0 0.328 -1.989
v -0.812 0.208 -0.767
v -0.833 0.207 -0.552
v -0.374 0.328 -1.961
v -0.547 0.328 -1.894
v -0.833 0.207 -0.089
v -0.833 0.207 0.306
v -0.827 0.206 0.855
v -0.833 0.211 0.965
v -0.711 0.316 -1.708
v -0.787 0.206 1.588
v -0.83 0.206 1.02
v -0.6 0.206 1.588
v -0.643 0.206 1.02
v -0.752 0.287 -1.445
v -0.809 0.217 -0.815
v -0.748 0.295 -1.486
v -0.567 0.286 -1.444
v -0.602 0.211 -0.819
v -0.574 0.268 -1.348
v -0.589 0.234 -0.975
v -0.728 0.209 1.972
v 0 0.207 2.214
v -0.374 0.207 2.204
v -0.559 0.328 -1.911
v -0.559 0.303 -1.911
v -0.761 0.263 -1.509
v -0.386 0.303 -1.979
v 0 0.303 -2.007
v -0.764 0.254 -1.468
v -0.764 0.287 -1.462
v -0.761 0.295 -1.504
v 0 0.328 -2.007
v -0.386 0.328 -1.979
v -0.723 0.316 -1.725
v -0.613 0.39 2.142
v -0.687 0.39 2.075
v -0.683 0.155 2.087
v -0.608 0.154 2.152
v -0.608 0.207 2.152
v -0.683 0.208 2.087
v -0.748 0.683 0.901
v -0.748 0.713 0.901
v -0.739 0.683 0.879
v -0.739 0.713 0.879
v -0.798 0.675 0.87
v -0.798 0.721 0.87
v -0.772 0.675 0.819
v -0.772 0.721 0.819
v -0.872 0.721 0.697
v -0.852 0.675 0.723
v -0.884 0.675 0.768
v -0.904 0.721 0.742
v -0.855 0.766 0.718
v -0.888 0.766 0.763
v -0.848 0.721 0.825
v -0.822 0.721 0.774
v -0.822 0.675 0.774
v -0.848 0.675 0.825
v -0.848 0.774 0.825
v -0.822 0.774 0.774
v -0.769 0.683 0.854
v -0.769 0.713 0.854
v -0.779 0.683 0.876
v -0.779 0.713 0.876
v -0.772 0.763 0.819
v -0.783 0.779 0.809
v -0.809 0.779 0.86
v -0.798 0.763 0.87
v -0.351 0.885 -1.078
v -0.352 1.027 -0.76
v 0 0.885 -1.086
v 0 1.027 -0.76
v -0.614 0.885 -1.058
v -0.524 1.024 -0.759
v -0.634 0.818 -1.203
v -0.347 0.818 -1.235
v 0 0.818 -1.247
v -0.708 0.499 2.012
v -0.648 0.518 2.083
v -0.437 0.483 2.157
v -0.437 0.41 2.178
v -0.712 0.44 2.018
v -0.61 0.404 2.13
v -0.672 0.404 2.074
v -0.701 0.495 2.002
v -0.64 0.515 2.073
v -0.437 0.48 2.149
v -0.437 0.406 2.165
v -0.705 0.437 2.007
v -0.603 0.4 2.119
v -0.665 0.4 2.064
v -0.847 0.628 -0.05
v -0.847 0.395 -0.048
v -0.776 0.753 -0.07
v -0.845 0.207 -0.089
v 0 0.738 1.255
v 0 0.709 1.385
v 0 0.677 1.638
v -0.347 0.414 -1.959
v 0 0.414 -1.98
v 0 0.562 -1.943
v -0.347 0.562 -1.921
v -0.345 0.405 -1.918
v 0 0.405 -1.94
v 0 0.554 -1.902
v -0.345 0.554 -1.881
v -0.545 0.615 -1.83
v -0.654 0.639 -1.751
v -0.386 0.618 -1.892
v -0.633 0.747 -1.737
v -0.386 0.749 -1.836
v -0.536 0.607 -1.804
v -0.646 0.633 -1.734
v -0.377 0.609 -1.872
v -0.627 0.741 -1.714
v -0.377 0.741 -1.81
v -0.563 0.492 2.123
v -0.56 0.49 2.111
v -0.67 0.904 -0.639
v -0.617 1.04 -0.583
v -0.623 1.046 -0.583
v -0.739 0.774 -0.704
v -0.746 0.779 -0.704
v -0.679 0.913 -0.571
v -0.677 0.908 -0.639
v -0.302 1.152 -0.07
v 0 1.152 -0.07
v -0.302 1.152 0.195
v 0 1.152 0.197
v -0.256 1.3 -0.017
v 0 1.3 -0.017
v -0.256 1.282 0.147
v 0 1.293 0.148
v 0 1.173 -0.07
v -0.304 1.173 -0.07
v -0.304 1.173 0.196
v 0 1.173 0.198
v 0 1.279 0.155
v -0.228 1.272 0.154
v -0.262 1.185 0.191
v 0 1.185 0.193
v 0 1.184 -0.066
v 0 1.288 -0.022
v -0.238 1.288 -0.022
v -0.277 1.184 -0.066
v -0.593 1.102 -0.147
v -0.752 0.775 -0.074
v -0.269 0.364 2.205
v 0 0.364 2.212
v 0 0.235 2.212
v -0.269 0.235 2.205
v -0.268 0.235 2.187
v -0.268 0.364 2.187
v 0 0.364 2.195
v 0 0.235 2.195
v -0.121 1.2 -0.063
v -0.121 1.279 -0.031
v -0.142 1.279 -0.031
v -0.142 1.2 -0.063
v 0.118 1.2 -0.063
v 0.118 1.266 -0.036
v 0.148 1.266 -0.036
v 0.148 1.279 -0.031
v 0.069 1.279 -0.031
v 0.069 1.266 -0.036
v 0.098 1.266 -0.036
v 0.098 1.2 -0.063
v 0.033 1.262 -0.038
v 0.033 1.262 -0.038
v 0.046 1.23 -0.051
v 0.021 1.23 -0.051
v 0.009 1.2 -0.063
v 0.015 1.216 -0.056
v 0.051 1.216 -0.056
v 0.058 1.2 -0.063
v 0.079 1.2 -0.063
v 0.045 1.279 -0.031
v 0.021 1.279 -0.031
v -0.013 1.2 -0.063
v -0.076 1.2 -0.063
v -0.058 1.227 -0.052
v -0.038 1.2 -0.063
v -0.015 1.2 -0.063
v -0.046 1.241 -0.046
v -0.016 1.279 -0.031
v -0.04 1.279 -0.031
v -0.058 1.254 -0.041
v -0.075 1.279 -0.031
v -0.099 1.279 -0.031
v -0.07 1.241 -0.046
v -0.101 1.2 -0.063
v 0.021 1.226 -0.042
v 0.051 1.213 -0.047
v 0.021 1.276 -0.022
v -0.013 1.196 -0.054
v -0.142 1.276 -0.022
v -0.142 1.196 -0.054
v -0.058 1.224 -0.043
v -0.038 1.196 -0.054
v 0.046 1.226 -0.042
v 0.079 1.196 -0.054
v 0.015 1.213 -0.047
v 0.118 1.262 -0.027
v 0.098 1.262 -0.027
v -0.075 1.276 -0.022
v -0.099 1.276 -0.022
v 0.033 1.258 -0.029
v 0.033 1.258 -0.029
v 0.118 1.196 -0.054
v 0.098 1.196 -0.054
v 0.069 1.262 -0.027
v -0.046 1.237 -0.037
v -0.04 1.276 -0.022
v -0.058 1.25 -0.032
v -0.07 1.238 -0.037
v -0.101 1.196 -0.054
v 0.045 1.276 -0.022
v 0.148 1.262 -0.027
v 0.069 1.276 -0.022
v -0.015 1.196 -0.054
v 0.009 1.196 -0.054
v -0.121 1.276 -0.022
v -0.076 1.196 -0.054
v 0.148 1.276 -0.022
v -0.121 1.196 -0.054
v 0.058 1.196 -0.054
v -0.016 1.276 -0.022
v 0.127 1.193 0.195
v 0.127 1.272 0.16
v 0.148 1.272 0.16
v 0.148 1.193 0.195
v -0.113 1.193 0.195
v -0.113 1.258 0.166
v -0.142 1.258 0.166
v -0.142 1.272 0.16
v -0.063 1.272 0.16
v -0.063 1.258 0.166
v -0.092 1.258 0.166
v -0.092 1.193 0.195
v -0.027 1.254 0.167
v -0.027 1.254 0.167
v -0.04 1.223 0.181
v -0.015 1.223 0.181
v -0.003 1.193 0.195
v -0.009 1.209 0.187
v -0.045 1.209 0.187
v -0.052 1.193 0.195
v -0.073 1.193 0.195
v -0.039 1.272 0.16
v -0.015 1.272 0.16
v 0.019 1.193 0.195
v 0.082 1.193 0.195
v 0.064 1.22 0.183
v 0.044 1.193 0.195
v 0.021 1.193 0.195
v 0.052 1.233 0.177
v 0.022 1.272 0.16
v 0.046 1.272 0.16
v 0.064 1.246 0.171
v 0.081 1.272 0.16
v 0.105 1.272 0.16
v 0.075 1.234 0.176
v 0.107 1.193 0.195
v -0.015 1.219 0.172
v -0.045 1.205 0.178
v -0.015 1.268 0.151
v 0.019 1.189 0.186
v 0.148 1.268 0.151
v 0.148 1.189 0.186
v 0.064 1.216 0.174
v 0.044 1.189 0.186
v -0.04 1.219 0.172
v -0.073 1.189 0.186
v -0.009 1.205 0.178
v -0.113 1.254 0.157
v -0.092 1.254 0.157
v 0.081 1.268 0.151
v 0.105 1.268 0.151
v -0.027 1.25 0.158
v -0.027 1.25 0.158
v -0.113 1.189 0.186
v -0.092 1.189 0.186
v -0.063 1.254 0.157
v 0.052 1.229 0.168
v 0.046 1.268 0.151
v 0.064 1.242 0.162
v 0.075 1.23 0.167
v 0.107 1.189 0.186
v -0.039 1.268 0.151
v -0.142 1.254 0.157
v -0.063 1.268 0.151
v 0.021 1.189 0.186
v -0.003 1.189 0.186
v 0.127 1.268 0.151
v 0.082 1.189 0.186
v -0.142 1.268 0.151
v 0.127 1.189 0.186
v -0.052 1.189 0.186
v 0.022 1.268 0.151
usemtl Yellow
f 7 6 2 1
f 29 30 4 3
f 69 71 40 10
f 38 101 429 349
f 36 130 2 100 37
f 313 5 270 619
f 8 5 6 7
f 540 201 305 668
f 71 70 39 40
f 3 4 265 266
f 23 17 16 24
f 38 349 512 174
f 93 19 109 111
f 26 27 21 20
f 185 184 268
f 17 18 19 16
f 25 26 20 15
f 332 22 103 432
f 195 193 207 208
f 16 19 26 25
f 19 22 27 26
f 24 16 25 28
f 4 30 31 9
f 131 42 204
f 32 33 30 29
f 98 303 116 117
f 30 33 34 31
f 19 93 106 104
f 184 185 54 44 63 181
f 178 200 216 213
f 36 123 134 41
f 129 130 136 135
f 88 302 122
f 123 36 37 34
f 39 353 322 12
f 10 40 177
f 40 39 12 14
f 201 13 304 305
f 137 131 204 206
f 65 46 362 386
f 63 44 43 64
f 64 43 46 65
f 46 43 52 60
f 60 52 59 61
f 362 46 60 372
f 372 60 61 384
f 43 44 54 52
f 52 54 55 59
f 59 55 56 58
f 384 61 62 383
f 61 59 58 62
f 67 64 65 68
f 66 63 64 67
f 68 65 386 390
f 127 68 390 457
f 123 33 124 134
f 126 138 68 127
f 132 145 133
f 181 63 66 180
f 133 49 361 464
f 57 50 178 213
f 382 53 51 368
f 11 72 69 10
f 20 21 70 71
f 15 20 71 69
f 70 21 615 616
f 69 72 15
f 72 11 73 79
f 25 15 74 75
f 28 25 75 76
f 15 72 79 74
f 187 28 76 190
f 189 77 84 191
f 79 73 80 86
f 190 76 83 192
f 75 74 81 82
f 74 79 86 81
f 76 75 82 83
f 191 192 83 80
f 86 82 81
f 57 84 77 50
f 80 83 82 86
f 56 78 85 58
f 58 85 62
f 383 62 53 382
f 53 84 57
f 62 85 84 53
f 88 87 91 92
f 22 19 104 103
f 420 91 293 647
f 93 92 107 106
f 88 89 90 87
f 87 90 413 412
f 89 96 97 90
f 90 97 423 413
f 96 128 171 172
f 34 99 119 118
f 92 93 111 113
f 429 101 5 313
f 101 100 276 277
f 2 6 273 274
f 432 103 150 479
f 104 106 153 151
f 107 108 155 154
f 108 438 490 155
f 91 420 438 108
f 92 91 108 107
f 94 110 157 156
f 113 111 158 160
f 88 92 113 114
f 98 302 114 110
f 122 117 163 169
f 119 120 167 166
f 99 96 120 119
f 96 89 287 120
f 89 88 122 121
f 48 126 127 49
f 33 32 125 124
f 49 127 457 361
f 33 123 34
f 130 36 41 136
f 195 129 135 193
f 97 96 172 170
f 37 38 174 173
f 45 133 464 360
f 99 128 96
f 99 34 175
f 42 132 47
f 47 132 133 45
f 1 2 130 129
f 42 47 203
f 132 42 131
f 135 136 144 143
f 124 125 141 140
f 134 124 140 142
f 41 134 142 139
f 194 35 138 197
f 193 135 143 196
f 136 41 139 144
f 196 143 148 198
f 140 139 142
f 141 146 147
f 144 139 149
f 67 138 35 66
f 137 145 132 131
f 68 138 67
f 133 145 48 49
f 147 146 148 149
f 147 140 141
f 199 146 141 197
f 149 148 143 144
f 149 139 140 147
f 198 148 146 199
f 106 107 154 153
f 103 104 151 150
f 110 114 161 157
f 114 113 160 161
f 111 109 105 158
f 285 286 287 291
f 115 289 291 290
f 121 122 169 168
f 117 116 162 163
f 118 119 166 164
f 120 287 286 167
f 172 171 247 248
f 174 512 595 250
f 507 170 246 590
f 173 174 250 249
f 423 97 170 507
f 128 175 173 171
f 173 175 37
f 175 128 99
f 175 34 37
f 540 368 51 201
f 201 215 211 13
f 11 10 176
f 11 176 200 179
f 48 198 199 126
f 126 199 197 138
f 145 196 198 48
f 137 193 196 145
f 125 194 197 141
f 1 129 195 188
f 188 195 208 210
f 84 85 192 191
f 78 190 192 85
f 73 189 191 80
f 11 179 189 73
f 32 180 194 125
f 8 7 183 182
f 24 28 187 186
f 184 3 266 268
f 23 24 186 185
f 177 14 252 251
f 312 8 182 518
f 29 3 184 181
f 32 29 181 180
f 7 1 188 183
f 185 186 55 54
f 56 55 186 187
f 66 35 194 180
f 189 179 50 77
f 215 214 213 216
f 50 179 200 178
f 53 57 214 51
f 202 210 42 203
f 550 209 205 546
f 209 202 203 205
f 210 208 204 42
f 204 208 207 206
f 47 45 205 203
f 182 183 202 209
f 193 137 206 207
f 183 188 210 202
f 518 182 209 550
f 45 360 546 205
f 213 214 57
f 216 200 176 212
f 201 51 214 215
f 14 12 283 252
f 12 13 254 253
f 217 218 220 219
f 237 238 224 223
f 231 228 230 235
f 239 240 218 217
f 237 223 221 239
f 238 220 218 240
f 226 225 228 227
f 233 232 225 226
f 231 234 227 228
f 234 233 226 227
f 236 235 230 229
f 228 225 229 230
f 222 231 235 243 244
f 224 222 244 241
f 225 232 236 229
f 232 224 241 242 236
f 221 223 233 234
f 222 221 234 231
f 223 224 232 233
f 224 238 240 222
f 219 237 239 217
f 221 222 240 239
f 219 220 238 237
f 241 244 243 242
f 242 243 235 236
f 171 173 249 247
f 170 172 248 246
f 256 257 264 263
f 177 40 14
f 252 283 284 259
f 255 251 258 262
f 212 176 255 257
f 176 177 251 255
f 13 211 256 254
f 211 212 257 256
f 253 254 261 260
f 251 252 259 258
f 257 255 262 264
f 254 256 263 261
f 18 17 265 267
f 23 185 268 266
f 4 9 267 265
f 9 18 267
f 17 23 266 265
f 322 323 13 12
f 37 100 101 38
f 27 22 332 614
f 39 70 616 353
f 21 27 614 615
f 619 270 272 623
f 8 312 618 269
f 5 8 269 270
f 269 618 622 271
f 270 269 271 272
f 273 275 280 278
f 275 277 282 280
f 5 101 277 275
f 6 5 275 273
f 100 2 274 276
f 277 276 281 282
f 274 273 278 279
f 276 274 279 281
f 187 190 78 56
f 284 283 253 260
f 283 12 253
f 165 112 115 290
f 287 89 121
f 291 287 121 290
f 288 285 291 289
f 168 165 290 121
f 649 294 300 661
f 87 412 645 292
f 91 87 292 293
f 294 649 651 295
f 297 295 298 299
f 297 296 294 295
f 295 651 656 298
f 655 297 299 659
f 296 652 660 301
f 294 296 301 300
f 114 302 88
f 122 302 98 117
f 94 303 98 110
f 304 667 672 307
f 13 323 667 304
f 215 216 212 211
f 668 305 306 673
f 305 304 307 306
f 316 308 309 315
f 341 310 311 342
f 393 319 354 395
f 351 349 429 430
f 348 350 428 309 462
f 313 619 620 314
f 317 316 315 314
f 540 668 669 541
f 395 354 352 394
f 310 611 610 311
f 335 336 327 328
f 351 511 512 349
f 419 442 440 330
f 338 331 333 339
f 524 613 523
f 328 327 330 329
f 337 326 331 338
f 332 432 433 334
f 534 549 548 532
f 327 337 338 330
f 330 338 339 334
f 336 340 337 327
f 311 318 343 342
f 463 544 356
f 344 341 342 345
f 426 448 447 665
f 342 343 346 345
f 330 434 436 419
f 523 520 385 358 373 524
f 516 555 558 539
f 348 355 467 454
f 461 468 469 462
f 414 453 664
f 454 346 350 348
f 352 321 322 353
f 319 515 354
f 354 325 321 352
f 541 669 666 324
f 470 547 544 463
f 388 386 362 363
f 385 387 357 358
f 387 388 363 357
f 363 379 370 357
f 379 380 378 370
f 362 372 379 363
f 372 384 380 379
f 357 370 373 358
f 370 378 374 373
f 378 377 375 374
f 384 383 381 380
f 380 381 377 378
f 391 392 388 387
f 389 391 387 385
f 392 390 386 388
f 459 457 390 392
f 454 467 455 345
f 458 459 392 471
f 465 466 478
f 520 519 389 385
f 466 464 361 366
f 376 555 516 367
f 382 368 369 371
f 320 319 393 396
f 331 395 394 333
f 326 393 395 331
f 394 616 615 333
f 393 326 396
f 396 403 397 320
f 337 399 398 326
f 340 400 399 337
f 326 398 403 396
f 526 529 400 340
f 528 530 408 401
f 403 410 404 397
f 529 531 407 400
f 399 406 405 398
f 398 405 410 403
f 400 407 406 399
f 530 404 407 531
f 410 405 406
f 376 367 401 408
f 404 410 406 407
f 375 377 409 402
f 377 381 409
f 383 382 371 381
f 371 376 408
f 381 371 408 409
f 414 418 417 411
f 334 433 434 330
f 420 647 646 417
f 419 436 437 418
f 414 411 416 415
f 411 412 413 416
f 415 416 425 424
f 416 413 423 425
f 424 509 508 460
f 346 449 450 427
f 418 444 442 419
f 429 313 314 430
f 430 629 628 428
f 309 626 625 315
f 432 479 485 433
f 434 486 488 436
f 437 489 491 439
f 439 491 490 438
f 417 439 438 420
f 418 437 439 417
f 421 492 493 441
f 444 496 494 442
f 414 445 444 418
f 426 441 445 664
f 453 505 499 448
f 450 502 503 451
f 427 450 451 424
f 424 451 639 415
f 415 452 453 414
f 365 366 459 458
f 345 455 456 344
f 366 361 457 459
f 345 346 454
f 462 469 355 348
f 534 532 468 461
f 425 506 509 424
f 350 510 511 351
f 359 360 464 466
f 427 424 460
f 427 513 346
f 356 364 465
f 364 359 466 465
f 308 461 462 309
f 356 543 364
f 465 463 356
f 468 476 477 469
f 455 473 474 456
f 467 475 473 455
f 355 472 475 467
f 533 536 471 347
f 532 535 476 468
f 469 477 472 355
f 535 537 483 476
f 473 475 472
f 474 481 480
f 477 484 472
f 391 389 347 471
f 470 463 465 478
f 392 391 471
f 466 366 365 478
f 481 484 483 480
f 481 474 473
f 538 536 474 480
f 484 477 476 483
f 484 481 473 472
f 537 538 480 483
f 436 488 489 437
f 433 485 486 434
f 441 493 497 445
f 445 497 496 444
f 442 494 435 440
f 637 643 639 638
f 446 642 643 641
f 452 504 505 453
f 448 499 498 447
f 449 500 502 450
f 451 503 638 639
f 509 592 591 508
f 511 594 595 512
f 507 590 588 506
f 510 593 594 511
f 423 507 506 425
f 460 508 510 513
f 510 350 513
f 513 427 460
f 513 350 346
f 540 541 369 368
f 541 324 553 557
f 320 514 319
f 320 517 539 514
f 365 458 538 537
f 458 471 536 538
f 478 365 537 535
f 470 478 535 532
f 456 474 536 533
f 308 527 534 461
f 527 552 549 534
f 408 530 531 409
f 402 409 531 529
f 397 404 530 528
f 320 397 528 517
f 344 456 533 519
f 317 521 522 316
f 336 525 526 340
f 523 613 611 310
f 335 524 525 336
f 515 596 597 325
f 312 518 521 317
f 341 520 523 310
f 344 519 520 341
f 316 522 527 308
f 524 373 374 525
f 375 526 525 374
f 389 519 533 347
f 528 401 367 517
f 557 558 555 556
f 367 516 539 517
f 371 369 556 376
f 542 543 356 552
f 550 546 545 551
f 551 545 543 542
f 552 356 544 549
f 544 547 548 549
f 364 543 545 359
f 521 551 542 522
f 532 548 547 470
f 522 542 552 527
f 518 550 551 521
f 359 545 546 360
f 555 376 556
f 558 554 514 539
f 541 557 556 369
f 325 597 635 321
f 321 598 599 324
f 559 561 562 560
f 579 565 566 580
f 573 577 572 570
f 581 559 560 582
f 579 581 563 565
f 580 582 560 562
f 568 569 570 567
f 575 568 567 574
f 573 570 569 576
f 576 569 568 575
f 578 571 572 577
f 570 572 571 567
f 564 586 585 577 573
f 566 583 586 564
f 567 571 578 574
f 574 578 584 583 566
f 563 576 575 565
f 564 573 576 563
f 565 575 574 566
f 566 564 582 580
f 561 559 581 579
f 563 581 582 564
f 561 579 580 562
f 583 584 585 586
f 584 578 577 585
f 508 591 593 510
f 506 588 592 509
f 601 608 609 602
f 515 325 354
f 597 604 636 635
f 600 607 603 596
f 554 602 600 514
f 514 600 596 515
f 324 599 601 553
f 553 601 602 554
f 598 605 606 599
f 596 603 604 597
f 602 609 607 600
f 599 606 608 601
f 329 612 610 328
f 335 611 613 524
f 311 610 612 318
f 318 612 329
f 328 610 611 335
f 322 321 324 323
f 350 351 430 428
f 339 614 332 334
f 352 353 616 394
f 333 615 614 339
f 619 623 624 620
f 317 617 618 312
f 314 620 617 317
f 617 621 622 618
f 620 624 621 617
f 625 630 632 627
f 627 632 634 629
f 314 627 629 430
f 315 625 627 314
f 428 628 626 309
f 629 634 633 628
f 626 631 630 625
f 628 633 631 626
f 526 375 402 529
f 636 605 598 635
f 635 598 321
f 501 642 446 443
f 639 452 415
f 643 642 452 639
f 640 641 643 637
f 504 452 642 501
f 649 661 662 648
f 411 644 645 412
f 417 646 644 411
f 648 650 651 649
f 654 658 657 650
f 654 650 648 653
f 650 657 656 651
f 655 659 658 654
f 653 663 660 652
f 648 662 663 653
f 445 414 664
f 453 448 426 664
f 421 441 426 665
f 666 671 672 667
f 324 666 667 323
f 557 553 554 558
f 668 673 670 669
f 669 670 671 666
f 680 682 681
f 680 683 682
f 679 683 680
f 678 684 679
f 684 683 679
f 678 685 684
f 694 696 695
f 694 687 696
f 687 686 696
f 686 697 696
f 694 688 687
f 689 697 686
f 694 692 688
f 692 689 688
f 692 691 689
f 691 697 689
f 694 693 692
f 690 697 691
f 702 704 703
f 702 705 704
f 705 707 706
f 705 708 707
f 702 708 705
f 702 709 708
f 701 699 702
f 699 709 702
f 701 700 699
f 698 709 699
f 674 676 675
f 674 677 676
f 736 742 737
f 736 737 729
f 721 736 729
f 727 721 722
f 722 721 729
f 727 722 728
f 719 735 712
f 719 712 726
f 726 712 725
f 725 712 713
f 719 726 718
f 710 725 713
f 719 718 711
f 711 718 710
f 711 710 720
f 720 710 713
f 719 711 744
f 739 720 713
f 730 745 731
f 730 731 732
f 732 723 724
f 732 724 733
f 730 732 733
f 730 733 734
f 738 730 716
f 716 730 734
f 738 716 717
f 741 716 734
f 743 740 714
f 743 714 715
f 699 716 741 698
f 698 741 734 709
f 708 733 724 707
f 709 734 733 708
f 681 742 736 680
f 692 711 720 691
f 696 712 735 695
f 694 719 744 693
f 674 743 715 677
f 688 718 726 687
f 707 724 723 706
f 703 745 730 702
f 695 735 719 694
f 687 726 725 686
f 691 720 739 690
f 702 730 738 701
f 693 744 711 692
f 685 728 722 684
f 678 727 728 685
f 704 731 745 703
f 706 723 732 705
f 684 722 729 683
f 690 739 713 697
f 679 721 727 678
f 683 729 737 682
f 686 725 710 689
f 701 738 717 700
f 697 713 712 696
f 689 710 718 688
f 677 715 714 676
f 680 736 721 679
f 705 732 731 704
f 682 737 742 681
f 700 717 716 699
f 676 714 740 675
f 675 740 743 674
f 752 754 753
f 752 755 754
f 751 755 752
f 750 756 751
f 756 755 751
f 750 757 756
f 766 768 767
f 766 759 768
f 759 758 768
f 758 769 768
f 766 760 759
f 761 769 758
f 766 764 760
f 764 761 760
f 764 763 761
f 763 769 761
f 766 765 764
f 762 769 763
f 774 776 775
f 774 777 776
f 777 779 778
f 777 780 779
f 774 780 777
f 774 781 780
f 773 771 774
f 771 781 774
f 773 772 771
f 770 781 771
f 746 748 747
f 746 749 748
f 808 814 809
f 808 809 801
f 793 808 801
f 799 793 794
f 794 793 801
f 799 794 800
f 791 807 784
f 791 784 798
f 798 784 797
f 797 784 785
f 791 798 790
f 782 797 785
f 791 790 783
f 783 790 782
f 783 782 792
f 792 782 785
f 791 783 816
f 811 792 785
f 802 817 803
f 802 803 804
f 804 795 796
f 804 796 805
f 802 804 805
f 802 805 806
f 810 802 788
f 788 802 806
f 810 788 789
f 813 788 806
f 815 812 786
f 815 786 787
f 771 788 813 770
f 770 813 806 781
f 780 805 796 779
f 781 806 805 780
f 753 814 808 752
f 764 783 792 763
f 768 784 807 767
f 766 791 816 765
f 746 815 787 749
f 760 790 798 759
f 779 796 795 778
f 775 817 802 774
f 767 807 791 766
f 759 798 797 758
f 763 792 811 762
f 774 802 810 773
f 765 816 783 764
f 757 800 794 756
f 750 799 800 757
f 776 803 817 775
f 778 795 804 777
f 756 794 801 755
f 762 811 785 769
f 751 793 799 750
f 755 801 809 754
f 758 797 782 761
f 773 810 789 772
f 769 785 784 768
f 761 782 790 760
f 749 787 786 748
f 752 808 793 751
f 777 804 803 776
f 754 809 814 753
f 772 789 788 771
f 748 786 812 747
f 747 812 815 746
f 176 10 177
f 319 514 515
usemtl Windows
f 479 150 152 482
f 150 151 153 152
f 154 155 152 153
f 155 490 482 152
f 102 156 157 159
f 105 102 159 158
f 159 157 161 160
f 158 159 160
f 162 112 165 163
f 163 165 168 169
f 167 286 285
f 247 245 246 248
f 245 589 590 246
f 250 595 589 245
f 249 250 245 247
f 285 166 167
f 285 288 164 166
f 479 482 487 485
f 485 487 488 486
f 489 488 487 491
f 491 487 482 490
f 431 495 493 492
f 435 494 495 431
f 495 496 497 493
f 494 496 495
f 498 499 501 443
f 499 505 504 501
f 503 637 638
f 591 592 588 587
f 587 588 590 589
f 594 587 589 595
f 593 591 587 594
f 637 503 502
f 637 502 500 640
usemtl Black
f 9 303 94
f 9 31 115 116
f 18 9 94 95
f 109 95 102 105
f 95 94 156 102
f 19 18 95 109
f 116 115 112 162
f 31 289 115
f 289 31 34 118
f 288 289 118 164
f 293 292 296 297
f 647 293 297 655
f 292 645 652 296
f 659 299 298 656
f 301 660 661 300
f 116 303 9
f 318 421 665
f 318 447 446 343
f 329 422 421 318
f 440 435 431 422
f 422 431 492 421
f 330 440 422 329
f 447 498 443 446
f 343 446 641
f 641 449 346 343
f 640 500 449 641
f 646 654 653 644
f 647 655 654 646
f 644 653 652 645
f 659 656 657 658
f 663 662 661 660
f 447 318 665
usemtl Grey
f 622 623 272 271
f 673 306 307 672
f 622 621 624 623
f 673 672 671 670
usemtl Headlights
f 262 258 259 264
f 260 261 263 284
f 264 259 263
f 284 263 259
f 607 609 604 603
f 605 636 608 606
f 609 608 604
f 636 604 608
usemtl TailLights
f 282 281 278 280
f 281 279 278
f 634 632 630 633
f 633 630 631
o Taxi_BackWheels_Cube.010
v 0.592 0.251 -1.405
v 0.754 0.251 -1.405
v 0.592 0.12 -1.37
v 0.754 0.12 -1.37
v 0.592 0.024 -1.274
v 0.754 0.024 -1.274
v 0.592 -0.011 -1.143
v 0.754 -0.011 -1.143
v 0.592 0.024 -1.012
v 0.754 0.024 -1.012
v 0.592 0.12 -0.916
v 0.754 0.12 -0.916
v 0.592 0.251 -0.881
v 0.754 0.251 -0.881
v 0.592 0.382 -0.916
v 0.754 0.382 -0.916
v 0.592 0.478 -1.012
v 0.754 0.478 -1.012
v 0.592 0.513 -1.143
v 0.754 0.513 -1.143
v 0.592 0.478 -1.274
v 0.754 0.478 -1.274
v 0.592 0.382 -1.37
v 0.754 0.382 -1.37
v 0.783 0.152 -1.314
v 0.783 0.251 -1.341
v 0.783 0.079 -1.242
v 0.783 0.053 -1.143
v 0.783 0.079 -1.044
v 0.783 0.152 -0.971
v 0.783 0.251 -0.944
v 0.783 0.35 -0.971
v 0.783 0.423 -1.044
v 0.783 0.449 -1.143
v 0.783 0.423 -1.242
v 0.783 0.35 -1.314
v 0.783 0.164 -1.293
v 0.783 0.251 -1.316
v 0.783 0.101 -1.229
v 0.783 0.078 -1.143
v 0.783 0.101 -1.056
v 0.783 0.164 -0.993
v 0.783 0.251 -0.97
v 0.783 0.338 -0.993
v 0.783 0.401 -1.056
v 0.783 0.424 -1.143
v 0.783 0.401 -1.229
v 0.783 0.338 -1.293
v 0.759 0.164 -1.293
v 0.759 0.251 -1.316
v 0.759 0.101 -1.229
v 0.759 0.078 -1.143
v 0.759 0.101 -1.056
v 0.759 0.164 -0.993
v 0.759 0.251 -0.97
v 0.759 0.338 -0.993
v 0.759 0.401 -1.056
v 0.759 0.424 -1.143
v 0.759 0.401 -1.229
v 0.759 0.338 -1.293
v 0.762 0.227 -1.185
v 0.762 0.251 -1.191
v 0.762 0.209 -1.167
v 0.762 0.202 -1.143
v 0.762 0.209 -1.118
v 0.762 0.227 -1.101
v 0.762 0.251 -1.094
v 0.762 0.275 -1.101
v 0.762 0.293 -1.118
v 0.762 0.3 -1.143
v 0.762 0.293 -1.167
v 0.762 0.275 -1.185
v 0.77 0.236 -1.169
v 0.77 0.251 -1.173
v 0.77 0.225 -1.158
v 0.77 0.221 -1.143
v 0.77 0.225 -1.128
v 0.77 0.236 -1.117
v 0.77 0.251 -1.113
v 0.77 0.266 -1.117
v 0.77 0.277 -1.128
v 0.77 0.281 -1.143
v 0.77 0.277 -1.158
v 0.77 0.266 -1.169
v 0.759 0.242 -0.981
v 0.759 0.173 -1
v 0.759 0.244 -1.083
v 0.759 0.223 -1.089
v 0.759 0.329 -1
v 0.759 0.26 -0.981
v 0.759 0.279 -1.089
v 0.759 0.258 -1.083
v 0.759 0.389 -1.055
v 0.759 0.339 -1.004
v 0.759 0.301 -1.108
v 0.759 0.286 -1.092
v 0.759 0.413 -1.134
v 0.759 0.394 -1.065
v 0.759 0.311 -1.136
v 0.759 0.305 -1.115
v 0.759 0.339 -1.281
v 0.759 0.389 -1.23
v 0.759 0.286 -1.193
v 0.759 0.301 -1.178
v 0.759 0.394 -1.221
v 0.759 0.413 -1.151
v 0.759 0.305 -1.17
v 0.759 0.311 -1.149
v 0.759 0.26 -1.304
v 0.759 0.329 -1.286
v 0.759 0.258 -1.202
v 0.759 0.279 -1.197
v 0.759 0.173 -1.286
v 0.759 0.242 -1.304
v 0.759 0.223 -1.197
v 0.759 0.244 -1.202
v 0.759 0.113 -1.23
v 0.759 0.163 -1.281
v 0.759 0.201 -1.178
v 0.759 0.216 -1.193
v 0.759 0.089 -1.151
v 0.759 0.108 -1.221
v 0.759 0.191 -1.149
v 0.759 0.197 -1.17
v 0.759 0.108 -1.065
v 0.759 0.089 -1.134
v 0.759 0.197 -1.115
v 0.759 0.191 -1.136
v 0.759 0.163 -1.004
v 0.759 0.113 -1.055
v 0.759 0.216 -1.092
v 0.759 0.201 -1.108
v 0.718 0.242 -0.981
v 0.718 0.173 -1
v 0.727 0.244 -1.083
v 0.727 0.223 -1.089
v 0.718 0.329 -1
v 0.718 0.26 -0.981
v 0.727 0.279 -1.089
v 0.727 0.258 -1.083
v 0.718 0.389 -1.055
v 0.718 0.339 -1.004
v 0.727 0.301 -1.108
v 0.727 0.286 -1.092
v 0.718 0.413 -1.134
v 0.718 0.394 -1.065
v 0.727 0.311 -1.136
v 0.727 0.305 -1.115
v 0.718 0.339 -1.281
v 0.718 0.389 -1.23
v 0.727 0.286 -1.193
v 0.727 0.301 -1.178
v 0.718 0.394 -1.221
v 0.718 0.413 -1.151
v 0.727 0.305 -1.17
v 0.727 0.311 -1.149
v 0.718 0.26 -1.304
v 0.718 0.329 -1.286
v 0.727 0.258 -1.202
v 0.727 0.279 -1.197
v 0.718 0.173 -1.286
v 0.718 0.242 -1.304
v 0.727 0.223 -1.197
v 0.727 0.244 -1.202
v 0.718 0.113 -1.23
v 0.718 0.163 -1.281
v 0.727 0.201 -1.178
v 0.727 0.216 -1.193
v 0.718 0.089 -1.151
v 0.718 0.108 -1.221
v 0.727 0.191 -1.149
v 0.727 0.197 -1.17
v 0.718 0.108 -1.065
v 0.718 0.089 -1.134
v 0.727 0.197 -1.115
v 0.727 0.191 -1.136
v 0.718 0.163 -1.004
v 0.718 0.113 -1.055
v 0.727 0.216 -1.092
v 0.727 0.201 -1.108
v 0.764 0.225 -1.106
v 0.764 0.214 -1.117
v 0.769 0.231 -1.116
v 0.769 0.224 -1.122
v 0.764 0.214 -1.169
v 0.764 0.225 -1.179
v 0.769 0.224 -1.163
v 0.769 0.231 -1.17
v 0.764 0.277 -1.179
v 0.764 0.288 -1.169
v 0.769 0.272 -1.17
v 0.769 0.278 -1.163
v 0.764 0.288 -1.117
v 0.764 0.277 -1.106
v 0.769 0.278 -1.122
v 0.769 0.272 -1.116
v 0.747 0.225 -1.106
v 0.747 0.214 -1.117
v 0.752 0.231 -1.116
v 0.752 0.224 -1.122
v 0.747 0.214 -1.169
v 0.747 0.225 -1.179
v 0.752 0.224 -1.163
v 0.752 0.231 -1.17
v 0.747 0.277 -1.179
v 0.747 0.288 -1.169
v 0.752 0.272 -1.17
v 0.752 0.278 -1.163
v 0.747 0.288 -1.117
v 0.747 0.277 -1.106
v 0.752 0.278 -1.122
v 0.752 0.272 -1.116
v -0.593 0.251 -1.405
v -0.755 0.251 -1.405
v -0.593 0.12 -1.37
v -0.755 0.12 -1.37
v -0.593 0.024 -1.274
v -0.755 0.024 -1.274
v -0.593 -0.011 -1.143
v -0.755 -0.011 -1.143
v -0.593 0.024 -1.012
v -0.755 0.024 -1.012
v -0.593 0.12 -0.916
v -0.755 0.12 -0.916
v -0.593 0.251 -0.881
v -0.755 0.251 -0.881
v -0.593 0.382 -0.916
v -0.755 0.382 -0.916
v -0.593 0.478 -1.012
v -0.755 0.478 -1.012
v -0.593 0.513 -1.143
v -0.755 0.513 -1.143
v -0.593 0.478 -1.274
v -0.755 0.478 -1.274
v -0.593 0.382 -1.37
v -0.755 0.382 -1.37
v -0.784 0.152 -1.314
v -0.784 0.251 -1.341
v -0.784 0.079 -1.242
v -0.784 0.053 -1.143
v -0.784 0.079 -1.044
v -0.784 0.152 -0.971
v -0.784 0.251 -0.944
v -0.784 0.35 -0.971
v -0.784 0.423 -1.044
v -0.784 0.449 -1.143
v -0.784 0.423 -1.242
v -0.784 0.35 -1.314
v -0.784 0.164 -1.293
v -0.784 0.251 -1.316
v -0.784 0.101 -1.229
v -0.784 0.078 -1.143
v -0.784 0.101 -1.056
v -0.784 0.164 -0.993
v -0.784 0.251 -0.97
v -0.784 0.338 -0.993
v -0.784 0.401 -1.056
v -0.784 0.424 -1.143
v -0.784 0.401 -1.229
v -0.784 0.338 -1.293
v -0.76 0.164 -1.293
v -0.76 0.251 -1.316
v -0.76 0.101 -1.229
v -0.76 0.078 -1.143
v -0.76 0.101 -1.056
v -0.76 0.164 -0.993
v -0.76 0.251 -0.97
v -0.76 0.338 -0.993
v -0.76 0.401 -1.056
v -0.76 0.424 -1.143
v -0.76 0.401 -1.229
v -0.76 0.338 -1.293
v -0.763 0.227 -1.185
v -0.763 0.251 -1.191
v -0.763 0.209 -1.167
v -0.763 0.202 -1.143
v -0.763 0.209 -1.118
v -0.763 0.227 -1.101
v -0.763 0.251 -1.094
v -0.763 0.275 -1.101
v -0.763 0.293 -1.118
v -0.763 0.3 -1.143
v -0.763 0.293 -1.167
v -0.763 0.275 -1.185
v -0.771 0.236 -1.169
v -0.771 0.251 -1.173
v -0.771 0.225 -1.158
v -0.771 0.221 -1.143
v -0.771 0.225 -1.128
v -0.771 0.236 -1.117
v -0.771 0.251 -1.113
v -0.771 0.266 -1.117
v -0.771 0.277 -1.128
v -0.771 0.281 -1.143
v -0.771 0.277 -1.158
v -0.771 0.266 -1.169
v -0.76 0.242 -0.981
v -0.76 0.173 -1
v -0.76 0.244 -1.083
v -0.76 0.223 -1.089
v -0.76 0.329 -1
v -0.76 0.26 -0.981
v -0.76 0.279 -1.089
v -0.76 0.258 -1.083
v -0.76 0.389 -1.055
v -0.76 0.339 -1.004
v -0.76 0.301 -1.108
v -0.76 0.286 -1.092
v -0.76 0.413 -1.134
v -0.76 0.394 -1.065
v -0.76 0.311 -1.136
v -0.76 0.305 -1.115
v -0.76 0.339 -1.281
v -0.76 0.389 -1.23
v -0.76 0.286 -1.193
v -0.76 0.301 -1.178
v -0.76 0.394 -1.221
v -0.76 0.413 -1.151
v -0.76 0.305 -1.17
v -0.76 0.311 -1.149
v -0.76 0.26 -1.304
v -0.76 0.329 -1.286
v -0.76 0.258 -1.202
v -0.76 0.279 -1.197
v -0.76 0.173 -1.286
v -0.76 0.242 -1.304
v -0.76 0.223 -1.197
v -0.76 0.244 -1.202
v -0.76 0.113 -1.23
v -0.76 0.163 -1.281
v -0.76 0.201 -1.178
v -0.76 0.216 -1.193
v -0.76 0.089 -1.151
v -0.76 0.108 -1.221
v -0.76 0.191 -1.149
v -0.76 0.197 -1.17
v -0.76 0.108 -1.065
v -0.76 0.089 -1.134
v -0.76 0.197 -1.115
v -0.76 0.191 -1.136
v -0.76 0.163 -1.004
v -0.76 0.113 -1.055
v -0.76 0.216 -1.092
v -0.76 0.201 -1.108
v -0.719 0.242 -0.981
v -0.719 0.173 -1
v -0.728 0.244 -1.083
v -0.728 0.223 -1.089
v -0.719 0.329 -1
v -0.719 0.26 -0.981
v -0.728 0.279 -1.089
v -0.728 0.258 -1.083
v -0.719 0.389 -1.055
v -0.719 0.339 -1.004
v -0.728 0.301 -1.108
v -0.728 0.286 -1.092
v -0.719 0.413 -1.134
v -0.719 0.394 -1.065
v -0.728 0.311 -1.136
v -0.728 0.305 -1.115
v -0.719 0.339 -1.281
v -0.719 0.389 -1.23
v -0.728 0.286 -1.193
v -0.728 0.301 -1.178
v -0.719 0.394 -1.221
v -0.719 0.413 -1.151
v -0.728 0.305 -1.17
v -0.728 0.311 -1.149
v -0.719 0.26 -1.304
v -0.719 0.329 -1.286
v -0.728 0.258 -1.202
v -0.728 0.279 -1.197
v -0.719 0.173 -1.286
v -0.719 0.242 -1.304
v -0.728 0.223 -1.197
v -0.728 0.244 -1.202
v -0.719 0.113 -1.23
v -0.719 0.163 -1.281
v -0.728 0.201 -1.178
v -0.728 0.216 -1.193
v -0.719 0.089 -1.151
v -0.719 0.108 -1.221
v -0.728 0.191 -1.149
v -0.728 0.197 -1.17
v -0.719 0.108 -1.065
v -0.719 0.089 -1.134
v -0.728 0.197 -1.115
v -0.728 0.191 -1.136
v -0.719 0.163 -1.004
v -0.719 0.113 -1.055
v -0.728 0.216 -1.092
v -0.728 0.201 -1.108
v -0.765 0.225 -1.106
v -0.765 0.214 -1.117
v -0.77 0.231 -1.116
v -0.77 0.224 -1.122
v -0.765 0.214 -1.169
v -0.765 0.225 -1.179
v -0.77 0.224 -1.163
v -0.77 0.231 -1.17
v -0.765 0.277 -1.179
v -0.765 0.288 -1.169
v -0.77 0.272 -1.17
v -0.77 0.278 -1.163
v -0.765 0.288 -1.117
v -0.765 0.277 -1.106
v -0.77 0.278 -1.122
v -0.77 0.272 -1.116
v -0.747 0.225 -1.106
v -0.747 0.214 -1.117
v -0.752 0.231 -1.116
v -0.752 0.224 -1.122
v -0.747 0.214 -1.169
v -0.747 0.225 -1.179
v -0.752 0.224 -1.163
v -0.752 0.231 -1.17
v -0.747 0.277 -1.179
v -0.747 0.288 -1.169
v -0.752 0.272 -1.17
v -0.752 0.278 -1.163
v -0.747 0.288 -1.117
v -0.747 0.277 -1.106
v -0.752 0.278 -1.122
v -0.752 0.272 -1.116
usemtl Black
f 818 819 821 820
f 820 821 823 822
f 822 823 825 824
f 824 825 827 826
f 826 827 829 828
f 828 829 831 830
f 830 831 833 832
f 832 833 835 834
f 834 835 837 836
f 836 837 839 838
f 831 829 847 848
f 838 839 841 840
f 840 841 819 818
f 818 820 822 824 826 828 830 832 834 836 838 840
f 848 847 859 860
f 829 827 846 847
f 827 825 845 846
f 819 841 853 843
f 821 819 843 842
f 825 823 844 845
f 841 839 852 853
f 823 821 842 844
f 839 837 851 852
f 837 835 850 851
f 835 833 849 850
f 833 831 848 849
f 863 862 874 875
f 845 844 856 857
f 852 851 863 864
f 849 848 860 861
f 846 845 857 858
f 853 852 864 865
f 842 843 855 854
f 850 849 861 862
f 847 846 858 859
f 843 853 865 855
f 844 842 854 856
f 851 850 862 863
f 860 859 871 872
f 857 856 868 869
f 864 863 875 876
f 861 860 872 873
f 858 857 869 870
f 865 864 876 877
f 854 855 867 866
f 862 861 873 874
f 859 858 870 871
f 855 865 877 867
f 856 854 866 868
f 950 951 953 952
f 954 955 957 956
f 958 959 961 960
f 962 963 965 964
f 966 967 969 968
f 970 971 973 972
f 974 975 977 976
f 978 979 981 980
f 982 983 985 984
f 986 987 989 988
f 990 991 993 992
f 994 995 997 996
f 1014 1015 1017 1016
f 1018 1019 1021 1020
f 1022 1023 1025 1024
f 1026 1027 1029 1028
f 1030 1032 1033 1031
f 1032 1034 1035 1033
f 1034 1036 1037 1035
f 1036 1038 1039 1037
f 1038 1040 1041 1039
f 1040 1042 1043 1041
f 1042 1044 1045 1043
f 1044 1046 1047 1045
f 1046 1048 1049 1047
f 1048 1050 1051 1049
f 1043 1060 1059 1041
f 1050 1052 1053 1051
f 1052 1030 1031 1053
f 1030 1052 1050 1048 1046 1044 1042 1040 1038 1036 1034 1032
f 1060 1072 1071 1059
f 1041 1059 1058 1039
f 1039 1058 1057 1037
f 1031 1055 1065 1053
f 1033 1054 1055 1031
f 1037 1057 1056 1035
f 1053 1065 1064 1051
f 1035 1056 1054 1033
f 1051 1064 1063 1049
f 1049 1063 1062 1047
f 1047 1062 1061 1045
f 1045 1061 1060 1043
f 1075 1087 1086 1074
f 1057 1069 1068 1056
f 1064 1076 1075 1063
f 1061 1073 1072 1060
f 1058 1070 1069 1057
f 1065 1077 1076 1064
f 1054 1066 1067 1055
f 1062 1074 1073 1061
f 1059 1071 1070 1058
f 1055 1067 1077 1065
f 1056 1068 1066 1054
f 1063 1075 1074 1062
f 1072 1084 1083 1071
f 1069 1081 1080 1068
f 1076 1088 1087 1075
f 1073 1085 1084 1072
f 1070 1082 1081 1069
f 1077 1089 1088 1076
f 1066 1078 1079 1067
f 1074 1086 1085 1073
f 1071 1083 1082 1070
f 1067 1079 1089 1077
f 1068 1080 1078 1066
f 1162 1164 1165 1163
f 1166 1168 1169 1167
f 1170 1172 1173 1171
f 1174 1176 1177 1175
f 1178 1180 1181 1179
f 1182 1184 1185 1183
f 1186 1188 1189 1187
f 1190 1192 1193 1191
f 1194 1196 1197 1195
f 1198 1200 1201 1199
f 1202 1204 1205 1203
f 1206 1208 1209 1207
f 1226 1228 1229 1227
f 1230 1232 1233 1231
f 1234 1236 1237 1235
f 1238 1240 1241 1239
usemtl Grey
f 880 868 934 936
f 879 889 901 891
f 874 886 917 915
f 872 871 903 902
f 880 881 940 941
f 888 876 922 924
f 884 885 908 909
f 869 881 945 943
f 888 889 920 921
f 879 878 932 933
f 886 874 910 912
f 882 883 948 949
f 889 879 928 929
f 890 891 901 900 899 898 897 896 895 894 893 892
f 878 890 1005 1003
f 887 886 898 899
f 884 883 895 896
f 881 880 892 893
f 888 887 899 900
f 885 884 896 897
f 882 881 893 894
f 901 889 1006 1008
f 878 879 891 890
f 885 897 1013 1011
f 883 882 999 998
f 905 904 952 953
f 884 872 902 904
f 883 884 904 905
f 871 883 905 903
f 925 924 972 973
f 872 884 909 907
f 873 872 907 906
f 885 873 906 908
f 945 944 992 993
f 873 885 913 911
f 885 886 912 913
f 874 873 911 910
f 916 914 962 964
f 886 887 916 917
f 875 874 915 914
f 887 875 914 916
f 902 903 951 950
f 877 876 919 918
f 876 888 921 919
f 889 877 918 920
f 936 934 982 984
f 875 887 925 923
f 887 888 924 925
f 876 875 923 922
f 922 923 971 970
f 877 889 929 927
f 867 877 927 926
f 879 867 926 928
f 942 943 991 990
f 866 867 931 930
f 878 866 930 932
f 867 879 933 931
f 915 917 965 963
f 878 880 936 937
f 866 878 937 935
f 868 866 935 934
f 935 937 985 983
f 868 880 941 939
f 869 868 939 938
f 881 869 938 940
f 917 916 964 965
f 881 882 944 945
f 870 869 943 942
f 882 870 942 944
f 937 936 984 985
f 871 870 947 946
f 883 871 946 948
f 870 882 949 947
f 943 945 993 991
f 923 925 973 971
f 903 905 953 951
f 930 931 979 978
f 944 942 990 992
f 910 911 959 958
f 924 922 970 972
f 904 902 950 952
f 933 932 980 981
f 913 912 960 961
f 932 930 978 980
f 912 910 958 960
f 938 939 987 986
f 918 919 967 966
f 931 933 981 979
f 911 913 961 959
f 941 940 988 989
f 921 920 968 969
f 939 941 989 987
f 919 921 969 967
f 946 947 995 994
f 926 927 975 974
f 940 938 986 988
f 906 907 955 954
f 920 918 966 968
f 949 948 996 997
f 929 928 976 977
f 909 908 956 957
f 948 946 994 996
f 927 929 977 975
f 907 909 957 955
f 934 935 983 982
f 947 949 997 995
f 914 915 963 962
f 928 926 974 976
f 908 906 954 956
f 998 999 1015 1014
f 895 883 998 1000
f 882 894 1001 999
f 894 895 1000 1001
f 1011 1013 1029 1027
f 890 892 1004 1005
f 880 878 1003 1002
f 892 880 1002 1004
f 1007 1009 1025 1023
f 900 901 1008 1009
f 888 900 1009 1007
f 889 888 1007 1006
f 1012 1010 1026 1028
f 897 898 1012 1013
f 886 885 1011 1010
f 898 886 1010 1012
f 1002 1003 1019 1018
f 1001 1000 1016 1017
f 1006 1007 1023 1022
f 1005 1004 1020 1021
f 1010 1011 1027 1026
f 1000 998 1014 1016
f 1009 1008 1024 1025
f 1003 1005 1021 1019
f 1013 1012 1028 1029
f 999 1001 1017 1015
f 1008 1006 1022 1024
f 1004 1002 1018 1020
f 1092 1148 1146 1080
f 1091 1103 1113 1101
f 1086 1127 1129 1098
f 1084 1114 1115 1083
f 1092 1153 1152 1093
f 1100 1136 1134 1088
f 1096 1121 1120 1097
f 1081 1155 1157 1093
f 1100 1133 1132 1101
f 1091 1145 1144 1090
f 1098 1124 1122 1086
f 1094 1161 1160 1095
f 1101 1141 1140 1091
f 1102 1104 1105 1106 1107 1108 1109 1110 1111 1112 1113 1103
f 1090 1215 1217 1102
f 1099 1111 1110 1098
f 1096 1108 1107 1095
f 1093 1105 1104 1092
f 1100 1112 1111 1099
f 1097 1109 1108 1096
f 1094 1106 1105 1093
f 1113 1220 1218 1101
f 1090 1102 1103 1091
f 1097 1223 1225 1109
f 1095 1210 1211 1094
f 1117 1165 1164 1116
f 1096 1116 1114 1084
f 1095 1117 1116 1096
f 1083 1115 1117 1095
f 1137 1185 1184 1136
f 1084 1119 1121 1096
f 1085 1118 1119 1084
f 1097 1120 1118 1085
f 1157 1205 1204 1156
f 1085 1123 1125 1097
f 1097 1125 1124 1098
f 1086 1122 1123 1085
f 1128 1176 1174 1126
f 1098 1129 1128 1099
f 1087 1126 1127 1086
f 1099 1128 1126 1087
f 1114 1162 1163 1115
f 1089 1130 1131 1088
f 1088 1131 1133 1100
f 1101 1132 1130 1089
f 1148 1196 1194 1146
f 1087 1135 1137 1099
f 1099 1137 1136 1100
f 1088 1134 1135 1087
f 1134 1182 1183 1135
f 1089 1139 1141 1101
f 1079 1138 1139 1089
f 1091 1140 1138 1079
f 1154 1202 1203 1155
f 1078 1142 1143 1079
f 1090 1144 1142 1078
f 1079 1143 1145 1091
f 1127 1175 1177 1129
f 1090 1149 1148 1092
f 1078 1147 1149 1090
f 1080 1146 1147 1078
f 1147 1195 1197 1149
f 1080 1151 1153 1092
f 1081 1150 1151 1080
f 1093 1152 1150 1081
f 1129 1177 1176 1128
f 1093 1157 1156 1094
f 1082 1154 1155 1081
f 1094 1156 1154 1082
f 1149 1197 1196 1148
f 1083 1158 1159 1082
f 1095 1160 1158 1083
f 1082 1159 1161 1094
f 1155 1203 1205 1157
f 1135 1183 1185 1137
f 1115 1163 1165 1117
f 1142 1190 1191 1143
f 1156 1204 1202 1154
f 1122 1170 1171 1123
f 1136 1184 1182 1134
f 1116 1164 1162 1114
f 1145 1193 1192 1144
f 1125 1173 1172 1124
f 1144 1192 1190 1142
f 1124 1172 1170 1122
f 1150 1198 1199 1151
f 1130 1178 1179 1131
f 1143 1191 1193 1145
f 1123 1171 1173 1125
f 1153 1201 1200 1152
f 1133 1181 1180 1132
f 1151 1199 1201 1153
f 1131 1179 1181 1133
f 1158 1206 1207 1159
f 1138 1186 1187 1139
f 1152 1200 1198 1150
f 1118 1166 1167 1119
f 1132 1180 1178 1130
f 1161 1209 1208 1160
f 1141 1189 1188 1140
f 1121 1169 1168 1120
f 1160 1208 1206 1158
f 1139 1187 1189 1141
f 1119 1167 1169 1121
f 1146 1194 1195 1147
f 1159 1207 1209 1161
f 1126 1174 1175 1127
f 1140 1188 1186 1138
f 1120 1168 1166 1118
f 1210 1226 1227 1211
f 1107 1212 1210 1095
f 1094 1211 1213 1106
f 1106 1213 1212 1107
f 1223 1239 1241 1225
f 1102 1217 1216 1104
f 1092 1214 1215 1090
f 1104 1216 1214 1092
f 1219 1235 1237 1221
f 1112 1221 1220 1113
f 1100 1219 1221 1112
f 1101 1218 1219 1100
f 1224 1240 1238 1222
f 1109 1225 1224 1110
f 1098 1222 1223 1097
f 1110 1224 1222 1098
f 1214 1230 1231 1215
f 1213 1229 1228 1212
f 1218 1234 1235 1219
f 1217 1233 1232 1216
f 1222 1238 1239 1223
f 1212 1228 1226 1210
f 1221 1237 1236 1220
f 1215 1231 1233 1217
f 1225 1241 1240 1224
f 1211 1227 1229 1213
f 1220 1236 1234 1218
f 1216 1232 1230 1214
o Taxi_FrontLeftWheel_Cube.013
v 0.594 0.251 1.034
v 0.756 0.251 1.034
v 0.594 0.12 1.07
v 0.756 0.12 1.07
v 0.594 0.024 1.165
v 0.756 0.024 1.165
v 0.594 -0.011 1.296
v 0.756 -0.011 1.296
v 0.594 0.024 1.427
v 0.756 0.024 1.427
v 0.594 0.12 1.523
v 0.756 0.12 1.523
v 0.594 0.251 1.558
v 0.756 0.251 1.558
v 0.594 0.382 1.523
v 0.756 0.382 1.523
v 0.594 0.478 1.427
v 0.756 0.478 1.427
v 0.594 0.513 1.296
v 0.756 0.513 1.296
v 0.594 0.478 1.165
v 0.756 0.478 1.165
v 0.594 0.382 1.07
v 0.756 0.382 1.07
v 0.785 0.152 1.125
v 0.785 0.251 1.098
v 0.785 0.079 1.197
v 0.785 0.053 1.296
v 0.785 0.079 1.396
v 0.785 0.152 1.468
v 0.785 0.251 1.495
v 0.785 0.35 1.468
v 0.785 0.423 1.396
v 0.785 0.449 1.296
v 0.785 0.423 1.197
v 0.785 0.35 1.125
v 0.785 0.164 1.146
v 0.785 0.251 1.123
v 0.785 0.101 1.21
v 0.785 0.078 1.296
v 0.785 0.101 1.383
v 0.785 0.164 1.446
v 0.785 0.251 1.469
v 0.785 0.338 1.446
v 0.785 0.401 1.383
v 0.785 0.424 1.296
v 0.785 0.401 1.21
v 0.785 0.338 1.146
v 0.761 0.164 1.146
v 0.761 0.251 1.123
v 0.761 0.101 1.21
v 0.761 0.078 1.296
v 0.761 0.101 1.383
v 0.761 0.164 1.446
v 0.761 0.251 1.469
v 0.761 0.338 1.446
v 0.761 0.401 1.383
v 0.761 0.424 1.296
v 0.761 0.401 1.21
v 0.761 0.338 1.146
v 0.764 0.227 1.254
v 0.764 0.251 1.248
v 0.764 0.209 1.272
v 0.764 0.202 1.296
v 0.764 0.209 1.321
v 0.764 0.227 1.338
v 0.764 0.251 1.345
v 0.764 0.275 1.338
v 0.764 0.293 1.321
v 0.764 0.3 1.296
v 0.764 0.293 1.272
v 0.764 0.275 1.254
v 0.772 0.236 1.27
v 0.772 0.251 1.266
v 0.772 0.225 1.281
v 0.772 0.221 1.296
v 0.772 0.225 1.312
v 0.772 0.236 1.323
v 0.772 0.251 1.327
v 0.772 0.266 1.323
v 0.772 0.277 1.312
v 0.772 0.281 1.296
v 0.772 0.277 1.281
v 0.772 0.266 1.27
v 0.761 0.242 1.458
v 0.761 0.173 1.44
v 0.76 0.244 1.356
v 0.76 0.223 1.35
v 0.761 0.329 1.44
v 0.761 0.26 1.458
v 0.76 0.279 1.35
v 0.76 0.258 1.356
v 0.761 0.389 1.384
v 0.761 0.339 1.435
v 0.76 0.301 1.331
v 0.76 0.286 1.347
v 0.761 0.413 1.305
v 0.761 0.394 1.374
v 0.76 0.311 1.303
v 0.76 0.305 1.324
v 0.761 0.339 1.158
v 0.761 0.389 1.209
v 0.76 0.286 1.246
v 0.76 0.301 1.261
v 0.761 0.394 1.218
v 0.761 0.413 1.288
v 0.76 0.305 1.269
v 0.76 0.311 1.29
v 0.761 0.26 1.135
v 0.761 0.329 1.153
v 0.76 0.258 1.237
v 0.76 0.279 1.242
v 0.761 0.173 1.153
v 0.761 0.242 1.135
v 0.76 0.223 1.242
v 0.76 0.244 1.237
v 0.761 0.113 1.209
v 0.761 0.163 1.158
v 0.76 0.201 1.261
v 0.76 0.216 1.246
v 0.761 0.089 1.288
v 0.761 0.108 1.218
v 0.76 0.191 1.29
v 0.76 0.197 1.269
v 0.761 0.108 1.374
v 0.761 0.089 1.305
v 0.76 0.197 1.324
v 0.76 0.191 1.303
v 0.761 0.163 1.435
v 0.761 0.113 1.384
v 0.76 0.216 1.347
v 0.76 0.201 1.331
v 0.72 0.242 1.458
v 0.72 0.173 1.44
v 0.729 0.244 1.356
v 0.729 0.223 1.35
v 0.72 0.329 1.44
v 0.72 0.26 1.458
v 0.729 0.279 1.35
v 0.729 0.258 1.356
v 0.72 0.389 1.384
v 0.72 0.339 1.435
v 0.729 0.301 1.331
v 0.729 0.286 1.347
v 0.72 0.413 1.305
v 0.72 0.394 1.374
v 0.729 0.311 1.303
v 0.729 0.305 1.324
v 0.72 0.339 1.158
v 0.72 0.389 1.209
v 0.729 0.286 1.246
v 0.729 0.301 1.261
v 0.72 0.394 1.218
v 0.72 0.413 1.288
v 0.729 0.305 1.269
v 0.729 0.311 1.29
v 0.72 0.26 1.135
v 0.72 0.329 1.153
v 0.729 0.258 1.237
v 0.729 0.279 1.242
v 0.72 0.173 1.153
v 0.72 0.242 1.135
v 0.729 0.223 1.242
v 0.729 0.244 1.237
v 0.72 0.113 1.209
v 0.72 0.163 1.158
v 0.729 0.201 1.261
v 0.729 0.216 1.246
v 0.72 0.089 1.288
v 0.72 0.108 1.218
v 0.729 0.191 1.29
v 0.729 0.197 1.269
v 0.72 0.108 1.374
v 0.72 0.089 1.305
v 0.729 0.197 1.324
v 0.729 0.191 1.303
v 0.72 0.163 1.435
v 0.72 0.113 1.384
v 0.729 0.216 1.347
v 0.729 0.201 1.331
v 0.765 0.225 1.333
v 0.765 0.214 1.322
v 0.77 0.231 1.324
v 0.77 0.224 1.317
v 0.765 0.214 1.27
v 0.765 0.225 1.26
v 0.77 0.224 1.276
v 0.77 0.231 1.269
v 0.765 0.277 1.26
v 0.765 0.288 1.27
v 0.77 0.272 1.269
v 0.77 0.278 1.276
v 0.765 0.288 1.322
v 0.765 0.277 1.333
v 0.77 0.278 1.317
v 0.77 0.272 1.324
v 0.748 0.225 1.333
v 0.748 0.214 1.322
v 0.753 0.231 1.324
v 0.753 0.224 1.317
v 0.748 0.214 1.27
v 0.748 0.225 1.26
v 0.753 0.224 1.276
v 0.753 0.231 1.269
v 0.748 0.277 1.26
v 0.748 0.288 1.27
v 0.753 0.272 1.269
v 0.753 0.278 1.276
v 0.748 0.288 1.322
v 0.748 0.277 1.333
v 0.753 0.278 1.317
v 0.753 0.272 1.324
usemtl Black
f 1242 1243 1245 1244
f 1244 1245 1247 1246
f 1246 1247 1249 1248
f 1248 1249 1251 1250
f 1250 1251 1253 1252
f 1252 1253 1255 1254
f 1254 1255 1257 1256
f 1256 1257 1259 1258
f 1258 1259 1261 1260
f 1260 1261 1263 1262
f 1255 1253 1271 1272
f 1262 1263 1265 1264
f 1264 1265 1243 1242
f 1242 1244 1246 1248 1250 1252 1254 1256 1258 1260 1262 1264
f 1272 1271 1283 1284
f 1253 1251 1270 1271
f 1251 1249 1269 1270
f 1243 1265 1277 1267
f 1245 1243 1267 1266
f 1249 1247 1268 1269
f 1265 1263 1276 1277
f 1247 1245 1266 1268
f 1263 1261 1275 1276
f 1261 1259 1274 1275
f 1259 1257 1273 1274
f 1257 1255 1272 1273
f 1287 1286 1298 1299
f 1269 1268 1280 1281
f 1276 1275 1287 1288
f 1273 1272 1284 1285
f 1270 1269 1281 1282
f 1277 1276 1288 1289
f 1266 1267 1279 1278
f 1274 1273 1285 1286
f 1271 1270 1282 1283
f 1267 1277 1289 1279
f 1268 1266 1278 1280
f 1275 1274 1286 1287
f 1284 1283 1295 1296
f 1281 1280 1292 1293
f 1288 1287 1299 1300
f 1285 1284 1296 1297
f 1282 1281 1293 1294
f 1289 1288 1300 1301
f 1278 1279 1291 1290
f 1286 1285 1297 1298
f 1283 1282 1294 1295
f 1279 1289 1301 1291
f 1280 1278 1290 1292
f 1374 1375 1377 1376
f 1378 1379 1381 1380
f 1382 1383 1385 1384
f 1386 1387 1389 1388
f 1390 1391 1393 1392
f 1394 1395 1397 1396
f 1398 1399 1401 1400
f 1402 1403 1405 1404
f 1406 1407 1409 1408
f 1410 1411 1413 1412
f 1414 1415 1417 1416
f 1418 1419 1421 1420
f 1438 1439 1441 1440
f 1442 1443 1445 1444
f 1446 1447 1449 1448
f 1450 1451 1453 1452
usemtl Grey
f 1304 1292 1358 1360
f 1303 1313 1325 1315
f 1298 1310 1341 1339
f 1296 1295 1327 1326
f 1304 1305 1364 1365
f 1312 1300 1346 1348
f 1308 1309 1332 1333
f 1293 1305 1369 1367
f 1312 1313 1344 1345
f 1303 1302 1356 1357
f 1310 1298 1334 1336
f 1306 1307 1372 1373
f 1313 1303 1352 1353
f 1314 1315 1325 1324 1323 1322 1321 1320 1319 1318 1317 1316
f 1302 1314 1429 1427
f 1311 1310 1322 1323
f 1308 1307 1319 1320
f 1305 1304 1316 1317
f 1312 1311 1323 1324
f 1309 1308 1320 1321
f 1306 1305 1317 1318
f 1325 1313 1430 1432
f 1302 1303 1315 1314
f 1309 1321 1437 1435
f 1307 1306 1423 1422
f 1329 1328 1376 1377
f 1308 1296 1326 1328
f 1307 1308 1328 1329
f 1295 1307 1329 1327
f 1349 1348 1396 1397
f 1296 1308 1333 1331
f 1297 1296 1331 1330
f 1309 1297 1330 1332
f 1369 1368 1416 1417
f 1297 1309 1337 1335
f 1309 1310 1336 1337
f 1298 1297 1335 1334
f 1340 1338 1386 1388
f 1310 1311 1340 1341
f 1299 1298 1339 1338
f 1311 1299 1338 1340
f 1326 1327 1375 1374
f 1301 1300 1343 1342
f 1300 1312 1345 1343
f 1313 1301 1342 1344
f 1360 1358 1406 1408
f 1299 1311 1349 1347
f 1311 1312 1348 1349
f 1300 1299 1347 1346
f 1346 1347 1395 1394
f 1301 1313 1353 1351
f 1291 1301 1351 1350
f 1303 1291 1350 1352
f 1366 1367 1415 1414
f 1290 1291 1355 1354
f 1302 1290 1354 1356
f 1291 1303 1357 1355
f 1339 1341 1389 1387
f 1302 1304 1360 1361
f 1290 1302 1361 1359
f 1292 1290 1359 1358
f 1359 1361 1409 1407
f 1292 1304 1365 1363
f 1293 1292 1363 1362
f 1305 1293 1362 1364
f 1341 1340 1388 1389
f 1305 1306 1368 1369
f 1294 1293 1367 1366
f 1306 1294 1366 1368
f 1361 1360 1408 1409
f 1295 1294 1371 1370
f 1307 1295 1370 1372
f 1294 1306 1373 1371
f 1367 1369 1417 1415
f 1347 1349 1397 1395
f 1327 1329 1377 1375
f 1354 1355 1403 1402
f 1368 1366 1414 1416
f 1334 1335 1383 1382
f 1348 1346 1394 1396
f 1328 1326 1374 1376
f 1357 1356 1404 1405
f 1337 1336 1384 1385
f 1356 1354 1402 1404
f 1336 1334 1382 1384
f 1362 1363 1411 1410
f 1342 1343 1391 1390
f 1355 1357 1405 1403
f 1335 1337 1385 1383
f 1365 1364 1412 1413
f 1345 1344 1392 1393
f 1363 1365 1413 1411
f 1343 1345 1393 1391
f 1370 1371 1419 1418
f 1350 1351 1399 1398
f 1364 1362 1410 1412
f 1330 1331 1379 1378
f 1344 1342 1390 1392
f 1373 1372 1420 1421
f 1353 1352 1400 1401
f 1333 1332 1380 1381
f 1372 1370 1418 1420
f 1351 1353 1401 1399
f 1331 1333 1381 1379
f 1358 1359 1407 1406
f 1371 1373 1421 1419
f 1338 1339 1387 1386
f 1352 1350 1398 1400
f 1332 1330 1378 1380
f 1422 1423 1439 1438
f 1319 1307 1422 1424
f 1306 1318 1425 1423
f 1318 1319 1424 1425
f 1435 1437 1453 1451
f 1314 1316 1428 1429
f 1304 1302 1427 1426
f 1316 1304 1426 1428
f 1431 1433 1449 1447
f 1324 1325 1432 1433
f 1312 1324 1433 1431
f 1313 1312 1431 1430
f 1436 1434 1450 1452
f 1321 1322 1436 1437
f 1310 1309 1435 1434
f 1322 1310 1434 1436
f 1426 1427 1443 1442
f 1425 1424 1440 1441
f 1430 1431 1447 1446
f 1429 1428 1444 1445
f 1434 1435 1451 1450
f 1424 1422 1438 1440
f 1433 1432 1448 1449
f 1427 1429 1445 1443
f 1437 1436 1452 1453
f 1423 1425 1441 1439
f 1432 1430 1446 1448
f 1428 1426 1442 1444
o Taxi_FrontRightWheel_Cube.014
v -0.595 0.251 1.034
v -0.757 0.251 1.034
v -0.595 0.12 1.07
v -0.757 0.12 1.07
v -0.595 0.024 1.165
v -0.757 0.024 1.165
v -0.595 -0.011 1.296
v -0.757 -0.011 1.296
v -0.595 0.024 1.427
v -0.757 0.024 1.427
v -0.595 0.12 1.523
v -0.757 0.12 1.523
v -0.595 0.251 1.558
v -0.757 0.251 1.558
v -0.595 0.382 1.523
v -0.757 0.382 1.523
v -0.595 0.478 1.427
v -0.757 0.478 1.427
v -0.595 0.513 1.296
v -0.757 0.513 1.296
v -0.595 0.478 1.165
v -0.757 0.478 1.165
v -0.595 0.382 1.07
v -0.757 0.382 1.07
v -0.786 0.152 1.125
v -0.786 0.251 1.098
v -0.786 0.079 1.197
v -0.786 0.053 1.296
v -0.786 0.079 1.396
v -0.786 0.152 1.468
v -0.786 0.251 1.495
v -0.786 0.35 1.468
v -0.786 0.423 1.396
v -0.786 0.449 1.296
v -0.786 0.423 1.197
v -0.786 0.35 1.125
v -0.786 0.164 1.146
v -0.786 0.251 1.123
v -0.786 0.101 1.21
v -0.786 0.078 1.296
v -0.786 0.101 1.383
v -0.786 0.164 1.446
v -0.786 0.251 1.469
v -0.786 0.338 1.446
v -0.786 0.401 1.383
v -0.786 0.424 1.296
v -0.786 0.401 1.21
v -0.786 0.338 1.146
v -0.762 0.164 1.146
v -0.762 0.251 1.123
v -0.762 0.101 1.21
v -0.762 0.078 1.296
v -0.762 0.101 1.383
v -0.762 0.164 1.446
v -0.762 0.251 1.469
v -0.762 0.338 1.446
v -0.762 0.401 1.383
v -0.762 0.424 1.296
v -0.762 0.401 1.21
v -0.762 0.338 1.146
v -0.765 0.227 1.254
v -0.765 0.251 1.248
v -0.765 0.209 1.272
v -0.765 0.202 1.296
v -0.765 0.209 1.321
v -0.765 0.227 1.338
v -0.765 0.251 1.345
v -0.765 0.275 1.338
v -0.765 0.293 1.321
v -0.765 0.3 1.296
v -0.765 0.293 1.272
v -0.765 0.275 1.254
v -0.773 0.236 1.27
v -0.773 0.251 1.266
v -0.773 0.225 1.281
v -0.773 0.221 1.296
v -0.773 0.225 1.312
v -0.773 0.236 1.323
v -0.773 0.251 1.327
v -0.773 0.266 1.323
v -0.773 0.277 1.312
v -0.773 0.281 1.296
v -0.773 0.277 1.281
v -0.773 0.266 1.27
v -0.762 0.242 1.458
v -0.762 0.173 1.44
v -0.761 0.244 1.356
v -0.761 0.223 1.35
v -0.762 0.329 1.44
v -0.762 0.26 1.458
v -0.761 0.279 1.35
v -0.761 0.258 1.356
v -0.762 0.389 1.384
v -0.762 0.339 1.435
v -0.761 0.301 1.331
v -0.761 0.286 1.347
v -0.762 0.413 1.305
v -0.762 0.394 1.374
v -0.761 0.311 1.303
v -0.761 0.305 1.324
v -0.762 0.339 1.158
v -0.762 0.389 1.209
v -0.761 0.286 1.246
v -0.761 0.301 1.261
v -0.762 0.394 1.218
v -0.762 0.413 1.288
v -0.761 0.305 1.269
v -0.761 0.311 1.29
v -0.762 0.26 1.135
v -0.762 0.329 1.153
v -0.761 0.258 1.237
v -0.761 0.279 1.242
v -0.762 0.173 1.153
v -0.762 0.242 1.135
v -0.761 0.223 1.242
v -0.761 0.244 1.237
v -0.762 0.113 1.209
v -0.762 0.163 1.158
v -0.761 0.201 1.261
v -0.761 0.216 1.246
v -0.762 0.089 1.288
v -0.762 0.108 1.218
v -0.761 0.191 1.29
v -0.761 0.197 1.269
v -0.762 0.108 1.374
v -0.762 0.089 1.305
v -0.761 0.197 1.324
v -0.761 0.191 1.303
v -0.762 0.163 1.435
v -0.762 0.113 1.384
v -0.761 0.216 1.347
v -0.761 0.201 1.331
v -0.721 0.242 1.458
v -0.721 0.173 1.44
v -0.73 0.244 1.356
v -0.73 0.223 1.35
v -0.721 0.329 1.44
v -0.721 0.26 1.458
v -0.73 0.279 1.35
v -0.73 0.258 1.356
v -0.721 0.389 1.384
v -0.721 0.339 1.435
v -0.73 0.301 1.331
v -0.73 0.286 1.347
v -0.721 0.413 1.305
v -0.721 0.394 1.374
v -0.73 0.311 1.303
v -0.73 0.305 1.324
v -0.721 0.339 1.158
v -0.721 0.389 1.209
v -0.73 0.286 1.246
v -0.73 0.301 1.261
v -0.721 0.394 1.218
v -0.721 0.413 1.288
v -0.73 0.305 1.269
v -0.73 0.311 1.29
v -0.721 0.26 1.135
v -0.721 0.329 1.153
v -0.73 0.258 1.237
v -0.73 0.279 1.242
v -0.721 0.173 1.153
v -0.721 0.242 1.135
v -0.73 0.223 1.242
v -0.73 0.244 1.237
v -0.721 0.113 1.209
v -0.721 0.163 1.158
v -0.73 0.201 1.261
v -0.73 0.216 1.246
v -0.721 0.089 1.288
v -0.721 0.108 1.218
v -0.73 0.191 1.29
v -0.73 0.197 1.269
v -0.721 0.108 1.374
v -0.721 0.089 1.305
v -0.73 0.197 1.324
v -0.73 0.191 1.303
v -0.721 0.163 1.435
v -0.721 0.113 1.384
v -0.73 0.216 1.347
v -0.73 0.201 1.331
v -0.766 0.225 1.333
v -0.766 0.214 1.322
v -0.771 0.231 1.324
v -0.771 0.224 1.317
v -0.766 0.214 1.27
v -0.766 0.225 1.26
v -0.771 0.224 1.276
v -0.771 0.231 1.269
v -0.766 0.277 1.26
v -0.766 0.288 1.27
v -0.771 0.272 1.269
v -0.771 0.278 1.276
v -0.766 0.288 1.322
v -0.766 0.277 1.333
v -0.771 0.278 1.317
v -0.771 0.272 1.324
v -0.749 0.225 1.333
v -0.749 0.214 1.322
v -0.754 0.231 1.324
v -0.754 0.224 1.317
v -0.749 0.214 1.27
v -0.749 0.225 1.26
v -0.754 0.224 1.276
v -0.754 0.231 1.269
v -0.749 0.277 1.26
v -0.749 0.288 1.27
v -0.754 0.272 1.269
v -0.754 0.278 1.276
v -0.749 0.288 1.322
v -0.749 0.277 1.333
v -0.754 0.278 1.317
v -0.754 0.272 1.324
usemtl Black
f 1454 1456 1457 1455
f 1456 1458 1459 1457
f 1458 1460 1461 1459
f 1460 1462 1463 1461
f 1462 1464 1465 1463
f 1464 1466 1467 1465
f 1466 1468 1469 1467
f 1468 1470 1471 1469
f 1470 1472 1473 1471
f 1472 1474 1475 1473
f 1467 1484 1483 1465
f 1474 1476 1477 1475
f 1476 1454 1455 1477
f 1454 1476 1474 1472 1470 1468 1466 1464 1462 1460 1458 1456
f 1484 1496 1495 1483
f 1465 1483 1482 1463
f 1463 1482 1481 1461
f 1455 1479 1489 1477
f 1457 1478 1479 1455
f 1461 1481 1480 1459
f 1477 1489 1488 1475
f 1459 1480 1478 1457
f 1475 1488 1487 1473
f 1473 1487 1486 1471
f 1471 1486 1485 1469
f 1469 1485 1484 1467
f 1499 1511 1510 1498
f 1481 1493 1492 1480
f 1488 1500 1499 1487
f 1485 1497 1496 1484
f 1482 1494 1493 1481
f 1489 1501 1500 1488
f 1478 1490 1491 1479
f 1486 1498 1497 1485
f 1483 1495 1494 1482
f 1479 1491 1501 1489
f 1480 1492 1490 1478
f 1487 1499 1498 1486
f 1496 1508 1507 1495
f 1493 1505 1504 1492
f 1500 1512 1511 1499
f 1497 1509 1508 1496
f 1494 1506 1505 1493
f 1501 1513 1512 1500
f 1490 1502 1503 1491
f 1498 1510 1509 1497
f 1495 1507 1506 1494
f 1491 1503 1513 1501
f 1492 1504 1502 1490
f 1586 1588 1589 1587
f 1590 1592 1593 1591
f 1594 1596 1597 1595
f 1598 1600 1601 1599
f 1602 1604 1605 1603
f 1606 1608 1609 1607
f 1610 1612 1613 1611
f 1614 1616 1617 1615
f 1618 1620 1621 1619
f 1622 1624 1625 1623
f 1626 1628 1629 1627
f 1630 1632 1633 1631
f 1650 1652 1653 1651
f 1654 1656 1657 1655
f 1658 1660 1661 1659
f 1662 1664 1665 1663
usemtl Grey
f 1516 1572 1570 1504
f 1515 1527 1537 1525
f 1510 1551 1553 1522
f 1508 1538 1539 1507
f 1516 1577 1576 1517
f 1524 1560 1558 1512
f 1520 1545 1544 1521
f 1505 1579 1581 1517
f 1524 1557 1556 1525
f 1515 1569 1568 1514
f 1522 1548 1546 1510
f 1518 1585 1584 1519
f 1525 1565 1564 1515
f 1526 1528 1529 1530 1531 1532 1533 1534 1535 1536 1537 1527
f 1514 1639 1641 1526
f 1523 1535 1534 1522
f 1520 1532 1531 1519
f 1517 1529 1528 1516
f 1524 1536 1535 1523
f 1521 1533 1532 1520
f 1518 1530 1529 1517
f 1537 1644 1642 1525
f 1514 1526 1527 1515
f 1521 1647 1649 1533
f 1519 1634 1635 1518
f 1541 1589 1588 1540
f 1520 1540 1538 1508
f 1519 1541 1540 1520
f 1507 1539 1541 1519
f 1561 1609 1608 1560
f 1508 1543 1545 1520
f 1509 1542 1543 1508
f 1521 1544 1542 1509
f 1581 1629 1628 1580
f 1509 1547 1549 1521
f 1521 1549 1548 1522
f 1510 1546 1547 1509
f 1552 1600 1598 1550
f 1522 1553 1552 1523
f 1511 1550 1551 1510
f 1523 1552 1550 1511
f 1538 1586 1587 1539
f 1513 1554 1555 1512
f 1512 1555 1557 1524
f 1525 1556 1554 1513
f 1572 1620 1618 1570
f 1511 1559 1561 1523
f 1523 1561 1560 1524
f 1512 1558 1559 1511
f 1558 1606 1607 1559
f 1513 1563 1565 1525
f 1503 1562 1563 1513
f 1515 1564 1562 1503
f 1578 1626 1627 1579
f 1502 1566 1567 1503
f 1514 1568 1566 1502
f 1503 1567 1569 1515
f 1551 1599 1601 1553
f 1514 1573 1572 1516
f 1502 1571 1573 1514
f 1504 1570 1571 1502
f 1571 1619 1621 1573
f 1504 1575 1577 1516
f 1505 1574 1575 1504
f 1517 1576 1574 1505
f 1553 1601 1600 1552
f 1517 1581 1580 1518
f 1506 1578 1579 1505
f 1518 1580 1578 1506
f 1573 1621 1620 1572
f 1507 1582 1583 1506
f 1519 1584 1582 1507
f 1506 1583 1585 1518
f 1579 1627 1629 1581
f 1559 1607 1609 1561
f 1539 1587 1589 1541
f 1566 1614 1615 1567
f 1580 1628 1626 1578
f 1546 1594 1595 1547
f 1560 1608 1606 1558
f 1540 1588 1586 1538
f 1569 1617 1616 1568
f 1549 1597 1596 1548
f 1568 1616 1614 1566
f 1548 1596 1594 1546
f 1574 1622 1623 1575
f 1554 1602 1603 1555
f 1567 1615 1617 1569
f 1547 1595 1597 1549
f 1577 1625 1624 1576
f 1557 1605 1604 1556
f 1575 1623 1625 1577
f 1555 1603 1605 1557
f 1582 1630 1631 1583
f 1562 1610 1611 1563
f 1576 1624 1622 1574
f 1542 1590 1591 1543
f 1556 1604 1602 1554
f 1585 1633 1632 1584
f 1565 1613 1612 1564
f 1545 1593 1592 1544
f 1584 1632 1630 1582
f 1563 1611 1613 1565
f 1543 1591 1593 1545
f 1570 1618 1619 1571
f 1583 1631 1633 1585
f 1550 1598 1599 1551
f 1564 1612 1610 1562
f 1544 1592 1590 1542
f 1634 1650 1651 1635
f 1531 1636 1634 1519
f 1518 1635 1637 1530
f 1530 1637 1636 1531
f 1647 1663 1665 1649
f 1526 1641 1640 1528
f 1516 1638 1639 1514
f 1528 1640 1638 1516
f 1643 1659 1661 1645
f 1536 1645 1644 1537
f 1524 1643 1645 1536
f 1525 1642 1643 1524
f 1648 1664 1662 1646
f 1533 1649 1648 1534
f 1522 1646 1647 1521
f 1534 1648 1646 1522
f 1638 1654 1655 1639
f 1637 1653 1652 1636
f 1642 1658 1659 1643
f 1641 1657 1656 1640
f 1646 1662 1663 1647
f 1636 1652 1650 1634
f 1645 1661 1660 1644
f 1639 1655 1657 1641
f 1649 1665 1664 1648
f 1635 1651 1653 1637
f 1644 1660 1658 1642
f 1640 1656 1654 1638
